<svg id="f2fd24fa-df78-455e-9318-5bd7b9c92e1c" data-name="Calque 1" xmlns="http://www.w3.org/2000/svg" viewBox="0 0 191.78 29.68"><defs><style>.ae04651c-abd3-484e-a51c-b9ecc9496e82{fill:#fff;}</style></defs><polygon class="ae04651c-abd3-484e-a51c-b9ecc9496e82" points="25.31 0 0 29.64 11.25 29.64 26.56 11.72 26.56 19.23 35.12 19.25 35.12 0 25.31 0"/><path class="ae04651c-abd3-484e-a51c-b9ecc9496e82" d="M67.49,10.69H47.12a1.07,1.07,0,0,1,0-2.13h25L75.46,0H47.12a9.63,9.63,0,0,0,0,19.25H67.49a.94.94,0,0,1,0,1.87H21.16l-7.47,8.53,3.15,0H67.49a9.5,9.5,0,0,0,0-19"/><path class="ae04651c-abd3-484e-a51c-b9ecc9496e82" d="M98.63,10.92c2.1,0,3.27,0,3.57,0h.21l.06-.2c.32-1,.63-2,.8-2.6l.1-.36h-15L88.31,8c-.21.65-.67,2.28-.76,2.6l-.1.36h1.94l9.24,0m3.65,1.47h-.13c-.19,0-1.38,0-3.52,0l-9.76,0H87.22a1.29,1.29,0,0,1-1-.43,1.19,1.19,0,0,1-.25-1l0-.09c.41-1.44.89-3.1,1-3.54a1.54,1.54,0,0,1,1.51-1h15.19a1.37,1.37,0,0,1,1.19,1.3,24.29,24.29,0,0,1-1.07,3.71l0,.13a1.7,1.7,0,0,1-1.47.91"/><path class="ae04651c-abd3-484e-a51c-b9ecc9496e82" d="M78.69,15.55l-.11,0c-.39.15-1.7.73-2,1.54l-2.34,8a1.45,1.45,0,0,0,0,.92,3.4,3.4,0,0,0,.53,1.06,3,3,0,0,0,.84.79,1.79,1.79,0,0,0,.94.27h26.52a4,4,0,0,0,3.88-3l2.71-8.52c.21-.65-.49-1.14-.63-1.23l-2.13-.73,0-.45H107l2.4-.2c.21,0,.91,0,1.09-.45l0-.13c.08-.18.16-.37.24-.59s.22-.7.35-1.19l2.27-7.22a1.85,1.85,0,0,0,0-.93,2.76,2.76,0,0,0-.51-1,3.49,3.49,0,0,0-.87-.8,1.71,1.71,0,0,0-.9-.27h-26a3.07,3.07,0,0,0-1.2.32,9.11,9.11,0,0,0-1.51.9,7.81,7.81,0,0,0-1.31,1.18,2.76,2.76,0,0,0-.62,1l0,.07c-1.59,5.46-2.18,7.5-2.32,8.06l0,.15h0l0,.05a.68.68,0,0,0,0,.45,1.21,1.21,0,0,0,.72.56l1.66.59ZM76.56,29.63a3.25,3.25,0,0,1-1.7-.49A4.32,4.32,0,0,1,73.61,28a4.85,4.85,0,0,1-.75-1.51,2.86,2.86,0,0,1,0-1.76l2.36-8.1a3.58,3.58,0,0,1,1.48-1.69l.24-.15-.14-.24a1.83,1.83,0,0,1-.14-1.62c0-.16.09-.35.15-.56l0-.09c0-.17.09-.35.14-.55l2.14-7.2a4.1,4.1,0,0,1,.94-1.6,9.27,9.27,0,0,1,1.53-1.39,9.57,9.57,0,0,1,1.77-1A4.44,4.44,0,0,1,85.16,0h26a3.11,3.11,0,0,1,1.66.49A4.89,4.89,0,0,1,114,1.64a4.42,4.42,0,0,1,.77,1.55,3.38,3.38,0,0,1,0,1.7l-2.28,7.21c-.13.5-.26.93-.37,1.27s-.19.48-.28.7l-.05.11a2,2,0,0,1-.66.83l-.21.15.14.22a1.76,1.76,0,0,1,0,1.44l0,.17-2.85,9a4.9,4.9,0,0,1-4.73,3.62Z"/><path class="ae04651c-abd3-484e-a51c-b9ecc9496e82" d="M83.92,18.89l-.9,3h17.33l.91-3Zm-1.14,4.42a1.27,1.27,0,0,1-1.19-.54,1.07,1.07,0,0,1-.07-1l1-3.48a1.23,1.23,0,0,1,1.2-.89h18a1.12,1.12,0,0,1,.89.4,1,1,0,0,1,.13.89c-.12.41-.74,2.47-1,3.24l-.08.26a1.57,1.57,0,0,1-1.65,1.08Z"/><path class="ae04651c-abd3-484e-a51c-b9ecc9496e82" d="M161.83,1.53a3.92,3.92,0,0,0-1.44.34,7.43,7.43,0,0,0-1.66.94,8,8,0,0,0-1.4,1.33,4.22,4.22,0,0,0-.81,1.4l-6.11,19a2.79,2.79,0,0,0-.14,1.3,2.65,2.65,0,0,0,.42,1.14,2.35,2.35,0,0,0,.83.8,2.1,2.1,0,0,0,1.07.29h25.67a3.73,3.73,0,0,0,1.44-.34,7.37,7.37,0,0,0,1.65-.94,8.05,8.05,0,0,0,1.41-1.32,4.44,4.44,0,0,0,.81-1.41l6.54-19a3,3,0,0,0,.14-1.3,2.79,2.79,0,0,0-.42-1.15A2.45,2.45,0,0,0,189,1.8a2.1,2.1,0,0,0-1.07-.29Zm-9.24,28.08a3.66,3.66,0,0,1-1.83-.49,3.91,3.91,0,0,1-1.34-1.28,4.2,4.2,0,0,1-.65-1.76,4.41,4.41,0,0,1,.2-2l6.11-19a6.16,6.16,0,0,1,1.08-1.89,10,10,0,0,1,1.67-1.58,9.3,9.3,0,0,1,2-1.12,5.3,5.3,0,0,1,2-.45l26.09,0a3.66,3.66,0,0,1,1.83.49,4,4,0,0,1,1.35,1.28,4.24,4.24,0,0,1,.64,1.76,4.27,4.27,0,0,1-.2,2L185,24.57a5.89,5.89,0,0,1-1.09,1.89,9.31,9.31,0,0,1-3.64,2.7,5.3,5.3,0,0,1-2,.45Z"/><path class="ae04651c-abd3-484e-a51c-b9ecc9496e82" d="M159.66,20.56h17.05l4-11.51H163.6Zm-2.07,1.51.67-2.15,4.26-12.38h20.3L182,9.72l-4.25,12.35Z"/><path class="ae04651c-abd3-484e-a51c-b9ecc9496e82" d="M111.31,28.24h29.17a2.64,2.64,0,0,0,1.12-.31,8.12,8.12,0,0,0,1.55-.94,7.88,7.88,0,0,0,1.33-1.24,3.3,3.3,0,0,0,.65-1.05l2.58-8.2a5.46,5.46,0,0,0,.35-2.17,1.72,1.72,0,0,0-1.27-1.64,4.83,4.83,0,0,0-1.51-.23H124.52a1.61,1.61,0,0,1-1.35-.59,1.43,1.43,0,0,1-.25-1.23l1.15-3.58a1.32,1.32,0,0,1,1.25-.91l25.74,0,1.46-4.76H122a3,3,0,0,0-2.85,2.08l-3.07,9.67a5.67,5.67,0,0,0-.37,2.1,2.27,2.27,0,0,0,.35,1.1,1.66,1.66,0,0,0,.75.56,4.38,4.38,0,0,0,1.36.29l20.8,0a1.52,1.52,0,0,1,1.64,1.51,1.39,1.39,0,0,1-.06.4l-1.08,3.29a1.61,1.61,0,0,1-1.68,1.11h-25Zm-1.91,1.39,2.37-7.52h26c.1,0,.32,0,.35-.13l1.09-3.32-.06,0a.33.33,0,0,0-.2,0H118.13a5.44,5.44,0,0,1-1.85-.39,3,3,0,0,1-1.36-1,3.55,3.55,0,0,1-.6-1.78,6.68,6.68,0,0,1,.43-2.66l3.14-9.9A4,4,0,0,1,121.75,0h32.68l-2.36,7.54-26.69,0L124.25,11l.09,0h20.94a5.92,5.92,0,0,1,2,.31,3.35,3.35,0,0,1,1.5,1,3.22,3.22,0,0,1,.7,1.81,6.79,6.79,0,0,1-.4,2.75l-2.59,8.21a4.74,4.74,0,0,1-.91,1.51A9.36,9.36,0,0,1,144,28.1a9.77,9.77,0,0,1-1.8,1.1,4.3,4.3,0,0,1-1.71.43Z"/></svg>