<svg id="Calque_1" data-name="Calque 1" xmlns="http://www.w3.org/2000/svg" viewBox="0 0 487.27 55.77"><defs><style>.cls-1{fill:#fff;fill-rule:evenodd;}</style></defs><polyline class="cls-1" points="24.07 55.68 24.07 55.68 24.07 14.31 0 14.31 0 0.25 68.69 0.25 68.69 14.31 44.01 14.31 44.01 55.68 24.07 55.68"/><polyline class="cls-1" points="78.53 55.68 78.53 55.68 78.53 0.25 98.47 0.25 98.47 41.63 147.23 41.63 147.23 55.68 78.53 55.68"/><polyline class="cls-1" points="333.37 55.68 333.37 55.68 375.62 14.31 331.7 14.31 331.7 0.25 400.39 0.25 400.39 13.43 357.35 55.68 333.37 55.68"/><path class="cls-1" d="M425.17,20.23h47.17a21.83,21.83,0,0,1,5.18.62,16.16,16.16,0,0,1,4.74,1.93,13.08,13.08,0,0,1,3.61,3.34,8,8,0,0,1,1.4,4.48V65.12a7.54,7.54,0,0,1-1.49,4.57A11.6,11.6,0,0,1,482.26,73,14.25,14.25,0,0,1,477.52,75a21.55,21.55,0,0,1-5.18.7H425.17a28.08,28.08,0,0,1-5.45-.61,14.57,14.57,0,0,1-4.66-1.85A10.42,10.42,0,0,1,411.55,70a8.44,8.44,0,0,1-1.32-4.83V30.6h0a8.36,8.36,0,0,1,1.32-4.75A11.12,11.12,0,0,1,415,22.6a18.33,18.33,0,0,1,4.83-1.84,27.07,27.07,0,0,1,5.36-.53m41,41.29c.92,0,1.05-.62,1.05-.62v-26s-.13-.61-1.05-.61h-35c-.92,0-1.06.61-1.06.61v26s.14.62,1.06.62h35" transform="translate(0 -19.89)"/><path class="cls-1" d="M317.91,48c2.93.78,3.78,2.45,3.78,3.6V66.88a5.06,5.06,0,0,1-1,3,9.75,9.75,0,0,1-2.37,2.72,15.2,15.2,0,0,1-3.16,2,8.36,8.36,0,0,1-3.52.79H254.22a8.6,8.6,0,0,1-3.51-.79,14.66,14.66,0,0,1-3.08-2,10.08,10.08,0,0,1-2.37-2.72,5.53,5.53,0,0,1-1-3V51.6c0-1.15.85-2.82,3.78-3.6a4.28,4.28,0,0,1-.61-.88,4.7,4.7,0,0,1-.35-1.06,7.57,7.57,0,0,1-.18-1.58V28.32h0a5.34,5.34,0,0,1,.88-2.9,12.87,12.87,0,0,1,5.62-4.65,8.09,8.09,0,0,1,3.43-.79h52.27a8,8,0,0,1,3.42.79,14.16,14.16,0,0,1,3.16,1.93,10.08,10.08,0,0,1,2.46,2.72,5.4,5.4,0,0,1,1,2.9V42a18.65,18.65,0,0,1-.09,2.29,8,8,0,0,1-.18,1.75,2.94,2.94,0,0,1-.34,1.06,3.49,3.49,0,0,1-.62.88m-50.07-7.2h30.22c.91,0,1.05-.62,1.05-.62V34.65S299,34,298.06,34H267.84c-.92,0-1,.62-1,.62v5.53s.13.62,1,.62m34,19.85V55.47s-.13-.62-1.05-.62h-35.4c-.92,0-1.05.62-1.05.62v5.18s.13.61,1.05.61h35.4c.92,0,1.05-.61,1.05-.61" transform="translate(0 -19.89)"/><path class="cls-1" d="M224.44,75.32H157.06V19.89h64.75a8,8,0,0,1,3.42.79,15.22,15.22,0,0,1,3.17,2,9,9,0,0,1,2.45,2.72,5.4,5.4,0,0,1,1,2.9V41.94a20.34,20.34,0,0,1-.26,4,8.74,8.74,0,0,1-.88,1.84c2.93.78,3.69,2.72,3.69,3.87v15.2a5.23,5.23,0,0,1-1,3A9.75,9.75,0,0,1,231,72.59a14.82,14.82,0,0,1-3.16,1.94,8.24,8.24,0,0,1-3.43.79M211.7,40.18V34.65s-.13-.62-1-.62H177.09V40.8h33.56c.92,0,1-.62,1-.62m2.55,15.29s-.13-.62-1.05-.62H177.09v6.41H213.2c.92,0,1.05-.61,1.05-.61V55.47" transform="translate(0 -19.89)"/></svg>