<?xml version="1.0" encoding="utf-8"?>
<!-- Generator: Adobe Illustrator 27.2.0, SVG Export Plug-In . SVG Version: 6.00 Build 0)  -->
<svg version="1.1" id="Calque_1" xmlns="http://www.w3.org/2000/svg" xmlns:xlink="http://www.w3.org/1999/xlink" x="0px" y="0px"
	 viewBox="0 0 51.9 6.9" style="enable-background:new 0 0 51.9 6.9;" xml:space="preserve">
<style type="text/css">
	.st0{fill:#FFFFFF;}
</style>
<path class="st0" d="M3.1,6.8H0l6.6-6.6h2.9h1.3v6.6H8.1V4.9l-3.2,0L3.1,6.8z M6.4,3.5l1.7,0V1.7L6.4,3.5z"/>
<polygon class="st0" points="21.7,0.1 17.9,0.1 16.5,1.5 15.1,0.1 11.3,0.1 14.7,3.4 11.3,6.7 15.1,6.7 16.5,5.4 17.9,6.7 21.7,6.7 
	18.3,3.4 "/>
<path class="st0" d="M27.8,6.9C27.8,6.9,27.8,6.9,27.8,6.9c-1.6,0-2.9-0.4-3.4-1.2c-0.2-0.3-0.3-0.7-0.2-1.1c0.1-0.3,0.5-1.1,2-1.6
	c-0.3-0.2-0.6-0.6-0.4-1.2C26.1,1,27.6,0,29.9,0c0,0,0,0,0,0c1.4,0,2.4,0.3,2.8,1C33,1.3,33.1,1.7,33,2c-0.2,0.6-0.7,0.9-1.1,1.1
	c0.4,0.2,0.6,0.4,0.8,0.7c0.2,0.4,0.1,0.8,0.1,1C32.3,6,30.1,6.9,27.8,6.9z M29.9,0.4c-2.1,0-3.5,0.8-3.8,1.6
	C26,2.5,26.3,2.7,26.8,3l0.5,0.3l-0.5,0.1c-1.6,0.4-2,1.2-2.1,1.4c-0.1,0.3,0,0.5,0.1,0.7c0.4,0.6,1.6,1,3.1,1c0,0,0,0,0,0
	c2.4,0,4.2-1,4.5-1.8l0,0c0-0.1,0.1-0.4,0-0.7c-0.2-0.3-0.5-0.5-1-0.6l-0.6-0.2l0.6-0.2c0.4-0.1,1.1-0.5,1.3-1.1
	c0.1-0.2,0-0.5-0.1-0.7C32.1,0.7,31.2,0.4,29.9,0.4C30,0.4,29.9,0.4,29.9,0.4z M28.3,5.5C28.3,5.5,28.3,5.5,28.3,5.5L28.3,5.5
	c-0.5,0-0.9-0.1-1.1-0.4C27,4.9,27,4.7,27.1,4.5c0.2-0.6,1-0.8,1.6-0.8c0,0,0,0,0,0c0.5,0,0.9,0.1,1.1,0.4c0.1,0.2,0.2,0.4,0.1,0.6
	C29.8,5,29.1,5.5,28.3,5.5z M28.3,5.1C28.3,5.1,28.3,5.1,28.3,5.1c0.6,0,1.1-0.3,1.2-0.6c0-0.1,0-0.1,0-0.2
	c-0.1-0.2-0.4-0.2-0.8-0.2c0,0,0,0,0,0c-0.6,0-1.2,0.3-1.3,0.6c0,0.1,0,0.1,0,0.2C27.6,5,27.9,5.1,28.3,5.1L28.3,5.1z M29.1,2.8
	C29.1,2.8,29.1,2.8,29.1,2.8c-0.3,0-0.8-0.1-0.9-0.3C28.1,2.4,28,2.2,28.1,2c0.2-0.5,0.8-0.7,1.4-0.7c0,0,0,0,0,0
	c0.4,0,0.8,0.1,0.9,0.4c0.1,0.1,0.1,0.3,0.1,0.5C30.4,2.6,29.7,2.8,29.1,2.8z M29.5,1.7c-0.5,0-1,0.2-1,0.4c0,0.1,0,0.1,0,0.1
	c0.1,0.1,0.3,0.2,0.6,0.2l0,0c0,0,0,0,0,0c0.5,0,1-0.2,1-0.5c0,0,0-0.1,0-0.1C30.1,1.8,29.9,1.7,29.5,1.7
	C29.5,1.7,29.5,1.7,29.5,1.7z"/>
<path class="st0" d="M36.8,6.9C36.8,6.9,36.8,6.9,36.8,6.9c-2.3,0-3.8-0.8-3.8-2l0-0.2l3.1,0l0.1,0.1c0.1,0.1,0.3,0.2,0.6,0.3
	c0.2,0,0.4,0,0.5,0c0,0,0,0,0,0c0.8,0,1.5-0.4,1.6-0.7c0-0.1,0-0.2,0-0.2c-0.1-0.2-0.5-0.3-1-0.3c0,0,0,0,0,0
	c-0.6,0-1.1,0.2-1.5,0.5l-0.1,0.1L33.5,4l2.4-3.9l6.5,0l-0.6,1.7l-4,0l-0.2,0.3c0.3,0,0.6-0.1,1.1-0.1c1.8,0,2.6,0.6,3,1.1
	C42,3.6,42.1,4.1,42,4.5C41.6,5.7,39.6,6.9,36.8,6.9z M33.3,5.1c0.2,0.7,1.2,1.4,3.4,1.4c0,0,0,0,0,0c2.8,0,4.5-1.2,4.8-2.1
	c0.1-0.3,0.1-0.7-0.2-0.9c-0.2-0.3-0.9-0.9-2.7-0.9c0,0,0,0,0,0c-0.9,0-1.2,0.1-1.5,0.2l-0.5,0.1l0.9-1.4l3.9,0l0.3-0.9l-5.8,0
	l-1.9,3.2L36,4c0.4-0.4,1-0.5,1.7-0.5c0,0,0,0,0,0c0.6,0,1.1,0.2,1.3,0.5c0.1,0.2,0.2,0.4,0.1,0.6c-0.2,0.6-1.2,1-2,1
	c-0.1,0-0.3,0-0.6-0.1c-0.2,0-0.5-0.1-0.7-0.3L33.3,5.1z"/>
<path class="st0" d="M46.1,6.9C46.1,6.9,46.1,6.9,46.1,6.9c-1.2,0-2.8-0.3-3.4-1.2c-0.3-0.4-0.4-0.9-0.2-1.4l0.6-1.7
	c0.7-2,3.7-2.5,5.2-2.5c0,0,0,0,0,0c1.1,0,2.7,0.3,3.3,1.2c0.3,0.4,0.4,0.9,0.2,1.5l-0.6,1.7C50.6,6.1,48.2,6.9,46.1,6.9z M43.5,2.7
	l-0.6,1.7c-0.1,0.4-0.1,0.8,0.1,1.1c0.5,0.7,1.9,1,3.1,1c0,0,0,0,0,0c1.9,0,4.2-0.7,4.7-2.2l0.6-1.7c0.1-0.4,0.1-0.8-0.1-1.1
	c-0.5-0.7-1.9-1-3-1c0,0,0,0,0,0C46.6,0.4,44,1,43.5,2.7L43.5,2.7z M46.5,5.5C46.5,5.5,46.5,5.5,46.5,5.5c-0.6,0-0.9-0.1-1.1-0.4
	c-0.1-0.2-0.2-0.5-0.1-0.8L46,2.5c0.1-0.3,0.5-1.1,1.8-1.1c0,0,0,0,0,0c0.6,0,0.9,0.1,1.1,0.4c0.2,0.3,0.1,0.7,0.1,0.8l-0.6,1.8
	C48,5.3,47.2,5.5,46.5,5.5z M47.8,1.8c-1,0-1.3,0.6-1.4,0.8l-0.6,1.8c0,0.1-0.1,0.3,0,0.4c0.1,0.2,0.4,0.2,0.8,0.2c0,0,0,0,0,0
	c0.8,0,1.2-0.3,1.4-0.8l0.6-1.8c0-0.1,0.1-0.3,0-0.4C48.5,1.9,48.2,1.8,47.8,1.8C47.8,1.8,47.8,1.8,47.8,1.8z"/>
</svg>
