<svg id="Calque_1" data-name="Calque 1" xmlns="http://www.w3.org/2000/svg" viewBox="0 0 432.55 86.98"><defs><style>.cls-1{fill:#fff;}</style></defs><title>15MC</title><path class="cls-1" d="M373.63,378.87c-1.39-1.83-6.71-1.83-6.71-1.83H338.37s-4.11-.17-5.85.79a13.14,13.14,0,0,0-3.39,3.25l-24.85,36.09.51-35.47s.3-2.64-.74-3.6c-1.36-1.25-3.83-1-3.83-1H269.69a16.82,16.82,0,0,0-4.13.52,8.6,8.6,0,0,0-2.72,2.46l-46,54.72,2.1-8a22,22,0,0,0,.73-8,11.11,11.11,0,0,0-2.29-5.72,10.62,10.62,0,0,0-4.61-3.24,16.11,16.11,0,0,0-5.55-1l-51.62.1L158,399.7a1.22,1.22,0,0,1,.14-.28c2.9,0,38.67-.09,57.67-.1a7.09,7.09,0,0,0,2.54-.51,3,3,0,0,0,1.21-.95c.56-.73,9.15-10.42,14.78-16.76l.1-.12.08-.13a2.25,2.25,0,0,0,.05-2.25c-.74-1.33-2.44-1.34-3-1.35-2,0-87.64.16-91.28.17h-.16l-.15,0a4,4,0,0,0-.87.29,4.39,4.39,0,0,0-2.37,2.61c-.52,1.52-8.11,30.53-9,33.82a20.24,20.24,0,0,0-.79,8.07,11.87,11.87,0,0,0,2.2,5.64,9.85,9.85,0,0,0,4.47,3.28,15.42,15.42,0,0,0,5.51,1c13.35,0,47.22-.15,51.72-.11l-2.44,9a1.3,1.3,0,0,1-.86.57c-1.24,0-67.61.12-67.61.12l-5.51,22.05,121.45-.15,36.84-44.23,0,44.21h36.67l29.65-44.4-.16,44.5,35.31,0,.51-78S374.94,380.59,373.63,378.87ZM118.86,460.33l3.79-15.15c9.53,0,63.54-.07,65-.12a4.35,4.35,0,0,0,1.59-.37h0a5.06,5.06,0,0,0,2.27-2.15l.08-.16,2.75-10.14,0-.09a2.9,2.9,0,0,0-2.9-3.54c-1.61-.08-47.17.08-52.36.09a12.33,12.33,0,0,1-4.3-.74,6.35,6.35,0,0,1-2.94-2.15,8.64,8.64,0,0,1-1.52-4.05,16.94,16.94,0,0,1,.71-6.68c3.37-12.9,8.53-32.48,8.9-33.59a1,1,0,0,1,.54-.59h0c4.92,0,78.06-.16,89.52-.17-4.2,4.73-12,13.57-13.19,15a4.11,4.11,0,0,1-1.11.19c-5.81,0-56.8.05-58,.11a3,3,0,0,0-1.1.27,4.07,4.07,0,0,0-2,2.55l-2.6,9.93a2.81,2.81,0,0,0,.23,2.48,3,3,0,0,0,2.73,1.24l52.15-.1a12.64,12.64,0,0,1,4.36.75,7.1,7.1,0,0,1,3.13,2.19,7.79,7.79,0,0,1,1.54,4,18.89,18.89,0,0,1-.65,6.71l-3.95,15L195.42,460.2Z" transform="translate(-79.48 -376.99)"/><path class="cls-1" d="M129.77,379.56c-.91-2.67-4.54-2.6-5.21-2.56L108,377a14,14,0,0,0-5.22.61l-.14.06a45.05,45.05,0,0,0-4.35,2.53L84,388.77l-.17.12a6.52,6.52,0,0,0-2.08,2.77c-.35,1.06-1.58,5.2-1.63,5.38l-.66,2.22,16.25,0L80.43,464l30.53-.06,18-76C129.37,386.46,130.53,381.8,129.77,379.56Zm-21.55,80.89-23.44,0,15.3-64.73-16,0c.36-1.2.77-2.54.94-3.06a3.31,3.31,0,0,1,.86-1.08l14.16-8.49,0,0c.75-.48,2.91-1.84,3.92-2.3l.08,0a11.45,11.45,0,0,1,3.73-.33l16.78,0h.11a3.74,3.74,0,0,1,1.8.29c.25.93-.24,3.95-.87,6.27Z" transform="translate(-79.48 -376.99)"/><path class="cls-1" d="M516.82,462.73" transform="translate(-79.48 -376.99)"/><path class="cls-1" d="M510.82,461.4l-17.47-21.82-78.23-.35.48-40,60.58.06,13.62-21.68H408a38.87,38.87,0,0,0-8.11.89,31.57,31.57,0,0,0-7.76,2.72,24.66,24.66,0,0,0-6.41,4.7c-1.86,1.91-4.85,5.57-5,10.39l-.47,51.63c-.23,5.24,2.8,10.42,4.43,11.65a16.41,16.41,0,0,0,6,2.72,33.45,33.45,0,0,0,7.49.94h65.07v0H512Z" transform="translate(-79.48 -376.99)"/></svg>