<?xml version="1.0" encoding="UTF-8"?><svg id="Calque_1" xmlns="http://www.w3.org/2000/svg" viewBox="0 0 15.28 4.09"><defs><style>.cls-1{fill:#fff;}</style></defs><path class="cls-1" d="M14.4,2.94h-3.43l.12-.33h2.61c.1,0,.2-.03,.31-.06,.11-.04,.21-.09,.31-.15,.1-.06,.18-.13,.26-.21,.08-.08,.13-.17,.16-.25l.41-1.2c.02-.09,.02-.17,0-.26-.02-.08-.06-.16-.11-.23-.06-.07-.12-.12-.21-.16-.08-.04-.17-.06-.27-.06h-4.05l-.4,1.18h3.4l-.12,.33h-2.61c-.09,0-.2,.03-.31,.06-.1,.04-.21,.09-.31,.15-.1,.06-.19,.14-.26,.21-.07,.08-.12,.16-.15,.24l-.46,1.34h-.57L9.84,.36c.03-.07,.01-.16-.03-.22-.05-.06-.12-.1-.2-.1h-1.52l-1.07,.53-.19,.43h1.07l-.97,2.54-4.98-.02c-.18,0-.33-.08-.41-.23-.09-.15-.08-.34,0-.51l.67-1.63c.16-.33,.49-.55,.84-.55h1.87c.15-.01,.24,.14,.18,.28l-.18,.51c-.09,.19-.29,.32-.49,.32h-1.88l-.23,.58h3.04c.36,0,.67-.19,.79-.47l.45-1.07c.07-.17,.04-.36-.09-.51-.13-.15-.33-.23-.56-.24H2.31C1.68,0,1.13,.34,.93,.83L.05,2.98c-.11,.26-.06,.54,.14,.76,.19,.21,.47,.34,.79,.35H15.28l-.88-1.15Zm-7.25,.84h0l.2-.52,.98-2.56h-.83l.03-.07,.64-.29h1.38l-1.21,3.45h-1.18Zm2.88-1.49s.04-.08,.09-.13c.06-.06,.12-.12,.2-.17,.08-.05,.16-.09,.25-.12,.08-.03,.15-.04,.21-.04h2.82l.32-.93h-3.41l.2-.57h3.84c.05,0,.1,0,.14,.02,.04,.02,.08,.05,.11,.08,.03,.03,.04,.07,.05,.11,0,.03,0,.07,0,.11l-.41,1.18s-.05,.1-.09,.15c-.06,.06-.13,.12-.2,.17-.08,.05-.16,.09-.25,.12-.07,.03-.15,.04-.21,.04h-2.82l-.32,.93h3.67l.43,.57h-5.15l.52-1.52Z"/></svg>