<svg id="Calque_1" data-name="Calque 1" xmlns="http://www.w3.org/2000/svg" viewBox="0 0 70.89 9.85"><defs><style>.cls-1{fill:#fff;}</style></defs><polygon class="cls-1" points="3.73 9.83 8.81 3.89 8.81 6.38 11.65 6.38 11.65 0 8.39 0 0 9.83 3.73 9.83"/><path class="cls-1" d="M22.38,3.54H15.63a.35.35,0,0,1-.36-.35.36.36,0,0,1,.36-.35h8.29L24.87,0H15.63a3.19,3.19,0,0,0,0,6.38h6.75a.32.32,0,0,1,0,.63H7L4.54,9.83H22.38a3.15,3.15,0,1,0,0-6.3Z"/><path class="cls-1" d="M28,2.53h-2.4l.55-1.28L28.74,0h3.47a.69.69,0,0,1,.59.31.72.72,0,0,1,.1.65L30.29,9.24a.89.89,0,0,1-.84.6H25.53ZM26.24,9.34h3.21a.36.36,0,0,0,.35-.26L32.41.8a.2.2,0,0,0,0-.2.21.21,0,0,0-.18-.09H28.86l-2.3,1.13L26.39,2h2.33Z"/><path class="cls-1" d="M32.52,9.84a1.16,1.16,0,0,1-.61-.16,1.51,1.51,0,0,1-.45-.42A1.5,1.5,0,0,1,31.31,8l2.18-6.33a2.21,2.21,0,0,1,.35-.63A3.45,3.45,0,0,1,34.4.53a3.64,3.64,0,0,1,.66-.38A1.92,1.92,0,0,1,35.73,0h10l-1,3H36.24l-.18.51h6.75a1.15,1.15,0,0,1,.6.16,1.3,1.3,0,0,1,.45.42A1.41,1.41,0,0,1,44,5.36l-.88,2.81a2.38,2.38,0,0,1-.32.61,2.75,2.75,0,0,1-.49.53,2.63,2.63,0,0,1-.58.38,1.52,1.52,0,0,1-.63.15ZM35.73.51a1.37,1.37,0,0,0-.48.11,2.5,2.5,0,0,0-.55.31,3.27,3.27,0,0,0-.47.44,1.53,1.53,0,0,0-.27.47L31.79,8.17a.92.92,0,0,0,0,.43,1,1,0,0,0,.13.38.86.86,0,0,0,.28.26.65.65,0,0,0,.36.1h8.59a1,1,0,0,0,.41-.11,2,2,0,0,0,.48-.3,2.79,2.79,0,0,0,.4-.44A1.84,1.84,0,0,0,42.65,8l.88-2.81a.93.93,0,0,0,0-.43,1,1,0,0,0-.14-.38.9.9,0,0,0-.28-.27A.73.73,0,0,0,42.81,4H35.36l.52-1.53h8.5l.62-2Z"/><path class="cls-1" d="M34.21,7.34l.52-1.53h6.53l-.53,1.53Zm.7-.5h5.46l.18-.52H35.09Z"/><path class="cls-1" d="M46.77,7.34,47,6.62l1.32-4.11H55l-.23.73-1.28,4.1Zm.69-.5h5.66L54.31,3H48.67Z"/><path class="cls-1" d="M45.14,9.84a1.16,1.16,0,0,1-.61-.16,1.3,1.3,0,0,1-.45-.42A1.5,1.5,0,0,1,43.93,8l2-6.33a2.54,2.54,0,0,1,.36-.63,3.45,3.45,0,0,1,.56-.52A3.64,3.64,0,0,1,47.5.15,1.92,1.92,0,0,1,48.17,0h8.58a1.18,1.18,0,0,1,.61.16,1.51,1.51,0,0,1,.45.42A1.5,1.5,0,0,1,58,1.84L56,8.16a1.83,1.83,0,0,1-.36.63,3,3,0,0,1-1.21.9,1.74,1.74,0,0,1-.67.15Zm3-9.33a1.37,1.37,0,0,0-.48.11,2.5,2.5,0,0,0-.55.31,3.27,3.27,0,0,0-.47.44,1.53,1.53,0,0,0-.27.47l-2,6.33a.93.93,0,0,0,0,.43A1,1,0,0,0,44.5,9a.7.7,0,0,0,.28.26.65.65,0,0,0,.36.1h8.59a1.18,1.18,0,0,0,.48-.11,2.15,2.15,0,0,0,.55-.31,2.82,2.82,0,0,0,.47-.44A1.5,1.5,0,0,0,55.5,8l2-6.32a.92.92,0,0,0,0-.43,1,1,0,0,0-.13-.38A1,1,0,0,0,57.11.6a.74.74,0,0,0-.36-.09Z"/><path class="cls-1" d="M58,9.84a1.19,1.19,0,0,1-.61-.17,1.18,1.18,0,0,1-.44-.42,1.32,1.32,0,0,1-.22-.58A1.42,1.42,0,0,1,56.75,8l2-6.32a2,2,0,0,1,.36-.63,3.39,3.39,0,0,1,.55-.52,3.64,3.64,0,0,1,.66-.38A1.92,1.92,0,0,1,61,0h8.65a1.29,1.29,0,0,1,.61.16,1.42,1.42,0,0,1,.45.43,1.44,1.44,0,0,1,.21.58,1.49,1.49,0,0,1-.06.66L68.64,8.16a1.83,1.83,0,0,1-.36.63,3,3,0,0,1-1.21.9,1.74,1.74,0,0,1-.67.15ZM61,.51a1.37,1.37,0,0,0-.48.11,2.75,2.75,0,0,0-.55.31,3.27,3.27,0,0,0-.47.44,2.08,2.08,0,0,0-.27.47l-2,6.32a1,1,0,0,0,0,.44.87.87,0,0,0,.14.37.73.73,0,0,0,.28.27.7.7,0,0,0,.35.09H66.4a1.18,1.18,0,0,0,.48-.11,2.15,2.15,0,0,0,.55-.31,3.27,3.27,0,0,0,.47-.44A1.73,1.73,0,0,0,68.17,8l2.17-6.33a.9.9,0,0,0,0-.43A.87.87,0,0,0,70,.6a.65.65,0,0,0-.36-.1H61Z"/><path class="cls-1" d="M59.59,7.33l.22-.71,1.36-4.11h6.75l-.26.72-1.41,4.1Zm.69-.5h5.61L67.2,3H61.53Z"/></svg>