<svg id="Calque_1" data-name="Calque 1" xmlns="http://www.w3.org/2000/svg" viewBox="0 0 487.27 54.54"><defs><style>.cls-1{fill:#fff;fill-rule:evenodd;}</style></defs><polyline class="cls-1" points="23.65 54.46 23.65 54.46 23.65 13.89 0 13.89 0 0 67.49 0 67.49 13.89 43.24 13.89 43.24 54.46 23.65 54.46"/><polyline class="cls-1" points="77.16 54.46 77.16 54.46 77.16 0 96.75 0 96.75 40.65 144.65 40.65 144.65 54.46 77.16 54.46"/><path class="cls-1" d="M378.71,35.14v5.44s-.13.6-1,.6H325V55h55.24c.9,0,1,.61,1,.61v5.09s-.13.6-1,.6H325V75.1h66.2a8,8,0,0,0,3.45-.78,14,14,0,0,0,3.1-2,9.75,9.75,0,0,0,2.33-2.68,4.93,4.93,0,0,0,.95-2.93v-15c0-1.13-.91-2.77-3.79-3.54a4.48,4.48,0,0,0,.6-.77,3.08,3.08,0,0,0,.35-1,8.65,8.65,0,0,0,.17-1.72,18.16,18.16,0,0,0,.09-2.25V28.93a5.38,5.38,0,0,0-1-2.85,8.9,8.9,0,0,0-2.42-2.68,15.05,15.05,0,0,0-3.11-2,7.92,7.92,0,0,0-3.36-.78H325v13.9h52.65c.9,0,1,.6,1,.6" transform="translate(0.85 -20.64)"/><path class="cls-1" d="M219.66,75.1h-66.2V20.64h63.61a7.92,7.92,0,0,1,3.36.78,15.05,15.05,0,0,1,3.11,2A8.86,8.86,0,0,1,226,26.08a5.31,5.31,0,0,1,1,2.85V42.3a19.56,19.56,0,0,1-.26,4,8.79,8.79,0,0,1-.87,1.82c2.88.76,3.63,2.67,3.63,3.79V66.81a5.15,5.15,0,0,1-.95,2.94,9.88,9.88,0,0,1-2.33,2.67,13.94,13.94,0,0,1-3.11,1.9,7.92,7.92,0,0,1-3.36.78M207.14,40.58V35.14s-.13-.6-1-.6h-33v6.64h33c.9,0,1-.6,1-.6m2.5,15s-.13-.61-1-.61H173.14v6.3h35.47c.9,0,1-.6,1-.6V55.6" transform="translate(0.85 -20.64)"/><path class="cls-1" d="M311.48,48.26c2.88.77,3.71,2.41,3.71,3.54v15a4.94,4.94,0,0,1-.94,2.94,9.92,9.92,0,0,1-2.34,2.67,14.37,14.37,0,0,1-3.1,2,8,8,0,0,1-3.45.78H248.91a8.31,8.31,0,0,1-3.45-.78,14.09,14.09,0,0,1-3-2,9.71,9.71,0,0,1-2.33-2.67,5.34,5.34,0,0,1-1-2.94v-15c0-1.13.83-2.77,3.71-3.54a3.77,3.77,0,0,1-.6-.86,5.31,5.31,0,0,1-.35-1,8.23,8.23,0,0,1-.17-1.55V28.93h0a5.24,5.24,0,0,1,.86-2.85A14.22,14.22,0,0,1,245,23.4a14,14,0,0,1,3.11-1.89,7.92,7.92,0,0,1,3.36-.78h51.35a8,8,0,0,1,3.37.78,14.28,14.28,0,0,1,3.11,1.89,10.06,10.06,0,0,1,2.41,2.68,5.3,5.3,0,0,1,.95,2.85V42.39a20.41,20.41,0,0,1-.08,2.25,7.84,7.84,0,0,1-.18,1.72,2.89,2.89,0,0,1-.34,1,3.34,3.34,0,0,1-.61.86m-49.19-7.08H292c.9,0,1-.6,1-.6V35.14s-.13-.6-1-.6H262.29c-.9,0-1,.6-1,.6v5.44s.13.6,1,.6m33.4,19.51V55.6s-.14-.61-1-.61H259.87c-.9,0-1,.61-1,.61v5.09s.13.6,1,.6h34.78c.9,0,1-.6,1-.6" transform="translate(0.85 -20.64)"/><path class="cls-1" d="M425.4,20.73h46.35a21.56,21.56,0,0,1,5.09.6,16,16,0,0,1,4.66,1.9A13,13,0,0,1,485,26.51a7.86,7.86,0,0,1,1.38,4.4V64.83A7.37,7.37,0,0,1,485,69.32a11.52,11.52,0,0,1-3.45,3.28,14.08,14.08,0,0,1-4.66,1.9,21.31,21.31,0,0,1-5.09.69H425.4a27.15,27.15,0,0,1-5.35-.61,14,14,0,0,1-4.57-1.81A10.25,10.25,0,0,1,412,69.58a8.27,8.27,0,0,1-1.3-4.75V30.91h0a8.17,8.17,0,0,1,1.3-4.66,10.81,10.81,0,0,1,3.36-3.19,17.86,17.86,0,0,1,4.75-1.81,26.14,26.14,0,0,1,5.26-.52m40.31,40.56c.9,0,1-.6,1-.6V35.14s-.13-.6-1-.6H431.36c-.9,0-1,.6-1,.6V60.69s.14.6,1,.6h34.35" transform="translate(0.85 -20.64)"/></svg>