<svg id="Calque_1" data-name="Calque 1" xmlns="http://www.w3.org/2000/svg" viewBox="0 0 277.14 56.52"><defs><style>.cls-1{fill:#fff;}</style></defs><path class="cls-1" d="M6,72.57,9.12,64H46.73s2.74,0,4.85-.23a3.75,3.75,0,0,0,2.49-1.94l2.36-6.56a2.18,2.18,0,0,0-1-2.53C54.06,52,50.87,52,50.87,52L19.26,52a5.47,5.47,0,0,1-2.39-.44,2.28,2.28,0,0,1-1-.93,4,4,0,0,1-.4-1.79,15.34,15.34,0,0,1,.18-2.78L20.75,31.8a10.79,10.79,0,0,1,2.1-3.47A14.94,14.94,0,0,1,26,25.67a13.72,13.72,0,0,1,3.67-1.61,14.08,14.08,0,0,1,3.67-.53H69.92A10.66,10.66,0,0,1,73.2,24a4.73,4.73,0,0,1,2.06,1.2,3.65,3.65,0,0,1,.9,2,7.07,7.07,0,0,1-.58,3.41L63.76,63.14,56.6,71.36a15.59,15.59,0,0,1-2.09.71,15,15,0,0,1-3.7.5ZM166.13,20.31H147.84a9.94,9.94,0,0,0-3.75.5,8.48,8.48,0,0,0-2.18,2.09L126,46l.33-22.72s.2-1.69-.47-2.31a3.73,3.73,0,0,0-2.46-.67H103.82a10.48,10.48,0,0,0-2.65.33,5.5,5.5,0,0,0-1.74,1.57L70.31,55.63,79,31.81a10.28,10.28,0,0,0,.75-5.22,7,7,0,0,0-1.84-3.86,8.21,8.21,0,0,0-3.59-2.16,14.43,14.43,0,0,0-4.35-.63H33.38a17.73,17.73,0,0,0-4.61.65,17.54,17.54,0,0,0-4.62,2,18.2,18.2,0,0,0-4,3.32,14.08,14.08,0,0,0-2.81,4.64L12.14,45.15l0,.17A18.68,18.68,0,0,0,11.86,49a7.51,7.51,0,0,0,.82,3.36,5.81,5.81,0,0,0,2.54,2.43,8.67,8.67,0,0,0,4,.84H51a1.42,1.42,0,0,1,1.07.3.52.52,0,0,1,.12.66L51,59.68a.92.92,0,0,1-.44.62,2.36,2.36,0,0,1-1.12.12H6.6L.87,76.16H50.81a18,18,0,0,0,3.37-.34h.14l27.82-.09,23.63-28.32V75.75h23.49l19-28.44-.12,28.52h22.63l.35-50s.18-3.27-1.15-4.36a7.05,7.05,0,0,0-3.85-1.17" transform="translate(-0.87 -19.94)"/><path class="cls-1" d="M56.19,38.41a2.6,2.6,0,0,1-.65,1.15,12.84,12.84,0,0,1-3.76.3c-.82,0-1.41,0-1.43,0H31.78s-.77,0-.59-.58l1.07-3.17a1.19,1.19,0,0,1,.35-.5,5.83,5.83,0,0,1,1.75-.16c.44,0,.76,0,.78,0l20.92.06h.3a1.33,1.33,0,0,1,.61.09c.07.12.08.23,0,.47-.16.47-.24.72-.32,1s-.2.62-.46,1.38m3.61,1.11c.28-.8.39-1.13.49-1.45s.15-.47.3-.92a4,4,0,0,0-.39-3.81c-.67-1-2-1.43-3.84-1.43H56l-20.71-.05-1,0a7.64,7.64,0,0,0-3.43.53A4.65,4.65,0,0,0,28.64,35l-1.37,4a3.48,3.48,0,0,0,.32,3.36,4.31,4.31,0,0,0,3.34,1.09c.49,0,.91,0,1.11,0h18.2c.16,0,.75,0,1.54,0,3.66,0,4.77-.4,5.13-.54a5.18,5.18,0,0,0,2.89-3.39" transform="translate(-0.87 -19.94)"/><path class="cls-1" d="M278,21c-.29-.71-1.33-.66-1.33-.66l-19.82.13L244.28,34.89l-8-14.32H175.21l30.58,1.85s5.38.59,7.8,2.91C215.5,27.16,225,35,225,49.46c0,16.16-15.79,22.67-19,23.89A33.2,33.2,0,0,1,198.06,75L172.5,76.46h58.06l10.15-11.57,5.1,11.56,21.79,0L253.67,50.1,276,24.25s2.31-2.5,2-3.27" transform="translate(-0.87 -19.94)"/><path class="cls-1" d="M198.41,60.45c1.64-.48,8.73-4,8.73-13.34,0-7.46-6-11.57-7.68-12.89-.92-.72-3.6-.85-3.6-.85h-9.27l.08,27.48H196a15.34,15.34,0,0,0,2.4-.41" transform="translate(-0.87 -19.94)"/></svg>