<?xml version="1.0" encoding="UTF-8"?><svg id="Calque_1" xmlns="http://www.w3.org/2000/svg" viewBox="0 0 12.42 4.07"><defs><style>.cls-1{fill:#fff;}</style></defs><path class="cls-1" d="M11.7,2.8h-3.27l.07-.2h2.46c.1,0,.21-.02.31-.06.11-.04.21-.09.31-.15.1-.06.19-.14.26-.22.08-.08.13-.17.16-.26l.4-1.15h0c.02-.1.03-.19,0-.29-.02-.09-.06-.17-.12-.24-.06-.07-.13-.13-.22-.17-.08-.04-.18-.06-.28-.06h-3.93l-.42,1.25h3.27l-.07.2h-2.4c-.1,0-.26.02-.37.06-.11.04-.21.09-.31.15s-.19.14-.26.22c-.08.08-.13.16-.16.25l-.13.37-.48-2.33C6.5.07,6.42,0,6.32,0h-.85C5.36,0,5.26.05,5.18.13l-2.4,2.8c-.05.06-.12.09-.19.09h-.35c-.09,0-.16-.09-.13-.17l.59-1.83h1.33L4.87,0H.33l-.33,1.01h1.48l-.83,2.56c-.08.24.1.48.35.48h1.85c.18,0,.35-.08.47-.21l2.13-2.47.35,1.66h-1.39l-.88,1.03h7.75l.42-1.25v-.02ZM7.26,3.78l-.16-.78.16-.46.1-.29s.07-.14.12-.2c.06-.06.13-.12.21-.17s.17-.09.25-.13c.08-.03.22-.04.29-.04h2.59l.25-.74h-3.27l.24-.71h3.74c.06,0,.12,0,.17.04s.1.06.13.1.05.08.07.13c.01.05.01.09,0,.14l-.39,1.14c-.02.06-.05.11-.11.17-.06.06-.13.12-.21.17s-.17.09-.25.13c-.08.03-.16.04-.22.04h-2.65l-.25.74h3.27l-.24.71h-3.84Z"/></svg>