<?xml version="1.0" encoding="UTF-8" standalone="no"?><!-- Generator: PTC Arbortext IsoDraw 7.3 M090 --><svg xmlns="http://www.w3.org/2000/svg" xmlns:xlink="http://www.w3.org/1999/xlink" clip-rule="evenodd" fill="none" fill-rule="evenodd" font-family="sans-serif" font-size="10" font-stretch="normal" font-style="normal" font-variant="normal" font-weight="normal" height="122.402" id="Livello_x0020_standard" onabort="parent.dwImageSVGOnAbort('PPQ126013318');" onerror="parent.dwImageSVGOnError('PPQ126013318');" onload="parent.dwImageSVGOnLoad('PPQ126013318');" stroke="#000000" stroke-linecap="round" viewBox="0.0 0.0 189.204 122.402" width="189.204" x="0" xml:space="preserve" y="0">
 <g>
  <polyline points="6.346 17.338 6.318 17.343 6.275 17.324 0.645 14.073" stroke-linejoin="round" stroke-width="0.1"/>
  <polyline points="3.902 3.104 9.534 6.357 9.574 6.448" stroke-linejoin="round" stroke-width="0.1"/>
  <line stroke-linejoin="round" stroke-width="0.1" x1="6.328" x2="6.275" y1="17.269" y2="17.324"/>
  <line stroke-linejoin="round" stroke-width="0.1" x1="9.538" x2="9.57" y1="6.36" y2="6.394"/>
  <line stroke-linejoin="round" stroke-width="0.1" x1="54.716" x2="55.237" y1="40.005" y2="40.304"/>
  <polyline points="54.716 40.005 54.6 39.945 54.499 39.911 54.418 39.905 54.362 39.924" stroke-linejoin="round" stroke-width="0.1"/>
  <g>
   <path d="M58.576 19.884C58.46 19.806 58.344 19.733 58.241 19.673C53.78 17.094 46.54 21.269 42.073 28.998C37.692 36.581 37.606 44.767 41.829 47.517" stroke-linejoin="round" stroke-width="0.1"/>
  </g>
  <g>
   <path d="M56.584 26.946C54.088 25.506 50.042 27.841 47.546 32.162C45.051 36.484 45.051 41.156 47.546 42.597C47.95 42.829 48.392 42.963 48.823 43" stroke-linejoin="round" stroke-width="0.1"/>
   <path d="M57.72 28.074C57.405 27.564 57.009 27.181 56.584 26.946" stroke-linejoin="round" stroke-width="0.1"/>
  </g>
  <g>
   <path d="M43.161 47.409C45.871 48.975 49.654 47.924 53.189 45.011" stroke-linejoin="round" stroke-width="0.1"/>
   <path d="M61.494 30.626C62.314 25.83 61.101 22.242 58.557 20.742C54.307 18.288 47.414 22.268 43.161 29.632C38.909 36.996 38.909 44.954 43.161 47.409" stroke-linejoin="round" stroke-width="0.1"/>
  </g>
  <g>
   <path d="M58.579 20.115C54.176 17.571 47.033 21.69 42.625 29.318C38.218 36.944 38.215 45.189 42.618 47.734C43.89 48.469 45.39 48.648 46.92 48.356" stroke-linejoin="round" stroke-width="0.1"/>
   <path d="M61.466 24.155C60.918 22.208 59.887 20.849 58.579 20.115" stroke-linejoin="round" stroke-width="0.1"/>
  </g>
  <g>
   <path d="M57.746 28.1C57.703 28.071 57.658 28.044 57.621 28.021C55.238 26.646 51.378 28.876 48.996 33C46.661 37.046 46.616 41.414 48.871 42.88" stroke-linejoin="round" stroke-width="0.1"/>
  </g>
  <g>
   <path d="M56.761 27.525C54.381 26.149 50.518 28.376 48.136 32.5C45.798 36.545 45.752 40.911 48.003 42.38" stroke-linejoin="round" stroke-width="0.1"/>
   <path d="M57.024 27.696C56.933 27.632 56.843 27.571 56.761 27.525" stroke-linejoin="round" stroke-width="0.1"/>
  </g>
  <g>
   <path d="M56.576 27.286C54.162 25.893 50.25 28.152 47.838 32.331C45.424 36.511 45.424 41.027 47.838 42.42C48.091 42.567 48.362 42.673 48.616 42.734" stroke-linejoin="round" stroke-width="0.1"/>
   <path d="M57.06 27.635C56.901 27.495 56.732 27.375 56.576 27.286" stroke-linejoin="round" stroke-width="0.1"/>
  </g>
  <g>
   <path d="M53.929 45.158C53.97 45.185 54.012 45.21 54.048 45.231C56.274 46.518 59.887 44.433 62.116 40.578C64.304 36.793 64.346 32.709 62.238 31.335" stroke-linejoin="round" stroke-width="0.1"/>
  </g>
  <g>
   <path d="M62.24 31.056C59.948 29.731 56.228 31.876 53.933 35.847C51.682 39.743 51.637 43.95 53.807 45.362" stroke-linejoin="round" stroke-width="0.1"/>
   <path d="M62.362 31.132C62.32 31.103 62.277 31.077 62.24 31.056" stroke-linejoin="round" stroke-width="0.1"/>
  </g>
  <g>
   <path d="M57.462 28.297C55.167 26.974 51.45 29.12 49.156 33.093C46.863 37.064 46.863 41.357 49.156 42.682" stroke-linejoin="round" stroke-width="0.1"/>
  </g>
  <g>
   <path d="M52.389 41.868C54.045 40.93 55.549 39.295 56.637 37.414C57.81 35.384 58.39 33.273 58.375 31.507" stroke-linejoin="round" stroke-width="0.1"/>
  </g>
  <g>
   <path d="M52.378 41.606C55.518 39.628 57.987 35.302 58.143 31.635" stroke-linejoin="round" stroke-width="0.1"/>
  </g>
  <polyline points="6.346 17.338 6.343 17.295 6.314 17.246 6.246 17.175 6.19 17.134 0.559 13.882" stroke-linejoin="round" stroke-width="0.3"/>
  <line stroke-linejoin="round" stroke-width="0.3" x1="0.645" x2="0.731" y1="14.073" y2="13.983"/>
  <line stroke-linejoin="round" stroke-width="0.3" x1="2.326" x2="9.15" y1="15.659" y2="19.599"/>
  <polyline points="9.57 6.394 9.576 6.469 9.561 6.503 9.512 6.554 9.416 6.591 9.324 6.575 3.694 3.323" stroke-linejoin="round" stroke-width="0.3"/>
  <polyline points="3.902 3.104 3.967 3.246 9.57 6.482" stroke-linejoin="round" stroke-width="0.3"/>
  <line stroke-linejoin="round" stroke-width="0.3" x1="9.795" x2="17.468" y1="0.763" y2="5.192"/>
  <polyline points="53.219 45.027 52.399 45.767 49.707 47.415 49.582 47.481 46.924 48.359 46.761 48.386 44.298 48.424 44.119 48.402 41.835 47.521 12.16 30.388" stroke-linejoin="round" stroke-width="0.3"/>
  <polyline points="61.564 30.666 61.634 30.388 61.877 27.153 61.871 27.018 61.462 24.152 61.405 24.001 60.356 21.686 60.249 21.544 58.618 19.928 58.472 19.815 28.317 2.405" stroke-linejoin="round" stroke-width="0.3"/>
  <polyline points="48.999 42.954 48.008 42.381 47.917 42.344" stroke-linejoin="round" stroke-width="0.3"/>
  <line stroke-linejoin="round" stroke-width="0.3" x1="49.156" x2="53.932" y1="42.682" y2="45.439"/>
  <polyline points="58.091 31.658 58.009 32.765 57.527 34.656 56.725 36.552 55.649 38.344 54.362 39.926 52.939 41.207 52.381 41.548" stroke-linejoin="round" stroke-width="0.3"/>
  <polyline points="56.805 27.541 56.884 27.602 57.746 28.1" stroke-linejoin="round" stroke-width="0.3"/>
  <line stroke-linejoin="round" stroke-width="0.3" x1="57.462" x2="62.237" y1="28.297" y2="31.054"/>
  <line stroke-linejoin="round" stroke-width="0.3" x1="57.746" x2="58.619" y1="28.1" y2="28.966"/>
  <g>
   <path d="M12.157 30.394C12.157 30.394 12.157 30.394 12.157 30.394" stroke-linejoin="round" stroke-width="0.3"/>
   <path d="M28.321 2.399C23.856 -0.178 16.62 4 12.157 11.73C7.694 19.46 7.694 27.818 12.157 30.394" stroke-linejoin="round" stroke-width="0.3"/>
  </g>
  <g>
   <path d="M48.996 42.957C49.409 43.195 49.868 43.326 50.317 43.351" stroke-linejoin="round" stroke-width="0.3"/>
   <path d="M48.871 42.88C48.914 42.908 48.959 42.936 48.996 42.957" stroke-linejoin="round" stroke-width="0.3"/>
  </g>
  <g>
   <path d="M62.121 31.263C59.893 29.977 56.281 32.06 54.052 35.917C51.865 39.701 51.823 43.786 53.929 45.158" stroke-linejoin="round" stroke-width="0.3"/>
   <path d="M62.238 31.335C62.198 31.309 62.156 31.283 62.121 31.263" stroke-linejoin="round" stroke-width="0.3"/>
  </g>
  <g>
   <path d="M52.429 42.337C54.24 41.554 55.96 39.813 57.173 37.72C58.463 35.484 59.006 33.143 58.798 31.303" stroke-linejoin="round" stroke-width="0.3"/>
  </g>
  <g>
   <path d="M53.807 45.362C53.85 45.39 53.892 45.415 53.929 45.438C56.222 46.762 59.941 44.618 62.235 40.646C64.487 36.75 64.531 32.545 62.362 31.132" stroke-linejoin="round" stroke-width="0.3"/>
  </g>
  <g>
   <path d="M9.795 0.763C8.09 0.144 5.846 1.116 3.902 3.104" stroke-linejoin="round" stroke-width="0.3"/>
   <path d="M3.694 3.323C0.775 6.482 -0.596 11.141 0.559 13.882" stroke-linejoin="round" stroke-width="0.3"/>
   <path d="M0.645 14.073C1.04 14.89 1.635 15.419 2.326 15.66" stroke-linejoin="round" stroke-width="0.3"/>
  </g>
 </g>
 <g>
  <g>
   <path d="M129.001 69.849C126.766 68.56 123.144 70.65 120.911 74.519C118.763 78.24 118.68 82.251 120.674 83.707" stroke-linejoin="round" stroke-width="0.1"/>
   <path d="M129.236 70.003C129.157 69.944 129.074 69.891 129.001 69.849" stroke-linejoin="round" stroke-width="0.1"/>
  </g>
  <g>
   <path d="M121.03 83.655C123.197 84.906 126.712 82.876 128.881 79.121C130.966 75.512 131.045 71.62 129.11 70.206" stroke-linejoin="round" stroke-width="0.1"/>
   <path d="M120.799 83.504C120.879 83.561 120.959 83.614 121.03 83.655" stroke-linejoin="round" stroke-width="0.1"/>
  </g>
  <line stroke-linejoin="round" stroke-width="0.3" x1="92.76" x2="120.911" y1="67.608" y2="83.861"/>
  <line stroke-linejoin="round" stroke-width="0.3" x1="129.001" x2="100.849" y1="69.849" y2="53.597"/>
  <g>
   <path d="M120.674 83.707C120.754 83.766 120.837 83.819 120.911 83.861C123.144 85.15 126.766 83.06 129.001 79.191C131.149 75.469 131.23 71.459 129.236 70.003" stroke-linejoin="round" stroke-width="0.3"/>
  </g>
  <g>
   <path d="M129.11 70.206C129.032 70.149 128.951 70.096 128.881 70.057C126.712 68.805 123.197 70.834 121.03 74.588C118.945 78.2 118.865 82.09 120.799 83.504" stroke-linejoin="round" stroke-width="0.3"/>
  </g>
  <g>
   <path d="M100.852 53.598C98.618 52.307 94.995 54.398 92.76 58.265C90.525 62.134 90.522 66.316 92.757 67.606C92.757 67.606 92.757 67.606 92.757 67.606" stroke-linejoin="round" stroke-width="0.3"/>
  </g>
 </g>
 <g>
  <polyline points="78.975 48.287 79.105 47.853 70.546 42.911" stroke-linejoin="round" stroke-width="0.1"/>
  <polyline points="70.95 42.871 79.509 47.811 79.105 47.853" stroke-linejoin="round" stroke-width="0.1"/>
  <polyline points="71.506 45.451 75.858 47.965 75.781 48.088 74.864 49.847 74.129 51.935 73.778 53.959 73.837 55.789 74.237 57.173 74.302 57.308 75.141 58.42" stroke-linejoin="round" stroke-width="0.1"/>
  <polyline points="80.194 50.655 76.293 48.402 76.381 48.231 76.441 48.054 76.469 47.881 76.465 47.725 76.43 47.597 76.305 47.325 71.65 44.637" stroke-linejoin="round" stroke-width="0.1"/>
  <line stroke-linejoin="round" stroke-width="0.1" x1="72.567" x2="72.658" y1="44.735" y2="44.64"/>
  <line stroke-linejoin="round" stroke-width="0.1" x1="74.676" x2="74.593" y1="57.354" y2="57.246"/>
  <line stroke-linejoin="round" stroke-width="0.1" x1="74.188" x2="74.14" y1="55.93" y2="55.761"/>
  <polyline points="74.424 51.999 75.141 49.963 76.037 48.246 76.106 48.122 75.858 47.965 75.956 47.798 76.078 47.578 76.129 47.5 76.251 47.372 76.305 47.325 76.293 47.578 76.263 47.698 76.225 47.832 76.192 47.929 76.106 48.122" stroke-linejoin="round" stroke-width="0.1"/>
  <polyline points="74.561 41.561 78.914 44.073 78.978 44.182 79.063 44.259" stroke-linejoin="round" stroke-width="0.1"/>
  <polyline points="79.081 44.273 79.227 44.457 83.243 46.774 82.596 45.347 74.039 40.405" stroke-linejoin="round" stroke-width="0.1"/>
  <polyline points="74.206 39.046 82.763 43.987 82.596 44.551 74.039 39.609" stroke-linejoin="round" stroke-width="0.1"/>
  <line stroke-linejoin="round" stroke-width="0.1" x1="75.48" x2="75.667" y1="41.659" y2="41.463"/>
  <line stroke-linejoin="round" stroke-width="0.1" x1="75.781" x2="76.293" y1="48.088" y2="48.402"/>
  <polyline points="76.146 47.484 76.174 47.514 76.21 47.542 76.251 47.563 76.293 47.578 76.349 47.575 76.391 47.582 76.43 47.597 80.331 49.85 79.683 48.423 79.379 48.246" stroke-linejoin="round" stroke-width="0.1"/>
  <line stroke-linejoin="round" stroke-width="0.1" x1="77.837" x2="77.746" y1="47.631" y2="47.725"/>
  <polyline points="82.578 55.962 82.609 55.978 81.198 57.234 79.736 58.094 78.843 58.348" stroke-linejoin="round" stroke-width="0.1"/>
  <polyline points="79.524 44.737 79.362 44.616 79.227 44.457 79.204 44.445" stroke-linejoin="round" stroke-width="0.1"/>
  <line stroke-linejoin="round" stroke-width="0.1" x1="80.846" x2="80.659" y1="44.453" y2="44.649"/>
  <polyline points="84.344 43.036 83.01 42.753 81.489 43 81.45 43.018" stroke-linejoin="round" stroke-width="0.1"/>
  <polyline points="85.868 46.142 86.108 47.173 86.072 48.881 85.668 50.737 84.92 52.619 84.894 52.662 83.878 54.405 82.609 55.978" stroke-linejoin="round" stroke-width="0.1"/>
  <line stroke-linejoin="round" stroke-width="0.1" x1="82.763" x2="83.075" y1="43.987" y2="43.957"/>
  <line stroke-linejoin="round" stroke-width="0.1" x1="84.096" x2="83.418" y1="46.533" y2="46.142"/>
  <polyline points="85.406 44.072 85.43 44.09 85.483 44.173" stroke-linejoin="round" stroke-width="0.1"/>
  <polyline points="79.685 48.423 79.632 48.341 79.561 48.283" stroke-linejoin="round" stroke-width="0.1"/>
  <polyline points="83.716 46.603 83.831 46.622 83.96 46.598 84.096 46.533" stroke-linejoin="round" stroke-width="0.1"/>
  <polyline points="83.501 47.029 83.35 46.932 83.242 46.774" stroke-linejoin="round" stroke-width="0.1"/>
  <polyline points="74.593 57.246 74.53 57.112 74.168 55.929" stroke-linejoin="round" stroke-width="0.1"/>
  <line stroke-linejoin="round" stroke-width="0.1" x1="83.091" x2="81.837" y1="43.037" y2="43.24"/>
  <polyline points="79.801 47.868 79.664 47.819 79.509 47.811" stroke-linejoin="round" stroke-width="0.1"/>
  <g>
   <path d="M77.715 47.56C77.683 47.679 77.849 47.942 78.099 48.182C78.375 48.441 78.662 48.588 78.762 48.521" stroke-linejoin="round" stroke-width="0.1"/>
  </g>
  <g>
   <path d="M75.478 41.45C75.474 41.453 75.469 41.456 75.465 41.46C75.381 41.549 75.546 41.843 75.832 42.115C76.106 42.375 76.394 42.521 76.495 42.454" stroke-linejoin="round" stroke-width="0.1"/>
  </g>
  <g>
   <path d="M84.656 43.448C84.174 43.17 83.632 43.036 83.096 43.039" stroke-linejoin="round" stroke-width="0.1"/>
   <path d="M85.421 44.084C85.186 43.811 84.92 43.594 84.656 43.448" stroke-linejoin="round" stroke-width="0.1"/>
  </g>
  <g>
   <path d="M80.194 50.655C80.37 50.365 80.418 50.048 80.331 49.85" stroke-linejoin="round" stroke-width="0.1"/>
  </g>
  <g>
   <path d="M88.331 45.837C87.117 45.301 85.596 45.606 84.102 46.531" stroke-linejoin="round" stroke-width="0.1"/>
   <path d="M80.195 50.652C77.825 54.564 77.614 58.909 79.674 60.567" stroke-linejoin="round" stroke-width="0.1"/>
  </g>
  <g>
   <path d="M80.275 60.402C82.51 61.692 86.132 59.6 88.365 55.731C90.599 51.862 90.599 47.679 88.365 46.389C88.277 46.338 88.185 46.29 88.103 46.256" stroke-linejoin="round" stroke-width="0.1"/>
   <path d="M79.936 60.17C80.049 60.261 80.168 60.341 80.275 60.402" stroke-linejoin="round" stroke-width="0.1"/>
  </g>
  <g>
   <path d="M82.48 55.999C83.935 54.442 85.019 52.517 85.614 50.634" stroke-linejoin="round" stroke-width="0.1"/>
  </g>
  <g>
   <path d="M82.596 44.551C82.501 44.871 82.509 45.152 82.596 45.347" stroke-linejoin="round" stroke-width="0.1"/>
  </g>
  <g>
   <path d="M72.536 44.57C72.503 44.689 72.668 44.951 72.921 45.191C73.194 45.451 73.483 45.597 73.582 45.53" stroke-linejoin="round" stroke-width="0.1"/>
  </g>
  <g>
   <path d="M80.646 44.451C80.561 44.539 80.724 44.834 81.013 45.106C81.287 45.365 81.575 45.512 81.674 45.445" stroke-linejoin="round" stroke-width="0.1"/>
   <path d="M80.659 44.439C80.653 44.442 80.649 44.447 80.646 44.451" stroke-linejoin="round" stroke-width="0.1"/>
  </g>
  <g>
   <path d="M75.876 58.659C76.218 58.857 76.59 58.981 76.947 59.031" stroke-linejoin="round" stroke-width="0.1"/>
   <path d="M74.424 51.999C74.046 53.424 73.968 54.719 74.14 55.761" stroke-linejoin="round" stroke-width="0.1"/>
   <path d="M74.593 57.246C74.918 57.902 75.367 58.378 75.876 58.659" stroke-linejoin="round" stroke-width="0.1"/>
  </g>
  <g>
   <path d="M84.706 43.725C83.965 43.295 83.079 43.219 82.174 43.435" stroke-linejoin="round" stroke-width="0.1"/>
   <path d="M76.293 48.401C76.237 48.493 76.182 48.587 76.135 48.667C73.769 52.764 73.766 57.194 76.132 58.561" stroke-linejoin="round" stroke-width="0.1"/>
  </g>
  <polyline points="70.865 55.969 75.141 58.42 76.302 59.048 76.338 59.064 76.378 59.067 77.108 59.124" stroke-linejoin="round" stroke-width="0.3"/>
  <polyline points="70.95 42.871 70.546 42.911 70.418 43.347 78.975 48.287 79.379 48.246" stroke-linejoin="round" stroke-width="0.3"/>
  <line stroke-linejoin="round" stroke-width="0.3" x1="71.65" x2="71.295" y1="44.637" y2="43.853"/>
  <line stroke-linejoin="round" stroke-width="0.3" x1="71.243" x2="79.802" y1="42.927" y2="47.868"/>
  <polyline points="74.914 57.292 74.822 57.052 74.421 55.844" stroke-linejoin="round" stroke-width="0.3"/>
  <line stroke-linejoin="round" stroke-width="0.3" x1="74.561" x2="74.039" y1="41.561" y2="40.405"/>
  <polyline points="74.039 39.609 74.206 39.046 74.518 39.015 83.075 43.957 82.909 44.52 82.876 44.659 82.865 44.792 82.876 44.914 82.909 45.018 83.555 46.445" stroke-linejoin="round" stroke-width="0.3"/>
  <line stroke-linejoin="round" stroke-width="0.3" x1="74.82" x2="79.082" y1="41.814" y2="44.283"/>
  <line stroke-linejoin="round" stroke-width="0.3" x1="80.037" x2="76.135" y1="60.814" y2="58.561"/>
  <polyline points="78.801 58.319 79.638 58.079 81.087 57.228 82.513 55.957 83.793 54.369 84.846 52.567 85.6 50.665 86.01 48.79 86.046 47.094" stroke-linejoin="round" stroke-width="0.3"/>
  <line stroke-linejoin="round" stroke-width="0.3" x1="79.081" x2="78.914" y1="44.273" y2="44.073"/>
  <line stroke-linejoin="round" stroke-width="0.3" x1="79.007" x2="79.034" y1="44.192" y2="44.22"/>
  <polygon points="79.045 44.231 79.024 44.207 79.075 44.271 79.045 44.231" stroke-linejoin="round" stroke-width="0.3"/>
  <polyline points="81.725 46 82.018 46.17 79.524 44.737 79.432 44.679 79.367 44.625 79.307 44.567 79.204 44.445 79.075 44.271 79.212 44.45" stroke-linejoin="round" stroke-width="0.3"/>
  <line stroke-linejoin="round" stroke-width="0.3" x1="79.114" x2="79.063" y1="44.323" y2="44.259"/>
  <line stroke-linejoin="round" stroke-width="0.3" x1="79.024" x2="78.995" y1="44.207" y2="44.17"/>
  <line stroke-linejoin="round" stroke-width="0.3" x1="79.134" x2="79.186" y1="44.347" y2="44.415"/>
  <line stroke-linejoin="round" stroke-width="0.3" x1="79.995" x2="80.644" y1="48.093" y2="49.521"/>
  <polyline points="79.921 40.494 84.344 43.036 85.436 43.856 85.459 43.887 85.719 44.341" stroke-linejoin="round" stroke-width="0.3"/>
  <polyline points="83.35 46.932 82.018 46.17 83.501 47.029" stroke-linejoin="round" stroke-width="0.3"/>
  <line stroke-linejoin="round" stroke-width="0.3" x1="88.605" x2="84.703" y1="45.975" y2="43.722"/>
  <line stroke-linejoin="round" stroke-width="0.3" x1="85.465" x2="85.546" y1="44.07" y2="44.21"/>
  <line stroke-linejoin="round" stroke-width="0.3" x1="85.54" x2="85.719" y1="44.024" y2="44.317"/>
  <line stroke-linejoin="round" stroke-width="0.3" x1="85.828" x2="86.046" y1="46.152" y2="47.094"/>
  <polyline points="78.611 48.076 78.7 48.201 78.76 48.311 78.792 48.405 78.793 48.476 78.762 48.521" stroke-linejoin="round" stroke-width="0.3"/>
  <polyline points="79.379 48.247 79.477 48.25 79.561 48.283" stroke-linejoin="round" stroke-width="0.3"/>
  <polyline points="81.725 46 81.712 46.119 81.28 48.064 80.683 49.634" stroke-linejoin="round" stroke-width="0.3"/>
  <polyline points="71.243 42.927 71.128 42.881 71.106 42.878 70.95 42.871" stroke-linejoin="round" stroke-width="0.3"/>
  <polyline points="83.555 46.445 83.623 46.543 83.716 46.603" stroke-linejoin="round" stroke-width="0.3"/>
  <polyline points="73.582 45.531 73.612 45.487 73.612 45.414 73.581 45.32 73.519 45.21 73.432 45.087" stroke-linejoin="round" stroke-width="0.3"/>
  <polyline points="74.82 41.814 74.668 41.716 74.561 41.561" stroke-linejoin="round" stroke-width="0.3"/>
  <polyline points="79.996 48.093 79.912 47.962 79.801 47.868" stroke-linejoin="round" stroke-width="0.3"/>
  <g>
   <path d="M76.507 42.445C76.591 42.354 76.427 42.061 76.141 41.789C75.865 41.53 75.578 41.384 75.478 41.45" stroke-linejoin="round" stroke-width="0.3"/>
   <path d="M76.495 42.454C76.5 42.451 76.504 42.448 76.507 42.445" stroke-linejoin="round" stroke-width="0.3"/>
  </g>
  <g>
   <path d="M80.424 50.807C80.706 50.343 80.783 49.837 80.643 49.521" stroke-linejoin="round" stroke-width="0.3"/>
  </g>
  <g>
   <path d="M79.924 40.496C79.075 40.139 78.087 40.167 77.096 40.503" stroke-linejoin="round" stroke-width="0.3"/>
   <path d="M71.507 45.45C68.962 49.561 68.694 54.191 70.862 55.966" stroke-linejoin="round" stroke-width="0.3"/>
  </g>
  <g>
   <path d="M80.034 60.813C82.399 62.179 86.236 59.966 88.603 55.869C90.971 51.774 90.972 47.344 88.608 45.976C88.513 45.923 88.417 45.874 88.331 45.837" stroke-linejoin="round" stroke-width="0.3"/>
   <path d="M79.674 60.567C79.795 60.664 79.92 60.749 80.034 60.813" stroke-linejoin="round" stroke-width="0.3"/>
  </g>
  <g>
   <path d="M71.506 45.451C71.686 45.158 71.737 44.835 71.65 44.636" stroke-linejoin="round" stroke-width="0.3"/>
  </g>
  <g>
   <path d="M88.103 46.256C86.957 45.75 85.521 46.039 84.108 46.917" stroke-linejoin="round" stroke-width="0.3"/>
   <path d="M80.424 50.807C78.186 54.503 77.99 58.604 79.936 60.17" stroke-linejoin="round" stroke-width="0.3"/>
  </g>
  <g>
   <path d="M83.501 47.029C83.679 47.097 83.896 47.048 84.108 46.915" stroke-linejoin="round" stroke-width="0.3"/>
  </g>
  <g>
   <path d="M81.674 45.445C81.68 45.442 81.683 45.439 81.686 45.435C81.772 45.345 81.608 45.052 81.319 44.78C81.046 44.521 80.759 44.375 80.659 44.439" stroke-linejoin="round" stroke-width="0.3"/>
  </g>
  <g>
   <path d="M74.039 39.609C73.944 39.93 73.95 40.212 74.039 40.406" stroke-linejoin="round" stroke-width="0.3"/>
  </g>
 </g>
 <g>
  <polyline points="144.909 83.899 140.557 81.385 140.46 81.483 139.028 83.177 137.834 85.123 136.95 87.195 136.812 87.75 136.437 89.262 136.316 90.76 136.328 91.188 136.627 92.849 137.317 94.138 138.353 94.972" stroke-linejoin="round" stroke-width="0.1"/>
  <polyline points="136.36 79.322 140.262 81.575 140.344 81.483 140.445 81.34 140.528 81.183 140.587 81.022 140.622 80.862 140.628 80.754 136.727 78.501" stroke-linejoin="round" stroke-width="0.1"/>
  <polyline points="140.689 80.853 140.691 80.826 140.677 80.798 140.652 80.771 140.628 80.754 140.629 80.381 145.284 83.069 145.284 81.492 136.727 76.551" stroke-linejoin="round" stroke-width="0.1"/>
  <line stroke-linejoin="round" stroke-width="0.1" x1="138.247" x2="137.909" y1="77.819" y2="78.013"/>
  <polyline points="139.879 76.68 143.895 79 143.981 78.868 144.086 78.736 148.437 81.248 148.437 79.671 139.879 74.73" stroke-linejoin="round" stroke-width="0.1"/>
  <polyline points="140.46 81.483 140.399 81.457 140.377 81.457 140.36 81.465" stroke-linejoin="round" stroke-width="0.1"/>
  <line stroke-linejoin="round" stroke-width="0.1" x1="140.262" x2="140.266" y1="81.575" y2="81.576"/>
  <polygon points="140.692 80.834 140.77 80.826 140.742 80.677 140.629 80.381 140.692 80.834" stroke-linejoin="round" stroke-width="0.1"/>
  <line stroke-linejoin="round" stroke-width="0.1" x1="140.681" x2="140.679" y1="80.959" y2="80.971"/>
  <polyline points="140.449 81.379 140.463 81.364 140.489 81.361 140.52 81.367 140.557 81.385 140.65 81.277 140.721 81.147 140.764 80.992 140.77 80.826" stroke-linejoin="round" stroke-width="0.1"/>
  <polyline points="149.01 78.248 148.701 78.784 140.144 73.843" stroke-linejoin="round" stroke-width="0.1"/>
  <polyline points="142.522 93.739 142.526 93.781 141.123 94.382" stroke-linejoin="round" stroke-width="0.1"/>
  <polyline points="141.073 94.075 142.375 93.516 142.407 93.54" stroke-linejoin="round" stroke-width="0.1"/>
  <polyline points="147.536 81.156 147.953 82.23 148.094 83.609 148.092 83.831 147.856 85.632 147.264 87.518 146.352 89.364 145.18 91.049 145.147 91.082 143.824 92.465 142.375 93.516 141.013 92.731" stroke-linejoin="round" stroke-width="0.1"/>
  <line stroke-linejoin="round" stroke-width="0.1" x1="141.062" x2="141.401" y1="76.194" y2="75.998"/>
  <polyline points="142.53 93.819 142.526 93.781 144.014 92.7 145.406 91.246 146.609 89.516 147.545 87.621 148.155 85.686 148.395 83.837 148.399 83.609 148.252 82.194 147.941 81.391" stroke-linejoin="round" stroke-width="0.1"/>
  <line stroke-linejoin="round" stroke-width="0.1" x1="143.09" x2="143.426" y1="81.004" y2="80.81"/>
  <polyline points="144.603 79.462 144.574 79.462 144.557 79.504 144.536 79.539 144.508 79.564 144.474 79.581 144.439 79.585" stroke-linejoin="round" stroke-width="0.1"/>
  <polyline points="144.574 79.462 144.485 79.472 144.461 79.519 144.429 79.557 144.391 79.581 144.348 79.593" stroke-linejoin="round" stroke-width="0.1"/>
  <polyline points="144.086 78.736 144.033 79.084 143.983 79.066 143.936 79.037 143.895 79 143.865 79.102 143.871 79.277 143.943 79.427" stroke-linejoin="round" stroke-width="0.1"/>
  <polyline points="144.082 79.236 144.066 79.243 144.161 79.375 144.305 79.454 144.485 79.472 144.497 79.436 144.514 79.412" stroke-linejoin="round" stroke-width="0.1"/>
  <polyline points="144.385 79.337 144.248 79.239 144.151 79.088 144.097 78.893 144.086 78.736" stroke-linejoin="round" stroke-width="0.1"/>
  <polyline points="144.038 79.228 144.066 79.243 144.033 79.084" stroke-linejoin="round" stroke-width="0.1"/>
  <polyline points="145.284 81.492 145.274 81.371 145.241 81.268 145.189 81.186 145.12 81.128" stroke-linejoin="round" stroke-width="0.1"/>
  <line stroke-linejoin="round" stroke-width="0.1" x1="144.811" x2="145.05" y1="80.948" y2="80.534"/>
  <line stroke-linejoin="round" stroke-width="0.1" x1="146.241" x2="146.58" y1="79.183" y2="78.989"/>
  <line stroke-linejoin="round" stroke-width="0.1" x1="147.137" x2="146.592" y1="79.325" y2="79.105"/>
  <line stroke-linejoin="round" stroke-width="0.1" x1="149.151" x2="148.812" y1="81.45" y2="81.254"/>
  <polyline points="148.963 81.43 149.043 81.453 149.067 81.454 149.151 81.45" stroke-linejoin="round" stroke-width="0.1"/>
  <g>
   <path d="M148.701 78.784C148.526 79.088 148.437 79.406 148.437 79.671" stroke-linejoin="round" stroke-width="0.1"/>
  </g>
  <g>
   <path d="M138.775 78.927C138.782 78.923 138.789 78.918 138.795 78.914" stroke-linejoin="round" stroke-width="0.1"/>
   <path d="M138.037 77.7C137.859 77.828 137.87 78.186 138.057 78.513C138.256 78.855 138.576 79.042 138.775 78.927" stroke-linejoin="round" stroke-width="0.1"/>
  </g>
  <g>
   <path d="M141.195 94.686C143.318 94.082 145.465 92.081 146.937 89.548C148.575 86.712 149.073 83.716 148.419 81.667" stroke-linejoin="round" stroke-width="0.1"/>
  </g>
  <g>
   <path d="M141.927 77.106C141.935 77.102 141.943 77.097 141.949 77.093" stroke-linejoin="round" stroke-width="0.1"/>
   <path d="M141.189 75.879C141.012 76.009 141.022 76.365 141.211 76.692C141.408 77.036 141.729 77.221 141.927 77.106" stroke-linejoin="round" stroke-width="0.1"/>
  </g>
  <g>
   <path d="M147.106 80.097C147.115 80.093 147.122 80.087 147.128 80.084" stroke-linejoin="round" stroke-width="0.1"/>
   <path d="M146.37 78.87C146.191 79 146.203 79.356 146.39 79.683C146.588 80.027 146.909 80.212 147.106 80.097" stroke-linejoin="round" stroke-width="0.1"/>
  </g>
  <g>
   <path d="M144.909 83.899C145.139 83.673 145.283 83.34 145.286 83.069" stroke-linejoin="round" stroke-width="0.1"/>
  </g>
  <g>
   <path d="M142.861 97.03C145.231 98.284 148.974 96.066 151.29 92.06C153.548 88.15 153.639 83.938 151.554 82.394" stroke-linejoin="round" stroke-width="0.1"/>
  </g>
  <g>
   <path d="M140.263 81.575C138.709 83.14 137.532 85.144 136.883 87.126" stroke-linejoin="round" stroke-width="0.1"/>
  </g>
  <g>
   <path d="M143.217 80.689C143.038 80.819 143.05 81.177 143.237 81.504C143.436 81.846 143.757 82.031 143.955 81.918C143.961 81.914 143.968 81.909 143.974 81.903" stroke-linejoin="round" stroke-width="0.1"/>
  </g>
  <g>
   <path d="M148.437 81.248C148.437 81.518 148.526 81.712 148.67 81.811" stroke-linejoin="round" stroke-width="0.1"/>
  </g>
  <g>
   <path d="M142.532 97.391C142.566 97.409 142.6 97.429 142.629 97.444" stroke-linejoin="round" stroke-width="0.1"/>
   <path d="M151.806 81.99C151.056 81.438 150.128 81.278 149.161 81.448" stroke-linejoin="round" stroke-width="0.1"/>
   <path d="M144.909 83.899C143.971 84.825 143.157 85.906 142.532 87.003C140.049 91.305 140.048 95.956 142.532 97.391" stroke-linejoin="round" stroke-width="0.1"/>
  </g>
  <line stroke-linejoin="round" stroke-width="0.3" x1="137.084" x2="134.191" y1="93.748" y2="92.076"/>
  <polyline points="142.53 97.388 138.353 94.972 137.287 94.114 137.264 94.082 136.574 92.796 136.563 92.763 136.265 91.111 136.375 89.174 136.883 87.126 137.758 85.072 138.943 83.144 140.36 81.465 140.443 81.385 140.438 81.39" stroke-linejoin="round" stroke-width="0.3"/>
  <polyline points="136.407 89.26 136.316 90.76 136.295 91.186" stroke-linejoin="round" stroke-width="0.3"/>
  <polyline points="136.265 76.016 136.253 76.009 136.493 75.596 139.199 77.156 138.649 76.84" stroke-linejoin="round" stroke-width="0.3"/>
  <line stroke-linejoin="round" stroke-width="0.3" x1="136.253" x2="145.12" y1="76.009" y2="81.128"/>
  <polyline points="136.727 78.501 136.727 76.551 136.717 76.43 136.685 76.326 136.632 76.245 136.562 76.186" stroke-linejoin="round" stroke-width="0.3"/>
  <line stroke-linejoin="round" stroke-width="0.3" x1="137.074" x2="136.493" y1="75.93" y2="75.596"/>
  <polyline points="139.199 77.156 141.014 78.204 140.223 77.748" stroke-linejoin="round" stroke-width="0.3"/>
  <line stroke-linejoin="round" stroke-width="0.3" x1="139.879" x2="139.879" y1="76.68" y2="74.73"/>
  <polyline points="140.57 81.224 140.527 81.29 140.437 81.39" stroke-linejoin="round" stroke-width="0.3"/>
  <polyline points="140.689 80.853 140.675 80.995 140.651 81.069" stroke-linejoin="round" stroke-width="0.3"/>
  <polyline points="140.675 80.995 140.633 81.117 140.633 81.114" stroke-linejoin="round" stroke-width="0.3"/>
  <line stroke-linejoin="round" stroke-width="0.3" x1="140.633" x2="140.602" y1="81.117" y2="81.179"/>
  <polyline points="144.824 79.59 144.439 79.588 144.348 79.593 144.305 79.591 144.145 79.563 144.076 79.534 140.106 77.239" stroke-linejoin="round" stroke-width="0.3"/>
  <polyline points="140.144 73.843 140.454 73.307 149.25 78.385 148.941 78.921 148.871 79.061 148.818 79.203 148.787 79.343 148.776 79.477 148.776 81.054" stroke-linejoin="round" stroke-width="0.3"/>
  <polyline points="145.05 80.534 145.359 80.713 141.014 78.204" stroke-linejoin="round" stroke-width="0.3"/>
  <line stroke-linejoin="round" stroke-width="0.3" x1="143.943" x2="144.076" y1="79.427" y2="79.534"/>
  <polyline points="144.361 79.326 144.387 79.337 148.67 81.811" stroke-linejoin="round" stroke-width="0.3"/>
  <line stroke-linejoin="round" stroke-width="0.3" x1="145.622" x2="145.622" y1="82.873" y2="81.298"/>
  <line stroke-linejoin="round" stroke-width="0.3" x1="146.592" x2="147.137" y1="79.105" y2="79.325"/>
  <line stroke-linejoin="round" stroke-width="0.3" x1="151.8" x2="148.776" y1="81.986" y2="80.233"/>
  <polyline points="140.106 77.239 139.983 77.103 139.906 76.911 139.881 76.68" stroke-linejoin="round" stroke-width="0.3"/>
  <polyline points="148.67 81.811 148.84 81.882 149.039 81.882" stroke-linejoin="round" stroke-width="0.3"/>
  <line stroke-linejoin="round" stroke-width="0.3" x1="143.824" x2="144.02" y1="79.387" y2="79.941"/>
  <polyline points="148.963 81.43 148.878 81.368 148.818 81.277 148.782 81.156 148.776 81.054" stroke-linejoin="round" stroke-width="0.3"/>
  <g>
   <path d="M136.36 79.322C136.586 79.096 136.725 78.769 136.728 78.501" stroke-linejoin="round" stroke-width="0.3"/>
  </g>
  <g>
   <path d="M136.362 79.322C135.506 80.183 134.763 81.18 134.189 82.185C131.822 86.281 131.819 90.71 134.186 92.078C134.186 92.078 134.186 92.078 134.186 92.078" stroke-linejoin="round" stroke-width="0.3"/>
  </g>
  <g>
   <path d="M138.795 78.914C138.973 78.784 138.962 78.427 138.775 78.099C138.576 77.757 138.256 77.572 138.057 77.686C138.05 77.691 138.043 77.694 138.037 77.7" stroke-linejoin="round" stroke-width="0.3"/>
  </g>
  <g>
   <path d="M140.144 73.843C139.967 74.147 139.879 74.465 139.879 74.731" stroke-linejoin="round" stroke-width="0.3"/>
  </g>
  <g>
   <path d="M141.949 77.093C142.127 76.963 142.116 76.606 141.927 76.28C141.729 75.936 141.408 75.751 141.211 75.865C141.204 75.87 141.195 75.875 141.189 75.879" stroke-linejoin="round" stroke-width="0.3"/>
  </g>
  <g>
   <path d="M147.128 80.084C147.306 79.953 147.295 79.596 147.106 79.269C146.909 78.927 146.588 78.742 146.39 78.855C146.383 78.861 146.376 78.865 146.37 78.87" stroke-linejoin="round" stroke-width="0.3"/>
  </g>
  <g>
   <path d="M141.401 75.998C141.401 76.159 141.456 76.338 141.549 76.498C141.656 76.683 141.798 76.822 141.937 76.893" stroke-linejoin="round" stroke-width="0.3"/>
  </g>
  <g>
   <path d="M146.58 78.989C146.58 79.15 146.637 79.329 146.729 79.489C146.836 79.674 146.978 79.813 147.117 79.884" stroke-linejoin="round" stroke-width="0.3"/>
  </g>
  <g>
   <path d="M145.022 84.201C145.389 83.838 145.621 83.308 145.622 82.873" stroke-linejoin="round" stroke-width="0.3"/>
  </g>
  <g>
   <path d="M145.623 81.298C145.623 81.01 145.522 80.808 145.36 80.715" stroke-linejoin="round" stroke-width="0.3"/>
  </g>
  <g>
   <path d="M142.77 96.978C142.802 96.998 142.835 97.016 142.861 97.03" stroke-linejoin="round" stroke-width="0.3"/>
   <path d="M151.554 82.394C150.841 81.87 149.96 81.718 149.039 81.882" stroke-linejoin="round" stroke-width="0.3"/>
   <path d="M145.021 84.201C144.133 85.078 143.362 86.102 142.77 87.141C140.418 91.215 140.418 95.62 142.77 96.978" stroke-linejoin="round" stroke-width="0.3"/>
  </g>
  <g>
   <path d="M143.426 80.81C143.426 80.971 143.484 81.15 143.575 81.308C143.681 81.493 143.824 81.632 143.965 81.703" stroke-linejoin="round" stroke-width="0.3"/>
  </g>
  <g>
   <path d="M143.237 80.677C143.229 80.68 143.223 80.686 143.217 80.689" stroke-linejoin="round" stroke-width="0.3"/>
   <path d="M143.974 81.903C144.153 81.775 144.143 81.418 143.955 81.09C143.757 80.748 143.436 80.563 143.237 80.677" stroke-linejoin="round" stroke-width="0.3"/>
  </g>
  <g>
   <path d="M142.629 97.444C145.132 98.768 149.084 96.427 151.528 92.197C153.912 88.069 154.008 83.62 151.806 81.99" stroke-linejoin="round" stroke-width="0.3"/>
  </g>
  <g>
   <path d="M138.247 77.819C138.247 77.98 138.304 78.159 138.395 78.319C138.502 78.503 138.645 78.641 138.784 78.713" stroke-linejoin="round" stroke-width="0.3"/>
  </g>
 </g>
 <g>
  <polyline points="168.881 110.234 168.883 110.246 168.923 110.323" stroke-linejoin="round" stroke-width="0.1"/>
  <polyline points="168.615 108.629 168.621 108.868 168.741 109.5" stroke-linejoin="round" stroke-width="0.1"/>
  <polyline points="169.022 106.361 168.837 106.865 168.831 106.908" stroke-linejoin="round" stroke-width="0.1"/>
  <polyline points="169.58 105.024 169.403 105.319 169.391 105.352" stroke-linejoin="round" stroke-width="0.1"/>
  <polyline points="170.354 103.73 170.387 103.674 170.966 103.013" stroke-linejoin="round" stroke-width="0.1"/>
  <polyline points="172.781 101.295 171.711 102.161 171.682 102.194" stroke-linejoin="round" stroke-width="0.1"/>
  <polyline points="174.848 100.028 174.808 100.04 173.223 100.936" stroke-linejoin="round" stroke-width="0.1"/>
  <polyline points="176.647 99.427 176.596 99.433 175.737 99.725" stroke-linejoin="round" stroke-width="0.1"/>
  <polyline points="177.318 99.349 178.151 99.25 178.227 99.26" stroke-linejoin="round" stroke-width="0.1"/>
  <line stroke-linejoin="round" stroke-width="0.1" x1="179.61" x2="179.751" y1="99.438" y2="99.459"/>
  <line stroke-linejoin="round" stroke-width="0.1" x1="181.075" x2="180.949" y1="100.081" y2="100.022"/>
  <line stroke-linejoin="round" stroke-width="0.3" x1="156.674" x2="169.628" y1="104.352" y2="111.823"/>
  <line stroke-linejoin="round" stroke-width="0.3" x1="164.634" x2="179.949" y1="90.579" y2="99.489"/>
  <line stroke-linejoin="round" stroke-width="0.3" x1="180.955" x2="176.818" y1="100.012" y2="97.668"/>
  <polyline points="182.332 101.593 182.593 102.102 182.603 102.147" stroke-linejoin="round" stroke-width="0.3"/>
  <line stroke-linejoin="round" stroke-width="0.3" x1="181.858" x2="182.052" y1="100.853" y2="101.048"/>
  <g>
   <path d="M156.669 104.358C156.669 104.359 156.669 104.359 156.669 104.359" stroke-linejoin="round" stroke-width="0.3"/>
   <path d="M164.639 90.572C164.635 90.57 164.633 90.569 164.631 90.567C162.432 89.299 158.867 91.356 156.669 95.165C154.469 98.974 154.469 103.09 156.669 104.358" stroke-linejoin="round" stroke-width="0.3"/>
  </g>
  <polyline points="173.77 120.813 173.51 119.927 173.599 119.328" stroke-linejoin="round" stroke-width="0.1"/>
  <polyline points="173.599 119.328 173.991 118.507 174.961 117.405 176.241 116.438 177.722 115.618 179.15 115.018 180.818 114.495 182.403 114.162 184.055 113.987 185.576 114.013 186.962 114.257 188.038 114.712 188.794 115.427" stroke-linejoin="round" stroke-width="0.1"/>
  <polyline points="188.451 115.341 188.805 116.152 188.735 116.947 188.514 117.477 187.681 118.558 186.485 119.543 185.079 120.376 183.463 121.087 181.832 121.608 180.194 121.959 178.703 122.123 177.229 122.112 176.06 121.941 174.893 121.519 174.114 120.897" stroke-linejoin="round" stroke-width="0.1"/>
  <line stroke-linejoin="round" stroke-width="0.1" x1="188.735" x2="187.717" y1="116.947" y2="114.756"/>
  <polyline points="169.798 112.188 169.849 112.298 168.83 110.108 168.741 109.496" stroke-linejoin="round" stroke-width="0.3"/>
  <line stroke-linejoin="round" stroke-width="0.3" x1="168.649" x2="168.681" y1="108.864" y2="109.09"/>
  <polyline points="168.831 106.908 168.789 107.03 168.604 108.564 168.611 108.615" stroke-linejoin="round" stroke-width="0.3"/>
  <polyline points="169.391 105.352 169.343 105.435 169.05 106.281" stroke-linejoin="round" stroke-width="0.3"/>
  <polyline points="173.693 120.552 169.849 112.298 173.77 120.813 174.526 121.528 175.603 121.983 176.987 122.227 178.509 122.251 180.162 122.078 181.747 121.743 183.414 121.221 184.842 120.62 186.324 119.801 187.604 118.834 188.573 117.733 188.965 116.912 189.054 116.311 188.794 115.427 181.677 100.7 181.717 100.781" stroke-linejoin="round" stroke-width="0.3"/>
  <polyline points="170.354 103.73 170.283 103.813 169.626 104.948" stroke-linejoin="round" stroke-width="0.3"/>
  <polyline points="170.991 102.983 171.627 102.239 171.682 102.194" stroke-linejoin="round" stroke-width="0.3"/>
  <line stroke-linejoin="round" stroke-width="0.3" x1="173.223" x2="172.389" y1="100.936" y2="101.614"/>
  <polyline points="188.451 115.341 187.671 114.719 186.507 114.299 185.335 114.126 183.862 114.117 182.37 114.281 180.731 114.631 179.1 115.153 177.485 115.864 176.08 116.697 174.883 117.68 174.05 118.763 173.83 119.292 173.759 120.09 174.114 120.897" stroke-linejoin="round" stroke-width="0.3"/>
  <polyline points="174.481 121.188 174.485 121.194 173.788 119.76" stroke-linejoin="round" stroke-width="0.3"/>
  <polyline points="175.739 99.725 174.889 100.004 174.848 100.028" stroke-linejoin="round" stroke-width="0.3"/>
  <polyline points="177.223 99.359 176.693 99.414 176.647 99.427" stroke-linejoin="round" stroke-width="0.3"/>
  <polyline points="178.227 99.26 178.322 99.25 179.75 99.459" stroke-linejoin="round" stroke-width="0.3"/>
  <line stroke-linejoin="round" stroke-width="0.3" x1="178.152" x2="177.986" y1="99.266" y2="99.284"/>
  <polyline points="179.75 99.459 179.78 99.465 181.081 100.081" stroke-linejoin="round" stroke-width="0.3"/>
  <polyline points="181.677 100.7 181.649 100.641 182.056 101.049" stroke-linejoin="round" stroke-width="0.3"/>
  <line stroke-linejoin="round" stroke-width="0.3" x1="181.092" x2="181.359" y1="100.087" y2="100.35"/>
  <line stroke-linejoin="round" stroke-width="0.3" x1="182.872" x2="182.604" y1="102.743" y2="102.147"/>
  <polyline points="188.651 115.213 182.433 101.801 182.603 102.147" stroke-linejoin="round" stroke-width="0.3"/>
  <line stroke-linejoin="round" stroke-width="0.3" x1="182.433" x2="182.332" y1="101.801" y2="101.593"/>
  <line stroke-linejoin="round" stroke-width="0.3" x1="188.056" x2="188.764" y1="115.025" y2="116.617"/>
  <line stroke-linejoin="round" stroke-width="0.3" x1="188.424" x2="188.635" y1="115.319" y2="115.762"/>
 </g>
 <line stroke-width="0.13" x1="44.909" x2="48.091" y1="11.946" y2="3.559"/>
 <text fill="#000000" font-family="'Helvetica'" font-size="3.528" font-weight="bold" stroke="none" x="47.406" y="2.822">1</text>
 <line stroke-width="0.13" x1="82.132" x2="85.314" y1="41.765" y2="33.378"/>
 <text fill="#000000" font-family="'Helvetica'" font-size="3.528" font-weight="bold" stroke="none" x="84.631" y="32.64">2</text>
 <line stroke-width="0.13" x1="112.539" x2="115.719" y1="59.32" y2="50.932"/>
 <text fill="#000000" font-family="'Helvetica'" font-size="3.528" font-weight="bold" stroke="none" x="115.036" y="50.195">3</text>
 <line stroke-width="0.13" x1="145.772" x2="148.954" y1="76.058" y2="67.671"/>
 <text fill="#000000" font-family="'Helvetica'" font-size="3.528" font-weight="bold" stroke="none" x="148.27" y="66.933">2</text>
 <line stroke-width="0.13" x1="172.292" x2="175.473" y1="95.034" y2="86.647"/>
 <text fill="#000000" font-family="'Helvetica'" font-size="3.528" font-weight="bold" stroke="none" x="174.788" y="85.909">4</text>
 <g>
  <line stroke="#FFFFFF" stroke-width="1" x1="58.573" x2="69.728" y1="38.53" y2="44.969"/>
  <line stroke-dasharray="2 0.5 0.2 0.5" stroke-width="0.13" x1="58.085" x2="70.218" y1="38.246" y2="45.252"/>
 </g>
 <g>
  <line stroke="#FFFFFF" stroke-width="1" x1="82.215" x2="91.649" y1="52.179" y2="57.625"/>
  <line stroke-dasharray="2 0.5 0.2 0.5" stroke-width="0.13" x1="81.727" x2="92.138" y1="51.896" y2="57.908"/>
 </g>
 <g>
  <line stroke="#FFFFFF" stroke-width="1" x1="125.444" x2="133.367" y1="77.138" y2="81.712"/>
  <line stroke-dasharray="2 0.5 0.2 0.5" stroke-width="0.13" x1="124.956" x2="133.858" y1="76.855" y2="81.995"/>
 </g>
 <g>
  <line stroke="#FFFFFF" stroke-width="1" x1="144.537" x2="155.221" y1="88.161" y2="94.328"/>
  <line stroke-dasharray="2 0.5 0.2 0.5" stroke-width="0.13" x1="144.048" x2="155.71" y1="87.878" y2="94.611"/>
 </g>
</svg>