<?xml version="1.0" encoding="UTF-8" standalone="no"?><!-- Generator: PTC Arbortext IsoDraw 7.3 M090 --><svg xmlns="http://www.w3.org/2000/svg" xmlns:xlink="http://www.w3.org/1999/xlink" clip-rule="evenodd" fill="none" fill-rule="evenodd" font-family="sans-serif" font-size="10" font-stretch="normal" font-style="normal" font-variant="normal" font-weight="normal" height="170.371" id="Standard_x0020_layer" onabort="parent.dwImageSVGOnAbort('HNU126164120');" onerror="parent.dwImageSVGOnError('HNU126164120');" onload="parent.dwImageSVGOnLoad('HNU126164120');" stroke="#000000" stroke-linecap="round" viewBox="0.0 0.0 102.475 170.371" width="102.475" x="0" xml:space="preserve" y="0">
 <g>
  <line stroke="#FFFFFF" stroke-width="1" x1="31.503" x2="31.176" y1="100.67" y2="101.313"/>
  <line stroke-dasharray="5 1 1 1" stroke-width="0.3" x1="31.661" x2="31.471" y1="100.358" y2="100.733"/>
  <line stroke-width="0.3" x1="31.471" x2="31.018" y1="100.733" y2="101.625"/>
 </g>
 <g>
  <line stroke="#FFFFFF" stroke-width="1" x1="29.702" x2="16.975" y1="104.215" y2="129.274"/>
  <line stroke-dasharray="5 1 1 1" stroke-width="0.3" x1="29.861" x2="17.269" y1="103.903" y2="128.693"/>
  <line stroke-width="0.3" x1="17.269" x2="16.817" y1="128.693" y2="129.586"/>
 </g>
 <g>
  <line stroke="#FFFFFF" stroke-width="1" x1="12.83" x2="3.072" y1="137.435" y2="156.646"/>
  <line stroke-dasharray="5 1 1 1" stroke-width="0.3" x1="12.989" x2="3.367" y1="137.122" y2="156.068"/>
  <line stroke-width="0.3" x1="3.367" x2="2.914" y1="156.068" y2="156.959"/>
 </g>
 <g id="59235_0">
  <desc>59235_0</desc>
  <line stroke-width="0.13" x1="53.951" x2="53.493" y1="93.599" y2="93.1"/>
  <line stroke-width="0.13" x1="53.497" x2="52.838" y1="93.09" y2="93.471"/>
  <line stroke-width="0.13" x1="52.704" x2="48.537" y1="93.74" y2="89.194"/>
  <line stroke-width="0.13" x1="54.786" x2="54.518" y1="87.084" y2="87.626"/>
  <line stroke-width="0.13" x1="54.405" x2="53.746" y1="86.578" y2="86.959"/>
  <line stroke-width="0.13" x1="53.88" x2="53.546" y1="86.688" y2="86.325"/>
  <line stroke-width="0.13" x1="53.561" x2="41.512" y1="85.908" y2="72.756"/>
  <line stroke-width="0.3" x1="43.212" x2="40.603" y1="84.079" y2="81.233"/>
  <line stroke-width="0.13" x1="41.35" x2="29.3" y1="93.924" y2="80.772"/>
  <line stroke-width="0.13" x1="41.216" x2="41.875" y1="94.194" y2="93.813"/>
  <line stroke-width="0.13" x1="31.618" x2="43.668" y1="78.468" y2="91.62"/>
  <line stroke-width="0.13" x1="31.01" x2="30.742" y1="104.331" y2="104.871"/>
  <line stroke-width="0.13" x1="34.164" x2="33.896" y1="105.024" y2="105.563"/>
  <line stroke-width="0.13" x1="18.96" x2="18.692" y1="91.18" y2="91.719"/>
  <line stroke-width="0.13" x1="33.024" x2="32.755" y1="99.65" y2="100.191"/>
  <line stroke-width="0.13" x1="38.781" x2="23.719" y1="102.358" y2="85.918"/>
  <line stroke-width="0.13" x1="40.173" x2="25.111" y1="100.975" y2="84.536"/>
  <line stroke-width="0.13" x1="40.966" x2="40.307" y1="100.325" y2="100.704"/>
  <line stroke-width="0.13" x1="25.19" x2="24.923" y1="91.1" y2="91.641"/>
  <line stroke-width="0.13" x1="58.567" x2="58.298" y1="90.935" y2="91.475"/>
  <line stroke-width="0.13" x1="43.759" x2="41.018" y1="83.98" y2="80.986"/>
  <line stroke-width="0.13" x1="43.97" x2="44.238" y1="81.777" y2="81.236"/>
  <path d="M44.152 74.271C44.999 74.17 45.841 74.43 46.478 75.007L46.659 75.186L47.289 75.875L58.079 87.652C58.438 88.043 58.883 88.441 59.115 88.938C59.329 89.396 59.354 89.897 59.134 90.358C58.993 90.65 58.863 90.983 58.63 91.221C58.332 91.525 57.811 91.757 57.49 91.941L54.49 93.674C54.015 93.95 53.476 94.349 52.906 94.441C52.463 94.436 52.338 94.04 52.015 93.688L48.749 90.123L48.118 89.436" stroke-width="0.3"/>
  <path d="M53.323 93.736C53.191 93.516 53.454 93.287 53.497 93.09L53.627 92.165L54.277 87.501L54.405 86.578L54.539 86.308C54.584 86.215 54.621 86.129 54.648 86.03C54.765 85.572 54.226 85.268 53.968 84.984L43.177 73.207C42.856 72.856 42.729 72.459 42.286 72.456C41.716 72.546 41.179 72.947 40.704 73.221L32.426 78.001C31.873 78.319 31.329 78.614 30.835 79.016C30.384 79.384 29.963 79.801 29.614 80.269C29.496 80.429 29.39 80.594 29.3 80.772L29.166 81.042L28.445 81.634L25.966 83.673L25.245 84.266L25.111 84.536C25.021 84.71 24.903 84.87 24.777 85.019C24.253 85.632 23.606 85.983 22.911 86.385L19.911 88.117C19.591 88.302 19.07 88.534 18.771 88.837C18.538 89.076 18.408 89.409 18.268 89.701C18.01 90.237 18.094 90.828 18.396 91.328C18.637 91.724 19.024 92.084 19.321 92.408L30.111 104.185C30.422 104.524 30.742 104.93 31.12 105.215C31.777 105.712 32.683 105.968 33.49 105.736C33.917 105.612 34.348 105.304 34.704 105.097L37.706 103.364C38.101 103.137 38.521 102.917 38.899 102.652C39.45 102.266 39.954 101.799 40.377 101.278C40.549 101.063 40.707 100.838 40.832 100.594L40.966 100.325L41.095 99.4L41.746 94.736L41.875 93.813C41.918 93.614 42.112 93.352 42.24 93.186C42.77 92.504 43.469 92.12 44.209 91.694L52.485 86.915L53.293 86.448C53.46 86.353 53.732 86.188 53.92 86.313" stroke-width="0.3"/>
  <path d="M54.963 88.93C55.085 88.346 54.725 87.766 54.289 87.412" stroke-width="0.3"/>
  <path d="M54.018 89.355C54.512 89.308 54.904 89.085 55.149 88.653" stroke-width="0.3"/>
  <path d="M55.149 88.653C55.43 87.903 55.018 87.162 54.383 86.74" stroke-width="0.13"/>
  <path d="M52.646 94.376C52.42 94.07 52.774 93.759 52.838 93.471L52.966 92.546L53.616 87.882L53.746 86.959C53.789 86.762 54.054 86.533 53.92 86.313" stroke-width="0.13"/>
  <path d="M18.536 89.161C18.464 89.322 18.437 89.361 18.402 89.537C18.21 90.512 19.001 91.224 19.589 91.867L30.379 103.644L31.01 104.331L31.192 104.512C31.754 105.022 32.534 105.325 33.298 105.274C33.942 105.23 34.421 104.875 34.972 104.557L37.973 102.823C38.793 102.35 39.719 101.859 40.173 100.975C40.442 100.45 40.304 100.731 40.435 99.781L41.087 95.117L41.216 94.194L41.35 93.924C41.475 93.679 41.633 93.453 41.804 93.24C42.228 92.718 42.732 92.251 43.283 91.867C43.661 91.602 44.081 91.382 44.476 91.153L52.753 86.373L53.561 85.908C53.834 85.751 54.286 85.478 54.597 85.673" stroke-width="0.13"/>
  <path d="M59.134 90.358C58.799 90.891 58.31 91.082 57.759 91.4L54.758 93.134L53.951 93.599C53.787 93.694 53.621 93.772 53.43 93.78C53.35 93.763 53.387 93.778 53.323 93.736" stroke-width="0.13"/>
  <path d="M40.552 81.058C40.469 81.224 40.441 81.26 40.396 81.441C40.249 82.057 40.53 82.689 40.942 83.14C41.531 83.784 42.45 84.168 43.325 84.073C43.771 84.025 44.216 83.84 44.508 83.487C44.627 83.343 44.637 83.298 44.719 83.132" stroke-width="0.3"/>
  <path d="M40.396 81.444C41.323 80.352 43.121 80.849 43.97 81.777C44.378 82.221 44.677 82.873 44.509 83.483" stroke-width="0.3"/>
  <path d="M33.2 101.495C33.396 100.546 32.445 99.731 31.623 99.51C31.411 99.453 31.204 99.438 30.984 99.433C30.612 99.468 30.189 99.56 29.94 99.87" stroke-width="0.3"/>
  <path d="M33.386 101.218C33.115 101.694 32.694 101.879 32.164 101.93C31.163 101.915 29.94 101.239 29.917 100.109C29.914 99.927 29.96 99.772 30.022 99.605" stroke-width="0.3"/>
  <path d="M33.386 101.218C33.448 101.049 33.493 100.896 33.49 100.712C33.469 99.584 32.246 98.906 31.245 98.893C30.714 98.942 30.294 99.129 30.022 99.605" stroke-width="0.13"/>
  <path d="M25.553 92.67C25.617 92.501 25.661 92.346 25.658 92.164C25.637 91.036 24.413 90.358 23.413 90.344C22.882 90.394 22.46 90.581 22.19 91.055" stroke-width="0.13"/>
  <path d="M22.19 91.055C22.137 91.198 22.114 91.233 22.094 91.385C21.954 92.477 23.149 93.314 24.12 93.378C24.714 93.417 25.254 93.194 25.553 92.67" stroke-width="0.3"/>
  <path d="M22.109 91.32C22.393 90.965 22.934 90.859 23.362 90.888C24.083 90.938 24.806 91.35 25.173 91.98C25.341 92.268 25.437 92.614 25.367 92.945" stroke-width="0.3"/>
  <path d="M44.719 83.132C44.786 82.924 44.832 82.734 44.822 82.515C44.768 81.477 43.814 80.671 42.878 80.4C42.621 80.325 42.369 80.301 42.103 80.287C41.634 80.313 41.179 80.411 40.819 80.736C40.679 80.861 40.659 80.906 40.552 81.058" stroke-width="0.13"/>
 </g>
 <g id="01_0031_0054_0">
  <desc>01_0031_0054_0</desc>
  <line stroke-width="0.13" x1="4.95" x2="4.98" y1="155.471" y2="155.483"/>
  <line stroke-width="0.13" x1="4.972" x2="4.98" y1="155.497" y2="155.483"/>
  <line stroke-width="0.13" x1="4.057" x2="4.133" y1="156.015" y2="156.111"/>
  <path d="M0.524 155.325C0.427 155.544 0.39 155.593 0.348 155.832C0.224 156.543 0.552 157.252 1.022 157.766C1.177 157.936 1.35 158.087 1.535 158.222C2.528 158.943 4.16 159.265 5.147 158.348C5.326 158.182 5.347 158.125 5.48 157.924" stroke-width="0.13"/>
  <path d="M4.126 155.947C4.331 156.205 4.451 156.431 4.512 156.756" stroke-width="0.13"/>
  <path d="M3.883 156.366L4.057 156.015L4.126 155.947" stroke-width="0.13"/>
  <path d="M1.947 157.234L1.917 157.222L1.766 157.032C1.632 156.836 1.573 156.641 1.531 156.412" stroke-width="0.13"/>
  <path d="M1.927 155.538C1.793 155.655 1.689 155.754 1.613 155.919" stroke-width="0.13"/>
  <path d="M1.092 157.698L1.022 157.766L0.849 158.118" stroke-width="0.13"/>
  <path d="M0.409 156.078C0.431 156.448 0.407 156.263 0.482 156.632" stroke-width="0.13"/>
  <path d="M4.115 157.631C4.251 157.514 4.355 157.413 4.429 157.248" stroke-width="0.13"/>
  <path d="M5.243 155.853C4.644 154.933 3.634 154.457 2.568 154.364C1.716 154.379 0.809 154.67 0.501 155.556C0.424 155.777 0.431 155.846 0.409 156.078" stroke-width="0.13"/>
  <path d="M0.801 157.314C1.377 158.199 2.423 158.768 3.476 158.805C4.32 158.835 5.246 158.466 5.543 157.611C5.636 157.344 5.634 157.093 5.618 156.816" stroke-width="0.13"/>
  <path d="M1.954 155.633C2.629 155.145 3.517 155.506 4.057 156.015" stroke-width="0.13"/>
  <path d="M4.115 157.631C3.831 157.794 3.588 157.847 3.261 157.854C2.812 157.802 2.464 157.662 2.099 157.395" stroke-width="0.13"/>
  <path d="M1.927 155.538C2.096 155.441 2.125 155.409 2.317 155.359C2.906 155.205 3.474 155.43 3.944 155.772" stroke-width="0.13"/>
  <path d="M1.613 155.919C1.539 156.085 1.531 156.23 1.531 156.412" stroke-width="0.13"/>
  <path d="M0.524 155.325C0.293 155.793 0.094 156.205 0.164 156.741C0.233 157.259 0.499 157.736 0.849 158.118C1.665 159.009 3.052 159.516 4.232 159.127C5.248 158.793 5.892 157.61 5.605 156.574C5.432 155.943 4.992 155.407 4.469 155.027C3.89 154.608 3.24 154.408 2.536 154.347C1.923 154.359 1.32 154.467 0.856 154.901C0.676 155.068 0.657 155.123 0.524 155.325z" stroke-width="0.3"/>
  <path d="M1.601 156.15C2.209 155.469 3.33 155.764 3.883 156.366C4.141 156.649 4.336 157.064 4.227 157.451" stroke-width="0.3"/>
  <path d="M1.639 156.018C1.589 156.193 1.565 156.229 1.573 156.414C1.612 157.167 2.371 157.721 3.061 157.822C3.432 157.877 3.847 157.812 4.134 157.555C4.269 157.433 4.278 157.387 4.363 157.231" stroke-width="0.3"/>
 </g>
 <g id="01_0001_0156_0_3">
  <desc>01_0001_0156_0</desc>
  <line stroke-width="0.3" x1="13.096" x2="13.038" y1="137.055" y2="137.174"/>
  <line stroke-width="0.13" x1="15.948" x2="15.968" y1="131.421" y2="131.371"/>
  <path d="M14.824 136.527C14.693 136.985 14.221 137.146 13.798 137.189C13.544 137.177 13.339 137.137 13.096 137.055" stroke-width="0.3"/>
  <path d="M13.038 137.174C12.535 136.908 12.009 136.431 12.115 135.798C12.141 135.639 12.212 135.521 12.288 135.383" stroke-width="0.3"/>
  <path d="M13.708 132.506C13.663 132.667 13.641 132.699 13.653 132.87C13.701 133.568 14.432 134.058 15.073 134.135C15.556 134.194 16.182 134.012 16.332 133.485" stroke-width="0.3"/>
  <path d="M16.673 132.985L17.481 132.519L17.768 132.352L18.576 131.885L18.809 131.415L19.042 130.945L18.954 130.455L18.745 129.556C18.734 129.513 18.524 128.794 18.489 128.752C18.454 128.711 17.748 128.342 17.704 128.32C17.164 128.05 16.603 127.846 16.03 127.658C15.513 127.906 15.016 128.177 14.535 128.486L14.125 128.757L13.893 129.227L13.66 129.697L13.888 130.6L13.986 130.985L14.214 131.89" stroke-width="0.3"/>
  <path d="M15.528 135.109C15.397 135.567 14.925 135.727 14.503 135.77C14.289 135.759 14.24 135.768 14.029 135.712C13.432 135.556 12.75 134.993 12.855 134.305C12.878 134.147 12.919 134.098 12.993 133.962" stroke-width="0.3"/>
  <path d="M14.099 131.734C14.025 131.867 13.987 131.913 13.961 132.069C13.894 132.501 14.166 132.909 14.492 133.163C15.006 133.563 15.871 133.729 16.394 133.247C16.519 133.133 16.525 133.096 16.603 132.954" stroke-width="0.3"/>
  <path d="M15.628 134.906C15.499 135.365 15.022 135.526 14.599 135.568C14.387 135.556 14.337 135.564 14.13 135.509C13.532 135.352 12.848 134.788 12.955 134.099C12.98 133.943 13.019 133.895 13.093 133.762" stroke-width="0.3"/>
  <path d="M16.079 132.721L16.009 132.728C15.448 132.699 14.978 132.502 14.612 132.067" stroke-width="0.3"/>
  <path d="M12.803 134.33C12.759 134.49 12.736 134.522 12.746 134.692C12.792 135.389 13.522 135.882 14.162 135.961C14.646 136.02 15.275 135.84 15.426 135.312" stroke-width="0.3"/>
  <path d="M14.162 131.682C14.118 132.764 15.624 133.567 16.504 132.909" stroke-width="0.3"/>
  <path d="M14.324 131.939C14.532 132.487 15.105 132.848 15.672 132.919C15.89 132.945 16.155 132.939 16.358 132.844" stroke-width="0.3"/>
  <path d="M13.205 133.52C13.16 133.68 13.137 133.712 13.15 133.883C13.196 134.581 13.929 135.073 14.57 135.15C15.053 135.209 15.679 135.026 15.83 134.5" stroke-width="0.3"/>
  <path d="M16.533 133.082C16.402 133.539 15.929 133.699 15.506 133.741C15.294 133.731 15.243 133.74 15.035 133.685C14.439 133.526 13.756 132.966 13.861 132.277C13.884 132.118 13.925 132.07 14 131.935" stroke-width="0.3"/>
  <path d="M13.698 132.544C13.624 132.679 13.583 132.727 13.558 132.883C13.426 133.748 14.455 134.366 15.201 134.35C15.622 134.342 16.105 134.127 16.231 133.689" stroke-width="0.3"/>
  <path d="M14.118 131.679C13.928 132.06 14.148 132.526 14.417 132.804C14.965 133.368 16.013 133.587 16.583 132.944" stroke-width="0.3"/>
  <path d="M13.195 133.557C13.121 133.693 13.08 133.741 13.055 133.899C12.923 134.764 13.952 135.381 14.699 135.365C15.119 135.354 15.602 135.14 15.728 134.705" stroke-width="0.3"/>
  <path d="M15.172 132.3C15.662 132.548 16.17 132.76 16.673 132.985" stroke-width="0.3"/>
  <path d="M16.03 134.096C15.899 134.554 15.426 134.713 15.005 134.756C14.288 134.721 13.407 134.296 13.35 133.478C13.339 133.308 13.362 133.276 13.406 133.116" stroke-width="0.3"/>
  <path d="M15.931 134.298C15.798 134.758 15.321 134.918 14.9 134.959C14.183 134.921 13.304 134.497 13.25 133.677C13.239 133.508 13.262 133.475 13.305 133.317" stroke-width="0.3"/>
  <path d="M12.39 135.181C12.316 135.316 12.275 135.364 12.252 135.52C12.118 136.384 13.146 137.002 13.893 136.986C14.314 136.979 14.798 136.764 14.923 136.326" stroke-width="0.3"/>
  <path d="M16.132 133.891C16.001 134.35 15.526 134.51 15.105 134.552C14.387 134.518 13.503 134.091 13.451 133.27C13.439 133.1 13.464 133.068 13.507 132.909" stroke-width="0.3"/>
  <path d="M15.226 135.719C15.093 136.176 14.619 136.336 14.198 136.378C13.986 136.367 13.936 136.376 13.727 136.32C13.131 136.163 12.448 135.602 12.553 134.913C12.577 134.756 12.618 134.706 12.692 134.572" stroke-width="0.3"/>
  <path d="M12.702 134.532C12.659 134.692 12.634 134.724 12.646 134.894C12.692 135.593 13.425 136.086 14.067 136.163C14.55 136.223 15.176 136.039 15.326 135.514" stroke-width="0.3"/>
  <path d="M13.808 132.302C13.765 132.461 13.742 132.495 13.753 132.663C13.798 133.361 14.528 133.854 15.167 133.932C15.653 133.992 16.283 133.811 16.434 133.283" stroke-width="0.3"/>
  <path d="M14.89 132.191C15.24 132.414 15.577 132.569 15.978 132.675" stroke-width="0.3"/>
  <path d="M14.214 131.89C14.717 132.114 15.214 132.348 15.727 132.546" stroke-width="0.3"/>
  <path d="M12.4 135.144C12.355 135.302 12.333 135.336 12.345 135.506C12.393 136.204 13.124 136.694 13.765 136.772C14.249 136.83 14.875 136.647 15.025 136.122" stroke-width="0.3"/>
  <path d="M12.509 134.921C12.355 135.228 12.477 135.612 12.662 135.873C13.021 136.379 13.707 136.669 14.32 136.56C14.664 136.497 15.025 136.275 15.125 135.919" stroke-width="0.3"/>
  <path d="M14.688 136.78C14.451 137.157 14.131 137.284 13.698 137.312C13.458 137.293 13.266 137.248 13.041 137.165" stroke-width="0.3"/>
  <path d="M14.814 136.564C14.587 136.979 14.262 137.126 13.804 137.173C13.09 137.138 12.208 136.712 12.151 135.896C12.14 135.727 12.163 135.693 12.208 135.532" stroke-width="0.13"/>
  <path d="M13.897 132.145C13.608 132.658 13.855 133.207 14.297 133.55C14.811 133.95 15.679 134.12 16.202 133.637C16.332 133.518 16.341 133.472 16.422 133.319" stroke-width="0.13"/>
  <path d="M16.673 132.985L17.138 132.044L17.547 131.775C18.028 131.465 18.527 131.194 19.042 130.945" stroke-width="0.13"/>
  <path d="M14.681 130.95C15.547 131.235 16.347 131.592 17.138 132.044" stroke-width="0.13"/>
  <path d="M13.494 132.956C13.205 133.472 13.455 134.02 13.897 134.364C14.412 134.763 15.275 134.93 15.798 134.449C15.928 134.33 15.936 134.284 16.019 134.133" stroke-width="0.13"/>
  <path d="M16.603 132.954C16.388 133.347 16.044 133.478 15.615 133.522C15.401 133.512 15.353 133.52 15.144 133.465C14.548 133.306 13.865 132.747 13.97 132.057C13.993 131.899 14.022 131.873 14.099 131.739" stroke-width="0.13"/>
  <path d="M14.125 128.757C14.319 129.317 14.478 129.877 14.593 130.46L14.681 130.95L14.214 131.89" stroke-width="0.13"/>
  <path d="M15.618 134.942C15.394 135.355 15.067 135.502 14.609 135.55C14.394 135.539 14.349 135.549 14.137 135.492C13.541 135.332 12.856 134.772 12.964 134.084C12.99 133.924 13.016 133.901 13.092 133.766" stroke-width="0.13"/>
  <path d="M14.649 132.084C14.984 132.486 15.446 132.669 15.958 132.711" stroke-width="0.13"/>
  <path d="M12.387 135.187C12.099 135.701 12.348 136.25 12.788 136.592C13.303 136.992 14.166 137.161 14.691 136.681C14.82 136.562 14.83 136.515 14.913 136.365" stroke-width="0.13"/>
  <path d="M16.321 133.524C16.096 133.937 15.771 134.084 15.313 134.131C15.098 134.12 15.053 134.128 14.842 134.073C14.246 133.913 13.564 133.355 13.667 132.668C13.688 132.533 13.734 132.457 13.797 132.348" stroke-width="0.13"/>
  <path d="M13.596 132.752C13.305 133.268 13.554 133.817 13.996 134.161C14.512 134.56 15.378 134.727 15.9 134.246C16.03 134.126 16.039 134.08 16.121 133.927" stroke-width="0.13"/>
  <path d="M14.147 131.627C13.928 132.013 14.144 132.495 14.423 132.783C14.955 133.336 16.016 133.58 16.579 132.943" stroke-width="0.13"/>
  <path d="M15.718 134.743C15.49 135.157 15.163 135.302 14.704 135.348C14.489 135.336 14.445 135.344 14.236 135.288C13.641 135.128 12.958 134.569 13.064 133.883C13.089 133.723 13.117 133.699 13.192 133.566" stroke-width="0.13"/>
  <path d="M14.169 131.71C14.14 132.467 14.884 133.019 15.58 133.104C15.891 133.144 16.239 133.098 16.495 132.906" stroke-width="0.13"/>
  <path d="M12.99 133.973C12.702 134.487 12.952 135.036 13.394 135.378C13.91 135.776 14.772 135.943 15.294 135.463C15.425 135.343 15.433 135.299 15.516 135.146" stroke-width="0.13"/>
  <path d="M14.343 131.948C14.635 132.724 15.593 133.039 16.341 132.836" stroke-width="0.13"/>
  <path d="M13.695 132.551C13.407 133.066 13.656 133.614 14.096 133.956C14.611 134.356 15.474 134.524 15.997 134.044C16.128 133.925 16.137 133.881 16.221 133.729" stroke-width="0.13"/>
  <path d="M13.996 131.943C13.708 132.459 13.958 133.007 14.4 133.349C14.913 133.747 15.776 133.914 16.3 133.437C16.429 133.317 16.44 133.27 16.522 133.12" stroke-width="0.13"/>
  <path d="M12.689 134.58C12.4 135.094 12.65 135.643 13.09 135.985C13.605 136.384 14.468 136.551 14.992 136.074C15.122 135.954 15.131 135.908 15.214 135.757" stroke-width="0.13"/>
  <path d="M12.891 134.174C12.602 134.687 12.85 135.235 13.291 135.579C13.804 135.979 14.669 136.146 15.192 135.668C15.323 135.548 15.333 135.502 15.416 135.349" stroke-width="0.13"/>
  <path d="M13.394 133.159C13.105 133.673 13.352 134.222 13.794 134.564C14.307 134.965 15.173 135.133 15.696 134.653C15.827 134.532 15.836 134.487 15.919 134.335" stroke-width="0.13"/>
  <path d="M15.82 134.538C15.593 134.95 15.269 135.098 14.811 135.145C14.596 135.133 14.55 135.143 14.339 135.086C13.743 134.927 13.06 134.37 13.164 133.681C13.185 133.548 13.231 133.472 13.294 133.36" stroke-width="0.13"/>
  <path d="M15.115 135.955C14.891 136.37 14.564 136.518 14.105 136.564C13.891 136.554 13.845 136.562 13.634 136.507C13.038 136.347 12.353 135.786 12.461 135.097C12.487 134.937 12.513 134.914 12.589 134.781" stroke-width="0.13"/>
  <path d="M12.791 134.376C12.502 134.891 12.75 135.441 13.194 135.783C13.708 136.182 14.573 136.349 15.095 135.867C15.224 135.747 15.234 135.703 15.317 135.55" stroke-width="0.13"/>
  <path d="M12.487 134.985C12.199 135.502 12.449 136.05 12.893 136.393C13.407 136.79 14.271 136.956 14.792 136.477C14.923 136.358 14.931 136.312 15.015 136.161" stroke-width="0.13"/>
  <path d="M14.448 129.432C14.458 129.181 14.48 128.961 14.598 128.734C14.933 128.08 15.718 127.855 16.405 127.921C17.204 127.998 17.99 128.435 18.449 129.099C18.885 129.729 18.975 130.614 18.367 131.171C18.243 131.286 18.1 131.377 17.948 131.445C17.687 131.563 17.425 131.594 17.143 131.617C16.065 131.575 14.935 131.008 14.551 129.936C14.471 129.713 14.477 129.662 14.448 129.432z" stroke-width="0.13"/>
 </g>
 <g id="_08_0558_0144_0_MODELNX-ARRAGMN">
  <desc>_08_0558_0144_0_MODELNX-ARRAGMN</desc>
  <g id="_08_0558_0144_0_MODELNX-ARRAG_1">
   <desc>_08_0558_0144_0_MODELNX-ARRAG_1</desc>
   <line stroke-width="0.3" x1="28.256" x2="28.056" y1="36.256" y2="36.112"/>
   <line stroke-width="0.3" x1="29.681" x2="29.946" y1="25.977" y2="21.811"/>
   <line stroke-width="0.3" x1="29.736" x2="29.568" y1="25.06" y2="25.19"/>
   <line stroke-width="0.3" x1="83.798" x2="83.92" y1="14.516" y2="14.596"/>
   <line stroke-width="0.3" x1="82.95" x2="83.283" y1="14.272" y2="14.319"/>
   <line stroke-width="0.3" x1="83.716" x2="83.92" y1="14.478" y2="14.596"/>
   <line stroke-width="0.13" x1="34.915" x2="35.322" y1="14.183" y2="14.92"/>
   <line stroke-width="0.13" x1="30.303" x2="30.486" y1="19.797" y2="19.25"/>
   <line stroke-width="0.13" x1="28.632" x2="25.719" y1="25.832" y2="23.811"/>
   <line stroke-width="0.13" x1="25.207" x2="25.126" y1="29.146" y2="29.216"/>
   <line stroke-width="0.13" x1="24.35" x2="24.379" y1="33.49" y2="33.453"/>
   <line stroke-width="0.13" x1="24.21" x2="21.3" y1="33.152" y2="31.134"/>
   <line stroke-width="0.13" x1="25.542" x2="22.8" y1="28.591" y2="26.689"/>
   <line stroke-width="0.13" x1="26.018" x2="26.161" y1="27.99" y2="27.826"/>
   <line stroke-width="0.13" x1="50.347" x2="50.087" y1="61.125" y2="60.942"/>
   <line stroke-width="0.13" x1="29.734" x2="29.451" y1="25.089" y2="25.251"/>
   <path d="M26.085 27.914C25.826 28.213 25.58 28.521 25.359 28.85C24.745 29.765 24.193 30.899 24.117 32.018C24.079 32.591 24.112 33.228 24.489 33.695C24.757 34.03 25.33 34.323 25.626 34.518L27.306 35.621L28.085 36.134" stroke-width="0.3"/>
   <path d="M28.536 36.53C28.405 36.398 28.277 36.277 28.129 36.167" stroke-width="0.3"/>
   <path d="M48.99 64.093C48.524 63.832 48.095 63.555 47.646 63.261L33.902 54.216C32.933 53.578 32.003 52.941 31.231 52.067C30.033 50.713 29.231 48.954 28.986 47.161C28.87 46.301 28.908 45.457 28.936 44.591L29.103 39.112C29.126 38.384 29.21 37.695 28.873 37.029C28.777 36.838 28.655 36.676 28.519 36.512" stroke-width="0.3"/>
   <path d="M49.381 64.245C50.631 64.728 52.003 64.543 53.229 64.09C53.924 63.835 54.561 63.436 55.2 63.067L77.325 50.293C78.168 49.807 78.981 49.329 79.727 48.7C81.899 46.866 83.581 44.253 84.29 41.494C84.528 40.567 84.602 39.637 84.662 38.682L85.971 17.815C86.016 17.089 86.084 16.358 86.015 15.631C85.915 14.587 85.567 13.492 84.879 12.682C84.382 12.096 83.784 11.714 83.143 11.292L69.269 2.161C68.643 1.75 68.025 1.332 67.344 1.014C66.43 0.589 65.462 0.325 64.46 0.2C64.046 0.149 63.628 0.152 63.21 0.15C62.229 0.19 61.265 0.334 60.334 0.65C59.676 0.873 59.07 1.193 58.45 1.504L47.649 6.897C46.887 7.278 46.149 7.673 45.411 8.099L35.343 13.912L34.536 14.378L34.439 14.439" stroke-width="0.3"/>
   <path d="M30.486 19.25C31.109 17.399 32.429 15.765 34.051 14.692" stroke-width="0.3"/>
   <path d="M34.628 14.33L34.14 14.632" stroke-width="0.3"/>
   <path d="M29.678 25.772C29.925 23.583 29.701 21.286 30.506 19.193" stroke-width="0.3"/>
   <path d="M26.885 27.129C27.202 26.867 27.544 26.638 27.876 26.393C28.283 26.096 28.681 25.788 29.094 25.496C29.289 25.359 29.496 25.239 29.689 25.097" stroke-width="0.3"/>
   <path d="M28.826 25.69L28.059 25.158L26.82 24.298L26.053 23.768C26.015 23.742 25.981 23.745 25.937 23.74C25.591 23.785 25.059 24.192 24.911 24.277L24.217 24.678C23.707 24.972 22.936 25.268 22.865 25.969L22.8 26.689" stroke-width="0.3"/>
   <path d="M24.542 33.753L23.777 33.22L22.214 32.137L21.448 31.606L21.387 31.545C21.158 31.242 21.373 30.333 21.385 30.204L21.519 28.734C21.57 28.19 21.498 27.446 22.059 27.117L22.8 26.689" stroke-width="0.3"/>
   <path d="M81.052 14.725C81.468 14.544 81.859 14.41 82.302 14.307" stroke-width="0.3"/>
   <path d="M82.001 14.452C82.424 14.728 82.858 14.98 83.219 15.337C83.853 15.967 84.105 16.907 84.12 17.777L84.111 18.155L84.052 19.086L82.742 39.953C82.695 40.713 82.667 41.454 82.469 42.194C81.992 43.979 80.918 45.649 79.519 46.851C78.957 47.334 78.331 47.679 77.692 48.048L55.566 60.823C55.057 61.118 54.53 61.46 53.975 61.676C53.566 61.834 53.155 61.911 52.722 61.963C52.164 61.963 51.64 61.899 51.139 61.633L50.878 61.478L50.347 61.125" stroke-width="0.3"/>
   <path d="M50.052 59.893C50.042 60.357 50.063 60.783 50.133 61.241" stroke-width="0.3"/>
   <path d="M50.673 62.387C50.987 62.688 50.819 62.551 51.177 62.798" stroke-width="0.3"/>
   <path d="M50.36 61.917C50.177 61.451 50.255 61.688 50.128 61.21" stroke-width="0.3"/>
   <path d="M52.89 32.908C52.328 33.951 51.85 35.027 51.613 36.195C51.482 36.841 51.459 37.491 51.417 38.149L50.107 59.015L50.049 59.945" stroke-width="0.3"/>
   <path d="M50.347 61.884C50.561 62.267 50.439 62.082 50.713 62.439" stroke-width="0.3"/>
   <path d="M52.886 32.914C53.722 31.522 54.718 30.236 56.018 29.242C56.551 28.835 57.131 28.516 57.712 28.181L79.838 15.407L80.646 14.941L81.087 14.707" stroke-width="0.3"/>
   <path d="M83.837 14.535C83.454 14.355 83.644 14.426 83.269 14.317" stroke-width="0.3"/>
   <path d="M82.254 14.317C82.754 14.257 82.504 14.272 83.003 14.272" stroke-width="0.3"/>
   <path d="M24.666 29.599L24.702 29.527" stroke-width="0.3"/>
   <path d="M27.402 26.731C27.553 27.62 27.821 28.489 28.007 29.373C28.321 30.867 28.565 32.39 28.629 33.918C28.652 34.468 28.649 35.009 28.556 35.551C28.515 35.789 28.446 36.084 28.182 36.149L28.085 36.134" stroke-width="0.13"/>
   <path d="M28.182 36.149C28.786 36.667 29.176 37.365 29.132 38.179" stroke-width="0.13"/>
   <path d="M29.739 25.295C29.646 25.966 29.672 26.652 29.658 27.329C29.634 28.625 29.599 29.922 29.554 31.217C29.495 32.95 29.426 34.682 29.31 36.411C29.28 36.856 29.25 37.299 29.199 37.74C29.184 37.874 29.14 38.018 29.134 38.151L29.105 39.084L28.936 44.591C28.916 45.222 28.864 45.816 29.019 46.43C29.321 47.628 30.169 48.615 31.132 49.35L31.628 49.701L32.406 50.213L46.216 59.301L46.994 59.814L47.203 59.936C47.761 60.229 48.417 60.338 49.042 60.295C49.22 60.283 49.401 60.256 49.575 60.216C49.755 60.176 49.978 60.14 50.049 59.945" stroke-width="0.13"/>
   <path d="M52.347 60.677C52.451 60.81 52.463 60.838 52.631 60.957C53.353 61.472 54.31 61.143 55.005 60.755L55.811 60.287L77.938 47.512C78.453 47.216 78.974 46.942 79.438 46.57C80.176 45.978 80.79 45.231 81.272 44.42C81.736 43.64 82.096 42.774 82.231 41.874L82.274 41.478L82.332 40.546L83.641 19.681C83.703 18.693 83.923 17.172 82.781 16.657C82.563 16.559 82.486 16.564 82.251 16.527C81.971 16.53 81.924 16.518 81.641 16.579C80.98 16.725 80.4 17.123 79.825 17.454L57.698 30.23C57.185 30.527 56.662 30.801 56.198 31.173C54.985 32.146 54.048 33.551 53.595 35.037C53.378 35.752 53.35 36.454 53.304 37.197L51.994 58.061C51.942 58.92 51.768 59.942 52.347 60.677z" stroke-width="0.13"/>
   <path d="M50.134 62.286C49.709 61.304 49.817 60.256 49.881 59.218L51.191 38.353C51.249 37.438 51.31 36.56 51.557 35.673C52.268 33.112 53.887 30.67 55.99 29.041C56.555 28.603 57.171 28.262 57.789 27.905L79.917 15.13C81.17 14.406 82.753 13.442 84.236 14.134C84.466 14.24 84.671 14.384 84.852 14.561C85.885 15.579 85.733 17.144 85.65 18.457L84.341 39.322C84.298 40.023 84.268 40.712 84.123 41.399C83.802 42.924 83.121 44.374 82.259 45.664C81.512 46.781 80.605 47.808 79.542 48.634C78.977 49.072 78.361 49.412 77.742 49.77L55.615 62.545C54.889 62.965 54.176 63.412 53.356 63.631C52.947 63.74 52.871 63.728 52.459 63.765C52.107 63.75 51.991 63.765 51.655 63.673C50.939 63.475 50.424 62.954 50.134 62.286z" stroke-width="0.13"/>
   <path d="M83.92 14.596C84.162 14.798 84.23 14.829 84.418 15.087C85.137 16.073 84.992 17.347 84.92 18.486L83.611 39.35C83.555 40.219 83.503 41.052 83.269 41.895C82.612 44.259 81.117 46.512 79.176 48.017C78.635 48.435 78.045 48.761 77.453 49.101L55.326 61.877C54.634 62.276 53.957 62.707 53.177 62.914C52.799 63.015 52.731 63.006 52.35 63.039C51.97 63.024 51.627 62.994 51.277 62.832L50.978 62.661" stroke-width="0.13"/>
   <path d="M50.878 61.478C50.667 61.304 50.609 61.277 50.445 61.052C50.24 60.771 50.142 60.468 50.046 60.139" stroke-width="0.13"/>
   <path d="M50.109 58.999C50.695 59.265 51.356 59.283 51.936 58.993" stroke-width="0.13"/>
   <path d="M82.786 14.965C82.39 14.737 82.049 14.656 81.594 14.635L81.243 14.667L81.132 14.691" stroke-width="0.13"/>
   <path d="M80.647 14.941C80.838 14.752 80.671 14.364 80.606 14.16L80.516 13.906C80.281 13.323 79.906 12.776 79.414 12.384L79.218 12.24L78.438 11.727L64.629 2.641C63.585 1.954 62.548 1.268 61.298 1.028C60.865 0.946 60.779 0.96 60.344 0.946C59.902 0.983 59.475 1.028 59.064 1.213L58.229 1.629L47.433 7.022C47.299 7.089 46.442 7.477 46.188 7.655" stroke-width="0.13"/>
   <path d="M30.516 19.16C30.795 18.509 30.841 18.341 31.198 17.731C31.833 16.646 32.692 15.693 33.703 14.945C34.335 14.475 35.042 14.111 35.723 13.718L46.008 7.78L46.816 7.314" stroke-width="0.13"/>
   <path d="M51.475 37.219C51.405 37.412 51.182 37.448 51.003 37.49C50.734 37.551 50.468 37.567 50.192 37.576C49.648 37.552 49.116 37.466 48.628 37.21L48.42 37.088L47.642 36.575L33.832 27.486C33.079 26.99 32.325 26.515 31.698 25.856C31.614 25.769 31.077 25.161 31.038 25.027L31.021 24.343C31.028 23.865 31.074 23.388 31.15 22.917C31.588 20.277 33.082 17.803 35.176 16.146C35.723 15.712 36.313 15.333 36.936 15.019L37.555 14.737C37.68 14.718 38.463 14.99 38.561 15.028C39.404 15.352 40.137 15.855 40.887 16.347L54.697 25.435L55.475 25.949L55.671 26.091C56.164 26.484 56.539 27.033 56.774 27.615L56.865 27.87C56.929 28.074 57.095 28.46 56.904 28.649" stroke-width="0.13"/>
   <path d="M56.189 29.12C56.63 29.513 56.893 30.109 56.89 30.696" stroke-width="0.13"/>
   <path d="M48.426 63.773C48.134 63.539 48.052 63.5 47.817 63.204C46.841 61.976 46.96 60.347 47.052 58.883L48.362 38.018C48.423 37.051 48.493 36.113 48.735 35.17C49.103 33.741 49.715 32.378 50.475 31.115C51.378 29.618 52.505 28.236 53.843 27.108C54.6 26.468 55.427 25.977 56.283 25.481L78.411 12.707C79.822 11.891 81.477 10.932 83.171 11.448C83.533 11.557 83.599 11.619 83.921 11.806" stroke-width="0.13"/>
   <path d="M68.489 1.649C68.165 1.475 68.099 1.417 67.739 1.316C67.379 1.215 67.257 1.225 66.882 1.197C66.46 1.217 66.373 1.205 65.95 1.292C64.887 1.51 63.972 2.057 63.042 2.593L40.917 15.368C40.042 15.874 39.201 16.376 38.429 17.033C37.078 18.184 35.942 19.593 35.039 21.118C34.308 22.352 33.719 23.681 33.365 25.073C33.125 26.01 33.055 26.943 32.994 27.905L31.686 48.77C31.593 50.255 31.472 51.924 32.497 53.149C32.741 53.441 32.826 53.478 33.124 53.703" stroke-width="0.13"/>
   <path d="M29.611 47.755C29.489 48.359 29.429 48.936 29.655 49.527" stroke-width="0.13"/>
   <path d="M59.283 1.086L58.475 1.554L35.478 14.83C34.767 15.242 34.097 15.646 33.479 16.19C32.167 17.349 31.196 18.873 30.704 20.551C30.396 21.594 30.341 22.65 30.274 23.728L28.964 44.594L28.907 45.524" stroke-width="0.13"/>
   <path d="M63.21 0.15C62.847 0.204 62.776 0.195 62.427 0.329C62 0.493 61.655 0.75 61.298 1.028" stroke-width="0.13"/>
   <path d="M37.555 14.737C36.917 14.647 37.235 14.675 36.604 14.653C36.143 14.692 35.759 14.768 35.322 14.92" stroke-width="0.13"/>
   <path d="M30.196 20.216L30.126 20.493L29.995 21.25L29.926 22.06L30.332 22.798L30.361 23.25L30.446 23.701C30.568 24.187 30.789 24.599 31.038 25.027" stroke-width="0.13"/>
   <path d="M29.681 25.977C29.652 26.149 29.658 26.19 29.585 26.355C29.242 27.132 28.326 27.402 27.557 27.49" stroke-width="0.13"/>
   <path d="M25.853 27.85C25.905 27.89 25.986 27.946 25.993 28.019" stroke-width="0.13"/>
   <path d="M25.797 28.257C25.809 28.132 25.809 27.974 25.853 27.85C25.928 27.643 26.153 27.544 26.298 27.394C26.344 27.347 26.381 27.28 26.428 27.236C26.681 27.004 26.989 26.836 27.282 26.663C27.632 26.454 27.986 26.254 28.339 26.05" stroke-width="0.13"/>
   <path d="M26.161 27.826L26.763 27.231" stroke-width="0.13"/>
   <path d="M25.245 29.028C24.992 29.175 24.835 29.269 24.702 29.527" stroke-width="0.13"/>
   <path d="M25.053 29.346C24.986 29.338 24.929 29.3 24.875 29.266" stroke-width="0.13"/>
   <path d="M23.41 25.143L24.176 25.675L25.661 26.704C25.783 26.789 26.393 27.452 26.763 27.231" stroke-width="0.13"/>
   <path d="M27.047 26.803C27.106 26.838 27.149 26.856 27.216 26.867" stroke-width="0.13"/>
   <path d="M22.865 25.969L23.632 26.501L25.053 27.484L25.818 28.016C25.853 28.039 25.893 28.074 25.914 28.111" stroke-width="0.13"/>
   <path d="M24.69 30.042C24.594 29.716 23.827 29.346 23.794 29.321L22.371 28.336L21.605 27.804" stroke-width="0.13"/>
   <path d="M22.059 27.117L22.824 27.649L24.245 28.632L25.01 29.164C25.048 29.19 25.082 29.204 25.125 29.219" stroke-width="0.13"/>
   <path d="M24.5 30.489C24.532 30.141 24.513 29.89 24.666 29.599" stroke-width="0.13"/>
   <path d="M24.67 30.085C24.652 30.024 24.597 29.983 24.55 29.945" stroke-width="0.13"/>
   <path d="M24.117 32.018L24.896 32.53L27.847 34.472C28.472 34.884 29.259 35.24 29.332 36.07" stroke-width="0.13"/>
   <path d="M27.62 26.577L27.525 26.533" stroke-width="0.13"/>
   <path d="M53.362 36.265C53.043 36.426 52.728 36.479 52.374 36.479C52.103 36.457 51.845 36.414 51.597 36.299" stroke-width="0.13"/>
   <path d="M79.891 15.377C80.349 15.785 80.635 16.373 80.632 16.989" stroke-width="0.13"/>
   <path d="M86.03 16.885C85.959 17.26 85.772 17.611 85.367 17.652C85.009 17.646 84.811 17.445 84.504 17.242L84.028 16.929" stroke-width="0.13"/>
   <path d="M83.7 18.751C83.93 18.597 84.081 18.437 84.111 18.155" stroke-width="0.13"/>
   <path d="M82.756 39.756L83.153 40.018C83.42 40.195 83.951 40.606 84.283 40.253C84.379 40.151 84.444 40.072 84.507 39.947C84.578 39.804 84.575 39.767 84.603 39.612" stroke-width="0.13"/>
   <path d="M82.274 41.478C82.504 41.325 82.653 41.164 82.685 40.884" stroke-width="0.13"/>
   <path d="M78.746 47.046C78.718 47.267 78.667 47.429 78.501 47.582" stroke-width="0.13"/>
   <path d="M77.519 48.148L78.26 48.636C78.447 48.759 78.64 49.072 78.551 49.304C78.504 49.426 78.463 49.515 78.382 49.618C78.289 49.734 78.254 49.744 78.134 49.828" stroke-width="0.13"/>
   <path d="M54.758 61.289C54.924 61.137 54.976 60.975 55.005 60.755" stroke-width="0.13"/>
   <path d="M53.664 61.78L54.091 62.061C54.347 62.231 54.978 62.564 54.808 63.011C54.762 63.133 54.722 63.222 54.64 63.323C54.546 63.442 54.512 63.451 54.392 63.534" stroke-width="0.13"/>
   <path d="M50.493 62.146C51.109 62.265 51.683 62.146 52.273 61.957" stroke-width="0.13"/>
   <path d="M83.7 16.01C83.659 15.387 83.507 14.836 83.179 14.304" stroke-width="0.13"/>
  </g>
  <g id="08_0558_0063_PLATE_0">
   <desc>08_0558_0063_PLATE_0</desc>
   <line stroke-width="0.13" x1="37.207" x2="36.707" y1="56.837" y2="56.29"/>
   <line stroke-width="0.13" x1="36.338" x2="34.292" y1="56.706" y2="54.472"/>
   <line stroke-width="0.3" x1="29.914" x2="24.553" y1="50.109" y2="44.256"/>
   <line stroke-width="0.13" x1="29.565" x2="24.733" y1="49.314" y2="44.039"/>
   <path d="M37.569 56.628C37.356 56.75 37.167 56.896 36.923 56.932C36.835 56.926 36.793 56.914 36.725 56.857" stroke-width="0.13"/>
   <path d="M36.475 55.908C36.414 56.258 36.213 56.811 36.401 57.189" stroke-width="0.13"/>
   <path d="M24.553 44.256C24.579 44.167 24.667 44.098 24.733 44.039L25.422 43.411L28.384 40.713L29.074 40.085" stroke-width="0.3"/>
   <path d="M37.825 56.796C37.484 56.993 37.076 57.329 36.646 57.329C36.259 57.237 36.131 56.893 35.835 56.572L33.965 54.53L33.335 53.841" stroke-width="0.3"/>
   <path d="M36.741 56.085C36.701 56.317 36.584 56.631 36.725 56.857" stroke-width="0.3"/>
  </g>
  <g id="01_0023_0055_0">
   <desc>01_0023_0055_0</desc>
   <g id="R2">
    <desc>R2</desc>
    <path d="M33.816 54.366C33.143 54.034 32.527 53.542 32.098 52.923" stroke-width="0.3"/>
    <path d="M32.429 53.195C32.409 53.246 32.395 53.274 32.417 53.323" stroke-width="0.13"/>
    <path d="M33.588 54.118C33.164 53.865 32.743 53.57 32.423 53.189" stroke-width="0.13"/>
   </g>
  </g>
  <g id="01_0023_0054_0">
   <desc>01_0023_0054_0</desc>
   <path d="M28.98 47.1C28.83 46.926 28.686 46.701 28.571 46.503C28.19 45.847 27.917 45.06 27.957 44.292C27.977 43.896 28.088 43.496 28.35 43.189C28.519 42.991 28.774 42.872 28.992 42.746" stroke-width="0.3"/>
   <path d="M28.986 42.939C28.271 42.966 28.019 43.704 27.957 44.292" stroke-width="0.13"/>
   <path d="M28.981 43.122C28.382 43.176 28.085 43.746 28.033 44.289C27.937 45.281 28.405 46.238 28.969 47.02" stroke-width="0.13"/>
   <path d="M28.643 42.948C28.884 42.838 28.768 42.875 28.989 42.825" stroke-width="0.13"/>
   <path d="M28.949 44.145L28.882 44.213" stroke-width="0.13"/>
  </g>
  <g id="01_0001_0207_0">
   <desc>01_0001_0207_0</desc>
   <path d="M28.923 46.57C28.611 46.128 28.437 45.615 28.451 45.073C28.46 44.695 28.58 44.34 28.948 44.186" stroke-width="0.3"/>
   <path d="M28.94 44.423C28.533 44.514 28.457 44.951 28.452 45.304" stroke-width="0.13"/>
   <path d="M28.864 44.22C28.722 44.32 28.644 44.408 28.553 44.555" stroke-width="0.13"/>
  </g>
 </g>
 <g>
  <line stroke="#FFFFFF" stroke-width="1" x1="42.476" x2="47.326" y1="82.144" y2="63.439"/>
  <line stroke-dasharray="5 1 1 1" stroke-width="0.3" x1="42.389" x2="47.162" y1="82.483" y2="64.069"/>
  <line stroke-width="0.3" x1="47.162" x2="47.414" y1="64.069" y2="63.1"/>
 </g>
 <g class="callout callout_1">
  <g>
   <line stroke="#FFFFFF" stroke-width="1" x1="84.79" x2="99.917" y1="29.452" y2="20.718"/>
   <line stroke-width="0.13" x1="84.79" x2="99.917" y1="29.452" y2="20.718"/>
  </g>
  <path d="M97.358 24.239L102.475 24.239 102.475 17.196 97.358 17.196 97.358 24.239z" fill="#FFFFFF" stroke="none"/>
  <text fill="#000000" font-family="'Arial'" font-size="4.232" stroke="none" x="98.739" y="22.239"><desc>1</desc>1</text>
 </g>
 <g class="callout callout_4">
  <g>
   <line stroke="#FFFFFF" stroke-width="1" x1="53.429" x2="68.188" y1="82.394" y2="73.873"/>
   <line stroke-width="0.13" x1="53.429" x2="68.188" y1="82.394" y2="73.873"/>
  </g>
  <path d="M65.141 77.388L71.236 77.388 71.236 70.358 65.141 70.358 65.141 77.388z" fill="#FFFFFF" stroke="none"/>
  <text fill="#000000" font-family="'Arial'" font-size="4.232" stroke="none" x="67.01" y="75.388"><desc>4</desc>4</text>
 </g>
 <g class="callout callout_2">
  <g>
   <line stroke="#FFFFFF" stroke-width="1" x1="15.997" x2="30.646" y1="134.044" y2="142.502"/>
   <line stroke-width="0.13" x1="15.997" x2="30.646" y1="134.044" y2="142.502"/>
  </g>
  <path d="M27.643 146.024L33.651 146.024 33.651 138.98 27.643 138.98 27.643 146.024z" fill="#FFFFFF" stroke="none"/>
  <text fill="#000000" font-family="'Arial'" font-size="4.232" stroke="none" x="29.469" y="144.024"><desc>2</desc>2</text>
 </g>
 <g class="callout callout_3">
  <g>
   <line stroke="#FFFFFF" stroke-width="1" x1="5.147" x2="19.824" y1="158.348" y2="166.822"/>
   <line stroke-width="0.13" x1="5.147" x2="19.824" y1="158.348" y2="166.822"/>
  </g>
  <path d="M16.832 170.371L22.817 170.371 22.817 163.274 16.832 163.274 16.832 170.371z" fill="#FFFFFF" stroke="none"/>
  <text fill="#000000" font-family="'Arial'" font-size="4.232" stroke="none" x="18.647" y="168.371"><desc>3</desc>3</text>
 </g>
 <path class="hotspot hotspot_1" d="M97.358 24.239L 102.475 24.239L 102.475 17.196L 97.358 17.196L 97.358 24.239z" fill="black" id="AUTOID_7736" stroke="black" visibility="hidden"/>
 <path class="hotspot hotspot_2" d="M27.643 146.024L 33.651 146.024L 33.651 138.98L 27.643 138.98L 27.643 146.024z" fill="black" id="AUTOID_7737" stroke="black" visibility="hidden"/>
 <path class="hotspot hotspot_4" d="M65.141 77.388L 71.236 77.388L 71.236 70.358L 65.141 70.358L 65.141 77.388z" fill="black" id="AUTOID_7738" stroke="black" visibility="hidden"/>
 <path class="hotspot hotspot_3" d="M16.832 170.371L 22.817 170.371L 22.817 163.274L 16.832 163.274L 16.832 170.371z" fill="black" id="AUTOID_7739" stroke="black" visibility="hidden"/>
</svg>