<?xml version="1.0" encoding="UTF-8" standalone="no"?><!-- Generator: PTC Arbortext IsoDraw 7.3 M080 --><svg xmlns="http://www.w3.org/2000/svg" xmlns:xlink="http://www.w3.org/1999/xlink" clip-rule="evenodd" fill="none" fill-rule="evenodd" font-family="sans-serif" font-size="10" font-stretch="normal" font-style="normal" font-variant="normal" font-weight="normal" height="194.854" onabort="parent.dwImageSVGOnAbort('VMT126027261');" onerror="parent.dwImageSVGOnError('VMT126027261');" onload="parent.dwImageSVGOnLoad('VMT126027261');" stroke="#000000" stroke-linecap="round" viewBox="0.0 0.0 150.582 194.854" width="150.582" x="0" xml:space="preserve" y="0">
 <g id="Livello_x0020_standard">
  <g>
   <g>
    <path d="M48.334 117.858C48.579 117.992 48.869 117.956 49.17 117.777" stroke-width="0.1"/>
   </g>
   <g>
    <path d="M51.527 116.415C51.851 116.227 52.146 115.903 52.36 115.534C52.82 114.736 52.822 113.876 52.362 113.608" stroke-width="0.1"/>
   </g>
   <g>
    <path d="M50.112 115.597C50.676 115.272 51.161 114.522 51.264 113.843" stroke-width="0.3"/>
   </g>
   <g>
    <path d="M52.244 113.558C52.024 113.492 51.777 113.543 51.527 113.691" stroke-width="0.3"/>
    <path d="M52.363 113.609C52.323 113.587 52.281 113.569 52.244 113.558" stroke-width="0.3"/>
   </g>
   <g>
    <path d="M49.167 115.052C48.841 115.24 48.546 115.563 48.334 115.933C47.874 116.73 47.872 117.591 48.332 117.858" stroke-width="0.3"/>
   </g>
   <g>
    <path d="M20.968 133.657C21.213 133.792 21.504 133.754 21.803 133.575" stroke-width="0.1"/>
   </g>
   <g>
    <path d="M24.161 132.213C24.487 132.026 24.783 131.703 24.995 131.332C25.455 130.536 25.455 129.675 24.996 129.407" stroke-width="0.1"/>
   </g>
   <g>
    <path d="M22.745 131.396C23.312 131.072 23.795 130.323 23.899 129.641" stroke-width="0.3"/>
   </g>
   <g>
    <path d="M21.803 130.852C21.478 131.039 21.184 131.36 20.971 131.729C20.509 132.526 20.507 133.389 20.966 133.657" stroke-width="0.3"/>
   </g>
   <g>
    <path d="M24.996 129.407C24.772 129.275 24.457 129.316 24.161 129.49" stroke-width="0.3"/>
   </g>
   <g>
    <path d="M20.966 109.141C21.211 109.275 21.503 109.237 21.801 109.06" stroke-width="0.1"/>
   </g>
   <g>
    <path d="M24.161 107.697C24.487 107.51 24.783 107.186 24.995 106.816C25.455 106.019 25.455 105.159 24.996 104.891" stroke-width="0.1"/>
   </g>
   <g>
    <path d="M22.746 106.881C23.312 106.555 23.795 105.807 23.899 105.126" stroke-width="0.3"/>
   </g>
   <g>
    <path d="M24.876 104.84C24.658 104.775 24.41 104.826 24.163 104.974" stroke-width="0.3"/>
    <path d="M24.998 104.893C24.957 104.87 24.914 104.852 24.876 104.84" stroke-width="0.3"/>
   </g>
   <g>
    <path d="M21.803 106.335C21.477 106.524 21.181 106.846 20.969 107.216C20.509 108.013 20.507 108.875 20.966 109.141" stroke-width="0.3"/>
   </g>
   <g>
    <path d="M23.089 120.174C23.091 120.174 23.091 120.174 23.091 120.174C23.551 120.439 24.298 120.009 24.759 119.212C25.219 118.414 25.219 117.552 24.76 117.286" stroke-width="0.1"/>
    <path d="M24.76 117.286C24.3 117.019 23.553 117.45 23.091 118.248C22.632 119.046 22.632 119.908 23.091 120.174" stroke-width="0.3"/>
    <path d="M24.762 117.287C24.76 117.286 24.76 117.286 24.76 117.286" stroke-width="0.3"/>
    <path d="M25.07 118.069C25.07 117.706 24.891 117.536 24.686 117.415L24.835 117.156C25.054 117.284 25.14 117.641 25.14 118.028L25.07 118.069z" fill="#000000" stroke="none"/>
   </g>
   <g>
    <path d="M22.782 119.076C23.216 118.721 23.564 118.102 23.653 117.566" stroke-width="0.3"/>
   </g>
   <g>
    <path d="M48.567 105.463C48.569 105.465 48.569 105.465 48.57 105.465C49.024 105.73 49.768 105.305 50.231 104.513C50.536 103.992 50.642 103.442 50.548 103.046" stroke-width="0.1"/>
   </g>
   <g>
    <path d="M49.674 102.543C49.264 102.665 48.85 103.055 48.566 103.546C48.109 104.34 48.11 105.198 48.567 105.463" stroke-width="0.3"/>
   </g>
   <g>
    <path d="M48.259 104.367C48.694 104.01 49.042 103.393 49.131 102.855" stroke-width="0.3"/>
   </g>
   <g>
    <path d="M17.792 138.616C17.794 139.368 18.057 139.897 18.483 140.143" stroke-width="0.1"/>
   </g>
   <g>
    <path d="M18.138 84.899C17.907 85.072 17.791 85.393 17.792 85.769" stroke-width="0.1"/>
   </g>
   <g>
    <path d="M94.807 86.668C95.269 86.935 96.016 86.503 96.475 85.704C96.706 85.305 96.82 84.891 96.82 84.543" stroke-width="0.1"/>
   </g>
   <g>
    <path d="M96.82 76.371C96.823 76.006 96.688 75.73 96.474 75.608" stroke-width="0.1"/>
   </g>
   <g>
    <path d="M72.969 89.29C72.941 89.266 72.912 89.245 72.885 89.228" stroke-width="0.1"/>
    <path d="M73.23 89.992C73.227 89.659 73.132 89.423 72.969 89.29" stroke-width="0.1"/>
   </g>
   <g>
    <path d="M71.216 100.289C71.216 100.289 71.216 100.289 71.216 100.29C71.677 100.555 72.424 100.123 72.885 99.326C73.114 98.927 73.23 98.513 73.23 98.164" stroke-width="0.1"/>
   </g>
   <g>
    <path d="M70.87 99.221C71.421 98.784 71.813 97.989 71.814 97.346" stroke-width="0.3"/>
   </g>
   <g>
    <path d="M70.87 99.525C70.873 99.912 71.001 100.167 71.216 100.29" stroke-width="0.3"/>
   </g>
   <g>
    <path d="M72.884 89.227C72.424 88.962 71.677 89.394 71.216 90.191C70.986 90.59 70.87 91.004 70.87 91.353" stroke-width="0.3"/>
    <path d="M72.885 89.228C72.885 89.228 72.884 89.228 72.884 89.227" stroke-width="0.3"/>
   </g>
   <g>
    <path d="M96.474 75.608C96.013 75.343 95.266 75.775 94.805 76.572C94.576 76.971 94.462 77.385 94.462 77.733" stroke-width="0.3"/>
   </g>
   <g>
    <path d="M94.462 85.906C94.459 86.272 94.594 86.548 94.807 86.668" stroke-width="0.3"/>
   </g>
   <g>
    <path d="M94.462 85.602C95.007 85.17 95.405 84.367 95.405 83.727" stroke-width="0.3"/>
   </g>
   <g>
    <path d="M38.744 75.53C38.74 75.585 38.737 75.643 38.737 75.691C38.737 77.287 40.978 78.581 43.741 78.581C46.405 78.581 48.584 77.379 48.737 75.855" stroke-width="0.3"/>
    <path d="M48.746 75.691C48.746 74.49 47.479 73.46 45.643 73.016" stroke-width="0.1"/>
    <path d="M41.296 73.168C39.756 73.667 38.848 74.566 38.746 75.527" stroke-width="0.1"/>
    <path d="M48.738 75.852C48.743 75.796 48.746 75.739 48.746 75.691" stroke-width="0.1"/>
    <path d="M48.595 75.691C48.595 74.917 48.124 74.174 47.246 73.668L47.317 73.626C48.249 74.165 48.896 74.868 48.896 75.691L48.595 75.691z" fill="#000000" stroke="none"/>
   </g>
   <g>
    <path d="M48.537 76.509C48.121 75.685 47.119 75.051 45.865 74.709" stroke-width="0.3"/>
    <path d="M41.582 74.718C40.253 75.085 39.334 75.748 38.947 76.507" stroke-width="0.3"/>
   </g>
   <g>
    <path d="M17.224 83.109C17.217 83.114 17.21 83.117 17.205 83.12" stroke-width="0.1"/>
    <path d="M19.207 83.317C18.431 82.87 17.734 82.825 17.224 83.109" stroke-width="0.1"/>
   </g>
   <g>
    <path d="M62.142 108.106C62.493 108.311 62.823 108.347 63.07 108.242" stroke-width="0.1"/>
   </g>
   <g>
    <path d="M64.144 109.938C64.697 109.618 64.972 108.944 64.974 108.106" stroke-width="0.1"/>
   </g>
   <g>
    <path d="M67.332 89.311C66.028 90.066 64.974 91.89 64.972 93.397" stroke-width="0.1"/>
   </g>
   <g>
    <path d="M102.027 70.078C101.566 69.811 100.959 69.894 100.358 70.242" stroke-width="0.1"/>
   </g>
   <g>
    <path d="M63.07 108.242C63.39 108.105 63.557 107.748 63.557 107.289" stroke-width="0.3"/>
   </g>
   <g>
    <path d="M65.917 88.493C64.611 89.248 63.56 91.072 63.557 92.579" stroke-width="0.3"/>
   </g>
   <g>
    <path d="M100.611 69.26C100.15 68.995 99.545 69.078 98.944 69.426" stroke-width="0.3"/>
   </g>
   <g>
    <path d="M102.718 71.605C102.718 70.852 102.453 70.322 102.028 70.078" stroke-width="0.3"/>
   </g>
   <g>
    <path d="M101.888 88.147C102.441 87.829 102.718 87.15 102.718 86.314" stroke-width="0.3"/>
   </g>
   <g>
    <path d="M62.143 109.74C62.927 110.192 63.633 110.234 64.144 109.938" stroke-width="0.3"/>
   </g>
   <g>
    <path d="M18.196 84.859C18.175 84.871 18.155 84.885 18.138 84.899" stroke-width="0.3"/>
    <path d="M19.207 84.953C18.814 84.724 18.454 84.704 18.196 84.859" stroke-width="0.3"/>
   </g>
   <g>
    <path d="M53.177 120.909C54.482 120.153 55.534 118.329 55.536 116.823" stroke-width="0.3"/>
   </g>
   <g>
    <path d="M18.483 140.143C18.943 140.407 19.55 140.324 20.15 139.977" stroke-width="0.3"/>
   </g>
   <g>
    <path d="M16.376 137.798C16.378 138.551 16.641 139.08 17.068 139.325" stroke-width="0.3"/>
   </g>
   <g>
    <path d="M17.205 83.12C16.653 83.438 16.376 84.117 16.376 84.953" stroke-width="0.3"/>
   </g>
   <g>
    <path d="M54.966 61.319C54.962 61.322 54.956 61.325 54.951 61.328" stroke-width="0.3"/>
    <path d="M56.953 61.526C56.176 61.079 55.478 61.033 54.966 61.319" stroke-width="0.3"/>
   </g>
   <line stroke-width="0.1" x1="51.527" x2="50.11" y1="116.415" y2="115.597"/>
   <line stroke-width="0.1" x1="49.167" x2="47.988" y1="117.777" y2="117.096"/>
   <line stroke-width="0.1" x1="51.527" x2="49.167" y1="116.415" y2="117.777"/>
   <line stroke-width="0.3" x1="50.11" x2="48.015" y1="115.597" y2="116.808"/>
   <line stroke-width="0.3" x1="49.167" x2="51.527" y1="115.052" y2="113.691"/>
   <line stroke-width="0.1" x1="19.207" x2="17.792" y1="84.953" y2="85.769"/>
   <line stroke-width="0.1" x1="24.161" x2="22.745" y1="132.213" y2="131.396"/>
   <line stroke-width="0.1" x1="24.161" x2="21.803" y1="132.213" y2="133.575"/>
   <line stroke-width="0.3" x1="22.745" x2="20.649" y1="131.396" y2="132.606"/>
   <line stroke-width="0.3" x1="24.161" x2="21.803" y1="129.49" y2="130.852"/>
   <line stroke-width="0.1" x1="21.803" x2="20.623" y1="133.575" y2="132.895"/>
   <line stroke-width="0.1" x1="24.161" x2="22.745" y1="107.697" y2="106.881"/>
   <line stroke-width="0.1" x1="24.161" x2="21.803" y1="107.697" y2="109.06"/>
   <line stroke-width="0.1" x1="21.803" x2="20.623" y1="109.06" y2="108.379"/>
   <line stroke-width="0.3" x1="22.745" x2="20.649" y1="106.881" y2="108.09"/>
   <line stroke-width="0.3" x1="21.803" x2="24.161" y1="106.335" y2="104.974"/>
   <line stroke-width="0.1" x1="23.925" x2="22.746" y1="120.091" y2="119.411"/>
   <line stroke-width="0.1" x1="49.404" x2="48.225" y1="105.382" y2="104.701"/>
   <line stroke-width="0.1" x1="17.792" x2="17.792" y1="85.769" y2="138.616"/>
   <line stroke-width="0.1" x1="17.792" x2="16.376" y1="138.616" y2="137.798"/>
   <line stroke-width="0.1" x1="96.82" x2="95.641" y1="76.371" y2="75.691"/>
   <line stroke-width="0.1" x1="96.82" x2="96.82" y1="76.371" y2="84.543"/>
   <line stroke-width="0.1" x1="96.82" x2="95.405" y1="84.543" y2="83.727"/>
   <line stroke-width="0.1" x1="73.23" x2="71.814" y1="98.164" y2="97.346"/>
   <line stroke-width="0.1" x1="73.23" x2="73.23" y1="98.164" y2="89.992"/>
   <line stroke-width="0.3" x1="71.814" x2="71.814" y1="89.477" y2="97.346"/>
   <line stroke-width="0.3" x1="70.87" x2="70.87" y1="91.353" y2="99.525"/>
   <line stroke-width="0.1" x1="73.23" x2="72.051" y1="89.992" y2="89.311"/>
   <line stroke-width="0.1" x1="100.358" x2="98.944" y1="70.242" y2="69.426"/>
   <line stroke-width="0.1" x1="67.332" x2="65.917" y1="89.311" y2="88.493"/>
   <line stroke-width="0.1" x1="64.974" x2="63.557" y1="93.397" y2="92.579"/>
   <line stroke-width="0.1" x1="54.951" x2="54.707" y1="61.328" y2="61.506"/>
   <line stroke-width="0.3" x1="94.462" x2="94.462" y1="85.906" y2="77.733"/>
   <line stroke-width="0.3" x1="95.405" x2="95.405" y1="83.727" y2="75.858"/>
   <line stroke-width="0.3" x1="95.405" x2="94.462" y1="83.727" y2="83.182"/>
   <line stroke-width="0.1" x1="56.953" x2="44.469" y1="61.526" y2="68.733"/>
   <line stroke-width="0.1" x1="40.633" x2="19.207" y1="70.948" y2="83.317"/>
   <line stroke-width="0.1" x1="40.203" x2="40.203" y1="73.647" y2="75.281"/>
   <line stroke-width="0.1" x1="62.143" x2="63.557" y1="108.106" y2="107.289"/>
   <line stroke-width="0.1" x1="102.718" x2="64.974" y1="86.314" y2="108.106"/>
   <line stroke-width="0.1" x1="62.143" x2="19.207" y1="108.106" y2="83.317"/>
   <line stroke-width="0.1" x1="64.974" x2="64.974" y1="93.397" y2="108.106"/>
   <line stroke-width="0.1" x1="100.358" x2="67.332" y1="70.242" y2="89.311"/>
   <line stroke-width="0.3" x1="63.557" x2="63.557" y1="92.579" y2="107.289"/>
   <line stroke-width="0.3" x1="98.944" x2="65.917" y1="69.426" y2="88.493"/>
   <line stroke-width="0.3" x1="102.028" x2="100.611" y1="70.078" y2="69.26"/>
   <line stroke-width="0.3" x1="102.718" x2="102.718" y1="86.314" y2="71.605"/>
   <line stroke-width="0.3" x1="64.144" x2="101.888" y1="109.938" y2="88.147"/>
   <line stroke-width="0.3" x1="19.207" x2="62.143" y1="84.953" y2="109.74"/>
   <line stroke-width="0.3" x1="55.536" x2="55.536" y1="116.822" y2="114.528"/>
   <line stroke-width="0.3" x1="55.536" x2="55.536" y1="110.108" y2="105.927"/>
   <line stroke-width="0.3" x1="20.15" x2="53.177" y1="139.978" y2="120.909"/>
   <line stroke-width="0.3" x1="17.068" x2="18.483" y1="139.325" y2="140.143"/>
   <line stroke-width="0.3" x1="16.376" x2="16.376" y1="84.953" y2="137.798"/>
   <line stroke-width="0.3" x1="54.951" x2="44.039" y1="61.328" y2="67.628"/>
   <line stroke-width="0.3" x1="40.213" x2="17.205" y1="69.837" y2="83.12"/>
   <line stroke-width="0.3" x1="84.79" x2="56.953" y1="77.597" y2="61.526"/>
  </g>
  <g>
   <g>
    <path d="M124.671 170.12C124.534 170.064 124.337 170.145 124.194 170.307C124.027 170.501 123.992 170.747 124.117 170.856C124.123 170.861 124.129 170.866 124.135 170.871" stroke-width="0.1"/>
   </g>
   <g>
    <path d="M124.543 170.742C124.493 170.698 124.426 170.683 124.353 170.697" stroke-width="0.1"/>
    <path d="M124.1 171.207C124.105 171.211 124.108 171.215 124.111 171.217C124.209 171.306 124.385 171.274 124.506 171.143C124.625 171.01 124.641 170.831 124.543 170.742" stroke-width="0.1"/>
   </g>
   <g>
    <path d="M126.483 169.174C126.421 169.12 126.343 169.092 126.262 169.086" stroke-width="0.1"/>
    <path d="M126.259 170.134C126.311 170.094 126.359 170.049 126.399 170.003C126.646 169.719 126.683 169.348 126.483 169.174" stroke-width="0.1"/>
   </g>
   <g>
    <path d="M127.308 168.931C127.346 168.911 127.379 168.873 127.405 168.83C127.448 168.754 127.456 168.674 127.426 168.631" stroke-width="0.1"/>
   </g>
   <g>
    <path d="M126.584 169.068C126.381 168.954 126.054 169.144 125.852 169.492C125.65 169.843 125.65 170.223 125.852 170.341C125.852 170.341 125.853 170.342 125.855 170.342" stroke-width="0.1"/>
    <path d="M126.585 169.069C126.585 169.068 126.584 169.068 126.584 169.068" stroke-width="0.1"/>
    <path d="M125.855 170.342C126.058 170.455 126.385 170.265 126.585 169.917C126.789 169.566 126.789 169.187 126.585 169.069" stroke-width="0.1"/>
   </g>
   <g>
    <path d="M124.561 170.258C124.507 170.262 124.453 170.276 124.406 170.298C124.225 170.377 124.123 170.539 124.177 170.663C124.185 170.681 124.195 170.697 124.207 170.71" stroke-width="0.1"/>
   </g>
   <g>
    <path d="M124.659 170.674C124.652 170.668 124.643 170.662 124.635 170.657" stroke-width="0.1"/>
    <path d="M124.144 171.432C124.277 171.46 124.451 171.368 124.579 171.217C124.745 171.018 124.781 170.775 124.659 170.674" stroke-width="0.1"/>
   </g>
   <g>
    <path d="M126.483 169.215C126.326 169.141 126.088 169.288 125.941 169.544C125.787 169.811 125.786 170.098 125.941 170.187C125.945 170.191 125.95 170.193 125.954 170.195" stroke-width="0.1"/>
   </g>
   <g>
    <path d="M127.558 168.585C127.549 168.544 127.533 168.504 127.512 168.473" stroke-width="0.1"/>
    <path d="M127.001 169.253C127.393 169.088 127.603 168.82 127.558 168.585" stroke-width="0.1"/>
   </g>
   <g>
    <path d="M118.777 173.675C118.748 173.598 118.671 173.544 118.572 173.52" stroke-width="0.1"/>
    <path d="M118.352 174.175C118.365 174.17 118.379 174.165 118.393 174.162C118.667 174.06 118.838 173.842 118.777 173.675" stroke-width="0.1"/>
   </g>
   <g>
    <path d="M121.548 172.562C121.805 172.792 122.046 172.663 122.115 172.274" stroke-width="0.1"/>
   </g>
   <g>
    <path d="M122.138 171.579C122.004 171.501 121.784 171.627 121.65 171.861C121.581 171.979 121.549 172.099 121.549 172.201" stroke-width="0.1"/>
    <path d="M122.164 171.596C122.156 171.588 122.147 171.582 122.138 171.579" stroke-width="0.1"/>
   </g>
   <g>
    <path d="M119.647 173.016C119.512 172.938 119.293 173.066 119.158 173.3C119.09 173.417 119.057 173.538 119.057 173.64" stroke-width="0.1"/>
    <path d="M119.673 173.034C119.665 173.027 119.656 173.021 119.647 173.016" stroke-width="0.1"/>
   </g>
   <g>
    <path d="M119.057 174.002C119.316 174.23 119.555 174.1 119.625 173.711" stroke-width="0.1"/>
   </g>
   <g>
    <path d="M121.625 172.807C121.632 172.814 121.641 172.82 121.65 172.825C121.784 172.903 122.004 172.776 122.138 172.543C122.206 172.425 122.239 172.304 122.24 172.201" stroke-width="0.1"/>
   </g>
   <g>
    <path d="M122.051 171.73C121.965 171.681 121.825 171.762 121.739 171.911C121.707 171.962 121.688 172.016 121.68 172.064" stroke-width="0.1"/>
    <path d="M122.06 171.736C122.057 171.735 122.054 171.733 122.051 171.73" stroke-width="0.1"/>
   </g>
   <g>
    <path d="M119.56 173.169C119.474 173.12 119.334 173.199 119.246 173.348C119.216 173.401 119.197 173.455 119.188 173.502" stroke-width="0.1"/>
    <path d="M119.569 173.175C119.566 173.173 119.563 173.17 119.56 173.169" stroke-width="0.1"/>
   </g>
   <g>
    <path d="M119.134 174.246C119.144 174.254 119.156 174.262 119.165 174.266C119.317 174.342 119.546 174.191 119.674 173.93C119.75 173.776 119.774 173.616 119.748 173.497" stroke-width="0.1"/>
   </g>
   <g>
    <path d="M118.628 174.159C118.709 174.114 118.781 174.033 118.834 173.942C118.938 173.759 118.947 173.563 118.855 173.484" stroke-width="0.1"/>
   </g>
   <g>
    <path d="M125.028 175.247C125.025 175.246 125.024 175.245 125.022 175.243" stroke-width="0.1"/>
    <path d="M116.355 190.272C118.751 191.651 122.632 189.408 125.027 185.263C127.421 181.114 127.423 176.629 125.028 175.247" stroke-width="0.1"/>
   </g>
   <g>
    <path d="M125.022 175.243C124.263 174.8 123.302 174.734 122.361 174.983" stroke-width="0.3"/>
   </g>
   <g>
    <path d="M116.239 190.193C118.65 191.448 122.441 189.189 124.79 185.127C127.146 181.048 127.186 176.645 124.903 175.187" stroke-width="0.3"/>
   </g>
   <g>
    <path d="M119.016 176.913C117.954 177.872 117.037 179.05 116.34 180.276C113.956 184.419 113.962 188.895 116.355 190.271C116.355 190.271 116.355 190.272 116.356 190.272" stroke-width="0.3"/>
   </g>
   <g>
    <path d="M113.612 194.199C113.612 194.4 113.674 194.548 113.778 194.628" stroke-width="0.1"/>
   </g>
   <g>
    <path d="M115.5 173.497C115.108 173.723 114.793 174.27 114.792 174.723" stroke-width="0.1"/>
   </g>
   <g>
    <path d="M128.693 166.07C128.561 166.019 128.399 166.05 128.239 166.141" stroke-width="0.1"/>
   </g>
   <g>
    <path d="M127.058 187.252C127.45 187.026 127.766 186.479 127.766 186.026" stroke-width="0.3"/>
   </g>
   <g>
    <path d="M113.864 194.679C113.998 194.731 114.161 194.7 114.319 194.608" stroke-width="0.3"/>
   </g>
   <g>
    <path d="M113.376 194.062C113.376 194.264 113.439 194.412 113.543 194.492" stroke-width="0.3"/>
   </g>
   <g>
    <path d="M114.084 172.68C113.692 172.906 113.376 173.454 113.376 173.906" stroke-width="0.3"/>
   </g>
   <g>
    <path d="M127.278 165.253C127.144 165.201 126.983 165.231 126.822 165.324" stroke-width="0.3"/>
   </g>
   <g>
    <path d="M128.947 166.55C128.945 166.349 128.883 166.203 128.781 166.121" stroke-width="0.3"/>
   </g>
   <line stroke-width="0.1" x1="126.876" x2="126.876" y1="169.925" y2="168.725"/>
   <line stroke-width="0.1" x1="125.153" x2="125.153" y1="170.919" y2="169.865"/>
   <line stroke-width="0.1" x1="125.028" x2="125.153" y1="169.793" y2="169.865"/>
   <line stroke-width="0.1" x1="124.87" x2="125.561" y1="169.884" y2="169.485"/>
   <line stroke-width="0.1" x1="124.87" x2="124.87" y1="169.884" y2="170.028"/>
   <line stroke-width="0.1" x1="127.426" x2="127.24" y1="168.631" y2="168.515"/>
   <line stroke-width="0.1" x1="127.001" x2="127.308" y1="169.11" y2="168.931"/>
   <line stroke-width="0.1" x1="127.001" x2="126.876" y1="169.11" y2="169.038"/>
   <line stroke-width="0.1" x1="125.561" x2="125.561" y1="169.485" y2="169.628"/>
   <line stroke-width="0.1" x1="125.278" x2="125.561" y1="169.793" y2="169.628"/>
   <line stroke-width="0.1" x1="125.278" x2="125.153" y1="169.793" y2="169.721"/>
   <line stroke-width="0.1" x1="124.731" x2="124.454" y1="170.284" y2="170.125"/>
   <line stroke-width="0.1" x1="124.731" x2="124.606" y1="170.284" y2="170.355"/>
   <line stroke-width="0.1" x1="125.153" x2="125.278" y1="170.919" y2="170.848"/>
   <line stroke-width="0.1" x1="125.278" x2="125.278" y1="169.793" y2="170.848"/>
   <line stroke-width="0.1" x1="125.153" x2="125.278" y1="170.776" y2="170.848"/>
   <line stroke-width="0.1" x1="127.001" x2="126.876" y1="169.853" y2="169.781"/>
   <line stroke-width="0.1" x1="127.001" x2="126.876" y1="169.853" y2="169.925"/>
   <line stroke-width="0.1" x1="127.001" x2="127.001" y1="169.11" y2="168.798"/>
   <line stroke-width="0.1" x1="127.001" x2="127.001" y1="169.253" y2="169.853"/>
   <line stroke-width="0.1" x1="126.876" x2="127.001" y1="168.725" y2="168.798"/>
   <line stroke-width="0.1" x1="127.001" x2="126.876" y1="169.253" y2="169.181"/>
   <line stroke-width="0.1" x1="125.438" x2="125.561" y1="169.556" y2="169.628"/>
   <line stroke-width="0.1" x1="122.379" x2="122.504" y1="171.323" y2="171.251"/>
   <line stroke-width="0.1" x1="122.496" x2="122.724" y1="171.586" y2="171.718"/>
   <line stroke-width="0.1" x1="117.397" x2="117.521" y1="175.11" y2="175.182"/>
   <line stroke-width="0.1" x1="117.397" x2="117.397" y1="175.397" y2="174.199"/>
   <line stroke-width="0.1" x1="117.134" x2="117.134" y1="175.55" y2="174.662"/>
   <line stroke-width="0.1" x1="116.427" x2="115.736" y1="174.758" y2="175.158"/>
   <line stroke-width="0.1" x1="118.088" x2="117.521" y1="174.854" y2="175.182"/>
   <line stroke-width="0.1" x1="117.04" x2="117.134" y1="174.609" y2="174.662"/>
   <line stroke-width="0.1" x1="115.859" x2="116.161" y1="175.614" y2="175.439"/>
   <line stroke-width="0.1" x1="115.736" x2="115.859" y1="176.069" y2="176.141"/>
   <line stroke-width="0.1" x1="115.736" x2="115.736" y1="175.158" y2="176.356"/>
   <line stroke-width="0.1" x1="116.912" x2="116.566" y1="174.967" y2="174.768"/>
   <line stroke-width="0.1" x1="115.859" x2="116.427" y1="176.141" y2="175.813"/>
   <line stroke-width="0.1" x1="116.566" x2="116.566" y1="174.679" y2="175.877"/>
   <line stroke-width="0.1" x1="118.088" x2="117.397" y1="173.8" y2="174.199"/>
   <line stroke-width="0.1" x1="119.5" x2="119.625" y1="173.64" y2="173.711"/>
   <line stroke-width="0.1" x1="119.5" x2="119.5" y1="173.64" y2="173.783"/>
   <line stroke-width="0.1" x1="121.409" x2="121.286" y1="171.883" y2="171.955"/>
   <line stroke-width="0.1" x1="119.888" x2="120.579" y1="172.762" y2="172.361"/>
   <line stroke-width="0.1" x1="118.227" x2="118.227" y1="174.919" y2="173.719"/>
   <line stroke-width="0.1" x1="117.397" x2="117.521" y1="174.582" y2="174.655"/>
   <line stroke-width="0.1" x1="119.748" x2="119.5" y1="173.497" y2="173.64"/>
   <line stroke-width="0.1" x1="119.888" x2="119.888" y1="172.762" y2="173.96"/>
   <line stroke-width="0.1" x1="120.012" x2="119.888" y1="173.217" y2="173.145"/>
   <line stroke-width="0.1" x1="120.012" x2="120.313" y1="173.217" y2="173.043"/>
   <line stroke-width="0.1" x1="119.888" x2="120.012" y1="173.671" y2="173.743"/>
   <line stroke-width="0.1" x1="120.718" x2="120.718" y1="172.282" y2="173.48"/>
   <line stroke-width="0.1" x1="120.957" x2="121.286" y1="172.671" y2="172.86"/>
   <line stroke-width="0.1" x1="122.24" x2="122.115" y1="172.201" y2="172.274"/>
   <line stroke-width="0.1" x1="120.718" x2="120.843" y1="172.282" y2="172.21"/>
   <line stroke-width="0.1" x1="121.286" x2="121.286" y1="172.86" y2="171.955"/>
   <line stroke-width="0.1" x1="120.012" x2="120.579" y1="173.743" y2="173.417"/>
   <line stroke-width="0.1" x1="117.521" x2="117.822" y1="174.655" y2="174.481"/>
   <line stroke-width="0.1" x1="116.566" x2="116.691" y1="174.679" y2="174.606"/>
   <line stroke-width="0.1" x1="115.859" x2="115.736" y1="175.614" y2="175.542"/>
   <line stroke-width="0.1" x1="120.454" x2="120.579" y1="172.433" y2="172.506"/>
   <line stroke-width="0.1" x1="119.625" x2="119.748" y1="173.312" y2="173.241"/>
   <line stroke-width="0.1" x1="120.012" x2="120.012" y1="173.36" y2="173.743"/>
   <line stroke-width="0.1" x1="120.012" x2="119.888" y1="173.36" y2="173.288"/>
   <line stroke-width="0.1" x1="119.888" x2="120.012" y1="172.762" y2="172.832"/>
   <line stroke-width="0.1" x1="120.579" x2="120.012" y1="172.506" y2="172.832"/>
   <line stroke-width="0.1" x1="120.718" x2="120.843" y1="173.48" y2="173.408"/>
   <line stroke-width="0.1" x1="120.843" x2="121.286" y1="172.21" y2="172.86"/>
   <line stroke-width="0.1" x1="122.662" x2="122.787" y1="172.358" y2="172.286"/>
   <line stroke-width="0.1" x1="122.662" x2="122.787" y1="172.213" y2="172.286"/>
   <line stroke-width="0.1" x1="122.24" x2="122.115" y1="171.802" y2="171.875"/>
   <line stroke-width="0.1" x1="122.24" x2="121.894" y1="171.802" y2="171.603"/>
   <line stroke-width="0.1" x1="121.409" x2="121.409" y1="171.883" y2="173.08"/>
   <line stroke-width="0.1" x1="119.888" x2="120.579" y1="173.96" y2="173.561"/>
   <line stroke-width="0.1" x1="120.843" x2="120.843" y1="172.502" y2="173.408"/>
   <line stroke-width="0.1" x1="120.313" x2="120.313" y1="173.043" y2="173.187"/>
   <line stroke-width="0.1" x1="120.012" x2="120.313" y1="173.36" y2="173.187"/>
   <line stroke-width="0.1" x1="120.188" x2="120.313" y1="173.115" y2="173.187"/>
   <line stroke-width="0.1" x1="121.409" x2="121.123" y1="173.08" y2="172.915"/>
   <line stroke-width="0.1" x1="121.409" x2="121.286" y1="173.08" y2="173.152"/>
   <line stroke-width="0.1" x1="120.718" x2="120.843" y1="173.336" y2="173.408"/>
   <line stroke-width="0.1" x1="120.579" x2="120.579" y1="172.361" y2="172.506"/>
   <line stroke-width="0.1" x1="119.403" x2="119.748" y1="173.04" y2="173.241"/>
   <line stroke-width="0.1" x1="115.859" x2="115.736" y1="175.23" y2="175.158"/>
   <line stroke-width="0.1" x1="115.859" x2="116.427" y1="175.23" y2="174.902"/>
   <line stroke-width="0.1" x1="116.691" x2="116.691" y1="175.806" y2="174.918"/>
   <line stroke-width="0.1" x1="117.521" x2="117.521" y1="174.271" y2="174.655"/>
   <line stroke-width="0.1" x1="117.963" x2="118.088" y1="174.926" y2="174.998"/>
   <line stroke-width="0.1" x1="117.397" x2="118.088" y1="175.397" y2="174.998"/>
   <line stroke-width="0.1" x1="118.512" x2="118.918" y1="174.283" y2="174.519"/>
   <line stroke-width="0.1" x1="118.771" x2="118.918" y1="174.604" y2="174.519"/>
   <line stroke-width="0.1" x1="117.521" x2="118.088" y1="174.271" y2="173.943"/>
   <line stroke-width="0.1" x1="118.227" x2="118.352" y1="174.247" y2="174.319"/>
   <line stroke-width="0.1" x1="118.088" x2="118.088" y1="173.8" y2="173.943"/>
   <line stroke-width="0.1" x1="117.963" x2="118.088" y1="173.872" y2="173.943"/>
   <line stroke-width="0.1" x1="118.352" x2="118.227" y1="174.847" y2="174.775"/>
   <line stroke-width="0.1" x1="118.352" x2="118.227" y1="174.847" y2="174.919"/>
   <line stroke-width="0.1" x1="117.822" x2="117.822" y1="174.481" y2="174.625"/>
   <line stroke-width="0.1" x1="118.227" x2="118.352" y1="173.719" y2="173.792"/>
   <line stroke-width="0.1" x1="117.521" x2="117.822" y1="174.799" y2="174.625"/>
   <line stroke-width="0.1" x1="117.257" x2="117.134" y1="175.478" y2="175.55"/>
   <line stroke-width="0.1" x1="117.697" x2="117.822" y1="174.552" y2="174.625"/>
   <line stroke-width="0.1" x1="118.352" x2="118.48" y1="174.319" y2="174.245"/>
   <line stroke-width="0.1" x1="118.352" x2="118.352" y1="174.319" y2="174.847"/>
   <line stroke-width="0.1" x1="118.352" x2="118.352" y1="174.175" y2="173.792"/>
   <line stroke-width="0.1" x1="117.397" x2="117.521" y1="174.727" y2="174.799"/>
   <line stroke-width="0.1" x1="118.462" x2="118.394" y1="174.235" y2="174.151"/>
   <line stroke-width="0.1" x1="117.397" x2="117.521" y1="174.199" y2="174.271"/>
   <line stroke-width="0.1" x1="120.012" x2="120.012" y1="172.832" y2="173.217"/>
   <line stroke-width="0.1" x1="120.579" x2="120.454" y1="173.561" y2="173.489"/>
   <line stroke-width="0.1" x1="120.579" x2="120.579" y1="173.561" y2="173.417"/>
   <line stroke-width="0.1" x1="118.088" x2="118.088" y1="174.998" y2="174.854"/>
   <line stroke-width="0.1" x1="117.134" x2="117.257" y1="175.406" y2="175.478"/>
   <line stroke-width="0.1" x1="117.521" x2="117.521" y1="174.799" y2="175.182"/>
   <line stroke-width="0.1" x1="116.566" x2="116.691" y1="175.877" y2="175.806"/>
   <line stroke-width="0.1" x1="116.427" x2="116.427" y1="175.813" y2="175.957"/>
   <line stroke-width="0.1" x1="117.257" x2="117.257" y1="174.28" y2="175.478"/>
   <line stroke-width="0.1" x1="116.302" x2="116.427" y1="174.83" y2="174.902"/>
   <line stroke-width="0.1" x1="116.427" x2="116.427" y1="174.758" y2="174.902"/>
   <line stroke-width="0.1" x1="116.691" x2="116.566" y1="175.806" y2="175.734"/>
   <line stroke-width="0.1" x1="115.859" x2="115.859" y1="175.758" y2="176.141"/>
   <line stroke-width="0.1" x1="115.859" x2="115.736" y1="175.758" y2="175.686"/>
   <line stroke-width="0.1" x1="116.037" x2="116.161" y1="175.512" y2="175.584"/>
   <line stroke-width="0.1" x1="115.859" x2="116.161" y1="175.758" y2="175.584"/>
   <line stroke-width="0.1" x1="116.161" x2="116.161" y1="175.439" y2="175.584"/>
   <line stroke-width="0.1" x1="115.859" x2="115.859" y1="175.23" y2="175.614"/>
   <line stroke-width="0.1" x1="116.427" x2="116.302" y1="175.957" y2="175.885"/>
   <line stroke-width="0.1" x1="116.427" x2="115.736" y1="175.957" y2="176.356"/>
   <line stroke-width="0.1" x1="113.612" x2="113.612" y1="194.199" y2="178.673"/>
   <line stroke-width="0.1" x1="115.5" x2="114.084" y1="173.497" y2="172.68"/>
   <line stroke-width="0.1" x1="114.792" x2="113.376" y1="174.723" y2="173.906"/>
   <line stroke-width="0.1" x1="128.239" x2="126.822" y1="166.141" y2="165.324"/>
   <line stroke-width="0.1" x1="128.239" x2="128.002" y1="171.044" y2="170.908"/>
   <line stroke-width="0.1" x1="115.5" x2="128.002" y1="178.127" y2="170.908"/>
   <line stroke-width="0.1" x1="128.239" x2="115.5" y1="171.044" y2="178.4"/>
   <line stroke-width="0.1" x1="128.002" x2="128.002" y1="166.823" y2="170.908"/>
   <line stroke-width="0.1" x1="128.239" x2="128.239" y1="171.044" y2="166.687"/>
   <line stroke-width="0.1" x1="114.792" x2="114.792" y1="174.723" y2="179.354"/>
   <line stroke-width="0.1" x1="128.239" x2="115.5" y1="166.141" y2="173.497"/>
   <line stroke-width="0.3" x1="115.5" x2="115.5" y1="178.4" y2="174.042"/>
   <line stroke-width="0.3" x1="128.239" x2="115.5" y1="166.687" y2="174.042"/>
   <line stroke-width="0.3" x1="113.612" x2="114.792" y1="178.673" y2="179.354"/>
   <line stroke-width="0.3" x1="114.792" x2="128.947" y1="179.354" y2="171.181"/>
   <line stroke-width="0.3" x1="127.766" x2="127.766" y1="186.026" y2="171.862"/>
   <line stroke-width="0.3" x1="114.319" x2="127.058" y1="194.608" y2="187.252"/>
   <line stroke-width="0.3" x1="113.542" x2="113.864" y1="194.492" y2="194.679"/>
   <line stroke-width="0.3" x1="113.376" x2="113.376" y1="173.906" y2="194.062"/>
   <line stroke-width="0.3" x1="126.822" x2="114.084" y1="165.324" y2="172.68"/>
   <line stroke-width="0.3" x1="128.781" x2="127.278" y1="166.121" y2="165.253"/>
   <line stroke-width="0.3" x1="128.947" x2="128.947" y1="171.181" y2="166.55"/>
   <path d="M124.606 170.355C124.566 170.206 124.608 170.294 124.393 170.159" stroke-width="0.1"/>
   <path d="M124.635 170.657L124.531 170.651L124.275 170.717C124.146 170.703 124.227 170.721 124.046 170.616" stroke-width="0.1"/>
   <path d="M124.04 171.242C124.052 171.362 124.033 171.293 124.144 171.432" stroke-width="0.1"/>
   <path d="M126.259 170.134C126.174 170.183 126.117 170.207 126.021 170.212L125.704 170.05" stroke-width="0.1"/>
   <path d="M126.876 168.725C127.064 168.617 127.281 168.393 127.512 168.472" stroke-width="0.1"/>
   <path d="M124.731 170.284C124.724 170.213 124.715 170.175 124.671 170.12" stroke-width="0.1"/>
   <path d="M124.164 171.17C124.17 171.217 124.174 171.237 124.209 171.27" stroke-width="0.1"/>
   <path d="M124.135 170.871C124.286 170.877 124.415 170.8 124.563 170.818" stroke-width="0.1"/>
   <path d="M127.405 168.61L127.308 168.621L127.001 168.798" stroke-width="0.1"/>
   <path d="M123.07 170.924C122.727 171.122 122.959 170.949 122.724 171.718" stroke-width="0.1"/>
   <path d="M122.379 171.323C122.716 172.08 122.662 171.727 122.662 172.358" stroke-width="0.1"/>
   <path d="M116.912 175.278C116.665 174.877 116.813 174.987 116.566 174.846" stroke-width="0.1"/>
   <path d="M117.257 174.28C116.944 174.461 117.15 174.306 116.912 174.967" stroke-width="0.1"/>
   <path d="M119.373 173.062C119.611 173.199 119.54 173.105 119.625 173.312" stroke-width="0.1"/>
   <path d="M118.227 173.719C118.433 173.6 118.617 173.401 118.855 173.484" stroke-width="0.1"/>
   <path d="M120.718 172.43L120.843 172.502L121.286 173.152" stroke-width="0.1"/>
   <path d="M121.549 172.201C121.549 172.5 121.503 172.587 121.625 172.807" stroke-width="0.1"/>
   <path d="M121.864 171.623C122.102 171.762 122.031 171.667 122.115 171.875" stroke-width="0.1"/>
   <path d="M119.134 174.246C119.012 174.026 119.057 173.938 119.057 173.64" stroke-width="0.1"/>
   <path d="M118.227 174.104C118.509 174.256 118.525 174.301 118.771 174.604" stroke-width="0.1"/>
   <path d="M122.787 172.286C122.787 171.551 122.75 172.014 123.07 170.924" stroke-width="0.1"/>
   <path d="M122.164 171.596C122.219 171.665 122.23 171.713 122.24 171.802" stroke-width="0.1"/>
   <path d="M121.68 172.064C121.671 172.579 121.614 172.385 121.728 172.667" stroke-width="0.1"/>
   <path d="M118.918 174.519C118.597 174.122 118.762 174.236 118.504 174.087" stroke-width="0.1"/>
   <path d="M118.745 173.621L118.671 173.614L118.352 173.792" stroke-width="0.1"/>
   <path d="M119.188 173.502C119.18 174.018 119.123 173.824 119.237 174.105" stroke-width="0.1"/>
   <path d="M119.748 173.241C119.739 173.151 119.728 173.104 119.673 173.034" stroke-width="0.1"/>
  </g>
  <g>
   <g>
    <path d="M89.022 157.423C86.579 156.019 82.626 158.305 80.186 162.53C77.745 166.758 77.743 171.328 80.185 172.736C80.186 172.739 80.188 172.74 80.189 172.741" stroke-width="0.1"/>
   </g>
   <g>
    <path d="M86.504 155.008C83.813 153.588 79.566 156.106 76.938 160.653C74.266 165.281 74.266 170.282 76.936 171.824C76.974 171.847 77.013 171.867 77.046 171.885" stroke-width="0.1"/>
   </g>
   <g>
    <path d="M96.935 137.918C96.513 137.663 96.061 137.61 95.682 137.736" stroke-width="0.1"/>
   </g>
   <g>
    <path d="M66.926 154.338C66.429 154.753 66.12 155.358 65.998 156.044" stroke-width="0.1"/>
   </g>
   <g>
    <path d="M65.998 156.044C65.504 156.569 65.26 157.161 65.262 157.693" stroke-width="0.1"/>
   </g>
   <g>
    <path d="M65.262 187.181C65.257 187.664 65.465 188.108 65.805 188.432" stroke-width="0.1"/>
   </g>
   <g>
    <path d="M93.837 160.231C93.075 160.371 92.299 160.679 91.585 161.098" stroke-width="0.1"/>
   </g>
   <g>
    <path d="M77.293 168.758C77.554 168.909 77.975 168.909 78.236 168.758" stroke-width="0.1"/>
   </g>
   <g>
    <path d="M88.972 156.431C86.301 154.888 81.968 157.389 79.296 162.015C76.625 166.643 76.625 171.645 79.296 173.187C79.367 173.229 79.438 173.265 79.501 173.295" stroke-width="0.1"/>
    <path d="M89.168 156.554C89.1 156.508 89.033 156.465 88.972 156.431" stroke-width="0.1"/>
   </g>
   <g>
    <path d="M89.206 156.793C86.591 155.282 82.349 157.729 79.73 162.262C77.111 166.794 77.108 171.693 79.724 173.204C80.337 173.557 81.039 173.694 81.745 173.639" stroke-width="0.1"/>
    <path d="M90.596 158.331C90.245 157.616 89.757 157.098 89.206 156.793" stroke-width="0.1"/>
   </g>
   <g>
    <path d="M89.102 157.281C86.615 155.847 82.585 158.176 80.1 162.485C77.614 166.794 77.617 171.449 80.103 172.883C80.379 173.043 80.674 173.155 80.951 173.216" stroke-width="0.1"/>
    <path d="M89.876 157.915C89.635 157.645 89.367 157.427 89.102 157.281" stroke-width="0.1"/>
   </g>
   <g>
    <path d="M90.444 161.867C87.459 164.165 85.239 168.141 84.74 171.745" stroke-width="0.1"/>
   </g>
   <g>
    <path d="M104.462 162.266C101.058 160.305 95.534 163.51 92.123 169.427C88.713 175.344 88.707 181.733 92.111 183.694C95.516 185.657 101.04 182.45 104.45 176.533C106.069 173.725 106.921 170.812 107.004 168.325" stroke-width="0.1"/>
    <path d="M106.92 166.496C106.635 164.421 105.733 162.986 104.462 162.266" stroke-width="0.1"/>
   </g>
   <g>
    <path d="M87.314 177.152C87.314 177.67 88.043 178.091 88.939 178.092C89.164 178.092 89.376 178.066 89.56 178.02" stroke-width="0.1"/>
   </g>
   <g>
    <path d="M99.706 173.795C102.829 171.991 105.313 169.96 107.019 167.938" stroke-width="0.1"/>
   </g>
   <g>
    <path d="M96.712 160.525C93.912 159.164 89.594 161.782 86.915 166.414C84.224 171.074 84.153 176.103 86.712 177.844" stroke-width="0.1"/>
   </g>
   <g>
    <path d="M103.408 160.567C99.647 158.974 94.046 162.485 90.555 168.515C87.037 174.608 86.876 181.17 90.094 183.621" stroke-width="0.1"/>
   </g>
   <g>
    <path d="M92.727 160.549C90.412 161.449 88.2 163.631 86.662 166.288C84.754 169.602 84.204 173.115 85.013 175.524" stroke-width="0.3"/>
   </g>
   <g>
    <path d="M98.483 160.456C97.51 160.778 96.575 161.248 95.766 161.793" stroke-width="0.3"/>
   </g>
   <g>
    <path d="M95.037 162.308C91.016 165.296 88.004 170.679 87.42 175.5" stroke-width="0.3"/>
   </g>
   <g>
    <path d="M87.406 175.604C87.24 177.009 87.299 178.318 87.539 179.413" stroke-width="0.3"/>
   </g>
   <g>
    <path d="M95.332 184.461C96.731 184.116 98.114 183.411 99.334 182.491" stroke-width="0.3"/>
   </g>
   <g>
    <path d="M99.418 182.427C103.436 179.441 106.45 174.057 107.034 169.235" stroke-width="0.3"/>
   </g>
   <g>
    <path d="M107.049 169.133C107.215 167.723 107.159 166.407 106.917 165.326" stroke-width="0.3"/>
   </g>
   <g>
    <path d="M42.392 140.174C41.404 140.997 40.734 142.389 40.728 143.527" stroke-width="0.3"/>
   </g>
   <g>
    <path d="M40.728 173.014C40.728 173.694 40.968 174.173 41.354 174.393" stroke-width="0.3"/>
   </g>
   <g>
    <path d="M66.069 188.661C66.195 188.746 66.442 188.741 66.736 188.668" stroke-width="0.3"/>
   </g>
   <g>
    <path d="M71.266 155.117C70.522 154.746 69.364 155.443 68.646 156.683C67.909 157.961 67.909 159.34 68.646 159.765C68.662 159.775 68.679 159.783 68.692 159.792" stroke-width="0.3"/>
    <path d="M71.314 155.143C71.298 155.133 71.281 155.125 71.266 155.117" stroke-width="0.1"/>
    <path d="M68.694 159.792C69.438 160.163 70.596 159.467 71.314 158.224C72.052 156.949 72.052 155.568 71.314 155.143" stroke-width="0.1"/>
   </g>
   <g>
    <path d="M68.141 159.002C68.793 158.804 69.45 158.181 69.903 157.401C70.375 156.581 70.543 155.719 70.403 155.091" stroke-width="0.1"/>
   </g>
   <line stroke-width="0.1" x1="95.682" x2="73.941" y1="137.736" y2="125.185"/>
   <line stroke-width="0.1" x1="66.926" x2="42.392" y1="154.338" y2="140.174"/>
   <line stroke-width="0.1" x1="65.262" x2="40.728" y1="157.693" y2="143.527"/>
   <line stroke-width="0.1" x1="65.262" x2="65.262" y1="187.181" y2="157.693"/>
   <line stroke-width="0.1" x1="66.069" x2="65.804" y1="188.661" y2="188.432"/>
   <line stroke-width="0.1" x1="72.338" x2="72.9" y1="186.873" y2="186.151"/>
   <line stroke-width="0.1" x1="94.579" x2="91.918" y1="162.668" y2="161.132"/>
   <line stroke-width="0.1" x1="84.135" x2="81.775" y1="156.909" y2="155.548"/>
   <line stroke-width="0.1" x1="81.036" x2="80.95" y1="173.229" y2="173.215"/>
   <line stroke-width="0.1" x1="90.932" x2="84.605" y1="161.514" y2="157.862"/>
   <line stroke-width="0.1" x1="65.998" x2="66.551" y1="156.044" y2="156.282"/>
   <line stroke-width="0.1" x1="66.551" x2="66.551" y1="188.191" y2="156.282"/>
   <line stroke-width="0.3" x1="85.015" x2="80.191" y1="175.526" y2="172.741"/>
   <line stroke-width="0.3" x1="89.022" x2="93.864" y1="157.423" y2="160.218"/>
   <line stroke-width="0.3" x1="87.406" x2="87.42" y1="175.604" y2="175.501"/>
   <line stroke-width="0.3" x1="99.418" x2="99.334" y1="182.429" y2="182.491"/>
   <line stroke-width="0.3" x1="107.046" x2="107.034" y1="169.132" y2="169.235"/>
   <line stroke-width="0.3" x1="40.728" x2="40.728" y1="173.015" y2="143.527"/>
   <line stroke-width="0.3" x1="66.069" x2="41.354" y1="188.661" y2="174.393"/>
   <line stroke-width="0.1" x1="65.262" x2="40.728" y1="187.181" y2="173.015"/>
   <line stroke-width="0.1" x1="71.867" x2="70.451" y1="156.365" y2="155.548"/>
   <path d="M66.926 154.338L67.95 153.484L71.313 150.681L72.338 149.826L73.495 149.159L89.111 140.143L90.268 139.475L91.539 139.068L94.411 138.145L95.682 137.736" stroke-width="0.1"/>
   <path d="M74.052 130.114L89.111 138.808C90.65 139.697 90.14 139.05 90.65 140.743" stroke-width="0.1"/>
   <path d="M84.841 173.389C84.694 173.289 84.679 173.235 84.655 173.056" stroke-width="0.1"/>
   <path d="M106.92 166.496C106.983 167.11 107.025 167.707 107.004 168.325" stroke-width="0.1"/>
   <path d="M99.703 173.799C98.15 174.661 96.572 175.461 94.93 176.144C93.176 176.875 91.378 177.468 89.56 178.02" stroke-width="0.1"/>
   <path d="M107.14 167.582C107.123 167.727 107.09 167.817 107.016 167.942" stroke-width="0.1"/>
   <path d="M97.147 138.061C96.9 139.137 97 138.484 97 140.038L97 159.355L97 160.689" stroke-width="0.1"/>
   <path d="M65.998 188.6C66.908 187.925 66.332 188.262 67.822 187.782L71.629 186.558L72.9 186.151L74.055 185.484L85.843 178.677L87 178.01" stroke-width="0.1"/>
   <path d="M97 138.703L95.728 139.111L91.921 140.336L90.65 140.743L89.495 141.411L74.055 150.324L72.9 150.991L71.875 151.846L67.575 155.429L66.551 156.282" stroke-width="0.1"/>
   <path d="M72.9 150.991C72.146 149.426 72.712 150.043 71.183 149.159L48.96 136.33L47.804 135.663" stroke-width="0.1"/>
   <path d="M77.046 171.885L78.203 172.55L78.343 172.632C78.837 172.915 79.426 173.32 80.01 173.504C80.582 173.685 81.197 173.741 81.793 173.665" stroke-width="0.3"/>
   <path d="M86.504 155.008L87.659 155.679L88.013 155.883L89.168 156.552C89.825 156.938 90.341 157.659 90.634 158.354" stroke-width="0.3"/>
   <path d="M92.727 160.549C93.879 160.116 95.132 159.932 96.317 160.354C96.733 160.502 96.962 160.669 97.37 160.903" stroke-width="0.3"/>
   <path d="M87.37 178.224L86.712 177.844L86.552 177.731C85.805 177.137 85.34 176.413 85.015 175.525" stroke-width="0.3"/>
   <path d="M95.037 162.308L95.12 162.246L95.766 161.793" stroke-width="0.3"/>
   <path d="M95.334 184.461C94.817 184.578 94.311 184.658 93.781 184.683C93.132 184.683 92.525 184.629 91.891 184.478C90.296 184.094 88.893 182.832 88.209 181.364C87.911 180.722 87.712 180.094 87.539 179.412" stroke-width="0.3"/>
   <path d="M98.483 160.455C99.393 160.199 100.314 159.995 101.268 160.052C103.17 160.169 104.819 161.122 105.871 162.711C106.399 163.507 106.683 164.407 106.915 165.324" stroke-width="0.3"/>
   <path d="M73.173 124.197L73.34 124.295L95.78 137.251L96.935 137.918L97.147 138.061C97.227 138.127 97.26 138.302 97.281 138.395C97.334 138.649 97.344 138.911 97.344 139.169L97.344 140.503L97.344 159.555L97.344 160.889" stroke-width="0.3"/>
   <path d="M42.392 140.174L43.417 139.319L46.78 136.516L47.804 135.663L48.96 134.995L58.012 129.854" stroke-width="0.3"/>
   <path d="M87.344 178.21L86.189 178.877L73.495 186.206L72.338 186.873L71.069 187.282C69.659 187.735 68.177 188.252 66.736 188.668" stroke-width="0.3"/>
  </g>
  <g>
   <g>
    <path d="M70.186 124.298C69.909 123.566 69.091 122.981 68.019 122.653" stroke-width="0.1"/>
    <path d="M63.884 122.694C62.801 123.054 62.097 123.644 61.847 124.299" stroke-width="0.1"/>
   </g>
   <g>
    <path d="M69.637 124.834C69.635 124.118 69.013 123.487 68.051 123.106" stroke-width="0.1"/>
    <path d="M63.924 123.129C62.932 123.536 62.401 124.177 62.396 124.837" stroke-width="0.1"/>
   </g>
   <g>
    <path d="M70.287 123.611C70.191 122.692 69.237 121.923 67.882 121.537" stroke-width="0.1"/>
    <path d="M63.715 121.679C62.52 122.12 61.832 122.846 61.746 123.612" stroke-width="0.1"/>
    <path d="M70.295 123.76C70.295 123.707 70.292 123.656 70.287 123.611" stroke-width="0.3"/>
    <path d="M61.746 123.611C61.74 123.665 61.738 123.715 61.738 123.76C61.738 125.125 63.654 126.23 66.016 126.23C68.379 126.23 70.295 125.125 70.295 123.76" stroke-width="0.3"/>
    <path d="M63.027 122.034C62.265 122.474 61.954 123.045 61.896 123.617L61.597 123.608C61.655 123.021 62.176 122.444 62.957 121.993L63.027 122.034z" fill="#000000" stroke="none"/>
   </g>
   <g>
    <path d="M68.355 125.825C68.26 125.778 68.164 125.733 68.075 125.698" stroke-width="0.3"/>
    <path d="M63.957 125.698C63.854 125.74 63.759 125.784 63.679 125.825" stroke-width="0.3"/>
   </g>
   <g>
    <path d="M62.29 129.724C63.472 130.115 64.759 130.299 65.987 130.295" stroke-width="0.1"/>
   </g>
   <g>
    <path d="M73.257 125.963C73.257 125.929 73.256 125.894 73.254 125.864" stroke-width="0.1"/>
    <path d="M58.779 126.063C58.871 128.336 62.091 130.143 66.016 130.144C70.015 130.144 73.257 128.272 73.257 125.963" stroke-width="0.1"/>
   </g>
   <g>
    <path d="M70.771 121.293C70.578 121.218 70.343 121.262 70.112 121.396" stroke-width="0.1"/>
   </g>
   <g>
    <path d="M71.808 123.76C71.808 122.257 70.09 120.986 67.685 120.558" stroke-width="0.1"/>
    <path d="M63.453 120.763C61.421 121.34 60.238 122.516 60.225 123.76C60.225 125.608 62.817 127.105 66.016 127.105C69.215 127.105 71.808 125.608 71.808 123.76" stroke-width="0.1"/>
   </g>
   <g>
    <path d="M61.921 126.126C61.639 126.289 61.383 126.569 61.197 126.89C60.996 127.236 60.896 127.596 60.896 127.899" stroke-width="0.1"/>
   </g>
   <g>
    <path d="M58.514 125.98C58.518 126.766 58.886 127.503 59.503 128.116" stroke-width="0.1"/>
   </g>
   <g>
    <path d="M73.257 124.942C73.257 124.875 73.254 124.808 73.248 124.75" stroke-width="0.1"/>
    <path d="M58.784 124.75C58.779 124.817 58.777 124.885 58.777 124.942C58.777 127.251 62.018 129.122 66.016 129.122C70.015 129.122 73.257 127.251 73.257 124.942" stroke-width="0.1"/>
   </g>
   <g>
    <path d="M69.793 129.706C70.968 129.312 71.89 128.759 72.5 128.145" stroke-width="0.1"/>
   </g>
   <g>
    <path d="M73.248 124.75C73.173 123.367 72.274 122.167 70.897 121.365" stroke-width="0.3"/>
   </g>
   <g>
    <path d="M70.771 121.293C69.858 120.766 68.748 120.421 67.609 120.266" stroke-width="0.3"/>
    <path d="M63.344 120.475C62.527 120.68 61.817 120.966 61.262 121.293" stroke-width="0.3"/>
   </g>
   <g>
    <path d="M61.136 121.367C59.674 122.218 58.85 123.489 58.784 124.751" stroke-width="0.3"/>
   </g>
   <g>
    <path d="M58.981 134.627C59.768 136.538 62.713 137.824 66.024 137.834C69.962 137.83 73.165 136.013 73.254 133.747" stroke-width="0.1"/>
   </g>
   <line stroke-width="0.1" x1="63.661" x2="63.661" y1="130.907" y2="137.056"/>
   <line stroke-width="0.1" x1="64.115" x2="64.115" y1="130.977" y2="137.129"/>
   <line stroke-width="0.1" x1="71.135" x2="71.135" y1="128.919" y2="127.899"/>
   <line stroke-width="0.1" x1="71.998" x2="71.998" y1="129.616" y2="135.771"/>
   <line stroke-width="0.1" x1="62.991" x2="62.991" y1="123.088" y2="122.013"/>
   <line stroke-width="0.1" x1="63.457" x2="63.457" y1="125.736" y2="123.358"/>
   <line stroke-width="0.1" x1="58.134" x2="58.134" y1="127.715" y2="133.866"/>
   <line stroke-width="0.1" x1="71.665" x2="71.665" y1="135.963" y2="129.808"/>
   <line stroke-width="0.1" x1="71.135" x2="71.135" y1="136.608" y2="136.18"/>
   <line stroke-width="0.3" x1="73.248" x2="73.254" y1="124.75" y2="125.864"/>
   <line stroke-width="0.3" x1="70.771" x2="70.897" y1="121.293" y2="121.365"/>
   <line stroke-width="0.3" x1="61.137" x2="61.262" y1="121.365" y2="121.293"/>
   <line stroke-width="0.3" x1="58.779" x2="58.784" y1="126.063" y2="124.75"/>
   <line stroke-width="0.3" x1="73.254" x2="73.254" y1="133.747" y2="133.461"/>
   <path d="M58.134 127.715L58.012 127.453" stroke-width="0.1"/>
   <path d="M74.022 125.257C73.554 125.829 73.338 126.337 73.01 127.046L72.5 128.145L72.156 129.129L71.998 129.616L71.665 129.808C71.039 129.75 70.423 129.717 69.793 129.707L67.289 130.094L65.987 130.295C65.352 130.431 64.715 130.735 64.115 130.977L63.661 130.907L63.234 130.514C63.09 130.387 62.445 129.824 62.29 129.723L61.151 129.066L60.643 128.774L59.503 128.116C59.094 127.908 58.578 127.82 58.134 127.715" stroke-width="0.1"/>
   <path d="M71.322 129.027L71.834 129.713L71.835 135.885" stroke-width="0.1"/>
   <path d="M73.25 124.816C73.405 125.207 73.486 125.527 73.519 125.947" stroke-width="0.1"/>
   <path d="M74.144 126.338C74.144 126.192 74.254 125.504 74.022 125.257L73.59 124.861L73.319 124.628" stroke-width="0.3"/>
   <path d="M58.012 127.456L58.012 133.608C58.027 133.866 58.459 134.171 58.56 134.263C58.704 134.39 59.35 134.954 59.503 135.054L60.643 135.711L61.151 136.003L62.29 136.662C62.436 136.736 63.058 136.914 63.228 136.96C63.911 137.139 64.614 137.198 65.317 137.223L65.987 137.234L68.492 136.847L69.793 136.645C70.007 136.599 70.861 136.284 71.075 136.203C71.28 136.123 71.784 135.965 71.998 135.771C72.477 135.34 72.772 134.496 73.01 133.984C73.617 132.675 73.429 133.175 73.864 131.901L74.022 131.413L74.144 126.338" stroke-width="0.3"/>
   <path d="M58.781 125.406C58.387 126.254 58.546 125.861 58.167 126.974L58.012 127.456" stroke-width="0.3"/>
   <g>
    <path d="M58.784 135.17C58.786 137.475 62.027 139.342 66.024 139.34C70.019 139.336 73.257 137.466 73.257 135.161" stroke-width="0.1"/>
   </g>
   <line stroke-width="0.1" x1="73.257" x2="73.257" y1="135.163" y2="133.657"/>
   <line stroke-width="0.3" x1="58.784" x2="58.784" y1="135.17" y2="134.459"/>
  </g>
  <line stroke-width="0.3" x1="41.682" x2="41.682" y1="76.225" y2="78.325"/>
  <line stroke-width="0.3" x1="41.682" x2="41.682" y1="97.927" y2="100.302"/>
  <path d="M68.075 124.037C68.075 121.304 67.447 119.165 66.426 117.43C65.698 116.194 64.766 115.161 63.685 114.275C61.435 112.433 58.496 111.254 55.545 110.111C53.036 109.14 50.518 108.204 48.618 106.659C47.923 106.096 47.32 105.444 46.853 104.662C46.174 103.518 45.801 102.099 45.801 100.302" stroke-width="0.3"/>
  <path d="M63.957 124.037C63.957 122.173 63.573 120.703 62.877 119.519C62.401 118.712 61.783 118.042 61.075 117.462C59.145 115.882 56.59 114.933 54.057 113.953C51.134 112.819 48.234 111.656 46.018 109.855C44.948 108.986 44.03 107.972 43.313 106.766C42.302 105.066 41.682 102.972 41.682 100.302" stroke-width="0.3"/>
  <line stroke-width="0.3" x1="45.932" x2="45.932" y1="76.225" y2="78.29"/>
  <path d="M45.93 76.225C45.93 73.286 45.164 70.228 43.817 67.097C40.905 60.326 35.218 53.134 29.475 45.918C23.274 38.128 16.989 30.323 14.586 22.94C13.659 20.088 13.332 17.314 13.946 14.649C14.843 10.771 17.725 7.208 23.213 3.899" stroke-width="0.3"/>
  <path d="M41.682 76.225C41.682 73.84 40.887 71.368 39.795 68.828C37.015 62.363 31.532 55.533 26.05 48.646C19.498 40.414 12.961 32.097 10.423 24.295C9.234 20.64 8.891 17.079 9.681 13.663C10.791 8.855 14.147 4.251 20.954 0.15" stroke-width="0.3"/>
  <line stroke-width="0.3" x1="63.957" x2="63.957" y1="124.037" y2="125.926"/>
  <line stroke-width="0.3" x1="68.075" x2="68.075" y1="124.037" y2="125.926"/>
 </g>
 <g id="Numerazione">
  <g class="callout callout_1">
   <g>
    <line stroke="#FFFFFF" stroke-width="1" x1="128.514" x2="147.481" y1="178.707" y2="175.671"/>
    <line stroke-width="0.1" x1="127.971" x2="148.025" y1="178.794" y2="175.585"/>
   </g>
   <path d="M145.467 179.106L150.582 179.106 150.582 172.063 145.467 172.063 145.467 179.106z" fill="#FFFFFF" stroke="none"/>
   <text fill="#000000" font-family="'Arial'" font-size="4.232" stroke="none" x="146.848" y="177.106"><desc>1</desc>1</text>
  </g>
  <g class="callout callout_2">
   <g>
    <line stroke="#FFFFFF" stroke-width="1" x1="98.046" x2="118.295" y1="147.735" y2="139.6"/>
    <line stroke-width="0.1" x1="97.536" x2="118.805" y1="147.941" y2="139.395"/>
   </g>
   <path d="M115.802 142.917L121.808 142.917 121.808 135.875 115.802 135.875 115.802 142.917z" fill="#FFFFFF" stroke="none"/>
   <text fill="#000000" font-family="'Arial'" font-size="4.232" stroke="none" x="117.628" y="140.917"><desc>2</desc>2</text>
  </g>
  <g class="callout callout_3">
   <g>
    <line stroke="#FFFFFF" stroke-width="1" x1="73.451" x2="118.284" y1="122.957" y2="107.554"/>
    <line stroke-width="0.1" x1="72.932" x2="118.805" y1="123.137" y2="107.376"/>
   </g>
   <path d="M115.813 110.924L121.798 110.924 121.798 103.826 115.813 103.826 115.813 110.924z" fill="#FFFFFF" stroke="none"/>
   <text fill="#000000" font-family="'Arial'" font-size="4.232" stroke="none" x="117.628" y="108.924"><desc>3</desc>3</text>
  </g>
  <g class="callout callout_4">
   <g>
    <line stroke="#FFFFFF" stroke-width="1" x1="73.79" x2="118.272" y1="134.801" y2="123.837"/>
    <line stroke-width="0.1" x1="73.257" x2="118.805" y1="134.933" y2="123.706"/>
   </g>
   <path d="M115.757 127.221L121.853 127.221 121.853 120.189 115.757 120.189 115.757 127.221z" fill="#FFFFFF" stroke="none"/>
   <text fill="#000000" font-family="'Arial'" font-size="4.232" stroke="none" x="117.628" y="125.221"><desc>4</desc>4</text>
  </g>
  <g class="callout callout_5">
   <g>
    <line stroke="#FFFFFF" stroke-width="1" x1="103.397" x2="131.126" y1="78.837" y2="74.751"/>
    <line stroke-width="0.1" x1="102.853" x2="131.669" y1="78.918" y2="74.671"/>
   </g>
   <path d="M128.664 78.191L134.674 78.191 134.674 71.15 128.664 71.15 128.664 78.191z" fill="#FFFFFF" stroke="none"/>
   <text fill="#000000" font-family="'Arial'" font-size="4.232" stroke="none" x="130.492" y="76.191"><desc>5</desc>5</text>
  </g>
  <g class="callout callout_6">
   <g>
    <line stroke="#FFFFFF" stroke-width="1" x1="28.435" x2="3.493" y1="52.838" y2="65.165"/>
    <line stroke-width="0.1" x1="28.928" x2="3" y1="52.594" y2="65.409"/>
   </g>
   <path d="M0 68.956L6.001 68.956 6.001 61.862 0 61.862 0 68.956z" fill="#FFFFFF" stroke="none"/>
   <text fill="#000000" font-family="'Arial'" font-size="4.232" stroke="none" x="1.823" y="66.956"><desc>6</desc>6</text>
  </g>
 </g>
  <path class="hotspot hotspot_1" d="M145.467 179.106L 150.582 179.106L 150.582 172.063L 145.467 172.063L 145.467 179.106z" fill="black" id="AUTOID_713751" stroke="black" visibility="hidden"/>
  <path class="hotspot hotspot_5" d="M128.664 78.191L 134.674 78.191L 134.674 71.15L 128.664 71.15L 128.664 78.191z" fill="black" id="AUTOID_713752" stroke="black" visibility="hidden"/>
  <path class="hotspot hotspot_2" d="M115.802 142.917L 121.808 142.917L 121.808 135.875L 115.802 135.875L 115.802 142.917z" fill="black" id="AUTOID_713753" stroke="black" visibility="hidden"/>
  <path class="hotspot hotspot_3" d="M115.813 110.924L 121.798 110.924L 121.798 103.826L 115.813 103.826L 115.813 110.924z" fill="black" id="AUTOID_713754" stroke="black" visibility="hidden"/>
  <path class="hotspot hotspot_6" d="M0 68.956L 6.001 68.956L 6.001 61.862L 0 61.862L 0 68.956z" fill="black" id="AUTOID_713755" stroke="black" visibility="hidden"/>
  <path class="hotspot hotspot_4" d="M115.757 127.221L 121.853 127.221L 121.853 120.189L 115.757 120.189L 115.757 127.221z" fill="black" id="AUTOID_713756" stroke="black" visibility="hidden"/>
</svg>