<?xml version="1.0" encoding="UTF-8" standalone="no"?><!-- Generator: PTC Arbortext IsoDraw 7.3 M090 --><svg xmlns="http://www.w3.org/2000/svg" xmlns:xlink="http://www.w3.org/1999/xlink" clip-rule="evenodd" fill="none" fill-rule="evenodd" font-family="sans-serif" font-size="10" font-stretch="normal" font-style="normal" font-variant="normal" font-weight="normal" height="410.041" id="Standard_x0020_layer" onabort="parent.dwImageSVGOnAbort('FVK126008841');" onerror="parent.dwImageSVGOnError('FVK126008841');" onload="parent.dwImageSVGOnLoad('FVK126008841');" stroke="#000000" stroke-linecap="round" viewBox="0.0 0.0 267.432 410.041" width="267.432" x="0" xml:space="preserve" y="0">
 <g id="01_0001_0156_0_3">
  <desc>01_0001_0156_0</desc>
  <line stroke-width="0.3" x1="224.406" x2="223.629" y1="335.511" y2="331.72"/>
  <line stroke-width="0.3" x1="224.406" x2="228.284" y1="335.511" y2="337.511"/>
  <line stroke-width="0.3" x1="221.567" x2="221.449" y1="342.853" y2="343.021"/>
  <line stroke-width="0.13" x1="227.354" x2="227.394" y1="335.074" y2="334.992"/>
  <path d="M224.27 342.261C223.933 342.87 223.349 343.076 222.687 343.125C222.275 343.088 221.951 343.007 221.567 342.853" stroke-width="0.3"/>
  <path d="M221.073 338.942C220.555 339.519 220.627 340.336 221.019 340.968C221.778 342.196 224.025 342.942 224.876 341.401" stroke-width="0.3"/>
  <path d="M221.878 337.795C221.36 338.377 221.433 339.194 221.83 339.829C222.594 341.055 224.83 341.788 225.681 340.254" stroke-width="0.3"/>
  <path d="M222.682 336.651C222.165 337.226 222.241 338.045 222.631 338.675C223.393 339.903 225.633 340.644 226.487 339.108" stroke-width="0.3"/>
  <path d="M223.491 335.502C222.973 336.084 223.045 336.899 223.442 337.535C224.206 338.761 226.443 339.495 227.294 337.959" stroke-width="0.3"/>
  <path d="M228.284 337.511L229.6 336.75L230.07 336.478L231.388 335.718L231.854 335.055L232.322 334.391C232.342 334.307 232.103 332.874 232.084 332.771L231.75 331.297L231.545 330.598C231.497 330.533 230.387 329.874 230.324 329.838C229.471 329.35 228.579 328.963 227.667 328.6" stroke-width="0.3"/>
  <path d="M223.629 331.72L224.563 330.391L225.237 329.961C226.027 329.468 226.836 329.021 227.667 328.6" stroke-width="0.3"/>
  <path d="M225.126 335.882C225.587 336.353 226.074 336.62 226.713 336.776" stroke-width="0.3"/>
  <path d="M224.093 334.644C223.478 335.331 223.712 336.322 224.265 336.973C224.973 337.807 226.318 338.305 227.325 337.706C227.58 337.553 227.61 337.485 227.802 337.266" stroke-width="0.3"/>
  <path d="M223.894 334.927C223.376 335.511 223.449 336.329 223.846 336.963C224.612 338.189 226.843 338.918 227.698 337.387" stroke-width="0.3"/>
  <path d="M224.193 334.471C223.699 335.173 223.95 336.079 224.469 336.689C225.288 337.651 226.712 338.014 227.764 337.242" stroke-width="0.3"/>
  <path d="M227.496 337.673C227.157 338.285 226.568 338.49 225.903 338.536C225.508 338.5 225.153 338.442 224.792 338.266C223.741 337.755 222.745 336.269 223.692 335.216" stroke-width="0.3"/>
  <path d="M227.389 337.048L227.271 337.077L226.911 337.103C225.877 337.009 225.01 336.514 224.526 335.574" stroke-width="0.3"/>
  <path d="M224.209 334.552C223.687 336.391 226.04 337.922 227.634 337.175" stroke-width="0.3"/>
  <path d="M227.127 336.915C226.526 336.723 226.021 336.454 225.514 336.083" stroke-width="0.3"/>
  <path d="M227.092 338.247C226.752 338.858 226.168 339.064 225.5 339.11C225.104 339.074 224.751 339.016 224.389 338.839C223.332 338.327 222.347 336.845 223.289 335.788" stroke-width="0.3"/>
  <path d="M226.89 338.533C226.554 339.144 225.967 339.348 225.304 339.396C224.906 339.362 224.55 339.302 224.187 339.127C223.133 338.615 222.144 337.13 223.087 336.074" stroke-width="0.3"/>
  <path d="M226.287 339.394C225.949 340.002 225.365 340.209 224.701 340.257C224.302 340.221 223.948 340.163 223.582 339.987C222.525 339.475 221.543 337.992 222.484 336.935" stroke-width="0.3"/>
  <path d="M222.887 336.362C222.367 336.944 222.442 337.761 222.837 338.396C223.604 339.622 225.836 340.353 226.689 338.819" stroke-width="0.3"/>
  <path d="M222.282 337.221C221.764 337.802 221.836 338.62 222.231 339.254C222.997 340.483 225.229 341.211 226.085 339.68" stroke-width="0.3"/>
  <path d="M222.08 337.509C221.562 338.086 221.634 338.903 222.026 339.535C222.786 340.762 225.033 341.509 225.883 339.966" stroke-width="0.3"/>
  <path d="M225.479 340.543C225.139 341.153 224.552 341.358 223.887 341.403C223.491 341.367 223.138 341.31 222.776 341.134C221.723 340.622 220.731 339.137 221.676 338.081" stroke-width="0.3"/>
  <path d="M225.074 341.117C224.735 341.725 224.151 341.93 223.487 341.978C223.091 341.942 222.736 341.882 222.372 341.706C221.317 341.196 220.331 339.713 221.274 338.656" stroke-width="0.3"/>
  <path d="M225.278 340.827C224.942 341.435 224.359 341.641 223.695 341.69C223.295 341.656 222.941 341.598 222.574 341.42C221.524 340.911 220.53 339.425 221.473 338.372" stroke-width="0.3"/>
  <path d="M224.674 341.687C224.336 342.295 223.753 342.502 223.09 342.55C222.689 342.516 222.336 342.458 221.969 342.281C220.913 341.769 219.93 340.286 220.871 339.228" stroke-width="0.3"/>
  <path d="M220.669 339.516C220.151 340.095 220.223 340.911 220.616 341.543C221.381 342.774 223.617 343.509 224.473 341.973" stroke-width="0.3"/>
  <path d="M221.462 343.002C222.103 343.281 222.816 343.425 223.467 343.079C223.718 342.946 223.752 342.882 223.948 342.682" stroke-width="0.3"/>
  <path d="M220.466 339.805C220.328 339.959 220.212 340.113 220.132 340.307C219.663 341.428 220.555 342.478 221.449 343.021" stroke-width="0.3"/>
  <path d="M224.193 342.401C223.769 342.886 223.336 343.053 222.699 343.1C222.354 343.069 222.281 343.083 221.947 342.975C220.943 342.651 219.938 341.625 220.131 340.49C220.177 340.211 220.23 340.163 220.364 339.92" stroke-width="0.13"/>
  <path d="M221.573 338.199C221.439 338.44 221.389 338.487 221.341 338.766C221.058 340.413 223.143 341.779 224.605 341.269C224.949 341.151 225.164 340.951 225.4 340.685" stroke-width="0.13"/>
  <path d="M222.376 337.055C222.245 337.298 222.193 337.346 222.145 337.624C221.868 339.273 223.957 340.637 225.42 340.12C225.76 339.999 225.975 339.8 226.207 339.535" stroke-width="0.13"/>
  <path d="M223.183 335.906C223.051 336.148 223.001 336.196 222.953 336.473C222.671 338.12 224.757 339.485 226.219 338.975C226.562 338.855 226.777 338.656 227.012 338.391" stroke-width="0.13"/>
  <path d="M223.991 334.757C223.859 335 223.806 335.048 223.758 335.329C223.659 335.915 223.911 336.511 224.284 336.952C224.991 337.785 226.336 338.278 227.341 337.682C227.592 337.533 227.617 337.471 227.801 337.262" stroke-width="0.13"/>
  <path d="M228.284 337.511L229.218 336.182L229.893 335.752C230.682 335.259 231.491 334.812 232.322 334.391" stroke-width="0.13"/>
  <path d="M229.218 336.182C227.978 335.382 226.71 334.732 225.34 334.182" stroke-width="0.13"/>
  <path d="M224.563 330.391C224.848 331.367 225.081 332.341 225.229 333.348L225.34 334.182L224.406 335.511" stroke-width="0.13"/>
  <path d="M225.207 335.925C225.596 336.322 226.05 336.576 226.586 336.718" stroke-width="0.13"/>
  <path d="M224.213 334.572C223.71 336.367 226.07 337.887 227.618 337.168" stroke-width="0.13"/>
  <path d="M227.756 337.237C227.364 337.526 227.002 337.619 226.52 337.653C226.175 337.62 226.104 337.634 225.77 337.524C224.768 337.199 223.766 336.173 223.961 335.038C224.008 334.761 224.06 334.713 224.193 334.471" stroke-width="0.13"/>
  <path d="M223.788 335.048C223.656 335.29 223.604 335.338 223.556 335.615C223.278 337.262 225.361 338.625 226.824 338.115C227.167 337.995 227.383 337.795 227.616 337.531" stroke-width="0.13"/>
  <path d="M223.588 335.329C223.456 335.572 223.403 335.62 223.356 335.899C223.073 337.548 225.164 338.916 226.628 338.399C226.969 338.278 227.185 338.079 227.418 337.814" stroke-width="0.13"/>
  <path d="M227.361 337.035L227.295 337.052L226.931 337.079C225.929 336.99 225.039 336.514 224.568 335.595" stroke-width="0.13"/>
  <path d="M223.383 335.624C223.252 335.865 223.2 335.913 223.153 336.19C222.877 337.839 224.965 339.204 226.427 338.685C226.769 338.565 226.983 338.367 227.216 338.101" stroke-width="0.13"/>
  <path d="M221.977 337.625C221.843 337.865 221.792 337.913 221.743 338.19C221.459 339.843 223.556 341.213 225.02 340.692C225.36 340.571 225.574 340.37 225.806 340.105" stroke-width="0.13"/>
  <path d="M222.984 336.192C222.852 336.432 222.799 336.482 222.752 336.759C222.468 338.41 224.561 339.776 226.025 339.259C226.366 339.139 226.58 338.939 226.812 338.675" stroke-width="0.13"/>
  <path d="M222.58 336.764C222.448 337.007 222.395 337.053 222.348 337.333C222.066 338.98 224.151 340.346 225.615 339.836C225.957 339.716 226.174 339.516 226.407 339.25" stroke-width="0.13"/>
  <path d="M222.78 336.482C222.647 336.723 222.596 336.771 222.55 337.05C222.271 338.697 224.355 340.06 225.818 339.548C226.161 339.428 226.376 339.228 226.61 338.963" stroke-width="0.13"/>
  <path d="M222.175 337.341C222.044 337.581 221.992 337.629 221.944 337.908C221.664 339.555 223.748 340.92 225.211 340.408C225.554 340.29 225.77 340.091 226.003 339.826" stroke-width="0.13"/>
  <path d="M225.602 340.396C225.176 340.879 224.742 341.048 224.106 341.093C223.762 341.062 223.688 341.074 223.355 340.966C222.352 340.641 221.35 339.619 221.542 338.485C221.587 338.206 221.639 338.158 221.771 337.915" stroke-width="0.13"/>
  <path d="M221.371 338.487C221.237 338.73 221.186 338.778 221.139 339.057C220.86 340.706 222.95 342.072 224.413 341.553C224.753 341.432 224.967 341.233 225.2 340.968" stroke-width="0.13"/>
  <path d="M224.996 341.259C224.568 341.742 224.133 341.908 223.497 341.954C223.152 341.922 223.08 341.935 222.748 341.826C221.746 341.5 220.745 340.475 220.937 339.341C220.985 339.064 221.036 339.016 221.168 338.774" stroke-width="0.13"/>
  <path d="M224.799 341.54C224.375 342.024 223.939 342.192 223.304 342.24C222.957 342.209 222.884 342.223 222.55 342.115C221.544 341.788 220.539 340.759 220.736 339.624C220.784 339.346 220.836 339.298 220.968 339.057" stroke-width="0.13"/>
  <path d="M224.594 341.829C224.169 342.312 223.735 342.48 223.099 342.526C222.756 342.497 222.681 342.509 222.348 342.401C221.344 342.076 220.343 341.052 220.533 339.918C220.58 339.639 220.633 339.591 220.764 339.348" stroke-width="0.13"/>
  <path d="M220.564 339.634C220.431 339.875 220.381 339.923 220.332 340.201C220.05 341.848 222.138 343.214 223.599 342.702C223.943 342.583 224.157 342.384 224.391 342.119" stroke-width="0.13"/>
  <path d="M225.058 331.591C225.086 331.165 225.133 330.786 225.332 330.399C225.884 329.333 227.134 328.94 228.266 329.093C229.729 329.29 231.097 330.29 231.701 331.641C232.228 332.814 232.062 334.274 230.923 335.019C230.412 335.353 229.858 335.439 229.26 335.473C227.467 335.343 225.735 334.25 225.195 332.459C225.08 332.074 225.092 331.985 225.058 331.591z" stroke-width="0.13"/>
 </g>
 <g id="01_0031_0054_0_3">
  <desc>01_0031_0054_0</desc>
  <line stroke-width="0.13" x1="211.252" x2="211.235" y1="355.343" y2="355.365"/>
  <line stroke-width="0.13" x1="211.252" x2="211.211" y1="355.343" y2="355.331"/>
  <line stroke-width="0.13" x1="209.862" x2="209.747" y1="356.38" y2="356.211"/>
  <path d="M204.373 354.475C204.114 354.872 203.911 355.242 203.819 355.714C203.625 356.723 203.931 357.767 204.478 358.617C205.7 360.519 208.433 361.841 210.611 360.79C211.049 360.577 211.358 360.288 211.68 359.934" stroke-width="0.13"/>
  <path d="M204.923 358.963L204.801 359.067L204.453 359.564" stroke-width="0.13"/>
  <path d="M203.911 356.149C203.925 356.744 204.007 357.271 204.241 357.822" stroke-width="0.13"/>
  <path d="M211.893 356.473C211.05 354.495 209.044 353.331 206.943 353.31C206.519 353.357 206.389 353.35 205.981 353.48C205.114 353.757 204.393 354.392 204.084 355.259C203.949 355.636 203.957 355.754 203.911 356.149" stroke-width="0.13"/>
  <path d="M212.223 358.146C212.176 358.54 212.186 358.66 212.05 359.036C211.741 359.901 211.02 360.538 210.152 360.814C209.746 360.944 209.616 360.937 209.191 360.985C207.09 360.963 205.085 359.8 204.241 357.822" stroke-width="0.13"/>
  <path d="M204.373 354.475L204.025 354.973L203.777 355.35C203.475 355.903 203.368 356.543 203.426 357.165C203.616 359.196 205.348 360.877 207.239 361.437C208.221 361.728 209.324 361.738 210.263 361.286C210.895 360.98 211.292 360.502 211.68 359.934C212.037 359.41 212.26 358.867 212.289 358.225C212.329 357.363 212.038 356.512 211.576 355.793C210.538 354.177 208.764 353.288 206.872 353.269C206.211 353.343 205.598 353.471 205.037 353.855C204.697 354.086 204.647 354.175 204.373 354.475z" stroke-width="0.3"/>
  <path d="M206.306 358.197L206.034 357.855C205.829 357.509 205.746 357.17 205.688 356.778" stroke-width="0.13"/>
  <path d="M205.848 355.937C205.973 355.663 206.145 355.494 206.368 355.297" stroke-width="0.13"/>
  <path d="M210.014 358.607C209.57 359.107 209.117 359.271 208.456 359.305C208.097 359.266 208.014 359.278 207.667 359.156C206.584 358.779 205.556 357.642 205.781 356.423C205.836 356.12 205.893 356.067 206.038 355.803" stroke-width="0.3"/>
  <path d="M205.888 356.076C206.21 355.713 206.786 355.586 207.247 355.6C208.338 355.632 209.407 356.384 209.802 357.403C209.967 357.824 210.046 358.413 209.817 358.831" stroke-width="0.3"/>
  <path d="M209.867 356.108L209.747 356.211L209.397 356.709" stroke-width="0.13"/>
  <path d="M209.867 356.108C210.186 356.564 210.365 356.964 210.445 357.516" stroke-width="0.13"/>
  <path d="M209.765 358.997C209.99 358.8 210.161 358.63 210.287 358.358" stroke-width="0.13"/>
  <path d="M205.848 355.937C205.718 356.218 205.699 356.471 205.688 356.778" stroke-width="0.13"/>
  <path d="M206.4 355.451C207.514 354.641 208.929 355.331 209.747 356.211" stroke-width="0.13"/>
  <path d="M206.368 355.297C206.64 355.141 206.691 355.088 207.002 355.011C207.963 354.773 208.862 355.201 209.586 355.802" stroke-width="0.13"/>
  <path d="M209.765 358.997C209.425 359.192 209.156 359.281 208.769 359.341C207.889 359.338 207.222 359.052 206.549 358.494" stroke-width="0.13"/>
  <path d="M212.223 358.146C212.209 357.55 212.127 357.023 211.893 356.473" stroke-width="0.13"/>
 </g>
 <g id="01_0003_0108_0_2">
  <desc>01_0003_0108_0</desc>
  <line stroke-width="0.13" x1="45.753" x2="45.753" y1="124.45" y2="135.817"/>
  <line stroke-width="0.13" x1="48.353" x2="48.831" y1="119.016" y2="120.045"/>
  <line stroke-width="0.13" x1="48.415" x2="48.915" y1="118.918" y2="119.995"/>
  <line stroke-width="0.13" x1="45.685" x2="45.185" y1="120.495" y2="119.418"/>
  <line stroke-width="0.3" x1="45.743" x2="45.265" y1="120.501" y2="119.471"/>
  <line stroke-width="0.3" x1="45.27" x2="45.265" y1="119.493" y2="119.471"/>
  <path d="M45.034 120.87C44.886 120.98 44.768 121.143 44.765 121.335L44.765 124.004C44.765 124.058 44.795 124.084 44.845 124.078" stroke-width="0.13"/>
  <path d="M43.822 122.756C43.962 123.472 44.473 123.906 45.131 124.186C46.252 124.664 47.628 124.679 48.768 124.265C49.542 123.984 50.222 123.483 50.279 122.615" stroke-width="0.13"/>
  <path d="M45.753 135.817C46.6 136.217 47.5 136.217 48.347 135.817" stroke-width="0.13"/>
  <path d="M44.686 118.623C44.463 118.798 44.362 118.852 44.192 119.078L44.037 119.331C43.63 120.209 44.469 120.936 45.198 121.246C46.387 121.754 47.921 121.74 49.085 121.162C49.81 120.802 50.493 120.027 49.994 119.203C49.853 118.971 49.761 118.912 49.56 118.728" stroke-width="0.13"/>
  <path d="M48.725 118.376C49.003 118.512 49.118 118.549 49.357 118.74C50.046 119.29 50.046 120.125 49.357 120.673C48.704 121.194 47.859 121.316 47.051 121.352C46.243 121.316 45.396 121.194 44.743 120.673C44.183 120.227 44.012 119.525 44.511 118.959C44.831 118.596 45.295 118.376 45.752 118.242C46.743 117.948 47.762 118.034 48.725 118.376z" stroke-width="0.13"/>
  <path d="M45.274 119.49L46.573 118.74L48.353 119.016" stroke-width="0.13"/>
  <path d="M43.822 120.087C43.962 120.804 44.473 121.237 45.131 121.518C46.252 121.995 47.628 122.01 48.768 121.596C49.542 121.316 50.222 120.814 50.279 119.947" stroke-width="0.13"/>
  <path d="M45.685 120.495L47.549 120.784L48.915 119.995" stroke-width="0.13"/>
  <path d="M49.066 118.543C49.161 118.503 49.219 118.49 49.298 118.563" stroke-width="0.13"/>
  <path d="M48.415 118.918L46.551 118.629L45.185 119.418" stroke-width="0.13"/>
  <path d="M48.054 118.091C47.466 118.001 47.764 118.033 47.164 117.993C46.164 118.016 44.968 118.185 44.259 118.981C43.648 119.671 43.822 120.546 43.822 121.421L43.822 122.756C43.823 122.87 43.851 123.009 43.899 123.114C44.335 124.078 45.408 124.423 46.38 124.572C47.508 124.748 49.057 124.521 49.868 123.635C50.468 122.98 50.279 122.115 50.279 121.281C50.279 120.471 50.445 119.614 49.841 118.981L49.56 118.728L49.256 118.525C48.957 118.352 48.835 118.325 48.508 118.206" stroke-width="0.3"/>
  <path d="M48.863 120.001L47.533 120.768L45.731 120.489" stroke-width="0.3"/>
  <path d="M45.218 124.275L45.218 125.796L45.216 133.548L45.216 135.068L45.252 135.274C45.378 135.643 45.793 135.879 46.137 136.013C46.932 136.318 48.204 136.228 48.744 135.473C49.076 135.01 48.884 133.728 48.884 133.548L48.883 125.795L48.883 124.275" stroke-width="0.3"/>
  <path d="M48.064 120.46L46.573 120.23L46.042 120.537" stroke-width="0.13"/>
  <path d="M46.573 120.23L46.573 118.74L46.57 118.697" stroke-width="0.13"/>
  <path d="M48.353 120.295L48.353 119.016L48.365 118.974" stroke-width="0.13"/>
 </g>
 <g id="01_0031_0053_0_5">
  <desc>01_0031_0053_0</desc>
  <line stroke-width="0.13" x1="91.585" x2="91.382" y1="317.995" y2="317.877"/>
  <path d="M91.408 321.485C90.492 322.014 89.504 322.16 88.46 322.16C87.796 322.105 87.153 322.012 86.534 321.745C86.075 321.547 85.609 321.266 85.289 320.877C84.707 320.172 84.778 319.009 85.408 318.362C86.301 317.446 87.757 317.161 88.983 317.213C89.888 317.25 90.828 317.476 91.585 317.995C91.971 318.261 92.328 318.603 92.465 319.064C92.545 319.327 92.525 319.588 92.519 319.86C92.512 320.189 92.444 320.463 92.257 320.74C92.034 321.065 91.731 321.271 91.408 321.485z" stroke-width="0.3"/>
  <path d="M86.709 319.384C86.82 318.92 87.143 318.653 87.582 318.478C88.242 318.218 89.028 318.206 89.7 318.422C90.23 318.593 90.686 318.908 90.733 319.492" stroke-width="0.13"/>
  <path d="M90.271 319.192C89.742 318.887 89.233 318.788 88.628 318.773C88.141 318.812 87.736 318.901 87.296 319.112" stroke-width="0.13"/>
  <path d="M87.188 318.43C87.379 318.759 87.296 318.543 87.296 319.112" stroke-width="0.13"/>
  <path d="M86.338 320.901C85.591 320.528 84.811 319.781 85.156 318.865L85.302 318.577C85.516 318.245 85.817 318.04 86.141 317.824" stroke-width="0.13"/>
  <path d="M85.856 321.377C87.555 322.357 89.667 322.362 91.408 321.485" stroke-width="0.13"/>
  <path d="M91.301 320.803C91.95 320.37 92.608 319.723 92.286 318.867L92.14 318.579C91.974 318.321 91.87 318.257 91.641 318.052" stroke-width="0.13"/>
  <path d="M91.408 320.99C92.034 320.574 92.472 320.141 92.519 319.362" stroke-width="0.13"/>
  <path d="M91.408 321.485C91.408 320.918 91.49 321.132 91.301 320.803" stroke-width="0.13"/>
  <path d="M84.923 319.512C85.061 320.295 85.558 320.709 86.222 321.091" stroke-width="0.13"/>
  <path d="M90.253 320.197C89.78 320.425 89.343 320.521 88.82 320.562C88.168 320.545 87.62 320.44 87.051 320.11" stroke-width="0.3"/>
  <path d="M87.248 319.146C88.254 318.663 89.417 318.701 90.384 319.257" stroke-width="0.3"/>
  <path d="M90.194 320.226C90.484 320.024 90.649 319.838 90.733 319.492" stroke-width="0.3"/>
  <path d="M90.271 319.192C90.456 319.348 90.591 319.468 90.683 319.694" stroke-width="0.3"/>
  <path d="M86.757 319.677C86.819 319.42 87.099 319.249 87.296 319.112" stroke-width="0.3"/>
  <path d="M87.168 320.178C86.887 319.94 86.739 319.757 86.709 319.384" stroke-width="0.3"/>
  <path d="M90.253 320.197C90.454 320.057 90.554 320.012 90.703 319.817C91.06 319.351 90.828 318.824 90.391 318.516C89.867 318.151 89.239 318.081 88.62 318.064L88.224 318.096L87.846 318.17C87.21 318.331 86.204 318.913 86.665 319.709C86.781 319.911 86.875 319.961 87.051 320.11" stroke-width="0.13"/>
  <path d="M86.222 321.091C87.894 321.824 89.772 321.814 91.408 320.99" stroke-width="0.13"/>
 </g>
 <g id="01_0031_0053_0_4">
  <desc>01_0031_0053_0</desc>
  <line stroke-width="0.13" x1="50.124" x2="49.92" y1="158.485" y2="158.366"/>
  <path d="M49.947 161.974C49.03 162.504 48.042 162.649 46.999 162.649C46.334 162.593 45.691 162.502 45.073 162.234C44.613 162.036 44.149 161.757 43.826 161.366C43.246 160.661 43.316 159.498 43.945 158.852C44.838 157.935 46.295 157.651 47.521 157.701C48.427 157.74 49.366 157.966 50.124 158.485C50.509 158.75 50.866 159.092 51.005 159.554C51.082 159.817 51.064 160.076 51.057 160.348C51.049 160.677 50.982 160.953 50.795 161.229C50.572 161.555 50.27 161.76 49.947 161.974z" stroke-width="0.3"/>
  <path d="M45.246 159.873C45.359 159.408 45.68 159.141 46.121 158.967C46.78 158.706 47.566 158.694 48.238 158.911C48.77 159.081 49.225 159.397 49.271 159.98" stroke-width="0.13"/>
  <path d="M48.808 159.681C48.28 159.376 47.771 159.277 47.165 159.262C46.679 159.3 46.274 159.389 45.835 159.6" stroke-width="0.13"/>
  <path d="M45.726 158.919C45.917 159.247 45.835 159.032 45.835 159.6" stroke-width="0.13"/>
  <path d="M44.877 161.39C44.13 161.018 43.348 160.27 43.694 159.354L43.841 159.067C44.055 158.734 44.356 158.528 44.679 158.313" stroke-width="0.13"/>
  <path d="M44.395 161.866C46.093 162.846 48.204 162.852 49.947 161.974" stroke-width="0.13"/>
  <path d="M49.838 161.293C50.488 160.86 51.146 160.211 50.825 159.355L50.677 159.068C50.512 158.81 50.408 158.746 50.179 158.54" stroke-width="0.13"/>
  <path d="M49.947 161.479C50.573 161.063 51.012 160.631 51.057 159.852" stroke-width="0.13"/>
  <path d="M49.947 161.974C49.947 161.407 50.029 161.622 49.838 161.293" stroke-width="0.13"/>
  <path d="M43.46 160.002C43.6 160.783 44.097 161.198 44.762 161.58" stroke-width="0.13"/>
  <path d="M48.79 160.687C48.317 160.913 47.881 161.009 47.359 161.051C46.707 161.034 46.158 160.93 45.588 160.599" stroke-width="0.3"/>
  <path d="M45.786 159.634C46.792 159.152 47.956 159.191 48.921 159.746" stroke-width="0.3"/>
  <path d="M48.731 160.716C49.023 160.513 49.188 160.328 49.271 159.98" stroke-width="0.3"/>
  <path d="M48.808 159.681C48.993 159.836 49.13 159.959 49.222 160.185" stroke-width="0.3"/>
  <path d="M45.295 160.165C45.359 159.908 45.637 159.737 45.835 159.6" stroke-width="0.3"/>
  <path d="M45.707 160.668C45.424 160.43 45.277 160.247 45.246 159.873" stroke-width="0.3"/>
  <path d="M48.79 160.687C48.993 160.546 49.093 160.502 49.241 160.306C49.597 159.841 49.368 159.312 48.929 159.006C48.406 158.64 47.777 158.569 47.158 158.554L46.762 158.586L46.384 158.658C45.749 158.82 44.743 159.401 45.204 160.199C45.32 160.4 45.412 160.449 45.588 160.599" stroke-width="0.13"/>
  <path d="M44.762 161.58C46.432 162.312 48.31 162.302 49.947 161.479" stroke-width="0.13"/>
 </g>
 <g id="08_0554_0168_0">
  <desc>08_0554_0168_0</desc>
  <line stroke-width="0.3" x1="83.772" x2="83.772" y1="38.936" y2="24.789"/>
  <line stroke-width="0.3" x1="135.442" x2="135.442" y1="24.794" y2="38.125"/>
  <line stroke-width="0.3" x1="83.772" x2="83.772" y1="38.125" y2="38.936"/>
  <line stroke-width="0.13" x1="91.332" x2="91.332" y1="31.256" y2="49.081"/>
  <line stroke-width="0.13" x1="81.884" x2="81.865" y1="52.182" y2="53.009"/>
  <path d="M84.516 25.844C85.186 26.644 85.868 27.403 86.653 28.097C89.963 31.016 94.182 32.829 98.415 33.936C105.459 35.776 113.087 35.819 120.159 34.097C124.123 33.131 128.055 31.561 131.334 29.094C133.495 27.466 135.257 25.46 136.413 23.007C137.236 21.263 137.349 19.425 137.349 17.533C137.349 16.611 137.338 15.701 137.152 14.795C136.764 12.903 135.889 11.15 134.699 9.632C131.862 6.012 127.57 3.726 123.284 2.282C118.975 0.832 114.486 0.251 109.956 0.15C108.096 0.164 106.246 0.231 104.397 0.44C102.599 0.643 100.813 0.953 99.055 1.381C97.796 1.688 96.557 2.063 95.331 2.49C92.545 3.463 89.841 4.833 87.522 6.666C85.778 8.044 84.225 9.702 83.182 11.679C82.75 12.494 82.444 13.343 82.191 14.23C81.933 15.137 81.875 16.077 81.865 17.013C81.852 18.236 81.814 19.478 82.061 20.682C82.457 22.609 83.364 24.269 84.516 25.844z" stroke-width="0.3"/>
  <path d="M135.442 38.933C135.364 39.762 135.252 40.546 134.989 41.341C133.725 45.143 130.305 47.854 126.868 49.634C126.159 50.003 125.427 50.341 124.688 50.646C123.918 50.966 123.123 51.259 122.329 51.518C121.082 51.926 119.811 52.262 118.528 52.533C117.194 52.817 115.846 53.031 114.492 53.182C112.641 53.387 110.792 53.445 108.93 53.445C107.075 53.389 105.236 53.277 103.397 53.014C102.061 52.823 100.733 52.567 99.423 52.243C98.575 52.033 97.739 51.795 96.906 51.524C96.111 51.265 95.311 50.972 94.537 50.652C93.798 50.345 93.066 50.008 92.355 49.64C88.918 47.859 85.492 45.149 84.227 41.344C83.963 40.549 83.85 39.765 83.772 38.936" stroke-width="0.13"/>
  <path d="M83.772 35.933C83.501 36.991 83.328 38.024 83.403 39.121C83.736 44.06 87.986 47.668 92.081 49.792C95.492 51.561 99.256 52.624 103.045 53.189C107.605 53.869 112.29 53.837 116.84 53.084C119.816 52.59 122.757 51.783 125.521 50.564C126.242 50.246 126.957 49.896 127.649 49.518C131.433 47.447 135.241 44.088 135.771 39.548C135.835 39.015 135.848 38.475 135.812 37.939C135.765 37.262 135.635 36.609 135.442 35.962" stroke-width="0.13"/>
  <path d="M83.772 33.814C83.277 34.624 82.896 35.512 82.644 36.427C82.424 37.231 82.308 38.06 82.308 38.893C82.308 43.872 86.28 47.716 90.304 50.039C90.995 50.438 91.704 50.804 92.427 51.143C95.621 52.636 99.063 53.579 102.542 54.118C107.209 54.84 112.004 54.84 116.673 54.118C120.546 53.518 124.388 52.418 127.873 50.606C128.563 50.247 129.24 49.859 129.895 49.439C133.521 47.113 136.907 43.457 136.907 38.893C136.907 38.06 136.79 37.231 136.57 36.427C136.318 35.512 135.938 34.624 135.442 33.814" stroke-width="0.13"/>
  <path d="M81.865 39.978C81.921 40.822 82.012 41.625 82.251 42.439C83.606 47.073 87.936 50.244 92.111 52.203C95.718 53.896 99.638 54.901 103.582 55.408C110.85 56.341 118.555 55.674 125.391 52.945C126.156 52.64 126.914 52.304 127.653 51.939C131.734 49.92 135.929 46.67 137.074 42.033C137.276 41.21 137.33 40.408 137.349 39.564" stroke-width="0.13"/>
  <path d="M91.063 49.235C90.492 49.609 90.072 50.244 89.998 50.932L89.989 51.097L89.989 52.618L89.989 62.61L89.989 64.132" stroke-width="0.13"/>
  <path d="M81.921 19.701C82.052 20.545 82.215 21.347 82.525 22.147C84.149 26.362 88.162 29.248 92.111 31.1C95.718 32.793 99.638 33.798 103.582 34.305C110.85 35.24 118.555 34.573 125.391 31.844C126.159 31.536 126.912 31.204 127.653 30.836C131.509 28.929 135.403 25.974 136.836 21.745C137.11 20.936 137.236 20.132 137.33 19.289" stroke-width="0.13"/>
  <path d="M89.319 5.384C87.584 6.559 85.957 7.847 84.668 9.519C83.933 10.471 83.32 11.522 82.905 12.653C82.614 13.442 82.421 14.268 82.346 15.105C82.296 15.654 82.296 16.205 82.346 16.754C82.802 21.792 87.141 25.46 91.34 27.643C94.826 29.455 98.67 30.556 102.542 31.155C107.209 31.876 112.004 31.876 116.673 31.155C120.15 30.615 123.593 29.672 126.787 28.178C127.51 27.841 128.219 27.474 128.911 27.074C132.935 24.751 136.907 20.908 136.907 15.931C136.907 15.098 136.79 14.268 136.57 13.464C136.258 12.33 135.743 11.259 135.093 10.282C133.956 8.573 132.45 7.235 130.823 6.011" stroke-width="0.13"/>
  <path d="M130.447 6.384C131.882 7.469 133.182 8.743 134.167 10.259C134.788 11.215 135.272 12.263 135.554 13.371C135.753 14.159 135.848 14.97 135.829 15.781C135.737 19.49 133.292 22.608 130.445 24.759C128.27 26.402 125.78 27.609 123.213 28.51C118.939 30.007 114.465 30.602 109.956 30.705C105.852 30.675 101.784 30.24 97.831 29.094C96.615 28.742 95.418 28.327 94.251 27.839C93.516 27.533 92.789 27.196 92.081 26.829C87.986 24.704 83.736 21.097 83.403 16.158C83.367 15.622 83.381 15.082 83.442 14.548C83.572 13.445 83.911 12.375 84.405 11.382C84.948 10.291 85.674 9.295 86.503 8.404C87.95 6.847 89.707 5.596 91.566 4.578C94.515 2.966 97.757 1.911 101.043 1.256C106.879 0.093 113.01 0.131 118.825 1.393C122.95 2.287 127.057 3.819 130.447 6.384z" stroke-width="0.13"/>
  <path d="M91.063 26.272C90.492 26.646 90.072 27.28 89.998 27.968L89.989 28.135L89.989 29.065C89.989 29.557 89.799 30.472 90.409 30.737" stroke-width="0.13"/>
  <path d="M137.349 16.602C137.33 17.443 137.276 18.246 137.074 19.068C135.929 23.707 131.734 26.957 127.653 28.975C126.912 29.341 126.158 29.675 125.391 29.981C124.59 30.3 123.781 30.588 122.96 30.849C121.679 31.254 120.376 31.593 119.058 31.867C117.694 32.154 116.316 32.371 114.933 32.529C113.042 32.741 111.152 32.811 109.25 32.825C107.352 32.783 105.468 32.686 103.582 32.444C102.207 32.268 100.84 32.029 99.486 31.722C98.186 31.428 96.897 31.071 95.632 30.646C94.825 30.373 94.027 30.074 93.242 29.742C92.489 29.425 91.75 29.079 91.025 28.702C87.259 26.74 83.49 23.713 82.251 19.477C82.012 18.661 81.921 17.858 81.865 17.013" stroke-width="0.13"/>
  <path d="M128.151 4.86C128.444 4.713 128.723 4.647 129.003 4.854" stroke-width="0.13"/>
  <path d="M93.561 32.298C94.766 32.777 95.969 33.225 97.213 33.591C101.683 34.905 106.385 35.427 111.036 35.286C115.6 35.149 120.191 34.372 124.475 32.765C125.641 32.329 126.757 31.811 127.873 31.26" stroke-width="0.13"/>
  <path d="M135.442 33.652C136.408 35.194 137.021 36.774 137.282 38.579C137.397 39.389 137.349 40.286 137.349 41.085L137.348 51.079C137.348 52.734 137.372 54.298 136.835 55.883C135.659 59.35 132.775 61.981 129.723 63.837C123.62 67.546 116.317 68.766 109.278 68.822C102.272 68.67 94.992 67.367 89.001 63.53C86.034 61.63 83.266 58.945 82.251 55.475C81.864 54.149 81.865 52.86 81.865 51.488L81.865 41.497C81.865 40.39 81.816 39.268 81.989 38.168C82.239 36.57 82.864 34.985 83.772 33.648" stroke-width="0.3"/>
 </g>
 <g id="08_0554_0167_0">
  <desc>08_0554_0167_0</desc>
  <line stroke-width="0.3" x1="130.37" x2="130.868" y1="179.526" y2="178.604"/>
  <line stroke-width="0.13" x1="136.163" x2="136.163" y1="194.699" y2="196.556"/>
  <line stroke-width="0.13" x1="136.163" x2="136.163" y1="168.322" y2="170.179"/>
  <line stroke-width="0.13" x1="73.73" x2="73.704" y1="185.937" y2="187.068"/>
  <line stroke-width="0.13" x1="90.477" x2="90.477" y1="194.699" y2="196.556"/>
  <path d="M127.129 116.423C125.23 115.713 123.316 115.1 121.334 114.667C118.162 113.971 114.948 113.704 111.706 113.647C108.465 113.704 105.253 113.971 102.079 114.667C100.099 115.1 98.183 115.713 96.284 116.423" stroke-width="0.3"/>
  <path d="M92.995 179.384C91.275 176.449 89.659 173.468 88.415 170.295C86.45 165.287 85.099 160.073 84.43 154.731C84.049 151.685 83.962 148.612 83.962 145.544L83.962 131.828C83.962 130.342 83.915 128.828 84.382 127.391C84.62 126.659 84.819 126.091 85.167 125.4C86.397 122.942 88.426 120.944 90.665 119.391C92.4 118.189 94.262 117.281 96.2 116.459" stroke-width="0.3"/>
  <path d="M86.584 169.209C86.641 170.145 87.736 170.475 88.522 170.55" stroke-width="0.3"/>
  <path d="M136.377 166.461C137.251 166.893 138.099 167.368 138.932 167.876C143.356 170.564 147.49 174.417 149.066 179.495C149.778 181.789 149.733 184.126 149.71 186.502C149.7 187.423 149.701 187.848 149.558 188.76C149.252 190.718 148.491 192.584 147.441 194.258C146.245 196.164 144.688 197.828 142.966 199.266C139.883 201.841 136.257 203.724 132.514 205.139C127.579 207.003 122.349 208.072 117.097 208.506C115.15 208.667 113.203 208.711 111.251 208.727C109.299 208.683 107.353 208.612 105.409 208.425C100.186 207.919 94.99 206.777 90.109 204.831C86.433 203.366 82.881 201.426 79.902 198.796C78.242 197.332 76.76 195.645 75.652 193.724C74.673 192.028 73.998 190.15 73.78 188.199C73.671 187.223 73.704 186.56 73.704 185.549C73.704 184.686 73.653 183.707 73.73 182.835C73.829 181.694 74.009 180.59 74.349 179.495C76.239 173.407 81.606 169.286 87.034 166.46" stroke-width="0.3"/>
  <path d="M130.419 179.384L131.719 177.176C133.414 174.149 134.847 170.945 135.985 167.668C137.411 163.572 138.413 159.295 138.953 154.992C139.344 151.855 139.451 148.703 139.451 145.544L139.451 131.828C139.451 130.908 139.508 129.887 139.362 128.961C138.957 126.391 137.75 123.974 135.921 122.111C134.764 120.933 133.526 119.882 132.14 118.978C130.581 117.962 128.923 117.185 127.215 116.459" stroke-width="0.3"/>
  <path d="M136.83 169.296C136.676 170.159 135.659 170.503 134.884 170.552" stroke-width="0.3"/>
  <path d="M85.486 128.842C85.563 127.881 85.682 126.983 86.003 126.067C87.418 122.028 91.188 119.233 94.902 117.444C95.754 117.033 96.614 116.67 97.501 116.34C100.632 115.176 103.933 114.483 107.251 114.153C112.022 113.679 116.884 113.948 121.555 115.042C125.402 115.942 129.205 117.399 132.401 119.766C133.634 120.68 134.775 121.742 135.707 122.965C136.518 124.028 137.174 125.221 137.554 126.506C137.82 127.408 137.953 128.35 137.929 129.292C137.802 134.195 133.729 137.883 129.719 140.069C128.919 140.507 128.081 140.907 127.242 141.264C126.356 141.639 125.439 141.979 124.525 142.275C120.503 143.576 116.331 144.091 112.12 144.205C105.183 144.141 97.957 142.949 92.048 139.086C89.329 137.308 86.805 134.818 85.861 131.627C85.587 130.7 85.513 129.8 85.486 128.842z" stroke-width="0.13"/>
  <path d="M133.197 119.709C134.73 120.914 136.152 122.197 137.231 123.84C137.793 124.694 138.25 125.615 138.558 126.588C138.754 127.204 138.889 127.835 138.956 128.479C139.022 129.112 139.022 129.747 138.956 130.382C138.574 134.037 136.056 137.042 133.197 139.15C130.967 140.793 128.437 142.008 125.829 142.918C121.277 144.507 116.509 145.108 111.706 145.191C106.415 145.098 101.144 144.372 96.2 142.401C93.707 141.407 91.305 140.11 89.24 138.383C86.322 135.943 84.045 132.425 84.457 128.479C84.56 127.507 84.817 126.555 85.201 125.658C85.614 124.691 86.168 123.789 86.813 122.962C88.061 121.359 89.615 120.126 91.274 118.978" stroke-width="0.13"/>
  <path d="M139.451 130.307C139.4 131.304 139.3 132.237 138.997 133.194C137.947 136.503 135.317 139.078 132.473 140.93C126.356 144.917 118.884 146.2 111.706 146.325C104.531 146.2 97.058 144.917 90.939 140.93C88.097 139.078 85.468 136.503 84.418 133.194C84.114 132.237 84.015 131.304 83.962 130.307" stroke-width="0.13"/>
  <path d="M93.697 192.838C94.486 192.337 95.173 191.752 95.769 191.028C97.159 189.342 98.248 186.959 97.956 184.725C97.858 183.979 97.521 183.381 97.183 182.715L96.412 181.094C95.521 179.109 94.784 177.055 94.195 174.959C93.087 171.008 92.472 166.915 92.221 162.824C92.1 160.842 92.088 158.856 92.088 156.871L92.088 143.155L92.088 141.633L92.097 141.467C92.171 140.781 92.593 140.145 93.164 139.772" stroke-width="0.13"/>
  <path d="M90.296 174.491C89.328 175.366 88.456 176.324 87.762 177.431C87.237 178.265 86.819 179.17 86.557 180.122C86.39 180.724 86.284 181.349 86.251 181.973C86.215 182.6 86.251 183.215 86.353 183.834C87.091 188.325 91.046 191.528 94.876 193.477C97.698 194.913 100.753 195.841 103.858 196.423C109.022 197.389 114.385 197.389 119.548 196.424C122.644 195.846 125.689 194.919 128.507 193.493C132.348 191.548 136.318 188.338 137.061 183.837C137.163 183.222 137.198 182.604 137.163 181.979C137.129 181.356 137.025 180.728 136.86 180.127C136.6 179.183 136.187 178.287 135.669 177.457C134.972 176.341 134.096 175.379 133.125 174.497" stroke-width="0.13"/>
  <path d="M91.9 177.514C91.641 178.162 91.465 178.822 91.403 179.519C91.043 183.475 94.162 186.604 97.329 188.433C98.021 188.832 98.739 189.189 99.471 189.508C104.89 191.866 111.165 192.37 116.969 191.472C119.95 191.01 122.911 190.152 125.573 188.718C128.824 186.968 132.157 183.933 132.037 179.927C132.01 179.073 131.794 178.312 131.524 177.508" stroke-width="0.13"/>
  <path d="M92.995 179.384C93.498 180.086 93.576 180.245 94.179 180.881C96.305 183.129 99.218 184.556 102.135 185.474C105.221 186.448 108.475 186.885 111.707 186.885C114.938 186.885 118.192 186.448 121.278 185.474C124.194 184.556 127.108 183.129 129.235 180.882C129.836 180.245 129.914 180.087 130.419 179.384" stroke-width="0.13"/>
  <path d="M83.962 147.064C84.015 148.062 84.114 148.995 84.418 149.953C85.897 154.611 90.34 157.748 94.596 159.674C98.161 161.287 102.013 162.239 105.887 162.718C113.082 163.61 120.698 162.944 127.468 160.247C128.364 159.89 129.246 159.493 130.104 159.055C133.881 157.122 137.664 154.147 138.997 149.951C139.3 148.995 139.4 148.061 139.451 147.064" stroke-width="0.13"/>
  <path d="M99.021 115.474L96.2 116.459" stroke-width="0.13"/>
  <path d="M131.103 118.353C130.996 118.275 130.918 118.242 130.788 118.216C130.585 118.218 130.431 118.269 130.251 118.361" stroke-width="0.13"/>
  <path d="M85.908 197.336C85.337 197.709 84.915 198.344 84.841 199.031L84.832 199.198L84.832 200.718L84.832 200.781L84.832 202.301" stroke-width="0.13"/>
  <path d="M149.71 183.4C149.683 184.554 149.61 185.653 149.332 186.78C148.092 191.806 144.149 195.667 139.919 198.373C137.094 200.182 134.02 201.562 130.844 202.632C126.397 204.128 121.746 205.02 117.072 205.406C115.123 205.566 113.173 205.609 111.218 205.622C109.266 205.58 107.319 205.508 105.376 205.318C100.734 204.866 96.126 203.908 91.73 202.341C88.611 201.228 85.599 199.804 82.849 197.949C79.039 195.381 75.554 191.854 74.233 187.337C73.906 186.221 73.781 185.121 73.704 183.965" stroke-width="0.13"/>
  <path d="M140.856 169.128C143.068 170.784 145.116 172.592 146.68 174.895C147.575 176.213 148.294 177.658 148.742 179.192C149.06 180.275 149.24 181.396 149.264 182.526C149.377 187.59 146.352 192.008 142.598 195.14C139.55 197.686 135.966 199.546 132.265 200.944C127.382 202.789 122.206 203.846 117.009 204.272C115.082 204.431 113.156 204.473 111.224 204.489C109.295 204.445 107.37 204.375 105.45 204.187C100.293 203.683 95.164 202.557 90.346 200.633C87.158 199.36 84.078 197.73 81.376 195.596C77.51 192.539 74.263 188.192 74.15 183.084C74.132 182.336 74.183 181.592 74.299 180.853C74.477 179.717 74.808 178.608 75.265 177.552C75.923 176.031 76.834 174.627 77.896 173.36C79.759 171.138 82.046 169.424 84.472 167.871" stroke-width="0.13"/>
  <path d="M136.248 166.856C138.81 168.259 141.245 169.846 143.319 171.924C144.52 173.126 145.588 174.471 146.42 175.955C146.987 176.967 147.443 178.044 147.748 179.165C148.04 180.239 148.193 181.347 148.193 182.459C148.185 187.496 145.02 191.807 141.221 194.825C138.557 196.942 135.51 198.548 132.358 199.798C127.59 201.687 122.513 202.781 117.412 203.247C115.513 203.419 113.611 203.477 111.704 203.506C109.798 203.477 107.894 203.419 105.995 203.246C100.894 202.78 95.817 201.687 91.051 199.795C87.894 198.544 84.846 196.936 82.182 194.817C78.379 191.79 75.215 187.468 75.221 182.423C75.224 181.312 75.379 180.204 75.674 179.133C75.983 178.012 76.441 176.936 77.012 175.924C77.844 174.444 78.912 173.104 80.111 171.906C82.183 169.836 84.609 168.256 87.162 166.859" stroke-width="0.13"/>
  <path d="M137.507 167.545C137.8 167.397 138.079 167.331 138.359 167.538" stroke-width="0.13"/>
  <path d="M136.83 195.674C136.657 196.652 135.475 196.893 134.641 196.944C133.765 196.93 132.338 196.694 132.27 195.586" stroke-width="0.3"/>
  <path d="M136.83 195.674C136.762 194.564 135.335 194.329 134.459 194.313C133.625 194.366 132.443 194.605 132.27 195.586" stroke-width="0.13"/>
  <path d="M136.83 169.296C136.794 168.703 136.33 168.355 135.805 168.157" stroke-width="0.13"/>
  <path d="M91.143 195.674C90.971 196.652 89.79 196.893 88.954 196.944C88.079 196.93 86.653 196.694 86.584 195.586" stroke-width="0.3"/>
  <path d="M91.143 195.674C91.075 194.564 89.649 194.329 88.772 194.313C87.938 194.366 86.757 194.605 86.584 195.586" stroke-width="0.13"/>
  <path d="M87.617 168.151C87.114 168.313 86.679 168.676 86.584 169.209" stroke-width="0.13"/>
 </g>
 <g id="57751_0">
  <desc>57751_0</desc>
  <line stroke-width="0.13" x1="125.126" x2="125.126" y1="269.603" y2="267.742"/>
  <line stroke-width="0.13" x1="136.413" x2="136.413" y1="287.601" y2="289.463"/>
  <line stroke-width="0.13" x1="90.727" x2="90.727" y1="261.225" y2="263.086"/>
  <line stroke-width="0.13" x1="136.413" x2="136.413" y1="261.225" y2="263.086"/>
  <line stroke-width="0.13" x1="90.727" x2="90.727" y1="287.601" y2="289.463"/>
  <line stroke-width="0.13" x1="166.781" x2="121.094" y1="341.201" y2="367.579"/>
  <line stroke-width="0.13" x1="151.349" x2="150.544" y1="407.009" y2="408.156"/>
  <line stroke-width="0.13" x1="156.365" x2="155.558" y1="408.353" y2="409.5"/>
  <line stroke-width="0.13" x1="196.676" x2="195.87" y1="385.079" y2="386.225"/>
  <line stroke-width="0.13" x1="151.104" x2="150.296" y1="397.401" y2="398.548"/>
  <line stroke-width="0.13" x1="139.001" x2="138.194" y1="382.346" y2="383.494"/>
  <line stroke-width="0.13" x1="186.578" x2="185.77" y1="376.92" y2="378.067"/>
  <line stroke-width="0.13" x1="168.125" x2="122.438" y1="344.665" y2="371.041"/>
  <line stroke-width="0.13" x1="174.474" x2="173.669" y1="361.865" y2="363.012"/>
  <line stroke-width="0.13" x1="162.48" x2="116.795" y1="278.447" y2="304.824"/>
  <line stroke-width="0.13" x1="137.218" x2="135.606" y1="311.721" y2="310.79"/>
  <line stroke-width="0.13" x1="137.218" x2="135.606" y1="348.959" y2="348.028"/>
  <line stroke-width="0.13" x1="121.094" x2="119.481" y1="364.475" y2="363.545"/>
  <line stroke-width="0.13" x1="123.781" x2="122.17" y1="359.821" y2="358.889"/>
  <line stroke-width="0.13" x1="134.532" x2="132.919" y1="353.615" y2="352.684"/>
  <line stroke-width="0.13" x1="166.781" x2="121.094" y1="285.894" y2="312.271"/>
  <line stroke-width="0.13" x1="103.998" x2="103.998" y1="297.435" y2="299.298"/>
  <line stroke-width="0.13" x1="121.094" x2="119.481" y1="314.824" y2="313.894"/>
  <path d="M130.691 275.487C130.627 276.35 130.658 276.564 130.403 277.401C129.608 280.007 127.403 281.944 125.114 283.262C122.054 285.028 118.495 285.946 114.996 286.302C113.899 286.415 112.799 286.442 111.697 286.471C107.052 286.357 102.337 285.615 98.251 283.257C95.968 281.939 93.768 280.004 92.974 277.403C92.718 276.564 92.751 276.362 92.686 275.5" stroke-width="0.3"/>
  <path d="M92.756 276.43C92.828 275.456 93.319 274.423 93.829 273.612C95.406 271.108 98.108 269.456 100.793 268.372C105.489 266.475 110.795 266.021 115.793 266.66C118.581 267.016 121.358 267.725 123.896 268.954C126.093 270.017 128.225 271.514 129.546 273.612C130.057 274.423 130.546 275.456 130.621 276.428" stroke-width="0.3"/>
  <path d="M130.691 275.487C130.625 274.627 130.657 274.423 130.401 273.588C129.604 270.992 127.406 269.057 125.126 267.742C121.04 265.384 116.331 264.644 111.688 264.528C107.045 264.644 102.335 265.384 98.251 267.742C95.968 269.06 93.768 270.995 92.974 273.596C92.718 274.435 92.751 274.636 92.686 275.5" stroke-width="0.13"/>
  <path d="M136.645 289.619C135.943 289.149 135.175 289.017 134.342 289.017C133.638 289.076 133.012 289.221 132.418 289.619" stroke-width="0.3"/>
  <path d="M131.877 288.579C131.877 289.374 132.563 289.819 133.262 290.038C133.491 290.11 133.741 290.161 133.979 290.19C135.086 290.326 136.866 290.088 137.186 288.795" stroke-width="0.3"/>
  <path d="M137.186 288.795C137.181 287.569 135.691 287.235 134.719 287.156C133.677 287.156 132.175 287.379 131.877 288.579" stroke-width="0.13"/>
  <path d="M91.498 262.418C91.495 261.194 90.004 260.858 89.034 260.778C87.992 260.778 86.489 261.002 86.191 262.201" stroke-width="0.13"/>
  <path d="M90.959 263.242C90.257 262.773 89.489 262.641 88.656 262.641C87.951 262.699 87.325 262.845 86.731 263.242" stroke-width="0.3"/>
  <path d="M86.191 262.201C86.191 262.997 86.878 263.442 87.575 263.661C87.805 263.733 88.055 263.783 88.293 263.814C89.4 263.949 91.18 263.711 91.498 262.418" stroke-width="0.3"/>
  <path d="M137.186 262.418C137.182 261.358 135.987 260.922 135.097 260.81C134.764 260.769 134.675 260.778 134.342 260.778C133.388 260.858 132.144 261.129 131.877 262.201" stroke-width="0.13"/>
  <path d="M136.645 263.242C135.943 262.773 135.175 262.641 134.342 262.641C133.638 262.699 133.012 262.845 132.418 263.242" stroke-width="0.3"/>
  <path d="M131.877 262.201C131.877 262.997 132.563 263.442 133.262 263.661C133.491 263.733 133.741 263.783 133.979 263.814C135.086 263.949 136.866 263.711 137.186 262.418" stroke-width="0.3"/>
  <path d="M91.498 288.795C91.495 287.569 90.004 287.235 89.034 287.156C87.992 287.156 86.489 287.379 86.191 288.579" stroke-width="0.13"/>
  <path d="M90.959 289.619C90.257 289.149 89.489 289.017 88.656 289.017C87.951 289.076 87.325 289.221 86.731 289.619" stroke-width="0.3"/>
  <path d="M86.191 288.579C86.191 289.374 86.878 289.819 87.575 290.038C87.805 290.11 88.055 290.161 88.293 290.19C89.4 290.326 91.18 290.088 91.498 288.795" stroke-width="0.3"/>
  <path d="M135.442 309.834C135.717 310.608 135.606 311.524 135.606 312.31L135.606 346.509L135.606 348.028L135.582 348.452C135.498 349.237 135.211 349.997 134.819 350.677C134.426 351.358 133.911 351.987 133.274 352.451L132.919 352.684L131.603 353.444L123.486 358.129L122.17 358.889L121.814 359.122C120.676 359.954 119.855 361.312 119.573 362.685C119.411 363.48 119.481 364.334 119.481 365.127C119.481 366.286 119.442 367.374 119.742 368.497C120.04 369.615 120.552 370.678 121.212 371.627L121.632 372.189L122.584 373.374L149.592 406.971C150.098 407.601 150.598 408.333 151.24 408.855C152.206 409.639 153.542 410.093 154.782 409.803C155.526 409.629 156.253 409.098 156.876 408.74L194.554 386.987L195.87 386.225L196.205 385.995C196.456 385.79 196.534 385.673 196.723 385.41L197.528 384.262L197.709 383.913C197.812 383.668 197.873 383.399 197.895 383.134C198.016 381.627 196.956 380.533 196.084 379.447L169.076 345.85C168.229 344.795 167.377 343.824 166.985 342.507C166.709 341.576 166.781 340.649 166.781 339.682L166.781 287.415C166.781 286.517 166.83 285.61 166.671 284.721C166.293 282.596 165.093 280.519 163.442 279.129C162.752 278.547 161.942 278.137 161.163 277.687L151.001 271.819L149.683 271.06L149.165 269.778L148.524 268.524C147.52 266.759 146.193 265.168 144.715 263.779C141.816 261.057 138.305 259.031 134.662 257.483C129.598 255.332 124.164 254.064 118.698 253.486C116.358 253.24 114.016 253.158 111.665 253.117C108.924 253.168 106.203 253.295 103.48 253.635C101.215 253.919 98.975 254.322 96.757 254.855C95.001 255.278 93.259 255.776 91.552 256.374C90.26 256.827 88.98 257.336 87.733 257.901C86.84 258.307 85.965 258.754 85.103 259.223C79.801 262.112 74.512 266.605 73.206 272.795C72.893 274.283 72.876 275.833 72.923 277.348C72.956 278.434 72.983 278.999 73.207 280.065C73.605 281.951 74.409 283.68 75.441 285.297C76.757 287.36 78.57 289.124 80.484 290.625C84.834 294.038 90.075 296.247 95.387 297.668C97.487 298.23 99.629 298.67 101.78 298.999L103.998 299.298L105.313 300.057L115.477 305.925L116.795 306.687L117.15 306.918C118.171 307.665 118.918 308.829 119.277 310.033C119.647 311.276 119.463 312.619 119.481 313.894C119.489 314.454 119.608 315.064 120.037 315.463L120.269 315.634L121.075 316.098L121.882 316.564C122.968 317.153 124.245 316.11 125.099 315.617L133.215 310.93L134.532 310.17C135.151 309.822 135.77 309.694 136.431 309.982" stroke-width="0.3"/>
  <path d="M121.882 316.564C121.671 316.41 121.608 316.389 121.454 316.17C120.942 315.442 121.094 314.355 121.094 313.548L121.094 312.271L121.066 311.692C120.816 309 119.126 306.213 116.795 304.824L115.477 304.064L105.313 298.197L103.998 297.435L101.78 297.137C99.629 296.809 97.487 296.367 95.387 295.805C89.531 294.24 83.697 291.711 79.14 287.637C76.67 285.428 74.561 282.713 73.552 279.516C73.129 278.18 72.993 276.877 72.923 275.487" stroke-width="0.13"/>
  <path d="M197.528 384.262C196.947 385.043 196.229 385.338 195.36 385.839L157.681 407.593C157.06 407.951 156.334 408.483 155.587 408.656C155.215 408.744 155.091 408.728 154.707 408.74C153.552 408.636 152.51 408.209 151.681 407.377L151.349 407.009L150.397 405.824L123.391 372.226C122.444 371.05 121.496 369.951 121.186 368.435C121.024 367.641 121.094 366.788 121.094 365.995L121.094 364.475L121.118 364.052C121.269 362.651 122.036 361.261 123.084 360.329C123.673 359.807 124.433 359.444 125.099 359.06L133.215 354.375L134.532 353.615L134.887 353.382C135.783 352.726 136.459 351.75 136.858 350.721C137.281 349.632 137.218 348.603 137.218 347.439L137.218 313.242C137.218 312.11 137.461 310.745 136.431 309.982" stroke-width="0.13"/>
  <path d="M156.062 401.874C155.873 402.129 155.844 402.201 155.596 402.404C155.07 402.831 154.455 402.942 153.799 402.963C153.367 402.923 152.968 402.862 152.562 402.704C151.068 402.127 149.668 400.5 150.061 398.803C150.133 398.488 150.187 398.427 150.334 398.141" stroke-width="0.3"/>
  <path d="M150.098 398.687C151.753 397.54 154.08 398.555 155.069 400.12C155.498 400.8 155.747 401.687 155.491 402.475" stroke-width="0.3"/>
  <path d="M156.062 401.874C156.209 401.588 156.262 401.526 156.335 401.211C156.729 399.516 155.328 397.889 153.835 397.31C153.427 397.153 153.028 397.093 152.598 397.053C151.942 397.074 151.324 397.185 150.8 397.612C150.551 397.814 150.522 397.887 150.334 398.141" stroke-width="0.13"/>
  <path d="M143.96 386.817C143.77 387.074 143.741 387.146 143.492 387.348C142.968 387.776 142.352 387.886 141.695 387.906C141.264 387.867 140.866 387.807 140.459 387.649C138.967 387.072 137.564 385.444 137.959 383.749C138.032 383.432 138.085 383.372 138.23 383.086" stroke-width="0.3"/>
  <path d="M137.996 383.63C139.651 382.485 141.979 383.5 142.967 385.065C143.396 385.744 143.645 386.632 143.389 387.42" stroke-width="0.3"/>
  <path d="M143.96 386.817C144.106 386.533 144.159 386.471 144.233 386.156C144.626 384.461 143.224 382.833 141.733 382.255C141.325 382.098 140.926 382.036 140.495 381.997C139.84 382.019 139.223 382.129 138.699 382.555C138.449 382.759 138.419 382.831 138.23 383.086" stroke-width="0.13"/>
  <path d="M185.807 377.661C185.662 377.947 185.608 378.007 185.534 378.322C185.106 380.168 186.774 381.911 188.444 382.357C189.325 382.593 190.34 382.517 191.069 381.923C191.318 381.721 191.348 381.648 191.537 381.392" stroke-width="0.3"/>
  <path d="M185.573 378.206C187.229 377.06 189.555 378.074 190.544 379.639C190.973 380.319 191.222 381.206 190.966 381.995" stroke-width="0.3"/>
  <path d="M191.537 381.392C191.682 381.107 191.735 381.047 191.808 380.73C192.203 379.036 190.801 377.408 189.308 376.829C188.901 376.673 188.502 376.612 188.072 376.572C187.415 376.593 186.799 376.704 186.275 377.13C186.026 377.333 185.997 377.406 185.807 377.661" stroke-width="0.13"/>
  <path d="M173.705 362.605C173.558 362.891 173.506 362.951 173.432 363.267C173.003 365.113 174.671 366.855 176.342 367.302C177.223 367.536 178.237 367.461 178.967 366.867C179.216 366.665 179.245 366.593 179.435 366.336" stroke-width="0.3"/>
  <path d="M173.469 363.149C175.126 362.004 177.453 363.019 178.442 364.584C178.871 365.262 179.118 366.151 178.864 366.939" stroke-width="0.3"/>
  <path d="M179.435 366.336C179.58 366.052 179.633 365.99 179.706 365.675C180.099 363.98 178.699 362.353 177.206 361.774C176.8 361.617 176.401 361.555 175.968 361.516C175.313 361.538 174.697 361.648 174.173 362.074C173.924 362.278 173.894 362.35 173.705 362.605" stroke-width="0.13"/>
 </g>
 <g>
  <line stroke="#FFFFFF" stroke-width="1" x1="111.254" x2="111.254" y1="277.252" y2="210.086"/>
  <line stroke-dasharray="5 1 1 1" stroke-width="0.13" x1="111.254" x2="111.254" y1="277.252" y2="211.086"/>
  <line stroke-width="0.13" x1="111.254" x2="111.254" y1="211.086" y2="210.086"/>
 </g>
 <g>
  <line stroke="#FFFFFF" stroke-width="1" x1="111.254" x2="111.254" y1="132.227" y2="72.019"/>
  <line stroke-dasharray="5 1 1 1" stroke-width="0.13" x1="111.254" x2="111.254" y1="132.227" y2="73.019"/>
  <line stroke-width="0.13" x1="111.254" x2="111.254" y1="73.019" y2="72.019"/>
 </g>
 <g>
  <line stroke="#FFFFFF" stroke-width="1" x1="88.772" x2="88.772" y1="179.006" y2="195.787"/>
  <line stroke-dasharray="5 1 1 1" stroke-width="0.13" x1="88.772" x2="88.772" y1="179.006" y2="194.787"/>
  <line stroke-width="0.13" x1="88.772" x2="88.772" y1="194.787" y2="195.787"/>
 </g>
 <g>
  <line stroke="#FFFFFF" stroke-width="1" x1="88.772" x2="88.772" y1="205.296" y2="289.019"/>
  <line stroke-dasharray="5 1 1 1" stroke-width="0.13" x1="88.772" x2="88.772" y1="205.296" y2="288.019"/>
  <line stroke-width="0.13" x1="88.772" x2="88.772" y1="288.019" y2="289.019"/>
 </g>
 <g>
  <line stroke="#FFFFFF" stroke-width="1" x1="88.772" x2="88.772" y1="295.951" y2="319.552"/>
  <line stroke-dasharray="5 1 1 1" stroke-width="0.13" x1="88.772" x2="88.772" y1="295.951" y2="318.552"/>
  <line stroke-width="0.13" x1="88.772" x2="88.772" y1="318.552" y2="319.552"/>
 </g>
 <g>
  <line stroke="#FFFFFF" stroke-width="1" x1="88.772" x2="88.772" y1="322.718" y2="345.026"/>
  <line stroke-dasharray="5 1 1 1" stroke-width="0.13" x1="88.772" x2="88.772" y1="322.718" y2="344.026"/>
  <line stroke-width="0.13" x1="88.772" x2="88.772" y1="344.026" y2="345.026"/>
 </g>
 <g id="01_0023_0052_0_2">
  <desc>01_0023_0052_0</desc>
  <line stroke-width="0.13" x1="89.787" x2="89.787" y1="344.684" y2="345.918"/>
  <line stroke-width="0.13" x1="87.917" x2="87.917" y1="349.004" y2="347.017"/>
  <path d="M91.37 347.495L91.371 348.841L91.322 349.151C90.932 350.187 89.691 350.427 88.712 350.471C87.731 350.427 86.49 350.187 86.1 349.151C85.983 348.841 86.052 348.069 86.052 347.927" stroke-width="0.3"/>
  <path d="M86.54 344.05L85.743 345.764L85.743 347.75" stroke-width="0.3"/>
  <path d="M90.884 348.545L87.917 349.004L85.743 347.75" stroke-width="0.3"/>
  <path d="M87.468 348.648C87.037 348.492 86.697 348.319 86.359 348.007" stroke-width="0.3"/>
  <path d="M91.016 348.059C91.301 347.725 91.593 347.232 91.679 346.831L91.679 344.845" stroke-width="0.3"/>
  <path d="M86.54 344.05L89.507 343.591L91.679 344.845" stroke-width="0.3"/>
  <path d="M91.37 347.233C91.337 347.735 91.111 348.053 90.884 348.545" stroke-width="0.3"/>
  <path d="M90.884 346.559L87.917 347.017L85.743 345.764" stroke-width="0.13"/>
  <path d="M90.884 348.545L90.884 346.559L91.679 344.845" stroke-width="0.13"/>
  <path d="M90.23 345.35C90.159 344.584 89.257 344.447 88.632 344.427C88.048 344.48 87.37 344.619 87.194 345.257" stroke-width="0.13"/>
  <path d="M90.23 345.35C90.052 345.99 89.375 346.127 88.792 346.18C88.167 346.161 87.263 346.024 87.194 345.257" stroke-width="0.3"/>
  <path d="M91.338 349.081C90.912 350.11 89.712 350.333 88.712 350.377C87.71 350.333 86.512 350.11 86.084 349.081" stroke-width="0.13"/>
  <path d="M90.546 350.033C90.582 349.99 90.591 349.992 90.593 349.927L90.593 348.589" stroke-width="0.13"/>
 </g>
 <g>
  <line stroke="#FFFFFF" stroke-width="1" x1="88.772" x2="47.155" y1="179.006" y2="179.006"/>
  <line stroke-dasharray="5 1 1 1" stroke-width="0.13" x1="88.772" x2="48.155" y1="179.006" y2="179.006"/>
  <line stroke-width="0.13" x1="48.155" x2="47.155" y1="179.006" y2="179.006"/>
 </g>
 <g>
  <line stroke="#FFFFFF" stroke-width="1" x1="47.155" x2="47.155" y1="179.006" y2="163.114"/>
  <line stroke-dasharray="5 1 1 1" stroke-width="0.13" x1="47.155" x2="47.155" y1="179.006" y2="164.114"/>
  <line stroke-width="0.13" x1="47.155" x2="47.155" y1="164.114" y2="163.114"/>
 </g>
 <g>
  <line stroke="#FFFFFF" stroke-width="1" x1="47.155" x2="47.155" y1="159.301" y2="136.828"/>
  <line stroke-dasharray="5 1 1 1" stroke-width="0.13" x1="47.155" x2="47.155" y1="159.301" y2="137.828"/>
  <line stroke-width="0.13" x1="47.155" x2="47.155" y1="137.828" y2="136.828"/>
 </g>
 <g>
  <line stroke="#FFFFFF" stroke-width="1" x1="187.896" x2="204.849" y1="380.398" y2="360.995"/>
  <line stroke-dasharray="5 1 1 1" stroke-width="0.13" x1="187.896" x2="204.192" y1="380.398" y2="361.749"/>
  <line stroke-width="0.13" x1="204.192" x2="204.849" y1="361.749" y2="360.995"/>
 </g>
 <g>
  <line stroke="#FFFFFF" stroke-width="1" x1="207.955" x2="220.493" y1="357.442" y2="343.091"/>
  <line stroke-dasharray="5 1 1 1" stroke-width="0.13" x1="207.955" x2="219.836" y1="357.442" y2="343.845"/>
  <line stroke-width="0.13" x1="219.836" x2="220.493" y1="343.845" y2="343.091"/>
 </g>
 <g class="callout callout_1">
  <g>
   <line stroke="#FFFFFF" stroke-width="1" x1="137.349" x2="196.025" y1="39.564" y2="39.564"/>
   <line stroke-width="0.13" x1="137.349" x2="196.025" y1="39.564" y2="39.564"/>
  </g>
  <path d="M193.002 44.354L199.048 44.354 199.048 34.776 193.002 34.776 193.002 44.354z" fill="#FFFFFF" stroke="none"/>
  <text fill="#000000" font-family="'Arial'" font-size="7.761" stroke="none" x="193.866" y="42.354"><desc>1</desc>1</text>
 </g>
 <g class="callout callout_2">
  <g>
   <line stroke="#FFFFFF" stroke-width="1" x1="149.71" x2="199.55" y1="186.502" y2="186.502"/>
   <line stroke-width="0.13" x1="149.71" x2="199.55" y1="186.502" y2="186.502"/>
  </g>
  <path d="M195.711 191.292L203.39 191.292 203.39 181.712 195.711 181.712 195.711 191.292z" fill="#FFFFFF" stroke="none"/>
  <text fill="#000000" font-family="'Arial'" font-size="7.761" stroke="none" x="197.393" y="189.292"><desc>2</desc>2</text>
 </g>
 <g class="callout callout_3">
  <g>
   <line stroke="#FFFFFF" stroke-width="1" x1="72.923" x2="19.553" y1="275.487" y2="275.487"/>
   <line stroke-width="0.13" x1="72.923" x2="19.553" y1="275.487" y2="275.487"/>
  </g>
  <path d="M15.734 280.326L23.371 280.326 23.371 270.649 15.734 270.649 15.734 280.326z" fill="#FFFFFF" stroke="none"/>
  <text fill="#000000" font-family="'Arial'" font-size="7.761" stroke="none" x="17.394" y="278.326"><desc>3</desc>3</text>
 </g>
 <g class="callout callout_4">
  <g>
   <line stroke="#FFFFFF" stroke-width="1" x1="43.46" x2="3.921" y1="160.002" y2="160.002"/>
   <line stroke-width="0.13" x1="43.46" x2="3.921" y1="160.002" y2="160.002"/>
  </g>
  <path d="M0 164.78L7.843 164.78 7.843 155.223 0 155.223 0 164.78z" fill="#FFFFFF" stroke="none"/>
  <text fill="#000000" font-family="'Arial'" font-size="7.761" stroke="none" x="1.762" y="162.78"><desc>4</desc>4</text>
 </g>
 <g class="callout callout_5">
  <g>
   <line stroke="#FFFFFF" stroke-width="1" x1="45.368" x2="4.948" y1="128.834" y2="128.834"/>
   <line stroke-width="0.13" x1="45.368" x2="4.948" y1="128.834" y2="128.834"/>
  </g>
  <path d="M1.106 133.621L8.789 133.621 8.789 124.046 1.106 124.046 1.106 133.621z" fill="#FFFFFF" stroke="none"/>
  <text fill="#000000" font-family="'Arial'" font-size="7.761" stroke="none" x="2.79" y="131.621"><desc>5</desc>5</text>
 </g>
 <g class="callout callout_6">
  <g>
   <line stroke="#FFFFFF" stroke-width="1" x1="231.701" x2="263.598" y1="331.641" y2="331.641"/>
   <line stroke-width="0.13" x1="231.701" x2="263.598" y1="331.641" y2="331.641"/>
  </g>
  <path d="M259.764 336.476L267.432 336.476 267.432 326.803 259.764 326.803 259.764 336.476z" fill="#FFFFFF" stroke="none"/>
  <text fill="#000000" font-family="'Arial'" font-size="7.761" stroke="none" x="261.439" y="334.476"><desc>6</desc>6</text>
 </g>
 <g class="callout callout_7">
  <g>
   <line stroke="#FFFFFF" stroke-width="1" x1="212.127" x2="250.043" y1="359.55" y2="359.55"/>
   <line stroke-width="0.13" x1="212.127" x2="250.043" y1="359.55" y2="359.55"/>
  </g>
  <path d="M246.245 364.291L253.841 364.291 253.841 354.807 246.245 354.807 246.245 364.291z" fill="#FFFFFF" stroke="none"/>
  <text fill="#000000" font-family="'Arial'" font-size="7.761" stroke="none" x="247.884" y="362.291"><desc>7</desc>7</text>
 </g>
 <g class="callout callout_8">
  <g>
   <line stroke="#FFFFFF" stroke-width="1" x1="85.231" x2="54" y1="346.723" y2="346.723"/>
   <line stroke-width="0.13" x1="85.231" x2="54" y1="346.723" y2="346.723"/>
  </g>
  <path d="M50.17 351.56L57.831 351.56 57.831 341.887 50.17 341.887 50.17 351.56z" fill="#FFFFFF" stroke="none"/>
  <text fill="#000000" font-family="'Arial'" font-size="7.761" stroke="none" x="51.843" y="349.56"><desc>8</desc>8</text>
 </g>
 <g class="callout callout_4">
  <g>
   <line stroke="#FFFFFF" stroke-width="1" x1="84.98" x2="54.371" y1="319.848" y2="319.848"/>
   <line stroke-width="0.13" x1="84.98" x2="54.371" y1="319.848" y2="319.848"/>
  </g>
  <path d="M50.45 324.627L58.292 324.627 58.292 315.072 50.45 315.072 50.45 324.627z" fill="#FFFFFF" stroke="none"/>
  <text fill="#000000" font-family="'Arial'" font-size="7.761" stroke="none" x="52.213" y="322.627"><desc>4</desc>4</text>
 </g>
 <path class="hotspot hotspot_6" d="M259.764 336.476L 267.432 336.476L 267.432 326.803L 259.764 326.803L 259.764 336.476z" fill="black" id="AUTOID_9513" stroke="black" visibility="hidden"/>
 <path class="hotspot hotspot_1" d="M193.002 44.354L 199.048 44.354L 199.048 34.776L 193.002 34.776L 193.002 44.354z" fill="black" id="AUTOID_9514" stroke="black" visibility="hidden"/>
 <path class="hotspot hotspot_8" d="M50.17 351.56L 57.831 351.56L 57.831 341.887L 50.17 341.887L 50.17 351.56z" fill="black" id="AUTOID_9515" stroke="black" visibility="hidden"/>
 <path class="hotspot hotspot_7" d="M246.245 364.291L 253.841 364.291L 253.841 354.807L 246.245 354.807L 246.245 364.291z" fill="black" id="AUTOID_9516" stroke="black" visibility="hidden"/>
 <path class="hotspot hotspot_2" d="M195.711 191.292L 203.39 191.292L 203.39 181.712L 195.711 181.712L 195.711 191.292z" fill="black" id="AUTOID_9517" stroke="black" visibility="hidden"/>
 <path class="hotspot hotspot_5" d="M1.106 133.621L 8.789 133.621L 8.789 124.046L 1.106 124.046L 1.106 133.621z" fill="black" id="AUTOID_9518" stroke="black" visibility="hidden"/>
 <path class="hotspot hotspot_4" d="M0 164.78L 7.843 164.78L 7.843 155.223L 0 155.223L 0 164.78zM50.45 324.627L 58.292 324.627L 58.292 315.072L 50.45 315.072L 50.45 324.627z" fill="black" id="AUTOID_9519" stroke="black" visibility="hidden"/>
 <path class="hotspot hotspot_3" d="M15.734 280.326L 23.371 280.326L 23.371 270.649L 15.734 270.649L 15.734 280.326z" fill="black" id="AUTOID_9520" stroke="black" visibility="hidden"/>
</svg>