<?xml version="1.0" encoding="UTF-8" standalone="no"?><!-- Generator: PTC Arbortext IsoDraw 7.3 M090 --><svg xmlns="http://www.w3.org/2000/svg" xmlns:xlink="http://www.w3.org/1999/xlink" clip-rule="evenodd" fill="none" fill-rule="evenodd" font-family="sans-serif" font-size="10" font-stretch="normal" font-style="normal" font-variant="normal" font-weight="normal" height="153.221" id="Livello_x0020_standard" onabort="parent.dwImageSVGOnAbort('OPA126031940');" onerror="parent.dwImageSVGOnError('OPA126031940');" onload="parent.dwImageSVGOnLoad('OPA126031940');" stroke="#000000" stroke-linecap="round" viewBox="0.0 0.0 91.875 153.221" width="91.875" x="0" xml:space="preserve" y="0">
 <g>
  <polyline points="46.048 76.012 74.504 92.441 74.504 122.772" stroke-linejoin="round" stroke-width="0.1"/>
  <line stroke-linejoin="round" stroke-width="0.1" x1="49.442" x2="50.786" y1="98.822" y2="98.046"/>
  <line stroke-linejoin="round" stroke-width="0.1" x1="74.504" x2="77.132" y1="92.441" y2="90.924"/>
  <g>
   <path d="M49.799 97.939C49.444 98.198 49.356 98.781 49.527 99.436" stroke-linejoin="round" stroke-width="0.1"/>
  </g>
  <g>
   <path d="M68.625 108.808C68.123 109.173 68.155 110.174 68.683 111.093C69.237 112.055 70.138 112.576 70.694 112.256C70.715 112.243 70.736 112.23 70.754 112.218" stroke-linejoin="round" stroke-width="0.1"/>
  </g>
  <g>
   <path d="M69.304 100.498C69.843 100.986 70.397 101.096 70.754 100.843" stroke-linejoin="round" stroke-width="0.1"/>
  </g>
  <line stroke-linejoin="round" stroke-width="0.3" x1="46.048" x2="46.048" y1="94.998" y2="101.131"/>
  <polyline points="46.048 78.539 46.048 76.012 48.676 74.495 77.132 90.924 77.132 121.256 74.504 122.772 73.411 122.141" stroke-linejoin="round" stroke-width="0.3"/>
  <g>
   <path d="M50.78 97.956C50.387 97.756 50.042 97.765 49.799 97.939" stroke-linejoin="round" stroke-width="0.3"/>
  </g>
  <g>
   <path d="M68.685 108.769C68.662 108.781 68.641 108.796 68.625 108.808" stroke-linejoin="round" stroke-width="0.3"/>
   <path d="M70.754 112.218C71.254 111.853 71.224 110.85 70.695 109.933C70.141 108.969 69.239 108.45 68.685 108.769" stroke-linejoin="round" stroke-width="0.3"/>
  </g>
  <g>
   <path d="M70.754 100.843C71.084 100.602 71.183 100.082 71.058 99.486" stroke-linejoin="round" stroke-width="0.3"/>
  </g>
  <polyline points="51.576 108.433 51.576 104.641 63.561 100.024 63.561 103.814" stroke-linejoin="round" stroke-width="0.1"/>
  <line stroke-linejoin="round" stroke-width="0.1" x1="63.561" x2="73.411" y1="100.024" y2="94.337"/>
  <g>
   <path d="M24.205 95.263C24.157 95.581 24.134 95.897 24.137 96.168C24.137 101.795 32.036 106.355 41.779 106.355C45.43 106.355 48.825 105.715 51.576 104.64" stroke-linejoin="round" stroke-width="0.1"/>
  </g>
  <g>
   <path d="M51.359 95.834C51.051 92.897 46.835 90.634 41.78 90.629C36.481 90.629 32.183 93.108 32.183 96.168C32.183 96.287 32.189 96.403 32.201 96.504" stroke-linejoin="round" stroke-width="0.1"/>
  </g>
  <line stroke-linejoin="round" stroke-width="0.3" x1="24.137" x2="24.137" y1="99.96" y2="96.168"/>
  <polyline points="27.103 90.513 35.103 83.593 44.954 77.906 46.048 78.539" stroke-linejoin="round" stroke-width="0.3"/>
  <g>
   <polyline points="46.048 78.539 73.411 94.337 73.411 98.128" stroke-linejoin="round" stroke-width="0.1"/>
   <polyline points="73.411 98.128 63.561 103.814 51.576 108.433" stroke-linejoin="round" stroke-width="0.3"/>
  </g>
  <polyline points="73.411 98.022 73.411 98.128 73.411 98.058" stroke-linejoin="round" stroke-width="0.3"/>
  <g>
   <path d="M50.796 98.063C49.387 95.828 45.743 94.435 41.78 94.42C37.661 94.42 34.149 95.918 32.765 98.06" stroke-linejoin="round" stroke-width="0.3"/>
  </g>
  <g>
   <path d="M27.105 90.513C25.385 92.001 24.432 93.656 24.205 95.263" stroke-linejoin="round" stroke-width="0.3"/>
  </g>
  <g>
   <path d="M24.137 99.96C24.137 105.585 32.036 110.147 41.779 110.147C45.43 110.147 48.825 109.506 51.576 108.432" stroke-linejoin="round" stroke-width="0.3"/>
  </g>
  <g>
   <path d="M51.377 96.168C51.377 96.051 51.371 95.935 51.359 95.834" stroke-linejoin="round" stroke-width="0.3"/>
   <path d="M32.201 96.504C32.509 99.439 36.725 101.703 41.78 101.709C47.079 101.709 51.377 99.228 51.377 96.168" stroke-linejoin="round" stroke-width="0.3"/>
  </g>
  <polyline points="51.576 132.445 51.576 128.653 63.561 124.036 73.411 118.349" stroke-linejoin="round" stroke-width="0.1"/>
  <line stroke-linejoin="round" stroke-width="0.1" x1="63.561" x2="63.561" y1="127.826" y2="124.036"/>
  <g>
   <path d="M24.205 119.275C24.157 119.593 24.134 119.909 24.137 120.182C24.137 125.807 32.036 130.367 41.779 130.367C45.43 130.367 48.825 129.727 51.576 128.652" stroke-linejoin="round" stroke-width="0.1"/>
  </g>
  <g>
   <path d="M51.359 119.846C51.051 116.909 46.835 114.646 41.78 114.641C36.481 114.641 32.183 117.12 32.183 120.18C32.183 120.299 32.189 120.415 32.201 120.516" stroke-linejoin="round" stroke-width="0.1"/>
  </g>
  <line stroke-linejoin="round" stroke-width="0.3" x1="24.137" x2="24.137" y1="123.972" y2="120.182"/>
  <line stroke-linejoin="round" stroke-width="0.3" x1="27.103" x2="33.533" y1="114.525" y2="108.965"/>
  <polyline points="73.411 122.034 73.411 122.14 63.561 127.826 51.576 132.445" stroke-linejoin="round" stroke-width="0.3"/>
  <polyline points="73.411 122.069 73.411 122.14 73.411 118.349 54.371 107.355" stroke-linejoin="round" stroke-width="0.1"/>
  <g>
   <path d="M50.796 122.075C49.387 119.84 45.743 118.447 41.78 118.432C37.661 118.432 34.149 119.93 32.765 122.072" stroke-linejoin="round" stroke-width="0.3"/>
  </g>
  <g>
   <path d="M27.105 114.527C25.385 116.015 24.432 117.668 24.205 119.275" stroke-linejoin="round" stroke-width="0.3"/>
  </g>
  <g>
   <path d="M24.137 123.972C24.137 129.598 32.036 134.158 41.779 134.158C45.43 134.158 48.825 133.518 51.576 132.443" stroke-linejoin="round" stroke-width="0.3"/>
  </g>
  <g>
   <path d="M51.377 120.18C51.377 120.063 51.371 119.947 51.359 119.846" stroke-linejoin="round" stroke-width="0.3"/>
   <path d="M32.201 120.516C32.509 123.453 36.725 125.716 41.78 125.721C47.079 125.721 51.377 123.24 51.377 120.18" stroke-linejoin="round" stroke-width="0.3"/>
  </g>
 </g>
 <g>
  <polyline points="50.915 62.764 50.249 63.999 49.091 65.105 47.508 66.019 45.591 66.686 44.432 66.896 43.454 67.072 41.219 67.15 39.017 66.917 36.975 66.387 35.213 65.588" stroke-linejoin="round" stroke-width="0.1"/>
  <polyline points="51.051 26.088 50.915 27.378 50.249 28.611 49.091 29.718 47.508 30.632 45.591 31.3 43.454 31.686 41.219 31.763 39.017 31.53 36.975 31 35.868 30.498 35.213 30.202 33.832 29.184 32.914 28.007 32.509 26.734" stroke-linejoin="round" stroke-width="0.1"/>
  <polyline points="34.668 62.709 34.54 62.796 34.454 62.938 34.402 63.152 34.399 63.387 34.442 63.661 34.526 63.938 34.658 64.225 34.817 64.471 35.015 64.685 35.213 64.831" stroke-linejoin="round" stroke-width="0.1"/>
  <polyline points="32.914 63.393 33.832 64.572 35.213 65.588" stroke-linejoin="round" stroke-width="0.1"/>
  <polyline points="35.213 64.831 35.421 64.92 35.643 64.942 35.807 64.903" stroke-linejoin="round" stroke-width="0.1"/>
  <g>
   <path d="M33.112 25.905C33.112 28.67 36.993 30.91 41.78 30.91C46.567 30.91 50.448 28.67 50.448 25.905C50.448 24.783 49.807 23.748 48.743 22.925" stroke-linejoin="round" stroke-width="0.1"/>
   <path d="M34.957 22.82C33.707 23.739 33.106 24.833 33.112 25.905" stroke-linejoin="round" stroke-width="0.1"/>
  </g>
  <polyline points="49.945 65.346 50.915 62.764 51.051 61.473 51.051 26.088 50.646 24.815 49.728 23.638 48.755 22.92" stroke-linejoin="round" stroke-width="0.3"/>
  <polyline points="35.807 64.903 35.963 64.799 36.073 64.644 36.139 64.421 36.143 64.186 36.088 63.918 35.981 63.655 35.82 63.386 35.634 63.155 35.418 62.951 35.213 62.808 35.011 62.716 34.81 62.682 34.668 62.709" stroke-linejoin="round" stroke-width="0.3"/>
  <line stroke-linejoin="round" stroke-width="0.3" x1="35.71" x2="35.984" y1="64.926" y2="64.769"/>
  <polyline points="34.957 22.82 34.469 23.105 33.311 24.21 32.645 25.445 32.509 26.734 32.509 62.121 32.914 63.393 33.799 65.76" stroke-linejoin="round" stroke-width="0.3"/>
  <g>
   <path d="M39.615 21.059C37.686 21.347 36.076 21.987 34.957 22.82" stroke-linejoin="round" stroke-width="0.3"/>
  </g>
  <g>
   <path d="M33.799 65.76C34.908 67.816 38.179 69.138 41.78 69.15C45.768 69.15 49.104 67.539 49.948 65.349" stroke-linejoin="round" stroke-width="0.3"/>
  </g>
  <g>
   <path d="M69.953 4.123C69.846 3.434 69.343 2.552 68.661 1.778C67.816 0.825 66.855 0.212 66.194 0.154" stroke-linejoin="round" stroke-width="0.1"/>
  </g>
  <g>
   <path d="M49.975 22.221C50.831 21.728 50.831 20.126 49.975 18.646C49.154 17.224 47.841 16.428 46.976 16.809" stroke-linejoin="round" stroke-width="0.1"/>
   <path d="M49.881 22.269C49.914 22.254 49.948 22.236 49.975 22.221" stroke-linejoin="round" stroke-width="0.1"/>
  </g>
  <g>
   <path d="M50.963 21.536C51.478 20.922 51.155 19.513 50.241 18.259C49.31 16.983 48.064 16.277 47.332 16.577" stroke-linejoin="round" stroke-width="0.1"/>
  </g>
  <g>
   <path d="M38.853 28.635C38.889 28.62 38.923 28.603 38.95 28.586C39.804 28.092 39.804 26.492 38.95 25.012C38.128 23.588 36.814 22.792 35.95 23.175" stroke-linejoin="round" stroke-width="0.1"/>
  </g>
  <g>
   <path d="M47.506 16.399C47.478 16.422 47.454 16.449 47.435 16.474" stroke-linejoin="round" stroke-width="0.1"/>
   <path d="M51.685 20.954C52.091 20.419 51.57 19.077 50.506 17.876C49.369 16.597 48.027 15.936 47.506 16.399" stroke-linejoin="round" stroke-width="0.1"/>
  </g>
  <g>
   <path d="M38.203 28.303C38.887 27.908 38.887 26.628 38.203 25.443C37.518 24.259 36.409 23.618 35.725 24.013C35.436 24.181 35.27 24.507 35.225 24.911" stroke-linejoin="round" stroke-width="0.1"/>
   <path d="M36.965 28.181C37.448 28.46 37.886 28.486 38.203 28.303" stroke-linejoin="round" stroke-width="0.1"/>
  </g>
  <polyline points="69.835 4.86 51.683 20.954 50.963 21.538 50.664 21.757 49.878 22.271 38.854 28.635" stroke-linejoin="round" stroke-width="0.3"/>
  <line stroke-linejoin="round" stroke-width="0.3" x1="69.957" x2="69.93" y1="4.152" y2="3.431"/>
  <line stroke-linejoin="round" stroke-width="0.3" x1="66.927" x2="66.167" y1="0.274" y2="0.151"/>
  <polyline points="47.274 16.605 47.436 16.472 65.594 0.372" stroke-linejoin="round" stroke-width="0.3"/>
  <polyline points="47.334 16.576 46.975 16.811 35.953 23.175" stroke-linejoin="round" stroke-width="0.3"/>
  <line stroke-linejoin="round" stroke-width="0.3" x1="37.402" x2="36.965" y1="28.434" y2="28.181"/>
  <line stroke-linejoin="round" stroke-width="0.3" x1="35.225" x2="35.228" y1="24.914" y2="24.35"/>
  <g>
   <path d="M65.665 0.296C65.638 0.32 65.612 0.347 65.593 0.373" stroke-linejoin="round" stroke-width="0.3"/>
   <path d="M69.835 4.859C69.968 4.685 70.003 4.424 69.953 4.123" stroke-linejoin="round" stroke-width="0.3"/>
   <path d="M66.194 0.154C65.959 0.135 65.781 0.189 65.665 0.296" stroke-linejoin="round" stroke-width="0.3"/>
  </g>
  <g>
   <path d="M69.93 3.431C69.84 2.882 69.438 2.181 68.896 1.568C68.221 0.81 67.456 0.323 66.927 0.273" stroke-linejoin="round" stroke-width="0.3"/>
  </g>
  <g>
   <path d="M35.854 23.225C35.491 23.434 35.283 23.841 35.228 24.35" stroke-linejoin="round" stroke-width="0.3"/>
   <path d="M37.402 28.434C37.96 28.756 38.469 28.809 38.853 28.635" stroke-linejoin="round" stroke-width="0.3"/>
   <path d="M35.95 23.175C35.915 23.192 35.881 23.208 35.854 23.225" stroke-linejoin="round" stroke-width="0.3"/>
  </g>
  <g>
   <path d="M35.225 24.911C35.158 25.513 35.357 26.233 35.726 26.873C36.067 27.466 36.517 27.922 36.965 28.181" stroke-linejoin="round" stroke-width="0.3"/>
  </g>
 </g>
 <line stroke-width="0.13" x1="32.478" x2="21.873" y1="36.073" y2="34.033"/>
 <text fill="#000000" font-family="'Helvetica'" font-size="3.528" font-weight="bold" stroke="none" x="19.327" y="35.024">1</text>
 <g>
  <line stroke="#FFFFFF" stroke-width="1" x1="35.332" x2="25.704" y1="63.667" y2="69.227"/>
  <line stroke-dasharray="2 0.5 0.2 0.5" stroke-width="0.13" x1="35.82" x2="25.214" y1="63.386" y2="69.51"/>
 </g>
 <g>
  <line stroke="#FFFFFF" stroke-width="1" x1="41.78" x2="41.78" y1="98.453" y2="70.093"/>
  <line stroke-dasharray="2 0.5 0.2 0.5" stroke-width="0.13" x1="41.78" x2="41.78" y1="99.018" y2="69.528"/>
 </g>
 <g>
  <line stroke="#FFFFFF" stroke-width="1" x1="63.243" x2="69.2" y1="114.234" y2="110.796"/>
  <line stroke-dasharray="2 0.5 0.2 0.5" stroke-width="0.13" x1="62.753" x2="69.689" y1="114.516" y2="110.513"/>
 </g>
 <line stroke-width="0.13" x1="8.875" x2="5.474" y1="76.263" y2="68.368"/>
 <text fill="#000000" font-family="'Helvetica'" font-size="3.528" font-weight="bold" stroke="none" x="3.242" y="66.962">5</text>
 <g>
  <g>
   <path d="M80.188 134.866C81.168 134.3 81.162 132.456 80.177 130.75C79.191 129.042 77.597 128.116 76.617 128.681" stroke-width="0.1"/>
   <path d="M76.617 128.681C75.638 129.247 75.644 131.09 76.629 132.798C77.615 134.504 79.209 135.431 80.188 134.866" stroke-width="0.3"/>
   <path d="M78.394 128.903C77.709 128.506 77.141 128.552 76.692 128.811L76.543 128.551C77.003 128.286 77.689 128.413 78.394 128.822L78.394 128.903z" fill="#000000" stroke="none"/>
   <path d="M80.114 134.735C80.582 134.465 80.887 133.929 80.885 133.216L80.954 133.256C80.956 134.032 80.774 134.7 80.263 134.996L80.114 134.735z" fill="#000000" stroke="none"/>
  </g>
  <g>
   <path d="M80.668 134.588C81.647 134.022 81.643 132.18 80.656 130.473C79.671 128.764 78.076 127.838 77.097 128.405" stroke-width="0.3"/>
  </g>
  <line stroke-width="0.3" x1="77.097" x2="76.617" y1="128.405" y2="128.681"/>
  <line stroke-width="0.3" x1="80.733" x2="80.188" y1="134.55" y2="134.866"/>
  <g>
   <path d="M77.867 130.293C77.632 130.677 77.73 131.354 78.076 131.961C78.438 132.588 78.98 132.984 79.418 132.977" stroke-width="0.3"/>
  </g>
  <g>
   <path d="M79.215 133.179C79.659 132.921 79.658 132.084 79.209 131.307C78.76 130.532 78.037 130.11 77.591 130.367" stroke-width="0.3"/>
   <path d="M77.591 130.367C77.147 130.625 77.149 131.462 77.596 132.239C78.045 133.014 78.769 133.436 79.215 133.179" stroke-width="0.1"/>
   <path d="M77.667 130.497C77.465 130.615 77.293 130.822 77.295 131.128L77.224 131.087C77.222 130.718 77.274 130.378 77.516 130.237L77.667 130.497z" fill="#000000" stroke="none"/>
   <path d="M78.406 133.056C78.712 133.234 78.939 133.164 79.14 133.049L79.29 133.308C79.076 133.431 78.733 133.326 78.406 133.137L78.406 133.056z" fill="#000000" stroke="none"/>
  </g>
 </g>
 <g>
  <path d="M64.076 143.662C64.076 143.662 63.375 143.681 62.753 143.522" stroke-width="0.3"/>
  <path d="M64.655 141.528C64.655 141.528 64.284 142.122 64.111 142.739C63.936 143.356 64.076 143.662 64.076 143.662" stroke-width="0.1"/>
  <g>
   <path d="M60.406 139.449C60.228 140.131 60.438 141.052 60.908 141.873C61.408 142.739 62.112 143.341 62.758 143.52" stroke-width="0.3"/>
  </g>
  <g>
   <path d="M60.899 138.745C60.651 138.889 60.485 139.139 60.406 139.449" stroke-width="0.1"/>
   <path d="M62.758 143.52C63.097 143.612 63.39 143.579 63.613 143.445C64.358 143.015 64.355 141.616 63.604 140.317C62.856 139.019 61.643 138.314 60.899 138.745" stroke-width="0.1"/>
  </g>
  <path d="M60.945 138.236C60.945 138.236 60.576 138.835 60.402 139.451" stroke-width="0.3"/>
  <path d="M63.081 138.802C63.081 138.802 62.383 138.825 61.761 138.668C61.139 138.509 60.945 138.236 60.945 138.236" stroke-width="0.1"/>
  <line stroke-width="0.3" x1="64.471" x2="66.043" y1="138" y2="140.725"/>
  <line stroke-width="0.3" x1="65.465" x2="66.043" y1="142.86" y2="140.725"/>
  <line stroke-width="0.3" x1="64.471" x2="62.334" y1="138" y2="137.433"/>
  <path d="M63.081 138.802C63.081 138.802 63.216 139.622 63.613 140.312C64.013 141.002 64.655 141.528 64.655 141.528" stroke-width="0.1"/>
  <line stroke-width="0.3" x1="60.945" x2="62.334" y1="138.236" y2="137.433"/>
  <line stroke-width="0.1" x1="63.081" x2="64.471" y1="138.802" y2="138"/>
  <line stroke-width="0.3" x1="64.076" x2="65.465" y1="143.662" y2="142.86"/>
  <line stroke-width="0.1" x1="64.655" x2="66.043" y1="141.528" y2="140.725"/>
  <line stroke-width="0.3" x1="71.093" x2="73.855" y1="137.902" y2="136.307"/>
  <line stroke-width="0.3" x1="69.441" x2="72.203" y1="135.038" y2="133.443"/>
  <g>
   <path d="M73.855 136.307C74.31 136.045 74.307 135.193 73.85 134.401C73.394 133.61 72.656 133.182 72.203 133.444" stroke-width="0.1"/>
  </g>
  <g>
   <path d="M73.855 136.307C74.31 136.045 74.307 135.193 73.85 134.401C73.394 133.61 72.656 133.182 72.203 133.443" stroke-width="0.3"/>
  </g>
  <line stroke-width="0.3" x1="73.855" x2="66.084" y1="136.307" y2="140.794"/>
  <line stroke-width="0.3" x1="72.203" x2="64.43" y1="133.443" y2="137.931"/>
  <g>
   <path d="M72.965 136.823C73.418 136.561 73.415 135.706 72.959 134.917C72.503 134.126 71.765 133.697 71.311 133.959" stroke-width="0.1"/>
  </g>
  <g>
   <path d="M72.073 137.336C72.528 137.074 72.525 136.222 72.069 135.431C71.611 134.639 70.873 134.211 70.421 134.473" stroke-width="0.1"/>
  </g>
  <g>
   <path d="M71.183 137.85C71.637 137.588 71.634 136.735 71.177 135.944C70.721 135.155 69.983 134.725 69.53 134.987" stroke-width="0.1"/>
  </g>
  <g>
   <path d="M70.292 138.366C70.745 138.104 70.742 137.251 70.287 136.46C69.829 135.669 69.091 135.24 68.638 135.502" stroke-width="0.1"/>
  </g>
  <g>
   <path d="M70.292 138.366C70.745 138.104 70.742 137.251 70.287 136.46C69.829 135.669 69.091 135.24 68.638 135.502" stroke-width="0.1"/>
  </g>
  <g>
   <path d="M69.4 138.879C69.855 138.617 69.852 137.764 69.396 136.973C68.938 136.182 68.2 135.754 67.748 136.015" stroke-width="0.1"/>
  </g>
  <g>
   <path d="M68.51 139.395C68.963 139.133 68.96 138.278 68.504 137.487C68.048 136.698 67.31 136.269 66.856 136.531" stroke-width="0.1"/>
  </g>
  <g>
   <path d="M66.727 140.423C67.182 140.161 67.179 139.307 66.722 138.516C66.266 137.727 65.528 137.298 65.075 137.56" stroke-width="0.1"/>
  </g>
  <g>
   <path d="M66.727 140.423C67.182 140.161 67.179 139.307 66.722 138.516C66.266 137.727 65.528 137.298 65.075 137.56" stroke-width="0.1"/>
  </g>
  <g>
   <path d="M67.618 139.908C68.072 139.646 68.069 138.794 67.614 138.002C67.156 137.211 66.42 136.782 65.965 137.044" stroke-width="0.1"/>
  </g>
 </g>
 <g>
  <line stroke="#FFFFFF" stroke-width="1" x1="75.111" x2="78.394" y1="133.674" y2="131.778"/>
  <line stroke-dasharray="2 0.5 0.2 0.5" stroke-width="0.13" x1="74.623" x2="78.882" y1="133.955" y2="131.497"/>
 </g>
 <g>
  <line stroke="#FFFFFF" stroke-width="1" x1="81.546" x2="84.828" y1="129.959" y2="128.063"/>
  <line stroke-dasharray="2 0.5 0.2 0.5" stroke-width="0.13" x1="81.058" x2="85.317" y1="130.241" y2="127.781"/>
 </g>
 <g>
  <line stroke="#FFFFFF" stroke-width="1" x1="63.182" x2="84.828" y1="115.001" y2="127.498"/>
  <line stroke-dasharray="2 0.5 0.2 0.5" stroke-width="0.13" x1="62.692" x2="85.317" y1="114.718" y2="127.781"/>
 </g>
 <line stroke-width="0.13" x1="76.977" x2="89.146" y1="100.828" y2="98.855"/>
 <text fill="#000000" font-family="'Helvetica'" font-size="3.528" font-weight="bold" stroke="none" x="89.912" y="99.394">2</text>
 <line stroke-width="0.13" x1="83.588" x2="80.188" y1="142.759" y2="134.866"/>
 <text fill="#000000" font-family="'Helvetica'" font-size="3.528" font-weight="bold" stroke="none" x="83.355" y="145.875">3</text>
 <line stroke-width="0.13" x1="72.698" x2="68.849" y1="149.048" y2="138.634"/>
 <text fill="#000000" font-family="'Helvetica'" font-size="3.528" font-weight="bold" stroke="none" x="72.465" y="152.162">4</text>
 <g>
  <line stroke-width="0.2" x1="19.275" x2="4.355" y1="70.435" y2="79.049"/>
  <line stroke-width="0.2" x1="15.282" x2="5.043" y1="76.816" y2="83.762"/>
  <line stroke-width="0.2" x1="20.711" x2="20.853" y1="71.498" y2="71.477"/>
  <line stroke-width="0.2" x1="21.19" x2="21.242" y1="71.68" y2="71.808"/>
  <line stroke-width="0.2" x1="21.231" x2="21.272" y1="71.783" y2="71.933"/>
  <line stroke-width="0.2" x1="21.164" x2="21.071" y1="71.605" y2="71.528"/>
  <line stroke-width="0.2" x1="21.065" x2="20.98" y1="71.518" y2="71.489"/>
  <line stroke-width="0.2" x1="21.117" x2="21.03" y1="71.555" y2="71.506"/>
  <line stroke-width="0.2" x1="20.916" x2="21.007" y1="71.48" y2="71.492"/>
  <line stroke-width="0.2" x1="20.829" x2="20.936" y1="71.48" y2="71.478"/>
  <line stroke-width="0.2" x1="21.158" x2="21.105" y1="71.62" y2="71.557"/>
  <line stroke-width="0.2" x1="21.204" x2="21.144" y1="71.703" y2="71.605"/>
  <line stroke-width="0.2" x1="19.722" x2="19.681" y1="72.01" y2="72.203"/>
  <line stroke-width="0.2" x1="19.71" x2="19.722" y1="72.064" y2="72.01"/>
  <line stroke-width="0.2" x1="17.019" x2="16.917" y1="76.518" y2="76.423"/>
  <line stroke-width="0.2" x1="17.115" x2="17.01" y1="76.581" y2="76.509"/>
  <line stroke-width="0.2" x1="16.932" x2="16.826" y1="76.441" y2="76.314"/>
  <line stroke-width="0.2" x1="1.744" x2="1.721" y1="85.884" y2="85.881"/>
  <line stroke-width="0.2" x1="1.754" x2="1.726" y1="85.942" y2="85.894"/>
  <line stroke-width="0.2" x1="1.778" x2="1.73" y1="85.941" y2="85.902"/>
  <line stroke-width="0.2" x1="1.766" x2="1.732" y1="85.945" y2="85.903"/>
  <line stroke-width="0.2" x1="1.721" x2="1.802" y1="85.876" y2="85.867"/>
  <line stroke-width="0.2" x1="1.718" x2="1.768" y1="85.875" y2="85.876"/>
  <line stroke-width="0.2" x1="1.714" x2="1.741" y1="85.865" y2="85.93"/>
  <line stroke-width="0.2" x1="1.7" x2="1.726" y1="85.808" y2="85.906"/>
  <path d="M2.956 79.855L2.499 80.12L0.978 80.998L0.52 81.263L0.474 81.299C0.348 81.424 0.351 81.632 0.382 81.793C0.437 82.07 0.598 82.343 0.82 82.521C0.917 82.599 1.036 82.665 1.163 82.671C1.37 82.68 1.709 82.411 1.792 82.362L3.198 81.551L3.657 81.286" stroke-width="0.2"/>
  <path d="M2.323 77.853C3.363 77.897 4.2 78.697 4.698 79.552C4.815 79.754 4.919 79.965 5.003 80.182C5.108 80.454 5.187 80.739 5.225 81.03C5.278 81.426 5.232 81.805 5.193 82.203L5.059 83.596L5.009 84.123L5.001 84.186C4.926 84.501 4.517 84.57 4.248 84.572C3.948 84.551 3.483 84.43 3.428 84.069L3.426 84.006L3.476 83.478L3.609 82.085C3.633 81.834 3.669 81.599 3.664 81.352" stroke-width="0.2"/>
  <path d="M3.668 81.391C3.636 81.066 3.54 80.774 3.399 80.48" stroke-width="0.2"/>
  <path d="M3.329 80.352C3.132 80.034 2.902 79.765 2.593 79.549" stroke-width="0.2"/>
  <path d="M2.318 79.438L2.458 79.481" stroke-width="0.2"/>
  <path d="M2.221 79.436L2.349 79.447" stroke-width="0.2"/>
  <path d="M2.634 79.578L2.442 79.474" stroke-width="0.2"/>
  <path d="M2.266 79.572L2.295 79.46" stroke-width="0.2"/>
  <path d="M2.197 80.295C2.221 80.048 2.237 79.796 2.272 79.549" stroke-width="0.2"/>
  <path d="M0.508 81.272L0.558 80.745L0.631 79.995C0.66 79.686 0.67 79.352 0.76 79.048C0.894 78.596 1.199 78.176 1.641 77.989C1.841 77.905 2.032 77.87 2.246 77.85" stroke-width="0.2"/>
  <path d="M19.228 70.463C19.611 70.227 20.019 69.99 20.474 69.927C20.774 69.885 21.039 69.888 21.335 69.942C21.481 69.968 21.631 70.022 21.759 70.093C21.939 70.194 22.115 70.302 22.254 70.459C22.396 70.62 22.53 70.789 22.618 70.986C22.891 71.602 22.934 72.262 22.838 72.924C22.746 73.545 22.539 74.147 22.265 74.709C21.728 75.813 20.94 76.745 19.957 77.474C19.461 77.84 18.82 78.153 18.202 78.246C17.939 78.286 17.778 78.292 17.513 78.296C17.149 78.257 16.782 78.209 16.454 78.028C16.248 77.915 16.038 77.792 15.871 77.623C15.705 77.456 15.539 77.278 15.423 77.072C15.022 76.367 14.875 75.593 14.916 74.784" stroke-width="0.2"/>
  <path d="M16.385 77.989L15.946 78.286L3.617 86.65C3.194 86.936 2.797 87.222 2.305 87.376C2.08 87.444 1.855 87.459 1.621 87.463C1.431 87.441 1.25 87.418 1.074 87.337C0.931 87.272 0.792 87.197 0.675 87.09C0.321 86.763 0.139 86.317 0.106 85.84C0.083 85.51 0.133 85.173 0.164 84.846L0.389 82.513L0.439 81.986" stroke-width="0.2"/>
  <path d="M20.981 69.896C20.746 69.501 20.341 69.206 19.9 69.084C19.693 69.028 19.501 69.024 19.289 69.018C17.96 69.112 16.888 70.131 16.175 71.18C16.022 71.403 15.882 71.637 15.756 71.875C15.618 72.134 15.489 72.405 15.387 72.68" stroke-width="0.2"/>
  <path d="M5.097 80.454L5.554 80.189L19.582 72.091C19.867 71.927 20.152 71.745 20.443 71.59" stroke-width="0.2"/>
  <path d="M21.268 71.918C21.303 72.147 21.289 72.022 21.303 72.293" stroke-width="0.2"/>
  <path d="M21.216 72.98C21.263 72.739 21.292 72.51 21.301 72.265" stroke-width="0.2"/>
  <path d="M18.78 76.347C20.038 75.287 20.996 73.831 21.298 72.198" stroke-width="0.2"/>
  <path d="M18.359 76.555C18.684 76.409 18.522 76.489 18.841 76.314" stroke-width="0.2"/>
  <path d="M19.513 75.805C19.285 76 19.056 76.171 18.806 76.334" stroke-width="0.2"/>
  <path d="M19.503 75.814C20.332 75.021 20.932 74.069 21.221 72.954" stroke-width="0.2"/>
  <path d="M18.408 76.539C18.106 76.647 18.254 76.602 17.966 76.676" stroke-width="0.2"/>
  <path d="M20.431 71.596C20.629 71.516 20.522 71.554 20.754 71.486" stroke-width="0.2"/>
  <path d="M16.623 75.908C17.056 75.614 17.519 75.349 17.917 75.006C18.78 74.263 19.381 73.254 19.689 72.167" stroke-width="0.2"/>
  <path d="M16.603 75.856C16.696 76.111 16.643 75.983 16.769 76.242" stroke-width="0.2"/>
  <path d="M17.111 76.578C17.254 76.65 17.371 76.68 17.533 76.712" stroke-width="0.2"/>
  <path d="M16.612 75.894C16.533 75.584 16.565 75.737 16.515 75.433" stroke-width="0.2"/>
  <path d="M16.512 74.656C16.493 74.932 16.495 75.192 16.518 75.468" stroke-width="0.2"/>
  <path d="M16.509 74.677C16.55 74.368 16.594 74.06 16.69 73.762" stroke-width="0.2"/>
  <path d="M3.929 84.519C3.338 84.92 2.756 85.334 2.153 85.718" stroke-width="0.2"/>
  <path d="M1.774 85.87L1.85 85.852L1.975 85.811" stroke-width="0.2"/>
  <path d="M1.687 85.676C1.753 84.527 1.901 83.382 2.011 82.236" stroke-width="0.2"/>
  <path d="M1.689 85.64C1.693 85.787 1.687 85.709 1.709 85.87" stroke-width="0.2"/>
  <path d="M1.923 85.828L2.181 85.703" stroke-width="0.2"/>
  <path d="M1.332 82.628C1.495 82.498 1.508 82.29 1.471 82.097C1.395 81.718 1.102 81.272 0.69 81.221C0.624 81.224 0.58 81.233 0.52 81.263" stroke-width="0.2"/>
 </g>
</svg>