<?xml version="1.0" encoding="UTF-8" standalone="no"?><!-- Generator: PTC Arbortext IsoDraw 7.3 M090 --><svg xmlns="http://www.w3.org/2000/svg" xmlns:xlink="http://www.w3.org/1999/xlink" clip-rule="evenodd" fill="none" fill-rule="evenodd" font-family="sans-serif" font-size="10" font-stretch="normal" font-style="normal" font-variant="normal" font-weight="normal" height="129.502" id="Livello_x0020_standard" onabort="parent.dwImageSVGOnAbort('EJJ126192218');" onerror="parent.dwImageSVGOnError('EJJ126192218');" onload="parent.dwImageSVGOnLoad('EJJ126192218');" stroke="#000000" stroke-linecap="round" viewBox="0.0 0.0 140.975 129.502" width="140.975" x="0" xml:space="preserve" y="0">
 <g>
  <path d="M92.462 100.186C92.7 100.043 92.912 99.799 93.013 99.563" stroke-width="0.13"/>
 </g>
 <g>
  <path d="M27.585 25.169C27.542 25.213 27.501 25.259 27.466 25.3C26.823 26.051 26.388 27.239 26.28 28.385" stroke-width="0.13"/>
 </g>
 <path d="M29.992 25.381L29.788 25.439L29.288 25.673" stroke-width="0.13"/>
 <path d="M69.891 105.018L69.858 105.087L69.84 105.141L69.807 105.266" stroke-width="0.13"/>
 <g>
  <path d="M73.39 103.852C74.487 104.362 75.725 104.539 76.653 104.371C76.715 104.361 76.775 104.347 76.825 104.334" stroke-width="0.13"/>
 </g>
 <path d="M77.847 102.141L77.697 102.29L77.242 102.606" stroke-width="0.13"/>
 <path d="M23.524 68.817L23.448 68.811L23.33 68.79L23.265 68.772" stroke-width="0.13"/>
 <line stroke-width="0.13" x1="27.711" x2="28.341" y1="25.138" y2="25.097"/>
 <path d="M27.73 25.138L27.211 25.248L26.646 25.464" stroke-width="0.13"/>
 <path d="M28.251 25.091L28.931 25.138L29.632 25.271" stroke-width="0.13"/>
 <line stroke-width="0.13" x1="76.918" x2="77.266" y1="104.237" y2="103.715"/>
 <path d="M76.927 104.222L76.572 104.615L76.102 104.998" stroke-width="0.13"/>
 <path d="M77.227 103.795L77.528 103.183L77.763 102.509" stroke-width="0.13"/>
 <line stroke-width="0.13" x1="75.671" x2="76.164" y1="105.233" y2="104.948"/>
 <line stroke-width="0.13" x1="76.182" x2="77.242" y1="103.219" y2="102.606"/>
 <g>
  <path d="M70.26 102.888C70.68 103.131 71.103 103.326 71.483 103.462C73.228 104.097 74.885 103.959 76.177 103.221" stroke-width="0.13"/>
 </g>
 <line stroke-width="0.13" x1="31.899" x2="70.263" y1="80.742" y2="102.89"/>
 <g>
  <path d="M26.245 73.474C27.312 76.588 29.542 79.358 31.899 80.742" stroke-width="0.13"/>
 </g>
 <line stroke-width="0.13" x1="26.217" x2="26.245" y1="73.397" y2="73.477"/>
 <g>
  <path d="M25.553 69.743C25.553 70.933 25.798 72.2 26.217 73.396" stroke-width="0.13"/>
 </g>
 <line stroke-width="0.13" x1="25.553" x2="25.553" y1="31.576" y2="69.745"/>
 <g>
  <path d="M27.554 26.757C26.213 27.876 25.559 29.606 25.553 31.576" stroke-width="0.13"/>
 </g>
 <g>
  <path d="M28.228 26.286C27.977 26.432 27.743 26.597 27.556 26.757" stroke-width="0.13"/>
 </g>
 <line stroke-width="0.13" x1="29.288" x2="28.227" y1="25.673" y2="26.286"/>
 <path d="M78.018 61.405L78.051 62.238L78.051 100.222L78.016 101.064L77.912 101.861L77.74 102.602" stroke-width="0.13"/>
 <g>
  <path d="M78.022 61.423C77.653 56.637 74.51 51.32 70.64 48.652" stroke-width="0.13"/>
 </g>
 <path d="M29.541 25.243L30.268 25.466L31.009 25.774L31.756 26.164L69.956 48.22L70.664 48.667" stroke-width="0.13"/>
 <line stroke-width="0.13" x1="26.228" x2="26.719" y1="25.721" y2="25.437"/>
 <path d="M64.629 5.927L64.911 6.043L65.311 6.221L65.92 6.52L66.316 6.756" stroke-width="0.13"/>
 <g>
  <path d="M64.621 5.923C62.554 5.089 60.337 4.742 58.27 4.828" stroke-width="0.13"/>
 </g>
 <line stroke-width="0.13" x1="57.637" x2="58.277" y1="4.878" y2="4.827"/>
 <g>
  <path d="M112.158 41.86C112.159 36.442 109.26 31.655 104.888 29.018" stroke-width="0.13"/>
 </g>
 <path d="M112.099 40.546L112.158 41.865L112.158 79.849L112.147 80.424L112.111 81.027L112.058 81.504" stroke-width="0.13"/>
 <path d="M66.12 6.65L66.453 6.814L104.653 28.87" stroke-width="0.13"/>
 <path d="M26.661 21.125L51.256 6.931L52.055 6.493L52.514 6.258L53.142 5.977L53.618 5.793L54.253 5.559L55.39 5.235L56.045 5.091L56.521 5.009L57.168 4.913L57.795 4.865" stroke-width="0.13"/>
 <g>
  <path d="M26.661 21.123C24.983 22.082 23.693 23.78 23.068 25.638" stroke-width="0.13"/>
 </g>
 <path d="M22.46 67.626L22.463 29.382L22.496 28.454L22.599 27.57L22.829 26.428L23.068 25.638" stroke-width="0.13"/>
 <g>
  <path d="M22.46 67.626C22.513 74.043 26.739 81.245 32.192 84.481" stroke-width="0.13"/>
 </g>
 <path d="M74.489 108.061L74.164 108.01L73.359 107.822L72.254 107.451L71.438 107.097L70.617 106.662L32.192 84.48" stroke-width="0.13"/>
 <g>
  <path d="M74.495 108.061C76.313 108.37 78.031 108.09 79.459 107.373C79.608 107.301 79.751 107.224 79.873 107.153" stroke-width="0.13"/>
 </g>
 <path d="M112.069 81.394L112.031 81.775L111.918 82.477L111.759 83.233L111.531 84.069L111.346 84.652L111.102 85.302L110.95 85.686L110.575 86.51L110.328 86.995L110.117 87.373L109.79 87.924L109.162 88.84L108.754 89.353L108.444 89.724L107.993 90.221L107.144 91.042L106.625 91.475L106.225 91.796L105.67 92.2L104.844 92.73L79.868 107.155" stroke-width="0.13"/>
 <path d="M113.688 87.593L113.679 87.409L113.641 87.197L112.117 80.918" stroke-width="0.13"/>
 <g>
  <path d="M113.564 87.971C113.65 87.87 113.691 87.739 113.689 87.593" stroke-width="0.13"/>
 </g>
 <g>
  <path d="M113.435 88.076C113.487 88.046 113.533 88.009 113.564 87.971" stroke-width="0.13"/>
 </g>
 <line stroke-width="0.13" x1="92.462" x2="113.433" y1="100.186" y2="88.078"/>
 <g>
  <path d="M91.704 100.319C91.706 100.319 91.706 100.319 91.707 100.319C91.942 100.373 92.23 100.317 92.462 100.186" stroke-width="0.13"/>
 </g>
 <g>
  <path d="M31.512 79.763C31.512 79.79 31.513 79.816 31.513 79.84C31.53 80.263 31.675 80.572 31.9 80.742" stroke-width="0.13"/>
 </g>
 <g>
  <path d="M25.553 69.743C25.588 70.045 25.803 70.316 26.126 70.522C26.152 70.54 26.181 70.557 26.204 70.57" stroke-width="0.13"/>
 </g>
 <g>
  <path d="M23.524 68.819C23.661 68.828 23.791 68.819 23.899 68.793C23.995 68.769 24.082 68.736 24.15 68.697" stroke-width="0.13"/>
 </g>
 <line stroke-width="0.13" x1="25.553" x2="24.15" y1="67.887" y2="68.695"/>
 <g>
  <path d="M22.46 67.625C22.484 67.903 22.603 68.17 22.785 68.399C22.864 68.5 22.954 68.593 23.042 68.67" stroke-width="0.13"/>
 </g>
 <path d="M23.265 68.772L23.126 68.721L23.042 68.671" stroke-width="0.13"/>
 <g>
  <path d="M75.019 60.771C75.019 60.771 75.019 60.771 75.019 60.771C75.817 61.232 77.07 61.274 77.96 60.89" stroke-width="0.13"/>
 </g>
 <g>
  <path d="M71.078 48.973C70.289 49.56 69.716 50.671 69.713 51.579C69.713 51.579 69.713 51.582 69.713 51.582" stroke-width="0.13"/>
 </g>
 <g>
  <path d="M110.832 85.924C111.137 85.063 111.183 84.102 111.016 83.161" stroke-width="0.13"/>
 </g>
 <g>
  <path d="M104.631 28.856C103.596 28.266 102.406 28.064 101.204 28.199" stroke-width="0.13"/>
 </g>
 <g>
  <path d="M104.647 28.864C104.641 28.861 104.635 28.859 104.631 28.856C104.631 28.856 104.631 28.856 104.631 28.856" stroke-width="0.13"/>
 </g>
 <line stroke-width="0.13" x1="66.177" x2="66.453" y1="6.7" y2="6.814"/>
 <g>
  <path d="M63.012 6.147C62.131 5.419 61.209 5.008 60.348 4.894" stroke-width="0.13"/>
 </g>
 <g>
  <path d="M51.453 6.811C51.383 6.852 51.314 6.892 51.256 6.929" stroke-width="0.13"/>
 </g>
 <g>
  <path d="M58.951 7.557C56.021 5.868 53.372 5.705 51.453 6.811" stroke-width="0.13"/>
 </g>
 <line stroke-width="0.13" x1="97.15" x2="58.951" y1="29.612" y2="7.557"/>
 <g>
  <path d="M107.765 47.987C107.765 47.987 107.765 47.987 107.765 47.987C107.762 41.219 103.007 32.993 97.144 29.612" stroke-width="0.13"/>
 </g>
 <line stroke-width="0.13" x1="107.762" x2="107.762" y1="85.975" y2="47.993"/>
 <g>
  <path d="M104.849 92.727C106.802 91.478 107.766 88.998 107.763 85.971" stroke-width="0.13"/>
 </g>
 <g>
  <path d="M111.018 45.173C111.789 38.707 107.986 31.737 102.253 28.707" stroke-width="0.13"/>
 </g>
 <g>
  <path d="M102.222 28.586C102.072 28.265 101.531 28.167 100.78 28.263C99.697 28.405 98.319 28.932 97.152 29.611" stroke-width="0.13"/>
 </g>
 <g>
  <path d="M102.26 28.713C102.254 28.666 102.24 28.621 102.224 28.586C102.224 28.586 102.224 28.586 102.224 28.586" stroke-width="0.13"/>
 </g>
 <line stroke-width="0.13" x1="72.364" x2="97.15" y1="43.923" y2="29.612"/>
 <g>
  <path d="M72.365 43.923C71.137 44.633 70.102 46.194 69.796 47.701" stroke-width="0.13"/>
 </g>
 <g>
  <path d="M69.796 47.703C69.787 47.755 69.781 47.802 69.781 47.844C69.775 48.021 69.832 48.146 69.93 48.207C69.939 48.212 69.948 48.216 69.956 48.22" stroke-width="0.13"/>
 </g>
 <line stroke-width="0.13" x1="112.158" x2="106.265" y1="41.862" y2="46.057"/>
 <g>
  <path d="M107.768 47.982C110.692 46.289 112.155 44.076 112.156 41.862" stroke-width="0.13"/>
 </g>
 <line stroke-width="0.13" x1="82.975" x2="107.762" y1="62.301" y2="47.993"/>
 <g>
  <path d="M78.42 62.637C79.918 63.146 81.775 62.985 82.974 62.302C82.975 62.301 82.977 62.301 82.977 62.301" stroke-width="0.13"/>
 </g>
 <g>
  <path d="M78.051 62.238C78.049 62.246 78.049 62.255 78.049 62.262C78.049 62.381 78.132 62.488 78.266 62.567C78.314 62.595 78.367 62.618 78.418 62.636" stroke-width="0.13"/>
 </g>
 <g>
  <path d="M76.183 103.218C77.168 102.65 77.799 101.6 78.046 100.322" stroke-width="0.13"/>
 </g>
 <g>
  <path d="M75.018 98.754C75.018 98.754 75.018 98.754 75.018 98.754C75.844 99.233 77.174 99.262 78.049 98.831" stroke-width="0.13"/>
 </g>
 <g>
  <path d="M70.311 104.536C70.186 104.609 70.078 104.715 69.995 104.837C69.954 104.897 69.92 104.959 69.891 105.016" stroke-width="0.13"/>
 </g>
 <line stroke-width="0.13" x1="71.933" x2="70.311" y1="103.597" y2="104.536"/>
 <g>
  <path d="M69.795 105.596C69.906 106.031 70.118 106.347 70.388 106.534" stroke-width="0.13"/>
 </g>
 <path d="M69.807 105.266L69.79 105.388L69.786 105.513L69.796 105.597" stroke-width="0.13"/>
 <g>
  <path d="M32.962 26.862C32.162 27.388 31.522 28.554 31.512 29.493C31.512 29.504 31.512 29.516 31.512 29.525" stroke-width="0.13"/>
 </g>
 <g>
  <path d="M25.553 31.763C25.594 32.09 25.838 32.378 26.207 32.59" stroke-width="0.13"/>
 </g>
 <g>
  <path d="M31.669 26.118C30.324 25.661 29.129 25.757 28.228 26.285" stroke-width="0.13"/>
 </g>
 <g>
  <path d="M34.173 21.867C31.245 20.175 28.594 20.013 26.673 21.117" stroke-width="0.13"/>
 </g>
 <line stroke-width="0.13" x1="72.364" x2="34.164" y1="43.923" y2="21.867"/>
 <g>
  <path d="M82.98 62.298C82.98 62.298 82.98 62.298 82.98 62.298C82.977 55.53 78.222 47.304 72.361 43.923" stroke-width="0.13"/>
 </g>
 <line stroke-width="0.13" x1="82.975" x2="82.975" y1="100.286" y2="62.301"/>
 <g>
  <path d="M79.861 107.159C81.93 105.966 82.968 103.436 82.974 100.307C82.974 100.302 82.974 100.296 82.974 100.292" stroke-width="0.13"/>
 </g>
 <g>
  <path d="M22.46 29.649C22.495 30.013 22.682 30.35 22.975 30.631" stroke-width="0.13"/>
 </g>
 <g>
  <path d="M22.975 30.626C23.009 30.658 23.048 30.687 23.089 30.711C23.382 30.881 23.858 30.881 24.15 30.71" stroke-width="0.13"/>
 </g>
 <line stroke-width="0.13" x1="25.774" x2="24.15" y1="29.774" y2="30.711"/>
 <g>
  <path d="M31.596 25.647C31.579 25.728 31.574 25.804 31.58 25.868C31.594 26.016 31.655 26.117 31.745 26.161C31.748 26.164 31.751 26.164 31.754 26.166" stroke-width="0.13"/>
 </g>
 <g>
  <path d="M34.167 21.867C32.936 22.576 31.902 24.138 31.596 25.644" stroke-width="0.13"/>
 </g>
 <line stroke-width="0.13" x1="58.951" x2="34.164" y1="7.557" y2="21.867"/>
 <g>
  <path d="M66.117 6.649C64.649 5.905 62.805 5.952 60.932 6.626C60.237 6.875 59.551 7.2 58.947 7.557" stroke-width="0.13"/>
 </g>
 <g>
  <path d="M26.236 25.714C24.843 26.675 24.155 28.498 24.155 30.704" stroke-width="0.13"/>
 </g>
 <line stroke-width="0.13" x1="24.15" x2="24.15" y1="68.695" y2="30.711"/>
 <g>
  <path d="M24.149 68.698C24.15 73.775 27.718 79.944 32.115 82.48" stroke-width="0.13"/>
 </g>
 <line stroke-width="0.13" x1="70.311" x2="32.109" y1="104.536" y2="82.48"/>
 <g>
  <path d="M70.308 104.534C72.378 105.73 74.262 105.906 75.671 105.233" stroke-width="0.13"/>
 </g>
 <g>
  <path d="M22.977 68.605C22.977 68.605 22.977 68.606 22.977 68.606C22.975 74.105 26.83 80.792 31.589 83.543C31.589 83.543 31.591 83.543 31.591 83.543" stroke-width="0.13"/>
 </g>
 <line stroke-width="0.13" x1="22.974" x2="22.974" y1="30.626" y2="68.608"/>
 <g>
  <path d="M25.504 25.041C23.821 26.012 22.978 28.073 22.977 30.618C22.977 30.62 22.977 30.62 22.977 30.62" stroke-width="0.13"/>
 </g>
 <g>
  <path d="M31.6 25.647C31.6 25.647 31.6 25.646 31.599 25.646C29.219 24.271 27.065 24.14 25.504 25.041" stroke-width="0.13"/>
 </g>
 <line stroke-width="0.13" x1="69.796" x2="31.596" y1="47.703" y2="25.647"/>
 <g>
  <path d="M78.421 62.633C78.421 62.631 78.421 62.628 78.421 62.628C78.417 57.133 74.555 50.451 69.796 47.704C69.793 47.704 69.793 47.703 69.79 47.703" stroke-width="0.13"/>
 </g>
 <line stroke-width="0.13" x1="78.418" x2="78.418" y1="100.62" y2="62.637"/>
 <g>
  <path d="M69.79 105.597C69.793 105.599 69.793 105.599 69.796 105.6C72.174 106.974 74.328 107.105 75.888 106.206C77.57 105.234 78.414 103.174 78.415 100.629C78.415 100.629 78.415 100.628 78.415 100.626" stroke-width="0.13"/>
 </g>
 <line stroke-width="0.13" x1="31.596" x2="69.796" y1="83.543" y2="105.597"/>
 <g>
  <path d="M31.597 83.545C31.71 83.98 31.922 84.296 32.194 84.481" stroke-width="0.13"/>
 </g>
 <g>
  <path d="M32.109 82.48C32.109 82.48 32.109 82.48 32.109 82.48C31.817 82.649 31.579 83.061 31.579 83.399C31.579 83.453 31.585 83.503 31.596 83.543" stroke-width="0.13"/>
 </g>
 <line stroke-width="0.13" x1="33.511" x2="32.109" y1="81.671" y2="82.48"/>
 <line stroke-width="0.13" x1="69.712" x2="31.512" y1="101.816" y2="79.763"/>
 <g>
  <path d="M69.71 101.817C71.174 102.664 72.501 102.743 73.46 102.191C74.498 101.593 75.016 100.323 75.016 98.756" stroke-width="0.13"/>
 </g>
 <line stroke-width="0.13" x1="75.018" x2="75.018" y1="60.771" y2="98.754"/>
 <g>
  <path d="M75.016 60.774C75.016 60.774 75.016 60.774 75.016 60.773C75.016 57.39 72.644 53.276 69.716 51.582" stroke-width="0.13"/>
 </g>
 <line stroke-width="0.13" x1="31.512" x2="69.712" y1="29.525" y2="51.581"/>
 <g>
  <path d="M27.763 29.153C26.727 29.751 26.208 31.019 26.207 32.588" stroke-width="0.13"/>
 </g>
 <g>
  <path d="M31.515 29.527C30.05 28.679 28.724 28.6 27.763 29.153" stroke-width="0.13"/>
 </g>
 <line stroke-width="0.13" x1="26.205" x2="26.205" y1="70.572" y2="32.588"/>
 <g>
  <path d="M26.204 70.575C26.204 70.575 26.204 70.575 26.204 70.575C26.205 73.957 28.582 78.07 31.513 79.763" stroke-width="0.13"/>
 </g>
 <g>
  <path d="M69.712 101.819C69.713 102.281 69.861 102.617 70.102 102.798" stroke-width="0.13"/>
 </g>
 <g>
  <path d="M78.051 100.224C78.049 100.233 78.049 100.242 78.049 100.248C78.051 100.37 78.135 100.477 78.274 100.555C78.319 100.581 78.37 100.605 78.42 100.62" stroke-width="0.13"/>
 </g>
 <g>
  <path d="M78.418 100.62C79.918 101.129 81.778 100.969 82.977 100.284C82.977 100.284 82.977 100.284 82.977 100.284" stroke-width="0.13"/>
 </g>
 <line stroke-width="0.13" x1="107.762" x2="82.975" y1="85.975" y2="100.286"/>
 <g>
  <path d="M107.763 85.974C107.769 85.971 107.775 85.968 107.778 85.965C110.697 84.274 112.156 82.061 112.156 79.849" stroke-width="0.13"/>
 </g>
 <line stroke-width="0.13" x1="113.641" x2="107.391" y1="87.197" y2="90.805"/>
 <line stroke-width="0.13" x1="120.855" x2="120.855" y1="89.465" y2="90.691"/>
 <line stroke-width="0.13" x1="104.037" x2="104.037" y1="95.07" y2="96.296"/>
 <line stroke-width="0.13" x1="137.8" x2="112.158" y1="79.68" y2="64.876"/>
 <line stroke-width="0.13" x1="137.8" x2="137.8" y1="79.68" y2="80.906"/>
 <line stroke-width="0.13" x1="138.329" x2="139.384" y1="81.15" y2="80.412"/>
 <line stroke-width="0.13" x1="138.329" x2="137.859" y1="81.15" y2="80.879"/>
 <line stroke-width="0.13" x1="139.842" x2="140.899" y1="96.909" y2="96.171"/>
 <line stroke-width="0.13" x1="132.651" x2="131.594" y1="85.957" y2="86.694"/>
 <g>
  <path d="M132.715 85.14C132.627 85.418 132.616 85.75 132.665 86.09C132.867 87.552 134.088 89.299 135.393 89.989C135.734 90.171 136.048 90.262 136.306 90.269" stroke-width="0.13"/>
 </g>
 <g>
  <path d="M138.155 80.858C138.051 80.813 137.926 80.834 137.8 80.906" stroke-width="0.13"/>
 </g>
 <g>
  <path d="M138.187 80.876C138.175 80.87 138.164 80.864 138.155 80.858C138.155 80.858 138.155 80.858 138.155 80.858" stroke-width="0.13"/>
 </g>
 <path d="M97.429 97.319L105.49 96.052L106.923 95.778L108.334 95.468L109.724 95.126L111.09 94.753L112.427 94.346L113.736 93.911L115.013 93.444L116.256 92.948L117.465 92.424L118.634 91.873L119.763 91.296L137.8 80.906" stroke-width="0.13"/>
 <line stroke-width="0.13" x1="137.467" x2="122.602" y1="98.263" y2="89.682"/>
 <g>
  <path d="M137.467 98.265C137.52 98.296 137.574 98.325 137.621 98.349C138.338 98.721 138.943 98.733 139.342 98.451C139.342 98.45 139.344 98.448 139.346 98.447" stroke-width="0.13"/>
 </g>
 <line stroke-width="0.13" x1="140.402" x2="139.347" y1="97.709" y2="98.447"/>
 <g>
  <path d="M140.401 97.712C140.403 97.709 140.407 97.706 140.409 97.704C140.808 97.412 140.962 96.856 140.896 96.174" stroke-width="0.13"/>
 </g>
 <line stroke-width="0.13" x1="139.384" x2="140.899" y1="80.412" y2="96.171"/>
 <g>
  <path d="M139.383 80.414C139.376 80.325 139.361 80.24 139.342 80.171C139.277 79.918 139.156 79.731 139.002 79.62" stroke-width="0.13"/>
 </g>
 <line stroke-width="0.13" x1="112.158" x2="139.002" y1="64.118" y2="79.62"/>
 <g>
  <path d="M135.883 90.864C135.895 90.855 135.907 90.847 135.917 90.84C136.31 90.566 136.449 90.009 136.355 89.328C136.157 87.858 134.931 86.105 133.621 85.414C132.985 85.078 132.447 85.052 132.082 85.283" stroke-width="0.13"/>
 </g>
 <g>
  <path d="M132.049 85.305C131.656 85.581 131.516 86.138 131.609 86.819C131.808 88.289 133.033 90.04 134.344 90.733C134.979 91.069 135.519 91.093 135.882 90.864" stroke-width="0.13"/>
 </g>
 <g>
  <path d="M132.081 85.284C132.069 85.29 132.058 85.299 132.049 85.305C132.049 85.305 132.048 85.305 132.048 85.305" stroke-width="0.13"/>
 </g>
 <path d="M139.842 96.909L138.329 81.15L138.312 81.061L138.283 80.984L138.187 80.876" stroke-width="0.13"/>
 <g>
  <path d="M139.346 98.447C139.751 98.159 139.909 97.596 139.842 96.909" stroke-width="0.13"/>
 </g>
 <path d="M137.8 79.68L119.763 90.069L118.634 90.647L117.465 91.2L116.256 91.724L115.013 92.218L113.736 92.685L112.427 93.121L111.09 93.527L109.724 93.9L108.334 94.242L106.923 94.552L105.49 94.828L100.328 95.644" stroke-width="0.13"/>
 <g>
  <path d="M138.866 79.537C138.574 79.405 138.213 79.456 137.855 79.65C137.836 79.661 137.817 79.671 137.8 79.682" stroke-width="0.13"/>
 </g>
 <path d="M100.462 127.822L100.385 127.506L99.415 121.781L96.462 97.876" stroke-width="0.13"/>
 <path d="M136.377 89.825L134.698 88.855L132.955 85.168" stroke-width="0.13"/>
 <line stroke-width="0.13" x1="80.737" x2="80.566" y1="114.781" y2="113.918"/>
 <path d="M80.567 113.941L80.566 113.918L80.539 113.441" stroke-width="0.13"/>
 <line stroke-width="0.13" x1="89.049" x2="97.548" y1="122.665" y2="127.57"/>
 <g>
  <path d="M83.281 118.614C85.097 120.159 87.102 121.551 89.033 122.644" stroke-width="0.13"/>
 </g>
 <path d="M81.028 115.629L81.436 116.462L81.956 117.256L82.581 117.983L83.293 118.637" stroke-width="0.13"/>
 <g>
  <path d="M83.46 117.316C83.381 117.533 83.326 117.743 83.299 117.927C83.26 118.191 83.26 118.436 83.296 118.64" stroke-width="0.13"/>
 </g>
 <line stroke-width="0.13" x1="83.558" x2="83.46" y1="117.085" y2="117.313"/>
 <g>
  <path d="M89.287 120.945C89.09 121.459 89.006 121.95 89.021 122.362C89.024 122.474 89.034 122.578 89.049 122.665" stroke-width="0.13"/>
 </g>
 <line stroke-width="0.13" x1="80.737" x2="81.025" y1="114.781" y2="115.623"/>
 <line stroke-width="0.13" x1="81.028" x2="80.739" y1="115.629" y2="114.795"/>
 <line stroke-width="0.13" x1="98.591" x2="101.775" y1="126.742" y2="128.58"/>
 <g>
  <path d="M99.064 125.269C98.817 125.611 98.665 125.966 98.608 126.283C98.576 126.454 98.572 126.612 98.591 126.742" stroke-width="0.13"/>
 </g>
 <line stroke-width="0.13" x1="101.775" x2="100.737" y1="128.58" y2="129.437"/>
 <path d="M97.548 127.57L99.15 128.512L100.737 129.437" stroke-width="0.13"/>
 <line stroke-width="0.13" x1="97.548" x2="98.591" y1="127.57" y2="126.742"/>
 <g>
  <path d="M98.025 125.326C97.647 126.031 97.481 126.781 97.527 127.388C97.531 127.454 97.539 127.518 97.548 127.57" stroke-width="0.13"/>
 </g>
 <path d="M95.983 124.811L95.477 121.099L93.326 99.686" stroke-width="0.13"/>
 <line stroke-width="0.13" x1="92.927" x2="95.477" y1="99.918" y2="121.099"/>
 <line stroke-width="0.13" x1="88.545" x2="86.43" y1="120.518" y2="103.365"/>
 <path d="M82.789 116.493L82.284 112.784L81.492 106.216" stroke-width="0.13"/>
 <path d="M95.983 124.811L88.545 120.518L85.522 118.597L82.789 116.493L81.584 115.251L80.7 113.891L80.182 112.448L79.54 107.322" stroke-width="0.13"/>
 <g>
  <path d="M95.983 124.813C96.075 124.865 96.171 124.915 96.257 124.953C97.295 125.43 98.649 125.453 99.852 125.088" stroke-width="0.13"/>
 </g>
 <line stroke-width="0.13" x1="99.968" x2="99.852" y1="125.043" y2="125.087"/>
 <g>
  <path d="M92.462 100.186C92.7 100.043 92.912 99.799 93.013 99.563" stroke-width="0.13"/>
 </g>
 <g>
  <path d="M27.585 25.169C27.542 25.213 27.501 25.259 27.466 25.3C26.823 26.051 26.388 27.239 26.28 28.385" stroke-width="0.13"/>
 </g>
 <path d="M29.992 25.381L29.788 25.439L29.288 25.673" stroke-width="0.13"/>
 <path d="M69.891 105.018L69.858 105.087L69.84 105.141L69.807 105.266" stroke-width="0.13"/>
 <g>
  <path d="M73.39 103.852C74.487 104.362 75.725 104.539 76.653 104.371C76.715 104.361 76.775 104.347 76.825 104.334" stroke-width="0.13"/>
 </g>
 <path d="M77.847 102.141L77.697 102.29L77.242 102.606" stroke-width="0.13"/>
 <path d="M23.524 68.817L23.448 68.811L23.33 68.79L23.265 68.772" stroke-width="0.13"/>
 <line stroke-width="0.13" x1="27.711" x2="28.341" y1="25.138" y2="25.097"/>
 <path d="M27.73 25.138L27.211 25.248L26.646 25.464" stroke-width="0.13"/>
 <path d="M28.251 25.091L28.931 25.138L29.632 25.271" stroke-width="0.13"/>
 <line stroke-width="0.13" x1="76.918" x2="77.266" y1="104.237" y2="103.715"/>
 <path d="M76.927 104.222L76.572 104.615L76.102 104.998" stroke-width="0.13"/>
 <path d="M77.227 103.795L77.528 103.183L77.763 102.509" stroke-width="0.13"/>
 <line stroke-width="0.13" x1="75.671" x2="76.164" y1="105.233" y2="104.948"/>
 <line stroke-width="0.13" x1="76.182" x2="77.242" y1="103.219" y2="102.606"/>
 <g>
  <path d="M70.26 102.888C70.68 103.131 71.103 103.326 71.483 103.462C73.228 104.097 74.885 103.959 76.177 103.221" stroke-width="0.13"/>
 </g>
 <line stroke-width="0.13" x1="31.899" x2="70.263" y1="80.742" y2="102.89"/>
 <g>
  <path d="M26.245 73.474C27.312 76.588 29.542 79.358 31.899 80.742" stroke-width="0.13"/>
 </g>
 <line stroke-width="0.13" x1="26.217" x2="26.245" y1="73.397" y2="73.477"/>
 <g>
  <path d="M25.553 69.743C25.553 70.933 25.798 72.2 26.217 73.396" stroke-width="0.13"/>
 </g>
 <line stroke-width="0.13" x1="25.553" x2="25.553" y1="31.576" y2="69.745"/>
 <g>
  <path d="M27.554 26.757C26.213 27.876 25.559 29.606 25.553 31.576" stroke-width="0.13"/>
 </g>
 <g>
  <path d="M28.228 26.286C27.977 26.432 27.743 26.597 27.556 26.757" stroke-width="0.13"/>
 </g>
 <line stroke-width="0.13" x1="29.288" x2="28.227" y1="25.673" y2="26.286"/>
 <path d="M78.018 61.405L78.051 62.238L78.051 100.222L78.016 101.064L77.912 101.861L77.74 102.602" stroke-width="0.13"/>
 <g>
  <path d="M78.022 61.423C77.653 56.637 74.51 51.32 70.64 48.652" stroke-width="0.13"/>
 </g>
 <path d="M29.541 25.243L30.268 25.466L31.009 25.774L31.756 26.164L69.956 48.22L70.664 48.667" stroke-width="0.13"/>
 <line stroke-width="0.13" x1="26.228" x2="26.719" y1="25.721" y2="25.437"/>
 <path d="M64.629 5.927L64.911 6.043L65.311 6.221L65.92 6.52L66.316 6.756" stroke-width="0.13"/>
 <g>
  <path d="M64.621 5.923C62.554 5.089 60.337 4.742 58.27 4.828" stroke-width="0.13"/>
 </g>
 <line stroke-width="0.13" x1="57.637" x2="58.277" y1="4.878" y2="4.827"/>
 <g>
  <path d="M112.158 41.86C112.159 36.442 109.26 31.655 104.888 29.018" stroke-width="0.13"/>
 </g>
 <path d="M112.099 40.546L112.158 41.865L112.158 79.849L112.147 80.424L112.111 81.027L112.058 81.504" stroke-width="0.13"/>
 <path d="M66.12 6.65L66.453 6.814L104.653 28.87" stroke-width="0.13"/>
 <path d="M26.661 21.125L51.256 6.931L52.055 6.493L52.514 6.258L53.142 5.977L53.618 5.793L54.253 5.559L55.39 5.235L56.045 5.091L56.521 5.009L57.168 4.913L57.795 4.865" stroke-width="0.13"/>
 <g>
  <path d="M26.661 21.123C24.983 22.082 23.693 23.78 23.068 25.638" stroke-width="0.13"/>
 </g>
 <path d="M22.46 67.626L22.463 29.382L22.496 28.454L22.599 27.57L22.829 26.428L23.068 25.638" stroke-width="0.13"/>
 <g>
  <path d="M22.46 67.626C22.513 74.043 26.739 81.245 32.192 84.481" stroke-width="0.13"/>
 </g>
 <path d="M74.489 108.061L74.164 108.01L73.359 107.822L72.254 107.451L71.438 107.097L70.617 106.662L32.192 84.48" stroke-width="0.13"/>
 <g>
  <path d="M74.495 108.061C76.313 108.37 78.031 108.09 79.459 107.373C79.608 107.301 79.751 107.224 79.873 107.153" stroke-width="0.13"/>
 </g>
 <path d="M112.069 81.394L112.031 81.775L111.918 82.477L111.759 83.233L111.531 84.069L111.346 84.652L111.102 85.302L110.95 85.686L110.575 86.51L110.328 86.995L110.117 87.373L109.79 87.924L109.162 88.84L108.754 89.353L108.444 89.724L107.993 90.221L107.144 91.042L106.625 91.475L106.225 91.796L105.67 92.2L104.844 92.73L79.868 107.155" stroke-width="0.13"/>
 <path d="M113.688 87.593L113.679 87.409L113.641 87.197L112.117 80.918" stroke-width="0.13"/>
 <g>
  <path d="M113.564 87.971C113.65 87.87 113.691 87.739 113.689 87.593" stroke-width="0.13"/>
 </g>
 <g>
  <path d="M113.435 88.076C113.487 88.046 113.533 88.009 113.564 87.971" stroke-width="0.13"/>
 </g>
 <line stroke-width="0.13" x1="92.462" x2="113.433" y1="100.186" y2="88.078"/>
 <g>
  <path d="M91.704 100.319C91.706 100.319 91.706 100.319 91.707 100.319C91.942 100.373 92.23 100.317 92.462 100.186" stroke-width="0.13"/>
 </g>
 <g>
  <path d="M31.512 79.763C31.512 79.79 31.513 79.816 31.513 79.84C31.53 80.263 31.675 80.572 31.9 80.742" stroke-width="0.13"/>
 </g>
 <g>
  <path d="M25.553 69.743C25.588 70.045 25.803 70.316 26.126 70.522C26.152 70.54 26.181 70.557 26.204 70.57" stroke-width="0.13"/>
 </g>
 <g>
  <path d="M23.524 68.819C23.661 68.828 23.791 68.819 23.899 68.793C23.995 68.769 24.082 68.736 24.15 68.697" stroke-width="0.13"/>
 </g>
 <line stroke-width="0.13" x1="25.553" x2="24.15" y1="67.887" y2="68.695"/>
 <g>
  <path d="M22.46 67.625C22.484 67.903 22.603 68.17 22.785 68.399C22.864 68.5 22.954 68.593 23.042 68.67" stroke-width="0.13"/>
 </g>
 <path d="M23.265 68.772L23.126 68.721L23.042 68.671" stroke-width="0.13"/>
 <g>
  <path d="M75.019 60.771C75.019 60.771 75.019 60.771 75.019 60.771C75.817 61.232 77.07 61.274 77.96 60.89" stroke-width="0.13"/>
 </g>
 <g>
  <path d="M71.078 48.973C70.289 49.56 69.716 50.671 69.713 51.579C69.713 51.579 69.713 51.582 69.713 51.582" stroke-width="0.13"/>
 </g>
 <g>
  <path d="M110.832 85.924C111.137 85.063 111.183 84.102 111.016 83.161" stroke-width="0.13"/>
 </g>
 <g>
  <path d="M104.631 28.856C103.596 28.266 102.406 28.064 101.204 28.199" stroke-width="0.13"/>
 </g>
 <g>
  <path d="M104.647 28.864C104.641 28.861 104.635 28.859 104.631 28.856C104.631 28.856 104.631 28.856 104.631 28.856" stroke-width="0.13"/>
 </g>
 <line stroke-width="0.13" x1="66.177" x2="66.453" y1="6.7" y2="6.814"/>
 <g>
  <path d="M63.012 6.147C62.131 5.419 61.209 5.008 60.348 4.894" stroke-width="0.13"/>
 </g>
 <g>
  <path d="M51.453 6.811C51.383 6.852 51.314 6.892 51.256 6.929" stroke-width="0.13"/>
 </g>
 <g>
  <path d="M58.951 7.557C56.021 5.868 53.372 5.705 51.453 6.811" stroke-width="0.13"/>
 </g>
 <line stroke-width="0.13" x1="97.15" x2="58.951" y1="29.612" y2="7.557"/>
 <g>
  <path d="M107.765 47.987C107.765 47.987 107.765 47.987 107.765 47.987C107.762 41.219 103.007 32.993 97.144 29.612" stroke-width="0.13"/>
 </g>
 <line stroke-width="0.13" x1="107.762" x2="107.762" y1="85.975" y2="47.993"/>
 <g>
  <path d="M104.849 92.727C106.802 91.478 107.766 88.998 107.763 85.971" stroke-width="0.13"/>
 </g>
 <g>
  <path d="M111.018 45.173C111.789 38.707 107.986 31.737 102.253 28.707" stroke-width="0.13"/>
 </g>
 <g>
  <path d="M102.222 28.586C102.072 28.265 101.531 28.167 100.78 28.263C99.697 28.405 98.319 28.932 97.152 29.611" stroke-width="0.13"/>
 </g>
 <g>
  <path d="M102.26 28.713C102.254 28.666 102.24 28.621 102.224 28.586C102.224 28.586 102.224 28.586 102.224 28.586" stroke-width="0.13"/>
 </g>
 <line stroke-width="0.13" x1="72.364" x2="97.15" y1="43.923" y2="29.612"/>
 <g>
  <path d="M72.365 43.923C71.137 44.633 70.102 46.194 69.796 47.701" stroke-width="0.13"/>
 </g>
 <g>
  <path d="M69.796 47.703C69.787 47.755 69.781 47.802 69.781 47.844C69.775 48.021 69.832 48.146 69.93 48.207C69.939 48.212 69.948 48.216 69.956 48.22" stroke-width="0.13"/>
 </g>
 <line stroke-width="0.13" x1="112.158" x2="106.265" y1="41.862" y2="46.057"/>
 <g>
  <path d="M107.768 47.982C110.692 46.289 112.155 44.076 112.156 41.862" stroke-width="0.13"/>
 </g>
 <line stroke-width="0.13" x1="82.975" x2="107.762" y1="62.301" y2="47.993"/>
 <g>
  <path d="M78.42 62.637C79.918 63.146 81.775 62.985 82.974 62.302C82.975 62.301 82.977 62.301 82.977 62.301" stroke-width="0.13"/>
 </g>
 <g>
  <path d="M78.051 62.238C78.049 62.246 78.049 62.255 78.049 62.262C78.049 62.381 78.132 62.488 78.266 62.567C78.314 62.595 78.367 62.618 78.418 62.636" stroke-width="0.13"/>
 </g>
 <g>
  <path d="M76.183 103.218C77.168 102.65 77.799 101.6 78.046 100.322" stroke-width="0.13"/>
 </g>
 <g>
  <path d="M75.018 98.754C75.018 98.754 75.018 98.754 75.018 98.754C75.844 99.233 77.174 99.262 78.049 98.831" stroke-width="0.13"/>
 </g>
 <g>
  <path d="M70.311 104.536C70.186 104.609 70.078 104.715 69.995 104.837C69.954 104.897 69.92 104.959 69.891 105.016" stroke-width="0.13"/>
 </g>
 <line stroke-width="0.13" x1="71.933" x2="70.311" y1="103.597" y2="104.536"/>
 <g>
  <path d="M69.795 105.596C69.906 106.031 70.118 106.347 70.388 106.534" stroke-width="0.13"/>
 </g>
 <path d="M69.807 105.266L69.79 105.388L69.786 105.513L69.796 105.597" stroke-width="0.13"/>
 <g>
  <path d="M32.962 26.862C32.162 27.388 31.522 28.554 31.512 29.493C31.512 29.504 31.512 29.516 31.512 29.525" stroke-width="0.13"/>
 </g>
 <g>
  <path d="M25.553 31.763C25.594 32.09 25.838 32.378 26.207 32.59" stroke-width="0.13"/>
 </g>
 <g>
  <path d="M31.669 26.118C30.324 25.661 29.129 25.757 28.228 26.285" stroke-width="0.13"/>
 </g>
 <g>
  <path d="M34.173 21.867C31.245 20.175 28.594 20.013 26.673 21.117" stroke-width="0.13"/>
 </g>
 <line stroke-width="0.13" x1="72.364" x2="34.164" y1="43.923" y2="21.867"/>
 <g>
  <path d="M82.98 62.298C82.98 62.298 82.98 62.298 82.98 62.298C82.977 55.53 78.222 47.304 72.361 43.923" stroke-width="0.13"/>
 </g>
 <line stroke-width="0.13" x1="82.975" x2="82.975" y1="100.286" y2="62.301"/>
 <g>
  <path d="M79.861 107.159C81.93 105.966 82.968 103.436 82.974 100.307C82.974 100.302 82.974 100.296 82.974 100.292" stroke-width="0.13"/>
 </g>
 <g>
  <path d="M22.46 29.649C22.495 30.013 22.682 30.35 22.975 30.631" stroke-width="0.13"/>
 </g>
 <g>
  <path d="M22.975 30.626C23.009 30.658 23.048 30.687 23.089 30.711C23.382 30.881 23.858 30.881 24.15 30.71" stroke-width="0.13"/>
 </g>
 <line stroke-width="0.13" x1="25.774" x2="24.15" y1="29.774" y2="30.711"/>
 <g>
  <path d="M31.596 25.647C31.579 25.728 31.574 25.804 31.58 25.868C31.594 26.016 31.655 26.117 31.745 26.161C31.748 26.164 31.751 26.164 31.754 26.166" stroke-width="0.13"/>
 </g>
 <g>
  <path d="M34.167 21.867C32.936 22.576 31.902 24.138 31.596 25.644" stroke-width="0.13"/>
 </g>
 <line stroke-width="0.13" x1="58.951" x2="34.164" y1="7.557" y2="21.867"/>
 <g>
  <path d="M66.117 6.649C64.649 5.905 62.805 5.952 60.932 6.626C60.237 6.875 59.551 7.2 58.947 7.557" stroke-width="0.13"/>
 </g>
 <g>
  <path d="M26.236 25.714C24.843 26.675 24.155 28.498 24.155 30.704" stroke-width="0.13"/>
 </g>
 <line stroke-width="0.13" x1="24.15" x2="24.15" y1="68.695" y2="30.711"/>
 <g>
  <path d="M24.149 68.698C24.15 73.775 27.718 79.944 32.115 82.48" stroke-width="0.13"/>
 </g>
 <line stroke-width="0.13" x1="70.311" x2="32.109" y1="104.536" y2="82.48"/>
 <g>
  <path d="M70.308 104.534C72.378 105.73 74.262 105.906 75.671 105.233" stroke-width="0.13"/>
 </g>
 <g>
  <path d="M22.977 68.605C22.977 68.605 22.977 68.606 22.977 68.606C22.975 74.105 26.83 80.792 31.589 83.543C31.589 83.543 31.591 83.543 31.591 83.543" stroke-width="0.13"/>
 </g>
 <line stroke-width="0.13" x1="22.974" x2="22.974" y1="30.626" y2="68.608"/>
 <g>
  <path d="M25.504 25.041C23.821 26.012 22.978 28.073 22.977 30.618C22.977 30.62 22.977 30.62 22.977 30.62" stroke-width="0.13"/>
 </g>
 <g>
  <path d="M31.6 25.647C31.6 25.647 31.6 25.646 31.599 25.646C29.219 24.271 27.065 24.14 25.504 25.041" stroke-width="0.13"/>
 </g>
 <line stroke-width="0.13" x1="69.796" x2="31.596" y1="47.703" y2="25.647"/>
 <g>
  <path d="M78.421 62.633C78.421 62.631 78.421 62.628 78.421 62.628C78.417 57.133 74.555 50.451 69.796 47.704C69.793 47.704 69.793 47.703 69.79 47.703" stroke-width="0.13"/>
 </g>
 <line stroke-width="0.13" x1="78.418" x2="78.418" y1="100.62" y2="62.637"/>
 <g>
  <path d="M69.79 105.597C69.793 105.599 69.793 105.599 69.796 105.6C72.174 106.974 74.328 107.105 75.888 106.206C77.57 105.234 78.414 103.174 78.415 100.629C78.415 100.629 78.415 100.628 78.415 100.626" stroke-width="0.13"/>
 </g>
 <line stroke-width="0.13" x1="31.596" x2="69.796" y1="83.543" y2="105.597"/>
 <g>
  <path d="M31.597 83.545C31.71 83.98 31.922 84.296 32.194 84.481" stroke-width="0.13"/>
 </g>
 <g>
  <path d="M32.109 82.48C32.109 82.48 32.109 82.48 32.109 82.48C31.817 82.649 31.579 83.061 31.579 83.399C31.579 83.453 31.585 83.503 31.596 83.543" stroke-width="0.13"/>
 </g>
 <line stroke-width="0.13" x1="33.511" x2="32.109" y1="81.671" y2="82.48"/>
 <line stroke-width="0.13" x1="69.712" x2="31.512" y1="101.816" y2="79.763"/>
 <g>
  <path d="M69.71 101.817C71.174 102.664 72.501 102.743 73.46 102.191C74.498 101.593 75.016 100.323 75.016 98.756" stroke-width="0.13"/>
 </g>
 <line stroke-width="0.13" x1="75.018" x2="75.018" y1="60.771" y2="98.754"/>
 <g>
  <path d="M75.016 60.774C75.016 60.774 75.016 60.774 75.016 60.773C75.016 57.39 72.644 53.276 69.716 51.582" stroke-width="0.13"/>
 </g>
 <line stroke-width="0.13" x1="31.512" x2="69.712" y1="29.525" y2="51.581"/>
 <g>
  <path d="M27.763 29.153C26.727 29.751 26.208 31.019 26.207 32.588" stroke-width="0.13"/>
 </g>
 <g>
  <path d="M31.515 29.527C30.05 28.679 28.724 28.6 27.763 29.153" stroke-width="0.13"/>
 </g>
 <line stroke-width="0.13" x1="26.205" x2="26.205" y1="70.572" y2="32.588"/>
 <g>
  <path d="M26.204 70.575C26.204 70.575 26.204 70.575 26.204 70.575C26.205 73.957 28.582 78.07 31.513 79.763" stroke-width="0.13"/>
 </g>
 <g>
  <path d="M69.712 101.819C69.713 102.281 69.861 102.617 70.102 102.798" stroke-width="0.13"/>
 </g>
 <g>
  <path d="M78.051 100.224C78.049 100.233 78.049 100.242 78.049 100.248C78.051 100.37 78.135 100.477 78.274 100.555C78.319 100.581 78.37 100.605 78.42 100.62" stroke-width="0.13"/>
 </g>
 <g>
  <path d="M78.418 100.62C79.918 101.129 81.778 100.969 82.977 100.284C82.977 100.284 82.977 100.284 82.977 100.284" stroke-width="0.13"/>
 </g>
 <line stroke-width="0.13" x1="107.762" x2="82.975" y1="85.975" y2="100.286"/>
 <g>
  <path d="M107.763 85.974C107.769 85.971 107.775 85.968 107.778 85.965C110.697 84.274 112.156 82.061 112.156 79.849" stroke-width="0.13"/>
 </g>
 <line stroke-width="0.13" x1="113.641" x2="107.391" y1="87.197" y2="90.805"/>
 <line stroke-width="0.13" x1="120.855" x2="120.855" y1="89.465" y2="90.691"/>
 <line stroke-width="0.13" x1="104.037" x2="104.037" y1="95.07" y2="96.296"/>
 <line stroke-width="0.13" x1="137.8" x2="112.158" y1="79.68" y2="64.876"/>
 <line stroke-width="0.13" x1="137.8" x2="137.8" y1="79.68" y2="80.906"/>
 <line stroke-width="0.13" x1="138.329" x2="139.384" y1="81.15" y2="80.412"/>
 <line stroke-width="0.13" x1="138.329" x2="137.859" y1="81.15" y2="80.879"/>
 <line stroke-width="0.13" x1="139.842" x2="140.899" y1="96.909" y2="96.171"/>
 <line stroke-width="0.13" x1="132.651" x2="131.594" y1="85.957" y2="86.694"/>
 <g>
  <path d="M132.715 85.14C132.627 85.418 132.616 85.75 132.665 86.09C132.867 87.552 134.088 89.299 135.393 89.989C135.734 90.171 136.048 90.262 136.306 90.269" stroke-width="0.13"/>
 </g>
 <g>
  <path d="M138.155 80.858C138.051 80.813 137.926 80.834 137.8 80.906" stroke-width="0.13"/>
 </g>
 <g>
  <path d="M138.187 80.876C138.175 80.87 138.164 80.864 138.155 80.858C138.155 80.858 138.155 80.858 138.155 80.858" stroke-width="0.13"/>
 </g>
 <path d="M97.429 97.319L105.49 96.052L106.923 95.778L108.334 95.468L109.724 95.126L111.09 94.753L112.427 94.346L113.736 93.911L115.013 93.444L116.256 92.948L117.465 92.424L118.634 91.873L119.763 91.296L137.8 80.906" stroke-width="0.13"/>
 <line stroke-width="0.13" x1="137.467" x2="122.602" y1="98.263" y2="89.682"/>
 <g>
  <path d="M137.467 98.265C137.52 98.296 137.574 98.325 137.621 98.349C138.338 98.721 138.943 98.733 139.342 98.451C139.342 98.45 139.344 98.448 139.346 98.447" stroke-width="0.13"/>
 </g>
 <line stroke-width="0.13" x1="140.402" x2="139.347" y1="97.709" y2="98.447"/>
 <g>
  <path d="M140.401 97.712C140.403 97.709 140.407 97.706 140.409 97.704C140.808 97.412 140.962 96.856 140.896 96.174" stroke-width="0.13"/>
 </g>
 <line stroke-width="0.13" x1="139.384" x2="140.899" y1="80.412" y2="96.171"/>
 <g>
  <path d="M139.383 80.414C139.376 80.325 139.361 80.24 139.342 80.171C139.277 79.918 139.156 79.731 139.002 79.62" stroke-width="0.13"/>
 </g>
 <line stroke-width="0.13" x1="112.158" x2="139.002" y1="64.118" y2="79.62"/>
 <g>
  <path d="M135.883 90.864C135.895 90.855 135.907 90.847 135.917 90.84C136.31 90.566 136.449 90.009 136.355 89.328C136.157 87.858 134.931 86.105 133.621 85.414C132.985 85.078 132.447 85.052 132.082 85.283" stroke-width="0.13"/>
 </g>
 <g>
  <path d="M132.049 85.305C131.656 85.581 131.516 86.138 131.609 86.819C131.808 88.289 133.033 90.04 134.344 90.733C134.979 91.069 135.519 91.093 135.882 90.864" stroke-width="0.13"/>
 </g>
 <g>
  <path d="M132.081 85.284C132.069 85.29 132.058 85.299 132.049 85.305C132.049 85.305 132.048 85.305 132.048 85.305" stroke-width="0.13"/>
 </g>
 <path d="M139.842 96.909L138.329 81.15L138.312 81.061L138.283 80.984L138.187 80.876" stroke-width="0.13"/>
 <g>
  <path d="M139.346 98.447C139.751 98.159 139.909 97.596 139.842 96.909" stroke-width="0.13"/>
 </g>
 <path d="M137.8 79.68L119.763 90.069L118.634 90.647L117.465 91.2L116.256 91.724L115.013 92.218L113.736 92.685L112.427 93.121L111.09 93.527L109.724 93.9L108.334 94.242L106.923 94.552L105.49 94.828L100.328 95.644" stroke-width="0.13"/>
 <g>
  <path d="M138.866 79.537C138.574 79.405 138.213 79.456 137.855 79.65C137.836 79.661 137.817 79.671 137.8 79.682" stroke-width="0.13"/>
 </g>
 <path d="M100.462 127.822L100.385 127.506L99.415 121.781L96.462 97.876" stroke-width="0.13"/>
 <path d="M136.377 89.825L134.698 88.855L132.955 85.168" stroke-width="0.13"/>
 <line stroke-width="0.13" x1="80.737" x2="80.566" y1="114.781" y2="113.918"/>
 <path d="M80.567 113.941L80.566 113.918L80.539 113.441" stroke-width="0.13"/>
 <line stroke-width="0.13" x1="89.049" x2="97.548" y1="122.665" y2="127.57"/>
 <g>
  <path d="M83.281 118.614C85.097 120.159 87.102 121.551 89.033 122.644" stroke-width="0.13"/>
 </g>
 <path d="M81.028 115.629L81.436 116.462L81.956 117.256L82.581 117.983L83.293 118.637" stroke-width="0.13"/>
 <g>
  <path d="M83.46 117.316C83.381 117.533 83.326 117.743 83.299 117.927C83.26 118.191 83.26 118.436 83.296 118.64" stroke-width="0.13"/>
 </g>
 <line stroke-width="0.13" x1="83.558" x2="83.46" y1="117.085" y2="117.313"/>
 <g>
  <path d="M89.287 120.945C89.09 121.459 89.006 121.95 89.021 122.362C89.024 122.474 89.034 122.578 89.049 122.665" stroke-width="0.13"/>
 </g>
 <line stroke-width="0.13" x1="80.737" x2="81.025" y1="114.781" y2="115.623"/>
 <line stroke-width="0.13" x1="81.028" x2="80.739" y1="115.629" y2="114.795"/>
 <line stroke-width="0.13" x1="98.591" x2="101.775" y1="126.742" y2="128.58"/>
 <g>
  <path d="M99.064 125.269C98.817 125.611 98.665 125.966 98.608 126.283C98.576 126.454 98.572 126.612 98.591 126.742" stroke-width="0.13"/>
 </g>
 <line stroke-width="0.13" x1="101.775" x2="100.737" y1="128.58" y2="129.437"/>
 <path d="M97.548 127.57L99.15 128.512L100.737 129.437" stroke-width="0.13"/>
 <line stroke-width="0.13" x1="97.548" x2="98.591" y1="127.57" y2="126.742"/>
 <g>
  <path d="M98.025 125.326C97.647 126.031 97.481 126.781 97.527 127.388C97.531 127.454 97.539 127.518 97.548 127.57" stroke-width="0.13"/>
 </g>
 <path d="M95.983 124.811L95.477 121.099L93.326 99.686" stroke-width="0.13"/>
 <line stroke-width="0.13" x1="92.927" x2="95.477" y1="99.918" y2="121.099"/>
 <line stroke-width="0.13" x1="88.545" x2="86.43" y1="120.518" y2="103.365"/>
 <path d="M82.789 116.493L82.284 112.784L81.492 106.216" stroke-width="0.13"/>
 <path d="M95.983 124.811L88.545 120.518L85.522 118.597L82.789 116.493L81.584 115.251L80.7 113.891L80.182 112.448L79.54 107.322" stroke-width="0.13"/>
 <g>
  <path d="M95.983 124.813C96.075 124.865 96.171 124.915 96.257 124.953C97.295 125.43 98.649 125.453 99.852 125.088" stroke-width="0.13"/>
 </g>
 <line stroke-width="0.13" x1="99.968" x2="99.852" y1="125.043" y2="125.087"/>
 <line stroke-width="0.3" x1="30.134" x2="1.849" y1="57.607" y2="4.535"/>
 <text fill="#000000" font-family="'Arial'" font-size="3.528" font-weight="bold" stroke="none" x="0" y="2.468">1</text>
</svg>