<?xml version="1.0" encoding="UTF-8" standalone="no"?><!-- Generator: PTC Arbortext IsoDraw 7.3 M090 --><svg xmlns="http://www.w3.org/2000/svg" xmlns:xlink="http://www.w3.org/1999/xlink" clip-rule="evenodd" fill="none" fill-rule="evenodd" font-family="sans-serif" font-size="10" font-stretch="normal" font-style="normal" font-variant="normal" font-weight="normal" height="180.644" id="Standard_x0020_layer" onabort="parent.dwImageSVGOnAbort('LKC125418918');" onerror="parent.dwImageSVGOnError('LKC125418918');" onload="parent.dwImageSVGOnLoad('LKC125418918');" stroke="#000000" stroke-linecap="round" viewBox="0.0 0.0 141.581 180.644" width="141.581" x="0" xml:space="preserve" y="0">
 <g id="04_0215_0216_0">
  <desc>04_0215_0216_0</desc>
  <g id="04_0215_0216_0_3">
   <desc>04_0215_0216_0_3</desc>
   <path d="M27.722 89.748C27.472 89.334 27.181 88.98 26.772 88.718" stroke="#808080" stroke-width="0.1"/>
   <path d="M27.998 90.421C27.934 90.183 27.832 89.965 27.722 89.748" stroke="#808080" stroke-width="0.1"/>
  </g>
  <g id="04_0215_0216_0_2">
   <desc>04_0215_0216_0_2</desc>
   <line stroke="#808080" stroke-width="0.1" x1="21.896" x2="21.157" y1="93.903" y2="94.329"/>
   <line stroke="#808080" stroke-width="0.1" x1="21.193" x2="21.157" y1="91.846" y2="91.867"/>
   <line stroke="#808080" stroke-width="0.1" x1="20.544" x2="20.594" y1="92.179" y2="92.156"/>
   <line stroke="#808080" stroke-width="0.1" x1="23.457" x2="23.175" y1="90.221" y2="90.385"/>
   <line stroke-width="0.25" x1="20.393" x2="20.443" y1="92.358" y2="92.272"/>
   <line stroke-width="0.25" x1="22.115" x2="22.07" y1="94.486" y2="94.564"/>
   <line stroke-width="0.25" x1="20.568" x2="20.646" y1="92.165" y2="92.143"/>
   <line stroke-width="0.25" x1="20.481" x2="20.589" y1="92.209" y2="92.159"/>
   <line stroke="#808080" stroke-width="0.1" x1="28.132" x2="26.051" y1="90.646" y2="91.846"/>
   <path d="M21.26 94.581C21.121 94.646 20.968 94.941 21.126 95.052" stroke="#808080" stroke-width="0.1"/>
   <path d="M21.242 94.572C21.434 94.697 21.649 94.739 21.873 94.697" stroke="#808080" stroke-width="0.1"/>
   <path d="M20.457 92.242C20.312 92.409 20.236 92.612 20.248 92.837" stroke="#808080" stroke-width="0.1"/>
   <path d="M21.117 92.262C21.003 92.162 21.083 91.968 21.167 91.873" stroke="#808080" stroke-width="0.1"/>
   <path d="M22.42 88.977C22.231 88.981 22.057 88.992 21.879 89.063C21.341 89.274 21.091 89.831 21.025 90.371" stroke="#808080" stroke-width="0.1"/>
   <path d="M20.056 90.959C20.181 90.9 20.207 90.879 20.347 90.852C20.73 90.778 21.088 90.923 21.42 91.094" stroke="#808080" stroke-width="0.1"/>
   <path d="M22.824 94.432C22.797 93.846 22.626 93.302 22.333 92.793" stroke="#808080" stroke-width="0.1"/>
   <path d="M21.157 91.549C20.932 91.433 20.73 91.358 20.48 91.325C20.297 91.326 20.14 91.343 19.98 91.436" stroke="#808080" stroke-width="0.1"/>
   <path d="M21.157 91.549L21.42 91.094L21.878 90.831L22.472 90.487L22.931 90.222" stroke="#808080" stroke-width="0.1"/>
   <path d="M22.519 88.986C23.513 89.085 24.295 89.887 24.867 90.637" stroke="#808080" stroke-width="0.1"/>
   <path d="M24.951 90.76C25.565 91.659 25.946 92.71 25.903 93.805" stroke="#808080" stroke-width="0.1"/>
   <path d="M24.495 95.314C24.684 95.31 24.858 95.299 25.036 95.228C25.574 95.018 25.824 94.46 25.89 93.92" stroke="#808080" stroke-width="0.1"/>
   <path d="M24.297 95.295C24.106 95.254 23.931 95.203 23.751 95.126" stroke="#808080" stroke-width="0.1"/>
   <path d="M21.157 95.399C21.521 95.587 21.949 95.734 22.333 95.513" stroke="#808080" stroke-width="0.1"/>
   <path d="M22.783 92.534C23.143 93.2 23.373 93.887 23.339 94.65" stroke="#808080" stroke-width="0.1"/>
   <path d="M22.158 95.167C22.033 95.222 21.932 95.242 21.797 95.25" stroke="#808080" stroke-width="0.1"/>
   <path d="M19.939 92.033C20.013 91.918 20.08 91.84 20.192 91.762" stroke="#808080" stroke-width="0.1"/>
   <path d="M26.867 88.831C27.024 89.016 27.172 89.2 27.309 89.4" stroke="#808080" stroke-width="0.1"/>
   <path d="M24.407 87.65C24.567 87.623 24.713 87.609 24.876 87.626" stroke="#808080" stroke-width="0.1"/>
   <path d="M21.844 94.498C21.734 94.563 21.652 94.593 21.519 94.599C20.893 94.507 20.449 93.856 20.32 93.275C20.265 93.027 20.251 92.713 20.422 92.506C20.487 92.427 20.522 92.418 20.612 92.367" stroke-width="0.25"/>
   <path d="M20.172 91.769C20.277 91.721 20.298 91.703 20.416 91.686C20.8 91.629 21.182 91.847 21.466 92.085C22.047 92.575 22.472 93.337 22.541 94.096C22.568 94.406 22.536 94.757 22.335 95.01C22.262 95.102 22.236 95.111 22.141 95.179" stroke-width="0.25"/>
   <path d="M20.251 94.563C20.571 94.987 20.957 95.293 21.42 95.551C21.742 95.73 22.115 95.867 22.49 95.793C22.76 95.742 23.018 95.549 23.242 95.421L23.838 95.076C24.199 94.867 24.536 94.724 24.713 94.331C24.917 93.878 24.884 93.34 24.777 92.868C24.719 92.618 24.637 92.373 24.535 92.138C24.463 91.975 24.384 91.816 24.295 91.662C23.821 90.843 23.027 89.99 22.018 89.96L21.856 89.98C21.588 90.033 21.327 90.224 21.106 90.353L20.513 90.695C20.291 90.823 19.995 90.951 19.815 91.159C19.565 91.447 19.496 91.838 19.49 92.209C19.486 92.453 19.486 92.695 19.527 92.936C19.626 93.527 19.891 94.087 20.251 94.563z" stroke-width="0.25"/>
   <path d="M20.992 92.198C21.603 92.51 21.975 93.108 22.146 93.756" stroke-width="0.25"/>
   <path d="M23.515 95.263C23.655 95.397 23.565 95.343 23.852 95.346C24.129 95.347 24.408 95.334 24.686 95.31C25.018 95.28 25.347 95.234 25.676 95.183L26.051 95.12L26.51 94.855L27.673 94.183L28.132 93.918" stroke-width="0.25"/>
   <path d="M28.246 91.819C28.321 92.516 28.222 93.227 28.132 93.918" stroke-width="0.25"/>
   <path d="M27.045 89.043C27.339 89.424 27.62 89.81 27.876 90.218L28.132 90.646L28.192 91.031C28.234 91.353 28.259 91.677 28.265 92.003" stroke-width="0.25"/>
   <path d="M21.14 89.012L21.6 88.746L22.763 88.075L23.222 87.811L23.596 87.748C23.925 87.695 24.256 87.65 24.588 87.62C24.864 87.596 25.143 87.582 25.42 87.584L25.676 87.59L26.051 87.948C26.402 88.293 26.724 88.659 27.039 89.034" stroke-width="0.25"/>
   <path d="M21.01 90.409C21.019 89.939 21.08 89.475 21.14 89.012" stroke-width="0.25"/>
   <path d="M20.399 92.346L20.359 92.465" stroke-width="0.25"/>
   <path d="M22.106 94.51C22.161 94.367 22.138 94.441 22.173 94.293" stroke-width="0.25"/>
   <path d="M20.766 92.165C20.611 92.254 20.446 92.319 20.35 92.477C20.231 92.674 20.228 92.927 20.265 93.147C20.339 93.603 20.588 94.046 20.931 94.355C21.103 94.512 21.321 94.652 21.559 94.67C21.78 94.686 21.949 94.551 22.132 94.445" stroke-width="0.25"/>
   <path d="M20.652 92.557C20.876 92.478 21.082 92.552 21.268 92.691C21.582 92.93 21.811 93.313 21.879 93.701C21.925 93.963 21.894 94.234 21.661 94.391" stroke-width="0.25"/>
   <path d="M21.797 95.25C21.349 95.233 20.957 94.992 20.646 94.68C20.068 94.103 19.707 93.274 19.795 92.453" stroke-width="0.25"/>
   <path d="M19.939 92.033C19.873 92.159 19.835 92.278 19.803 92.417" stroke-width="0.25"/>
   <path d="M20.536 92.182C20.457 92.245 20.498 92.206 20.419 92.301" stroke-width="0.25"/>
   <path d="M22.143 93.742C22.179 93.939 22.192 94.12 22.17 94.319" stroke-width="0.25"/>
   <path d="M21.873 94.697L21.972 94.653L22.009 94.626" stroke-width="0.25"/>
   <path d="M21.957 94.668C22.048 94.593 22.012 94.632 22.073 94.56" stroke-width="0.25"/>
   <path d="M21.686 94.686C21.82 94.697 21.759 94.698 21.868 94.688" stroke-width="0.25"/>
   <path d="M20.618 92.144C20.746 92.134 20.687 92.132 20.795 92.141" stroke-width="0.25"/>
   <path d="M21.001 92.203C20.87 92.153 20.939 92.174 20.789 92.141" stroke-width="0.25"/>
   <path d="M20.652 92.557C20.419 92.713 20.388 92.984 20.434 93.246C20.504 93.635 20.731 94.019 21.047 94.256C21.231 94.396 21.437 94.469 21.661 94.391" stroke="#808080" stroke-width="0.1"/>
   <path d="M20.498 92.319C20.583 92.278 20.6 92.26 20.696 92.248C20.974 92.215 21.243 92.384 21.44 92.561C21.525 92.638 21.603 92.724 21.675 92.814C21.748 92.909 21.815 93.01 21.873 93.114C22.108 93.54 22.307 94.23 21.871 94.596" stroke="#808080" stroke-width="0.1"/>
   <path d="M23.339 94.65C23.297 94.953 23.23 95.248 23.024 95.486C22.929 95.593 22.899 95.605 22.783 95.686" stroke="#808080" stroke-width="0.1"/>
   <path d="M20.553 94.572C20.89 94.93 21.364 95.341 21.899 95.263C22.015 95.245 22.036 95.227 22.141 95.179" stroke="#808080" stroke-width="0.1"/>
   <path d="M20.612 92.367C20.923 92.277 21.202 92.424 21.431 92.632C21.513 92.709 21.588 92.793 21.657 92.882C21.727 92.974 21.789 93.075 21.844 93.177C22.048 93.569 22.204 94.15 21.844 94.498" stroke="#808080" stroke-width="0.1"/>
   <path d="M20.172 91.769C20.079 91.837 20.051 91.846 19.978 91.938C19.643 92.361 19.763 92.974 19.902 93.444" stroke="#808080" stroke-width="0.1"/>
   <path d="M20.498 92.433C20.766 92.278 21.045 92.373 21.282 92.549C21.678 92.843 21.963 93.34 22.021 93.828C22.054 94.123 21.996 94.411 21.728 94.566" stroke="#808080" stroke-width="0.1"/>
   <path d="M22.783 92.534C22.425 91.951 22.001 91.463 21.42 91.094" stroke="#808080" stroke-width="0.1"/>
   <path d="M22.472 90.025C22.556 89.995 22.693 89.99 22.778 89.995C23.088 90.016 23.382 90.156 23.632 90.331C24.393 90.864 24.939 91.781 25.088 92.691C25.141 93.01 25.146 93.349 25.042 93.658C24.995 93.796 24.917 93.962 24.801 94.058" stroke="#808080" stroke-width="0.1"/>
   <path d="M26.051 91.846C25.977 92.418 25.913 92.986 25.913 93.563C25.913 94.087 25.972 94.602 26.051 95.12" stroke="#808080" stroke-width="0.1"/>
   <path d="M23.596 88.793C23.931 89.349 24.277 89.891 24.686 90.4C25.103 90.918 25.57 91.387 26.051 91.846" stroke="#808080" stroke-width="0.1"/>
   <path d="M21.14 89.012C21.724 89.025 22.297 88.986 22.875 88.906C22.923 88.9 23.564 88.805 23.596 88.793L24.054 88.528L25.217 87.855L25.676 87.59" stroke="#808080" stroke-width="0.1"/>
   <path d="M28.26 91.959C28.268 92.162 28.271 92.358 28.246 92.558" stroke="#808080" stroke-width="0.1"/>
  </g>
  <g id="04_0215_0216_0_1">
   <desc>04_0215_0216_0_1</desc>
   <line stroke="#808080" stroke-width="0.1" x1="27.591" x2="26.756" y1="88.215" y2="88.697"/>
   <path d="M27.591 88.215C28.01 88.486 28.309 88.835 28.564 89.262" stroke="#808080" stroke-width="0.1"/>
   <path d="M26.375 88.278C26.522 88.192 26.681 88.076 26.856 88.045C27.182 87.986 27.492 88.149 27.76 88.313C28.365 88.683 28.801 89.37 28.908 90.07C28.961 90.429 28.969 90.888 28.75 91.2C28.623 91.379 28.429 91.459 28.245 91.566" stroke-width="0.25"/>
   <path d="M28.926 90.441C28.885 90.013 28.759 89.641 28.564 89.262" stroke="#808080" stroke-width="0.1"/>
  </g>
 </g>
 <g id="59627_0_MODELNX-ARRAGMNTEXTENDE_1">
  <desc>59627_0_MODELNX-ARRAGMNTEXTENDE</desc>
  <g id="4018501-59627_0_2">
   <desc>4018501-59627_0</desc>
   <g id="1-1102_1">
    <desc>1-1102</desc>
    <line stroke="#808080" stroke-width="0.1" x1="77.602" x2="77.606" y1="95.76" y2="95.218"/>
    <line stroke="#808080" stroke-width="0.1" x1="77.219" x2="78.433" y1="94.171" y2="93.469"/>
    <line stroke="#808080" stroke-width="0.1" x1="77.609" x2="77.554" y1="94.856" y2="94.823"/>
    <line stroke="#808080" stroke-width="0.1" x1="77.551" x2="77.546" y1="95.185" y2="95.727"/>
    <line stroke="#808080" stroke-width="0.1" x1="77.551" x2="77.865" y1="95.185" y2="95.004"/>
    <line stroke="#808080" stroke-width="0.1" x1="77.552" x2="77.554" y1="95.004" y2="94.823"/>
    <line stroke="#808080" stroke-width="0.1" x1="77.865" x2="77.865" y1="94.888" y2="95.004"/>
    <line stroke="#808080" stroke-width="0.1" x1="77.551" x2="77.606" y1="95.185" y2="95.218"/>
    <line stroke="#808080" stroke-width="0.1" x1="77.921" x2="77.606" y1="95.037" y2="95.218"/>
    <line stroke="#808080" stroke-width="0.1" x1="77.921" x2="77.865" y1="95.037" y2="95.004"/>
    <line stroke="#808080" stroke-width="0.1" x1="77.921" x2="77.923" y1="95.037" y2="94.855"/>
    <line stroke="#808080" stroke-width="0.1" x1="77.609" x2="77.608" y1="94.856" y2="95.037"/>
    <line stroke-width="0.25" x1="77.763" x2="77.76" y1="95.308" y2="95.67"/>
    <line stroke-width="0.25" x1="77.552" x2="77.608" y1="95.004" y2="95.037"/>
    <line stroke-width="0.25" x1="77.923" x2="77.608" y1="94.855" y2="95.037"/>
    <line stroke-width="0.25" x1="77.602" x2="77.546" y1="95.76" y2="95.727"/>
    <line stroke-width="0.25" x1="77.602" x2="77.76" y1="95.76" y2="95.67"/>
    <path d="M76.685 95.111C76.7 95.248 76.703 95.409 76.68 95.546" stroke="#808080" stroke-width="0.1"/>
    <path d="M77.219 94.171C77.17 94.643 77.126 95.112 77.123 95.587C77.12 96.028 77.153 96.465 77.197 96.905" stroke="#808080" stroke-width="0.1"/>
    <path d="M77.439 95.868C77.796 95.98 78.108 95.609 78.246 95.325C78.284 95.251 78.313 95.173 78.334 95.093C78.391 94.879 78.388 94.638 78.191 94.507" stroke="#808080" stroke-width="0.1"/>
    <path d="M77.219 94.171L76.917 93.858L76.697 93.62" stroke="#808080" stroke-width="0.1"/>
    <path d="M77.397 95.84C77.54 95.885 77.677 95.841 77.799 95.759C78.036 95.6 78.206 95.332 78.278 95.061C78.322 94.891 78.347 94.617 78.179 94.501" stroke="#808080" stroke-width="0.1"/>
    <path d="M78.043 94.631C77.993 94.608 78.019 94.614 77.963 94.609C77.816 94.64 77.671 94.754 77.554 94.823" stroke="#808080" stroke-width="0.1"/>
    <path d="M77.609 94.856C77.706 94.801 77.939 94.588 78.099 94.664" stroke="#808080" stroke-width="0.1"/>
    <path d="M76.694 93.867C76.793 94.084 76.823 94.141 76.903 94.367C77.134 95.031 77.278 95.903 76.885 96.537C76.805 96.668 76.777 96.685 76.671 96.79" stroke="#808080" stroke-width="0.1"/>
    <path d="M78.483 95.111C78.515 94.885 78.513 94.662 78.487 94.436" stroke="#808080" stroke-width="0.1"/>
    <path d="M77.23 91.831C77.418 92.028 77.584 92.239 77.736 92.465" stroke="#808080" stroke-width="0.1"/>
    <path d="M78.412 96.203C78.486 95.51 78.531 94.819 78.492 94.12C78.489 94.072 78.448 93.509 78.433 93.469C78.414 93.417 78.019 92.837 77.98 92.783C77.596 92.234 77.168 91.727 76.715 91.236" stroke-width="0.25"/>
    <path d="M76.67 96.974L76.893 96.947L77.197 96.905L77.656 96.64L77.953 96.468L78.412 96.203" stroke-width="0.25"/>
    <path d="M77.763 95.308L77.92 95.216L77.968 95.183C78.087 95.087 78.231 94.843 78.128 94.694C78.105 94.661 78.076 94.65 78.043 94.631" stroke-width="0.25"/>
    <path d="M77.439 95.868C77.242 95.736 77.24 95.495 77.296 95.283C77.317 95.203 77.347 95.123 77.385 95.049C77.525 94.766 77.835 94.394 78.191 94.507" stroke-width="0.25"/>
   </g>
   <g id="4018501-59627_0_1_1">
    <desc>4018501-59627_0_1</desc>
    <line stroke="#808080" stroke-width="0.1" x1="51.591" x2="53.463" y1="109.237" y2="108.156"/>
    <line stroke-width="0.25" x1="48.493" x2="48.442" y1="107.299" y2="107.17"/>
    <line stroke-width="0.25" x1="48.688" x2="48.795" y1="107.49" y2="107.504"/>
    <line stroke-width="0.25" x1="49.64" x2="51.53" y1="107.221" y2="106.129"/>
    <line stroke-width="0.25" x1="48.573" x2="48.621" y1="107.424" y2="107.474"/>
    <path d="M48.345 106.418C48.316 107.043 47.581 107.29 47.057 107.346C46.905 107.361 46.865 107.358 46.713 107.359C46.563 107.352 46.523 107.353 46.374 107.331C45.883 107.257 45.27 107.022 45.17 106.474" stroke="#808080" stroke-width="0.1"/>
    <path d="M45.78 88.831L45.774 89.361L45.637 106.554C45.634 106.948 45.622 107.343 45.664 107.737C45.731 108.385 45.918 109.043 46.313 109.572C46.462 109.772 46.636 109.93 46.829 110.087" stroke="#808080" stroke-width="0.1"/>
    <path d="M46.911 110.138C47.031 110.219 47.146 110.287 47.287 110.326C47.689 110.438 48.118 110.311 48.447 110.07C49.128 109.573 49.5 108.481 48.948 107.756C48.859 107.638 48.753 107.555 48.631 107.474" stroke="#808080" stroke-width="0.1"/>
    <path d="M49.723 107.176C50.034 107.069 50.335 107.177 50.595 107.361C51.104 107.722 51.47 108.34 51.569 108.954C51.625 109.311 51.588 109.691 51.295 109.932" stroke="#808080" stroke-width="0.1"/>
    <path d="M48.631 107.474C48.783 107.546 48.814 107.57 48.978 107.608C49.508 107.73 50.018 107.528 50.478 107.286" stroke="#808080" stroke-width="0.1"/>
    <path d="M48.496 87.399L48.491 87.929L48.35 105.888C48.347 106.274 48.338 106.634 48.393 107.013" stroke-width="0.25"/>
    <path d="M48.468 107.257L48.381 106.93" stroke-width="0.25"/>
    <path d="M49.22 107.414C49.396 107.346 49.558 107.265 49.723 107.176" stroke-width="0.25"/>
    <path d="M48.978 107.48L49.082 107.456L49.262 107.4" stroke-width="0.25"/>
    <path d="M48.591 107.462L48.509 107.331L48.487 107.287" stroke-width="0.25"/>
    <path d="M48.74 107.498C48.848 107.501 48.906 107.49 49.024 107.474" stroke-width="0.25"/>
    <path d="M48.6 107.457L48.631 107.472L48.765 107.522" stroke-width="0.25"/>
    <path d="M53.149 108.862L52.691 109.128L51.755 109.667C51.164 110.007 50.579 110.344 49.915 110.522C49.548 110.621 49.186 110.656 48.807 110.677C48.31 110.659 47.841 110.585 47.378 110.393C46.066 109.847 45.357 108.489 45.204 107.137C45.155 106.709 45.171 106.277 45.174 105.849L45.308 89.087L45.313 88.558" stroke-width="0.25"/>
   </g>
   <g id="1-1100_1">
    <desc>1-1100</desc>
    <line stroke="#808080" stroke-width="0.1" x1="76.769" x2="76.26" y1="47.72" y2="48.014"/>
    <line stroke-width="0.25" x1="78.721" x2="78.796" y1="53.076" y2="53.031"/>
    <line stroke="#808080" stroke-width="0.1" x1="78.816" x2="78.165" y1="50.298" y2="50.674"/>
    <path d="M78.796 53.031C78.868 52.338 78.915 51.648 78.875 50.95C78.871 50.902 78.831 50.337 78.816 50.298C78.796 50.246 78.402 49.665 78.364 49.612C77.888 48.932 77.344 48.317 76.769 47.72" stroke-width="0.25"/>
    <path d="M75.924 47.743C76.206 47.725 76.486 47.719 76.769 47.72" stroke-width="0.25"/>
    <path d="M78.462 51.481C78.549 51.531 78.546 51.628 78.531 51.716" stroke-width="0.25"/>
    <path d="M78.412 51.31C78.474 51.299 78.518 51.317 78.575 51.335" stroke-width="0.25"/>
    <path d="M78.575 51.335C78.853 51.523 78.74 51.899 78.629 52.154" stroke="#808080" stroke-width="0.1"/>
    <path d="M78.605 52.048C78.689 51.853 78.778 51.478 78.561 51.331" stroke="#808080" stroke-width="0.1"/>
    <path d="M78.87 51.265C78.896 51.491 78.897 51.713 78.865 51.939" stroke="#808080" stroke-width="0.1"/>
    <path d="M76.084 47.761L75.993 47.749L75.933 47.749" stroke="#808080" stroke-width="0.1"/>
    <path d="M77.614 48.659C77.802 48.856 77.968 49.067 78.118 49.295" stroke="#808080" stroke-width="0.1"/>
   </g>
   <g id="R2-1099_1">
    <desc>R2-1099</desc>
    <line stroke-width="0.25" x1="39.515" x2="49.411" y1="63.527" y2="57.813"/>
    <line stroke-width="0.25" x1="39.343" x2="39.515" y1="85.048" y2="63.527"/>
    <line stroke-width="0.25" x1="45.896" x2="39.343" y1="88.9" y2="85.048"/>
    <line stroke-width="0.25" x1="55.792" x2="45.896" y1="83.186" y2="88.9"/>
    <line stroke="#808080" stroke-width="0.1" x1="75.105" x2="68.551" y1="55.886" y2="59.668"/>
    <line stroke="#808080" stroke-width="0.1" x1="49.828" x2="68.551" y1="48.661" y2="59.668"/>
    <line stroke="#808080" stroke-width="0.1" x1="46.067" x2="55.965" y1="67.379" y2="61.665"/>
    <line stroke="#808080" stroke-width="0.1" x1="55.792" x2="55.965" y1="83.186" y2="61.665"/>
    <line stroke="#808080" stroke-width="0.1" x1="45.896" x2="46.067" y1="88.9" y2="67.379"/>
    <line stroke="#808080" stroke-width="0.1" x1="39.515" x2="46.067" y1="63.527" y2="67.379"/>
    <line stroke="#808080" stroke-width="0.1" x1="72.763" x2="72.275" y1="58.328" y2="119.445"/>
    <line stroke="#808080" stroke-width="0.1" x1="42.652" x2="41.329" y1="79.506" y2="80.269"/>
    <line stroke="#808080" stroke-width="0.1" x1="45.185" x2="45.17" y1="61.835" y2="63.734"/>
    <line stroke="#808080" stroke-width="0.1" x1="42.755" x2="41.875" y1="67.54" y2="68.049"/>
    <line stroke="#808080" stroke-width="0.1" x1="75.222" x2="68.67" y1="41.036" y2="44.82"/>
    <line stroke="#808080" stroke-width="0.1" x1="71.924" x2="71.462" y1="45.618" y2="45.347"/>
    <line stroke="#808080" stroke-width="0.1" x1="54.789" x2="53.503" y1="35.161" y2="35.902"/>
    <line stroke="#808080" stroke-width="0.1" x1="78.722" x2="77.015" y1="53.131" y2="54.118"/>
    <path d="M75.165 48.2C75.927 48.997 76.558 49.948 76.85 51.024C77.016 51.633 77.03 52.253 77.025 52.88L76.543 112.762C76.537 113.394 76.549 114.031 76.4 114.65C76.316 114.995 76.188 115.325 76.04 115.646C75.344 117.164 74.072 118.319 72.677 119.194C71.528 119.915 70.281 120.45 68.989 120.858C67.384 121.365 65.709 121.673 64.03 121.804C63.25 121.864 62.469 121.868 61.688 121.873C60.905 121.841 60.122 121.811 59.344 121.722C56.682 121.424 53.996 120.691 51.676 119.325C50.137 118.418 48.673 117.173 47.912 115.518C47.719 115.096 47.57 114.631 47.49 114.174C47.42 113.772 47.42 113.367 47.423 112.962L47.439 110.947L47.442 110.418" stroke-width="0.25"/>
    <path d="M75.173 47.28C76.29 47.86 77.153 48.802 77.775 49.887C78.191 50.613 78.504 51.411 78.647 52.238C78.793 53.094 78.784 54.133 78.203 54.841C77.896 55.216 77.414 55.42 77.003 55.655" stroke-width="0.25"/>
    <path d="M75.105 55.886L75.108 55.356L75.218 41.566C75.224 40.75 75.206 39.936 75.1 39.128C74.896 37.552 74.447 36.012 73.855 34.54C72.763 31.826 71.132 29.297 69.058 27.228C67.912 26.083 66.621 25.074 65.162 24.359C64.54 24.053 63.889 23.794 63.212 23.634C62.72 23.518 62.228 23.481 61.728 23.446C61.267 23.471 60.811 23.49 60.362 23.609C59.762 23.765 59.228 24.074 58.695 24.382L53.069 27.631C52.536 27.939 52.026 28.263 51.606 28.722C50.773 29.635 50.305 30.859 50.097 32.064C49.966 32.814 49.948 33.579 49.942 34.341L49.832 48.131L49.828 48.661" stroke-width="0.25"/>
    <path d="M47.856 58.712L47.859 58.182L47.902 52.895C47.906 52.261 47.896 51.621 48.048 51.002C48.281 50.042 48.804 49.162 49.436 48.414L49.832 47.996" stroke-width="0.25"/>
    <path d="M77.03 52.35C76.998 52.798 76.968 53.237 76.85 53.674C76.328 55.593 74.79 57.06 73.153 58.084C72.001 58.804 70.751 59.338 69.456 59.746C67.849 60.252 66.176 60.557 64.495 60.686C63.719 60.746 62.939 60.75 62.161 60.755C61.384 60.722 60.606 60.692 59.831 60.604C57.177 60.305 54.502 59.578 52.188 58.22C50.945 57.491 49.798 56.572 48.973 55.378C48.624 54.871 48.329 54.322 48.143 53.731L47.976 53.051L47.905 52.365" stroke="#808080" stroke-width="0.1"/>
    <path d="M52.61 27.896C53.002 27.696 53.386 27.501 53.814 27.39C54.615 27.181 55.462 27.201 56.271 27.347C58.009 27.661 59.588 28.562 60.963 29.641C62.664 30.977 64.09 32.633 65.271 34.439C66.283 35.984 67.103 37.651 67.703 39.399C68.093 40.542 68.394 41.722 68.549 42.923C68.653 43.728 68.671 44.539 68.665 45.35L68.555 59.14L68.551 59.668" stroke="#808080" stroke-width="0.1"/>
    <path d="M49.411 57.813C49.799 58.226 50.186 58.634 50.628 58.993C51.622 59.804 52.768 60.445 53.948 60.945C54.606 61.225 55.286 61.445 55.965 61.665" stroke="#808080" stroke-width="0.1"/>
    <path d="M49.14 62.801C49.124 62.962 49.133 63.002 49.064 63.152C48.942 63.418 48.71 63.618 48.462 63.762C48.057 63.994 47.585 64.105 47.124 64.138L46.82 64.147L46.521 64.135C46.061 64.096 45.593 63.981 45.192 63.747C44.945 63.604 44.713 63.406 44.59 63.145C44.518 62.991 44.527 62.957 44.506 62.795" stroke-width="0.25"/>
    <path d="M49.14 62.801C49.119 62.637 49.128 62.603 49.057 62.451C48.933 62.189 48.701 61.991 48.454 61.848C48.052 61.613 47.585 61.499 47.124 61.46L46.825 61.448L46.523 61.457C46.06 61.49 45.588 61.601 45.185 61.835C44.936 61.978 44.703 62.177 44.582 62.444C44.514 62.594 44.523 62.634 44.506 62.795" stroke="#808080" stroke-width="0.1"/>
    <path d="M43.572 82.715C43.381 82.781 43.479 82.759 43.274 82.783C42.432 82.71 41.814 81.927 41.521 81.191C41.46 81.04 41.409 80.876 41.375 80.716C41.299 80.349 41.287 79.897 41.53 79.584C41.615 79.475 41.649 79.468 41.762 79.396" stroke="#808080" stroke-width="0.1"/>
    <path d="M43.572 82.715C43.683 82.644 43.718 82.635 43.801 82.528C44.045 82.215 44.033 81.76 43.957 81.394C43.923 81.234 43.872 81.07 43.813 80.92C43.518 80.185 42.899 79.4 42.058 79.328C41.853 79.352 41.951 79.329 41.762 79.396" stroke-width="0.25"/>
    <path d="M42.119 67.492C41.899 67.676 41.851 67.935 41.884 68.212C41.939 68.686 42.204 69.156 42.567 69.462C42.74 69.608 42.968 69.74 43.204 69.724C43.305 69.715 43.322 69.698 43.411 69.656" stroke="#808080" stroke-width="0.1"/>
    <path d="M43.411 69.656C43.679 69.435 43.692 69.088 43.619 68.768C43.482 68.171 42.997 67.444 42.326 67.424C42.182 67.451 42.25 67.43 42.119 67.492" stroke-width="0.25"/>
    <path d="M55.142 32.243C54.814 32.482 54.722 32.52 54.456 32.835C54.066 33.298 53.832 33.848 53.686 34.43C53.484 35.238 53.472 36.073 53.563 36.898C53.725 38.378 54.219 39.807 54.902 41.125C55.71 42.68 56.798 44.113 58.164 45.219C58.969 45.871 59.878 46.417 60.89 46.67C61.463 46.813 62.051 46.862 62.633 46.728C63.033 46.637 63.112 46.57 63.472 46.389" stroke="#808080" stroke-width="0.1"/>
    <path d="M63.472 46.389C63.801 46.149 63.893 46.11 64.159 45.795C64.549 45.334 64.783 44.781 64.929 44.201C65.188 43.168 65.141 42.087 64.953 41.046C64.727 39.808 64.292 38.621 63.713 37.506C63.012 36.155 62.101 34.909 60.984 33.874C60.125 33.079 59.121 32.375 57.991 32.027C57.646 31.922 57.304 31.876 56.945 31.829C56.527 31.832 56.387 31.809 55.981 31.902C55.582 31.995 55.503 32.06 55.142 32.243" stroke-width="0.25"/>
    <path d="M72.248 44.5C72.155 44.473 72.203 44.481 72.102 44.481C71.778 44.563 71.549 44.877 71.48 45.195C71.441 45.371 71.453 45.551 71.609 45.659" stroke-width="0.25"/>
    <path d="M72.248 44.5C72.405 44.609 72.417 44.789 72.378 44.965C72.308 45.283 72.078 45.597 71.754 45.679C71.655 45.679 71.703 45.686 71.609 45.659" stroke="#808080" stroke-width="0.1"/>
   </g>
  </g>
  <g id="4018502_0_3">
   <desc>4018502_0</desc>
   <g id="R2-1098_3">
    <desc>R2-1098</desc>
    <path d="M63.07 163.018C62.838 163.076 62.609 163.1 62.371 163.118C62.066 163.116 61.77 163.102 61.469 163.044C60.798 162.913 60.158 162.638 59.57 162.293C58.64 161.746 57.819 161.014 57.106 160.205C56.817 159.876 56.543 159.532 56.287 159.175C56.027 158.812 55.783 158.436 55.56 158.05C55.261 157.534 54.993 157.002 54.764 156.453C54.487 155.793 54.261 155.11 54.101 154.413C54.042 154.147 53.988 153.87 53.95 153.6C53.718 152.03 53.832 150.2 54.979 148.99" stroke-width="0.25"/>
    <path d="M55.377 150.643C55.567 150.37 55.768 150.126 56.043 149.932C56.67 149.492 57.506 149.411 58.237 149.605" stroke-width="0.25"/>
    <path d="M61.776 161.848C62.026 161.832 62.265 161.808 62.505 161.735C63.365 161.467 63.93 160.719 64.174 159.879" stroke-width="0.25"/>
    <path d="M55.229 148.941C54.078 149.872 53.826 151.497 53.914 152.894C53.932 153.157 53.96 153.425 54 153.687C54.311 155.742 55.228 157.715 56.469 159.372C57.154 160.287 57.957 161.125 58.887 161.794C60.11 162.676 61.752 163.391 63.255 162.82" stroke="#808080" stroke-width="0.1"/>
    <path d="M59.539 162.221C59.542 162.252 59.545 162.272 59.57 162.293" stroke="#808080" stroke-width="0.1"/>
    <path d="M61.776 161.848L61.515 161.841L61.381 161.825" stroke="#808080" stroke-width="0.1"/>
    <path d="M55.377 150.643C55.207 150.941 55.287 150.786 55.136 151.11" stroke="#808080" stroke-width="0.1"/>
   </g>
   <g id="R3_3">
    <desc>R3</desc>
    <line stroke-width="0.25" x1="56.429" x2="56.607" y1="151.39" y2="151.29"/>
    <line stroke-width="0.25" x1="61.854" x2="62.006" y1="160.485" y2="160.375"/>
    <path d="M62.837 158.088L62.378 158.354L59.566 159.978C59.424 160.058 59.017 160.181 58.993 160.436" stroke="#808080" stroke-width="0.1"/>
    <path d="M61.854 160.485C61.692 160.575 61.655 160.604 61.478 160.665C61.265 160.74 61.057 160.759 60.834 160.772C60.619 160.764 60.576 160.769 60.362 160.73C59.505 160.576 58.732 160.067 58.097 159.489C56.816 158.318 55.878 156.681 55.527 154.979C55.314 153.955 55.28 152.692 55.96 151.82C56.094 151.646 56.252 151.519 56.429 151.39" stroke="#808080" stroke-width="0.1"/>
    <path d="M58.539 151.301C60.216 152.09 61.456 153.627 62.2 155.296C62.53 156.038 62.77 156.83 62.854 157.64C62.966 158.704 62.814 160.054 61.826 160.685C61.704 160.762 61.573 160.824 61.438 160.872C61.219 160.948 61.003 160.968 60.774 160.983C60.555 160.973 60.511 160.979 60.292 160.939C59.405 160.782 58.607 160.256 57.954 159.658C57.057 158.842 56.35 157.812 55.857 156.706C55.527 155.965 55.287 155.171 55.204 154.36C55.182 154.155 55.17 153.943 55.171 153.735C55.179 152.774 55.487 151.663 56.424 151.213C56.557 151.151 56.695 151.104 56.838 151.073C57.064 151.022 57.298 151.013 57.53 151.033C57.884 151.066 58.21 151.174 58.539 151.301z" stroke="#808080" stroke-width="0.1"/>
    <path d="M59.438 150.413L59.323 150.545L59.07 150.858" stroke="#808080" stroke-width="0.1"/>
    <path d="M59.064 151.569C59.067 151.6 59.072 151.622 59.097 151.641" stroke="#808080" stroke-width="0.1"/>
    <path d="M60.869 153.2C61.225 154.155 61.737 155.02 62.375 155.811" stroke="#808080" stroke-width="0.1"/>
    <path d="M62.712 156.963C62.387 155.56 61.755 154.251 60.825 153.145C60.142 152.334 59.32 151.668 58.328 151.281" stroke-width="0.25"/>
    <path d="M56.588 151.3C56.765 151.225 56.796 151.205 56.987 151.162C57.2 151.114 57.408 151.117 57.624 151.127" stroke-width="0.25"/>
    <path d="M58.345 151.288C58.1 151.212 57.866 151.158 57.612 151.125" stroke-width="0.25"/>
    <path d="M55.432 150.566C55.029 151.235 54.692 151.962 54.594 152.746C54.432 154.027 54.741 155.353 55.226 156.534C55.814 157.965 56.713 159.302 57.875 160.33C58.448 160.836 59.098 161.282 59.82 161.546C60.506 161.8 61.259 161.858 61.984 161.835" stroke-width="0.25"/>
    <path d="M62.287 160.09C62.459 159.844 62.378 159.972 62.524 159.71" stroke-width="0.25"/>
    <path d="M62.71 156.959C62.82 157.569 62.863 158.157 62.799 158.776" stroke-width="0.25"/>
    <path d="M62.005 160.377C62.21 160.188 62.115 160.287 62.292 160.084" stroke-width="0.25"/>
    <path d="M62.518 159.727C62.655 159.413 62.741 159.109 62.799 158.77" stroke-width="0.25"/>
    <path d="M62.301 155.616C61.753 154.936 61.338 154.165 60.999 153.361" stroke-width="0.25"/>
    <path d="M60.639 161.754C60.972 161.786 61.296 161.793 61.625 161.711C61.78 161.674 61.918 161.625 62.061 161.555C63.142 161.03 63.496 159.747 63.505 158.634C63.506 158.413 63.496 158.188 63.475 157.968C63.453 157.735 63.417 157.501 63.375 157.27C63.182 156.262 62.807 155.288 62.314 154.389C61.759 153.373 61.04 152.432 60.171 151.664C59.463 151.039 58.621 150.497 57.686 150.296C57.426 150.241 57.173 150.228 56.908 150.227C56.665 150.248 56.436 150.278 56.207 150.361C55.762 150.522 55.39 150.83 55.125 151.219C55.002 151.402 54.979 151.465 54.881 151.663" stroke="#808080" stroke-width="0.1"/>
   </g>
  </g>
  <g id="4018502_0_2">
   <desc>4018502_0</desc>
   <g id="R2-1098_2">
    <desc>R2-1098</desc>
    <path d="M55.914 31.923C54.859 33.036 54.679 34.68 54.834 36.143C54.86 36.396 54.901 36.698 54.953 36.945C55.34 38.81 56.11 40.561 57.222 42.109C57.883 43.031 58.659 43.878 59.555 44.579C60.484 45.304 61.53 45.847 62.703 46.024C62.996 46.07 63.289 46.054 63.584 46.033" stroke-width="0.25"/>
    <path d="M62.71 44.781C62.96 44.767 63.198 44.743 63.439 44.668C64.299 44.402 64.864 43.654 65.108 42.814" stroke-width="0.25"/>
    <path d="M59.174 32.542C58.929 32.487 58.692 32.46 58.442 32.444C58.219 32.45 58.146 32.444 57.927 32.481C57.526 32.549 57.145 32.719 56.831 32.979C56.631 33.145 56.482 33.335 56.332 33.543" stroke-width="0.25"/>
    <path d="M56.162 31.876C55.152 32.651 54.843 34.06 54.832 35.267C54.831 35.515 54.841 35.771 54.862 36.018C54.884 36.281 54.92 36.543 54.963 36.804C55.283 38.676 56.095 40.469 57.189 42.012C57.921 43.048 58.801 43.996 59.832 44.737C61.054 45.615 62.691 46.325 64.188 45.755" stroke="#808080" stroke-width="0.1"/>
    <path d="M60.472 45.155C60.475 45.186 60.479 45.207 60.505 45.228" stroke="#808080" stroke-width="0.1"/>
    <path d="M56.332 33.543C56.155 33.844 56.238 33.688 56.084 34.012" stroke="#808080" stroke-width="0.1"/>
    <path d="M62.71 44.781L62.448 44.774L62.316 44.759" stroke="#808080" stroke-width="0.1"/>
   </g>
   <g id="R3_2">
    <desc>R3</desc>
    <line stroke-width="0.25" x1="62.941" x2="62.789" y1="43.308" y2="43.418"/>
    <line stroke-width="0.25" x1="57.542" x2="57.362" y1="34.225" y2="34.326"/>
    <path d="M63.235 38.551C62.686 37.869 62.271 37.1 61.932 36.296" stroke-width="0.25"/>
    <path d="M59.262 34.215C60.255 34.601 61.076 35.268 61.759 36.079C62.689 37.185 63.322 38.493 63.646 39.898" stroke-width="0.25"/>
    <path d="M63.451 42.661C63.59 42.347 63.676 42.042 63.734 41.706" stroke-width="0.25"/>
    <path d="M63.645 39.893C63.755 40.503 63.796 41.091 63.734 41.71" stroke-width="0.25"/>
    <path d="M63.225 43.018C63.048 43.222 63.143 43.124 62.939 43.311" stroke-width="0.25"/>
    <path d="M56.368 33.494C55.965 34.167 55.627 34.895 55.527 35.679C55.365 36.962 55.676 38.287 56.161 39.469C56.747 40.899 57.648 42.237 58.808 43.265C59.381 43.771 60.033 44.216 60.755 44.481C61.439 44.732 62.189 44.792 62.914 44.77" stroke-width="0.25"/>
    <path d="M63.222 43.024C63.392 42.78 63.313 42.905 63.459 42.643" stroke-width="0.25"/>
    <path d="M57.521 34.234C57.7 34.161 57.731 34.139 57.92 34.097C58.133 34.048 58.343 34.051 58.557 34.06" stroke-width="0.25"/>
    <path d="M59.28 34.222C59.033 34.146 58.801 34.094 58.545 34.058" stroke-width="0.25"/>
    <path d="M63.308 38.746C62.671 37.954 62.159 37.088 61.802 36.136" stroke="#808080" stroke-width="0.1"/>
    <path d="M60.03 34.576C60.006 34.555 60 34.536 59.999 34.503" stroke="#808080" stroke-width="0.1"/>
    <path d="M60.003 33.792L60.259 33.478L60.371 33.348" stroke="#808080" stroke-width="0.1"/>
    <path d="M59.734 34.359C61.17 35.146 62.256 36.441 62.976 37.898C63.392 38.737 63.692 39.646 63.789 40.579C63.899 41.64 63.746 42.99 62.759 43.618C62.639 43.697 62.509 43.759 62.372 43.805C62.155 43.881 61.939 43.902 61.71 43.917C61.49 43.908 61.445 43.914 61.225 43.875C60.338 43.718 59.542 43.191 58.887 42.594C57.991 41.776 57.283 40.746 56.792 39.642C56.46 38.899 56.222 38.106 56.137 37.295C56.115 37.088 56.104 36.877 56.106 36.67C56.113 35.709 56.42 34.6 57.356 34.149C57.487 34.085 57.625 34.039 57.768 34.008C57.993 33.957 58.228 33.947 58.457 33.968C58.911 34.008 59.326 34.167 59.734 34.359z" stroke="#808080" stroke-width="0.1"/>
    <path d="M59.927 43.371C59.951 43.115 60.359 42.993 60.5 42.911L63.313 41.287L63.771 41.023" stroke="#808080" stroke-width="0.1"/>
    <path d="M57.362 34.326C57.185 34.454 57.029 34.582 56.893 34.755C56.348 35.454 56.271 36.426 56.36 37.277C56.442 38.064 56.674 38.835 56.996 39.555C57.518 40.726 58.289 41.817 59.28 42.639C60.064 43.289 61.149 43.893 62.207 43.658C62.42 43.61 62.6 43.524 62.789 43.418" stroke="#808080" stroke-width="0.1"/>
    <path d="M55.816 34.597C55.963 34.298 56.125 34.021 56.365 33.786C56.475 33.676 56.595 33.581 56.726 33.497C57.847 32.792 59.27 33.298 60.277 33.963C60.88 34.359 61.417 34.85 61.895 35.39C62.765 36.374 63.451 37.53 63.904 38.762C64.195 39.555 64.394 40.393 64.433 41.24C64.486 42.442 64.185 43.911 62.996 44.49C62.704 44.631 62.402 44.685 62.082 44.713C61.743 44.713 61.912 44.72 61.573 44.689" stroke="#808080" stroke-width="0.1"/>
   </g>
  </g>
  <g id="4018503-59627_0_3">
   <desc>4018503-59627_0</desc>
   <g id="4018503-59627_0_1_1">
    <desc>4018503-59627_0_1</desc>
    <line stroke-width="0.25" x1="55.273" x2="55.176" y1="124.155" y2="136.23"/>
    <line stroke="#808080" stroke-width="0.1" x1="57.228" x2="57.046" y1="124.652" y2="147.497"/>
    <line stroke="#808080" stroke-width="0.1" x1="55.176" x2="52.902" y1="136.23" y2="134.894"/>
    <line stroke-width="0.25" x1="55.198" x2="52.902" y1="133.568" y2="134.894"/>
    <line stroke-width="0.25" x1="68.415" x2="70.689" y1="136.377" y2="137.715"/>
    <line stroke-width="0.25" x1="68.512" x2="68.415" y1="124.26" y2="136.377"/>
    <line stroke="#808080" stroke-width="0.1" x1="55.176" x2="55.109" y1="136.23" y2="144.721"/>
    <line stroke="#808080" stroke-width="0.1" x1="70.689" x2="64.135" y1="137.715" y2="141.498"/>
    <line stroke="#808080" stroke-width="0.1" x1="64.135" x2="61.862" y1="141.498" y2="140.162"/>
    <line stroke="#808080" stroke-width="0.1" x1="61.862" x2="61.793" y1="140.162" y2="148.651"/>
    <line stroke="#808080" stroke-width="0.1" x1="70.656" x2="64.102" y1="141.912" y2="145.694"/>
    <line stroke="#808080" stroke-width="0.1" x1="73.733" x2="67.179" y1="157.126" y2="160.909"/>
    <line stroke="#808080" stroke-width="0.1" x1="73.727" x2="67.174" y1="157.771" y2="161.555"/>
    <line stroke="#808080" stroke-width="0.1" x1="69.617" x2="69.096" y1="154.876" y2="154.735"/>
    <line stroke="#808080" stroke-width="0.1" x1="53.854" x2="52.57" y1="152.227" y2="152.968"/>
    <path d="M61.793 148.651C61.356 148.639 60.918 148.627 60.482 148.575C60.164 148.538 59.847 148.483 59.533 148.417C58.347 148.167 57.136 147.712 56.216 146.901C55.78 146.518 55.408 146.042 55.226 145.485C55.116 145.151 55.133 145.067 55.109 144.721" stroke-width="0.25"/>
    <path d="M62.539 163.454C62.868 163.213 62.96 163.176 63.225 162.861C63.616 162.399 63.85 161.848 63.994 161.265C64.254 160.234 64.207 159.151 64.019 158.112C63.793 156.876 63.357 155.687 62.78 154.573C62.079 153.222 61.167 151.975 60.049 150.939C59.192 150.145 58.186 149.442 57.057 149.093C56.713 148.986 56.369 148.941 56.011 148.895C55.594 148.897 55.454 148.875 55.048 148.967C54.649 149.06 54.569 149.127 54.207 149.308" stroke-width="0.25"/>
    <path d="M70.689 137.715L70.685 138.245L70.659 141.382C70.655 142.087 70.62 141.739 70.76 142.431L73.628 156.606L73.733 157.126L73.73 157.449C73.727 157.836 73.721 158.228 73.688 158.612C73.569 160.013 73.138 161.486 72.174 162.545C71.774 162.986 71.284 163.296 70.772 163.592L65.126 166.852C64.618 167.145 64.111 167.442 63.537 167.591C63.118 167.699 62.692 167.718 62.261 167.741C61.792 167.71 61.332 167.675 60.874 167.568C60.24 167.419 59.628 167.176 59.045 166.891C57.963 166.362 56.985 165.662 56.088 164.865C54.813 163.733 53.716 162.417 52.784 160.991C51.831 159.532 51.051 157.965 50.487 156.314C50.067 155.09 49.768 153.829 49.643 152.538C49.6 152.094 49.579 151.653 49.573 151.207L49.579 150.562L49.725 150.052L52.722 139.599L52.868 139.091L52.872 138.561L52.898 135.424L52.902 134.894" stroke-width="0.25"/>
    <path d="M62.539 163.454C62.179 163.635 62.098 163.703 61.698 163.794C61.293 163.888 61.154 163.865 60.737 163.866C60.378 163.822 60.036 163.775 59.689 163.669C58.561 163.32 57.557 162.617 56.698 161.823C55.579 160.787 54.668 159.54 53.968 158.189C53.39 157.074 52.954 155.887 52.728 154.65C52.539 153.61 52.493 152.528 52.753 151.497C52.899 150.914 53.131 150.364 53.521 149.901C53.789 149.586 53.88 149.549 54.207 149.308" stroke="#808080" stroke-width="0.1"/>
    <path d="M64.135 141.498L64.132 142.028L64.106 145.165C64.1 145.872 64.067 145.521 64.207 146.215L67.073 160.39L67.179 160.909L67.174 161.555C67.161 161.973 67.137 162.384 67.082 162.8C66.92 164.074 66.495 165.376 65.611 166.341C65.331 166.645 65.004 166.878 64.668 167.116" stroke="#808080" stroke-width="0.1"/>
    <path d="M68.415 136.377C68.376 136.736 68.39 136.826 68.26 137.169C68.007 137.836 67.498 138.354 66.927 138.759C65.849 139.526 64.522 139.918 63.22 140.079C62.77 140.133 62.316 140.147 61.862 140.162" stroke="#808080" stroke-width="0.1"/>
    <path d="M69.289 154.911C68.933 154.716 68.962 154.215 69.159 153.909C69.286 153.715 69.477 153.598 69.709 153.657" stroke-width="0.25"/>
    <path d="M69.709 153.657C70.219 153.937 69.968 154.818 69.45 154.932C69.34 154.931 69.394 154.938 69.289 154.911" stroke="#808080" stroke-width="0.1"/>
   </g>
  </g>
  <g id="40185-59627_0_1">
   <desc>40185-59627_0</desc>
   <line stroke="#808080" stroke-width="0.1" x1="47.399" x2="47.39" y1="116.265" y2="116.688"/>
   <line stroke="#808080" stroke-width="0.1" x1="72.275" x2="72.25" y1="119.478" y2="122.706"/>
   <path d="M76.513 113.992C76.472 114.364 76.403 114.722 76.287 115.078C75.743 116.75 74.444 118.054 73.015 119.015C71.808 119.825 70.471 120.42 69.09 120.864C67.427 121.397 65.695 121.71 63.954 121.84C63.231 121.894 62.509 121.906 61.784 121.908C60.823 121.881 59.865 121.828 58.908 121.703C58.095 121.596 57.287 121.445 56.49 121.251C55.939 121.118 55.393 120.965 54.854 120.787C53.046 120.188 51.281 119.317 49.847 118.049C48.832 117.153 47.975 116.036 47.604 114.716C47.487 114.298 47.444 113.885 47.415 113.453" stroke="#808080" stroke-width="0.1"/>
   <path d="M76.516 113.96L76.531 113.819L76.54 113.394" stroke="#808080" stroke-width="0.1"/>
   <path d="M47.42 113.227C47.399 114.203 47.402 115.183 47.395 116.158C47.39 116.552 47.377 116.731 47.417 117.109C47.496 117.837 47.737 118.542 48.091 119.182C48.621 120.141 49.384 120.947 50.237 121.626C51.511 122.638 52.988 123.368 54.518 123.906C57.182 124.841 60.042 125.21 62.859 125.123C65.182 125.051 67.507 124.665 69.697 123.876C71.028 123.396 72.313 122.763 73.45 121.917C74.209 121.35 74.903 120.691 75.447 119.912C75.959 119.182 76.329 118.346 76.462 117.46C76.53 117.006 76.515 116.546 76.519 116.087L76.537 113.924L76.54 113.394L76.537 113.335" stroke-width="0.25"/>
  </g>
 </g>
 <g id="02_0120_0040_0_7">
  <desc>02_0120_0040_0</desc>
  <line stroke="#808080" stroke-width="0.1" x1="27.207" x2="26.975" y1="52.295" y2="52.429"/>
  <line stroke="#808080" stroke-width="0.1" x1="28.53" x2="28.202" y1="52.423" y2="52.612"/>
  <line stroke="#808080" stroke-width="0.1" x1="27.489" x2="27.161" y1="51.811" y2="52"/>
  <line stroke="#808080" stroke-width="0.1" x1="26.777" x2="26.449" y1="52.113" y2="52.302"/>
  <line stroke="#808080" stroke-width="0.1" x1="28.143" x2="27.911" y1="52.845" y2="52.978"/>
  <line stroke="#808080" stroke-width="0.1" x1="28.591" x2="28.92" y1="53.212" y2="53.021"/>
  <line stroke="#808080" stroke-width="0.1" x1="29.231" x2="28.902" y1="53.555" y2="53.744"/>
  <line stroke="#808080" stroke-width="0.1" x1="27.554" x2="27.565" y1="53.497" y2="52.206"/>
  <line stroke="#808080" stroke-width="0.1" x1="27.893" x2="27.565" y1="52.017" y2="52.206"/>
  <line stroke="#808080" stroke-width="0.1" x1="24.734" x2="24.85" y1="52.399" y2="52.32"/>
  <line stroke-width="0.25" x1="28.126" x2="27.8" y1="52.155" y2="52.344"/>
  <line stroke-width="0.25" x1="27.789" x2="27.8" y1="53.634" y2="52.344"/>
  <line stroke-width="0.25" x1="27.893" x2="27.89" y1="52.017" y2="52.29"/>
  <line stroke-width="0.25" x1="27.791" x2="27.554" y1="53.36" y2="53.497"/>
  <path d="M27.381 52.85C27.338 52.868 27.361 52.862 27.312 52.868C27.149 52.845 27.033 52.688 26.99 52.536C26.966 52.445 26.966 52.35 27.039 52.283" stroke="#808080" stroke-width="0.1"/>
  <path d="M26.667 52.273C26.612 52.301 26.574 52.31 26.51 52.313L26.449 52.302L26.179 52.246C25.943 52.207 25.894 52.213 25.658 52.204C25.413 52.218 25.179 52.24 24.943 52.317C24.746 52.383 24.705 52.414 24.522 52.511" stroke="#808080" stroke-width="0.1"/>
  <path d="M30.185 61.859C30.027 61.948 29.99 61.978 29.815 62.036C29.606 62.106 29.399 62.122 29.179 62.131C28.969 62.118 28.925 62.121 28.713 62.079C27.968 61.924 27.295 61.49 26.731 60.99C25.463 59.866 24.541 58.252 24.228 56.585C24.054 55.661 24.045 54.545 24.64 53.759C24.771 53.588 24.923 53.462 25.096 53.337" stroke="#808080" stroke-width="0.1"/>
  <path d="M26.868 52C27.103 51.884 27.367 52.1 27.565 52.206" stroke="#808080" stroke-width="0.1"/>
  <path d="M27.8 52.344C28.036 52.496 28.288 52.633 28.445 52.874C28.548 53.033 28.574 53.207 28.647 53.378C28.707 53.518 28.795 53.639 28.902 53.744C29.175 54.012 29.442 54.279 29.687 54.572C30.452 55.482 31.059 56.53 31.472 57.645C31.765 58.441 31.964 59.281 31.996 60.133C32.03 61.051 31.867 62.075 31.224 62.776C31.06 62.953 30.878 63.081 30.675 63.206" stroke="#808080" stroke-width="0.1"/>
  <path d="M28.317 53.399C28.274 53.42 28.297 53.412 28.248 53.418C28.085 53.396 27.969 53.237 27.926 53.087C27.902 52.996 27.902 52.901 27.975 52.834" stroke="#808080" stroke-width="0.1"/>
  <path d="M28.126 52.155C28.364 52.307 28.615 52.444 28.772 52.685C28.876 52.844 28.902 53.018 28.975 53.189C29.022 53.299 29.088 53.404 29.17 53.493L29.231 53.555L29.5 53.816C29.771 54.091 30.024 54.383 30.26 54.688C31.347 56.091 32.145 57.826 32.302 59.607C32.399 60.692 32.252 61.99 31.382 62.752C31.239 62.875 31.163 62.921 31.001 63.017C30.826 63.121 30.653 63.228 30.464 63.304C30.158 63.429 29.846 63.46 29.518 63.466C29.28 63.45 29.23 63.454 28.992 63.406C28.045 63.216 27.19 62.661 26.48 62.024C25.609 61.243 24.896 60.284 24.352 59.252C23.876 58.348 23.521 57.371 23.361 56.36C23.182 55.237 23.216 53.881 23.989 52.966C24.231 52.682 24.528 52.5 24.85 52.32C25.129 52.165 25.42 52.064 25.739 52.029C26.092 51.99 26.431 52.04 26.777 52.113" stroke-width="0.25"/>
  <path d="M27.975 52.834C28.062 52.793 28.143 52.834 28.21 52.895C28.33 53.003 28.466 53.264 28.317 53.399" stroke-width="0.25"/>
  <path d="M30.185 61.859C30.359 61.734 30.51 61.607 30.641 61.435C31.172 60.729 31.214 59.753 31.1 58.912C30.993 58.133 30.737 57.375 30.39 56.668C29.792 55.451 28.92 54.39 27.789 53.634" stroke-width="0.25"/>
  <path d="M27.554 53.497C27.236 53.335 26.919 53.192 26.567 53.119C26.356 53.076 26.312 53.081 26.102 53.067C25.882 53.075 25.676 53.091 25.466 53.161C25.292 53.219 25.257 53.247 25.096 53.337" stroke-width="0.25"/>
  <path d="M25.329 53.216C24.631 53.722 24.44 54.67 24.457 55.484C24.461 55.686 24.478 55.887 24.506 56.087C24.673 57.326 25.205 58.521 25.929 59.534C26.379 60.164 26.92 60.743 27.55 61.195C28.324 61.749 29.339 62.17 30.277 61.793" stroke-width="0.25"/>
  <path d="M27.381 52.85C27.454 52.783 27.454 52.688 27.428 52.597C27.387 52.445 27.271 52.286 27.106 52.265C27.059 52.271 27.082 52.264 27.039 52.283" stroke-width="0.25"/>
  <path d="M27.893 52.017C27.71 51.92 27.515 51.776 27.3 51.774C27.128 51.811 26.945 51.908 26.826 52.034C26.757 52.109 26.746 52.204 26.667 52.273" stroke-width="0.25"/>
 </g>
 <g id="02_0120_0040_0_4">
  <desc>02_0120_0040_0</desc>
  <line stroke="#808080" stroke-width="0.1" x1="27.201" x2="26.968" y1="169.87" y2="170.003"/>
  <line stroke="#808080" stroke-width="0.1" x1="26.541" x2="26.213" y1="168.842" y2="169.031"/>
  <line stroke="#808080" stroke-width="0.1" x1="27.582" x2="27.254" y1="169.443" y2="169.633"/>
  <line stroke="#808080" stroke-width="0.1" x1="27.975" x2="27.646" y1="170.038" y2="170.228"/>
  <line stroke="#808080" stroke-width="0.1" x1="25.507" x2="25.827" y1="169.343" y2="169.158"/>
  <line stroke="#808080" stroke-width="0.1" x1="26.265" x2="26.032" y1="169.329" y2="169.463"/>
  <line stroke="#808080" stroke-width="0.1" x1="28.288" x2="27.96" y1="170.57" y2="170.759"/>
  <line stroke="#808080" stroke-width="0.1" x1="26.617" x2="26.617" y1="170.53" y2="169.231"/>
  <line stroke="#808080" stroke-width="0.1" x1="26.617" x2="26.945" y1="169.231" y2="169.043"/>
  <line stroke-width="0.25" x1="26.85" x2="26.85" y1="170.664" y2="169.366"/>
  <line stroke-width="0.25" x1="26.945" x2="26.945" y1="169.312" y2="169.043"/>
  <line stroke-width="0.25" x1="27.178" x2="26.85" y1="169.177" y2="169.366"/>
  <line stroke-width="0.25" x1="26.85" x2="26.617" y1="170.394" y2="170.53"/>
  <path d="M27.375 170.42C27.332 170.442 27.355 170.435 27.306 170.442C27.143 170.42 27.027 170.263 26.984 170.111C26.958 170.02 26.957 169.925 27.03 169.856" stroke="#808080" stroke-width="0.1"/>
  <path d="M25.725 169.311C25.67 169.341 25.631 169.349 25.568 169.353L25.507 169.343L25.237 169.29C25.003 169.253 24.954 169.26 24.719 169.254C24.474 169.272 24.242 169.298 24.009 169.378C23.812 169.447 23.771 169.479 23.591 169.578" stroke="#808080" stroke-width="0.1"/>
  <path d="M29.135 178.992C28.861 179.11 28.612 179.163 28.315 179.181C28.105 179.17 28.064 179.176 27.853 179.137C27.109 178.997 26.435 178.57 25.871 178.08C24.591 176.967 23.66 175.354 23.332 173.688C23.149 172.759 23.129 171.637 23.716 170.835C23.844 170.661 23.993 170.531 24.166 170.401" stroke="#808080" stroke-width="0.1"/>
  <path d="M26.092 169.317C25.946 169.455 26.082 169.713 26.202 169.823C26.271 169.883 26.353 169.921 26.439 169.881" stroke="#808080" stroke-width="0.1"/>
  <path d="M26.85 169.366C27.088 169.516 27.339 169.651 27.498 169.89C27.602 170.049 27.629 170.224 27.704 170.395C27.765 170.533 27.852 170.655 27.96 170.759C28.234 171.025 28.501 171.289 28.748 171.58C29.516 172.486 30.129 173.532 30.548 174.644C30.847 175.441 31.053 176.282 31.091 177.135C31.132 178.057 30.978 179.087 30.341 179.801C30.181 179.98 30.001 180.111 29.8 180.241" stroke="#808080" stroke-width="0.1"/>
  <path d="M26.617 169.231C26.446 169.144 26.274 169.031 26.085 168.996C26.018 168.996 25.98 169.003 25.922 169.033" stroke="#808080" stroke-width="0.1"/>
  <path d="M26.092 169.317C26.179 169.276 26.26 169.313 26.329 169.375C26.449 169.484 26.585 169.741 26.439 169.881" stroke-width="0.25"/>
  <path d="M29.135 178.992C29.317 178.885 29.478 178.777 29.623 178.62C30.202 177.985 30.297 177.039 30.224 176.222C30.155 175.45 29.928 174.695 29.612 173.991C29.013 172.651 28.08 171.473 26.85 170.664" stroke-width="0.25"/>
  <path d="M24.166 170.401C24.35 170.295 24.524 170.209 24.734 170.162C25.391 170.014 26.033 170.24 26.617 170.53" stroke-width="0.25"/>
  <path d="M25.829 169.153C25.565 169.1 25.318 169.072 25.047 169.066C24.724 169.088 24.417 169.137 24.121 169.277C23.803 169.43 23.478 169.617 23.225 169.866C22.39 170.688 22.288 172.01 22.416 173.11C22.516 173.981 22.774 174.835 23.126 175.637C23.603 176.721 24.262 177.733 25.077 178.591C25.71 179.254 26.452 179.847 27.3 180.209C27.647 180.356 28.015 180.465 28.391 180.502C28.64 180.528 28.893 180.524 29.14 180.478C29.373 180.433 29.591 180.354 29.8 180.241C30.117 180.068 30.425 179.885 30.669 179.612C31.304 178.901 31.458 177.872 31.419 176.949C31.387 176.225 31.234 175.508 31.006 174.823C30.632 173.694 30.054 172.629 29.323 171.694C29.085 171.391 28.83 171.102 28.557 170.829L28.288 170.57L28.227 170.509C28.146 170.419 28.079 170.317 28.032 170.205C27.957 170.034 27.929 169.86 27.826 169.701C27.667 169.462 27.416 169.328 27.178 169.177" stroke-width="0.25"/>
  <path d="M26.945 169.043C26.774 168.954 26.603 168.842 26.411 168.806C26.221 168.807 26.001 168.937 25.879 169.069C25.812 169.145 25.801 169.241 25.725 169.311" stroke-width="0.25"/>
  <path d="M29.373 178.841C29.134 178.943 28.899 178.977 28.64 178.991C28.431 178.981 28.388 178.986 28.178 178.948C27.434 178.806 26.762 178.381 26.199 177.89C24.919 176.776 23.987 175.164 23.661 173.501C23.62 173.294 23.589 173.087 23.571 172.878C23.489 171.959 23.632 170.86 24.422 170.265" stroke-width="0.25"/>
  <path d="M27.375 170.42C27.446 170.354 27.446 170.258 27.42 170.167C27.378 170.015 27.262 169.858 27.097 169.836C27.05 169.843 27.071 169.836 27.03 169.856" stroke-width="0.25"/>
 </g>
 <g id="02_0120_0040_0_3">
  <desc>02_0120_0040_0</desc>
  <line stroke="#808080" stroke-width="0.1" x1="116.632" x2="116.4" y1="118.236" y2="118.37"/>
  <line stroke="#808080" stroke-width="0.1" x1="115.972" x2="115.644" y1="117.209" y2="117.397"/>
  <line stroke="#808080" stroke-width="0.1" x1="117.013" x2="116.686" y1="117.81" y2="117.998"/>
  <line stroke="#808080" stroke-width="0.1" x1="117.406" x2="117.078" y1="118.406" y2="118.594"/>
  <line stroke="#808080" stroke-width="0.1" x1="114.938" x2="115.259" y1="117.71" y2="117.525"/>
  <line stroke="#808080" stroke-width="0.1" x1="115.697" x2="115.463" y1="117.695" y2="117.829"/>
  <line stroke="#808080" stroke-width="0.1" x1="117.719" x2="117.391" y1="118.938" y2="119.126"/>
  <line stroke="#808080" stroke-width="0.1" x1="116.049" x2="116.049" y1="117.599" y2="118.896"/>
  <line stroke="#808080" stroke-width="0.1" x1="116.049" x2="116.376" y1="117.599" y2="117.409"/>
  <line stroke-width="0.25" x1="116.283" x2="116.283" y1="119.031" y2="117.733"/>
  <line stroke-width="0.25" x1="116.376" x2="116.376" y1="117.68" y2="117.409"/>
  <line stroke-width="0.25" x1="116.611" x2="116.283" y1="117.545" y2="117.733"/>
  <line stroke-width="0.25" x1="116.283" x2="116.049" y1="118.76" y2="118.896"/>
  <path d="M116.807 118.787C116.763 118.808 116.787 118.801 116.739 118.808C116.575 118.787 116.459 118.629 116.415 118.477C116.39 118.388 116.39 118.292 116.46 118.224" stroke="#808080" stroke-width="0.1"/>
  <path d="M115.156 117.677C115.1 117.707 115.063 117.716 115 117.719L114.938 117.71L114.67 117.656C114.435 117.62 114.385 117.626 114.15 117.621C113.906 117.638 113.674 117.665 113.439 117.745C113.243 117.813 113.203 117.846 113.022 117.944" stroke="#808080" stroke-width="0.1"/>
  <path d="M118.566 127.358C118.293 127.477 118.045 127.53 117.746 127.548C117.537 127.537 117.495 127.543 117.286 127.504C116.54 127.362 115.867 126.938 115.304 126.447C114.024 125.334 113.091 123.721 112.765 122.055C112.581 121.126 112.561 120.003 113.147 119.201C113.275 119.027 113.426 118.897 113.597 118.769" stroke="#808080" stroke-width="0.1"/>
  <path d="M115.525 117.683C115.379 117.822 115.513 118.079 115.635 118.189C115.703 118.25 115.784 118.287 115.87 118.246" stroke="#808080" stroke-width="0.1"/>
  <path d="M116.283 117.733C116.519 117.884 116.772 118.018 116.93 118.257C117.034 118.415 117.061 118.59 117.135 118.762C117.195 118.9 117.284 119.022 117.391 119.126C117.665 119.391 117.933 119.656 118.18 119.947C118.948 120.852 119.561 121.899 119.98 123.01C120.28 123.807 120.483 124.65 120.522 125.503C120.563 126.424 120.409 127.454 119.774 128.168C119.614 128.348 119.433 128.479 119.23 128.606" stroke="#808080" stroke-width="0.1"/>
  <path d="M116.049 117.599C115.879 117.51 115.706 117.397 115.516 117.361C115.45 117.362 115.411 117.37 115.352 117.4" stroke="#808080" stroke-width="0.1"/>
  <path d="M115.525 117.683C115.611 117.643 115.692 117.68 115.76 117.74C115.882 117.85 116.016 118.108 115.87 118.246" stroke-width="0.25"/>
  <path d="M118.566 127.358C118.748 127.253 118.911 127.144 119.055 126.986C119.634 126.352 119.728 125.406 119.656 124.588C119.585 123.817 119.361 123.063 119.045 122.358C118.444 121.019 117.513 119.84 116.283 119.031" stroke-width="0.25"/>
  <path d="M113.597 118.769C113.781 118.662 113.956 118.575 114.165 118.528C114.823 118.382 115.465 118.605 116.049 118.896" stroke-width="0.25"/>
  <path d="M115.262 117.519C114.996 117.468 114.748 117.438 114.478 117.433C114.155 117.456 113.849 117.503 113.552 117.644C113.234 117.796 112.909 117.983 112.656 118.233C111.822 119.055 111.719 120.376 111.847 121.475C111.948 122.349 112.206 123.2 112.558 124.004C113.034 125.087 113.694 126.099 114.51 126.957C115.141 127.621 115.884 128.213 116.733 128.574C117.079 128.723 117.447 128.83 117.823 128.87C118.072 128.895 118.325 128.889 118.572 128.843C118.805 128.8 119.024 128.719 119.23 128.606C119.549 128.433 119.856 128.252 120.1 127.98C120.736 127.266 120.891 126.237 120.849 125.316C120.817 124.593 120.665 123.876 120.438 123.188C120.064 122.061 119.486 120.996 118.754 120.061C118.516 119.757 118.263 119.468 117.989 119.195L117.719 118.938L117.659 118.876C117.578 118.787 117.512 118.683 117.462 118.572C117.388 118.402 117.361 118.227 117.257 118.069C117.099 117.828 116.847 117.694 116.611 117.545" stroke-width="0.25"/>
  <path d="M116.376 117.409C116.206 117.32 116.034 117.209 115.843 117.173C115.653 117.174 115.433 117.302 115.311 117.436C115.243 117.51 115.233 117.608 115.156 117.677" stroke-width="0.25"/>
  <path d="M118.805 127.207C118.566 127.311 118.331 127.343 118.072 127.358C117.861 127.349 117.819 127.353 117.611 127.313C116.867 127.173 116.194 126.748 115.629 126.257C114.35 125.144 113.418 123.531 113.091 121.867C113.052 121.661 113.022 121.454 113.003 121.245C112.921 120.325 113.063 119.227 113.853 118.632" stroke-width="0.25"/>
  <path d="M116.807 118.787C116.878 118.719 116.878 118.623 116.852 118.534C116.808 118.382 116.692 118.224 116.528 118.203C116.48 118.21 116.504 118.203 116.46 118.224" stroke-width="0.25"/>
 </g>
 <g id="02_0120_0040_0_2">
  <desc>02_0120_0040_0</desc>
  <line stroke="#808080" stroke-width="0.1" x1="116.667" x2="116.436" y1="0.646" y2="0.779"/>
  <line stroke="#808080" stroke-width="0.1" x1="117.989" x2="117.662" y1="0.775" y2="0.964"/>
  <line stroke="#808080" stroke-width="0.1" x1="116.948" x2="116.62" y1="0.162" y2="0.352"/>
  <line stroke="#808080" stroke-width="0.1" x1="116.236" x2="115.909" y1="0.465" y2="0.653"/>
  <line stroke="#808080" stroke-width="0.1" x1="117.602" x2="117.371" y1="1.197" y2="1.33"/>
  <line stroke="#808080" stroke-width="0.1" x1="118.052" x2="118.379" y1="1.562" y2="1.373"/>
  <line stroke="#808080" stroke-width="0.1" x1="118.689" x2="118.362" y1="1.906" y2="2.095"/>
  <line stroke="#808080" stroke-width="0.1" x1="117.015" x2="117.025" y1="1.847" y2="0.557"/>
  <line stroke="#808080" stroke-width="0.1" x1="117.352" x2="117.025" y1="0.368" y2="0.557"/>
  <line stroke="#808080" stroke-width="0.1" x1="114.194" x2="114.311" y1="0.751" y2="0.672"/>
  <line stroke-width="0.25" x1="117.587" x2="117.259" y1="0.505" y2="0.694"/>
  <line stroke-width="0.25" x1="117.248" x2="117.259" y1="1.986" y2="0.694"/>
  <line stroke-width="0.25" x1="117.352" x2="117.35" y1="0.368" y2="0.642"/>
  <line stroke-width="0.25" x1="117.251" x2="117.015" y1="1.712" y2="1.847"/>
  <path d="M116.84 1.199C116.798 1.219 116.82 1.213 116.772 1.219C116.608 1.195 116.492 1.038 116.45 0.887C116.426 0.796 116.426 0.701 116.498 0.634" stroke="#808080" stroke-width="0.1"/>
  <path d="M116.128 0.624C116.072 0.653 116.034 0.661 115.971 0.663L115.909 0.653L115.638 0.597C115.403 0.557 115.355 0.563 115.118 0.554C114.873 0.569 114.64 0.591 114.403 0.669C114.206 0.734 114.165 0.765 113.983 0.861" stroke="#808080" stroke-width="0.1"/>
  <path d="M119.646 10.211C119.486 10.298 119.45 10.329 119.275 10.387C119.066 10.458 118.859 10.473 118.64 10.481C118.429 10.468 118.384 10.473 118.174 10.429C117.427 10.275 116.754 9.84 116.191 9.342C114.924 8.217 114.001 6.602 113.688 4.936C113.515 4.012 113.504 2.897 114.1 2.111C114.23 1.939 114.382 1.813 114.555 1.687" stroke="#808080" stroke-width="0.1"/>
  <path d="M116.328 0.35C116.563 0.235 116.828 0.452 117.025 0.557" stroke="#808080" stroke-width="0.1"/>
  <path d="M117.259 0.694C117.495 0.846 117.748 0.983 117.905 1.223C118.007 1.383 118.034 1.558 118.108 1.729C118.168 1.867 118.254 1.99 118.362 2.095C118.635 2.362 118.902 2.629 119.147 2.923C119.911 3.833 120.519 4.881 120.932 5.995C121.225 6.791 121.424 7.633 121.456 8.483C121.489 9.4 121.328 10.426 120.683 11.127C120.521 11.304 120.337 11.43 120.135 11.556" stroke="#808080" stroke-width="0.1"/>
  <path d="M117.777 1.75C117.733 1.77 117.757 1.764 117.709 1.77C117.545 1.746 117.429 1.589 117.387 1.437C117.361 1.346 117.361 1.25 117.435 1.183" stroke="#808080" stroke-width="0.1"/>
  <path d="M117.587 0.505C117.823 0.657 118.075 0.794 118.233 1.034C118.335 1.193 118.361 1.369 118.435 1.54C118.483 1.651 118.549 1.754 118.629 1.843L118.689 1.906L118.959 2.166C119.23 2.44 119.484 2.733 119.721 3.039C120.808 4.442 121.603 6.176 121.763 7.958C121.858 9.042 121.71 10.34 120.841 11.102C120.7 11.227 120.623 11.272 120.462 11.368C120.287 11.471 120.114 11.579 119.924 11.654C119.617 11.779 119.305 11.811 118.977 11.817C118.739 11.801 118.689 11.804 118.453 11.756C117.504 11.567 116.65 11.01 115.939 10.375C114.969 9.506 114.194 8.417 113.632 7.246C113.248 6.445 112.959 5.589 112.82 4.711C112.643 3.586 112.677 2.232 113.45 1.316C113.689 1.032 113.987 0.851 114.311 0.672C114.588 0.516 114.879 0.414 115.198 0.38C115.552 0.341 115.891 0.392 116.236 0.464" stroke-width="0.25"/>
  <path d="M117.435 1.183C117.521 1.145 117.602 1.183 117.671 1.245C117.79 1.355 117.926 1.613 117.777 1.75" stroke-width="0.25"/>
  <path d="M119.646 10.211C119.819 10.083 119.971 9.958 120.1 9.785C120.632 9.08 120.674 8.103 120.56 7.262C120.453 6.482 120.197 5.724 119.85 5.019C119.251 3.802 118.379 2.741 117.248 1.986" stroke-width="0.25"/>
  <path d="M117.015 1.847C116.697 1.687 116.379 1.543 116.027 1.47C115.816 1.427 115.772 1.431 115.561 1.417C115.341 1.425 115.135 1.441 114.926 1.511C114.751 1.569 114.715 1.599 114.555 1.687" stroke-width="0.25"/>
  <path d="M114.79 1.565C114.09 2.072 113.9 3.02 113.918 3.834C113.921 4.035 113.938 4.237 113.965 4.437C114.132 5.676 114.665 6.871 115.39 7.884C115.84 8.516 116.379 9.092 117.01 9.544C117.784 10.099 118.799 10.521 119.736 10.144" stroke-width="0.25"/>
  <path d="M116.84 1.199C116.912 1.133 116.914 1.038 116.888 0.947C116.846 0.796 116.73 0.638 116.566 0.615C116.519 0.621 116.54 0.614 116.498 0.634" stroke-width="0.25"/>
  <path d="M117.352 0.368C117.17 0.27 116.974 0.126 116.76 0.125C116.587 0.162 116.405 0.258 116.286 0.386C116.218 0.459 116.206 0.555 116.128 0.624" stroke-width="0.25"/>
 </g>
 <g id="20599_4_3">
  <desc>20599_4</desc>
  <line stroke="#808080" stroke-width="0.1" x1="80.587" x2="80.569" y1="139.151" y2="139.431"/>
  <line stroke="#808080" stroke-width="0.1" x1="85.155" x2="100.509" y1="136.594" y2="127.73"/>
  <line stroke="#808080" stroke-width="0.1" x1="101.35" x2="100.864" y1="127.243" y2="127.525"/>
  <line stroke="#808080" stroke-width="0.1" x1="101.611" x2="101.35" y1="127.406" y2="127.243"/>
  <line stroke="#808080" stroke-width="0.1" x1="101.632" x2="101.504" y1="127.406" y2="127.337"/>
  <path d="M81.451 137.413C81.561 137.336 81.57 137.323 81.721 137.253C82.492 136.901 83.331 137.193 84.031 137.568" stroke="#808080" stroke-width="0.1"/>
  <path d="M101.611 127.406C101.882 127.593 102.14 127.787 102.382 128.008C103.1 128.659 103.659 129.441 104.134 130.282" stroke="#808080" stroke-width="0.1"/>
  <path d="M84.031 137.568L84.311 137.081L84.799 136.8" stroke="#808080" stroke-width="0.1"/>
  <path d="M81.71 136.794C81.885 136.712 81.924 136.686 82.111 136.637C82.78 136.461 83.442 136.663 84.051 136.942" stroke="#808080" stroke-width="0.1"/>
  <path d="M80.569 139.431C80.569 138.788 80.626 138.14 80.945 137.567C81.131 137.235 81.387 136.985 81.71 136.794C81.993 136.625 82.277 136.439 82.599 136.354C83.35 136.158 84.149 136.425 84.799 136.8C85.472 137.189 86.057 137.727 86.555 138.319C87.611 139.575 88.385 141.187 88.524 142.834C88.596 143.687 88.493 144.668 87.902 145.336C87.691 145.575 87.429 145.721 87.156 145.877C86.99 145.973 86.891 146.04 86.718 146.108C86.507 146.192 86.296 146.218 86.069 146.239C85.853 146.235 85.81 146.242 85.593 146.209C85.135 146.137 84.712 145.954 84.311 145.729C84.04 145.579 83.774 145.419 83.524 145.231C82.893 144.759 82.356 144.162 81.914 143.512C81.093 142.306 80.572 140.896 80.569 139.431z" stroke-width="0.25"/>
  <path d="M82.334 136.449C82.524 136.298 82.823 136.151 83.013 136.042L97.45 127.706L97.908 127.441C98.165 127.302 98.456 127.233 98.748 127.221C99.686 127.186 100.582 127.695 101.286 128.274C101.923 128.798 102.465 129.437 102.914 130.128C103.5 131.036 103.941 132.054 104.144 133.117C104.185 133.331 104.215 133.546 104.233 133.764C104.311 134.68 104.183 135.77 103.457 136.421C103.224 136.632 102.917 136.778 102.65 136.932L88.215 145.266L87.756 145.532L87.62 145.594" stroke-width="0.25"/>
  <path d="M103.328 136.525L103.465 136.461L103.709 136.322C103.981 136.163 104.245 136.019 104.456 135.778C104.989 135.173 105.093 134.348 105.093 133.574C105.093 133.156 105.066 132.75 104.984 132.34C104.804 131.425 104.433 130.55 103.942 129.76C103.358 128.818 102.588 127.977 101.632 127.406C101.144 127.115 100.637 126.855 100.069 126.766C99.853 126.731 99.808 126.739 99.593 126.736C99.367 126.756 99.156 126.783 98.944 126.865C98.771 126.933 98.671 127.001 98.507 127.096C98.355 127.183 98.182 127.269 98.043 127.379" stroke-width="0.25"/>
  <path d="M86.611 145.723C86.275 145.961 85.906 146.032 85.501 146.038C85.287 146.02 85.242 146.024 85.028 145.974C84.673 145.893 84.352 145.74 84.031 145.568" stroke="#808080" stroke-width="0.1"/>
  <path d="M87.945 144.55C88.003 144.272 88.046 144.002 88.055 143.717C88.097 142.328 87.585 140.989 86.914 139.796" stroke="#808080" stroke-width="0.1"/>
  <path d="M86.433 140.078C87.132 141.259 87.563 142.604 87.474 143.985" stroke="#808080" stroke-width="0.1"/>
  <path d="M86.914 139.796C86.355 138.895 85.692 138.06 84.832 137.425C84.584 137.241 84.323 137.087 84.051 136.942" stroke="#808080" stroke-width="0.1"/>
  <path d="M88.435 144.256C88.54 144.024 88.594 143.758 88.629 143.508C88.709 142.918 88.653 142.312 88.525 141.733C88.161 140.075 87.209 138.473 85.9 137.389C85.522 137.075 85.106 136.804 84.652 136.616C84.414 136.519 84.153 136.435 83.894 136.409" stroke="#808080" stroke-width="0.1"/>
  <path d="M87.756 145.532C87.944 145.414 88.114 145.295 88.262 145.127C89 144.287 88.986 142.996 88.787 141.962C88.582 140.907 88.143 139.895 87.56 138.995C87.112 138.304 86.572 137.665 85.936 137.141C85.344 136.655 84.643 136.237 83.875 136.116C83.659 136.082 83.614 136.09 83.397 136.086C83.09 136.114 82.834 136.177 82.554 136.306" stroke="#808080" stroke-width="0.1"/>
  <path d="M87.945 144.55C87.832 144.939 87.688 145.307 87.417 145.616C87.287 145.763 87.246 145.784 87.094 145.906" stroke="#808080" stroke-width="0.1"/>
  <path d="M104.144 135.186C104.25 134.955 104.304 134.689 104.338 134.438C104.418 133.848 104.362 133.242 104.234 132.663C103.87 131.006 102.918 129.402 101.609 128.318C101.233 128.006 100.816 127.733 100.361 127.546C100.123 127.448 99.861 127.364 99.603 127.34" stroke="#808080" stroke-width="0.1"/>
  <path d="M98.263 127.236C98.465 127.144 98.659 127.067 98.882 127.036C99.783 126.908 100.685 127.349 101.388 127.87C102.04 128.353 102.597 128.96 103.063 129.62C103.813 130.682 104.367 131.925 104.551 133.219C104.685 134.167 104.635 135.3 103.971 136.056C103.822 136.225 103.655 136.344 103.465 136.461" stroke="#808080" stroke-width="0.1"/>
  <path d="M104.134 130.282C104.519 131.032 104.805 131.794 104.984 132.62" stroke="#808080" stroke-width="0.1"/>
  <path d="M105.093 133.879C105.093 133.451 105.055 133.043 104.984 132.62" stroke="#808080" stroke-width="0.1"/>
 </g>
 <g id="20599_4_1">
  <desc>20599_4</desc>
  <line stroke="#808080" stroke-width="0.1" x1="102.597" x2="102.469" y1="10.359" y2="10.289"/>
  <line stroke="#808080" stroke-width="0.1" x1="102.581" x2="102.319" y1="10.362" y2="10.198"/>
  <line stroke="#808080" stroke-width="0.1" x1="102.319" x2="101.832" y1="10.198" y2="10.48"/>
  <line stroke="#808080" stroke-width="0.1" x1="101.477" x2="86.123" y1="10.685" y2="19.55"/>
  <path d="M100.543 10.275C100.903 10.314 101.257 10.448 101.578 10.611C102.131 10.89 102.623 11.282 103.055 11.724C104.097 12.788 104.865 14.179 105.177 15.637C105.355 16.472 105.367 17.321 105.075 18.129" stroke="#808080" stroke-width="0.1"/>
  <path d="M104.373 19.41C104.564 19.295 104.734 19.179 104.885 19.013C105.634 18.187 105.629 16.899 105.438 15.871C105.242 14.814 104.807 13.803 104.23 12.9C103.786 12.205 103.246 11.564 102.612 11.034C102.022 10.541 101.319 10.117 100.551 9.987C100.334 9.949 100.289 9.955 100.072 9.949C99.763 9.973 99.506 10.032 99.221 10.157" stroke="#808080" stroke-width="0.1"/>
  <path d="M105.927 15.598C105.753 14.772 105.471 14.01 105.09 13.259" stroke="#808080" stroke-width="0.1"/>
  <path d="M104.262 19.458L104.373 19.41L104.617 19.268C104.89 19.111 105.156 18.971 105.37 18.734C105.908 18.143 106.025 17.321 106.028 16.553C106.03 16.135 106.006 15.725 105.927 15.314C105.728 14.284 105.29 13.3 104.706 12.432C104.153 11.609 103.45 10.874 102.597 10.359C102.111 10.066 101.602 9.801 101.037 9.705C100.819 9.669 100.775 9.675 100.557 9.669C100.331 9.686 100.118 9.711 99.903 9.791C99.718 9.859 99.644 9.914 99.465 10.018C99.302 10.112 99.128 10.198 98.978 10.314" stroke-width="0.25"/>
  <path d="M83.269 19.384C83.477 19.222 83.754 19.088 83.971 18.963L98.408 10.628L98.867 10.362C99.123 10.226 99.423 10.162 99.712 10.156C100.655 10.132 101.551 10.65 102.253 11.236C102.888 11.766 103.429 12.407 103.873 13.103C104.454 14.012 104.891 15.032 105.085 16.094C105.125 16.309 105.153 16.522 105.171 16.739C105.242 17.652 105.103 18.736 104.37 19.375C104.135 19.579 103.822 19.728 103.558 19.879L89.123 28.214L88.665 28.48L88.552 28.528" stroke-width="0.25"/>
  <path d="M86.495 29.138C85.926 29.015 85.43 28.783 84.933 28.484C83.578 27.667 82.572 26.295 81.992 24.839C81.786 24.321 81.632 23.782 81.554 23.23C81.51 22.916 81.501 22.606 81.503 22.289C81.504 21.521 81.623 20.701 82.161 20.108C82.375 19.873 82.641 19.731 82.914 19.574C83.094 19.469 83.165 19.417 83.353 19.347C83.635 19.242 83.938 19.208 84.237 19.231C85.097 19.295 85.894 19.765 86.543 20.306C87.462 21.071 88.191 22.071 88.706 23.147C89.061 23.885 89.32 24.678 89.427 25.49C89.552 26.431 89.489 27.554 88.816 28.292C88.602 28.527 88.337 28.669 88.066 28.826C87.887 28.928 87.811 28.984 87.626 29.053C87.412 29.132 87.2 29.157 86.974 29.173C86.656 29.166 86.816 29.178 86.495 29.138z" stroke-width="0.25"/>
  <path d="M105.09 13.259C104.62 12.414 104.064 11.63 103.349 10.971C103.106 10.749 102.849 10.554 102.581 10.362" stroke="#808080" stroke-width="0.1"/>
  <path d="M84.996 20.521L85.281 20.036L85.766 19.754" stroke="#808080" stroke-width="0.1"/>
  <path d="M82.406 20.332C82.516 20.257 82.528 20.243 82.679 20.178C83.456 19.836 84.298 20.14 84.996 20.521" stroke="#808080" stroke-width="0.1"/>
  <path d="M82.67 19.714C82.873 19.623 83.067 19.553 83.29 19.524C84.001 19.431 84.671 19.701 85.281 20.036" stroke="#808080" stroke-width="0.1"/>
  <path d="M81.503 22.62L81.525 22.05" stroke="#808080" stroke-width="0.1"/>
  <path d="M106.028 16.553C106.012 16.23 105.977 15.917 105.927 15.598" stroke="#808080" stroke-width="0.1"/>
  <path d="M88.665 28.48C88.855 28.365 89.025 28.25 89.176 28.082C89.924 27.257 89.921 25.969 89.728 24.94C89.531 23.885 89.097 22.873 88.519 21.969C88.075 21.274 87.537 20.632 86.903 20.103C86.313 19.611 85.611 19.187 84.841 19.056C84.625 19.019 84.578 19.025 84.361 19.019C84.054 19.042 83.796 19.103 83.513 19.228" stroke="#808080" stroke-width="0.1"/>
  <path d="M89.365 27.199C89.656 26.39 89.647 25.542 89.468 24.707C89.156 23.248 88.388 21.858 87.346 20.794C86.912 20.353 86.421 19.96 85.867 19.681C85.546 19.518 85.194 19.385 84.834 19.344" stroke="#808080" stroke-width="0.1"/>
  <path d="M85.281 20.036C85.552 20.207 85.811 20.382 86.058 20.588C86.796 21.202 87.373 21.958 87.871 22.774" stroke="#808080" stroke-width="0.1"/>
  <path d="M88.006 28.856C88.159 28.737 88.2 28.716 88.331 28.571C88.606 28.268 88.754 27.905 88.87 27.518" stroke="#808080" stroke-width="0.1"/>
  <path d="M87.522 28.672C87.183 28.907 86.813 28.971 86.406 28.972C86.191 28.949 86.147 28.952 85.933 28.902C85.575 28.815 85.254 28.658 84.933 28.484" stroke="#808080" stroke-width="0.1"/>
  <path d="M88.406 26.954C88.506 25.576 88.081 24.233 87.391 23.05" stroke="#808080" stroke-width="0.1"/>
  <path d="M87.871 22.774C88.536 23.966 89.04 25.303 88.986 26.69C88.975 26.972 88.93 27.242 88.87 27.518" stroke="#808080" stroke-width="0.1"/>
 </g>
 <g>
  <line stroke="#FFFFFF" stroke-width="1" x1="116.215" x2="105.987" y1="6.278" y2="12.182"/>
  <line stroke-dasharray="5 1 1 1" stroke-width="0.13" x1="116.704" x2="106.364" y1="5.996" y2="11.965"/>
  <line stroke-width="0.13" x1="106.364" x2="105.498" y1="11.965" y2="12.465"/>
 </g>
 <g>
  <line stroke="#FFFFFF" stroke-width="1" x1="84.256" x2="73.424" y1="24.73" y2="30.984"/>
  <line stroke-dasharray="5 1 1 1" stroke-width="0.13" x1="84.745" x2="73.799" y1="24.448" y2="30.766"/>
  <line stroke-width="0.13" x1="73.799" x2="72.933" y1="30.766" y2="31.266"/>
 </g>
 <g>
  <line stroke="#FFFFFF" stroke-width="1" x1="59.284" x2="31.733" y1="39.146" y2="55.054"/>
  <line stroke-dasharray="5 1 1 1" stroke-width="0.13" x1="59.774" x2="32.109" y1="38.865" y2="54.837"/>
  <line stroke-width="0.13" x1="32.109" x2="31.243" y1="54.837" y2="55.337"/>
 </g>
 <g>
  <line stroke="#FFFFFF" stroke-width="1" x1="28.356" x2="27.559" y1="57.003" y2="57.463"/>
  <line stroke-dasharray="5 1 1 1" stroke-width="0.13" x1="28.847" x2="27.936" y1="56.72" y2="57.246"/>
  <line stroke-width="0.13" x1="27.936" x2="27.07" y1="57.246" y2="57.746"/>
 </g>
 <g>
  <line stroke="#FFFFFF" stroke-width="1" x1="42.136" x2="29.292" y1="81.359" y2="88.775"/>
  <line stroke-dasharray="5 1 1 1" stroke-width="0.13" x1="42.625" x2="29.67" y1="81.076" y2="88.557"/>
  <line stroke-width="0.13" x1="29.67" x2="28.803" y1="88.557" y2="89.057"/>
 </g>
 <g>
  <line stroke="#FFFFFF" stroke-width="1" x1="115.995" x2="105.384" y1="123.572" y2="129.699"/>
  <line stroke-dasharray="5 1 1 1" stroke-width="0.13" x1="116.484" x2="105.76" y1="123.29" y2="129.481"/>
  <line stroke-width="0.13" x1="105.76" x2="104.894" y1="129.481" y2="129.981"/>
 </g>
 <g>
  <line stroke="#FFFFFF" stroke-width="1" x1="83.751" x2="73.424" y1="142.188" y2="148.151"/>
  <line stroke-dasharray="5 1 1 1" stroke-width="0.13" x1="84.239" x2="73.799" y1="141.907" y2="147.933"/>
  <line stroke-width="0.13" x1="73.799" x2="72.933" y1="147.933" y2="148.433"/>
 </g>
 <g>
  <line stroke="#FFFFFF" stroke-width="1" x1="59.284" x2="31.733" y1="156.314" y2="172.222"/>
  <line stroke-dasharray="5 1 1 1" stroke-width="0.13" x1="59.774" x2="32.109" y1="156.032" y2="172.003"/>
  <line stroke-width="0.13" x1="32.109" x2="31.243" y1="172.003" y2="172.503"/>
 </g>
 <g>
  <line stroke="#FFFFFF" stroke-width="1" x1="28.356" x2="27.559" y1="174.17" y2="174.631"/>
  <line stroke-dasharray="5 1 1 1" stroke-width="0.13" x1="28.847" x2="27.936" y1="173.888" y2="174.413"/>
  <line stroke-width="0.13" x1="27.936" x2="27.07" y1="174.413" y2="174.913"/>
 </g>
 <g class="callout callout_1">
  <g>
   <line stroke="#FFFFFF" stroke-width="1" x1="76.546" x2="92.338" y1="85.278" y2="76.162"/>
   <line stroke="#808080" stroke-width="0.1" x1="76.546" x2="92.338" y1="85.278" y2="76.162"/>
  </g>
  <path d="M89.781 79.683L94.897 79.683 94.897 72.641 89.781 72.641 89.781 79.683z" fill="#FFFFFF" stroke="none"/>
  <text fill="#000000" font-family="'Arial'" font-size="4.232" stroke="none" x="91.162" y="77.683"><desc>1</desc>1</text>
 </g>
 <g class="callout callout_2">
  <g>
   <line stroke="#FFFFFF" stroke-width="1" x1="97.402" x2="115.356" y1="138.884" y2="149.251"/>
   <line stroke="#808080" stroke-width="0.1" x1="97.402" x2="115.356" y1="138.884" y2="149.251"/>
  </g>
  <path d="M112.352 152.772L118.359 152.772 118.359 145.729 112.352 145.729 112.352 152.772z" fill="#FFFFFF" stroke="none"/>
  <text fill="#000000" font-family="'Arial'" font-size="4.232" stroke="none" x="114.179" y="150.772"><desc>2</desc>2</text>
 </g>
 <g class="callout callout_3">
  <g>
   <line stroke="#FFFFFF" stroke-width="1" x1="120.739" x2="137.985" y1="126.17" y2="136.127"/>
   <line stroke="#808080" stroke-width="0.1" x1="120.739" x2="137.985" y1="126.17" y2="136.127"/>
  </g>
  <path d="M134.993 139.675L140.978 139.675 140.978 132.579 134.993 132.579 134.993 139.675z" fill="#FFFFFF" stroke="none"/>
  <text fill="#000000" font-family="'Arial'" font-size="4.232" stroke="none" x="136.808" y="137.675"><desc>3</desc>3</text>
 </g>
 <g class="callout callout_3">
  <g>
   <line stroke="#FFFFFF" stroke-width="1" x1="22.737" x2="5.98" y1="170.449" y2="160.774"/>
   <line stroke="#808080" stroke-width="0.1" x1="22.737" x2="5.98" y1="170.449" y2="160.774"/>
  </g>
  <path d="M2.988 164.322L8.971 164.322 8.971 157.225 2.988 157.225 2.988 164.322z" fill="#FFFFFF" stroke="none"/>
  <text fill="#000000" font-family="'Arial'" font-size="4.232" stroke="none" x="4.801" y="162.322"><desc>3</desc>3</text>
 </g>
 <g class="callout callout_4">
  <g>
   <line stroke="#FFFFFF" stroke-width="1" x1="21.14" x2="3.048" y1="89.012" y2="78.566"/>
   <line stroke="#808080" stroke-width="0.1" x1="21.14" x2="3.048" y1="89.012" y2="78.566"/>
  </g>
  <path d="M0 82.081L6.096 82.081 6.096 75.051 0 75.051 0 82.081z" fill="#FFFFFF" stroke="none"/>
  <text fill="#000000" font-family="'Arial'" font-size="4.232" stroke="none" x="1.871" y="80.081"><desc>4</desc>4</text>
 </g>
 <g class="callout callout_3">
  <g>
   <line stroke="#FFFFFF" stroke-width="1" x1="23.989" x2="5.554" y1="52.966" y2="42.323"/>
   <line stroke="#808080" stroke-width="0.1" x1="23.989" x2="5.554" y1="52.966" y2="42.323"/>
  </g>
  <path d="M2.562 45.871L8.547 45.871 8.547 38.774 2.562 38.774 2.562 45.871z" fill="#FFFFFF" stroke="none"/>
  <text fill="#000000" font-family="'Arial'" font-size="4.232" stroke="none" x="4.378" y="43.871"><desc>3</desc>3</text>
 </g>
 <g class="callout callout_2">
  <g>
   <line stroke="#FFFFFF" stroke-width="1" x1="98.004" x2="115.959" y1="22.681" y2="33.048"/>
   <line stroke="#808080" stroke-width="0.1" x1="98.004" x2="115.959" y1="22.681" y2="33.048"/>
  </g>
  <path d="M112.956 36.569L118.962 36.569 118.962 29.525 112.956 29.525 112.956 36.569z" fill="#FFFFFF" stroke="none"/>
  <text fill="#000000" font-family="'Arial'" font-size="4.232" stroke="none" x="114.783" y="34.569"><desc>2</desc>2</text>
 </g>
 <g class="callout callout_3">
  <g>
   <line stroke="#FFFFFF" stroke-width="1" x1="121.343" x2="138.588" y1="9.965" y2="19.923"/>
   <line stroke="#808080" stroke-width="0.1" x1="121.343" x2="138.588" y1="9.965" y2="19.923"/>
  </g>
  <path d="M135.597 23.472L141.581 23.472 141.581 16.376 135.597 16.376 135.597 23.472z" fill="#FFFFFF" stroke="none"/>
  <text fill="#000000" font-family="'Arial'" font-size="4.232" stroke="none" x="137.412" y="21.472"><desc>3</desc>3</text>
 </g>
 <path class="hotspot hotspot_1" d="M89.781 79.683L 94.897 79.683L 94.897 72.641L 89.781 72.641L 89.781 79.683z" fill="black" id="AUTOID_126602" stroke="black" visibility="hidden"/>
 <path class="hotspot hotspot_2" d="M112.352 152.772L 118.359 152.772L 118.359 145.729L 112.352 145.729L 112.352 152.772zM112.956 36.569L 118.962 36.569L 118.962 29.525L 112.956 29.525L 112.956 36.569z" fill="black" id="AUTOID_126603" stroke="black" visibility="hidden"/>
 <path class="hotspot hotspot_4" d="M0 82.081L 6.096 82.081L 6.096 75.051L 0 75.051L 0 82.081z" fill="black" id="AUTOID_126604" stroke="black" visibility="hidden"/>
 <path class="hotspot hotspot_3" d="M134.993 139.675L 140.978 139.675L 140.978 132.579L 134.993 132.579L 134.993 139.675zM2.988 164.322L 8.971 164.322L 8.971 157.225L 2.988 157.225L 2.988 164.322zM2.562 45.871L 8.547 45.871L 8.547 38.774L 2.562 38.774L 2.562 45.871zM135.597 23.472L 141.581 23.472L 141.581 16.376L 135.597 16.376L 135.597 23.472z" fill="black" id="AUTOID_126605" stroke="black" visibility="hidden"/>
</svg>