<?xml version="1.0" encoding="UTF-8" standalone="no"?><!-- Generator: PTC Arbortext IsoDraw 7.3 M090 --><svg xmlns="http://www.w3.org/2000/svg" xmlns:xlink="http://www.w3.org/1999/xlink" clip-rule="evenodd" fill="none" fill-rule="evenodd" font-family="sans-serif" font-size="10" font-stretch="normal" font-style="normal" font-variant="normal" font-weight="normal" height="195.175" id="Standard_x0020_layer" onabort="parent.dwImageSVGOnAbort('XML125437683');" onerror="parent.dwImageSVGOnError('XML125437683');" onload="parent.dwImageSVGOnLoad('XML125437683');" stroke="#000000" stroke-linecap="round" viewBox="0.0 0.0 131.043 195.175" width="131.043" x="0" xml:space="preserve" y="0">
 <g id="07.0503.0052_0_SILENT BLOCK_MODEL">
  <desc>07.0503.0052_0_SILENT BLOCK_MODEL</desc>
  <g id="07.0503.0052_part003_0_TAMPONE_MODEL">
   <desc>07.0503.0052_part003_0_TAMPONE_MODEL</desc>
   <path d="M87.584 102.835C86.93 102.138 85.971 101.969 85.055 101.932C84.346 101.959 83.64 102.055 83.013 102.417C82.725 102.582 82.712 102.618 82.493 102.831" stroke-width="0.13"/>
   <path d="M89.051 101.927C87.98 100.912 86.465 100.638 85.043 100.602C83.623 100.638 82.108 100.912 81.037 101.927" stroke-width="0.25"/>
   <path d="M88.087 102.605C87.947 102.334 87.596 102.093 87.346 101.947C86.84 101.656 86.271 101.495 85.694 101.432L85.043 101.397L84.394 101.432C83.816 101.495 83.246 101.656 82.742 101.947C82.492 102.093 82.14 102.334 82.001 102.605" stroke="#808080" stroke-width="0.1"/>
  </g>
  <g id="07.0503.0052_part001_0_ANELLO_MODEL">
   <desc>07.0503.0052_part001_0_ANELLO_MODEL</desc>
   <path d="M67.042 110.581C67.087 109.93 67.067 109.79 67.224 109.158C67.367 108.569 67.486 108.346 67.721 107.778L69.802 102.739L70.093 102.031C70.423 101.24 70.805 100.492 71.304 99.793C71.871 98.995 72.563 98.266 73.32 97.647C73.825 97.233 74.367 96.876 74.918 96.53C75.914 95.903 76.992 95.414 78.106 95.034C80.481 94.227 82.956 93.859 85.462 93.905C86.441 93.923 87.418 94.001 88.388 94.15C89.638 94.34 90.884 94.634 92.073 95.067C92.7 95.296 93.323 95.533 93.924 95.825C95.251 96.474 96.521 97.332 97.569 98.376C98.323 99.129 98.963 99.986 99.484 100.914C99.793 101.462 100.016 102.069 100.257 102.65L102.331 107.673C102.629 108.394 102.927 109.138 103.004 109.924C103.057 110.46 103.063 110.859 102.995 111.396C102.62 114.343 100.218 116.563 97.772 117.975L97.197 118.28C96.605 118.593 96.602 118.608 95.969 118.885C95.23 119.212 94.469 119.495 93.7 119.739C91.718 120.364 89.656 120.745 87.587 120.915C86.766 120.981 85.944 121.001 85.12 121.019C83.795 120.995 82.471 120.944 81.155 120.777C80.251 120.661 79.346 120.501 78.456 120.298C75.414 119.602 72.334 118.396 69.977 116.299C68.918 115.355 67.975 114.21 67.462 112.871C67.278 112.39 67.134 111.843 67.084 111.328L67.042 110.581z" stroke-width="0.25"/>
   <path d="M70.093 102.031C69.914 102.623 69.769 103.186 69.766 103.81C69.75 106.611 71.98 108.78 74.24 110.084C74.706 110.352 75.188 110.588 75.677 110.808C77.423 111.588 79.281 112.087 81.17 112.375C83.95 112.798 86.808 112.763 89.576 112.266C91.584 111.906 93.551 111.299 95.358 110.343C97.462 109.23 99.573 107.513 100.168 105.093C100.265 104.697 100.319 104.293 100.32 103.885C100.325 103.2 100.165 102.59 99.963 101.941" stroke-width="0.13"/>
   <path d="M75.225 100.618C75.266 100.117 75.246 99.993 75.412 99.513C75.993 97.825 77.635 96.742 79.203 96.069C80.308 95.596 81.474 95.298 82.662 95.126C84.548 94.852 86.48 94.9 88.346 95.287C89.486 95.524 90.594 95.881 91.628 96.423C91.972 96.603 92.322 96.796 92.638 97.025C93.197 97.43 93.709 97.885 94.114 98.45C94.349 98.777 94.543 99.131 94.676 99.513C95.146 100.879 94.65 102.266 93.701 103.293C92.647 104.436 91.144 105.165 89.677 105.617C88.795 105.888 87.876 106.075 86.959 106.18C86.322 106.253 85.683 106.269 85.043 106.287C84.403 106.269 83.765 106.253 83.128 106.18C82.662 106.126 82.2 106.046 81.742 105.95C80.007 105.591 78.236 104.941 76.879 103.769C76.242 103.218 75.688 102.528 75.412 101.724C75.246 101.245 75.266 101.12 75.225 100.618z" stroke-width="0.13"/>
   <path d="M89.64 100.618C89.621 100.382 89.631 100.316 89.555 100.09C89.396 99.603 89.021 99.227 88.608 98.941C87.831 98.402 86.896 98.117 85.96 98.013C85.566 97.971 85.444 97.975 85.043 97.965C83.909 97.995 82.792 98.167 81.793 98.742C81.259 99.052 80.733 99.483 80.531 100.09C80.456 100.316 80.465 100.382 80.447 100.618" stroke="#808080" stroke-width="0.1"/>
   <path d="M89.64 100.618C89.626 100.798 89.617 100.977 89.555 101.149C89.384 101.635 89.027 102.006 88.608 102.296C87.831 102.837 86.897 103.12 85.96 103.224C85.566 103.268 85.444 103.262 85.043 103.272C84.643 103.262 84.522 103.268 84.126 103.224C83.191 103.12 82.257 102.837 81.478 102.296C81.066 102.01 80.691 101.634 80.531 101.149C80.456 100.921 80.465 100.855 80.447 100.618" stroke-width="0.25"/>
   <path d="M80.649 101.417C81.212 100.469 82.248 99.974 83.293 99.728C84.522 99.439 85.847 99.453 87.063 99.799C87.68 99.974 88.286 100.236 88.787 100.643C89.159 100.944 89.183 101.033 89.441 101.409" stroke-width="0.25"/>
  </g>
  <g id="07.0503.0052_part002_0_TELAIO_MODEL">
   <desc>07.0503.0052_part002_0_TELAIO_MODEL</desc>
   <line stroke="#808080" stroke-width="0.1" x1="71.243" x2="71.243" y1="126.739" y2="124.861"/>
   <line stroke-width="0.25" x1="99.109" x2="106.45" y1="100.296" y2="104.534"/>
   <line stroke-width="0.13" x1="103.939" x2="103.939" y1="108.472" y2="110.349"/>
   <line stroke-width="0.13" x1="88.727" x2="88.686" y1="100.73" y2="100.573"/>
   <line stroke-width="0.25" x1="86.138" x2="86.304" y1="99.682" y2="100.697"/>
   <line stroke-width="0.13" x1="78.064" x2="78.064" y1="125.289" y2="123.412"/>
   <line stroke-width="0.13" x1="79.501" x2="67.584" y1="122.582" y2="115.703"/>
   <path d="M68.621 114.859C68.123 115.391 67.549 115.722 66.921 116.085L66.811 116.149L66.147 116.531L65.736 117.177L64.049 119.825L63.637 120.469L63.637 121.236L63.637 121.581L63.637 122.346" stroke-width="0.25"/>
   <path d="M82.606 120.921C82.046 122.03 81.307 123.049 80.352 123.852C79.87 124.257 79.334 124.555 78.792 124.868L78.727 124.906L78.064 125.289L77.314 125.447L71.992 126.578L71.243 126.739L63.637 122.346" stroke-width="0.25"/>
   <path d="M81.277 120.789C80.906 121.409 80.387 121.977 79.796 122.393L79.501 122.582L78.837 122.965L78.727 123.028L78.064 123.412L77.314 123.572L71.992 124.703L71.243 124.861L63.637 120.469" stroke="#808080" stroke-width="0.1"/>
   <path d="M101.402 104.763C101.268 104.697 101.222 104.68 101.076 104.634" stroke-width="0.25"/>
   <path d="M102.18 103.819C102.18 104.358 101.629 104.718 101.171 104.861" stroke-width="0.25"/>
   <path d="M106.45 104.534L106.039 105.18L104.352 107.826L103.939 108.472L102.847 109.103" stroke="#808080" stroke-width="0.1"/>
   <path d="M106.45 104.534L106.45 105.301L106.45 105.646L106.45 106.412L106.039 107.057L104.352 109.703L103.939 110.349L103.031 110.873" stroke-width="0.25"/>
   <path d="M89.078 100.924C88.442 100.572 87.816 100.204 87.188 99.841" stroke-width="0.13"/>
   <path d="M102.18 103.825L102.143 103.581C101.975 103.078 101.355 102.811 100.884 102.697L100.495 102.631L100.242 102.617" stroke="#808080" stroke-width="0.1"/>
   <path d="M87.009 99.787C86.343 99.686 85.683 99.649 85.01 99.637L83.96 99.68L83.085 99.787" stroke-width="0.25"/>
   <path d="M72.12 121.176C72.01 120.322 71.031 120.06 70.311 119.977L70.022 119.965C69.322 119.992 68.367 120.132 67.996 120.826C67.917 120.977 67.926 121.024 67.906 121.186" stroke="#808080" stroke-width="0.1"/>
   <path d="M72.12 121.176C72.099 121.337 72.108 121.384 72.028 121.534C71.658 122.228 70.703 122.368 70.004 122.397L69.715 122.385C68.993 122.302 68.015 122.04 67.906 121.186" stroke-width="0.25"/>
   <path d="M71.34 122.12C70.924 121.918 70.48 121.861 70.022 121.84C69.558 121.859 69.105 121.912 68.685 122.117" stroke-width="0.25"/>
  </g>
 </g>
 <g id="01.0002.0507_0_VITE TE M14x1_5x75 UNI5738 8.8_MODEL">
  <desc>01.0002.0507_0_VITE TE M14x1_5x75 UNI5738 8.8_MODEL</desc>
  <line stroke="#808080" stroke-width="0.1" x1="84.953" x2="85.45" y1="12.278" y2="12.268"/>
  <line stroke="#808080" stroke-width="0.1" x1="88.697" x2="88.93" y1="11.089" y2="10.836"/>
  <line stroke-width="0.25" x1="80.772" x2="80.79" y1="9.868" y2="9.577"/>
  <line stroke-width="0.13" x1="89.647" x2="89.542" y1="9.641" y2="9.675"/>
  <line stroke-width="0.13" x1="89.647" x2="89.742" y1="9.641" y2="9.71"/>
  <line stroke="#808080" stroke-width="0.1" x1="82.566" x2="82.993" y1="11.82" y2="11.975"/>
  <line stroke="#808080" stroke-width="0.1" x1="83.784" x2="83.784" y1="15.339" y2="13.15"/>
  <line stroke="#808080" stroke-width="0.1" x1="88.483" x2="88.483" y1="12.423" y2="14.612"/>
  <path d="M87.265 11.919L86.819 12.055C86.277 12.172 85.7 12.166 85.168 12.33C84.921 12.404 84.701 12.507 84.471 12.625" stroke="#808080" stroke-width="0.1"/>
  <path d="M87.715 12.074C87.317 12.016 87.518 12.034 87.115 12.025L86.819 12.055" stroke="#808080" stroke-width="0.1"/>
  <path d="M88.697 11.089C88.426 11.317 88.388 11.368 88.07 11.551C87.742 11.743 87.62 11.776 87.265 11.919" stroke-width="0.13"/>
  <path d="M88.483 12.423C88.23 12.256 88.009 12.159 87.715 12.074" stroke-width="0.13"/>
  <path d="M88.677 11.605C88.62 11.878 88.546 12.15 88.483 12.423" stroke-width="0.13"/>
  <path d="M89.542 9.675C89.343 9.903 89.242 10.164 89.114 10.442C88.93 10.835 88.802 11.195 88.677 11.605" stroke="#808080" stroke-width="0.1"/>
  <path d="M82.414 14.548L82.414 15.314L82.414 35.182C82.414 35.707 82.323 36.203 82.682 36.622C82.92 36.902 83.269 37.106 83.606 37.246C84.492 37.609 85.561 37.6 86.45 37.258C86.882 37.091 87.373 36.792 87.578 36.362C87.742 36.012 87.674 35.546 87.674 35.195L87.674 15.503L87.674 14.737" stroke-width="0.25"/>
  <path d="M86.903 37.029L86.537 37.206C86.049 37.393 85.57 37.451 85.055 37.473C84.656 37.457 84.274 37.429 83.888 37.319C83.539 37.219 83.504 37.185 83.183 37.029" stroke-width="0.13"/>
  <path d="M85.537 7.346C86.117 7.373 86.766 7.466 87.304 7.694L87.522 7.802L88.022 8.092C88.338 8.274 88.679 8.442 88.951 8.691C89.185 8.904 89.405 9.147 89.57 9.419L89.742 9.71L89.742 10.477L89.742 11.134L89.742 11.9L89.421 12.593L88.805 13.917L88.483 14.612" stroke-width="0.25"/>
  <path d="M80.344 13.353L81.007 13.737L83.12 14.957L83.784 15.339L84.542 15.221L87.727 14.73L88.483 14.612" stroke-width="0.25"/>
  <path d="M81.403 8.414C81.203 8.644 81.102 8.906 80.974 9.182C80.766 9.63 80.591 10.061 80.474 10.542C80.456 10.618 80.349 11.09 80.344 11.163L80.344 11.929L80.344 12.587L80.344 13.353" stroke-width="0.25"/>
  <path d="M81.379 8.442C81.861 8.086 82.388 7.788 82.971 7.631L83.269 7.567L83.953 7.461L84.638 7.357L84.876 7.33C85.192 7.296 85.552 7.347 85.861 7.371" stroke-width="0.25"/>
  <path d="M89.296 10.045L89.305 9.599C89.233 9.063 88.89 8.737 88.524 8.381" stroke-width="0.13"/>
  <path d="M85.212 7.331L85.132 7.326" stroke="#808080" stroke-width="0.1"/>
  <path d="M81.43 8.407L81.403 8.414" stroke="#808080" stroke-width="0.1"/>
  <path d="M81.299 11C81.085 10.74 80.899 10.497 80.814 10.163L80.772 9.868" stroke-width="0.13"/>
  <path d="M83.221 12.358C83.037 12.176 82.989 12.115 82.784 11.964C82.402 11.682 81.95 11.512 81.563 11.243L81.299 11" stroke="#808080" stroke-width="0.1"/>
  <path d="M80.603 11.041L80.894 11.012C81.177 11.031 81.307 11.122 81.563 11.243" stroke="#808080" stroke-width="0.1"/>
  <path d="M83.269 7.567L82.593 7.788C82.362 7.883 81.739 8.234 81.537 8.397L81.158 8.787" stroke-width="0.13"/>
  <path d="M87.522 7.802L86.855 7.575C86.242 7.405 86.048 7.413 85.412 7.352L84.638 7.357" stroke-width="0.13"/>
  <path d="M84.953 12.278C84.275 12.246 83.649 12.153 82.993 11.975" stroke-width="0.13"/>
  <path d="M83.784 13.15C83.614 12.864 83.436 12.612 83.221 12.358" stroke-width="0.13"/>
  <path d="M83.784 13.15C84.013 12.948 84.218 12.795 84.471 12.625" stroke-width="0.13"/>
 </g>
 <g id="01.0023.0055_0_DADO AUTOBLOCCANTE M10 UNI 7473-8_MODEL">
  <desc>01.0023.0055_0_DADO AUTOBLOCCANTE M10 UNI 7473-8_MODEL</desc>
  <line stroke-width="0.25" x1="36.652" x2="36.554" y1="189.3" y2="189.079"/>
  <line stroke="#808080" stroke-width="0.1" x1="41.158" x2="41.158" y1="193.96" y2="191.736"/>
  <path d="M43.817 192.425L43.152 192.925L42.487 193.31L41.825 193.693L41.158 193.96L40.25 193.936L39.493 193.818L39.194 193.772C38.281 193.632 38.682 193.724 37.982 193.526L37.527 193.399C37.433 193.354 37.302 193.028 37.284 192.99L36.798 191.943L36.554 191.301L36.554 190.536L36.554 189.844L36.554 189.079" stroke-width="0.25"/>
  <path d="M36.554 189.079C36.78 188.861 36.994 188.76 37.243 188.581C37.64 188.295 38.075 188.045 38.521 187.843C38.713 187.757 38.996 187.544 39.213 187.544C39.82 187.542 40.429 187.603 41.029 187.694C41.426 187.756 41.831 187.824 42.222 187.926L42.844 188.105L43.042 188.401L43.091 188.544L43.189 188.685L43.317 188.965L43.332 189.025L43.462 189.254L43.563 189.55L43.567 189.572C43.654 189.752 43.798 189.992 43.817 190.203L43.817 190.968L43.817 191.659L43.817 192.425" stroke-width="0.25"/>
  <path d="M43.442 192.707C43.442 193.039 43.426 193.344 43.283 193.651C43.109 194.019 42.786 194.247 42.459 194.466C41.792 194.909 40.978 195.016 40.2 195.05C39.409 195.018 38.591 194.909 37.914 194.466C37.594 194.257 37.296 194.04 37.112 193.694C36.871 193.242 36.93 192.718 36.93 192.228" stroke-width="0.25"/>
  <path d="M37.527 193.399L37.527 192.633L37.527 191.942L37.527 191.175L37.329 190.751L37.28 190.542L37.182 190.383L37.055 190.064L37.04 189.997L36.911 189.794C36.679 189.33 36.945 189.711 36.652 189.3" stroke="#808080" stroke-width="0.1"/>
  <path d="M41.158 191.736C40.262 191.508 39.359 191.307 38.435 191.224L37.527 191.175" stroke="#808080" stroke-width="0.1"/>
  <path d="M43.817 190.203L43.152 190.495C42.442 190.831 41.796 191.282 41.158 191.736" stroke="#808080" stroke-width="0.1"/>
  <path d="M43.408 193.277C43.345 193.453 43.317 193.58 43.197 193.728C42.468 194.627 41.295 194.844 40.2 194.891C39.395 194.86 38.595 194.752 37.884 194.341C37.557 194.152 37.252 193.896 37.072 193.56L36.963 193.277" stroke-width="0.13"/>
  <path d="M37.057 189.478L37.113 189.117C37.305 188.537 37.921 188.177 38.456 187.968C39.005 187.753 39.598 187.671 40.186 187.671C40.951 187.671 41.729 187.813 42.399 188.2C42.655 188.348 42.911 188.539 43.087 188.784L43.259 189.117L43.316 189.478C43.316 190.253 42.555 190.736 41.917 190.987C41.35 191.21 40.786 191.253 40.186 191.284C39.405 191.243 38.664 191.156 37.973 190.756C37.61 190.546 37.25 190.252 37.113 189.838L37.057 189.478z" stroke-width="0.13"/>
  <path d="M42.101 189.478L42.067 189.699C41.982 189.951 41.762 190.132 41.54 190.259C41.116 190.504 40.664 190.558 40.186 190.584L39.804 190.563C39.277 190.506 38.493 190.268 38.307 189.699L38.271 189.478" stroke-width="0.25"/>
  <path d="M42.101 189.478L42.067 189.258C41.914 188.799 41.35 188.556 40.921 188.454L40.569 188.393L40.186 188.372C39.707 188.397 39.256 188.451 38.832 188.697C38.609 188.824 38.39 189.004 38.307 189.258L38.271 189.478" stroke="#808080" stroke-width="0.1"/>
 </g>
 <g id="01.0001.0356_0_VITE TE M10x30 UNI 5739 8.8_MODEL_4">
  <desc>01.0001.0356_0_VITE TE M10x30 UNI 5739 8.8_MODEL</desc>
  <line stroke-width="0.25" x1="43.603" x2="43.603" y1="51.697" y2="49.929"/>
  <line stroke-width="0.25" x1="42.084" x2="42.1" y1="60.317" y2="60.54"/>
  <line stroke-width="0.25" x1="37.685" x2="37.497" y1="50.962" y2="50.554"/>
  <line stroke-width="0.25" x1="37.685" x2="38.271" y1="50.962" y2="51"/>
  <path d="M38.271 52.703L38.271 53.131L38.29 53.286C38.29 53.469 38.24 53.409 38.29 53.6C38.362 53.871 38.594 54.069 38.832 54.198C39.243 54.424 39.731 54.502 40.195 54.49C40.908 54.472 41.832 54.212 42.082 53.456C42.118 53.344 42.097 53.24 42.084 53.13" stroke-width="0.25"/>
  <path d="M41.607 52.848C42.098 52.695 42.524 52.493 42.881 52.113" stroke-width="0.25"/>
  <path d="M42.619 52.243C42.128 52.566 41.61 52.847 41.101 53.14L37.685 52.612" stroke-width="0.25"/>
  <path d="M36.768 48.871L36.768 49.639L36.768 49.872L36.768 50.639L37.091 51.334L37.362 51.917L37.685 52.612" stroke-width="0.25"/>
  <path d="M36.768 48.988C36.978 48.78 37.18 48.679 37.415 48.508C37.789 48.235 38.195 48 38.618 47.813C38.802 47.731 39.064 47.548 39.271 47.545C39.872 47.533 40.49 47.578 41.082 47.68C41.42 47.738 41.771 47.804 42.101 47.895L42.688 48.073C42.904 48.198 42.838 48.316 42.92 48.472L43.014 48.603L43.133 48.863L43.146 48.918L43.268 49.137L43.368 49.439C43.554 49.84 43.475 49.609 43.573 49.947" stroke-width="0.25"/>
  <path d="M43.603 50.046C43.39 50.182 43.231 50.228 42.994 50.307" stroke-width="0.25"/>
  <path d="M42.049 52.573C42.579 52.304 43.088 51.993 43.603 51.697" stroke-width="0.25"/>
  <path d="M42.101 52.664L42.101 52.985L42.082 53.143C41.826 53.92 40.911 54.13 40.195 54.177C39.487 54.165 38.585 54.027 38.29 53.286" stroke-width="0.25"/>
  <path d="M38.298 53.616C38.14 54.052 38.616 54.42 38.956 54.573C39.689 54.899 40.637 54.878 41.359 54.531C41.752 54.344 42.203 53.951 42.078 53.466" stroke-width="0.25"/>
  <path d="M38.298 53.924L38.27 54.073C38.277 54.52 38.716 54.801 39.088 54.939C39.837 55.216 40.786 55.176 41.487 54.779C41.779 54.612 42.067 54.338 42.1 53.982L42.082 53.773" stroke-width="0.25"/>
  <path d="M38.298 54.237C38.131 54.658 38.603 55.034 38.926 55.185C39.655 55.524 40.603 55.505 41.329 55.171C41.75 54.978 42.192 54.591 42.076 54.082" stroke-width="0.25"/>
  <path d="M38.301 54.551C38.185 55.051 38.639 55.392 39.057 55.552C39.804 55.841 40.753 55.804 41.459 55.42C41.783 55.243 42.241 54.82 42.081 54.39" stroke-width="0.25"/>
  <path d="M38.295 54.862C38.121 55.264 38.597 55.651 38.899 55.798L39.197 55.914C39.951 56.152 40.902 56.1 41.578 55.661C41.911 55.445 42.155 55.115 42.076 54.707" stroke-width="0.25"/>
  <path d="M42.079 55.017C42.159 55.256 42.039 55.527 41.887 55.707C41.442 56.231 40.697 56.332 40.055 56.36L39.691 56.335L39.344 56.268C38.863 56.148 38.137 55.786 38.301 55.176" stroke-width="0.25"/>
  <path d="M42.076 55.334L42.103 55.491C42.078 56.219 41.183 56.545 40.588 56.637L40.222 56.671L39.853 56.664L39.496 56.615C39.029 56.524 38.314 56.256 38.271 55.686L38.292 55.49" stroke-width="0.25"/>
  <path d="M42.076 55.643C42.261 56.237 41.551 56.673 41.093 56.829L40.75 56.92L40.387 56.973L40.018 56.984L39.654 56.954L39.31 56.886C38.853 56.764 38.121 56.393 38.301 55.801" stroke-width="0.25"/>
  <path d="M38.295 56.115L38.271 56.292C38.293 56.74 38.758 57.015 39.133 57.145C39.884 57.405 40.835 57.359 41.524 56.945C41.814 56.771 42.082 56.496 42.101 56.14L42.079 55.959" stroke-width="0.25"/>
  <path d="M38.299 56.426C38.146 56.872 38.615 57.237 38.968 57.393C39.703 57.715 40.651 57.691 41.371 57.341C41.764 57.151 42.207 56.755 42.076 56.27" stroke-width="0.25"/>
  <path d="M38.298 56.738L38.27 56.896C38.28 57.343 38.728 57.624 39.101 57.759C39.85 58.03 40.801 57.988 41.497 57.587C41.789 57.418 42.073 57.143 42.1 56.789L42.082 56.587" stroke-width="0.25"/>
  <path d="M38.298 57.051C38.136 57.479 38.606 57.853 38.939 58.005C39.668 58.34 40.616 58.317 41.341 57.981C41.753 57.787 42.197 57.398 42.075 56.896" stroke-width="0.25"/>
  <path d="M42.082 57.204C42.167 57.421 42.042 57.701 41.909 57.868C41.485 58.402 40.743 58.512 40.109 58.549L39.741 58.53L39.392 58.469C38.926 58.36 38.271 58.07 38.271 57.5L38.299 57.365" stroke-width="0.25"/>
  <path d="M38.295 57.676C38.125 58.085 38.6 58.469 38.911 58.618C39.634 58.963 40.584 58.945 41.31 58.619C41.746 58.424 42.183 58.042 42.076 57.521" stroke-width="0.25"/>
  <path d="M42.079 57.831C42.161 58.064 42.04 58.337 41.893 58.514C41.454 59.04 40.71 59.145 40.07 59.176L39.706 59.151L39.356 59.087C38.868 58.966 38.143 58.609 38.301 57.99" stroke-width="0.25"/>
  <path d="M38.292 58.302C38.24 58.418 38.277 58.603 38.326 58.712C38.478 59.046 38.845 59.24 39.177 59.348C39.93 59.593 40.883 59.542 41.563 59.11C41.906 58.893 42.149 58.564 42.076 58.148" stroke-width="0.25"/>
  <path d="M38.301 58.615C38.165 59.088 38.624 59.439 39.009 59.6C39.75 59.906 40.698 59.875 41.412 59.509C41.773 59.325 42.225 58.915 42.078 58.457" stroke-width="0.25"/>
  <path d="M42.079 58.773L42.101 58.945C42.075 59.542 41.423 59.872 40.921 60.006L40.567 60.079L40.2 60.112L39.831 60.103L39.475 60.051C39.008 59.957 38.307 59.686 38.271 59.115L38.293 58.929" stroke-width="0.25"/>
  <path d="M38.301 59.24C38.151 59.695 38.618 60.055 38.979 60.213C39.716 60.53 40.664 60.505 41.384 60.149C41.767 59.96 42.212 59.561 42.076 59.084" stroke-width="0.25"/>
  <path d="M38.298 59.554L38.27 59.719C38.286 60.167 38.741 60.445 39.113 60.578C39.865 60.844 40.814 60.801 41.509 60.395C41.799 60.225 42.076 59.948 42.101 59.594L42.081 59.402" stroke-width="0.25"/>
  <path d="M38.298 59.865C38.14 60.301 38.609 60.67 38.951 60.825C39.682 61.155 40.631 61.131 41.353 60.789C41.756 60.597 42.201 60.204 42.076 59.71" stroke-width="0.25"/>
  <path d="M38.298 60.179L38.27 60.323C38.274 60.77 38.712 61.054 39.082 61.192C39.743 61.438 40.527 61.423 41.185 61.173C41.585 61.021 42.055 60.715 42.1 60.241L42.084 60.02" stroke-width="0.25"/>
  <path d="M41.481 61.335C41.771 61.137 42.142 60.859 42.094 60.457" stroke-width="0.25"/>
  <path d="M41.473 61.338C41.075 61.57 40.651 61.651 40.194 61.67C39.723 61.651 39.298 61.569 38.887 61.332" stroke-width="0.25"/>
  <path d="M39.115 61.439C38.768 61.27 38.421 61.073 38.371 60.656" stroke-width="0.25"/>
  <path d="M36.768 48.988L36.859 49.191L37.009 49.402" stroke-width="0.25"/>
  <path d="M37.429 52.064C37.289 51.859 37.17 51.692 37.14 51.441" stroke-width="0.25"/>
  <path d="M38.378 52.719C39.023 53.036 39.804 53.079 40.508 53.048" stroke-width="0.25"/>
  <path d="M42.101 53.283C41.993 54.174 40.939 54.426 40.195 54.475L39.915 54.47C39.27 54.43 38.365 54.182 38.271 53.429" stroke="#808080" stroke-width="0.1"/>
  <path d="M38.271 53.445L38.293 53.293" stroke="#808080" stroke-width="0.1"/>
  <path d="M42.082 53.137L42.101 53.298" stroke="#808080" stroke-width="0.1"/>
  <path d="M36.768 48.871L37.091 49.567L37.362 50.151L37.685 50.845L37.685 51.612L37.685 51.845L37.685 52.612" stroke="#808080" stroke-width="0.1"/>
  <path d="M37.685 50.845L38.442 50.963L40.344 51.256L41.101 51.374L41.765 50.99L42.941 50.313L43.603 49.929" stroke="#808080" stroke-width="0.1"/>
  <path d="M41.101 53.14C41.101 52.551 41.103 51.963 41.101 51.374" stroke="#808080" stroke-width="0.1"/>
  <path d="M41.726 51.039C41.509 51.226 41.362 51.351 41.101 51.49L40.661 51.386L40.231 51.25L40.2 51.246" stroke-width="0.25"/>
  <path d="M37.198 49.353L37.253 49.009C37.436 48.456 38.026 48.112 38.533 47.914C39.058 47.707 39.625 47.63 40.186 47.63C40.917 47.63 41.659 47.765 42.298 48.134C42.543 48.276 42.786 48.459 42.954 48.692L43.118 49.009L43.173 49.353C43.173 50.094 42.448 50.555 41.838 50.795C41.298 51.006 40.759 51.048 40.186 51.079C39.441 51.039 38.734 50.954 38.073 50.573C37.728 50.374 37.384 50.093 37.253 49.698L37.198 49.353z" stroke-width="0.13"/>
  <path d="M41.481 61.335C41.029 61.527 40.616 61.609 40.125 61.631C39.765 61.604 39.457 61.551 39.115 61.439" stroke="#808080" stroke-width="0.1"/>
 </g>
 <g id="01.0023.0107_0_DADO AUTOBLOCCANTE M14x1.5 UNI 7473_MODEL">
  <desc>01.0023.0107_0_DADO AUTOBLOCCANTE M14x1.5 UNI 7473_MODEL</desc>
  <line stroke="#808080" stroke-width="0.1" x1="86.302" x2="86.302" y1="154.82" y2="151.318"/>
  <path d="M89.257 153.115C89.257 153.522 89.239 153.895 89.063 154.27C88.835 154.752 88.423 155.04 87.993 155.329C87.14 155.901 86.058 156.032 85.061 156.074C84.046 156.032 82.966 155.903 82.093 155.329C81.679 155.054 81.293 154.777 81.052 154.326C80.742 153.745 80.831 153.058 80.831 152.427" stroke-width="0.25"/>
  <path d="M81.603 154.093L81.281 153.399L80.667 152.074L80.344 151.381L80.344 150.615L80.344 148.644L80.344 147.877" stroke-width="0.25"/>
  <path d="M88.483 146.618C86.918 146.377 85.35 146.133 83.784 145.891L80.344 147.877" stroke-width="0.25"/>
  <path d="M89.742 152.834L89.742 152.068L89.742 150.098L89.742 149.331L89.421 148.637L88.805 147.313L88.483 146.618" stroke-width="0.25"/>
  <path d="M81.603 154.093L82.361 154.211L85.546 154.703L86.302 154.82L86.966 154.437L89.079 153.217L89.742 152.834" stroke-width="0.25"/>
  <path d="M89.215 153.826C89.111 154.114 89.117 154.158 88.939 154.409C88.706 154.741 88.37 155.002 88.022 155.203C87.114 155.728 86.091 155.872 85.061 155.915C84.019 155.873 82.984 155.735 82.064 155.203C81.641 154.959 81.245 154.628 81.013 154.192L80.873 153.826" stroke-width="0.13"/>
  <path d="M81.603 154.093L81.603 153.328L81.603 151.356L81.603 150.591L81.281 149.895L80.667 148.573L80.344 147.877" stroke="#808080" stroke-width="0.1"/>
  <path d="M89.742 149.331C88.596 149.993 87.45 150.656 86.302 151.318L81.603 150.591" stroke="#808080" stroke-width="0.1"/>
  <path d="M87.724 148.604L87.676 148.295C87.558 147.942 87.251 147.689 86.939 147.509C86.346 147.168 85.712 147.092 85.043 147.056C84.375 147.092 83.74 147.168 83.147 147.509C82.837 147.689 82.528 147.942 82.412 148.295L82.362 148.604" stroke="#808080" stroke-width="0.1"/>
  <path d="M87.724 148.604L87.676 148.913C87.558 149.268 87.251 149.52 86.939 149.699C86.346 150.042 85.712 150.116 85.043 150.152L84.509 150.125L84.015 150.039C83.334 149.877 82.359 149.431 82.362 148.598" stroke-width="0.25"/>
 </g>
 <g id="01.0031.0056_0_RONDELLA BISELLATA D10x2 UNI 6592 A_MODEL_14">
  <desc>01.0031.0056_0_RONDELLA BISELLATA D10x2 UNI 6592 A_MODEL</desc>
  <path d="M36.356 159.088C36.356 159.507 36.317 159.908 36.521 160.289C36.909 161.018 37.746 161.417 38.503 161.632C40.076 162.079 42.011 161.924 43.338 160.901C43.634 160.674 43.89 160.324 43.978 159.959C44.034 159.723 44.026 159.312 44.017 159.108C44.006 158.858 43.972 158.681 43.85 158.455C43.529 157.852 42.868 157.461 42.252 157.219C41.576 156.955 40.902 156.902 40.186 156.865L39.441 156.903L38.753 157.022L38.121 157.219C37.493 157.466 36.795 157.872 36.496 158.507C36.375 158.762 36.392 158.812 36.356 159.088z" stroke-width="0.25"/>
  <path d="M44.017 159.108C43.981 159.385 43.996 159.436 43.877 159.691C43.677 160.112 43.289 160.433 42.895 160.663C42.067 161.139 41.14 161.27 40.203 161.31C39.255 161.271 38.314 161.145 37.478 160.663C37.094 160.441 36.734 160.139 36.521 159.742C36.375 159.467 36.392 159.384 36.356 159.088" stroke-width="0.13"/>
  <path d="M42.826 157.496C43.183 157.743 43.393 157.84 43.646 158.193L43.853 158.591C44.057 159.209 43.779 159.811 43.305 160.212C42.649 160.77 41.773 161.044 40.932 161.137L40.186 161.176L39.441 161.137C38.6 161.044 37.722 160.77 37.067 160.212C36.594 159.811 36.316 159.209 36.521 158.591L36.725 158.193C36.978 157.84 37.189 157.743 37.545 157.496" stroke="#808080" stroke-width="0.1"/>
  <path d="M38.697 159.881C38.494 159.741 38.377 159.687 38.234 159.487L38.118 159.263C37.959 158.78 38.307 158.388 38.697 158.161C39.465 157.712 40.534 157.683 41.351 158.004C41.851 158.2 42.46 158.641 42.255 159.263L42.139 159.487C42 159.68 41.868 159.747 41.676 159.881" stroke="#808080" stroke-width="0.1"/>
  <path d="M41.676 159.881C41.399 160.013 41.304 160.074 40.994 160.147C40.658 160.228 40.534 160.217 40.186 160.236C39.838 160.217 39.715 160.228 39.378 160.147C39.049 160.068 38.996 160.024 38.697 159.881" stroke-width="0.25"/>
  <path d="M38.176 159.093L38.195 159.263C38.27 159.556 38.494 159.735 38.731 159.897" stroke-width="0.25"/>
  <path d="M42.131 159.36C42.04 159.126 41.82 158.948 41.607 158.824C41.168 158.572 40.674 158.504 40.177 158.485C39.531 158.513 38.74 158.638 38.326 159.204L38.241 159.383" stroke-width="0.25"/>
  <path d="M42.197 159.104C42.149 159.48 41.939 159.689 41.639 159.897" stroke-width="0.25"/>
  <path d="M42.197 159.104C42.179 158.949 42.188 158.905 42.11 158.76C41.756 158.098 40.845 157.965 40.177 157.937L39.902 157.949C39.213 158.028 38.279 158.278 38.176 159.093" stroke-width="0.13"/>
 </g>
 <g id="01.0031.0056_0_RONDELLA BISELLATA D10x2 UNI 6592 A_MODEL_2">
  <desc>01.0031.0056_0_RONDELLA BISELLATA D10x2 UNI 6592 A_MODEL</desc>
  <path d="M36.356 94.37C36.356 94.789 36.317 95.189 36.521 95.572C36.909 96.299 37.746 96.698 38.503 96.914C40.076 97.361 42.011 97.206 43.338 96.183C43.634 95.956 43.89 95.606 43.978 95.239C44.034 95.004 44.026 94.593 44.017 94.39C44.006 94.14 43.97 93.962 43.85 93.736C43.529 93.134 42.868 92.743 42.252 92.501C41.576 92.236 40.902 92.183 40.186 92.146L39.441 92.186L38.753 92.304L38.121 92.501C37.493 92.748 36.795 93.153 36.496 93.789C36.375 94.043 36.392 94.093 36.356 94.37z" stroke-width="0.25"/>
  <path d="M44.017 94.39C43.981 94.668 43.997 94.716 43.877 94.971C43.677 95.394 43.289 95.715 42.895 95.944C42.067 96.421 41.14 96.552 40.203 96.591C39.255 96.554 38.314 96.427 37.478 95.944C37.094 95.721 36.734 95.421 36.521 95.024C36.375 94.748 36.392 94.667 36.356 94.37" stroke-width="0.13"/>
  <path d="M37.545 92.778C37.189 93.025 36.978 93.121 36.725 93.474L36.521 93.871L36.451 94.302C36.451 95.001 36.982 95.501 37.545 95.826C38.344 96.287 39.273 96.459 40.186 96.459C40.887 96.459 41.595 96.361 42.252 96.102C43.012 95.804 43.92 95.227 43.92 94.302L43.853 93.871L43.646 93.474C43.393 93.121 43.185 93.025 42.826 92.778" stroke="#808080" stroke-width="0.1"/>
  <path d="M41.676 95.162C41.195 95.394 40.729 95.495 40.195 95.519C39.654 95.496 39.185 95.4 38.697 95.162" stroke-width="0.25"/>
  <path d="M38.176 94.376L38.195 94.545C38.27 94.837 38.496 95.019 38.734 95.18" stroke-width="0.25"/>
  <path d="M42.131 94.643C42.04 94.406 41.82 94.228 41.607 94.106C41.168 93.852 40.674 93.787 40.177 93.766C39.531 93.793 38.738 93.92 38.326 94.486L38.241 94.665" stroke-width="0.25"/>
  <path d="M41.639 95.18C41.939 94.971 42.149 94.763 42.197 94.385" stroke-width="0.25"/>
  <path d="M38.697 95.162C38.487 95.019 38.293 94.885 38.17 94.656C37.843 94.043 38.465 93.504 38.99 93.301C39.744 93.01 40.656 93.001 41.408 93.311L41.676 93.441C42.006 93.632 42.42 94.043 42.271 94.474L42.134 94.766C42 94.962 41.865 95.031 41.676 95.162" stroke="#808080" stroke-width="0.1"/>
  <path d="M42.197 94.385C42.179 94.23 42.188 94.186 42.11 94.043C41.756 93.379 40.845 93.245 40.177 93.219L39.902 93.23C39.213 93.311 38.279 93.561 38.176 94.376" stroke-width="0.13"/>
 </g>
 <g id="01.0038.0196_0_CONICAL SPRING WASHER_ DIN 6796_ M14_MODEL">
  <desc>01.0038.0196_0_CONICAL SPRING WASHER_ DIN 6796_ M14_MODEL</desc>
  <path d="M78.34 66.052L78.487 67.153L78.566 67.691C78.628 67.992 78.783 68.287 78.954 68.539C79.593 69.468 80.655 70.045 81.698 70.403C82.637 70.724 83.608 70.876 84.594 70.915C85.808 70.962 87.028 70.832 88.189 70.468C88.989 70.218 89.784 69.846 90.429 69.302C90.801 68.987 91.138 68.611 91.349 68.167C91.549 67.739 91.531 67.623 91.599 67.153C91.614 67.061 91.746 66.183 91.746 66.085L91.679 65.522C91.602 65.099 91.337 64.691 91.063 64.368C90.394 63.579 89.436 63.075 88.471 62.743C87.674 62.47 86.831 62.298 85.992 62.238L85.015 62.2L84.096 62.238C82.787 62.344 81.447 62.673 80.304 63.332C79.608 63.734 78.936 64.293 78.585 65.034C78.375 65.48 78.403 65.566 78.34 66.052z" stroke-width="0.25"/>
  <path d="M91.679 66.617C91.513 67.073 91.522 67.144 91.242 67.543C90.775 68.203 90.073 68.686 89.353 69.033C88.308 69.536 87.144 69.808 85.99 69.9L85.072 69.939C84.578 69.92 84.087 69.912 83.596 69.849C83.26 69.805 82.92 69.745 82.59 69.671C81.102 69.331 79.388 68.62 78.631 67.195C78.495 66.942 78.492 66.885 78.409 66.617" stroke="#808080" stroke-width="0.1"/>
  <path d="M87.996 65.709C87.968 65.924 87.981 65.962 87.888 66.158C87.54 66.897 86.578 67.227 85.834 67.344L85.46 67.39L85.057 67.406C84.325 67.378 83.6 67.28 82.956 66.908C82.623 66.715 82.302 66.438 82.159 66.07C82.102 65.921 82.112 65.878 82.09 65.694" stroke-width="0.25"/>
  <path d="M82.293 66.322C82.549 65.894 82.95 65.609 83.412 65.432C84.322 65.081 85.368 65.04 86.307 65.307C86.691 65.417 87.069 65.581 87.384 65.834C87.506 65.933 87.733 66.161 87.793 66.317" stroke-width="0.25"/>
  <path d="M87.996 65.709C87.974 65.525 87.984 65.483 87.927 65.334C87.786 64.965 87.465 64.688 87.132 64.496C86.486 64.125 85.762 64.027 85.031 63.997L84.626 64.015L84.254 64.06C83.51 64.177 82.548 64.507 82.198 65.245C82.105 65.442 82.118 65.48 82.09 65.694" stroke="#808080" stroke-width="0.1"/>
 </g>
 <g>
  <line stroke="#FFFFFF" stroke-width="1" x1="85.055" x2="85.055" y1="38.039" y2="65.733"/>
  <line stroke-dasharray="5 1 1 1" stroke-width="0.13" x1="85.055" x2="85.055" y1="37.473" y2="65.298"/>
  <line stroke-width="0.13" x1="85.055" x2="85.055" y1="65.298" y2="66.298"/>
 </g>
 <g>
  <line stroke="#FFFFFF" stroke-width="1" x1="85.055" x2="85.055" y1="72.111" y2="100.832"/>
  <line stroke-dasharray="5 1 1 1" stroke-width="0.13" x1="85.055" x2="85.055" y1="71.546" y2="100.397"/>
  <line stroke-width="0.13" x1="85.055" x2="85.055" y1="100.397" y2="101.397"/>
 </g>
 <g>
  <line stroke="#FFFFFF" stroke-width="1" x1="85.055" x2="85.055" y1="122.055" y2="147.711"/>
  <line stroke-dasharray="5 1 1 1" stroke-width="0.13" x1="85.055" x2="85.055" y1="121.489" y2="147.276"/>
  <line stroke-width="0.13" x1="85.055" x2="85.055" y1="147.276" y2="148.276"/>
 </g>
 <g>
  <line stroke="#FFFFFF" stroke-width="1" x1="40.249" x2="40.249" y1="62.945" y2="94.034"/>
  <line stroke-dasharray="5 1 1 1" stroke-width="0.13" x1="40.249" x2="40.249" y1="62.38" y2="93.599"/>
  <line stroke-width="0.13" x1="40.249" x2="40.249" y1="93.599" y2="94.599"/>
 </g>
 <g>
  <line stroke="#FFFFFF" stroke-width="1" x1="40.249" x2="40.249" y1="98.319" y2="123.305"/>
  <line stroke-dasharray="5 1 1 1" stroke-width="0.13" x1="40.249" x2="40.249" y1="97.754" y2="122.87"/>
  <line stroke-width="0.13" x1="40.249" x2="40.249" y1="122.87" y2="123.87"/>
 </g>
 <g>
  <line stroke="#FFFFFF" stroke-width="1" x1="40.249" x2="40.249" y1="153.033" y2="158.592"/>
  <line stroke-dasharray="5 1 1 1" stroke-width="0.13" x1="40.249" x2="40.249" y1="152.468" y2="158.157"/>
  <line stroke-width="0.13" x1="40.249" x2="40.249" y1="158.157" y2="159.157"/>
 </g>
 <g>
  <line stroke="#FFFFFF" stroke-width="1" x1="40.249" x2="40.249" y1="162.868" y2="189.012"/>
  <line stroke-dasharray="5 1 1 1" stroke-width="0.13" x1="40.249" x2="40.249" y1="162.304" y2="188.576"/>
  <line stroke-width="0.13" x1="40.249" x2="40.249" y1="188.576" y2="189.576"/>
 </g>
 <g>
  <line stroke="#FFFFFF" stroke-width="1" x1="70.009" x2="70.009" y1="134.722" y2="126.989"/>
  <line stroke-dasharray="5 1 1 1" stroke-width="0.13" x1="70.009" x2="70.009" y1="135.287" y2="127.424"/>
  <line stroke-width="0.13" x1="70.009" x2="70.009" y1="127.424" y2="126.424"/>
 </g>
 <g>
  <line stroke="#FFFFFF" stroke-width="1" x1="70.009" x2="70.009" y1="120.849" y2="107.253"/>
  <line stroke-dasharray="5 1 1 1" stroke-width="0.13" x1="70.009" x2="70.009" y1="121.414" y2="107.688"/>
  <line stroke-width="0.13" x1="70.009" x2="70.009" y1="107.688" y2="106.688"/>
 </g>
 <g>
  <line stroke="#FFFFFF" stroke-width="1" x1="69.519" x2="40.738" y1="106.969" y2="123.587"/>
  <line stroke-dasharray="5 1 1 1" stroke-width="0.13" x1="70.009" x2="41.115" y1="106.688" y2="123.37"/>
  <line stroke-width="0.13" x1="41.115" x2="40.249" y1="123.37" y2="123.87"/>
 </g>
 <g>
  <line stroke="#FFFFFF" stroke-width="1" x1="69.519" x2="40.737" y1="135.569" y2="152.187"/>
  <line stroke-dasharray="5 1 1 1" stroke-width="0.13" x1="70.009" x2="41.115" y1="135.287" y2="151.968"/>
  <line stroke-width="0.13" x1="41.115" x2="40.249" y1="151.968" y2="152.468"/>
 </g>
 <g class="callout callout_1">
  <g>
   <line stroke="#FFFFFF" stroke-width="1" x1="104.412" x2="128.08" y1="103.358" y2="89.692"/>
   <line stroke="#808080" stroke-width="0.1" x1="104.412" x2="128.08" y1="103.358" y2="89.692"/>
  </g>
  <path d="M125.522 93.213L130.639 93.213 130.639 86.171 125.522 86.171 125.522 93.213z" fill="#FFFFFF" stroke="none"/>
  <text fill="#000000" font-family="'Arial'" font-size="4.232" stroke="none" x="126.903" y="91.213"><desc>1</desc>1</text>
 </g>
 <g class="callout callout_2">
  <g>
   <line stroke="#FFFFFF" stroke-width="1" x1="89.742" x2="128.038" y1="152.068" y2="174.179"/>
   <line stroke="#808080" stroke-width="0.1" x1="89.742" x2="128.038" y1="152.068" y2="174.179"/>
  </g>
  <path d="M125.036 177.699L131.043 177.699 131.043 170.657 125.036 170.657 125.036 177.699z" fill="#FFFFFF" stroke="none"/>
  <text fill="#000000" font-family="'Arial'" font-size="4.232" stroke="none" x="126.861" y="175.699"><desc>2</desc>2</text>
 </g>
 <g class="callout callout_3">
  <g>
   <line stroke="#FFFFFF" stroke-width="1" x1="37.057" x2="3.063" y1="189.478" y2="169.852"/>
   <line stroke="#808080" stroke-width="0.1" x1="37.057" x2="3.063" y1="189.478" y2="169.852"/>
  </g>
  <path d="M0.07 173.4L6.054 173.4 6.054 166.304 0.07 166.304 0.07 173.4z" fill="#FFFFFF" stroke="none"/>
  <text fill="#000000" font-family="'Arial'" font-size="4.232" stroke="none" x="1.885" y="171.4"><desc>3</desc>3</text>
 </g>
 <g class="callout callout_4">
  <g>
   <line stroke="#FFFFFF" stroke-width="1" x1="36.521" x2="3.048" y1="158.591" y2="139.264"/>
   <line stroke="#808080" stroke-width="0.1" x1="36.521" x2="3.048" y1="158.591" y2="139.264"/>
  </g>
  <path d="M0 142.78L6.096 142.78 6.096 135.75 0 135.75 0 142.78z" fill="#FFFFFF" stroke="none"/>
  <text fill="#000000" font-family="'Arial'" font-size="4.232" stroke="none" x="1.871" y="140.78"><desc>4</desc>4</text>
 </g>
 <g class="callout callout_4">
  <g>
   <line stroke="#FFFFFF" stroke-width="1" x1="36.725" x2="3.115" y1="93.474" y2="74.069"/>
   <line stroke="#808080" stroke-width="0.1" x1="36.725" x2="3.115" y1="93.474" y2="74.069"/>
  </g>
  <path d="M0.067 77.584L6.163 77.584 6.163 70.555 0.067 70.555 0.067 77.584z" fill="#FFFFFF" stroke="none"/>
  <text fill="#000000" font-family="'Arial'" font-size="4.232" stroke="none" x="1.938" y="75.584"><desc>4</desc>4</text>
 </g>
 <g class="callout callout_5">
  <g>
   <line stroke="#FFFFFF" stroke-width="1" x1="36.768" x2="3.1" y1="48.871" y2="29.434"/>
   <line stroke="#808080" stroke-width="0.1" x1="36.768" x2="3.1" y1="48.871" y2="29.434"/>
  </g>
  <path d="M0.096 32.954L6.105 32.954 6.105 25.914 0.096 25.914 0.096 32.954z" fill="#FFFFFF" stroke="none"/>
  <text fill="#000000" font-family="'Arial'" font-size="4.232" stroke="none" x="1.923" y="30.954"><desc>5</desc>5</text>
 </g>
 <g class="callout callout_6">
  <g>
   <line stroke="#FFFFFF" stroke-width="1" x1="87.674" x2="127.908" y1="26.775" y2="3.547"/>
   <line stroke="#808080" stroke-width="0.1" x1="87.674" x2="127.908" y1="26.775" y2="3.547"/>
  </g>
  <path d="M124.908 7.094L130.907 7.094 130.907 0 124.908 0 124.908 7.094z" fill="#FFFFFF" stroke="none"/>
  <text fill="#000000" font-family="'Arial'" font-size="4.232" stroke="none" x="126.73" y="5.094"><desc>6</desc>6</text>
 </g>
 <g class="callout callout_7">
  <g>
   <line stroke="#FFFFFF" stroke-width="1" x1="91.063" x2="127.763" y1="64.368" y2="43.179"/>
   <line stroke="#808080" stroke-width="0.1" x1="91.063" x2="127.763" y1="64.368" y2="43.179"/>
  </g>
  <path d="M124.781 46.676L130.742 46.676 130.742 39.685 124.781 39.685 124.781 46.676z" fill="#FFFFFF" stroke="none"/>
  <text fill="#000000" font-family="'Arial'" font-size="4.232" stroke="none" x="126.584" y="44.676"><desc>7</desc>7</text>
 </g>
 <path class="hotspot hotspot_6" d="M124.908 7.094L 130.907 7.094L 130.907 0L 124.908 0L 124.908 7.094z" fill="black" id="AUTOID_120522" stroke="black" visibility="hidden"/>
 <path class="hotspot hotspot_1" d="M125.522 93.213L 130.639 93.213L 130.639 86.171L 125.522 86.171L 125.522 93.213z" fill="black" id="AUTOID_120523" stroke="black" visibility="hidden"/>
 <path class="hotspot hotspot_7" d="M124.781 46.676L 130.742 46.676L 130.742 39.685L 124.781 39.685L 124.781 46.676z" fill="black" id="AUTOID_120524" stroke="black" visibility="hidden"/>
 <path class="hotspot hotspot_2" d="M125.036 177.699L 131.043 177.699L 131.043 170.657L 125.036 170.657L 125.036 177.699z" fill="black" id="AUTOID_120525" stroke="black" visibility="hidden"/>
 <path class="hotspot hotspot_5" d="M0.096 32.954L 6.105 32.954L 6.105 25.914L 0.096 25.914L 0.096 32.954z" fill="black" id="AUTOID_120526" stroke="black" visibility="hidden"/>
 <path class="hotspot hotspot_4" d="M0 142.78L 6.096 142.78L 6.096 135.75L 0 135.75L 0 142.78zM0.067 77.584L 6.163 77.584L 6.163 70.555L 0.067 70.555L 0.067 77.584z" fill="black" id="AUTOID_120527" stroke="black" visibility="hidden"/>
 <path class="hotspot hotspot_3" d="M0.07 173.4L 6.054 173.4L 6.054 166.304L 0.07 166.304L 0.07 173.4z" fill="black" id="AUTOID_120528" stroke="black" visibility="hidden"/>
</svg>