<?xml version="1.0" encoding="UTF-8" standalone="no"?><!-- Generator: PTC Arbortext IsoDraw 7.3 M090 --><svg xmlns="http://www.w3.org/2000/svg" xmlns:xlink="http://www.w3.org/1999/xlink" clip-rule="evenodd" fill="none" fill-rule="evenodd" font-family="sans-serif" font-size="10" font-stretch="normal" font-style="normal" font-variant="normal" font-weight="normal" height="200.248" id="Standard_x0020_layer" onabort="parent.dwImageSVGOnAbort('TKQ126120119');" onerror="parent.dwImageSVGOnError('TKQ126120119');" onload="parent.dwImageSVGOnLoad('TKQ126120119');" stroke="#000000" stroke-linecap="round" viewBox="0.0 0.0 237.919 200.248" width="237.919" x="0" xml:space="preserve" y="0">
 <g id="60539_0_MODEL_1">
  <g id="60536_0_230">
   <g id="MANIFOLD_SOLID_BREP_22811_1">
    <line stroke="#808080" stroke-width="0.292" x1="15.602" x2="13.971" y1="129.917" y2="130.062"/>
    <line stroke="#808080" stroke-width="0.292" x1="16.12" x2="15.602" y1="130.56" y2="129.917"/>
    <line stroke-width="0.731" x1="51.942" x2="51.424" y1="155.807" y2="155.853"/>
    <line stroke-width="0.731" x1="49.792" x2="51.424" y1="153.823" y2="155.853"/>
    <line stroke="#808080" stroke-width="0.292" x1="51.424" x2="49.792" y1="150.598" y2="150.745"/>
    <line stroke="#808080" stroke-width="0.292" x1="51.942" x2="51.424" y1="151.241" y2="150.598"/>
    <line stroke="#808080" stroke-width="0.292" x1="113.18" x2="113.18" y1="101.439" y2="102.266"/>
    <line stroke="#808080" stroke-width="0.292" x1="194.709" x2="62.886" y1="71.739" y2="147.848"/>
    <line stroke="#808080" stroke-width="0.292" x1="59.304" x2="58.588" y1="199.139" y2="199.551"/>
    <line stroke="#808080" stroke-width="0.292" x1="2.706" x2="2.706" y1="166.462" y2="166.739"/>
    <line stroke="#808080" stroke-width="0.292" x1="2.722" x2="2.706" y1="166.471" y2="166.739"/>
    <line stroke="#808080" stroke-width="0.292" x1="2.702" x2="2.706" y1="166.554" y2="166.51"/>
    <line stroke="#808080" stroke-width="0.292" x1="2.702" x2="2.706" y1="166.554" y2="166.516"/>
    <line stroke="#808080" stroke-width="0.292" x1="2.702" x2="2.706" y1="113.606" y2="113.93"/>
    <line stroke="#808080" stroke-width="0.292" x1="2.706" x2="2.665" y1="113.656" y2="113.204"/>
    <line stroke="#808080" stroke-width="0.292" x1="8.776" x2="2.406" y1="108.921" y2="112.599"/>
    <line stroke="#808080" stroke-width="0.292" x1="2.706" x2="2.706" y1="163.98" y2="113.102"/>
    <line stroke="#808080" stroke-width="0.292" x1="8.776" x2="2.706" y1="109.597" y2="113.102"/>
    <line stroke="#808080" stroke-width="0.292" x1="8.776" x2="2.706" y1="117.435" y2="113.93"/>
    <line stroke="#808080" stroke-width="0.292" x1="2.706" x2="2.706" y1="166.462" y2="113.93"/>
    <line stroke="#808080" stroke-width="0.292" x1="2.706" x2="2.706" y1="166.739" y2="167.288"/>
    <line stroke="#808080" stroke-width="0.292" x1="135.246" x2="23.588" y1="36.582" y2="101.046"/>
    <line stroke-width="0.731" x1="194.707" x2="62.17" y1="70.912" y2="147.433"/>
    <line stroke-width="0.731" x1="56.417" x2="62.17" y1="144.115" y2="147.433"/>
    <line stroke-width="0.731" x1="62.886" x2="62.17" y1="147.848" y2="148.263"/>
    <line stroke="#808080" stroke-width="0.292" x1="116.582" x2="116.582" y1="99.474" y2="100.301"/>
    <line stroke-width="0.731" x1="58.588" x2="58.588" y1="199.551" y2="198.724"/>
    <line stroke="#808080" stroke-width="0.292" x1="75.87" x2="62.886" y1="189.574" y2="197.07"/>
    <line stroke="#808080" stroke-width="0.292" x1="75.87" x2="75.87" y1="188.746" y2="189.574"/>
    <line stroke="#808080" stroke-width="0.292" x1="75.637" x2="75.87" y1="188.611" y2="188.746"/>
    <line stroke-width="0.731" x1="75.87" x2="62.886" y1="188.746" y2="196.243"/>
    <line stroke-width="0.731" x1="190.412" x2="173.843" y1="122.617" y2="132.181"/>
    <line stroke-width="0.731" x1="173.843" x2="173.843" y1="133.01" y2="132.181"/>
    <line stroke-width="0.731" x1="173.61" x2="173.843" y1="132.048" y2="132.181"/>
    <line stroke="#808080" stroke-width="0.292" x1="191.127" x2="173.843" y1="123.03" y2="133.01"/>
    <line stroke="#808080" stroke-width="0.292" x1="172.891" x2="173.843" y1="132.461" y2="133.01"/>
    <line stroke="#808080" stroke-width="0.292" x1="194.709" x2="193.992" y1="122.203" y2="122.617"/>
    <line stroke="#808080" stroke-width="0.292" x1="62.886" x2="62.17" y1="198.312" y2="198.724"/>
    <line stroke-width="0.731" x1="15.602" x2="13.971" y1="135.171" y2="133.14"/>
    <line stroke-width="0.731" x1="16.12" x2="15.602" y1="135.126" y2="135.171"/>
    <line stroke="#808080" stroke-width="0.292" x1="62.17" x2="56.417" y1="148.263" y2="144.942"/>
    <path d="M113.498 101.885C113.414 102.384 112.843 102.486 112.417 102.513C111.986 102.489 111.408 102.391 111.32 101.885" stroke="#808080" stroke-width="0.292"/>
    <path d="M111.596 102.298C112.025 101.996 112.796 101.992 113.222 102.298" stroke="#808080" stroke-width="0.292"/>
    <path d="M113.498 101.885C113.412 101.378 112.834 101.278 112.403 101.256C111.975 101.281 111.406 101.384 111.32 101.885" stroke-width="0.731"/>
    <path d="M2.634 113.123C2.507 113.159 2.459 113.165 2.335 113.234C1.899 113.477 2.112 114.168 2.112 114.531L2.112 164.209L2.112 165.221L2.139 165.485C2.201 165.819 2.416 166.264 2.706 166.462L3.583 166.967L59.503 199.252C60.012 199.548 60.756 200.15 61.432 199.971L61.645 199.883L62.36 199.471C63.064 199.038 62.886 197.957 62.886 197.299L62.886 148.861L62.886 147.848" stroke="#808080" stroke-width="0.292"/>
    <path d="M194.707 70.912L194.707 71.927L194.709 121.191C194.709 121.849 194.885 122.93 194.186 123.361L193.467 123.777C193.27 123.882 193.239 123.867 193.018 123.894C192.36 123.831 191.896 123.477 191.325 123.146L190.973 122.942L190.096 122.435" stroke="#808080" stroke-width="0.292"/>
    <path d="M23.004 100.709L23.882 100.2L132.812 37.311C133.502 36.914 134.034 36.555 134.84 36.555L135.246 36.582L136.122 37.09L193.831 70.406L194.707 70.912" stroke="#808080" stroke-width="0.292"/>
    <path d="M2.439 166.155C2.477 166.45 2.531 166.742 2.618 167.032L2.706 167.288L3.583 167.796L57.71 199.044L58.588 199.551" stroke="#808080" stroke-width="0.292"/>
    <path d="M2.406 112.599C2.439 112.725 2.508 112.837 2.584 112.939" stroke="#808080" stroke-width="0.292"/>
    <path d="M2.467 112.635L2.593 112.968L2.634 113.12" stroke="#808080" stroke-width="0.292"/>
    <path d="M61.645 199.883C61.814 199.753 61.859 199.742 61.975 199.551C62.28 199.034 62.17 198.248 62.17 197.711L62.17 148.449L62.17 147.433" stroke-width="0.731"/>
    <path d="M116.903 99.92C116.813 99.415 116.236 99.313 115.805 99.29C115.376 99.316 114.808 99.418 114.722 99.92" stroke-width="0.731"/>
    <path d="M116.903 99.92C116.816 100.418 116.248 100.521 115.819 100.549C115.388 100.525 114.811 100.426 114.722 99.92" stroke="#808080" stroke-width="0.292"/>
    <path d="M116.626 100.332C116.391 100.162 116.094 100.134 115.811 100.117C115.53 100.134 115.239 100.165 114.998 100.332" stroke="#808080" stroke-width="0.292"/>
    <path d="M193.992 72.153L193.992 73.167L193.992 121.605C193.992 122.141 194.104 122.927 193.796 123.444C193.681 123.635 193.639 123.646 193.467 123.777" stroke-width="0.731"/>
    <path d="M8.776 116.608L7.899 116.1L3.583 113.611L2.706 113.102L2.617 112.893C2.565 112.781 2.508 112.676 2.423 112.591" stroke-width="0.731"/>
    <path d="M2.112 113.516C2.182 113.796 2.459 113.862 2.706 113.93" stroke-width="0.731"/>
   </g>
   <g id="MANIFOLD_SOLID_BREP_22804_1">
    <line stroke="#808080" stroke-width="0.292" x1="49.792" x2="48.716" y1="138.219" y2="138.842"/>
    <line stroke="#808080" stroke-width="0.292" x1="49.792" x2="48.716" y1="128.707" y2="129.329"/>
    <line stroke="#808080" stroke-width="0.292" x1="49.792" x2="48.716" y1="154.766" y2="155.385"/>
    <line stroke="#808080" stroke-width="0.292" x1="49.792" x2="48.716" y1="145.252" y2="145.872"/>
    <line stroke="#808080" stroke-width="0.292" x1="13.971" x2="12.897" y1="117.537" y2="118.159"/>
    <line stroke="#808080" stroke-width="0.292" x1="13.971" x2="12.897" y1="108.025" y2="108.646"/>
    <line stroke="#808080" stroke-width="0.292" x1="13.971" x2="12.897" y1="134.085" y2="134.704"/>
    <line stroke="#808080" stroke-width="0.292" x1="13.971" x2="12.897" y1="124.569" y2="125.189"/>
    <line stroke="#808080" stroke-width="0.292" x1="41.911" x2="41.911" y1="117.951" y2="119.194"/>
    <line stroke="#808080" stroke-width="0.292" x1="8.776" x2="8.776" y1="98.096" y2="99.959"/>
    <line stroke="#808080" stroke-width="0.292" x1="6.089" x2="6.089" y1="98.512" y2="97.272"/>
    <line stroke="#808080" stroke-width="0.292" x1="55.345" x2="53.552" y1="121.984" y2="120.95"/>
    <line stroke="#808080" stroke-width="0.292" x1="43.524" x2="43.524" y1="124.26" y2="123.019"/>
    <line stroke="#808080" stroke-width="0.292" x1="47.823" x2="47.823" y1="124.26" y2="123.019"/>
    <line stroke="#808080" stroke-width="0.292" x1="1.254" x2="1.254" y1="99.855" y2="98.615"/>
    <line stroke="#808080" stroke-width="0.292" x1="53.552" x2="6.985" y1="119.71" y2="92.825"/>
    <line stroke="#808080" stroke-width="0.292" x1="56.417" x2="55.345" y1="161.073" y2="161.694"/>
    <path d="M51.503 141.724C51.332 141.811 51.209 141.841 51.021 141.85C49.832 141.712 48.984 140.425 48.77 139.336C48.671 138.85 48.716 138.302 48.716 137.829L48.716 130.34C48.716 129.656 48.555 128.794 49.155 128.306" stroke-width="0.731"/>
    <path d="M51.869 141.199C50.802 140.891 50.051 139.762 49.844 138.713C49.747 138.228 49.792 137.681 49.792 137.209L49.792 129.719C49.792 129.337 49.716 128.65 49.865 128.211" stroke="#808080" stroke-width="0.292"/>
    <path d="M51.503 141.724C52.103 141.234 51.942 140.371 51.942 139.687L51.942 132.201C51.942 131.728 51.987 131.18 51.89 130.693C51.673 129.605 50.826 128.314 49.64 128.177C49.451 128.187 49.325 128.219 49.155 128.306" stroke="#808080" stroke-width="0.292"/>
    <path d="M51.503 158.27C51.332 158.354 51.209 158.384 51.021 158.396C49.832 158.258 48.984 156.968 48.77 155.881C48.671 155.396 48.716 154.846 48.716 154.372L48.716 146.884C48.716 146.203 48.555 145.338 49.155 144.849" stroke-width="0.731"/>
    <path d="M49.865 144.754C49.716 145.193 49.792 145.883 49.792 146.265L49.792 153.752C49.792 154.225 49.747 154.775 49.844 155.259C50.051 156.306 50.802 157.438 51.869 157.746" stroke="#808080" stroke-width="0.292"/>
    <path d="M51.503 158.27C52.103 157.781 51.942 156.917 51.942 156.235L51.942 148.747C51.942 148.274 51.987 147.723 51.89 147.237C51.673 146.151 50.826 144.861 49.64 144.723C49.451 144.735 49.325 144.764 49.155 144.849" stroke="#808080" stroke-width="0.292"/>
    <path d="M15.681 121.043C15.512 121.129 15.387 121.161 15.196 121.171C14.01 121.031 13.164 119.742 12.948 118.655C12.849 118.168 12.897 117.62 12.897 117.147L12.897 109.659C12.897 108.974 12.734 108.112 13.336 107.623" stroke-width="0.731"/>
    <path d="M16.047 120.518C14.98 120.212 14.23 119.079 14.022 118.034C13.926 117.549 13.971 117 13.971 116.525L13.971 109.037C13.971 108.658 13.893 107.966 14.044 107.528" stroke="#808080" stroke-width="0.292"/>
    <path d="M15.681 121.043C16.283 120.552 16.12 119.691 16.12 119.009L16.12 111.519C16.12 111.046 16.164 110.496 16.068 110.012C15.853 108.921 15.005 107.635 13.82 107.496C13.628 107.509 13.505 107.537 13.336 107.623" stroke="#808080" stroke-width="0.292"/>
    <path d="M14.044 124.072C13.893 124.51 13.971 125.201 13.971 125.584L13.971 133.069C13.971 133.544 13.926 134.092 14.022 134.578C14.23 135.627 14.98 136.756 16.047 137.063" stroke="#808080" stroke-width="0.292"/>
    <path d="M15.681 137.587C16.283 137.098 16.12 136.235 16.12 135.552L16.12 128.066C16.12 127.593 16.164 127.04 16.068 126.557C15.853 125.468 15.005 124.18 13.82 124.04C13.628 124.052 13.505 124.082 13.336 124.168" stroke="#808080" stroke-width="0.292"/>
    <path d="M15.681 137.587C15.512 137.675 15.387 137.705 15.196 137.715C14.01 137.575 13.164 136.289 12.948 135.2C12.849 134.716 12.897 134.167 12.897 133.692L12.897 126.203C12.897 125.519 12.734 124.659 13.336 124.168" stroke-width="0.731"/>
    <path d="M46.45 119.709C45.854 118.969 44.881 118.772 43.979 118.721C43.078 118.736 41.875 118.896 41.316 119.71" stroke="#808080" stroke-width="0.292"/>
    <path d="M41.097 119.147C41.201 119.79 41.71 120.177 42.289 120.409C43.238 120.792 44.383 120.801 45.341 120.46C46 120.225 46.636 119.786 46.667 119.033" stroke="#808080" stroke-width="0.292"/>
    <path d="M46.667 119.033C46.509 118.073 45.451 117.668 44.597 117.537C44.319 117.492 44.244 117.496 43.963 117.483C43.676 117.486 43.603 117.48 43.32 117.513C42.408 117.623 41.142 118.058 41.097 119.147" stroke-width="0.731"/>
    <path d="M10.843 98.352C10.689 97.391 9.631 96.984 8.776 96.855C8.499 96.811 8.423 96.814 8.141 96.799C7.857 96.804 7.785 96.799 7.5 96.831C6.586 96.941 5.32 97.379 5.275 98.463" stroke-width="0.731"/>
    <path d="M10.628 99.028C10.032 98.287 9.06 98.09 8.159 98.043C7.258 98.055 6.054 98.215 5.493 99.031" stroke="#808080" stroke-width="0.292"/>
    <path d="M5.275 98.463C5.379 99.108 5.889 99.495 6.469 99.727C7.416 100.109 8.561 100.118 9.521 99.78C10.179 99.545 10.814 99.103 10.843 98.352" stroke="#808080" stroke-width="0.292"/>
    <path d="M55.472 119.453C55.209 119.359 55 119.328 54.723 119.323C53.939 119.427 53.362 119.822 52.674 120.216L48.7 122.513L47.823 123.019L47.564 123.152C46.966 123.427 46.323 123.512 45.673 123.533C45.021 123.512 44.38 123.427 43.78 123.152L43.524 123.019L42.646 122.513L2.132 99.123C1.56 98.792 0.711 98.45 0.441 97.763C0.373 97.593 0.383 97.554 0.365 97.376" stroke-width="0.731"/>
    <path d="M54.895 120.873C54.719 120.772 54.587 120.733 54.387 120.706C53.732 120.745 53.237 121.135 52.674 121.459L48.7 123.753L47.823 124.26L47.564 124.391C46.966 124.668 46.323 124.754 45.673 124.775C45.021 124.754 44.38 124.668 43.78 124.391L43.524 124.26L42.646 123.753L2.132 100.362C1.736 100.134 1.193 99.882 0.829 99.546C0.616 99.349 0.441 99.1 0.384 98.811L0.365 98.615L0.365 97.995L0.365 97.376L0.384 97.177C0.542 96.368 1.524 95.977 2.132 95.628L6.107 93.331C6.855 92.899 7.743 92.239 8.67 92.486L8.903 92.566L9.782 93.072L54.804 119.067C55.246 119.323 55.735 119.506 56.033 119.932C56.527 120.632 56.417 121.581 56.417 122.379L56.417 160.061C56.417 160.764 56.572 161.81 55.948 162.35L55.79 162.465L55.253 162.774C54.838 163.014 54.591 163.199 54.13 163.228C53.435 163.159 52.92 162.776 52.319 162.429L11.804 139.037C11.352 138.776 10.852 138.532 10.445 138.191C9.619 137.496 9.021 136.456 8.833 135.395C8.739 134.873 8.776 134.313 8.776 133.795L8.776 105.213L8.776 104.198" stroke="#808080" stroke-width="0.292"/>
    <path d="M54.716 163.086C54.862 162.981 54.902 162.967 55.015 162.824C55.472 162.247 55.345 161.341 55.345 160.681L55.345 122.998C55.345 122.272 55.496 121.412 54.895 120.873" stroke-width="0.731"/>
   </g>
   <g id="60536_0_225_1">
    <path d="M76.393 188.246L76.337 188.258L76.254 188.254" stroke="#808080" stroke-width="0.292"/>
   </g>
   <g id="60536_0_163_1">
    <line stroke="#808080" stroke-width="0.292" x1="147.625" x2="146.548" y1="30.905" y2="31.527"/>
    <line stroke="#808080" stroke-width="0.292" x1="147.625" x2="146.548" y1="40.42" y2="41.042"/>
    <line stroke="#808080" stroke-width="0.292" x1="183.443" x2="182.37" y1="51.588" y2="52.207"/>
    <line stroke="#808080" stroke-width="0.292" x1="183.443" x2="182.37" y1="61.1" y2="61.722"/>
    <line stroke="#808080" stroke-width="0.292" x1="153.713" x2="153.713" y1="12.913" y2="14.153"/>
    <line stroke="#808080" stroke-width="0.292" x1="189.536" x2="189.536" y1="33.594" y2="34.835"/>
    <line stroke="#808080" stroke-width="0.292" x1="192.579" x2="146.01" y1="40.317" y2="13.43"/>
    <line stroke="#808080" stroke-width="0.292" x1="189.712" x2="143.146" y1="45.279" y2="18.393"/>
    <line stroke="#808080" stroke-width="0.292" x1="198.312" x2="198.312" y1="37.006" y2="38.247"/>
    <path d="M149.334 43.926C149.163 44.009 149.04 44.04 148.849 44.051C147.664 43.914 146.816 42.624 146.599 41.536C146.504 41.049 146.548 40.502 146.548 40.026L146.548 32.539C146.548 31.856 146.387 30.993 146.986 30.506" stroke-width="0.731"/>
    <path d="M149.7 43.401C148.634 43.093 147.882 41.96 147.674 40.914C147.579 40.429 147.625 39.881 147.625 39.408L147.625 31.919C147.625 31.536 147.546 30.847 147.697 30.408" stroke="#808080" stroke-width="0.292"/>
    <path d="M149.334 43.926C149.935 43.435 149.772 42.572 149.772 41.887L149.772 34.401C149.772 33.926 149.818 33.378 149.721 32.893C149.504 31.803 148.658 30.515 147.471 30.378C147.282 30.388 147.157 30.417 146.986 30.506" stroke="#808080" stroke-width="0.292"/>
    <path d="M185.157 64.605C184.985 64.691 184.862 64.721 184.671 64.733C183.484 64.593 182.639 63.307 182.423 62.216C182.324 61.731 182.37 61.183 182.37 60.707L182.37 53.222C182.37 52.537 182.21 51.676 182.807 51.185" stroke-width="0.731"/>
    <path d="M185.521 64.079C184.455 63.774 183.704 62.643 183.497 61.594C183.399 61.11 183.443 60.561 183.443 60.088L183.443 52.6C183.443 52.219 183.366 51.53 183.516 51.091" stroke="#808080" stroke-width="0.292"/>
    <path d="M185.157 64.605C185.757 64.115 185.593 63.253 185.593 62.57L185.593 55.082C185.593 54.606 185.639 54.057 185.543 53.573C185.325 52.485 184.479 51.198 183.294 51.058C183.103 51.07 182.979 51.098 182.807 51.185" stroke="#808080" stroke-width="0.292"/>
    <path d="M158.466 14.137C158.454 13.009 157.116 12.566 156.181 12.468C155.889 12.436 155.81 12.445 155.518 12.445C154.522 12.515 153.133 12.811 152.901 13.964" stroke-width="0.731"/>
    <path d="M158.466 14.137C158.234 15.289 156.843 15.586 155.849 15.657C155.556 15.657 155.475 15.663 155.187 15.632C154.252 15.534 152.913 15.092 152.901 13.964" stroke="#808080" stroke-width="0.292"/>
    <path d="M158.25 14.673C158.11 14.455 157.881 14.287 157.661 14.159C157.014 13.782 156.268 13.689 155.533 13.686C154.899 13.727 154.27 13.833 153.713 14.153C153.49 14.282 153.259 14.454 153.117 14.673" stroke="#808080" stroke-width="0.292"/>
    <path d="M194.288 34.82C194.275 33.692 192.937 33.249 192.003 33.151C191.712 33.119 191.633 33.125 191.338 33.125C190.342 33.197 188.955 33.496 188.723 34.646" stroke-width="0.731"/>
    <path d="M194.288 34.82C194.054 35.969 192.667 36.27 191.669 36.337C191.377 36.337 191.298 36.345 191.006 36.316C190.073 36.216 188.735 35.774 188.723 34.646" stroke="#808080" stroke-width="0.292"/>
    <path d="M194.073 35.353C193.931 35.137 193.703 34.966 193.483 34.84C192.836 34.463 192.088 34.371 191.353 34.366C190.721 34.408 190.092 34.512 189.536 34.835C189.312 34.963 189.08 35.134 188.937 35.353" stroke="#808080" stroke-width="0.292"/>
    <path d="M143.146 41.143L143.146 40.128L143.146 19.405L143.146 18.393L143.162 18.033C143.218 17.375 143.419 16.728 143.694 16.129C144.093 15.265 144.673 14.458 145.412 13.849C145.861 13.48 146.389 13.212 146.889 12.923L150.866 10.628C151.316 10.368 151.781 10.057 152.277 9.877C153.292 9.509 154.491 9.509 155.506 9.877C156.006 10.057 156.468 10.368 156.919 10.628L197.433 34.018C197.959 34.323 198.693 34.625 199.032 35.188C199.257 35.561 199.199 35.966 199.199 36.386L199.199 37.006L199.181 37.203C199.024 38.012 198.043 38.402 197.433 38.756L193.457 41.049L192.579 41.558L192.361 41.698C191.651 42.207 191.137 43.02 190.905 43.856C190.74 44.453 190.789 45.054 190.789 45.671L190.789 67.637L190.789 68.65" stroke="#808080" stroke-width="0.292"/>
    <path d="M199.199 35.765C199.182 35.945 199.192 35.985 199.126 36.155C198.855 36.844 198.006 37.183 197.433 37.515L193.457 39.81C192.955 40.098 192.429 40.366 191.981 40.737C190.846 41.67 190.02 43.1 189.776 44.552C189.681 45.127 189.712 45.713 189.712 46.292L189.712 67.016L189.712 68.028" stroke-width="0.731"/>
   </g>
   <g id="60536_0_154_1">
    <line stroke="#808080" stroke-width="0.292" x1="121.51" x2="121.784" y1="117.099" y2="116.569"/>
    <line stroke="#808080" stroke-width="0.292" x1="122.081" x2="122.406" y1="116.052" y2="115.552"/>
    <line stroke="#808080" stroke-width="0.292" x1="122.748" x2="123.111" y1="115.07" y2="114.612"/>
    <line stroke="#808080" stroke-width="0.292" x1="124.697" x2="124.287" y1="113.066" y2="113.405"/>
    <line stroke="#808080" stroke-width="0.292" x1="131.288" x2="131.271" y1="115.823" y2="116.278"/>
    <path d="M121.265 117.635C120.593 119.325 120.069 121.317 120.712 123.102C120.834 123.436 120.881 123.492 121.052 123.796" stroke="#808080" stroke-width="0.292"/>
    <path d="M122.941 121.713L121.079 121.712L120.435 121.34" stroke="#808080" stroke-width="0.292"/>
    <path d="M121.079 121.712C121.105 122.447 121.183 123.164 121.509 123.831C121.656 124.14 121.71 124.186 121.908 124.457" stroke="#808080" stroke-width="0.292"/>
    <path d="M122.956 122.135C123.04 122.802 123.186 123.441 123.632 123.965" stroke="#808080" stroke-width="0.292"/>
    <path d="M131.288 116.29C131.288 115.063 131.186 113.704 130.211 112.822C129.913 112.552 129.669 112.451 129.29 112.233" stroke="#808080" stroke-width="0.292"/>
    <path d="M126.789 111.959C126.233 112.147 126.509 112.04 125.957 112.278" stroke="#808080" stroke-width="0.292"/>
    <path d="M126.581 124.43C125.93 124.81 125.275 125.165 124.524 125.299C124.173 125.362 124.102 125.35 123.751 125.355C123.439 125.319 123.343 125.323 123.046 125.228C122.594 125.082 122.191 124.793 121.784 124.558" stroke="#808080" stroke-width="0.292"/>
    <path d="M122.724 125.1C122.403 124.912 122.165 124.727 121.908 124.457" stroke-width="0.731"/>
    <path d="M131.243 116.263C131.169 115.674 130.984 115.103 130.597 114.649" stroke="#808080" stroke-width="0.292"/>
    <path d="M121.694 118.552C121.338 119.596 121.117 120.611 121.079 121.712" stroke-width="0.731"/>
    <path d="M123.754 114.983C122.885 116.085 122.215 117.248 121.694 118.552" stroke="#808080" stroke-width="0.292"/>
    <path d="M122.948 121.492L122.941 121.713L122.956 122.135" stroke-width="0.731"/>
    <path d="M124.974 116.409C124.323 117.234 123.807 118.153 123.445 119.14" stroke="#808080" stroke-width="0.292"/>
    <path d="M126.186 112.873C125.251 113.456 124.48 114.158 123.754 114.983" stroke-width="0.731"/>
    <path d="M125.302 116.016L124.974 116.409" stroke-width="0.731"/>
    <path d="M129.643 112.436C129.29 112.296 128.99 112.221 128.614 112.183C128.262 112.186 128.194 112.173 127.843 112.236C127.246 112.343 126.715 112.591 126.186 112.873" stroke="#808080" stroke-width="0.292"/>
    <path d="M129.086 113.92C128.364 113.938 127.731 114.135 127.105 114.498" stroke="#808080" stroke-width="0.292"/>
    <path d="M129.562 113.996L129.408 113.956L129.086 113.92" stroke-width="0.731"/>
    <path d="M129.497 115.039C129.199 114.914 128.96 114.864 128.639 114.843C126.918 114.983 125.576 116.376 124.733 117.786C124.566 118.066 124.409 118.365 124.275 118.665C124.082 119.099 123.924 119.549 123.817 120.015C123.575 121.04 123.503 122.388 124.275 123.224C124.453 123.415 124.516 123.436 124.733 123.573" stroke="#808080" stroke-width="0.292"/>
    <path d="M125.144 124.691L124.819 124.656L124.665 124.615" stroke-width="0.731"/>
    <path d="M125.283 123.748C124.903 123.661 125.087 123.721 124.733 123.573" stroke-width="0.731"/>
    <path d="M126.54 124.408C126.072 124.581 125.644 124.68 125.144 124.691" stroke="#808080" stroke-width="0.292"/>
    <path d="M130.042 115.501C129.883 115.302 129.71 115.174 129.497 115.039" stroke-width="0.731"/>
   </g>
   <g id="60536_0_113_1">
    <line stroke="#808080" stroke-width="0.292" x1="16.12" x2="14.691" y1="131.709" y2="132.532"/>
    <line stroke-width="0.731" x1="15.585" x2="16.12" y1="129.675" y2="130.342"/>
    <line stroke="#808080" stroke-width="0.292" x1="15.585" x2="13.425" y1="135.432" y2="132.747"/>
    <line stroke="#808080" stroke-width="0.292" x1="16.12" x2="15.585" y1="135.387" y2="135.432"/>
    <line stroke="#808080" stroke-width="0.292" x1="15.585" x2="13.425" y1="129.675" y2="129.87"/>
    <path d="M14.839 130.974C14.468 131.318 14.478 131.826 14.609 132.288C14.808 133.007 15.353 133.812 16.12 133.991" stroke="#808080" stroke-width="0.292"/>
    <path d="M15.493 130.891C15.272 130.795 15.106 130.75 14.865 130.741C14.711 130.776 14.66 130.771 14.528 130.864C14.15 131.132 14.13 131.681 14.198 132.09C14.313 132.77 14.686 133.436 15.204 133.894C15.451 134.11 15.778 134.33 16.12 134.341" stroke-width="0.731"/>
    <path d="M15.647 130.985C15.468 130.909 15.329 130.876 15.135 130.872C14.928 130.915 15.025 130.879 14.839 130.974" stroke="#808080" stroke-width="0.292"/>
    <path d="M16.12 131.384C15.923 131.189 15.731 131.036 15.493 130.891" stroke="#808080" stroke-width="0.292"/>
   </g>
   <g id="60536_0_111_1">
    <path d="M132.937 118.075C133.127 118.212 133.181 118.231 133.329 118.417C133.818 119.033 133.82 119.924 133.687 120.659C133.614 121.072 133.49 121.48 133.329 121.87C132.711 123.361 131.442 124.983 129.724 125.149C129.43 125.131 129.224 125.082 128.956 124.96" stroke-width="0.731"/>
    <path d="M133.194 117.493C132.913 117.379 132.687 117.331 132.384 117.311C130.459 117.466 129.014 119.262 128.274 120.906C128.091 121.317 127.941 121.743 127.838 122.182C127.609 123.15 127.542 124.424 128.27 125.212C128.438 125.394 128.497 125.412 128.699 125.543" stroke-width="0.731"/>
    <path d="M129.445 115.126C129.157 115.007 128.92 114.956 128.605 114.936C126.606 115.097 125.1 116.965 124.335 118.674C124.144 119.102 123.99 119.546 123.885 120C123.647 121.006 123.579 122.323 124.334 123.141C124.507 123.329 124.567 123.349 124.781 123.483" stroke="#808080" stroke-width="0.292"/>
    <path d="M127.688 123.4C126.346 122.674 124.981 121.98 123.661 121.218" stroke="#808080" stroke-width="0.292"/>
    <path d="M124.233 123.168C125.4 123.843 126.611 124.445 127.802 125.07C128.352 125.359 128.87 125.733 129.51 125.725C130.355 125.718 131.145 125.233 131.76 124.692C132.987 123.621 133.877 122.048 134.139 120.436C134.252 119.734 134.252 118.96 133.943 118.305C133.623 117.628 132.941 117.334 132.337 116.953C131.24 116.259 130.147 115.531 129.021 114.881" stroke="#808080" stroke-width="0.292"/>
    <path d="M132.937 118.075C132.669 117.954 132.463 117.908 132.171 117.888C130.455 118.054 129.185 119.676 128.566 121.167C128.403 121.558 128.281 121.963 128.206 122.379C128.074 123.114 128.076 124.004 128.566 124.62C128.713 124.807 128.766 124.825 128.956 124.96" stroke="#808080" stroke-width="0.292"/>
   </g>
   <g id="60536_0_100_1">
    <line stroke="#808080" stroke-width="0.292" x1="81.602" x2="77.055" y1="185.606" y2="188.234"/>
    <line stroke="#808080" stroke-width="0.292" x1="90.703" x2="86.153" y1="180.354" y2="182.981"/>
    <line stroke="#808080" stroke-width="0.292" x1="99.801" x2="95.251" y1="175.102" y2="177.729"/>
    <line stroke="#808080" stroke-width="0.292" x1="108.9" x2="104.35" y1="169.848" y2="172.475"/>
    <line stroke="#808080" stroke-width="0.292" x1="117.998" x2="113.45" y1="164.596" y2="167.221"/>
    <line stroke="#808080" stroke-width="0.292" x1="127.096" x2="122.546" y1="159.341" y2="161.967"/>
    <line stroke="#808080" stroke-width="0.292" x1="136.193" x2="131.645" y1="154.091" y2="156.716"/>
    <line stroke="#808080" stroke-width="0.292" x1="145.294" x2="140.742" y1="148.836" y2="151.463"/>
    <line stroke="#808080" stroke-width="0.292" x1="154.393" x2="149.842" y1="143.581" y2="146.21"/>
    <line stroke="#808080" stroke-width="0.292" x1="163.49" x2="158.941" y1="138.33" y2="140.955"/>
    <line stroke="#808080" stroke-width="0.292" x1="172.59" x2="168.038" y1="133.078" y2="135.701"/>
    <path d="M81.602 185.164L81.602 185.606C81.602 185.729 81.59 185.849 81.552 185.966C81.405 186.425 80.745 186.635 80.418 186.823L77.626 188.437C77.286 188.633 76.899 188.95 76.48 189.028C76.248 189.016 76.072 188.954 75.87 188.832" stroke="#808080" stroke-width="0.292"/>
    <path d="M76.376 188.264C76.451 188.182 76.418 188.227 76.471 188.128" stroke="#808080" stroke-width="0.292"/>
    <path d="M90.703 179.913C90.703 180.269 90.772 180.837 90.396 181.063L89.516 181.57L86.644 183.227L85.768 183.731" stroke="#808080" stroke-width="0.292"/>
    <path d="M99.801 174.659L99.801 175.102L99.786 175.29C99.7 175.889 99.093 176.039 98.617 176.317L95.745 177.973L94.867 178.479" stroke="#808080" stroke-width="0.292"/>
    <path d="M108.9 169.407C108.9 169.762 108.968 170.33 108.593 170.558L107.713 171.063L104.843 172.718L103.963 173.227" stroke="#808080" stroke-width="0.292"/>
    <path d="M117.998 164.155C117.998 164.509 118.067 165.076 117.689 165.304L116.813 165.812L113.941 167.465L113.063 167.972" stroke="#808080" stroke-width="0.292"/>
    <path d="M127.096 158.901C127.096 159.253 127.164 159.824 126.789 160.05L125.912 160.558L123.04 162.212L122.162 162.718" stroke="#808080" stroke-width="0.292"/>
    <path d="M136.193 153.645L136.193 154.091C136.193 154.186 136.181 154.352 136.141 154.447C135.941 154.931 135.473 155.038 135.009 155.304L132.139 156.961L131.259 157.465" stroke="#808080" stroke-width="0.292"/>
    <path d="M145.294 148.393C145.294 148.746 145.361 149.319 144.985 149.544L144.11 150.05L141.241 151.704L140.364 152.21" stroke="#808080" stroke-width="0.292"/>
    <path d="M154.393 143.14L154.393 143.581C154.389 143.707 154.377 143.822 154.341 143.942C154.191 144.402 153.54 144.605 153.209 144.798L150.336 146.454L149.456 146.961" stroke="#808080" stroke-width="0.292"/>
    <path d="M163.49 137.889C163.49 138.243 163.56 138.812 163.185 139.039L162.306 139.545L159.433 141.201L158.556 141.707" stroke="#808080" stroke-width="0.292"/>
    <path d="M172.59 132.634C172.59 132.95 172.663 133.55 172.317 133.76L171.438 134.269L168.532 135.945L167.656 136.453" stroke="#808080" stroke-width="0.292"/>
    <path d="M168.038 135.26C168.038 135.677 168.087 136.08 167.766 136.389" stroke-width="0.731"/>
    <path d="M158.941 140.515C158.941 140.966 158.998 141.451 158.556 141.707" stroke-width="0.731"/>
    <path d="M149.842 145.769C149.842 146.217 149.899 146.704 149.456 146.961" stroke-width="0.731"/>
    <path d="M140.742 151.02C140.742 151.472 140.801 151.956 140.36 152.212" stroke-width="0.731"/>
    <path d="M131.645 156.274C131.645 156.723 131.703 157.211 131.259 157.465" stroke-width="0.731"/>
    <path d="M122.546 161.526C122.546 161.977 122.602 162.465 122.162 162.718" stroke-width="0.731"/>
    <path d="M113.45 166.78C113.45 167.231 113.506 167.718 113.063 167.972" stroke-width="0.731"/>
    <path d="M104.35 172.032C104.35 172.484 104.406 172.971 103.963 173.227" stroke-width="0.731"/>
    <path d="M95.251 177.287C95.251 177.737 95.31 178.223 94.867 178.479" stroke-width="0.731"/>
    <path d="M86.153 182.539C86.153 182.991 86.209 183.475 85.768 183.731" stroke-width="0.731"/>
    <path d="M76.376 188.264C76.281 188.319 76.331 188.299 76.224 188.323L76.141 188.319" stroke-width="0.731"/>
    <path d="M77.055 187.792C77.055 188.223 77.105 188.645 76.748 188.943" stroke-width="0.731"/>
   </g>
   <g id="60536_0_64_1">
    <path d="M190.769 74.016L190.769 75.03L190.769 119.885L190.769 120.899L190.752 121.128C190.671 121.7 190.34 122.272 189.883 122.631L189.694 122.757L188.817 123.266L63.764 195.463L62.886 195.973" stroke="#808080" stroke-width="0.292"/>
   </g>
   <g id="60536_0_62_1">
    <line stroke-width="0.731" x1="133.169" x2="133.169" y1="119.762" y2="120.713"/>
    <line stroke-width="0.731" x1="132.451" x2="133.169" y1="120.299" y2="120.713"/>
    <line stroke="#808080" stroke-width="0.292" x1="132.439" x2="132.334" y1="120.307" y2="120.243"/>
    <line stroke="#808080" stroke-width="0.292" x1="132.439" x2="132.451" y1="120.307" y2="120.299"/>
    <line stroke="#808080" stroke-width="0.292" x1="129.586" x2="129.586" y1="122.781" y2="121.828"/>
    <line stroke="#808080" stroke-width="0.292" x1="132.463" x2="132.484" y1="120.307" y2="120.158"/>
    <line stroke="#808080" stroke-width="0.292" x1="132.451" x2="132.451" y1="120.299" y2="120.224"/>
    <path d="M133.169 120.713L131.86 121.466L131.572 121.546C131.288 121.629 131.012 121.736 130.756 121.882C130.558 121.996 130.367 122.135 130.211 122.304L130.033 122.521L129.586 122.781" stroke-width="0.731"/>
    <path d="M131.86 121.466C131.627 122.079 131.216 122.706 130.519 122.813C130.282 122.79 130.168 122.719 130.033 122.521" stroke="#808080" stroke-width="0.292"/>
    <path d="M131.572 121.546L131.334 121.621" stroke="#808080" stroke-width="0.292"/>
    <path d="M133.169 119.762L131.86 120.516L131.481 120.62C131.229 120.694 130.984 120.801 130.756 120.933C130.592 121.025 130.438 121.135 130.302 121.266L130.033 121.569L129.586 121.828" stroke="#808080" stroke-width="0.292"/>
    <path d="M132.846 118.034C133.675 118.618 133.729 119.728 133.585 120.646C133.387 121.882 132.695 123.105 131.805 123.969C131.207 124.551 130.519 124.966 129.686 125.066C129.396 125.055 129.145 125.031 128.879 124.905" stroke="#808080" stroke-width="0.292"/>
    <path d="M130.302 121.266L130.169 121.402" stroke="#808080" stroke-width="0.292"/>
    <path d="M130.033 121.569C130.111 121.364 130.121 121.313 130.234 121.12L130.367 120.909C130.616 120.56 131.188 120.01 131.663 120.295C131.775 120.361 131.788 120.408 131.86 120.516" stroke="#808080" stroke-width="0.292"/>
    <path d="M130.949 118.477C129.501 119.337 128.448 121.084 128.324 122.762C128.26 123.649 128.557 124.781 129.582 124.908C129.729 124.924 129.878 124.921 130.026 124.9C130.253 124.864 130.481 124.793 130.691 124.691C131.931 124.102 132.847 122.817 133.293 121.548C133.423 121.179 133.516 120.796 133.557 120.406C133.647 119.573 133.474 118.456 132.542 118.18C132.381 118.129 132.223 118.121 132.052 118.121C131.651 118.156 131.304 118.287 130.949 118.477L130.949 118.477z" stroke="#808080" stroke-width="0.292"/>
    <path d="M133.635 119.549C133.533 118.903 133.296 118.236 132.615 118.004C132.397 117.927 132.322 117.939 132.092 117.924C131.662 117.968 131.312 118.09 130.925 118.287" stroke="#808080" stroke-width="0.292"/>
    <path d="M130.949 118.477C130.941 118.412 130.925 118.362 130.896 118.302" stroke="#808080" stroke-width="0.292"/>
    <path d="M130.278 124.948C129.889 125.043 130.084 125.01 129.698 125.051C129.466 125.036 129.39 125.046 129.173 124.972C128.383 124.7 128.175 123.855 128.135 123.109" stroke="#808080" stroke-width="0.292"/>
    <path d="M130.856 124.688C130.925 124.665 130.937 124.628 130.945 124.56" stroke="#808080" stroke-width="0.292"/>
   </g>
   <g id="60536_0_33_1">
    <line stroke="#808080" stroke-width="0.292" x1="50.984" x2="50.716" y1="153.965" y2="154.193"/>
    <line stroke-width="0.731" x1="51.424" x2="51.942" y1="150.346" y2="150.991"/>
    <line stroke="#808080" stroke-width="0.292" x1="51.424" x2="49.792" y1="156.104" y2="154.075"/>
    <line stroke="#808080" stroke-width="0.292" x1="51.942" x2="51.424" y1="156.06" y2="156.104"/>
    <line stroke="#808080" stroke-width="0.292" x1="51.424" x2="49.792" y1="150.346" y2="150.492"/>
    <path d="M50.976 151.532L50.539 151.786L50.456 151.937C50.347 152.2 50.362 152.506 50.415 152.782C50.536 153.371 50.875 153.944 51.341 154.328C51.509 154.466 51.72 154.604 51.942 154.643" stroke="#808080" stroke-width="0.292"/>
    <path d="M50.539 151.786C50.682 151.627 50.601 151.695 50.779 151.581" stroke="#808080" stroke-width="0.292"/>
    <path d="M51.942 154.995C50.877 154.817 50.112 153.579 50.026 152.568C49.978 152.028 50.192 151.355 50.847 151.4C51.087 151.414 51.28 151.518 51.485 151.632" stroke-width="0.731"/>
    <path d="M51.515 151.651C51.378 151.578 51.249 151.55 51.098 151.526C50.877 151.538 50.984 151.518 50.779 151.581" stroke="#808080" stroke-width="0.292"/>
    <path d="M51.485 151.632C51.652 151.752 51.804 151.859 51.942 152.013" stroke="#808080" stroke-width="0.292"/>
   </g>
   <g id="60536_0_21_1">
    <line stroke="#808080" stroke-width="0.292" x1="81.134" x2="81.218" y1="186.383" y2="186.356"/>
    <line stroke="#808080" stroke-width="0.292" x1="103.963" x2="99.509" y1="173.227" y2="175.799"/>
    <line stroke="#808080" stroke-width="0.292" x1="99.331" x2="99.415" y1="175.876" y2="175.852"/>
    <path d="M86.102 182.568C86.162 182.896 86.23 183.45 85.879 183.665L85.003 184.174L82.189 185.796L81.311 186.304" stroke="#808080" stroke-width="0.292"/>
    <path d="M95.2 177.316C95.259 177.643 95.326 178.199 94.977 178.412L94.102 178.919L91.194 180.598L90.317 181.104L90.23 181.128" stroke="#808080" stroke-width="0.292"/>
    <path d="M104.078 173.159C104.39 172.86 104.37 172.463 104.299 172.062" stroke="#808080" stroke-width="0.292"/>
    <path d="M113.397 166.81C113.457 167.138 113.525 167.693 113.176 167.907L112.299 168.413L109.391 170.092L108.513 170.598L108.43 170.622" stroke="#808080" stroke-width="0.292"/>
    <path d="M122.495 161.556C122.555 161.883 122.623 162.438 122.274 162.655L121.397 163.159L118.489 164.84L117.614 165.347L117.527 165.37" stroke="#808080" stroke-width="0.292"/>
    <path d="M131.596 156.301C131.653 156.629 131.722 157.187 131.373 157.401L130.495 157.907L127.59 159.585L126.71 160.092L126.626 160.116" stroke="#808080" stroke-width="0.292"/>
    <path d="M140.693 151.049C140.751 151.376 140.822 151.932 140.472 152.149L139.594 152.655L136.687 154.331L135.811 154.841L135.724 154.865" stroke="#808080" stroke-width="0.292"/>
    <path d="M149.792 145.796C149.85 146.123 149.919 146.681 149.572 146.895L148.692 147.401L145.787 149.08L144.908 149.587L144.823 149.611" stroke="#808080" stroke-width="0.292"/>
    <path d="M158.891 140.544C158.949 140.872 159.019 141.427 158.669 141.64L157.79 142.149L154.885 143.828L154.007 144.332L153.923 144.359" stroke="#808080" stroke-width="0.292"/>
    <path d="M167.989 135.29C168.046 135.618 168.117 136.175 167.766 136.389L166.89 136.894L163.983 138.574L163.106 139.08L163.02 139.104" stroke="#808080" stroke-width="0.292"/>
    <path d="M163.439 137.917C163.513 138.322 163.532 138.713 163.217 139.015" stroke-width="0.731"/>
    <path d="M154.342 143.17C154.413 143.574 154.433 143.966 154.121 144.269" stroke-width="0.731"/>
    <path d="M145.241 148.425C145.313 148.828 145.334 149.222 145.02 149.52" stroke-width="0.731"/>
    <path d="M136.145 153.676C136.217 154.084 136.235 154.473 135.921 154.775" stroke-width="0.731"/>
    <path d="M127.046 158.93C127.117 159.336 127.135 159.727 126.825 160.026" stroke-width="0.731"/>
    <path d="M117.945 164.181C118.021 164.587 118.04 164.979 117.724 165.28" stroke-width="0.731"/>
    <path d="M108.849 169.436C108.921 169.84 108.942 170.23 108.628 170.534" stroke-width="0.731"/>
    <path d="M99.748 174.689C99.828 175.128 99.846 175.603 99.415 175.852" stroke-width="0.731"/>
    <path d="M90.653 179.943C90.724 180.348 90.742 180.737 90.429 181.039" stroke-width="0.731"/>
    <path d="M81.554 185.194C81.631 185.629 81.647 186.11 81.218 186.356" stroke-width="0.731"/>
   </g>
   <g id="60536_0_19_1">
    <line stroke="#808080" stroke-width="0.292" x1="112.95" x2="112.578" y1="102.17" y2="102.384"/>
    <line stroke="#808080" stroke-width="0.292" x1="112.368" x2="112.159" y1="102.084" y2="102.206"/>
    <line stroke-width="0.731" x1="116.465" x2="116.219" y1="100.248" y2="100.39"/>
    <line stroke="#808080" stroke-width="0.292" x1="116.355" x2="115.992" y1="100.204" y2="100.415"/>
    <line stroke="#808080" stroke-width="0.292" x1="115.774" x2="115.569" y1="100.118" y2="100.236"/>
    <path d="M112.578 102.384C112.498 102.242 112.48 102.159 112.337 102.102" stroke-width="0.731"/>
    <path d="M112.862 102.453C112.79 102.328 112.838 102.376 112.716 102.304" stroke-width="0.731"/>
    <path d="M115.992 100.415C115.909 100.275 115.894 100.192 115.751 100.134" stroke-width="0.731"/>
    <path d="M116.277 100.484C116.2 100.358 116.253 100.406 116.126 100.334" stroke-width="0.731"/>
   </g>
  </g>
 </g>
 <g>
  <g>
   <path d="M196.408 2.956C196.408 2.952 196.408 2.947 196.408 2.943" stroke-width="0.13"/>
   <path d="M186.776 2.966C186.788 4.498 188.941 5.735 191.592 5.735C194.252 5.735 196.408 4.492 196.408 2.956" stroke-width="0.13"/>
  </g>
  <g>
   <path d="M190.23 13.179C190.986 13.614 192.2 13.612 192.955 13.179" stroke-width="0.13"/>
  </g>
  <g>
   <path d="M190.389 0.239C188.227 0.553 186.764 1.73 186.76 3.045C186.769 4.371 188.258 5.477 190.304 5.791" stroke-width="0.3"/>
  </g>
  <g>
   <path d="M196.427 3.048C196.435 1.461 194.28 0.163 191.614 0.15C191.179 0.148 190.757 0.18 190.389 0.238" stroke-width="0.3"/>
   <path d="M190.304 5.791C190.743 5.865 191.187 5.9 191.586 5.9C194.252 5.913 196.419 4.637 196.427 3.048" stroke-width="0.3"/>
  </g>
  <g>
   <path d="M189.686 12.55C189.876 13.131 190.669 13.535 191.568 13.548C192.606 13.56 193.461 13.047 193.519 12.387" stroke-width="0.3"/>
  </g>
  <line stroke-width="0.3" x1="193.519" x2="193.519" y1="5.653" y2="12.387"/>
  <path d="M189.686 12.55L189.665 12.397L189.665 11.627L189.665 6.427L189.665 5.658" stroke-width="0.3"/>
 </g>
 <g id="01.0031.0057_0_MODEL">
  <desc>01.0031.0057_0_MODEL</desc>
  <g>
   <path d="M193.729 21.399C193.729 20.734 192.795 20.195 191.643 20.193C190.537 20.193 189.631 20.69 189.561 21.323" stroke-width="0.13"/>
   <path d="M193.725 21.475C193.729 21.449 193.729 21.422 193.729 21.399" stroke-width="0.13"/>
  </g>
  <g>
   <path d="M193.122 21.152C192.716 20.916 192.18 20.798 191.644 20.797C191.021 20.797 190.463 20.954 190.08 21.204" stroke-width="0.13"/>
  </g>
  <g>
   <path d="M193.762 21.373C193.762 20.696 192.812 20.149 191.643 20.149C190.473 20.149 189.524 20.696 189.524 21.373C189.524 21.71 189.758 22.013 190.139 22.236" stroke-width="0.13"/>
   <path d="M193.23 22.182C193.587 21.949 193.763 21.66 193.762 21.373" stroke-width="0.13"/>
  </g>
  <g>
   <path d="M188.909 23.57C189.663 24.007 190.651 24.225 191.64 24.227C192.788 24.227 193.819 23.937 194.528 23.475" stroke-width="0.13"/>
  </g>
  <g>
   <path d="M187.798 21.257C187.793 21.307 187.789 21.358 187.79 21.399C187.789 22.628 189.514 23.623 191.643 23.623C193.685 23.623 195.356 22.707 195.487 21.539" stroke-width="0.13"/>
  </g>
  <g>
   <path d="M192.812 21.007C192.032 20.722 191.203 20.742 190.487 21.003" stroke-width="0.3"/>
  </g>
  <g>
   <path d="M193.662 21.698C193.568 21.486 193.372 21.295 193.122 21.152" stroke-width="0.3"/>
  </g>
  <g>
   <path d="M193.209 22.195C193.524 21.992 193.699 21.73 193.725 21.475" stroke-width="0.3"/>
  </g>
  <g>
   <path d="M190.139 22.236C190.554 22.475 191.098 22.596 191.641 22.597C192.272 22.597 192.841 22.437 193.23 22.182" stroke-width="0.3"/>
  </g>
  <g>
   <path d="M189.561 21.323C189.52 21.678 189.756 22.012 190.163 22.248" stroke-width="0.3"/>
  </g>
  <g>
   <path d="M187.798 21.861C187.793 21.905 187.79 21.949 187.789 21.987C187.774 23.199 189.461 24.205 191.558 24.234C191.925 24.239 192.28 24.213 192.588 24.166" stroke-width="0.3"/>
  </g>
  <g>
   <path d="M195.502 22.143C195.536 21.937 195.528 21.728 195.487 21.539" stroke-width="0.3"/>
   <path d="M192.588 24.166C194.283 23.897 195.33 23.114 195.502 22.143" stroke-width="0.3"/>
  </g>
  <g>
   <path d="M195.487 21.539C195.542 21.082 195.338 20.635 194.96 20.268" stroke-width="0.3"/>
  </g>
  <g>
   <path d="M194.355 19.809C192.629 18.879 190.246 18.969 188.689 19.963" stroke-width="0.3"/>
  </g>
  <g>
   <path d="M187.838 22.239C187.931 22.772 188.334 23.237 188.932 23.582" stroke-width="0.13"/>
  </g>
  <g>
   <path d="M194.508 23.486C195.086 23.114 195.408 22.634 195.455 22.167" stroke-width="0.13"/>
  </g>
  <g>
   <path d="M195.466 21.37C195.467 20.762 195.042 20.21 194.355 19.809" stroke-width="0.13"/>
   <path d="M188.689 19.963C188.103 20.376 187.818 20.878 187.819 21.37C187.819 22.593 189.532 23.585 191.643 23.585C193.753 23.585 195.466 22.594 195.466 21.37" stroke-width="0.13"/>
  </g>
  <line stroke-width="0.13" x1="190.508" x2="190.163" y1="22.411" y2="22.248"/>
  <line stroke-width="0.3" x1="194.882" x2="194.96" y1="20.202" y2="20.268"/>
  <path d="M193.206 22.196C192.884 22.376 193.051 22.297 192.705 22.437" stroke-width="0.13"/>
  <path d="M193.403 21.344C193.633 21.596 193.555 21.475 193.668 21.686" stroke-width="0.13"/>
  <path d="M189.883 21.341C189.653 21.594 189.733 21.472 189.617 21.686" stroke-width="0.13"/>
  <path d="M190.08 21.204C189.879 21.358 189.747 21.484 189.625 21.704" stroke-width="0.3"/>
  <path d="M187.798 21.861L187.798 21.257C187.83 20.905 188.014 20.626 188.241 20.37" stroke-width="0.3"/>
  <path d="M188.31 20.294C188.39 20.202 188.35 20.239 188.425 20.181" stroke-width="0.3"/>
 </g>
 <g id="01.0023.0056_0_MODEL">
  <desc>01.0023.0056_0_MODEL</desc>
  <g>
   <path d="M208.621 72.326C208.948 73.137 210.192 73.685 211.592 73.689C213.175 73.689 214.475 72.993 214.629 72.096" stroke-width="0.13"/>
  </g>
  <g>
   <path d="M213.525 68.311C213.525 68.259 213.519 68.209 213.508 68.165" stroke-width="0.3"/>
   <path d="M209.676 68.456C209.804 69.016 210.631 69.424 211.592 69.427C212.659 69.427 213.525 68.927 213.525 68.311" stroke-width="0.3"/>
   <path d="M213.508 68.165C213.381 67.605 212.555 67.197 211.592 67.194C210.525 67.194 209.659 67.694 209.659 68.311C209.659 68.361 209.665 68.412 209.676 68.456" stroke-width="0.13"/>
   <path d="M213.36 68.176C213.306 67.941 213.18 67.7 212.913 67.548L213.004 67.495C213.317 67.674 213.594 67.879 213.657 68.153L213.36 68.176z" fill="#000000" stroke="none"/>
  </g>
  <g>
   <path d="M214.093 73.019C214.479 72.703 214.677 72.23 214.634 71.808" stroke-width="0.3"/>
  </g>
  <g>
   <path d="M208.55 72.049C208.618 73.021 209.929 73.793 211.519 73.82C212.37 73.834 213.14 73.632 213.693 73.296" stroke-width="0.3"/>
  </g>
  <line stroke-width="0.13" x1="212.503" x2="212.503" y1="72.792" y2="70.275"/>
  <line stroke-width="0.3" x1="214.634" x2="214.634" y1="71.808" y2="71.561"/>
  <line stroke-width="0.3" x1="208.55" x2="208.55" y1="71.075" y2="72.049"/>
  <path d="M214.995 68.837C214.164 69.316 213.334 69.796 212.503 70.275L209.102 69.748" stroke-width="0.13"/>
  <path d="M209.102 72.265L209.102 71.623L209.102 70.391L209.102 69.748L208.831 69.165L208.461 68.367L208.191 67.784" stroke-width="0.13"/>
  <path d="M213.693 73.296L213.794 73.236L214.093 73.019" stroke-width="0.3"/>
  <path d="M214.082 66.873L214.354 67.454L214.724 68.254L214.995 68.837L214.995 69.478L214.995 70.712L214.995 71.353" stroke-width="0.3"/>
  <path d="M214.995 71.353C214.164 71.832 213.334 72.311 212.503 72.792L209.102 72.265" stroke-width="0.3"/>
  <path d="M209.102 72.265L208.831 71.683L208.461 70.884L208.191 70.301L208.191 69.659L208.191 68.427L208.191 67.784" stroke-width="0.3"/>
  <path d="M214.082 66.873C212.949 66.697 211.814 66.522 210.681 66.346L208.191 67.784" stroke-width="0.3"/>
 </g>
 <g>
  <line stroke="#FFFFFF" stroke-width="2" x1="192.29" x2="192.29" y1="51.786" y2="43.487"/>
  <line stroke-dasharray="5 1 1 1" stroke-width="0.13" x1="192.29" x2="192.29" y1="52.851" y2="43.423"/>
  <line stroke-width="0.13" x1="192.29" x2="192.29" y1="43.423" y2="42.423"/>
 </g>
 <g>
  <line stroke="#FFFFFF" stroke-width="2" x1="191.59" x2="191.59" y1="34.35" y2="25.873"/>
  <line stroke-dasharray="5 1 1 1" stroke-width="0.13" x1="191.59" x2="191.59" y1="35.415" y2="25.809"/>
  <line stroke-width="0.13" x1="191.59" x2="191.59" y1="25.809" y2="24.809"/>
 </g>
 <g>
  <line stroke="#FFFFFF" stroke-width="2" x1="191.59" x2="191.59" y1="20.562" y2="15.545"/>
  <line stroke-dasharray="5 1 1 1" stroke-width="0.13" x1="191.59" x2="191.59" y1="21.628" y2="15.48"/>
  <line stroke-width="0.13" x1="191.59" x2="191.59" y1="15.48" y2="14.48"/>
 </g>
 <g>
  <line stroke="#FFFFFF" stroke-width="2" x1="193.355" x2="210.527" y1="52.851" y2="52.851"/>
  <line stroke-dasharray="5 1 1 1" stroke-width="0.13" x1="192.29" x2="210.592" y1="52.851" y2="52.851"/>
  <line stroke-width="0.13" x1="210.592" x2="211.592" y1="52.851" y2="52.851"/>
 </g>
 <g>
  <line stroke="#FFFFFF" stroke-width="2" x1="211.592" x2="211.592" y1="67.245" y2="53.917"/>
  <line stroke-dasharray="5 1 1 1" stroke-width="0.13" x1="211.592" x2="211.592" y1="68.311" y2="53.851"/>
  <line stroke-width="0.13" x1="211.592" x2="211.592" y1="53.851" y2="52.851"/>
 </g>
 <g class="callout callout_1">
  <g>
   <line stroke="#FFFFFF" stroke-width="1" x1="136.694" x2="179.064" y1="151.969" y2="176.431"/>
   <line stroke-width="0.13" x1="136.694" x2="179.064" y1="151.969" y2="176.431"/>
  </g>
  <path d="M176.507 179.954L181.622 179.954 181.622 172.911 176.507 172.911 176.507 179.954z" fill="#FFFFFF" stroke="none"/>
  <text fill="#000000" font-family="'Arial'" font-size="4.232" stroke="none" x="177.888" y="177.954"><desc>1</desc>1</text>
 </g>
 <g class="callout callout_2">
  <g>
   <line stroke="#FFFFFF" stroke-width="1" x1="194.401" x2="217.223" y1="7.602" y2="7.602"/>
   <line stroke-width="0.13" x1="194.401" x2="217.223" y1="7.602" y2="7.602"/>
  </g>
  <path d="M214.221 11.122L220.228 11.122 220.228 4.08 214.221 4.08 214.221 11.122z" fill="#FFFFFF" stroke="none"/>
  <text fill="#000000" font-family="'Arial'" font-size="4.232" stroke="none" x="216.046" y="9.122"><desc>2</desc>2</text>
 </g>
 <g class="callout callout_3">
  <g>
   <line stroke="#FFFFFF" stroke-width="1" x1="196.046" x2="217.781" y1="21.785" y2="21.785"/>
   <line stroke-width="0.13" x1="196.046" x2="217.781" y1="21.785" y2="21.785"/>
  </g>
  <path d="M214.788 25.332L220.772 25.332 220.772 18.236 214.788 18.236 214.788 25.332z" fill="#FFFFFF" stroke="none"/>
  <text fill="#000000" font-family="'Arial'" font-size="4.232" stroke="none" x="216.604" y="23.332"><desc>3</desc>3</text>
 </g>
 <g class="callout callout_4">
  <g>
   <line stroke="#FFFFFF" stroke-width="1" x1="215.675" x2="234.872" y1="69.518" y2="69.518"/>
   <line stroke-width="0.13" x1="215.675" x2="234.872" y1="69.518" y2="69.518"/>
  </g>
  <path d="M231.824 73.033L237.919 73.033 237.919 66.001 231.824 66.001 231.824 73.033z" fill="#FFFFFF" stroke="none"/>
  <text fill="#000000" font-family="'Arial'" font-size="4.232" stroke="none" x="233.694" y="71.033"><desc>4</desc>4</text>
 </g>
 <path class="hotspot hotspot_1" d="M176.507 179.954L 181.622 179.954L 181.622 172.911L 176.507 172.911L 176.507 179.954z" fill="black" id="AUTOID_1902" stroke="black" visibility="hidden"/>
 <path class="hotspot hotspot_2" d="M214.221 11.122L 220.228 11.122L 220.228 4.08L 214.221 4.08L 214.221 11.122z" fill="black" id="AUTOID_1903" stroke="black" visibility="hidden"/>
 <path class="hotspot hotspot_4" d="M231.824 73.033L 237.919 73.033L 237.919 66.001L 231.824 66.001L 231.824 73.033z" fill="black" id="AUTOID_1904" stroke="black" visibility="hidden"/>
 <path class="hotspot hotspot_3" d="M214.788 25.332L 220.772 25.332L 220.772 18.236L 214.788 18.236L 214.788 25.332z" fill="black" id="AUTOID_1905" stroke="black" visibility="hidden"/>
</svg>