<svg id="a4422661-21b9-48ba-ad10-d67444f0b59f" data-name="Calque 1" xmlns="http://www.w3.org/2000/svg" viewBox="0 0 181.65 29.34"><defs><style>.b8c5dcb7-47ed-42df-b430-c6a5f3eaa52a{fill:#fff;}</style></defs><polygon class="b8c5dcb7-47ed-42df-b430-c6a5f3eaa52a" points="25.02 0 0 29.3 11.13 29.3 26.25 11.58 26.25 19.01 34.72 19.02 34.72 0 25.02 0"/><path class="b8c5dcb7-47ed-42df-b430-c6a5f3eaa52a" d="M66.71,10.56H46.58a1.05,1.05,0,1,1,0-2.1H71.3L74.13,0H46.58a9.51,9.51,0,0,0,0,19H66.71a.93.93,0,0,1,0,1.86H20.92l-7.39,8.43,3.12,0H66.71a9.39,9.39,0,1,0,0-18.78"/><path class="b8c5dcb7-47ed-42df-b430-c6a5f3eaa52a" d="M82.28,28H91L104.3,4.25a2.2,2.2,0,0,0-2.1-2.9h-24l-1.65,5H95.15ZM92.83,7.68H74.54L77.19,0h25.16a3.46,3.46,0,0,1,2.84,1.45,3.48,3.48,0,0,1,.49,3.15l0,0L92,29.34H79.9Z"/><path class="b8c5dcb7-47ed-42df-b430-c6a5f3eaa52a" d="M152,1.5a3.84,3.84,0,0,0-1.43.33,7.66,7.66,0,0,0-1.64.93,7.92,7.92,0,0,0-1.39,1.32,4.56,4.56,0,0,0-.81,1.39l-5.92,18.87a2.79,2.79,0,0,0-.14,1.3,2.84,2.84,0,0,0,.41,1.13,2.48,2.48,0,0,0,.83.78,2,2,0,0,0,1.06.29h25.3a3.8,3.8,0,0,0,1.43-.33,8.12,8.12,0,0,0,1.64-.93,7.92,7.92,0,0,0,1.39-1.32,4.56,4.56,0,0,0,.81-1.39L180,5a2.87,2.87,0,0,0,.14-1.29,2.7,2.7,0,0,0-.42-1.13,2.58,2.58,0,0,0-.82-.79,2.09,2.09,0,0,0-1.07-.28Zm-9,27.84a3.56,3.56,0,0,1-1.81-.49,3.92,3.92,0,0,1-1.33-1.26,4.14,4.14,0,0,1-.64-1.75,4.31,4.31,0,0,1,.19-2L145.29,5a5.89,5.89,0,0,1,1.07-1.88A9.45,9.45,0,0,1,148,1.56a9.61,9.61,0,0,1,2-1.12A5.37,5.37,0,0,1,152,0h25.84a3.53,3.53,0,0,1,1.82.49A4,4,0,0,1,181,1.75a4.19,4.19,0,0,1,.64,1.75,4.32,4.32,0,0,1-.2,2l-6.47,18.88a6,6,0,0,1-1.08,1.87,9.41,9.41,0,0,1-1.65,1.56,9.16,9.16,0,0,1-2,1.12,5.37,5.37,0,0,1-2,.44Z"/><path class="b8c5dcb7-47ed-42df-b430-c6a5f3eaa52a" d="M149.82,20.37h16.9L170.65,9H153.73Zm-2,1.5.66-2.14,4.22-12.26h20.11L172,9.63l-4.21,12.24Z"/><path class="b8c5dcb7-47ed-42df-b430-c6a5f3eaa52a" d="M129.48,17a1.51,1.51,0,0,1,1.63,1.48,1.14,1.14,0,0,1-.07.41L130,22.16a1.58,1.58,0,0,1-1.66,1.1H103.54L102.08,28H131a2.8,2.8,0,0,0,1.12-.3,8.46,8.46,0,0,0,1.53-.93A8.23,8.23,0,0,0,135,25.49a3.37,3.37,0,0,0,.64-1l2.56-8.13a5.56,5.56,0,0,0,.35-2.15,2,2,0,0,0-.38-1,2,2,0,0,0-.88-.57,4.5,4.5,0,0,0-1.5-.23H115.17a1.59,1.59,0,0,1-1.34-.58,1.4,1.4,0,0,1-.25-1.22L114.73,7A1.3,1.3,0,0,1,116,6.07l25.49,0,1.46-4.71H112.66a3,3,0,0,0-2.83,2.06l-3,9.58a5.55,5.55,0,0,0-.37,2.08,2.26,2.26,0,0,0,.35,1.09,1.63,1.63,0,0,0,.74.56,4.31,4.31,0,0,0,1.35.28ZM100.19,29.34l2.35-7.45h25.77c.09,0,.32,0,.34-.12l1.08-3.28,0,0a.35.35,0,0,0-.2,0H108.83A5.62,5.62,0,0,1,107,18a3,3,0,0,1-1.34-1,3.48,3.48,0,0,1-.6-1.76,6.7,6.7,0,0,1,.43-2.63l3.11-9.81A4,4,0,0,1,112.43,0h32.38l-2.34,7.47H116L114.9,10.9l.09,0h20.75a6.22,6.22,0,0,1,1.95.31,3.34,3.34,0,0,1,1.48,1,3.23,3.23,0,0,1,.7,1.79,7.06,7.06,0,0,1-.4,2.73l-2.57,8.13a4.66,4.66,0,0,1-.9,1.5,10,10,0,0,1-1.53,1.44,9.65,9.65,0,0,1-1.8,1.08,4,4,0,0,1-1.69.43Z"/></svg>