<?xml version="1.0" encoding="utf-8"?>
<!-- Generator: Adobe Illustrator 27.2.0, SVG Export Plug-In . SVG Version: 6.00 Build 0)  -->
<svg version="1.1" id="Calque_1" xmlns="http://www.w3.org/2000/svg" xmlns:xlink="http://www.w3.org/1999/xlink" x="0px" y="0px"
	 viewBox="0 0 56.8 6.9" style="enable-background:new 0 0 56.8 6.9;" xml:space="preserve">
<style type="text/css">
	.st0{fill:#FFFFFF;}
</style>
<path class="st0" d="M3.1,6.7H0l6.6-6.6h2.9h1.3v6.6H8.1V4.9l-3.2,0L3.1,6.7z M6.4,3.4l1.7,0V1.7L6.4,3.4z"/>
<polygon class="st0" points="21.7,0.1 17.9,0.1 16.5,1.5 15.1,0.1 11.3,0.1 14.7,3.4 11.3,6.7 15.1,6.7 16.5,5.3 17.9,6.7 21.7,6.7 
	18.3,3.4 "/>
<path class="st0" d="M27.5,6.8l-3.3,0l1.6-4.9l-1.8,0l0.6-1.7l5.1,0L27.5,6.8z M24.8,6.4l2.4,0l2-5.9l-4.2,0l-0.3,0.9l1.8,0
	L24.8,6.4z"/>
<path class="st0" d="M32.5,6.9C32.5,6.9,32.5,6.9,32.5,6.9c-1.2,0-2.8-0.3-3.4-1.2c-0.3-0.4-0.4-0.9-0.2-1.4l0.6-1.7
	c0.7-2,3.7-2.5,5.2-2.5c0,0,0,0,0,0c1.1,0,2.7,0.3,3.3,1.2c0.3,0.4,0.4,0.9,0.2,1.5l-0.6,1.7C37,6.1,34.6,6.9,32.5,6.9z M34.7,0.4
	c-1.6,0-4.2,0.6-4.8,2.2l-0.6,1.7c-0.1,0.4-0.1,0.8,0.1,1.1c0.5,0.7,1.9,1,3.1,1c0,0,0,0,0,0c1.9,0,4.2-0.7,4.7-2.2l0.6-1.7
	c0.1-0.4,0.1-0.8-0.1-1.1C37.2,0.7,35.8,0.4,34.7,0.4C34.7,0.4,34.7,0.4,34.7,0.4z M32.9,5.5C32.9,5.5,32.9,5.5,32.9,5.5
	c-0.6,0-0.9-0.1-1.1-0.4c-0.1-0.2-0.2-0.5-0.1-0.8l0.6-1.8c0.1-0.3,0.5-1.1,1.8-1.1c0,0,0,0,0,0c0.6,0,0.9,0.1,1.1,0.4
	c0.2,0.3,0.1,0.7,0.1,0.8l-0.6,1.8C34.4,5.3,33.6,5.5,32.9,5.5z M34.2,1.8c-1,0-1.3,0.6-1.4,0.8l-0.6,1.8c0,0.1-0.1,0.3,0,0.4
	c0.1,0.2,0.4,0.2,0.8,0.2c0,0,0,0,0,0c0.8,0,1.2-0.3,1.4-0.8L35,2.5c0-0.1,0.1-0.3,0-0.4C34.9,1.9,34.6,1.8,34.2,1.8
	C34.2,1.8,34.2,1.8,34.2,1.8z"/>
<path class="st0" d="M41.8,6.9C41.8,6.9,41.8,6.9,41.8,6.9c-1.2,0-2.8-0.3-3.4-1.2c-0.3-0.4-0.4-0.9-0.2-1.4l0.6-1.7
	C39.4,0.5,42.4,0,44,0c1.1,0,2.7,0.3,3.3,1.2c0.3,0.4,0.4,0.9,0.2,1.5l-0.6,1.7C46.3,6.1,43.8,6.9,41.8,6.9z M39.2,2.6l-0.6,1.7
	c-0.1,0.4-0.1,0.8,0.1,1.1c0.5,0.7,1.9,1,3.1,1c0,0,0,0,0,0c1.9,0,4.2-0.7,4.7-2.2l0.6-1.7c0.1-0.4,0.1-0.8-0.1-1.1
	c-0.5-0.7-1.9-1-3-1c0,0,0,0,0,0C42.3,0.4,39.7,1,39.2,2.6z M42.2,5.5C42.2,5.5,42.2,5.5,42.2,5.5c-0.6,0-0.9-0.1-1.1-0.4
	c-0.1-0.2-0.2-0.5-0.1-0.8v0l0.6-1.8c0.1-0.3,0.5-1.1,1.8-1.1c0,0,0,0,0,0c0.6,0,0.9,0.1,1.1,0.4c0.2,0.3,0.1,0.7,0.1,0.8L44,4.4
	C43.7,5.3,42.9,5.5,42.2,5.5z M41.4,4.4c0,0.1-0.1,0.3,0,0.4c0.1,0.2,0.4,0.2,0.8,0.2c0,0,0,0,0,0c0.8,0,1.2-0.3,1.4-0.8l0.6-1.8
	c0-0.1,0.1-0.3,0-0.4c-0.1-0.1-0.4-0.2-0.8-0.2c0,0,0,0,0,0c-1,0-1.3,0.6-1.4,0.8L41.4,4.4z"/>
<path class="st0" d="M51.1,6.9C51.1,6.9,51.1,6.9,51.1,6.9c-1.2,0-2.8-0.3-3.4-1.2c-0.3-0.4-0.4-0.9-0.2-1.4l0.6-1.7
	c0.7-2,3.7-2.5,5.2-2.5c0,0,0,0,0,0c1.1,0,2.7,0.3,3.3,1.2c0.3,0.4,0.4,0.9,0.2,1.5l-0.6,1.7C55.6,6.1,53.1,6.9,51.1,6.9z M48.4,2.7
	l-0.6,1.7c-0.1,0.4-0.1,0.8,0.1,1.1c0.5,0.7,1.9,1,3.1,1c0,0,0,0,0,0c1.9,0,4.2-0.7,4.7-2.2l0.6-1.7c0.1-0.4,0.1-0.8-0.1-1.1
	c-0.5-0.7-1.9-1-3-1c0,0,0,0,0,0C51.6,0.4,49,1,48.4,2.7z M51.5,5.5C51.5,5.5,51.5,5.5,51.5,5.5c-0.6,0-0.9-0.1-1.1-0.4
	c-0.1-0.2-0.2-0.5-0.1-0.8l0.6-1.8c0.1-0.3,0.5-1.1,1.8-1.1c0,0,0,0,0,0c0.6,0,0.9,0.1,1.1,0.4c0.2,0.3,0.1,0.7,0.1,0.8l-0.6,1.8
	C53,5.3,52.2,5.5,51.5,5.5z M50.7,4.4c0,0.1-0.1,0.3,0,0.4c0.1,0.2,0.4,0.2,0.8,0.2c0,0,0,0,0,0c0.8,0,1.2-0.3,1.4-0.8l0.6-1.8
	c0-0.1,0.1-0.3,0-0.4c-0.1-0.1-0.4-0.2-0.8-0.2c0,0,0,0,0,0c-1,0-1.3,0.6-1.4,0.8L50.7,4.4z"/>
</svg>
