<?xml version="1.0" encoding="utf-8"?>
<!-- Generator: Adobe Illustrator 26.3.1, SVG Export Plug-In . SVG Version: 6.00 Build 0)  -->
<svg version="1.1" id="Calque_1" xmlns="http://www.w3.org/2000/svg" xmlns:xlink="http://www.w3.org/1999/xlink" x="0px" y="0px"
	 viewBox="0 0 38.3 4.5" style="enable-background:new 0 0 38.3 4.5;" xml:space="preserve">
<style type="text/css">
	.st0{fill:#FFFFFF;}
</style>
<g>
	<polygon class="st0" points="1.7,4.5 4.1,1.8 4.1,2.9 5.4,2.9 5.4,0 3.9,0 0,4.5 	"/>
	<path class="st0" d="M10.3,1.6H7.2C7.1,1.6,7,1.6,7,1.5s0.1-0.2,0.2-0.2H11L11.5,0H7.2C6.4,0,5.7,0.7,5.7,1.5s0.7,1.5,1.5,1.5h3.1
		c0.1,0,0.1,0.1,0.1,0.1c0,0.1-0.1,0.1-0.1,0.1H3.2L2.1,4.5l0.5,0h7.8c0.8,0,1.5-0.7,1.5-1.5S11.1,1.6,10.3,1.6z"/>
	<g>
		<g>
			<path class="st0" d="M18.3,3.4l0.1-0.3l0.6-1.9h3.1L22,1.5l-0.6,1.9H18.3z M18.7,3.2h2.6l0.5-1.8h-2.6L18.7,3.2z"/>
			<path class="st0" d="M17.6,4.5c-0.1,0-0.2,0-0.3-0.1c-0.1,0-0.2-0.1-0.2-0.2C17.1,4.2,17,4.1,17,4c0-0.1,0-0.2,0-0.3L18,0.8
				c0-0.1,0.1-0.2,0.2-0.3c0.1-0.1,0.2-0.2,0.3-0.2c0.1-0.1,0.2-0.1,0.3-0.2C18.8,0,18.9,0,19,0h3.9c0.1,0,0.2,0,0.3,0.1
				c0.1,0,0.2,0.1,0.2,0.2c0.1,0.1,0.1,0.2,0.1,0.3c0,0.1,0,0.2,0,0.3l-0.9,2.9c0,0.1-0.1,0.2-0.2,0.3c-0.1,0.1-0.2,0.2-0.3,0.2
				c-0.1,0.1-0.2,0.1-0.3,0.2c-0.1,0-0.2,0.1-0.3,0.1L17.6,4.5z M19,0.2c-0.1,0-0.1,0-0.2,0.1c-0.1,0-0.2,0.1-0.3,0.1
				c-0.1,0.1-0.2,0.1-0.2,0.2c-0.1,0.1-0.1,0.1-0.1,0.2l-0.9,2.9c0,0.1,0,0.1,0,0.2c0,0.1,0,0.1,0.1,0.2c0,0.1,0.1,0.1,0.1,0.1
				c0.1,0,0.1,0,0.2,0l4,0c0.1,0,0.1,0,0.2-0.1c0.1,0,0.2-0.1,0.3-0.1C22.1,4,22.2,4,22.2,3.9c0.1-0.1,0.1-0.1,0.1-0.2l0.9-2.9
				c0-0.1,0-0.1,0-0.2c0-0.1,0-0.1-0.1-0.2c0,0-0.1-0.1-0.1-0.1c-0.1,0-0.1,0-0.2,0H19z"/>
			<path class="st0" d="M23.5,4.5c-0.1,0-0.2,0-0.3-0.1c-0.1,0-0.2-0.1-0.2-0.2C23,4.2,22.9,4.1,22.9,4c0-0.1,0-0.2,0-0.3l0.9-2.9
				c0-0.1,0.1-0.2,0.2-0.3c0.1-0.1,0.2-0.2,0.3-0.2c0.1-0.1,0.2-0.1,0.3-0.2C24.7,0,24.8,0,24.9,0l4,0C29,0,29,0,29.1,0.1
				c0.1,0,0.2,0.1,0.2,0.2c0.1,0.1,0.1,0.2,0.1,0.3c0,0.1,0,0.2,0,0.3l-1,2.9c0,0.1-0.1,0.2-0.2,0.3c-0.1,0.1-0.2,0.2-0.3,0.2
				c-0.1,0.1-0.2,0.1-0.3,0.2c-0.1,0-0.2,0.1-0.3,0.1H23.5z M24.9,0.2c-0.1,0-0.1,0-0.2,0.1c-0.1,0-0.2,0.1-0.3,0.1
				c-0.1,0.1-0.2,0.1-0.2,0.2c-0.1,0.1-0.1,0.1-0.1,0.2l-0.9,2.9c0,0.1,0,0.1,0,0.2c0,0.1,0,0.1,0.1,0.2c0,0.1,0.1,0.1,0.1,0.1
				c0.1,0,0.1,0,0.2,0h3.9c0.1,0,0.1,0,0.2-0.1c0.1,0,0.2-0.1,0.3-0.1C27.9,4,28,4,28.1,3.9c0.1-0.1,0.1-0.1,0.1-0.2l1-2.9
				c0-0.1,0-0.1,0-0.2c0-0.1,0-0.1-0.1-0.2c0,0-0.1-0.1-0.1-0.1c-0.1,0-0.1,0-0.2,0l0,0L24.9,0.2z"/>
			<path class="st0" d="M24.2,3.4L24.3,3L25,1.2h3.1L28,1.5l-0.6,1.9H24.2z M24.6,3.1h2.6l0.6-1.8h-2.6L24.6,3.1z"/>
		</g>
		<path class="st0" d="M17.1,0c0.1,0,0.2,0,0.3,0.1c0.1,0,0.2,0.1,0.2,0.2c0.1,0.1,0.1,0.2,0.1,0.3c0,0.1,0,0.2,0,0.3l-1,2.9
			c0,0.1-0.1,0.2-0.2,0.3c-0.1,0.1-0.2,0.2-0.3,0.2c-0.1,0.1-0.2,0.1-0.3,0.2c-0.1,0-0.2,0.1-0.3,0.1H11l0.4-1.4h3.9l0.1-0.2l-3.1,0
			c-0.1,0-0.2,0-0.3-0.1c-0.1,0-0.2-0.1-0.2-0.2c-0.1-0.1-0.1-0.2-0.1-0.3c0-0.1,0-0.2,0-0.3l0.4-1.3c0-0.1,0.1-0.2,0.1-0.3
			c0.1-0.1,0.1-0.2,0.2-0.2c0.1-0.1,0.2-0.1,0.3-0.2C12.9,0,13,0,13.1,0H17.1z M15.6,4.3c0.1,0,0.1,0,0.2-0.1c0.1,0,0.2-0.1,0.3-0.1
			C16.2,4,16.2,4,16.3,3.9c0.1-0.1,0.1-0.1,0.1-0.2l1-2.9c0-0.1,0-0.1,0-0.2c0-0.1,0-0.1-0.1-0.2c0-0.1-0.1-0.1-0.1-0.1
			c-0.1,0-0.1,0-0.2,0h-4c-0.1,0-0.1,0-0.2,0c-0.1,0-0.1,0.1-0.2,0.1c-0.1,0.1-0.1,0.1-0.2,0.2c-0.1,0.1-0.1,0.1-0.1,0.2L12,2.1
			c0,0.1,0,0.1,0,0.2c0,0.1,0,0.1,0.1,0.2c0,0,0.1,0.1,0.1,0.1c0.1,0,0.1,0,0.2,0l3.4,0l-0.2,0.7h-3.9l-0.3,0.9H15.6z"/>
		<path class="st0" d="M16.2,1.1L16,1.8h-3l0.2-0.7H16.2z M15.9,1.4h-2.5l-0.1,0.2h2.5L15.9,1.4z"/>
	</g>
	<g>
		<path class="st0" d="M30.4,3.4h-0.8l-0.1,0.1l-0.3,0.7c0,0.1,0.1,0.1,0.3,0.1h0.7l-0.2,0.3h-0.7c-0.4,0-0.7-0.1-0.7-0.3l0.3-0.9
			l0.3-0.8h0.7l-0.2,0.6h1.5l-0.1,0.3H30.4z"/>
		<path class="st0" d="M33.6,3.5c0.1-0.1,0-0.2-0.2-0.1h-0.9c-0.1,0-0.2,0-0.3,0.1l-0.1,0.2h0.4h1L33.6,3.5L33.6,3.5z M32.1,4H32
			l-0.1,0.2c0,0.1,0.1,0.1,0.3,0.1H34l-0.1,0.3h-1.9c-0.4,0-0.7-0.1-0.7-0.2c0,0,0-0.1,0-0.1l0.3-0.9c0-0.2,0.2-0.3,0.6-0.3H34
			c0.2,0,0.3,0.1,0.2,0.3l-0.1,0.4C34.1,3.9,33.9,4,33.7,4H32.1z"/>
	</g>
	<polygon class="st0" points="34.9,2.5 34.2,4.5 34.8,4.5 35.6,2.5 	"/>
	<g>
		<path class="st0" d="M37.6,3.5c0.1-0.1,0-0.2-0.2-0.1h-0.9c-0.1,0-0.2,0-0.3,0.1l-0.1,0.2h0.4h1L37.6,3.5L37.6,3.5z M36.2,4h-0.1
			L36,4.2c0,0.1,0.1,0.1,0.3,0.1H38l-0.1,0.3H36c-0.4,0-0.7-0.1-0.7-0.2c0,0,0-0.1,0-0.1l0.3-0.9c0-0.2,0.2-0.3,0.6-0.3h1.8
			c0.2,0,0.3,0.1,0.2,0.3l-0.1,0.4C38.2,3.9,38,4,37.8,4H36.2z"/>
	</g>
</g>
</svg>
