<?xml version="1.0" encoding="UTF-8"?><svg id="Calque_1" xmlns="http://www.w3.org/2000/svg" viewBox="0 0 318.29 51.73"><defs><style>.cls-1{fill:#fff;stroke-width:0px;}</style></defs><polygon class="cls-1" points="296.24 .01 278.08 15.13 266.82 .01 250.57 .01 268.01 23.52 234.16 51.72 256.89 51.72 276.61 35.11 288.92 51.72 305.34 51.72 286.66 26.65 318.29 .01 296.24 .01"/><path class="cls-1" d="M239.57,42.25l9.57-27.32c2.54-7.27-2.85-14.87-10.55-14.87h-53.31c-1.08,0-2.04.66-2.43,1.67l-14.08,36.78,18.88.1,11.13-30.38c.18-.49.65-.82,1.18-.82h24.61c4.27,0,7.25,4.23,5.81,8.25l-8.03,22.45c-1.38,3.85-5.02,6.42-9.11,6.42h-51.04c-1.11,0-1.87-1.11-1.46-2.14L176.62,1.7c.32-.81-.28-1.69-1.16-1.69h-18.15c-.92,0-1.8.35-2.46.97l-31.23,29.41,8.52-28.88c.22-.76-.35-1.52-1.13-1.52h-17.49c-.88,0-1.73.32-2.4.9l-46.59,40.81c-2.02,1.77-4.62,2.74-7.31,2.73l-32.49-.1c-2.25,0-4.15-1.06-5.22-2.9-1.08-1.86-1.02-4.27,0-6.42l8.47-20.59c1.96-4.16,6.23-6.96,10.64-6.97l23.66-.13c1.9,0,3.03,1.83,2.24,3.65l-2.23,6.5c-1.14,2.44-3.65,4.09-6.23,4.09h-23.75s-2.95,7.26-2.95,7.26l38.44-.07c4.5,0,8.49-2.36,9.95-5.86l5.63-13.53c.91-2.18.5-4.51-1.13-6.39-1.63-1.88-4.16-2.97-7.01-2.97L29.12.12c-7.89,0-14.87,4.16-17.37,10.33L.69,37.61c-1.34,3.3-.7,6.81,1.76,9.64,2.35,2.71,5.96,4.31,9.96,4.46h57.3c2.99,0,5.88-1.07,8.15-3.01l30.12-25.7-7.34,26.76c-.26.95.46,1.89,1.44,1.89h15.12c.98,0,1.92-.37,2.63-1.04l30.58-28.96-10.2,24.04c-1.21,2.86.89,6.03,3.99,6.03h12.87s0,0,0,0h9.24s59.42,0,59.42,0c6.12,0,11.61-3.76,13.82-9.46"/></svg>