<svg id="Calque_1" data-name="Calque 1" xmlns="http://www.w3.org/2000/svg" viewBox="0 0 477.45 72.95"><defs><style>.cls-1{fill:#fff;}</style></defs><title>15MWR</title><path class="cls-1" d="M85.81,454.86,89,442.15c8,0,53.3-.06,54.55-.11a3.69,3.69,0,0,0,1.34-.31,4.15,4.15,0,0,0,1.9-1.81l.07-.14,2.31-8.51,0-.08a2.44,2.44,0,0,0-2.44-3c-1.35-.07-39.57.07-43.92.08a10.41,10.41,0,0,1-3.61-.62,5.4,5.4,0,0,1-2.47-1.81,7.32,7.32,0,0,1-1.28-3.39,14,14,0,0,1,.6-5.6c2.83-10.82,7.15-27.25,7.47-28.17a.8.8,0,0,1,.45-.5h0l75.09-.14c-3.52,4-10.1,11.39-11.06,12.57a3.56,3.56,0,0,1-.94.16c-4.87,0-47.64,0-48.62.09a2.45,2.45,0,0,0-.92.23,3.43,3.43,0,0,0-1.71,2.14l-2.18,8.33a2.36,2.36,0,0,0,.19,2.08,2.51,2.51,0,0,0,2.3,1l43.74-.08a10.63,10.63,0,0,1,3.66.63,6,6,0,0,1,2.63,1.84,6.5,6.5,0,0,1,1.29,3.33,15.74,15.74,0,0,1-.55,5.62L163.6,438.6,150,454.74Zm213.7-68.33c-1.17-1.54-5.62-1.53-5.62-1.53H269.94s-3.45-.15-4.91.66a11,11,0,0,0-2.84,2.73l-20.85,30.27.42-29.75s.25-2.21-.62-3a4.85,4.85,0,0,0-3.21-.88H212.32a14,14,0,0,0-3.47.44,7.26,7.26,0,0,0-2.28,2.06L168,433.42l1.76-6.67a18.59,18.59,0,0,0,.61-6.72,9.33,9.33,0,0,0-1.92-4.79,8.91,8.91,0,0,0-3.86-2.71,13.24,13.24,0,0,0-4.66-.8c-.4,0-38.42.06-43.29.08l2-7.8a1.79,1.79,0,0,1,.12-.24c2.43,0,32.43-.07,48.37-.08a6.16,6.16,0,0,0,2.14-.43,2.48,2.48,0,0,0,1-.79c.47-.61,7.67-8.74,12.4-14.06l.09-.1.07-.11a1.86,1.86,0,0,0,0-1.88,2.8,2.8,0,0,0-2.51-1.13c-1.72,0-73.51.13-76.57.14h-.13l-.13,0a3.94,3.94,0,0,0-.73.24,3.74,3.74,0,0,0-2,2.19c-.43,1.27-6.8,25.61-7.53,28.36a17,17,0,0,0-.66,6.77,10.09,10.09,0,0,0,1.84,4.73,8.25,8.25,0,0,0,3.75,2.75,12.83,12.83,0,0,0,4.62.8c11.2,0,39.61-.12,43.39-.09l-2.05,7.56a1.07,1.07,0,0,1-.72.48c-1,0-56.71.11-56.71.11l-4.62,18.49L184,457.61l30.91-37.09V457.6h30.76l24.87-37.25-.13,37.33H300l.42-65.45s.16-4.24-.94-5.68" transform="translate(-52.77 -384.95)"/><path class="cls-1" d="M504.07,385.25l-77.73.22s-4-.11-5.4,1.13A71.51,71.51,0,0,0,416,392l-24.58,29.95,0-36.67h-29.9l-24.18,36.83.13-36.9H308.74l-.12,67.89s-.24,2.64.85,3.61a5.12,5.12,0,0,0,3.15,1.15l25.62-.07s3.65-.48,5.27-1.52a11,11,0,0,0,2.69-3.13l19.51-29.39-.11,27.77s-.17,3,1,4.23,4,2,4,2h21.82a22.22,22.22,0,0,0,4.81-1.29c1.78-.85,4-3.62,4-3.62L442,403.31l58.47,0c12.93,0,12.13,13.93,0,13.94H480.75l-32.4.29-32.06,40.22h31.39l17.54-23.08h17.16l19,23.06h28.81L509.72,434c29.68,0,25.27-48.76-5.65-48.75" transform="translate(-52.77 -384.95)"/><path class="cls-1" d="M76.89,455l-19.67,0,12.83-54.3-13.4,0c.3-1,.64-2.14.78-2.56a2.86,2.86,0,0,1,.72-.91L70,390.14l0,0a37.72,37.72,0,0,1,3.29-1.92l.07,0a9.58,9.58,0,0,1,3.13-.28l14.08,0h.09a3.21,3.21,0,0,1,1.51.24c.21.78-.2,3.32-.73,5.26ZM95,387.11c-.76-2.24-3.81-2.18-4.37-2.15l-13.92,0a11.87,11.87,0,0,0-4.38.51l-.12.05a39,39,0,0,0-3.65,2.12l-11.94,7.16-.14.1a5.58,5.58,0,0,0-1.75,2.33c-.29.89-1.33,4.36-1.37,4.51l-.55,1.86,13.63,0L53.57,457.9l25.6,0L94.3,394.09c.33-1.19,1.3-5.1.66-7" transform="translate(-52.77 -384.95)"/></svg>