<svg id="Calque_1" data-name="Calque 1" xmlns="http://www.w3.org/2000/svg" viewBox="0 0 487.27 76.31"><defs><style>.cls-1{fill:#fff;}</style></defs><title>9MWR</title><path class="cls-1" d="M143.64,404.38c-.57,1.9-1.43,4.76-1.95,6.16a1.49,1.49,0,0,1-.65.86H91.17l2.39-7.63a2.74,2.74,0,0,1,1-.14h49.31Zm.54-4H94.56c-2.85,0-3.88,1.45-4.09,2.47l-2.52,8a2.57,2.57,0,0,0,0,2.32,3.3,3.3,0,0,0,3.11,1.39h50.33a4.24,4.24,0,0,0,3.25-2.94c.55-1.49,1.39-4.3,2-6.35l.34-1.13a2.81,2.81,0,0,0-.34-2.64,2.91,2.91,0,0,0-2.52-1.15" transform="translate(-49.39 -383.56)"/><path class="cls-1" d="M134.43,456.52H53.76L58,442.9h74c2.43,0,3.79-2.31,4.22-3.71.11-.34.95-2.74,1.87-6.14a3.57,3.57,0,0,0-.52-3.22c-1.19-1.55-3.44-1.72-4.35-1.72h-.08L73.54,428a15.08,15.08,0,0,1-5.3-.77,7.26,7.26,0,0,1-2.93-1.94,6.3,6.3,0,0,1-1.4-2.86,14.14,14.14,0,0,1-.27-3.87l6-19.79a12,12,0,0,1,3.12-4.94A22.45,22.45,0,0,1,78.24,390a27.52,27.52,0,0,1,6.67-2.37,32.68,32.68,0,0,1,6.91-.78H157a29,29,0,0,1,6.5.71,14.84,14.84,0,0,1,5,2.1,6.64,6.64,0,0,1,2.6,3.26,7.68,7.68,0,0,1-.25,4.93l-10.44,33.77-2.26,2.67-18.32,21.84a35,35,0,0,1-5.43.44m155.36-72.8h-25s-3.6-.16-5.13.69a11.6,11.6,0,0,0-3,2.84l-21.8,31.62.46-31.09s.26-2.32-.65-3.16a5.11,5.11,0,0,0-3.35-.92H204.57a14.47,14.47,0,0,0-3.62.46,7.44,7.44,0,0,0-2.38,2.15l-32.8,38.94,8.2-26.49a10.77,10.77,0,0,0,.19-7,9.93,9.93,0,0,0-3.79-4.81,17.86,17.86,0,0,0-6.11-2.58,30.62,30.62,0,0,0-6.23-.8H92.83a38.44,38.44,0,0,0-8.6.85,30.93,30.93,0,0,0-7.46,2.66,25.87,25.87,0,0,0-6.2,4.42,15.09,15.09,0,0,0-3.94,6.29L60.46,418v.19a18.06,18.06,0,0,0,.32,4.95,9.67,9.67,0,0,0,2.09,4.27,10.33,10.33,0,0,0,4.22,2.85,17.82,17.82,0,0,0,6.46,1l59.64.11h.07a2.86,2.86,0,0,1,1.79.46.73.73,0,0,1,0,.43c-.93,3.47-1.79,5.91-1.8,5.93l0,.07c-.17.52-.7,1.46-1.16,1.46H55.62L49.39,459.7h85c.81,0,1.62,0,2.44-.08l38-.11,32.31-38.74v38.75h32.13l26-38.9-.16,39h30.94l.48-68.37s.19-4.45-1-6-5.86-1.59-5.86-1.59" transform="translate(-49.39 -383.56)"/><path class="cls-1" d="M515.25,435c31,0,26.44-50.93-5.87-50.93l-81.21.19s-4.21-.12-5.65,1.17a74.33,74.33,0,0,0-5.14,5.63l-25.7,31.28V384.06H360.45l-25.28,38.47.16-38.56h-30l-.17,70.93s-.25,2.76.89,3.77a5.41,5.41,0,0,0,3.29,1.21l26.77-.06s3.81-.5,5.5-1.58A11.48,11.48,0,0,0,344.4,455l20.4-30.69-.13,29s-.17,3.11,1.06,4.42,4.15,2.11,4.15,2.11h22.8a23.49,23.49,0,0,0,5-1.34c1.87-.89,4.24-3.78,4.24-3.78l42.61-51.77h61.09c13.5,0,12.66,14.57,0,14.57H485l-33.86.28-33.52,42h32.8l18.34-24.1h17.93l19.87,24.1h30.1Z" transform="translate(-49.39 -383.56)"/></svg>