<svg id="Calque_1" data-name="Calque 1" xmlns="http://www.w3.org/2000/svg" viewBox="0 0 375.17 65.35"><defs><style>.cls-1{fill:#fff;}</style></defs><title>8MCR-MarkII</title><path class="cls-1" d="M114.86,449.39a3.19,3.19,0,0,1-1.69-.5,6,6,0,0,1-1.66-1.53,6.5,6.5,0,0,1-1-2.11,2.76,2.76,0,0,1,0-1.66l5-17.23c.65-1.8,4.32-3.13,4.35-3.13l5.26-2.07L120,419.35c-.58-.21-1.61-.67-1.16-1.69L124,399.88a4.94,4.94,0,0,1,1.21-2,17.07,17.07,0,0,1,2.72-2.47,18.72,18.72,0,0,1,3.16-1.87,6,6,0,0,1,2.34-.63h51.67a3,3,0,0,1,1.59.5,6.38,6.38,0,0,1,1.74,1.58,5.36,5.36,0,0,1,1,2,3.33,3.33,0,0,1,.07,1.7l-4.64,15.56c-.28,1-.52,1.89-.74,2.52s-.36.91-.51,1.25l-.11.28c-.16.38-1,.6-1.87.6l-9.73.91,8.73,3.24s2,1,1.62,2l-2.92,10-12,14.32Zm183.5-58.64c-1-1.36-5-1.36-5-1.36H272.13s-3.05-.14-4.35.58a9.91,9.91,0,0,0-2.53,2.41l-18.49,26.83.39-26.37s.23-2-.55-2.68a4.33,4.33,0,0,0-2.85-.78h-22.7a12.6,12.6,0,0,0-3.08.38,6.37,6.37,0,0,0-2,1.83l-29.69,35.25.15-.52a5,5,0,0,0-.52-4.28,4.89,4.89,0,0,0,1.62-2l.11-.25c.17-.43.39-.93.61-1.54s.52-1.66.83-2.77l4.64-15.57a7.76,7.76,0,0,0-.06-4,9.77,9.77,0,0,0-1.76-3.55,10.68,10.68,0,0,0-2.88-2.61,7.26,7.26,0,0,0-3.88-1.17H133.45a10,10,0,0,0-4.14,1,22.62,22.62,0,0,0-3.93,2.32A21.06,21.06,0,0,0,122,395a9.24,9.24,0,0,0-2.15,3.69l-4.64,15.56c-.11.44-.2.84-.3,1.22s-.25,1-.37,1.33a4.64,4.64,0,0,0,.37,4,8.35,8.35,0,0,0-3.46,4l-5.11,17.48a6.79,6.79,0,0,0,0,4.16,11,11,0,0,0,1.7,3.44,10.57,10.57,0,0,0,2.87,2.67,7.62,7.62,0,0,0,4,1.15h48.81l-.08.1,32.29-.11,27.42-32.87v32.88h27.26l22.08-33-.14,33.09h26.25l.42-58s.16-3.77-.81-5.05" transform="translate(-105.99 -388.58)"/><path class="cls-1" d="M162.28,435.78c-.06,0-.1,0-.07,0H129.63l1.58-5.2,32.66,0c-.56,1.86-1.32,4.34-1.59,5.25m3.57-9.58H130.43a3.23,3.23,0,0,0-3.15,2.36L125,436a2.9,2.9,0,0,0,.2,2.62,3.36,3.36,0,0,0,3.08,1.46h33.91a3.93,3.93,0,0,0,4.13-2.77l2.3-7.55a2.69,2.69,0,0,0-.39-2.46,3,3,0,0,0-2.4-1.11" transform="translate(-105.99 -388.58)"/><path class="cls-1" d="M166.74,412.16c-.41,0-1.77,0-7.73,0-6.12,0-14.31,0-18.48,0h-1.35c.55-1.9,1.29-4.49,1.64-5.59h27.63c-.38,1.37-1.07,3.6-1.71,5.59m3.36-9.89-.22,0H140.64a3.9,3.9,0,0,0-3.83,2.65c-.47,1.4-2.18,7.45-2.25,7.71l0,.21a3.17,3.17,0,0,0,.67,2.57,3.36,3.36,0,0,0,2.7,1.15h2.65c4.18,0,12.35,0,18.47,0s7.39,0,7.55,0h.33a4.27,4.27,0,0,0,3.73-2.35l.14-.31a58.36,58.36,0,0,0,2.32-8.19,3.48,3.48,0,0,0-3-3.39" transform="translate(-105.99 -388.58)"/><path class="cls-1" d="M463,432.94c26.32,0,23.08-43.65-4.33-43.66l-48.89.11,0,0-84.35-.23a29,29,0,0,0-6.12.67,23.34,23.34,0,0,0-5.87,2.06,18.46,18.46,0,0,0-4.84,3.54c-1.4,1.44-3.67,4.22-3.79,7.87l-.36,39c-.18,4,2.12,7.88,3.35,8.8a12.27,12.27,0,0,0,4.53,2.06,24.72,24.72,0,0,0,5.67.72h43.72L375.17,436l-44.38-.21.37-30.26,69.41.16v0l54.27,0c11.47,0,10.75,12.35,0,12.35s-60.36.25-60.36.25l-8.12,10.57h.13l-5.65,7.18-13.73,17.88H395l15.55-20.44h28.26l16.86,20.44h25.53Z" transform="translate(-105.99 -388.58)"/></svg>