<?xml version="1.0" encoding="UTF-8"?>
<svg id="Calque_1" xmlns="http://www.w3.org/2000/svg" version="1.1" viewBox="0 0 309.1 52.3">
  <!-- Generator: Adobe Illustrator 29.3.1, SVG Export Plug-In . SVG Version: 2.1.0 Build 151)  -->
  <defs>
    <style>
      .st0 {
        fill: #fff;
      }
    </style>
  </defs>
  <path class="st0" d="M38.6,1.6c-.7-1-1.9-1.6-3.1-1.6h-18.4L3.4,6.7.4,13.5h12.7S0,52.3,0,52.3h20.8c2,0,3.8-1.3,4.5-3.2L39.1,5.1c.4-1.2.2-2.5-.5-3.5ZM35.8,4l-13.9,43.9c-.2.5-.6.8-1.2.8H4.8S18,10,18,10H5.7s.3-.7.3-.7l11.8-5.8h17.6c.1,0,.2,0,.3.2,0,0,0,.2,0,.3h0Z"/>
  <path class="st0" d="M262.5,0C261.9,0,220.4,0,192.8,0v18.1h20.4v34.1h19.2V18.1h23.8c.5,0,1.1.2,1.4.7l27.6,33.1c.2.2.5.4.8.4h22.5c.4,0,.7-.5.4-.8L266.7,2C265.7.8,264.1,0,262.5,0Z"/>
  <path class="st0" d="M309,.9C309.2.5,309,0,308.6,0h-20C287.1,0,285.6.7,284.6,1.9l-6.9,8.1,12.2,14.1L309,.9Z"/>
  <path class="st0" d="M242.5,52.3h23.4c.3,0,.6-.1.8-.4l7.2-8.5-12.3-14.6-19.4,22.5c-.3.4,0,.9.4.9Z"/>
  <path class="st0" d="M187.9,0h-21.9c-1,0-1.9.5-2.4,1.3l-15.8,22.9.3-22.8c0-.8-.6-1.4-1.4-1.4h-20.4c-1.3,0-2.6.6-3.4,1.6l-29,34.6h-40.6l.9-2.6h31.7c1.3,0,2.7-.3,4.1-.8,1.4-.5,2.7-1.1,4-2,1.3-.8,2.4-1.7,3.4-2.8,1-1.1,1.7-2.2,2.1-3.4l5.1-14.8h0c.3-1.3.3-2.5,0-3.7-.3-1.2-.8-2.2-1.6-3.1-.8-.9-1.7-1.6-2.8-2.2-1.1-.6-2.4-.8-3.7-.8h-50.8l-5.5,16.1h42.2l-.9,2.6h-31c-1.3,0-3.4.3-4.8.8-1.4.5-2.7,1.1-4,2-1.3.8-2.4,1.8-3.4,2.8-1,1-1.7,2.1-2.1,3.2l-8.1,23.6-.4,1.2h62.2s16.6,0,16.6,0l22.2-26.7v26.7h22.1l17.9-26.8v26.8c-.1,0,21.2,0,21.2,0l.3-49.8c0-1.4-1.1-2.4-2.4-2.4h0ZM83.3,48.8h-50.6l.3-.8,5.2-15.2,1.3-3.7c.2-.6.9-1.8,1.5-2.5.8-.8,1.7-1.6,2.7-2.2,1-.7,2.2-1.2,3.3-1.6,1-.4,2.9-.6,3.8-.6h33.3l3.3-9.5h-42.2l3.1-9.2h48.3c.8,0,1.5.2,2.2.5.7.3,1.2.8,1.7,1.3.4.5.7,1.1.9,1.7.1.6.1,1.2,0,1.8l-5.1,14.8c-.2.7-.7,1.4-1.4,2.2-.8.8-1.7,1.6-2.7,2.2-1,.7-2.1,1.2-3.3,1.6-1.1.4-2,.6-2.9.6h-34.2l-3.3,9.5h42.5l-7.7,9.2h0Z"/>
</svg>