<svg id="Calque_1" data-name="Calque 1" xmlns="http://www.w3.org/2000/svg" viewBox="0 0 386.92 60.44"><defs><style>.cls-1{fill:#fff;}</style></defs><title>10MCR-MarkII</title><path class="cls-1" d="M106.47,441.63l21.58,0L144.84,393l0-.07a10.41,10.41,0,0,0,.88-3.15,6.31,6.31,0,0,0-1.25-.11H127.25a12.16,12.16,0,0,0-2.77.23c-.81.24-2.79,1.07-3.83,1.54l-.06,0-14.08,5.82-.51,1.14h15.32Zm24.75,3.75H100.69l14.86-43.18H99.74l3.39-7.67,15.61-6.46c.43-.17,3.05-1.33,4.38-1.73a15.75,15.75,0,0,1,4.13-.42H144.5c1.79,0,4.13.34,5.08,2,1.08,1.88-.1,5-.7,6.37Z" transform="translate(-99.74 -385.7)"/><path class="cls-1" d="M199,409l-3.93,11.71a9.45,9.45,0,0,1-1.27,2.65c-.88,1.19-4.22,1.07-4.22,1.07H168.47s-1.62,0-1.9-.33c-.37-.54.21-2.18.21-2.18L171.1,409a2.58,2.58,0,0,1,1-1.38,3.21,3.21,0,0,1,1.94-.55h23.12s1.51-.24,1.89.51a1.39,1.39,0,0,1,0,1.38m5.6-5.63c-.74-1-4.34-.88-4.34-.88l-27,0s-3-.28-4.21.73a5.74,5.74,0,0,0-1.77,2.61l-5.88,17.86a16.14,16.14,0,0,0-.65,3.57c0,1.81,3,1.81,3,1.81h29s2.61.1,3.86-1.2a12,12,0,0,0,2.2-3.68l5.84-17.65s.84-1.89-.08-3.15" transform="translate(-99.74 -385.7)"/><path class="cls-1" d="M150.17,441a7.41,7.41,0,0,1-1.24-.52,2.5,2.5,0,0,1-1-.77l-.24-.41-.33-.29a2,2,0,0,1-.41-.63,6,6,0,0,1-.56-1.46,7,7,0,0,1-.25-1.53,3.27,3.27,0,0,1,.07-1l11.89-35.66a7,7,0,0,1,1.44-2.18,22.06,22.06,0,0,1,3.05-2.87,21.79,21.79,0,0,1,3.46-2.21,5.55,5.55,0,0,1,2.28-.74h47.12a2.29,2.29,0,0,1,1.29.52,6.16,6.16,0,0,1,1.62,1.81,8.25,8.25,0,0,1,1,2.46,3.63,3.63,0,0,1,0,1.77l-8,23.89L194.66,441Zm40.65,4.63h29.91L246.26,415v30.61h25.38l20.54-30.72-.12,30.81H316.5l.38-54s.15-3.52-.76-4.71-4.64-1.27-4.64-1.27H291.71s-2.84-.12-4,.54a9,9,0,0,0-2.34,2.25l-17.22,25,.36-24.54s.22-1.84-.51-2.5a4,4,0,0,0-2.65-.73H244.16a11.59,11.59,0,0,0-2.86.36,5.93,5.93,0,0,0-1.88,1.7l-20,23.74,4.27-12.83a8,8,0,0,0,.13-4.2,13.3,13.3,0,0,0-1.55-3.88,11.18,11.18,0,0,0-2.82-3.1,6.64,6.64,0,0,0-4.06-1.45H168.29a9.6,9.6,0,0,0-4.35,1.24,25,25,0,0,0-4.23,2.69,26.14,26.14,0,0,0-3.7,3.47,11.06,11.06,0,0,0-2.34,3.79l-11.92,35.7,0,.12a7.86,7.86,0,0,0-.25,2.54,12.3,12.3,0,0,0,.4,2.5,11.5,11.5,0,0,0,.91,2.36,7.32,7.32,0,0,0,1.26,1.8,7.16,7.16,0,0,0,2.83,2.34,7.37,7.37,0,0,0,3.19,1h40.76Z" transform="translate(-99.74 -385.7)"/><path class="cls-1" d="M469.73,426.59c24.49,0,21.48-40.64-4-40.64l-45.51.1,0,0-78.51-.22a26.51,26.51,0,0,0-5.72.63,21.61,21.61,0,0,0-5.45,1.91,17,17,0,0,0-4.51,3.31,11.32,11.32,0,0,0-3.52,7.3l-.34,36.33c-.17,3.68,2,7.33,3.13,8.19a11.5,11.5,0,0,0,4.21,1.91,22.52,22.52,0,0,0,5.28.66h40.69L388,429.44l-41.31-.19.34-28.17,64.61.14v0l50.53,0c10.67,0,10,11.5,0,11.5s-56.2.22-56.2.22l-7.55,9.85h.11l-5.26,6.69-12.76,16.64h25.9l14.49-19h26.3l15.7,19h23.78Z" transform="translate(-99.74 -385.7)"/></svg>