<svg id="Calque_1" data-name="Calque 1" xmlns="http://www.w3.org/2000/svg" viewBox="0 0 180.42 27.64"><defs><style>.cls-1{fill:#fff;}</style></defs><title>AS600</title><path class="cls-1" d="M302.91,434.52H278.35a3.18,3.18,0,0,1-1.62-.44,3.48,3.48,0,0,1-1.19-1.13,3.8,3.8,0,0,1-.58-1.58,3.91,3.91,0,0,1,.18-1.78l6.21-18.09a5.34,5.34,0,0,1,1-1.71,8.88,8.88,0,0,1,1.54-1.46,8.59,8.59,0,0,1,1.83-1,4.88,4.88,0,0,1,1.83-.41h28.83L313.59,415H288.83l-.68,2H308a3.17,3.17,0,0,1,1.62.43,3.64,3.64,0,0,1,1.2,1.14,3.8,3.8,0,0,1,.57,1.57,3.94,3.94,0,0,1-.18,1.79l-2.76,8a6.51,6.51,0,0,1-.88,1.69,8.93,8.93,0,0,1-1.35,1.46,7,7,0,0,1-1.62,1.05A4,4,0,0,1,302.91,434.52Zm-15.38-26.68a4,4,0,0,0-1.46.34,7.49,7.49,0,0,0-1.62.92,8.11,8.11,0,0,0-1.38,1.3,4.44,4.44,0,0,0-.81,1.41l-6.21,18.09a3,3,0,0,0-.14,1.34,3,3,0,0,0,.43,1.18,2.59,2.59,0,0,0,.88.83,2.14,2.14,0,0,0,1.13.31h24.56a3,3,0,0,0,1.28-.33,6.1,6.1,0,0,0,1.4-.91,7.35,7.35,0,0,0,1.2-1.29,5.37,5.37,0,0,0,.75-1.44l2.76-8a2.92,2.92,0,0,0-.29-2.53,2.47,2.47,0,0,0-.88-.82,2.14,2.14,0,0,0-1.13-.31H286.8l1.34-3.88H312.9l2.12-6.2Zm14.13,19.52H283.51l1.34-3.88H303Zm-16.8-1H301l.68-2H285.54Z" transform="translate(-207.26 -406.88)"/><path class="cls-1" d="M338.7,434.52H314.15a3.15,3.15,0,0,1-1.62-.44,3.51,3.51,0,0,1-1.2-1.13,3.79,3.79,0,0,1-.57-1.58,3.91,3.91,0,0,1,.18-1.78l6.2-18.09a5.38,5.38,0,0,1,1-1.71,8.88,8.88,0,0,1,1.54-1.46,8.35,8.35,0,0,1,1.83-1,4.83,4.83,0,0,1,1.82-.41h24.56a3.18,3.18,0,0,1,1.62.44,3.39,3.39,0,0,1,1.19,1.13,3.77,3.77,0,0,1,.58,1.58,3.91,3.91,0,0,1-.18,1.78l-6.2,18.09a5.46,5.46,0,0,1-1,1.71,8.76,8.76,0,0,1-3.37,2.5A4.84,4.84,0,0,1,338.7,434.52Zm-15.38-26.68a4,4,0,0,0-1.46.34,7.73,7.73,0,0,0-1.62.92,8,8,0,0,0-1.37,1.3,4.49,4.49,0,0,0-.82,1.41l-6.2,18.09a3,3,0,0,0-.14,1.34,2.88,2.88,0,0,0,.43,1.18,2.56,2.56,0,0,0,.87.83,2.2,2.2,0,0,0,1.14.31H338.7a3.92,3.92,0,0,0,1.46-.34,7.49,7.49,0,0,0,1.62-.92,7.75,7.75,0,0,0,1.38-1.3,4.34,4.34,0,0,0,.81-1.41l6.21-18.09a3,3,0,0,0,.14-1.34,2.88,2.88,0,0,0-.43-1.18,2.59,2.59,0,0,0-.88-.83,2.14,2.14,0,0,0-1.13-.31Zm14.77,19.52H319.41l.54-1.74,4-11.58H342.7l-.63,1.76Zm-17.38-1h16.7l3.92-11.4H324.62Z" transform="translate(-207.26 -406.88)"/><path class="cls-1" d="M375.08,434.52H350.52a3.18,3.18,0,0,1-1.62-.44,3.39,3.39,0,0,1-1.19-1.13,3.67,3.67,0,0,1-.58-1.58,3.91,3.91,0,0,1,.18-1.78l6.2-18.09a5.57,5.57,0,0,1,1-1.71,8.88,8.88,0,0,1,1.54-1.46,8.35,8.35,0,0,1,1.83-1,4.88,4.88,0,0,1,1.83-.41h24.55a3.18,3.18,0,0,1,1.62.44,3.51,3.51,0,0,1,1.2,1.13,3.91,3.91,0,0,1,.39,3.36l-6.2,18.09a5.46,5.46,0,0,1-1,1.71,8.2,8.2,0,0,1-1.54,1.46,8.35,8.35,0,0,1-1.83,1A4.83,4.83,0,0,1,375.08,434.52ZM359.7,407.84a4.06,4.06,0,0,0-1.47.34,7.42,7.42,0,0,0-1.61.92,7.75,7.75,0,0,0-1.38,1.3,4.44,4.44,0,0,0-.81,1.41l-6.21,18.09a3,3,0,0,0-.14,1.34,2.88,2.88,0,0,0,.43,1.18,2.56,2.56,0,0,0,.87.83,2.2,2.2,0,0,0,1.14.31h24.56a4,4,0,0,0,1.46-.34,7.73,7.73,0,0,0,1.62-.92,8,8,0,0,0,1.37-1.3,4.57,4.57,0,0,0,.82-1.41l6.2-18.09a2.83,2.83,0,0,0,.14-1.34,2.88,2.88,0,0,0-.43-1.18,2.66,2.66,0,0,0-.87-.83,2.2,2.2,0,0,0-1.14-.31Zm14.76,19.52H355.78l.54-1.74,4-11.58h18.76l-.62,1.76Zm-17.37-1h16.69l3.93-11.4H361Z" transform="translate(-207.26 -406.88)"/><polygon class="cls-1" points="10.48 27.6 24.73 10.91 24.73 17.91 32.7 17.92 32.7 0 23.57 0 0 27.6 10.48 27.6"/><path class="cls-1" d="M270.1,416.83h-19a1,1,0,1,1,0-2h23.29l3.1-8H251.14a9,9,0,1,0,0,17.92h19a.88.88,0,1,1,0,1.75H227l-7,7.94,2.94,0H270.1a8.85,8.85,0,0,0,0-17.7Z" transform="translate(-207.26 -406.88)"/></svg>