<svg id="Calque_1" data-name="Calque 1" xmlns="http://www.w3.org/2000/svg" viewBox="0 0 269.66 56.52"><defs><style>.cls-1{fill:#fff;}</style></defs><path class="cls-1" d="M270.5,20.6c-.29-.71-1.34-.66-1.34-.66l-19.91.13-12.6,14.5-8-14.37H167.26L198,22.05s5.41.59,7.84,2.92c1.92,1.84,11.44,9.74,11.44,24.24,0,16.24-15.87,22.77-19.06,24a33.45,33.45,0,0,1-8,1.64l-25.67,1.48h58.33l10.19-11.61,5.12,11.61,21.9,0-14-26.43,22.41-26s2.32-2.52,2-3.29" transform="translate(-0.87 -19.94)"/><path class="cls-1" d="M190.56,60.25c1.65-.47,8.77-4,8.77-13.4,0-7.5-6-11.62-7.7-12.94-.93-.73-3.62-.86-3.62-.86h-9.32l.09,27.61h9.38a14.67,14.67,0,0,0,2.4-.42" transform="translate(-0.87 -19.94)"/><path class="cls-1" d="M7.48,72.4A4.24,4.24,0,0,1,5.6,71.24a3.72,3.72,0,0,1-.86-2,8,8,0,0,1,.47-3.5L16.89,31.9A12.12,12.12,0,0,1,19,28.13a11.73,11.73,0,0,1,2.91-2.52,13.46,13.46,0,0,1,3.41-1.48,13.13,13.13,0,0,1,3.47-.48h42.6l-3,8.58H26.2L22,44.3H58.78c2.58,0,3,.9,3.09,1.2a8.72,8.72,0,0,1,.27,4.78L59.21,58.7,47,72.73a11,11,0,0,1-1.6.12H10.49a9.51,9.51,0,0,1-3-.45M157.76,20.62H139.37a9.91,9.91,0,0,0-3.77.51,8.48,8.48,0,0,0-2.18,2.09l-16,23.23.34-22.84s.19-1.7-.48-2.32a3.73,3.73,0,0,0-2.46-.67H95.13a10.26,10.26,0,0,0-2.66.34,5.46,5.46,0,0,0-1.75,1.57L65.88,51v0a12,12,0,0,0-.47-6.85c-.67-1.58-2.36-3.46-6.63-3.46H27.26L29,35.84H71.14L76.62,20H28.75a17,17,0,0,0-4.53.63,17.32,17.32,0,0,0-4.42,1.9A15.7,15.7,0,0,0,16,25.89a15.93,15.93,0,0,0-2.7,4.88L1.56,64.66A11.07,11.07,0,0,0,1,69.75,7.14,7.14,0,0,0,2.7,73.59a8.09,8.09,0,0,0,3.52,2.22,13.6,13.6,0,0,0,4.27.65H45.38c.39,0,.77,0,1.16,0l26.81-.08L97.09,47.87V76.33H120.7l19.11-28.59-.12,28.66h22.74l.35-50.25s-.23-3.55-1.15-4.38c-1.32-1.16-3.87-1.17-3.87-1.17" transform="translate(-0.87 -19.94)"/><path class="cls-1" d="M45.7,59.23A2.6,2.6,0,0,1,45,60.39a13.65,13.65,0,0,1-3.78.29c-.81,0-1.41,0-1.42,0H21.17s-.77,0-.59-.59l1.07-3.18a1.13,1.13,0,0,1,.35-.5,5.63,5.63,0,0,1,1.77-.16c.44,0,.76,0,.78,0l21,.06h.3a1.2,1.2,0,0,1,.61.1c.07.12.08.22,0,.46l-.32,1c-.09.31-.19.62-.46,1.39m3.63,1.12c.28-.82.39-1.15.49-1.47s.15-.47.3-.92a4.07,4.07,0,0,0-.39-3.83c-.67-1-2-1.44-3.86-1.44h-.34l-20.81-.05c-.14,0-.5,0-.95,0a7.84,7.84,0,0,0-3.45.53A4.64,4.64,0,0,0,18,55.79l-1.38,4.05A3.51,3.51,0,0,0,17,63.23a4.34,4.34,0,0,0,3.36,1.09c.49,0,.91,0,1.11,0H39.72c.16,0,.76,0,1.54,0,3.69,0,4.8-.41,5.17-.54a5.23,5.23,0,0,0,2.9-3.4" transform="translate(-0.87 -19.94)"/></svg>