<?xml version="1.0" encoding="UTF-8"?><svg id="Calque_1" xmlns="http://www.w3.org/2000/svg" viewBox="0 0 217.17 17.58"><defs><style>.cls-1{fill:#fff;stroke-width:0px;}</style></defs><polygon class="cls-1" points="195.68 0 188.67 0 180.02 6.65 174.89 6.65 177.06 0 171.74 0 166.02 17.58 171.34 17.58 173.46 11.07 178.75 11.07 182.95 17.58 189.96 17.58 184.47 8.79 195.68 0"/><path class="cls-1" d="M149.11,4.39h19.8l1.38-4.39h-15.76c-.13,0-.26,0-.39.01h-6.71c-2.13,0-4.03,1.37-4.69,3.41l-3.17,9.77h-9.88L133.97.01h-5.29l-4.64,14.27c-.19.58-.23,1.08-.14,1.49.09.41.28.76.56,1.03.28.27.64.47,1.07.59.43.12.9.18,1.41.18h12.56c.47,0,.96-.07,1.48-.21.52-.14,1.01-.35,1.48-.63.47-.28.89-.62,1.27-1.03.38-.4.65-.88.82-1.42l2.8-8.59c.25-.77.97-1.3,1.78-1.3Z"/><path class="cls-1" d="M120.99,11.32c.56-.15,1.09-.37,1.58-.65.49-.28.92-.64,1.3-1.07.37-.43.66-.94.84-1.52l1.77-5.44c.09-.28.1-.58.03-.89-.08-.31-.2-.6-.38-.86-.18-.26-.39-.48-.65-.65-.25-.17-.52-.25-.8-.25h-35.7l-1.44,4.39h6.42l-2.43,7.47c-.26.79-.99,1.32-1.82,1.32h-21.57l2.38-7.34h-4.59c-.42,0-.78.27-.91.66l-2.53,7.77c-.19.58-.23,1.08-.14,1.49.09.41.28.75.56,1.03.28.27.64.47,1.07.59.43.12.9.18,1.41.18h26.39c1.9,0,3.58-1.22,4.17-3.03l3.3-10.15h21.11c.11,0,.17.04.17.11l-.82,2.54c-.02.08-.1.11-.25.11h-15.49l-3.38,10.42h5.32l1.94-6h3.91l4.37,6h7.69l-4.52-6c.55-.02,1.1-.1,1.66-.25Z"/><path class="cls-1" d="M65.44,4.39h15.46l-2.39,7.38h5.32l2.76-8.48c.17-.52.2-.99.1-1.41-.1-.41-.3-.76-.59-1.04-.29-.28-.65-.49-1.07-.63-.42-.14-.87-.21-1.34-.21h-19.23c-1.07,0-2.08.46-2.78,1.27l-8.93,10.36-2.18-10.11c-.19-.89-.98-1.52-1.89-1.52h-20.31l-3.99,12.25h5.26l.38-1.21h6.82l1.43-4.39h-6.81l.73-2.25h12.72c.33,0,.61.23.68.55l2.47,11.95c.08.4.43.69.84.69h3.63c.52,0,1.02-.23,1.36-.62l10.27-11.98c.32-.37.78-.58,1.27-.58Z"/><path class="cls-1" d="M20.75,13.18c-.49,0-.95-.22-1.25-.61l-.78-1c.55-.02,1.1-.1,1.66-.25.56-.15,1.09-.37,1.58-.65.49-.28.92-.64,1.3-1.07.37-.43.66-.94.84-1.52l1.77-5.44c.09-.28.1-.58.03-.89-.08-.31-.2-.6-.38-.86-.18-.26-.39-.48-.65-.65-.25-.17-.52-.25-.8-.25H5.72l-1.44,4.39h15.49c.11,0,.17.04.17.11l-.82,2.54c-.02.08-.1.11-.25.11H3.38L0,17.58h5.32l1.94-6h3.91l3.58,4.49c.76.95,1.91,1.51,3.13,1.51h28.98l-.85-4.39h-25.28Z"/><path class="cls-1" d="M151.88,12.31l2.04-6.36h-4.43c-.51,0-.95.33-1.11.81l-1.92,5.98c-.77,2.39,1.02,4.84,3.53,4.84h14.51l1.38-4.39h-13.37c-.45,0-.78-.44-.64-.87Z"/><path class="cls-1" d="M217.15,2.1c-.05-.39-.18-.74-.38-1.05-.2-.31-.47-.57-.8-.76C215.63.1,215.27,0,214.88,0h-15.35c-.35,0-.73.09-1.12.27-.37.17-.72.4-1.05.68-.32.27-.61.59-.87.94-.26.36-.45.73-.58,1.1l-1.57,5.02c-.13.4-.17.79-.12,1.18.05.38.18.74.38,1.05.2.31.47.57.8.76.33.19.7.29,1.09.29h12.05s-.32.91-.32.91h-15.19l-1.7,5.38h17.81c.37,0,.77-.09,1.2-.27.41-.17.8-.39,1.17-.67.37-.27.7-.59.99-.94.3-.36.52-.74.64-1.12l3.88-11.31c.13-.4.17-.79.12-1.18ZM215.92,2.91l-3.88,11.3c-.08.25-.23.5-.44.75-.23.28-.49.53-.79.74-.29.22-.6.39-.92.53-.28.12-.54.18-.75.18h-16.22l.96-3.05h15.17l1.13-3.25h-13.68c-.18.01-.34-.03-.5-.12-.17-.1-.3-.23-.41-.39-.11-.16-.18-.36-.21-.57-.03-.21,0-.43.07-.65l1.57-5.03c.09-.26.23-.52.41-.78.2-.27.43-.52.68-.74.25-.21.51-.38.78-.51.23-.11.45-.17.63-.17h15.35c.18,0,.35.04.5.13.17.1.3.23.41.39.11.16.18.35.21.57.03.21,0,.43-.07.66Z"/><path class="cls-1" d="M199.1,7.65h11.9l1.22-3.48h-11.9l-1.22,3.48ZM201.3,5.33h9.2l-.38,1.15h-9.23l.42-1.15Z"/></svg>