<?xml version="1.0" encoding="UTF-8" standalone="no"?><!-- Generator: PTC Arbortext IsoDraw 7.3 M090 --><svg xmlns="http://www.w3.org/2000/svg" xmlns:xlink="http://www.w3.org/1999/xlink" clip-rule="evenodd" fill="none" fill-rule="evenodd" font-family="sans-serif" font-size="10" font-stretch="normal" font-style="normal" font-variant="normal" font-weight="normal" height="187.377" onabort="parent.dwImageSVGOnAbort('PGC143198096');" onerror="parent.dwImageSVGOnError('PGC143198096');" onload="parent.dwImageSVGOnLoad('PGC143198096');" stroke="#000000" stroke-linecap="round" viewBox="0.0 0.0 191.192 187.377" width="191.192" x="0" xml:space="preserve" y="0">
 <g id="Standard_x0020_layer">
 </g>
 <g id="Layer_x0020_1">
  <line stroke-linejoin="round" stroke-miterlimit="10" stroke-width="0.2" x1="22.353" x2="63.042" y1="120.435" y2="120.435"/>
  <line stroke-linejoin="round" stroke-miterlimit="10" stroke-width="0.2" x1="24.282" x2="61.115" y1="177.034" y2="177.034"/>
  <line stroke-linejoin="round" stroke-miterlimit="10" stroke-width="0.2" x1="62.271" x2="62.271" y1="158.763" y2="175.877"/>
  <line stroke-linejoin="round" stroke-miterlimit="10" stroke-width="0.2" x1="23.076" x2="23.076" y1="158.763" y2="175.877"/>
  <line stroke-linejoin="round" stroke-miterlimit="10" stroke-width="0.2" x1="14.784" x2="14.784" y1="143.431" y2="153.459"/>
  <line stroke-linejoin="round" stroke-miterlimit="10" stroke-width="0.2" x1="70.612" x2="70.612" y1="143.431" y2="153.459"/>
  <line stroke-linejoin="round" stroke-miterlimit="10" stroke-width="0.2" x1="16.76" x2="68.635" y1="158.763" y2="158.763"/>
  <polyline points="16.76 155.822 68.635 155.822 68.635 158.763" stroke-linejoin="round" stroke-miterlimit="10" stroke-width="0.2"/>
  <line stroke-linejoin="round" stroke-miterlimit="10" stroke-width="0.2" x1="16.76" x2="16.76" y1="155.822" y2="158.763"/>
  <line stroke-linejoin="round" stroke-miterlimit="10" stroke-width="0.2" x1="21.774" x2="63.621" y1="141.068" y2="141.068"/>
  <line stroke-linejoin="round" stroke-miterlimit="10" stroke-width="0.2" x1="28.716" x2="28.716" y1="153.459" y2="143.431"/>
  <line stroke-linejoin="round" stroke-miterlimit="10" stroke-width="0.2" x1="56.631" x2="56.631" y1="153.459" y2="143.431"/>
  <polyline points="56.631 143.479 54.703 142.853 52.725 142.323 50.749 141.888 48.773 141.55 46.747 141.31 44.722 141.164 42.698 141.116 40.673 141.164 38.649 141.31 36.624 141.55 34.646 141.888 32.67 142.323 30.693 142.853 28.765 143.479" stroke-linejoin="bevel" stroke-miterlimit="10" stroke-width="0.2"/>
  <polyline points="28.765 153.411 30.693 154.038 32.67 154.568 34.646 155.002 36.624 155.34 38.649 155.58 40.673 155.724 42.698 155.772 44.722 155.724 46.747 155.58 48.773 155.34 50.749 155.002 52.725 154.568 54.703 154.038 56.631 153.411" stroke-linejoin="bevel" stroke-miterlimit="10" stroke-width="0.2"/>
  <polyline points="14.832 153.411 15.699 154.038 16.615 154.568 17.579 155.002 18.593 155.34 19.653 155.58 20.713 155.724 21.774 155.772 22.835 155.724 23.896 155.58 24.955 155.34 25.969 155.002 26.932 154.568 27.849 154.038 28.716 153.411" stroke-linejoin="bevel" stroke-miterlimit="10" stroke-width="0.2"/>
  <polyline points="56.679 153.411 57.546 154.038 58.463 154.568 59.426 155.002 60.439 155.34 61.5 155.58 62.561 155.724 63.621 155.772 64.683 155.724 65.742 155.58 66.804 155.34 67.816 155.002 68.78 154.568 69.697 154.038 70.563 153.411" stroke-linejoin="bevel" stroke-miterlimit="10" stroke-width="0.2"/>
  <polyline points="28.716 143.479 27.849 142.853 26.932 142.323 25.969 141.888 24.955 141.55 23.896 141.31 22.835 141.164 21.774 141.116 20.713 141.164 19.652 141.31 18.593 141.55 17.579 141.888 16.615 142.323 15.699 142.853 14.832 143.479" stroke-linejoin="bevel" stroke-miterlimit="10" stroke-width="0.2"/>
  <polyline points="70.563 143.479 69.697 142.853 68.78 142.323 67.816 141.888 66.802 141.55 65.742 141.31 64.682 141.164 63.621 141.116 62.561 141.164 61.5 141.31 60.439 141.55 59.426 141.888 58.463 142.323 57.546 142.853 56.679 143.479" stroke-linejoin="bevel" stroke-miterlimit="10" stroke-width="0.2"/>
  <line stroke-linejoin="round" stroke-miterlimit="10" stroke-width="0.2" x1="64.2" x2="64.2" y1="121.64" y2="137.55"/>
  <line stroke-linejoin="round" stroke-miterlimit="10" stroke-width="0.2" x1="21.147" x2="21.147" y1="121.64" y2="137.55"/>
  <line stroke-linejoin="round" stroke-miterlimit="10" stroke-width="0.2" x1="22.353" x2="21.147" y1="120.435" y2="121.64"/>
  <line stroke-linejoin="round" stroke-miterlimit="10" stroke-width="0.2" x1="63.042" x2="64.2" y1="120.435" y2="121.64"/>
  <line stroke-linejoin="round" stroke-miterlimit="10" stroke-width="0.2" x1="21.147" x2="64.2" y1="137.549" y2="137.549"/>
  <line stroke-linejoin="round" stroke-miterlimit="10" stroke-width="0.2" x1="22.931" x2="22.931" y1="137.549" y2="141.068"/>
  <line stroke-linejoin="round" stroke-miterlimit="10" stroke-width="0.2" x1="62.417" x2="62.417" y1="137.549" y2="141.068"/>
  <line stroke-linejoin="round" stroke-miterlimit="10" stroke-width="0.2" x1="23.076" x2="24.282" y1="175.877" y2="177.033"/>
  <line stroke-linejoin="round" stroke-miterlimit="10" stroke-width="0.2" x1="62.271" x2="61.115" y1="175.877" y2="177.033"/>
  <line stroke-linejoin="round" stroke-miterlimit="10" stroke-width="0.2" x1="20.859" x2="64.489" y1="68.801" y2="68.801"/>
  <line stroke-linejoin="round" stroke-miterlimit="10" stroke-width="0.2" x1="91.632" x2="91.632" y1="1.257" y2="41.947"/>
  <line stroke-linejoin="round" stroke-miterlimit="10" stroke-width="0.2" x1="70.998" x2="70.998" y1="0.1" y2="43.103"/>
  <line stroke-linejoin="round" stroke-miterlimit="10" stroke-width="0.2" x1="90.427" x2="68.057" y1="43.103" y2="43.103"/>
  <line stroke-linejoin="round" stroke-miterlimit="10" stroke-width="0.2" x1="90.427" x2="32.67" y1="0.1" y2="0.1"/>
  <line stroke-linejoin="round" stroke-miterlimit="10" stroke-width="0.2" x1="91.632" x2="70.998" y1="41.368" y2="41.368"/>
  <line stroke-linejoin="round" stroke-miterlimit="10" stroke-width="0.2" x1="91.632" x2="70.998" y1="1.883" y2="1.883"/>
  <line stroke-linejoin="round" stroke-miterlimit="10" stroke-width="0.2" x1="91.632" x2="90.427" y1="1.257" y2="0.1"/>
  <line stroke-linejoin="round" stroke-miterlimit="10" stroke-width="0.2" x1="91.632" x2="90.427" y1="41.947" y2="43.103"/>
  <line stroke-linejoin="round" stroke-miterlimit="10" stroke-width="0.2" x1="14.784" x2="14.784" y1="86.445" y2="99.414"/>
  <line stroke-linejoin="round" stroke-miterlimit="10" stroke-width="0.2" x1="70.612" x2="70.612" y1="86.445" y2="99.414"/>
  <line stroke-linejoin="round" stroke-miterlimit="10" stroke-width="0.2" x1="21.774" x2="63.621" y1="101.777" y2="101.777"/>
  <line stroke-linejoin="round" stroke-miterlimit="10" stroke-width="0.2" x1="21.774" x2="63.621" y1="84.082" y2="84.082"/>
  <line stroke-linejoin="round" stroke-miterlimit="10" stroke-width="0.2" x1="28.716" x2="28.716" y1="99.414" y2="86.445"/>
  <line stroke-linejoin="round" stroke-miterlimit="10" stroke-width="0.2" x1="56.631" x2="56.631" y1="99.414" y2="86.445"/>
  <polyline points="56.631 86.493 54.703 85.867 52.725 85.337 50.749 84.903 48.773 84.564 46.747 84.325 44.722 84.18 42.698 84.132 40.673 84.18 38.649 84.325 36.624 84.564 34.646 84.903 32.67 85.337 30.693 85.867 28.765 86.493" stroke-linejoin="bevel" stroke-miterlimit="10" stroke-width="0.2"/>
  <polyline points="28.765 99.365 30.693 99.992 32.67 100.522 34.646 100.956 36.624 101.295 38.649 101.536 40.673 101.68 42.698 101.728 44.722 101.68 46.747 101.536 48.773 101.295 50.749 100.956 52.725 100.522 54.703 99.992 56.631 99.365" stroke-linejoin="bevel" stroke-miterlimit="10" stroke-width="0.2"/>
  <polyline points="14.832 99.414 15.699 100.042 16.615 100.57 17.579 101.006 18.593 101.343 19.653 101.584 20.713 101.728 21.774 101.777 22.835 101.728 23.896 101.584 24.955 101.343 25.969 101.006 26.932 100.57 27.849 100.042 28.716 99.414" stroke-linejoin="bevel" stroke-miterlimit="10" stroke-width="0.2"/>
  <polyline points="56.679 99.414 57.546 100.042 58.463 100.57 59.426 101.006 60.439 101.343 61.5 101.584 62.561 101.728 63.621 101.777 64.683 101.728 65.742 101.584 66.804 101.343 67.816 101.006 68.78 100.57 69.697 100.042 70.563 99.414" stroke-linejoin="bevel" stroke-miterlimit="10" stroke-width="0.2"/>
  <polyline points="28.716 86.493 27.849 85.867 26.932 85.337 25.969 84.903 24.955 84.564 23.896 84.325 22.835 84.18 21.774 84.132 20.713 84.18 19.652 84.325 18.593 84.564 17.579 84.903 16.615 85.337 15.699 85.867 14.832 86.493" stroke-linejoin="bevel" stroke-miterlimit="10" stroke-width="0.2"/>
  <polyline points="70.563 86.493 69.697 85.867 68.78 85.337 67.816 84.903 66.802 84.564 65.742 84.325 64.682 84.18 63.621 84.132 62.561 84.18 61.5 84.325 60.439 84.564 59.426 84.903 58.463 85.337 57.546 85.867 56.679 86.493" stroke-linejoin="bevel" stroke-miterlimit="10" stroke-width="0.2"/>
  <line stroke-linejoin="round" stroke-miterlimit="10" stroke-width="0.2" x1="64.489" x2="64.489" y1="84.132" y2="68.801"/>
  <line stroke-linejoin="round" stroke-miterlimit="10" stroke-width="0.2" x1="20.859" x2="20.859" y1="84.132" y2="68.801"/>
  <line stroke-linejoin="round" stroke-miterlimit="10" stroke-width="0.2" x1="60.487" x2="60.487" y1="68.801" y2="48.165"/>
  <line stroke-linejoin="round" stroke-miterlimit="10" stroke-width="0.2" x1="24.859" x2="24.859" y1="68.801" y2="48.165"/>
  <polyline points="64.489 48.165 20.859 48.165 20.859 11.864" stroke-linejoin="round" stroke-miterlimit="10" stroke-width="0.2"/>
  <polyline points="32.67 0.1 31.658 0.148 30.644 0.292 29.632 0.485 28.669 0.823 27.704 1.209 26.788 1.69 25.92 2.221 25.1 2.847 24.329 3.523 23.655 4.293 23.027 5.113 22.498 5.98 22.015 6.897 21.629 7.862 21.292 8.826 21.1 9.837 20.954 10.85 20.907 11.862" stroke-linejoin="bevel" stroke-miterlimit="10" stroke-width="0.2"/>
  <polyline points="68.057 43.152 67.527 43.201 66.947 43.344 66.465 43.537 65.984 43.826 65.549 44.164 65.212 44.598 64.924 45.081 64.73 45.563 64.585 46.14 64.537 46.67" stroke-linejoin="bevel" stroke-miterlimit="10" stroke-width="0.2"/>
  <line stroke-linejoin="round" stroke-miterlimit="10" stroke-width="0.2" x1="64.489" x2="64.489" y1="48.165" y2="46.671"/>
  <line stroke-linejoin="round" stroke-miterlimit="10" stroke-width="0.2" x1="155.078" x2="178.074" y1="13.164" y2="13.164"/>
  <line stroke-linejoin="round" stroke-miterlimit="10" stroke-width="0.2" x1="154.933" x2="178.219" y1="51.493" y2="51.493"/>
  <line stroke-linejoin="round" stroke-miterlimit="10" stroke-width="0.2" x1="178.943" x2="178.943" y1="39.728" y2="50.77"/>
  <line stroke-linejoin="round" stroke-miterlimit="10" stroke-width="0.2" x1="154.211" x2="154.211" y1="39.728" y2="50.77"/>
  <line stroke-linejoin="round" stroke-miterlimit="10" stroke-width="0.2" x1="148.955" x2="148.955" y1="29.99" y2="36.451"/>
  <line stroke-linejoin="round" stroke-miterlimit="10" stroke-width="0.2" x1="184.198" x2="184.198" y1="29.99" y2="36.451"/>
  <line stroke-linejoin="round" stroke-miterlimit="10" stroke-width="0.2" x1="150.209" x2="182.944" y1="39.728" y2="39.728"/>
  <polyline points="150.209 37.898 182.944 37.898 182.944 39.728" stroke-linejoin="round" stroke-miterlimit="10" stroke-width="0.2"/>
  <line stroke-linejoin="round" stroke-miterlimit="10" stroke-width="0.2" x1="150.209" x2="150.209" y1="37.898" y2="39.728"/>
  <line stroke-linejoin="round" stroke-miterlimit="10" stroke-width="0.2" x1="153.342" x2="179.811" y1="28.495" y2="28.495"/>
  <line stroke-linejoin="round" stroke-miterlimit="10" stroke-width="0.2" x1="157.777" x2="157.777" y1="36.451" y2="29.99"/>
  <line stroke-linejoin="round" stroke-miterlimit="10" stroke-width="0.2" x1="175.375" x2="175.375" y1="36.451" y2="29.99"/>
  <polyline points="175.423 29.99 173.977 29.507 172.531 29.17 171.085 28.882 169.59 28.64 168.094 28.545 166.6 28.495 165.105 28.545 163.611 28.64 162.116 28.882 160.67 29.17 159.224 29.507 157.777 29.99" stroke-linejoin="bevel" stroke-miterlimit="10" stroke-width="0.2"/>
  <polyline points="157.777 36.451 159.9 37.078 162.116 37.56 164.335 37.801 166.6 37.898 168.818 37.801 171.036 37.56 173.253 37.078 175.375 36.451" stroke-linejoin="round" stroke-miterlimit="10" stroke-width="0.2"/>
  <polyline points="148.955 36.402 149.581 36.837 150.305 37.222 151.027 37.512 151.8 37.704 152.572 37.848 153.342 37.898 154.114 37.848 154.885 37.704 155.656 37.512 156.379 37.222 157.104 36.837 157.729 36.402" stroke-linejoin="bevel" stroke-miterlimit="10" stroke-width="0.2"/>
  <polyline points="175.423 36.402 176.05 36.837 176.772 37.222 177.496 37.512 178.268 37.704 179.038 37.848 179.81 37.898 180.581 37.848 181.353 37.704 182.125 37.512 182.848 37.222 183.57 36.837 184.198 36.402" stroke-linejoin="bevel" stroke-miterlimit="10" stroke-width="0.2"/>
  <polyline points="157.729 30.039 157.104 29.605 156.379 29.219 155.656 28.929 154.885 28.736 154.114 28.593 153.342 28.545 152.572 28.593 151.8 28.736 151.027 28.929 150.306 29.219 149.581 29.605 148.955 30.039" stroke-linejoin="bevel" stroke-miterlimit="10" stroke-width="0.2"/>
  <polyline points="184.198 30.039 183.57 29.605 182.848 29.219 182.125 28.929 181.354 28.736 180.581 28.593 179.81 28.545 179.039 28.593 178.268 28.736 177.496 28.929 176.774 29.219 176.05 29.605 175.423 30.039" stroke-linejoin="bevel" stroke-miterlimit="10" stroke-width="0.2"/>
  <line stroke-linejoin="round" stroke-miterlimit="10" stroke-width="0.2" x1="178.701" x2="178.701" y1="13.839" y2="26.518"/>
  <line stroke-linejoin="round" stroke-miterlimit="10" stroke-width="0.2" x1="154.45" x2="154.45" y1="13.839" y2="26.518"/>
  <line stroke-linejoin="round" stroke-miterlimit="10" stroke-width="0.2" x1="155.078" x2="154.45" y1="13.164" y2="13.839"/>
  <line stroke-linejoin="round" stroke-miterlimit="10" stroke-width="0.2" x1="178.074" x2="178.7" y1="13.164" y2="13.839"/>
  <line stroke-linejoin="round" stroke-miterlimit="10" stroke-width="0.2" x1="154.45" x2="178.701" y1="26.518" y2="26.518"/>
  <line stroke-linejoin="round" stroke-miterlimit="10" stroke-width="0.2" x1="155.415" x2="155.415" y1="26.518" y2="28.495"/>
  <line stroke-linejoin="round" stroke-miterlimit="10" stroke-width="0.2" x1="154.211" x2="154.933" y1="50.77" y2="51.493"/>
  <line stroke-linejoin="round" stroke-miterlimit="10" stroke-width="0.2" x1="178.943" x2="178.219" y1="50.77" y2="51.493"/>
  <line stroke-linejoin="round" stroke-miterlimit="10" stroke-width="0.2" x1="148.183" x2="148.183" y1="86.59" y2="74.826"/>
  <line stroke-linejoin="round" stroke-miterlimit="10" stroke-width="0.2" x1="184.968" x2="184.968" y1="86.59" y2="74.826"/>
  <line stroke-linejoin="round" stroke-miterlimit="10" stroke-width="0.2" x1="175.76" x2="175.76" y1="86.59" y2="74.826"/>
  <line stroke-linejoin="round" stroke-miterlimit="10" stroke-width="0.2" x1="157.393" x2="157.393" y1="86.59" y2="74.826"/>
  <line stroke-linejoin="round" stroke-miterlimit="10" stroke-width="0.2" x1="152.812" x2="180.341" y1="87.796" y2="87.796"/>
  <line stroke-linejoin="round" stroke-miterlimit="10" stroke-width="0.2" x1="152.812" x2="180.341" y1="73.621" y2="73.621"/>
  <polyline points="157.393 74.826 156.525 74.441 155.608 74.103 154.693 73.862 153.776 73.718 152.812 73.67 151.848 73.718 150.931 73.862 150.015 74.103 149.099 74.441 148.231 74.826" stroke-linejoin="bevel" stroke-miterlimit="10" stroke-width="0.2"/>
  <polyline points="175.81 74.778 173.977 74.394 172.145 74.055 170.312 73.814 168.48 73.67 166.6 73.621 164.721 73.67 162.889 73.814 161.056 74.055 159.224 74.394 157.393 74.778" stroke-linejoin="bevel" stroke-miterlimit="10" stroke-width="0.2"/>
  <polyline points="184.92 74.826 184.052 74.441 183.137 74.103 182.221 73.862 181.306 73.718 180.341 73.67 179.377 73.718 178.461 73.862 177.544 74.103 176.628 74.441 175.76 74.826" stroke-linejoin="bevel" stroke-miterlimit="10" stroke-width="0.2"/>
  <polyline points="175.76 86.59 176.628 86.975 177.544 87.313 178.461 87.555 179.377 87.698 180.341 87.746 181.305 87.698 182.221 87.555 183.137 87.313 184.052 86.975 184.92 86.59" stroke-linejoin="bevel" stroke-miterlimit="10" stroke-width="0.2"/>
  <polyline points="157.393 86.638 159.223 87.024 161.056 87.361 162.889 87.602 164.719 87.746 166.6 87.796 168.48 87.746 170.312 87.602 172.145 87.361 173.977 87.024 175.81 86.638" stroke-linejoin="bevel" stroke-miterlimit="10" stroke-width="0.2"/>
  <polyline points="148.231 86.59 149.099 86.975 150.015 87.313 150.931 87.555 151.848 87.698 152.812 87.746 153.776 87.698 154.693 87.555 155.609 87.313 156.525 86.975 157.393 86.59" stroke-linejoin="bevel" stroke-miterlimit="10" stroke-width="0.2"/>
  <line stroke-linejoin="round" stroke-miterlimit="10" stroke-width="0.2" x1="182.51" x2="182.51" y1="59.496" y2="73.862"/>
  <polyline points="150.643 73.862 150.643 59.496 182.509 59.496" stroke-linejoin="round" stroke-miterlimit="10" stroke-width="0.2"/>
  <polyline points="182.51 101.921 150.643 101.921 150.643 87.555" stroke-linejoin="round" stroke-miterlimit="10" stroke-width="0.2"/>
  <line stroke-linejoin="round" stroke-miterlimit="10" stroke-width="0.2" x1="182.51" x2="182.51" y1="87.555" y2="101.921"/>
  <polyline points="149.727 109.78 183.425 109.78 183.425 112.721" stroke-linejoin="round" stroke-miterlimit="10" stroke-width="0.2"/>
  <polyline points="149.727 109.78 149.727 112.721 183.425 112.721" stroke-linejoin="round" stroke-miterlimit="10" stroke-width="0.2"/>
  <line stroke-linejoin="round" stroke-miterlimit="10" stroke-width="0.2" x1="154.548" x2="154.548" y1="109.78" y2="112.721"/>
  <line stroke-linejoin="round" stroke-miterlimit="10" stroke-width="0.2" x1="179.183" x2="179.183" y1="109.78" y2="112.721"/>
  <line stroke-linejoin="round" stroke-miterlimit="10" stroke-width="0.2" x1="153.969" x2="153.969" y1="109.78" y2="112.721"/>
  <line stroke-linejoin="round" stroke-miterlimit="10" stroke-width="0.2" x1="178.604" x2="178.604" y1="109.78" y2="112.721"/>
  <g>
   <path d="M178.604 109.78L179.183 112.721 178.604 112.721" fill="#231F20" stroke="none"/>
   <path d="M178.604 109.78L179.183 112.721L178.604 112.721" stroke-linejoin="round" stroke-miterlimit="10" stroke-width="0.2"/>
  </g>
  <g>
   <path d="M178.604 109.78L179.183 109.78 179.183 112.721" fill="#231F20" stroke="none"/>
   <path d="M178.604 109.78L179.183 109.78L179.183 112.721" stroke-linejoin="round" stroke-miterlimit="10" stroke-width="0.2"/>
  </g>
  <g>
   <path d="M153.969 109.78L154.548 112.721 153.969 112.721" fill="#231F20" stroke="none"/>
   <path d="M153.969 109.78L154.548 112.721L153.969 112.721" stroke-linejoin="round" stroke-miterlimit="10" stroke-width="0.2"/>
  </g>
  <g>
   <path d="M153.969 109.78L154.548 109.78 154.548 112.721" fill="#231F20" stroke="none"/>
   <path d="M153.969 109.78L154.548 109.78L154.548 112.721" stroke-linejoin="round" stroke-miterlimit="10" stroke-width="0.2"/>
  </g>
  <line stroke-linejoin="round" stroke-miterlimit="10" stroke-width="0.2" x1="151.848" x2="181.306" y1="174.334" y2="174.334"/>
  <line stroke-linejoin="round" stroke-miterlimit="10" stroke-width="0.2" x1="182.51" x2="182.51" y1="155.436" y2="173.128"/>
  <line stroke-linejoin="round" stroke-miterlimit="10" stroke-width="0.2" x1="150.643" x2="150.643" y1="155.436" y2="173.128"/>
  <line stroke-linejoin="round" stroke-miterlimit="10" stroke-width="0.2" x1="142.061" x2="142.061" y1="142.467" y2="150.711"/>
  <line stroke-linejoin="round" stroke-miterlimit="10" stroke-width="0.2" x1="191.092" x2="191.092" y1="142.467" y2="150.711"/>
  <line stroke-linejoin="round" stroke-miterlimit="10" stroke-width="0.2" x1="148.183" x2="184.968" y1="152.495" y2="152.495"/>
  <line stroke-linejoin="round" stroke-miterlimit="10" stroke-width="0.2" x1="148.183" x2="184.968" y1="140.731" y2="140.731"/>
  <line stroke-linejoin="round" stroke-miterlimit="10" stroke-width="0.2" x1="154.306" x2="154.306" y1="150.711" y2="142.467"/>
  <line stroke-linejoin="round" stroke-miterlimit="10" stroke-width="0.2" x1="178.846" x2="178.846" y1="150.711" y2="142.467"/>
  <polyline points="178.846 142.515 176.87 141.985 174.844 141.502 172.771 141.165 170.747 140.924 168.674 140.78 166.6 140.731 164.527 140.78 162.455 140.924 160.43 141.165 158.356 141.502 156.331 141.985 154.354 142.515" stroke-linejoin="bevel" stroke-miterlimit="10" stroke-width="0.2"/>
  <polyline points="154.306 142.515 153.342 141.985 152.377 141.55 151.366 141.165 150.306 140.924 149.245 140.78 148.183 140.731 147.122 140.78 146.062 140.924 145.002 141.165 143.99 141.55 143.025 141.985 142.062 142.515" stroke-linejoin="bevel" stroke-miterlimit="10" stroke-width="0.2"/>
  <polyline points="191.092 142.515 190.127 141.985 189.163 141.55 188.151 141.165 187.091 140.924 186.03 140.78 184.968 140.731 183.908 140.78 182.848 140.924 181.787 141.165 180.775 141.55 179.81 141.985 178.847 142.515" stroke-linejoin="bevel" stroke-miterlimit="10" stroke-width="0.2"/>
  <line stroke-linejoin="round" stroke-miterlimit="10" stroke-width="0.2" x1="150.643" x2="151.848" y1="173.128" y2="174.334"/>
  <line stroke-linejoin="round" stroke-miterlimit="10" stroke-width="0.2" x1="182.51" x2="181.306" y1="173.128" y2="174.334"/>
  <polygon points="151.414 183.061 151.366 182.675 151.221 182.288 150.979 181.951 150.643 181.711 150.258 181.566 149.872 181.518 149.485 181.566 149.099 181.711 148.762 181.951 148.52 182.288 148.377 182.675 148.329 183.061 148.377 183.447 148.52 183.831 148.762 184.169 149.099 184.411 149.485 184.556 149.872 184.604 150.258 184.556 150.643 184.411 150.979 184.169 151.221 183.831 151.366 183.447 151.414 183.061" stroke-linejoin="bevel" stroke-miterlimit="10" stroke-width="0.2"/>
  <polyline points="150.643 155.436 152.088 154.424 150.643 152.495" stroke-linejoin="round" stroke-miterlimit="10" stroke-width="0.2"/>
  <line stroke-linejoin="round" stroke-miterlimit="10" stroke-width="0.2" x1="150.643" x2="182.509" y1="155.436" y2="155.436"/>
  <polygon points="184.872 183.061 184.824 182.675 184.68 182.288 184.437 181.951 184.1 181.711 183.716 181.566 183.33 181.518 182.944 181.566 182.558 181.711 182.222 181.951 181.979 182.288 181.836 182.675 181.787 183.061 181.836 183.447 181.979 183.831 182.222 184.169 182.558 184.411 182.944 184.556 183.33 184.604 183.716 184.556 184.1 184.411 184.437 184.169 184.68 183.831 184.824 183.447 184.872 183.061" stroke-linejoin="bevel" stroke-miterlimit="10" stroke-width="0.2"/>
  <polyline points="182.51 155.436 181.063 154.424 182.51 152.495" stroke-linejoin="round" stroke-miterlimit="10" stroke-width="0.2"/>
  <line stroke-linejoin="round" stroke-miterlimit="10" stroke-width="0.2" x1="154.933" x2="178.219" y1="124.194" y2="124.194"/>
  <line stroke-linejoin="round" stroke-miterlimit="10" stroke-width="0.2" x1="178.943" x2="178.943" y1="138.948" y2="124.966"/>
  <line stroke-linejoin="round" stroke-miterlimit="10" stroke-width="0.2" x1="154.211" x2="154.211" y1="138.948" y2="124.966"/>
  <line stroke-linejoin="round" stroke-miterlimit="10" stroke-width="0.2" x1="154.211" x2="154.933" y1="124.965" y2="124.194"/>
  <line stroke-linejoin="round" stroke-miterlimit="10" stroke-width="0.2" x1="178.943" x2="178.219" y1="124.965" y2="124.194"/>
  <line stroke-linejoin="round" stroke-miterlimit="10" stroke-width="0.2" x1="154.211" x2="178.943" y1="138.948" y2="138.948"/>
  <line stroke-linejoin="round" stroke-miterlimit="10" stroke-width="0.2" x1="155.078" x2="155.078" y1="138.948" y2="140.731"/>
  <line stroke-linejoin="round" stroke-miterlimit="10" stroke-width="0.2" x1="178.074" x2="178.074" y1="138.948" y2="140.731"/>
  <polyline points="154.354 150.663 156.331 151.193 158.356 151.675 160.43 152.013 162.454 152.253 164.527 152.397 166.6 152.447 168.674 152.397 170.747 152.253 172.771 152.013 174.844 151.675 176.87 151.193 178.847 150.663" stroke-linejoin="bevel" stroke-miterlimit="10" stroke-width="0.2"/>
  <polyline points="142.061 150.711 143.026 151.241 143.99 151.675 145.002 152.061 146.062 152.301 147.122 152.447 148.183 152.495 149.245 152.447 150.306 152.301 151.366 152.061 152.378 151.675 153.342 151.241 154.306 150.711" stroke-linejoin="bevel" stroke-miterlimit="10" stroke-width="0.2"/>
  <polyline points="178.846 150.711 179.811 151.241 180.775 151.675 181.787 152.061 182.848 152.301 183.908 152.447 184.968 152.495 186.03 152.447 187.09 152.301 188.151 152.061 189.163 151.675 190.127 151.241 191.092 150.711" stroke-linejoin="bevel" stroke-miterlimit="10" stroke-width="0.2"/>
  <line stroke-linejoin="round" stroke-miterlimit="10" stroke-width="0.2" x1="149.871" x2="183.33" y1="181.518" y2="181.518"/>
  <line stroke-linejoin="round" stroke-miterlimit="10" stroke-width="0.2" x1="149.871" x2="183.33" y1="184.604" y2="184.604"/>
  <line stroke-linejoin="round" stroke-miterlimit="10" stroke-width="0.2" x1="138.012" x2="141.723" y1="27.675" y2="27.675"/>
  <line stroke-linejoin="round" stroke-miterlimit="10" stroke-width="0.2" x1="138.012" x2="141.723" y1="74.826" y2="74.826"/>
  <line stroke-linejoin="round" stroke-miterlimit="10" stroke-width="0.2" x1="138.012" x2="141.723" y1="138.466" y2="138.466"/>
  <line stroke-linejoin="round" stroke-miterlimit="10" stroke-width="0.2" x1="138.012" x2="141.723" y1="184.217" y2="184.217"/>
  <line stroke-linejoin="round" stroke-miterlimit="10" stroke-width="0.2" x1="138.012" x2="141.723" y1="110.84" y2="110.84"/>
  <g>
   <line stroke="#FFFFFF" stroke-linejoin="round" stroke-miterlimit="10" stroke-width="1" x1="151.593" x2="142.268" y1="32.29" y2="27.929"/>
   <line stroke-linejoin="round" stroke-miterlimit="10" stroke-width="0.2" x1="152.137" x2="141.723" y1="32.545" y2="27.675"/>
  </g>
  <g>
   <line stroke="#FFFFFF" stroke-linejoin="round" stroke-miterlimit="10" stroke-width="1" x1="151.795" x2="142.258" y1="79.953" y2="75.099"/>
   <line stroke-linejoin="round" stroke-miterlimit="10" stroke-width="0.2" x1="152.33" x2="141.723" y1="80.227" y2="74.826"/>
  </g>
  <g>
   <line stroke="#FFFFFF" stroke-linejoin="round" stroke-miterlimit="10" stroke-width="1" x1="150.574" x2="142.323" y1="111.292" y2="110.871"/>
   <line stroke-linejoin="round" stroke-miterlimit="10" stroke-width="0.2" x1="151.173" x2="141.723" y1="111.322" y2="110.84"/>
  </g>
  <g>
   <line stroke="#FFFFFF" stroke-linejoin="round" stroke-miterlimit="10" stroke-width="1" x1="146.818" x2="142.125" y1="144.141" y2="138.912"/>
   <line stroke-linejoin="round" stroke-miterlimit="10" stroke-width="0.2" x1="147.219" x2="141.723" y1="144.587" y2="138.466"/>
  </g>
  <g>
   <line stroke="#FFFFFF" stroke-linejoin="round" stroke-miterlimit="10" stroke-width="1" x1="149.085" x2="142.318" y1="183.192" y2="184.134"/>
   <line stroke-linejoin="round" stroke-miterlimit="10" stroke-width="0.2" x1="149.679" x2="141.723" y1="183.109" y2="184.217"/>
  </g>
  <line stroke-linejoin="round" stroke-miterlimit="10" stroke-width="0.2" x1="3.647" x2="7.408" y1="26.664" y2="26.664"/>
  <line stroke-linejoin="round" stroke-miterlimit="10" stroke-width="0.2" x1="3.647" x2="7.408" y1="147.818" y2="147.818"/>
  <g>
   <line stroke="#FFFFFF" stroke-linejoin="round" stroke-miterlimit="10" stroke-width="1" x1="24.08" x2="7.995" y1="23.077" y2="26.538"/>
   <line stroke-linejoin="round" stroke-miterlimit="10" stroke-width="0.2" x1="24.667" x2="7.408" y1="22.951" y2="26.664"/>
  </g>
  <g>
   <line stroke="#FFFFFF" stroke-linejoin="round" stroke-miterlimit="10" stroke-width="1" x1="22.67" x2="8.006" y1="148.978" y2="147.864"/>
   <line stroke-linejoin="round" stroke-miterlimit="10" stroke-width="0.2" x1="23.268" x2="7.408" y1="149.024" y2="147.818"/>
  </g>
  <line stroke-linejoin="round" stroke-miterlimit="10" stroke-width="0.2" x1="177.915" x2="177.915" y1="26.518" y2="28.495"/>
  <text fill="#000000" font-family="'Arial'" font-size="4.939" stroke="none" x="0" y="28.039">1</text>
  <text fill="#000000" font-family="'Arial'" font-size="4.939" stroke="none" x="0" y="148.881">2</text>
  <text fill="#000000" font-family="'Arial'" font-size="4.939" stroke="none" x="133.396" y="29.606">3</text>
  <text fill="#000000" font-family="'Arial'" font-size="4.939" stroke="none" x="133.396" y="76.963">4</text>
  <text fill="#000000" font-family="'Arial'" font-size="4.939" stroke="none" x="133.396" y="112.89">5</text>
  <text fill="#000000" font-family="'Arial'" font-size="4.939" stroke="none" x="133.396" y="140.242">6</text>
  <text fill="#000000" font-family="'Arial'" font-size="4.939" stroke="none" x="133.396" y="185.967">7</text>
 </g>
</svg>