<?xml version="1.0" encoding="UTF-8" standalone="no"?><!-- Generator: PTC Arbortext IsoDraw 7.3 M090 --><svg xmlns="http://www.w3.org/2000/svg" xmlns:xlink="http://www.w3.org/1999/xlink" clip-rule="evenodd" fill="none" fill-rule="evenodd" font-family="sans-serif" font-size="10" font-stretch="normal" font-style="normal" font-variant="normal" font-weight="normal" height="152.51" id="Standard_x0020_layer" onabort="parent.dwImageSVGOnAbort('VAB143369096');" onerror="parent.dwImageSVGOnError('VAB143369096');" onload="parent.dwImageSVGOnLoad('VAB143369096');" stroke="#000000" stroke-linecap="round" viewBox="0.0 0.0 171.972 152.51" width="171.972" x="0" xml:space="preserve" y="0">
 <g id="28755_0_MODEL">
  <desc>28755_0_MODEL</desc>
  <g id="28755_B_0">
   <desc>28755_B_0</desc>
   <g id="28755_B_0_2">
    <desc>28755_B_0_2</desc>
    <line stroke-width="0.13" x1="47.835" x2="47.365" y1="118.766" y2="118.495"/>
    <line stroke-width="0.13" x1="47.835" x2="47.365" y1="120.563" y2="120.292"/>
    <line stroke="#808080" stroke-width="0.1" x1="49.09" x2="49.09" y1="119.599" y2="116.219"/>
    <line stroke="#808080" stroke-width="0.1" x1="48.619" x2="49.09" y1="115.948" y2="116.219"/>
    <line stroke-width="0.13" x1="48.066" x2="47.595" y1="117.993" y2="117.722"/>
    <line stroke-width="0.13" x1="53.322" x2="52.851" y1="121.933" y2="121.662"/>
    <line stroke-width="0.13" x1="53.322" x2="52.851" y1="123.73" y2="123.459"/>
    <line stroke="#808080" stroke-width="0.1" x1="54.576" x2="54.576" y1="123.912" y2="119.387"/>
    <line stroke="#808080" stroke-width="0.1" x1="54.106" x2="54.576" y1="119.115" y2="119.387"/>
    <line stroke-width="0.13" x1="53.551" x2="53.082" y1="121.162" y2="120.89"/>
    <line stroke-width="0.13" x1="5.516" x2="5.046" y1="94.332" y2="94.061"/>
    <line stroke-width="0.13" x1="5.746" x2="5.275" y1="93.561" y2="93.289"/>
    <line stroke-width="0.13" x1="5.516" x2="5.046" y1="96.129" y2="95.858"/>
    <line stroke="#808080" stroke-width="0.1" x1="6.769" x2="6.769" y1="95.165" y2="91.787"/>
    <line stroke="#808080" stroke-width="0.1" x1="6.299" x2="6.769" y1="91.515" y2="91.787"/>
    <line stroke-width="0.13" x1="11.002" x2="10.532" y1="97.501" y2="97.228"/>
    <line stroke-width="0.13" x1="11.231" x2="10.762" y1="96.727" y2="96.456"/>
    <line stroke="#808080" stroke-width="0.1" x1="12.256" x2="11.785" y1="94.953" y2="94.682"/>
    <line stroke="#808080" stroke-width="0.1" x1="12.256" x2="12.256" y1="99.478" y2="94.953"/>
    <line stroke-width="0.13" x1="11.002" x2="10.532" y1="99.298" y2="99.025"/>
    <line stroke-width="0.13" x1="61.786" x2="61.786" y1="88.337" y2="87.533"/>
    <line stroke-width="0.13" x1="44.545" x2="44.545" y1="78.302" y2="77.578"/>
    <line stroke-width="0.13" x1="41.409" x2="41.409" y1="77.578" y2="78.212"/>
    <line stroke-width="0.13" x1="32.006" x2="32.006" y1="83.009" y2="84.817"/>
    <path d="M47.914 120.98L47.557 120.774C47.405 120.677 47.368 120.454 47.365 120.292L47.365 119.849L47.365 118.938L47.365 118.495L47.372 118.371C47.414 117.986 47.628 117.667 47.817 117.338L48.399 116.332L48.619 115.948" stroke-width="0.25"/>
    <path d="M47.914 120.909C47.783 120.709 47.835 120.313 47.835 120.12L47.835 119.209L47.835 118.766L47.843 118.644C47.884 118.257 48.097 117.938 48.287 117.611L48.868 116.603L49.09 116.219" stroke="#808080" stroke-width="0.1"/>
    <path d="M54.576 123.912C54.322 124.058 54.076 124.246 53.78 124.29C53.576 124.278 53.521 124.216 53.317 124.099L53.043 123.941C52.892 123.843 52.854 123.623 52.851 123.459L52.851 123.016L52.851 122.105L52.851 121.662L52.859 121.54C52.899 121.153 53.113 120.834 53.302 120.506L53.884 119.5L54.106 119.115" stroke-width="0.25"/>
    <path d="M53.514 124.212C53.259 123.968 53.322 123.612 53.322 123.287L53.322 122.378L53.322 121.933L53.329 121.811C53.371 121.426 53.584 121.105 53.774 120.778L54.354 119.771L54.576 119.387" stroke="#808080" stroke-width="0.1"/>
    <path d="M5.594 96.546L5.237 96.34C5.086 96.243 5.048 96.022 5.046 95.858L5.046 95.415L5.046 94.504L5.046 94.061L5.052 93.938C5.094 93.552 5.307 93.233 5.496 92.905L6.078 91.899L6.299 91.515" stroke-width="0.25"/>
    <path d="M5.594 96.477C5.463 96.275 5.516 95.881 5.516 95.686L5.516 94.777L5.516 94.332L5.522 94.209C5.564 93.825 5.778 93.504 5.966 93.177L6.549 92.171L6.769 91.787" stroke="#808080" stroke-width="0.1"/>
    <path d="M12.256 99.478C12.002 99.626 11.756 99.813 11.46 99.855C11.256 99.844 11.201 99.784 10.997 99.667L10.723 99.507C10.571 99.409 10.534 99.191 10.532 99.025L10.532 98.582L10.532 97.671L10.532 97.228L10.538 97.105C10.58 96.719 10.794 96.4 10.983 96.072L11.564 95.066L11.785 94.682" stroke-width="0.25"/>
    <path d="M11.194 99.78C10.939 99.534 11.002 99.179 11.002 98.853L11.002 97.944L11.002 97.501L11.009 97.378C11.05 96.992 11.263 96.671 11.452 96.343L12.035 95.337L12.256 94.953" stroke="#808080" stroke-width="0.1"/>
    <path d="M62.435 88.438C62.417 88.287 62.426 88.248 62.36 88.108C62.176 87.712 61.758 87.516 61.402 87.311L44.929 77.801C44.762 77.704 44.515 77.552 44.323 77.466C43.895 77.277 43.441 77.221 42.976 77.203C42.512 77.221 42.06 77.277 41.631 77.466C41.439 77.552 41.192 77.704 41.026 77.801L32.39 82.787C32.033 82.992 31.614 83.186 31.431 83.582C31.365 83.724 31.373 83.762 31.356 83.914" stroke="#808080" stroke-width="0.1"/>
    <path d="M62.435 88.438C62.417 88.59 62.426 88.626 62.36 88.769C62.176 89.165 61.758 89.358 61.402 89.564L52.765 94.551C52.6 94.647 52.351 94.799 52.161 94.884C51.731 95.073 51.279 95.129 50.814 95.147C50.35 95.129 49.896 95.073 49.468 94.884C49.277 94.799 49.029 94.647 48.862 94.551L32.39 85.04C32.033 84.834 31.614 84.64 31.431 84.243C31.365 84.102 31.373 84.064 31.356 83.914" stroke-width="0.25"/>
    <path d="M1.575 77.578C1.593 77.73 1.585 77.768 1.651 77.909C1.834 78.305 2.253 78.5 2.609 78.706L59.835 111.745C60.195 111.953 60.53 112.147 60.939 112.245C61.576 112.396 62.271 112.376 62.893 112.171C63.198 112.069 63.46 111.905 63.737 111.745L84.914 99.519C85.343 99.271 85.947 98.977 85.947 98.393C85.947 98.278 85.918 98.165 85.871 98.061C85.819 97.947 85.739 97.841 85.65 97.754C85.442 97.545 85.165 97.411 84.914 97.266L27.687 64.225C27.521 64.129 27.274 63.978 27.082 63.893C26.652 63.703 26.199 63.648 25.736 63.63C25.271 63.648 24.818 63.703 24.388 63.893C24.198 63.978 23.951 64.131 23.785 64.225L2.609 76.451C2.253 76.658 1.834 76.852 1.651 77.248C1.585 77.39 1.593 77.427 1.575 77.578z" stroke-width="0.13"/>
    <path d="M2.225 78.483C1.812 78.756 1.507 79.209 1.449 79.707L1.441 79.84L1.441 80.284L1.441 92.971L1.441 93.415" stroke-width="0.13"/>
    <path d="M0.467 78.483C0.486 78.679 0.477 78.724 0.55 78.911C0.775 79.48 1.324 79.774 1.825 80.063L59.051 113.102C59.25 113.216 59.499 113.368 59.713 113.468C60.024 113.611 60.353 113.71 60.688 113.778C61.628 113.968 62.649 113.921 63.555 113.591C63.899 113.466 64.204 113.284 64.522 113.102L85.697 100.876C86.197 100.587 86.746 100.293 86.971 99.724C87.045 99.539 87.036 99.492 87.055 99.298" stroke-width="0.13"/>
    <path d="M86.081 114.228L86.081 113.786L86.081 101.097L86.081 100.655L86.072 100.522C86.016 100.024 85.71 99.569 85.298 99.298" stroke-width="0.13"/>
    <path d="M63.353 111.966C63.731 112.216 64.007 112.605 64.105 113.052C64.156 113.284 64.138 113.534 64.138 113.768L64.138 126.454L64.138 126.899" stroke-width="0.13"/>
    <path d="M59.435 126.899L59.435 126.454L59.435 113.768C59.435 113.534 59.415 113.284 59.466 113.052C59.564 112.605 59.841 112.216 60.219 111.966" stroke-width="0.13"/>
    <path d="M85.298 97.487C85.472 97.4 85.618 97.356 85.811 97.412" stroke-width="0.13"/>
    <path d="M27.303 64.004C27.478 63.917 27.625 63.874 27.817 63.929" stroke-width="0.13"/>
    <path d="M24.167 64.004C24.056 63.95 23.966 63.917 23.843 63.898C23.713 63.905 23.775 63.895 23.655 63.929" stroke-width="0.13"/>
    <path d="M2.225 76.674C2.112 76.618 2.021 76.585 1.899 76.567C1.77 76.575 1.831 76.563 1.71 76.599" stroke-width="0.13"/>
    <path d="M87.055 113.746L87.055 113.304L87.055 99.74C87.055 99.442 87.066 99.162 87.003 98.87C86.891 98.352 86.528 97.899 86.103 97.596L85.89 97.457L85.506 97.236L28.199 64.15C27.917 63.987 27.644 63.82 27.338 63.706C26.868 63.53 26.381 63.46 25.882 63.429C25.286 63.429 24.696 63.494 24.132 63.706C23.826 63.82 23.553 63.987 23.271 64.15L2.016 76.423L1.632 76.644L1.417 76.781C0.993 77.084 0.631 77.537 0.519 78.057C0.456 78.347 0.467 78.629 0.467 78.927L0.467 92.489L0.467 92.933" stroke-width="0.25"/>
   </g>
   <g id="28755_B_0_1">
    <desc>28755_B_0_1</desc>
    <line stroke="#808080" stroke-width="0.1" x1="52.033" x2="51.049" y1="94.933" y2="94.365"/>
    <line stroke-width="0.25" x1="51.049" x2="51.049" y1="95.138" y2="94.365"/>
    <line stroke="#808080" stroke-width="0.1" x1="33.494" x2="33.494" y1="85.677" y2="84.23"/>
    <line stroke="#808080" stroke-width="0.1" x1="32.24" x2="33.494" y1="83.506" y2="84.23"/>
    <line stroke-width="0.13" x1="60.14" x2="60.14" y1="89.117" y2="88.754"/>
    <line stroke-width="0.13" x1="43.055" x2="43.055" y1="80.338" y2="78.891"/>
    <line stroke-width="0.25" x1="32.24" x2="33.494" y1="84.953" y2="85.677"/>
    <line stroke-width="0.25" x1="32.24" x2="32.24" y1="83.506" y2="84.953"/>
    <line stroke-width="0.13" x1="42.741" x2="42.741" y1="78.891" y2="80.338"/>
    <path d="M60.268 88.918C60.268 89.01 60.218 89.07 60.14 89.117L59.756 89.338L51.433 94.144L51.049 94.365" stroke-width="0.25"/>
    <path d="M60.268 88.918C60.219 88.718 59.868 88.596 59.756 88.533L43.439 79.112C43.259 79.009 43.094 78.853 42.88 78.853C42.686 78.873 42.515 79.022 42.357 79.112L33.878 84.009L33.494 84.23" stroke="#808080" stroke-width="0.1"/>
    <path d="M59.2 89.659L58.816 89.438L43.439 80.561C43.259 80.456 43.094 80.302 42.88 80.302C42.686 80.322 42.515 80.469 42.357 80.561L33.878 85.456L33.494 85.677" stroke-width="0.25"/>
    <path d="M62.043 89.159C62.043 88.998 62.054 88.84 62 88.686C61.847 88.24 61.387 88.027 61.011 87.808L44.694 78.388C44.469 78.259 44.249 78.117 44.006 78.024C43.649 77.885 43.277 77.84 42.899 77.829C42.52 77.84 42.148 77.885 41.79 78.024C41.548 78.117 41.329 78.259 41.104 78.388L32.625 83.284L32.24 83.506" stroke-width="0.25"/>
    <path d="M62.043 88.936C62.036 89.03 62.031 89.114 61.993 89.203" stroke="#808080" stroke-width="0.1"/>
   </g>
  </g>
  <g id="28755_A_0">
   <desc>28755_A_0</desc>
   <line stroke-width="0.13" x1="10.297" x2="5.594" y1="98.618" y2="95.903"/>
   <line stroke-width="0.13" x1="10.532" x2="5.908" y1="98.031" y2="95.361"/>
   <line stroke-width="0.13" x1="10.297" x2="5.594" y1="101.025" y2="98.31"/>
   <line stroke="#808080" stroke-width="0.1" x1="11.394" x2="11.394" y1="99.852" y2="100.519"/>
   <line stroke-width="0.13" x1="47.914" x2="11.628" y1="121.683" y2="100.733"/>
   <line stroke-width="0.13" x1="10.532" x2="6.378" y1="97.487" y2="95.09"/>
   <line stroke-width="0.13" x1="1.205" x2="1.205" y1="94.637" y2="93.551"/>
   <line stroke-width="0.13" x1="86.316" x2="86.316" y1="114.364" y2="115.45"/>
   <line stroke-width="0.13" x1="59.2" x2="59.2" y1="127.034" y2="128.12"/>
   <line stroke-width="0.13" x1="64.373" x2="64.373" y1="127.034" y2="128.12"/>
   <line stroke-width="0.25" x1="1.632" x2="59.627" y1="109.281" y2="142.764"/>
   <line stroke-width="0.13" x1="52.616" x2="47.914" y1="123.052" y2="120.337"/>
   <line stroke-width="0.13" x1="52.851" x2="48.228" y1="122.463" y2="119.795"/>
   <line stroke-width="0.13" x1="52.616" x2="47.914" y1="125.459" y2="122.743"/>
   <line stroke="#808080" stroke-width="0.1" x1="53.713" x2="53.713" y1="124.286" y2="124.953"/>
   <line stroke-width="0.25" x1="47.365" x2="12.099" y1="119.93" y2="99.569"/>
   <line stroke-width="0.13" x1="52.851" x2="48.698" y1="121.921" y2="119.522"/>
   <line stroke-width="0.25" x1="47.914" x2="11.394" y1="121.605" y2="100.519"/>
   <line stroke="#808080" stroke-width="0.1" x1="47.365" x2="11.864" y1="120.201" y2="99.704"/>
   <path d="M52.851 121.771L52.468 121.549L49.304 119.722C49.155 119.637 49.002 119.489 48.819 119.48C48.683 119.512 48.588 119.587 48.463 119.659L48.228 119.795L48.164 119.838C47.868 120.078 47.914 120.435 47.914 120.781L47.914 122.299C47.914 122.71 47.874 123.171 48.125 123.528C48.277 123.743 48.537 123.852 48.758 123.98L53.564 126.756L53.948 126.977" stroke-width="0.25"/>
   <path d="M87.055 112.871C87.036 113.066 87.046 113.111 86.971 113.296C86.748 113.867 86.197 114.162 85.697 114.45L64.522 126.677C64.204 126.859 63.898 127.043 63.551 127.168C62.979 127.375 62.39 127.441 61.786 127.46C61.182 127.441 60.593 127.375 60.021 127.168C59.674 127.043 59.368 126.859 59.051 126.677L54.804 124.224L54.42 124.003" stroke-width="0.25"/>
   <path d="M10.532 97.337L10.147 97.115L6.984 95.289C6.833 95.203 6.682 95.055 6.498 95.048C6.363 95.078 6.267 95.153 6.142 95.224L5.908 95.361L5.844 95.405C5.548 95.646 5.594 96.001 5.594 96.346L5.594 97.867C5.594 98.278 5.554 98.736 5.804 99.093C5.956 99.311 6.217 99.42 6.437 99.546L11.244 102.322L11.628 102.543" stroke-width="0.25"/>
   <path d="M11.628 102.543L11.628 102.1L11.628 101.177L11.628 100.733L11.617 100.647" stroke="#808080" stroke-width="0.1"/>
   <path d="M10.532 98.134C10.484 98.177 10.477 98.18 10.435 98.237C10.25 98.486 10.297 98.762 10.297 99.061L10.297 100.581C10.297 100.992 10.256 101.451 10.506 101.808C10.596 101.936 10.632 101.948 10.756 102.04" stroke="#808080" stroke-width="0.1"/>
   <path d="M1.632 109.281C1.378 109.036 1.441 108.682 1.441 108.355L1.441 95.295L1.441 94.852L1.429 94.766" stroke-width="0.13"/>
   <path d="M5.594 97.25L5.211 97.028L1.825 95.073C1.494 94.882 1.159 94.706 0.893 94.429" stroke-width="0.13"/>
   <path d="M87.055 128.256C87.036 128.45 87.045 128.497 86.971 128.682C86.746 129.252 86.197 129.545 85.697 129.835L64.522 142.061C64.204 142.242 63.899 142.425 63.555 142.55C62.981 142.758 62.392 142.824 61.786 142.844C61.18 142.824 60.591 142.758 60.018 142.55C59.673 142.425 59.368 142.242 59.051 142.061L1.825 109.021C1.324 108.733 0.775 108.438 0.55 107.868C0.477 107.683 0.486 107.638 0.467 107.441" stroke-width="0.13"/>
   <path d="M86.093 115.579L86.081 115.665L86.081 116.108L86.081 129.169C86.081 129.496 86.144 129.849 85.89 130.094" stroke-width="0.13"/>
   <path d="M53.948 125.168L54.332 125.388L59.051 128.112C59.368 128.295 59.673 128.478 60.018 128.603C61.029 128.969 62.195 128.995 63.228 128.706C63.698 128.576 64.102 128.355 64.522 128.112L85.697 115.887C86.028 115.695 86.361 115.521 86.629 115.242" stroke-width="0.13"/>
   <path d="M59.627 142.764C59.372 142.52 59.435 142.164 59.435 141.838L59.435 128.777C59.435 128.671 59.466 128.394 59.418 128.233" stroke-width="0.13"/>
   <path d="M64.153 128.233C64.106 128.394 64.138 128.671 64.138 128.777L64.138 141.838C64.138 142.164 64.2 142.52 63.945 142.764" stroke-width="0.13"/>
   <path d="M5.594 97.171L5.211 96.948L1.589 94.858C0.992 94.513 0.302 94.121 0.158 93.379C0.102 93.093 0.135 92.792 0.135 92.501C0.135 92.189 0.109 91.885 0.226 91.59C0.305 91.39 0.348 91.349 0.467 91.183" stroke-width="0.25"/>
   <path d="M0.467 94.019L0.467 94.462L0.467 106.998C0.467 107.296 0.456 107.578 0.519 107.87C0.659 108.516 1.157 109.007 1.71 109.326" stroke-width="0.25"/>
   <path d="M59.628 142.765C60.74 143.407 62.192 143.483 63.389 143.033C63.695 142.919 63.968 142.752 64.251 142.588L85.506 130.317L85.89 130.094L86.103 129.959C86.528 129.656 86.891 129.203 87.003 128.683C87.066 128.391 87.055 128.11 87.055 127.813L87.055 115.275L87.055 114.832" stroke-width="0.25"/>
   <path d="M53.713 124.953L54.097 125.174L58.816 127.899C59.151 128.092 59.475 128.282 59.841 128.414C60.954 128.818 62.234 128.846 63.372 128.53C63.875 128.389 64.308 128.157 64.757 127.899L85.933 115.673C86.403 115.4 86.891 115.135 87.183 114.655C87.269 114.513 87.332 114.358 87.364 114.194C87.402 114.003 87.388 113.677 87.388 113.513C87.388 113.144 87.435 112.756 87.296 112.403C87.218 112.203 87.174 112.164 87.055 111.996" stroke-width="0.25"/>
   <path d="M5.046 95.768L4.661 95.546L1.589 93.772C1.05 93.462 0.467 93.138 0.226 92.525C0.145 92.32 0.155 92.272 0.135 92.058" stroke="#808080" stroke-width="0.1"/>
   <path d="M53.948 126.977L53.948 126.534L53.948 125.611L53.948 125.168L53.938 125.081" stroke="#808080" stroke-width="0.1"/>
   <path d="M87.388 112.871C87.367 113.087 87.376 113.135 87.296 113.34C87.055 113.951 86.471 114.275 85.933 114.587L64.757 126.813C64.421 127.006 64.094 127.197 63.728 127.329C63.1 127.558 62.451 127.631 61.786 127.653C61.121 127.631 60.472 127.558 59.844 127.329C59.478 127.197 59.152 127.006 58.816 126.813L54.567 124.359L54.185 124.138" stroke="#808080" stroke-width="0.1"/>
   <path d="M5.046 95.496L4.661 95.275L1.825 93.637C1.324 93.347 0.774 93.052 0.55 92.483C0.477 92.298 0.486 92.253 0.467 92.058" stroke-width="0.25"/>
   <path d="M53.076 126.472C52.954 126.382 52.917 126.37 52.826 126.242C52.576 125.885 52.616 125.426 52.616 125.015L52.616 123.495C52.616 123.195 52.572 122.921 52.756 122.671C52.798 122.614 52.804 122.611 52.851 122.567" stroke="#808080" stroke-width="0.1"/>
  </g>
 </g>
 <g id="26890_0_MODEL">
  <desc>26890_0_MODEL</desc>
  <g id="26890_A_0">
   <desc>26890_A_0</desc>
   <line stroke-width="0.25" x1="69.695" x2="69.454" y1="21.794" y2="21.951"/>
   <line stroke-width="0.13" x1="155.545" x2="155.545" y1="45.811" y2="44.725"/>
   <line stroke-width="0.13" x1="155.502" x2="155.531" y1="45.813" y2="45.82"/>
   <line stroke-width="0.13" x1="128.429" x2="128.429" y1="57.395" y2="58.481"/>
   <line stroke-width="0.13" x1="128.429" x2="128.414" y1="58.469" y2="58.472"/>
   <line stroke-width="0.13" x1="128.457" x2="128.429" y1="58.473" y2="58.481"/>
   <line stroke-width="0.13" x1="133.602" x2="133.602" y1="58.481" y2="57.395"/>
   <line stroke-width="0.13" x1="133.616" x2="133.602" y1="58.472" y2="58.469"/>
   <line stroke-width="0.13" x1="133.574" x2="133.602" y1="58.473" y2="58.481"/>
   <line stroke-width="0.13" x1="70.435" x2="70.435" y1="24.998" y2="23.911"/>
   <line stroke-width="0.13" x1="70.478" x2="70.448" y1="25" y2="25.006"/>
   <line stroke-width="0.13" x1="70.463" x2="70.435" y1="24.99" y2="24.998"/>
   <line stroke-width="0.13" x1="155.545" x2="155.516" y1="45.811" y2="45.804"/>
   <line stroke-width="0.13" x1="79.525" x2="74.823" y1="28.98" y2="26.265"/>
   <line stroke-width="0.13" x1="79.76" x2="75.137" y1="28.39" y2="25.722"/>
   <line stroke-width="0.13" x1="79.525" x2="74.823" y1="31.376" y2="28.661"/>
   <line stroke="#808080" stroke-width="0.1" x1="80.623" x2="80.623" y1="30.213" y2="30.879"/>
   <line stroke-width="0.13" x1="117.144" x2="80.873" y1="52.018" y2="31.077"/>
   <line stroke-width="0.13" x1="79.76" x2="75.608" y1="27.847" y2="25.449"/>
   <line stroke="#808080" stroke-width="0.1" x1="122.944" x2="122.944" y1="55.314" y2="54.646"/>
   <line stroke-width="0.13" x1="121.846" x2="117.144" y1="53.412" y2="50.698"/>
   <line stroke-width="0.13" x1="122.081" x2="117.457" y1="52.825" y2="50.155"/>
   <line stroke-width="0.13" x1="121.846" x2="117.144" y1="55.81" y2="53.094"/>
   <line stroke-width="0.13" x1="122.081" x2="117.927" y1="52.281" y2="49.884"/>
   <line stroke-width="0.25" x1="117.144" x2="80.623" y1="51.965" y2="30.879"/>
   <line stroke="#808080" stroke-width="0.1" x1="116.594" x2="81.093" y1="50.563" y2="30.065"/>
   <path d="M122.081 52.131L121.697 51.909L118.533 50.084C118.384 49.996 118.231 49.85 118.049 49.841C117.914 49.872 117.816 49.948 117.692 50.02L117.457 50.155L117.394 50.198C117.096 50.439 117.144 50.795 117.144 51.142L117.144 52.651C117.144 53.084 117.099 53.588 117.405 53.944C117.558 54.122 117.838 54.243 118.025 54.351L121.96 56.624L122.344 56.844C122.637 57.003 122.951 57.149 123.248 57.296" stroke-width="0.25"/>
   <path d="M156.283 42.356C156.403 42.524 156.447 42.564 156.526 42.764C156.664 43.118 156.616 43.509 156.616 43.88C156.616 44.051 156.632 44.365 156.592 44.561C156.56 44.725 156.495 44.878 156.407 45.021C156.116 45.499 155.631 45.762 155.162 46.033L133.985 58.259C133.651 58.453 133.325 58.643 132.961 58.776C132.328 59.005 131.675 59.079 131.007 59.098C130.342 59.076 129.693 59.003 129.062 58.773C128.7 58.64 128.377 58.451 128.045 58.259L123.326 55.534L122.944 55.314" stroke-width="0.25"/>
   <path d="M132.927 82.355L133.157 82.239L133.54 82.016L153.253 70.634L153.638 70.412L153.844 70.28C154.264 69.98 154.629 69.543 154.747 69.031C154.812 68.751 154.814 68.459 154.831 68.173L156.189 45.716L156.217 45.274" stroke-width="0.25"/>
   <path d="M69.763 24.46L69.79 24.902L71.149 47.359C71.165 47.645 71.168 47.938 71.233 48.218C71.35 48.728 71.716 49.167 72.135 49.466C72.304 49.585 72.579 49.737 72.74 49.829L128.475 82.007C128.786 82.186 129.087 82.373 129.424 82.5C130.562 82.926 131.949 82.867 133.026 82.305" stroke-width="0.25"/>
   <path d="M69.695 21.544C69.576 21.71 69.534 21.751 69.454 21.951C69.338 22.245 69.364 22.55 69.364 22.861C69.364 23.15 69.331 23.451 69.385 23.736C69.528 24.481 70.219 24.873 70.819 25.219L74.439 27.309L74.823 27.532" stroke-width="0.25"/>
   <path d="M153.633 70.415C153.784 70.328 153.822 70.114 153.831 69.959L153.859 69.516L155.253 46.46L155.28 46.017L155.287 45.96" stroke-width="0.13"/>
   <path d="M155.718 45.7C155.454 45.918 155.193 46.067 154.895 46.238L133.748 58.448C133.427 58.634 133.125 58.814 132.771 58.939C132.203 59.143 131.616 59.209 131.015 59.228C130.414 59.209 129.829 59.143 129.258 58.939C128.906 58.814 128.604 58.634 128.282 58.448L123.578 55.731L123.194 55.511" stroke-width="0.13"/>
   <path d="M128.86 82.228C128.606 81.992 128.665 81.653 128.665 81.331L128.665 59.112L128.665 58.67L128.656 58.597" stroke-width="0.13"/>
   <path d="M71.197 48.015C71.254 48.212 71.254 48.255 71.361 48.432C71.634 48.878 72.096 49.115 72.531 49.366L128.282 81.554C128.449 81.65 128.752 81.831 128.943 81.921C129.253 82.067 129.582 82.171 129.918 82.239C130.859 82.435 131.879 82.385 132.782 82.049C133.127 81.921 133.432 81.736 133.748 81.554L153.448 70.18C153.883 69.929 154.347 69.691 154.618 69.246C154.727 69.069 154.727 69.025 154.783 68.829" stroke-width="0.13"/>
   <path d="M133.376 58.597L133.365 58.67L133.365 59.112L133.365 81.331C133.365 81.561 133.411 81.882 133.282 82.102C133.237 82.177 133.219 82.185 133.157 82.239" stroke-width="0.13"/>
   <path d="M70.694 25.146L70.7 25.202L70.727 25.646L72.121 48.703C72.141 49.018 72.093 49.383 72.356 49.609" stroke-width="0.13"/>
   <path d="M70.26 24.885C70.527 25.103 70.787 25.254 71.084 25.425L74.439 27.361L74.823 27.583" stroke-width="0.13"/>
   <path d="M79.76 27.698L79.376 27.477L76.212 25.649C76.063 25.564 75.911 25.417 75.727 25.408C75.593 25.439 75.496 25.513 75.371 25.585L75.137 25.722L75.073 25.765C74.777 26.007 74.823 26.361 74.823 26.707L74.823 28.217C74.823 28.65 74.778 29.155 75.084 29.51C75.239 29.689 75.518 29.809 75.706 29.919L79.641 32.189L80.025 32.411C80.316 32.569 80.632 32.715 80.929 32.863" stroke-width="0.25"/>
   <path d="M80.929 32.863L80.915 32.42L80.888 31.519L80.873 31.077L80.867 31.021" stroke="#808080" stroke-width="0.1"/>
   <path d="M80.025 32.411C79.911 32.34 79.876 32.329 79.787 32.225C79.481 31.87 79.525 31.365 79.525 30.932L79.525 29.422C79.525 29.123 79.48 28.847 79.665 28.599C79.707 28.541 79.713 28.538 79.76 28.495" stroke="#808080" stroke-width="0.1"/>
   <path d="M123.248 57.296L123.236 56.853L123.207 55.954L123.194 55.511L123.186 55.454" stroke="#808080" stroke-width="0.1"/>
   <path d="M74.275 26.129L73.891 25.907L70.819 24.132C70.28 23.821 69.695 23.498 69.454 22.887C69.373 22.681 69.385 22.634 69.364 22.419" stroke="#808080" stroke-width="0.1"/>
   <path d="M156.616 43.231C156.596 43.447 156.605 43.496 156.526 43.701C156.284 44.313 155.7 44.636 155.162 44.947L133.985 57.173C133.65 57.366 133.324 57.558 132.957 57.691C132.329 57.918 131.68 57.991 131.015 58.012C130.35 57.991 129.701 57.918 129.073 57.691C128.706 57.558 128.381 57.366 128.045 57.173L123.798 54.72L123.414 54.499" stroke="#808080" stroke-width="0.1"/>
   <path d="M122.344 56.844C122.23 56.773 122.195 56.762 122.106 56.658C121.802 56.304 121.846 55.798 121.846 55.365L121.846 53.856C121.846 53.555 121.801 53.281 121.984 53.031C122.028 52.975 122.034 52.972 122.081 52.929" stroke="#808080" stroke-width="0.1"/>
  </g>
  <g id="26890_B_0">
   <desc>26890_B_0</desc>
   <g id="26890_B_0_2">
    <desc>26890_B_0_2</desc>
    <line stroke-width="0.25" x1="106.043" x2="106.043" y1="19.222" y2="21.032"/>
    <line stroke-width="0.25" x1="96.638" x2="106.043" y1="26.461" y2="21.032"/>
    <line stroke-width="0.25" x1="124.539" x2="122.971" y1="29.9" y2="28.995"/>
    <line stroke-width="0.25" x1="124.539" x2="124.539" y1="30.31" y2="29.9"/>
    <line stroke-width="0.25" x1="104.475" x2="106.043" y1="18.318" y2="19.222"/>
    <line stroke-width="0.13" x1="96.638" x2="96.638" y1="24.652" y2="26.461"/>
    <line stroke-width="0.13" x1="95.072" x2="95.072" y1="29.176" y2="27.367"/>
    <line stroke-width="0.13" x1="108.864" x2="108.864" y1="37.14" y2="35.331"/>
    <line stroke-width="0.13" x1="115.135" x2="115.135" y1="35.331" y2="35.74"/>
    <path d="M122.971 28.995L122.587 29.217L113.95 34.204C113.715 34.34 113.486 34.487 113.23 34.585C112.834 34.737 112.421 34.787 112 34.799C111.578 34.787 111.165 34.737 110.769 34.585C110.513 34.487 110.284 34.34 110.049 34.204L97.022 26.684C96.647 26.466 96.186 26.251 96.033 25.806C95.995 25.698 96 25.67 95.989 25.556" stroke-width="0.25"/>
    <path d="M111.447 37.868C110.733 37.807 110.031 37.673 109.368 37.39C109.058 37.258 108.772 37.087 108.48 36.918L95.456 29.399C94.971 29.118 94.486 28.844 94.143 28.39C93.942 28.126 93.79 27.798 93.777 27.463L93.777 27.018L93.777 25.905C93.777 25.658 93.757 25.495 93.801 25.271C93.867 24.926 94.052 24.617 94.286 24.361C94.617 24.001 95.036 23.768 95.456 23.525L104.091 18.539L104.475 18.318" stroke-width="0.25"/>
    <path d="M124.539 29.9L124.155 30.123L115.519 35.109C115.227 35.277 114.941 35.448 114.631 35.581C113.846 35.914 113.01 36.042 112.165 36.078C111.305 36.078 110.454 35.982 109.641 35.688C109.23 35.539 108.859 35.328 108.48 35.109L95.456 27.588C94.853 27.24 94.228 26.876 93.924 26.219C93.838 26.033 93.802 25.853 93.777 25.652" stroke="#808080" stroke-width="0.1"/>
    <path d="M106.043 19.222L105.659 19.443L97.022 24.429C96.647 24.647 96.186 24.862 96.033 25.307C95.995 25.416 96 25.443 95.989 25.556" stroke="#808080" stroke-width="0.1"/>
   </g>
   <g id="26890_B_0_1">
    <desc>26890_B_0_1</desc>
    <line stroke-width="0.13" x1="110.316" x2="90.263" y1="40.331" y2="28.753"/>
    <line stroke-width="0.13" x1="88.694" x2="110.638" y1="29.658" y2="42.328"/>
    <line stroke-width="0.25" x1="125.391" x2="125.391" y1="29.58" y2="29.664"/>
    <line stroke-width="0.25" x1="125.391" x2="125.403" y1="29.664" y2="29.597"/>
    <line stroke-width="0.25" x1="125.391" x2="125.391" y1="29.664" y2="29.58"/>
    <line stroke-width="0.25" x1="125.417" x2="125.353" y1="29.628" y2="29.739"/>
    <line stroke-width="0.25" x1="125.412" x2="125.382" y1="29.606" y2="29.69"/>
    <line stroke="#808080" stroke-width="0.1" x1="93.777" x2="89.201" y1="26.725" y2="29.365"/>
    <line stroke-width="0.13" x1="117.066" x2="116.594" y1="49.127" y2="48.856"/>
    <line stroke-width="0.13" x1="117.066" x2="116.594" y1="50.924" y2="50.652"/>
    <line stroke="#808080" stroke-width="0.1" x1="118.319" x2="118.319" y1="49.96" y2="46.581"/>
    <line stroke="#808080" stroke-width="0.1" x1="117.849" x2="118.319" y1="46.308" y2="46.581"/>
    <line stroke-width="0.13" x1="117.295" x2="116.825" y1="48.354" y2="48.084"/>
    <line stroke-width="0.13" x1="122.552" x2="122.081" y1="52.295" y2="52.023"/>
    <line stroke-width="0.13" x1="122.552" x2="122.081" y1="54.091" y2="53.82"/>
    <line stroke="#808080" stroke-width="0.1" x1="123.805" x2="123.805" y1="54.273" y2="49.747"/>
    <line stroke="#808080" stroke-width="0.1" x1="123.334" x2="123.805" y1="49.476" y2="49.747"/>
    <line stroke-width="0.13" x1="122.781" x2="122.311" y1="51.521" y2="51.25"/>
    <line stroke-width="0.13" x1="74.745" x2="74.275" y1="24.693" y2="24.422"/>
    <line stroke-width="0.13" x1="74.974" x2="74.504" y1="23.92" y2="23.649"/>
    <line stroke="#808080" stroke-width="0.1" x1="75.998" x2="75.528" y1="22.146" y2="21.876"/>
    <line stroke="#808080" stroke-width="0.1" x1="75.998" x2="75.998" y1="25.527" y2="22.146"/>
    <line stroke-width="0.13" x1="74.745" x2="74.275" y1="26.49" y2="26.219"/>
    <line stroke-width="0.13" x1="80.23" x2="79.76" y1="27.861" y2="27.589"/>
    <line stroke-width="0.13" x1="80.46" x2="79.99" y1="27.088" y2="26.817"/>
    <line stroke="#808080" stroke-width="0.1" x1="81.484" x2="81.015" y1="25.315" y2="25.042"/>
    <line stroke="#808080" stroke-width="0.1" x1="81.484" x2="81.484" y1="29.838" y2="25.315"/>
    <line stroke-width="0.13" x1="80.23" x2="79.76" y1="29.658" y2="29.387"/>
    <path d="M93.974 24.8L93.59 25.021L90.647 26.722L90.263 26.943L90.143 27.003C89.954 27.083 89.76 27.111 89.558 27.129C89.302 27.129 89.052 27.106 88.814 27.003L88.694 26.943L88.311 26.722L71.054 16.757C70.554 16.469 70.004 16.175 69.78 15.605C69.706 15.419 69.715 15.374 69.695 15.179" stroke-width="0.13"/>
    <path d="M70.67 24.047L70.67 23.603L70.67 16.98L70.67 16.536C70.677 15.99 71.007 15.474 71.453 15.179" stroke-width="0.13"/>
    <path d="M110.909 38.179C111.248 38.082 111.525 38.314 111.807 38.476L129.063 48.439C129.328 48.593 129.581 48.752 129.871 48.853C130.593 49.104 131.437 49.104 132.161 48.853C132.449 48.752 132.703 48.593 132.967 48.439L154.143 36.215C154.587 35.957 155.236 35.634 155.171 35.011C155.115 34.466 154.557 34.201 154.143 33.96L96.915 0.922L96.533 0.7L96.328 0.596C95.855 0.382 95.346 0.327 94.831 0.327C94.406 0.357 93.992 0.419 93.6 0.596L93.397 0.7L93.013 0.922L71.837 13.147C71.423 13.387 70.865 13.651 70.808 14.196C70.798 14.301 70.808 14.404 70.84 14.505C70.875 14.612 70.93 14.71 71 14.798C71.078 14.9 71.171 14.986 71.275 15.061L71.453 15.179L71.837 15.4L89.094 25.364C89.298 25.481 89.522 25.588 89.698 25.748C89.993 26.018 90.209 26.411 90.254 26.809L90.263 26.943L90.263 27.387L90.263 28.309L90.263 28.753" stroke-width="0.13"/>
    <path d="M88.694 29.658L88.694 29.214L88.694 27.387C88.694 27.152 88.676 26.902 88.727 26.67C88.813 26.28 89.046 25.897 89.368 25.658L89.478 25.585L89.862 25.364L103.201 17.663C103.519 17.48 103.825 17.297 104.171 17.172C105.281 16.771 106.593 16.771 107.703 17.172C108.048 17.297 108.355 17.48 108.671 17.663L125.146 27.173C125.646 27.463 126.195 27.757 126.421 28.327C126.474 28.464 126.503 28.606 126.503 28.753L126.483 28.966C126.349 29.655 125.698 30.013 125.146 30.332L111.807 38.033C111.603 38.151 111.378 38.258 111.201 38.418C110.908 38.689 110.694 39.081 110.647 39.478L110.638 39.612L110.638 40.055L110.638 41.884L110.638 42.328" stroke-width="0.13"/>
    <path d="M110.349 41.575C110.415 41.844 110.51 42.082 110.638 42.328" stroke-width="0.13"/>
    <path d="M89.201 29.365C89.033 29.463 88.864 29.559 88.694 29.658" stroke-width="0.13"/>
    <path d="M156.283 35.993C156.265 36.188 156.275 36.234 156.2 36.42C155.975 36.988 155.425 37.283 154.926 37.572L133.751 49.798C133.435 49.979 133.128 50.162 132.784 50.287C132.211 50.494 131.621 50.561 131.015 50.582C130.409 50.561 129.819 50.494 129.247 50.287C128.901 50.162 128.597 49.979 128.281 49.798L111.022 39.834C110.805 39.709 110.441 39.567 110.34 39.295C110.31 39.216 110.316 39.197 110.316 39.115" stroke-width="0.13"/>
    <path d="M155.311 44.86L155.311 44.417L155.311 37.793L155.311 37.35C155.302 36.804 154.973 36.287 154.526 35.993" stroke-width="0.13"/>
    <path d="M132.582 48.661C133.03 48.957 133.359 49.473 133.366 50.02L133.366 50.463L133.366 57.072L133.366 57.515" stroke-width="0.13"/>
    <path d="M128.664 57.515L128.664 57.072L128.664 50.463L128.664 50.02C128.671 49.473 129.002 48.957 129.448 48.661" stroke-width="0.13"/>
    <path d="M125.016 30.035C125.207 29.98 125.353 30.024 125.53 30.111" stroke-width="0.13"/>
    <path d="M125.53 27.396C125.409 27.475 125.302 27.556 125.204 27.664C124.968 27.925 124.795 28.268 124.754 28.62L124.745 28.753L124.745 29.196L124.745 29.748L124.745 30.192" stroke-width="0.13"/>
    <path d="M104.915 18.571C105.609 18.359 106.397 18.368 107.084 18.609C107.371 18.708 107.625 18.867 107.888 19.021L124.361 28.532C124.703 28.728 125.097 28.913 125.295 29.277C125.364 29.408 125.361 29.44 125.391 29.58" stroke-width="0.13"/>
    <path d="M107.504 20.609L107.504 20.164L107.504 19.242L107.504 18.798L107.512 18.664C107.569 18.167 107.875 17.713 108.287 17.44" stroke-width="0.13"/>
    <path d="M103.585 17.44C103.929 17.667 104.198 18.013 104.308 18.414" stroke-width="0.13"/>
    <path d="M154.526 34.182C154.703 34.095 154.848 34.052 155.039 34.107" stroke-width="0.13"/>
    <path d="M96.533 0.7C96.707 0.613 96.853 0.57 97.046 0.625" stroke-width="0.13"/>
    <path d="M93.397 0.7C93.286 0.645 93.194 0.612 93.072 0.594C92.942 0.601 93.004 0.59 92.885 0.625" stroke-width="0.13"/>
    <path d="M71.453 13.368C71.341 13.314 71.251 13.281 71.128 13.262C70.998 13.269 71.061 13.259 70.939 13.294" stroke-width="0.13"/>
    <path d="M156.283 44.107L156.283 43.664L156.283 36.435C156.283 36.137 156.294 35.856 156.233 35.566C156.121 35.046 155.758 34.594 155.334 34.29L155.118 34.152L154.735 33.932L97.43 0.846C97.147 0.683 96.873 0.516 96.567 0.401C96.004 0.19 95.415 0.125 94.817 0.125C94.319 0.155 93.831 0.225 93.361 0.401C93.055 0.516 92.783 0.683 92.501 0.846L71.245 13.118L70.861 13.339L70.647 13.477C70.221 13.779 69.859 14.233 69.748 14.752C69.686 15.042 69.695 15.323 69.695 15.621L69.695 22.85L69.695 23.294" stroke-width="0.25"/>
    <path d="M125.016 30.035L124.632 30.257L111.215 38.003L110.831 38.225L110.759 38.273C110.54 38.436 110.391 38.68 110.334 38.948C110.296 39.136 110.316 39.396 110.316 39.557L110.314 40.805L110.314 41.249" stroke-width="0.25"/>
    <path d="M125.236 29.87C125.349 29.757 125.289 29.824 125.412 29.664" stroke-width="0.25"/>
    <path d="M124.938 30.08C125.167 29.934 125.058 30.012 125.265 29.847" stroke-width="0.25"/>
    <path d="M122.501 29.266L122.117 29.045L107.888 20.829L107.504 20.609L107.301 20.504C106.914 20.329 106.468 20.236 106.043 20.236" stroke="#808080" stroke-width="0.1"/>
    <path d="M110.349 41.575C110.316 41.353 110.326 41.462 110.314 41.249" stroke="#808080" stroke-width="0.1"/>
    <path d="M117.144 51.341L116.787 51.134C116.635 51.037 116.597 50.816 116.594 50.652L116.594 50.21L116.594 49.298L116.594 48.856L116.602 48.732C116.644 48.347 116.856 48.027 117.046 47.7L117.628 46.692L117.849 46.308" stroke-width="0.25"/>
    <path d="M117.144 51.271C117.013 51.069 117.066 50.674 117.066 50.481L117.066 49.57L117.066 49.127L117.072 49.003C117.114 48.618 117.328 48.298 117.516 47.97L118.097 46.965L118.319 46.581" stroke="#808080" stroke-width="0.1"/>
    <path d="M123.805 54.273C123.551 54.42 123.305 54.607 123.009 54.649C122.807 54.639 122.75 54.578 122.548 54.46L122.272 54.301C122.12 54.203 122.084 53.984 122.081 53.82L122.081 53.377L122.081 52.466L122.081 52.023L122.087 51.899C122.129 51.515 122.343 51.195 122.533 50.866L123.114 49.86L123.334 49.476" stroke-width="0.25"/>
    <path d="M122.742 54.573C122.489 54.329 122.552 53.972 122.552 53.648L122.552 52.737L122.552 52.295L122.558 52.171C122.599 51.786 122.813 51.466 123.003 51.137L123.584 50.131L123.805 49.747" stroke="#808080" stroke-width="0.1"/>
    <path d="M74.823 26.908L74.466 26.701C74.314 26.603 74.278 26.382 74.275 26.219L74.275 25.775L74.275 24.865L74.275 24.422L74.281 24.298C74.322 23.914 74.537 23.594 74.725 23.265L75.308 22.26L75.528 21.876" stroke-width="0.25"/>
    <path d="M74.823 26.836C74.691 26.635 74.745 26.242 74.745 26.047L74.745 25.137L74.745 24.693L74.751 24.571C74.793 24.184 75.007 23.864 75.197 23.538L75.778 22.53L75.998 22.146" stroke="#808080" stroke-width="0.1"/>
    <path d="M81.484 29.838C81.23 29.986 80.986 30.173 80.688 30.216C80.486 30.205 80.43 30.143 80.227 30.027L79.953 29.868C79.801 29.769 79.763 29.55 79.76 29.387L79.76 28.943L79.76 28.033L79.76 27.589L79.768 27.466C79.808 27.08 80.022 26.76 80.212 26.432L80.793 25.426L81.015 25.042" stroke-width="0.25"/>
    <path d="M80.423 30.14C80.168 29.896 80.23 29.539 80.23 29.214L80.23 28.304L80.23 27.861L80.237 27.737C80.28 27.353 80.492 27.033 80.683 26.704L81.263 25.698L81.484 25.315" stroke="#808080" stroke-width="0.1"/>
   </g>
  </g>
 </g>
 <g class="callout callout_1">
  <g>
   <line stroke="#FFFFFF" stroke-width="1" x1="142.748" x2="169.413" y1="73.475" y2="88.87"/>
   <line stroke="#808080" stroke-width="0.1" x1="142.748" x2="169.413" y1="73.475" y2="88.87"/>
  </g>
  <path d="M166.855 92.391L171.972 92.391 171.972 85.349 166.855 85.349 166.855 92.391z" fill="#FFFFFF" stroke="none"/>
  <text fill="#000000" font-family="'Arial'" font-size="4.232" stroke="none" x="168.236" y="90.391"><desc>1</desc>1</text>
 </g>
 <g class="callout callout_2">
  <g>
   <line stroke="#FFFFFF" stroke-width="1" x1="73.2" x2="100.328" y1="133.326" y2="148.989"/>
   <line stroke="#808080" stroke-width="0.1" x1="73.2" x2="100.328" y1="133.326" y2="148.989"/>
  </g>
  <path d="M97.325 152.51L103.331 152.51 103.331 145.467 97.325 145.467 97.325 152.51z" fill="#FFFFFF" stroke="none"/>
  <text fill="#000000" font-family="'Arial'" font-size="4.232" stroke="none" x="99.15" y="150.51"><desc>2</desc>2</text>
 </g>
 <path class="hotspot hotspot_1" d="M166.855 92.391L 171.972 92.391L 171.972 85.349L 166.855 85.349L 166.855 92.391z" fill="black" id="AUTOID_244184" stroke="black" visibility="hidden"/>
 <path class="hotspot hotspot_2" d="M97.325 152.51L 103.331 152.51L 103.331 145.467L 97.325 145.467L 97.325 152.51z" fill="black" id="AUTOID_244185" stroke="black" visibility="hidden"/>
</svg>