<?xml version="1.0" encoding="UTF-8" standalone="no"?><!-- Generator: PTC Arbortext IsoDraw 7.3 M090 --><svg xmlns="http://www.w3.org/2000/svg" xmlns:xlink="http://www.w3.org/1999/xlink" clip-rule="evenodd" fill="none" fill-rule="evenodd" font-family="sans-serif" font-size="10" font-stretch="normal" font-style="normal" font-variant="normal" font-weight="normal" height="190.155" id="Standard_x0020_layer" onabort="parent.dwImageSVGOnAbort('LJT143356037');" onerror="parent.dwImageSVGOnError('LJT143356037');" onload="parent.dwImageSVGOnLoad('LJT143356037');" stroke="#000000" stroke-linecap="round" viewBox="0.0 0.0 110.724 190.155" width="110.724" x="0" xml:space="preserve" y="0">
 <g id="01_0001_0153_0_VITE_TE_M6X14_UN_13">
  <desc>01_0001_0153_0_VITE_TE_M6X14_UN</desc>
  <line stroke="#808080" stroke-width="0.1" x1="61.262" x2="61.262" y1="5.835" y2="6.142"/>
  <line stroke="#808080" stroke-width="0.1" x1="59.259" x2="59.259" y1="8.692" y2="8.792"/>
  <line stroke="#808080" stroke-width="0.1" x1="59.259" x2="59.259" y1="7.105" y2="6.966"/>
  <line stroke="#808080" stroke-width="0.1" x1="62.557" x2="62.557" y1="10.316" y2="10.214"/>
  <line stroke="#808080" stroke-width="0.1" x1="59.259" x2="59.259" y1="10.401" y2="10.483"/>
  <line stroke="#808080" stroke-width="0.1" x1="59.259" x2="59.259" y1="6.089" y2="5.998"/>
  <line stroke="#808080" stroke-width="0.1" x1="62.557" x2="62.557" y1="5.825" y2="5.924"/>
  <line stroke="#808080" stroke-width="0.1" x1="59.259" x2="59.259" y1="9.468" y2="9.38"/>
  <line stroke="#808080" stroke-width="0.1" x1="59.259" x2="59.259" y1="7.78" y2="7.695"/>
  <line stroke="#808080" stroke-width="0.1" x1="62.557" x2="62.557" y1="7.557" y2="7.615"/>
  <line stroke="#808080" stroke-width="0.1" x1="62.557" x2="62.557" y1="7.953" y2="7.841"/>
  <line stroke="#808080" stroke-width="0.1" x1="62.557" x2="62.557" y1="9.641" y2="9.539"/>
  <line stroke-width="0.13" x1="59.259" x2="59.259" y1="11.119" y2="11.173"/>
  <line stroke="#808080" stroke-width="0.1" x1="59.259" x2="59.259" y1="5.564" y2="5.644"/>
  <line stroke="#808080" stroke-width="0.1" x1="62.557" x2="62.557" y1="10.586" y2="10.657"/>
  <line stroke="#808080" stroke-width="0.1" x1="59.259" x2="59.259" y1="10.632" y2="10.711"/>
  <line stroke="#808080" stroke-width="0.1" x1="62.557" x2="62.557" y1="6.166" y2="6.264"/>
  <line stroke="#808080" stroke-width="0.1" x1="59.259" x2="59.259" y1="6.32" y2="6.24"/>
  <line stroke="#808080" stroke-width="0.1" x1="59.259" x2="59.259" y1="10.035" y2="9.957"/>
  <line stroke="#808080" stroke-width="0.1" x1="59.259" x2="59.259" y1="7.253" y2="7.333"/>
  <line stroke="#808080" stroke-width="0.1" x1="59.259" x2="59.259" y1="8.942" y2="9.022"/>
  <line stroke-width="0.13" x1="59.308" x2="59.308" y1="11.34" y2="11.282"/>
  <line stroke="#808080" stroke-width="0.1" x1="61.732" x2="61.732" y1="4.118" y2="5.685"/>
  <line stroke="#808080" stroke-width="0.1" x1="57.968" x2="57.831" y1="2.096" y2="1.867"/>
  <line stroke-width="0.13" x1="58.243" x2="58.243" y1="4.41" y2="4.32"/>
  <line stroke-width="0.13" x1="58.307" x2="58.24" y1="2.599" y2="2.629"/>
  <line stroke-width="0.13" x1="63.573" x2="63.509" y1="1.804" y2="1.794"/>
  <path d="M61.203 5.857C61.115 5.867 61.029 5.876 60.942 5.886L60.868 5.886L60.753 5.886L60.679 5.886L60.606 5.878L60.5 5.865L60.426 5.857L60.354 5.839C60.293 5.825 60.228 5.814 60.168 5.793" stroke="#808080" stroke-width="0.1"/>
  <path d="M61.203 5.841L61.203 5.857L61.218 5.929L61.247 6.07L61.262 6.142" stroke="#808080" stroke-width="0.1"/>
  <path d="M61.542 6.108L61.518 6.118L61.447 6.137L61.337 6.166L61.265 6.184L61.192 6.193L61.072 6.209L60.999 6.219L60.924 6.222L60.801 6.224L60.728 6.225L60.655 6.219L60.537 6.208L60.463 6.2L60.392 6.184L60.289 6.161L60.216 6.145L60.158 6.125" stroke="#808080" stroke-width="0.1"/>
  <path d="M59.259 5.301L59.259 5.386L59.281 5.456L59.286 5.469L59.308 5.538L59.35 5.599L59.362 5.618L59.402 5.679L59.456 5.73L59.485 5.761L59.539 5.812L59.6 5.852L59.655 5.887L59.716 5.927L59.783 5.958L59.86 5.995L59.927 6.025L59.997 6.048L60.097 6.078L60.168 6.1L60.24 6.115L60.357 6.137C60.454 6.157 60.405 6.15 60.503 6.158L60.633 6.171L60.706 6.176L60.78 6.176L60.912 6.174L60.985 6.174L61.06 6.165L61.189 6.15L61.262 6.142" stroke="#808080" stroke-width="0.1"/>
  <path d="M61.542 9.487L61.518 9.496L61.447 9.516L61.337 9.544L61.265 9.563L61.192 9.573L61.072 9.589L60.999 9.599L60.924 9.599L60.801 9.602L60.728 9.605L60.655 9.598L60.536 9.586L60.463 9.579L60.392 9.564L60.289 9.541L60.216 9.525L60.159 9.503" stroke="#808080" stroke-width="0.1"/>
  <path d="M59.259 8.609L59.259 8.682L59.259 8.692L59.259 8.765L59.283 8.835L59.286 8.846L59.308 8.916L59.35 8.978L59.365 9.002L59.406 9.063L59.46 9.114L59.496 9.148L59.551 9.198L59.612 9.239L59.737 9.317L59.804 9.348L59.892 9.385L59.959 9.416L60.03 9.436L60.14 9.468L60.212 9.49L60.283 9.503L60.411 9.525L60.484 9.538L60.557 9.542L60.695 9.551L60.768 9.557L60.841 9.554L60.982 9.55C61.081 9.545 61.031 9.55 61.128 9.537L61.265 9.518L61.338 9.507L61.409 9.49L61.536 9.46L61.607 9.442L61.676 9.416L61.786 9.377L61.856 9.35L61.92 9.317L62.009 9.269L62.076 9.236L62.134 9.192L62.201 9.143L62.261 9.099L62.311 9.044L62.356 8.997L62.405 8.945L62.444 8.881L62.468 8.843L62.506 8.778L62.526 8.708L62.536 8.675L62.557 8.605L62.557 8.516" stroke="#808080" stroke-width="0.1"/>
  <path d="M61.542 7.798L61.518 7.807L61.447 7.827L61.337 7.855L61.265 7.873L61.192 7.883L61.072 7.9L60.999 7.91L60.924 7.91L60.801 7.913L60.728 7.916L60.655 7.908L60.536 7.897L60.463 7.889L60.392 7.873L60.289 7.852L60.216 7.836L60.158 7.814" stroke="#808080" stroke-width="0.1"/>
  <path d="M59.259 6.919L59.259 6.993L59.259 7.001L59.259 7.075L59.281 7.145L59.286 7.158L59.308 7.227L59.35 7.288L59.365 7.312L59.405 7.373L59.46 7.424L59.496 7.458L59.549 7.509L59.612 7.549L59.737 7.628L59.804 7.658L59.89 7.695L59.957 7.726L60.029 7.746L60.14 7.78L60.21 7.801L60.283 7.812L60.409 7.836L60.482 7.849L60.557 7.854L60.694 7.862L60.768 7.868L60.841 7.865L60.981 7.86C61.079 7.857 61.03 7.86 61.128 7.847L61.265 7.828L61.338 7.819L61.409 7.801L61.536 7.77L61.607 7.753L61.676 7.727L61.786 7.687L61.854 7.661L61.92 7.628L62.009 7.58L62.075 7.546L62.134 7.503L62.201 7.453L62.261 7.41L62.31 7.355L62.356 7.309L62.405 7.256L62.444 7.192L62.468 7.153L62.506 7.091L62.526 7.019L62.536 6.985L62.557 6.916L62.557 6.827" stroke="#808080" stroke-width="0.1"/>
  <path d="M61.542 11.176L61.518 11.186L61.447 11.205L61.337 11.233L61.265 11.252L61.192 11.262L61.072 11.278L60.999 11.288L60.924 11.289L60.801 11.291L60.728 11.294L60.655 11.287L60.536 11.275L60.463 11.269L60.392 11.253L60.289 11.23L60.216 11.214L60.159 11.194" stroke="#808080" stroke-width="0.1"/>
  <path d="M59.259 10.298L59.259 10.371L59.259 10.381L59.259 10.455L59.283 10.525L59.286 10.537L59.308 10.606L59.35 10.667L59.365 10.691L59.406 10.753L59.46 10.803L59.497 10.837L59.551 10.888L59.613 10.928L59.737 11.007L59.805 11.038L59.893 11.076L59.96 11.105L60.03 11.125L60.142 11.159L60.213 11.179L60.284 11.192L60.412 11.214L60.484 11.227L60.558 11.231L60.695 11.242L60.768 11.246L60.843 11.243L60.982 11.239C61.081 11.234 61.031 11.239 61.13 11.226L61.265 11.207L61.338 11.196L61.411 11.179L61.536 11.148L61.607 11.131L61.676 11.105L61.786 11.066L61.856 11.039L61.92 11.006L62.011 10.958L62.076 10.925L62.134 10.881L62.201 10.83L62.262 10.788L62.311 10.734L62.356 10.686L62.406 10.632L62.445 10.57L62.468 10.531L62.506 10.468L62.527 10.397L62.536 10.364L62.557 10.292L62.557 10.205" stroke="#808080" stroke-width="0.1"/>
  <path d="M62.537 10.724L62.557 10.789L62.557 10.864L62.557 10.891L62.557 10.965L62.557 11.039L62.557 11.102L62.557 11.176L62.534 11.246L62.527 11.269L62.506 11.34L62.468 11.403L62.447 11.435L62.408 11.496L62.356 11.548L62.316 11.589L62.264 11.641L62.139 11.727L62.078 11.769L62.014 11.804L61.975 11.826L61.911 11.862L61.844 11.891L61.753 11.929L61.686 11.958L61.615 11.977L61.503 12.007L61.432 12.028L61.359 12.038L61.235 12.057L61.162 12.069L61.088 12.073L60.957 12.077L60.884 12.082L60.811 12.076L60.679 12.069L60.606 12.064L60.533 12.051L60.411 12.029L60.338 12.018L60.268 11.996L60.161 11.964L60.09 11.943L60.023 11.913L59.938 11.875L59.871 11.845C59.804 11.811 59.738 11.769 59.676 11.727L59.551 11.641L59.5 11.589L59.46 11.548L59.408 11.496L59.368 11.435L59.348 11.403L59.308 11.34L59.287 11.269L59.28 11.243L59.259 11.173L59.259 11.048L59.259 10.97L59.283 10.896" stroke-width="0.25"/>
  <path d="M62.537 10.387L62.557 10.454L62.557 10.526L62.557 10.583L62.557 10.657L62.536 10.727L62.527 10.76L62.506 10.832L62.469 10.896L62.445 10.936L62.408 10.999L62.356 11.053L62.313 11.099L62.262 11.153L62.203 11.198L62.134 11.247L62.075 11.291L62.009 11.324L61.918 11.372L61.853 11.407L61.783 11.432L61.673 11.474L61.603 11.5L61.531 11.516L61.405 11.548L61.334 11.566L61.261 11.574L61.125 11.593L61.051 11.602L60.978 11.605L60.84 11.609L60.765 11.612L60.692 11.606L60.557 11.598L60.484 11.593L60.411 11.58L60.286 11.558L60.213 11.547L60.142 11.525L60.033 11.493C59.938 11.465 59.984 11.483 59.895 11.442L59.807 11.404L59.74 11.375L59.677 11.335L59.552 11.256L59.499 11.205L59.462 11.17L59.408 11.119L59.366 11.058L59.35 11.035L59.308 10.974L59.286 10.903L59.283 10.893L59.259 10.823L59.259 10.791L59.259 10.711" stroke-width="0.25"/>
  <path d="M59.259 10.76L59.259 10.666L59.259 10.632L59.283 10.557" stroke-width="0.25"/>
  <path d="M59.283 10.22L59.259 10.298L59.259 10.371L59.259 10.409L59.259 10.483L59.281 10.553L59.286 10.566L59.308 10.635L59.35 10.696L59.365 10.72L59.406 10.782L59.46 10.832L59.496 10.865L59.551 10.916L59.612 10.955L59.735 11.035L59.804 11.064L59.889 11.102L59.956 11.132L60.027 11.153L60.136 11.185L60.207 11.207L60.279 11.22L60.405 11.242C60.502 11.259 60.453 11.253 60.551 11.259L60.688 11.269L60.761 11.274L60.835 11.272L60.976 11.268L61.049 11.266L61.122 11.256L61.262 11.237L61.335 11.227L61.406 11.21L61.536 11.178L61.607 11.16L61.676 11.134L61.789 11.092L61.859 11.067L61.923 11.032L62.015 10.984L62.081 10.949L62.14 10.906L62.207 10.855L62.267 10.811L62.317 10.757L62.36 10.711L62.411 10.657L62.448 10.593L62.472 10.554L62.509 10.49L62.529 10.419L62.537 10.387L62.557 10.316L62.557 10.205L62.557 10.115L62.537 10.05" stroke-width="0.25"/>
  <path d="M62.537 9.711L62.555 9.775L62.557 9.807L62.557 9.878L62.557 9.952L62.557 9.983L62.536 10.054L62.527 10.086L62.506 10.157L62.469 10.221L62.445 10.26L62.406 10.324L62.356 10.378L62.311 10.426L62.261 10.478L62.201 10.522L62.134 10.571L62.073 10.615L62.009 10.65L61.917 10.698L61.853 10.731L61.783 10.756L61.671 10.798L61.603 10.823L61.53 10.842L61.404 10.872L61.332 10.89L61.259 10.9L61.121 10.917L61.048 10.928L60.975 10.929L60.835 10.933L60.761 10.936L60.688 10.931L60.551 10.922L60.478 10.916L60.405 10.903L60.28 10.881L60.207 10.869L60.137 10.849L60.027 10.816C59.932 10.788 59.978 10.804 59.889 10.765L59.804 10.727L59.735 10.696L59.673 10.657L59.549 10.577L59.496 10.528L59.46 10.493L59.406 10.442L59.365 10.381L59.35 10.359L59.308 10.298L59.286 10.227L59.281 10.215L59.259 10.146L59.259 10.115L59.259 10.035" stroke-width="0.25"/>
  <path d="M59.259 10.087L59.259 9.987L59.259 9.957L59.283 9.881" stroke-width="0.25"/>
  <path d="M62.537 9.374L62.557 9.441L62.557 9.529L62.557 9.641L62.536 9.711L62.527 9.744L62.508 9.816L62.47 9.878L62.448 9.919L62.409 9.981L62.359 10.035L62.316 10.083L62.265 10.137L62.206 10.18L62.137 10.23L62.079 10.275L62.014 10.308L61.921 10.358L61.856 10.391L61.787 10.417L61.676 10.458L61.606 10.484L61.534 10.503L61.408 10.534L61.335 10.551L61.262 10.561L61.125 10.58L61.052 10.589L60.978 10.592L60.838 10.596L60.765 10.599L60.692 10.593L60.557 10.585L60.482 10.58L60.409 10.567L60.284 10.544L60.212 10.532L60.142 10.512L60.031 10.48L59.962 10.458L59.893 10.429L59.807 10.391L59.74 10.361L59.615 10.282L59.552 10.242L59.499 10.192L59.462 10.157L59.408 10.106L59.366 10.045L59.35 10.022L59.308 9.961L59.286 9.891L59.283 9.878L59.259 9.807L59.259 9.778L59.259 9.714L59.259 9.65L59.259 9.621L59.283 9.544" stroke-width="0.25"/>
  <path d="M59.259 8.268L59.259 8.342L59.259 8.352L59.259 8.426L59.281 8.496L59.286 8.509L59.308 8.579L59.35 8.641L59.365 8.663L59.406 8.724L59.46 8.775L59.496 8.811L59.551 8.861L59.612 8.9L59.735 8.98L59.804 9.009L59.89 9.047L59.957 9.076L60.027 9.098L60.137 9.131L60.209 9.151L60.28 9.163L60.408 9.186C60.506 9.204 60.457 9.198 60.554 9.205L60.692 9.214L60.767 9.218L60.841 9.217L60.982 9.211C61.081 9.208 61.031 9.212 61.128 9.198L61.268 9.179L61.341 9.169L61.412 9.151L61.54 9.121L61.612 9.102L61.682 9.076L61.792 9.035L61.862 9.009L61.926 8.975L62.017 8.928L62.082 8.894L62.142 8.849L62.207 8.8L62.267 8.755L62.317 8.702L62.36 8.654L62.411 8.6L62.448 8.538L62.47 8.5L62.508 8.435L62.527 8.365L62.536 8.333L62.557 8.262L62.557 8.189L62.557 8.16L62.555 8.086" stroke="#808080" stroke-width="0.1"/>
  <path d="M60.161 9.166L60.216 9.186L60.289 9.202L60.392 9.226L60.463 9.242L60.536 9.249L60.655 9.259C60.753 9.269 60.704 9.266 60.801 9.265L60.926 9.262L60.999 9.26L61.072 9.25L61.192 9.234L61.265 9.224L61.337 9.205L61.447 9.178L61.518 9.159L61.542 9.15" stroke="#808080" stroke-width="0.1"/>
  <path d="M59.259 5.907L59.259 5.98L59.259 5.988L59.259 6.062L59.283 6.133L59.286 6.144L59.308 6.214L59.35 6.275L59.365 6.299L59.406 6.36L59.46 6.41L59.497 6.447L59.551 6.496L59.613 6.536L59.738 6.615L59.805 6.645L59.893 6.684L59.96 6.714L60.031 6.734L60.143 6.767L60.213 6.788L60.286 6.799L60.412 6.823C60.509 6.839 60.46 6.833 60.558 6.839L60.695 6.849L60.77 6.855L60.843 6.852L60.982 6.846C61.082 6.843 61.033 6.847 61.13 6.833L61.265 6.814L61.338 6.804L61.411 6.788L61.536 6.756L61.609 6.738L61.677 6.714L61.787 6.673L61.856 6.647L61.921 6.612L62.012 6.565L62.076 6.532L62.137 6.487L62.203 6.437L62.262 6.394L62.313 6.341L62.356 6.293L62.408 6.24L62.445 6.176L62.469 6.137L62.506 6.075L62.527 6.003L62.536 5.971L62.557 5.9L62.557 5.827L62.557 5.796L62.557 5.722" stroke="#808080" stroke-width="0.1"/>
  <path d="M60.161 6.801L60.216 6.822L60.287 6.838L60.392 6.86L60.463 6.876L60.536 6.884L60.655 6.894C60.752 6.903 60.703 6.902 60.801 6.9L60.924 6.897L60.999 6.895L61.072 6.886L61.192 6.87L61.265 6.86L61.337 6.841L61.447 6.812L61.518 6.794L61.542 6.785" stroke="#808080" stroke-width="0.1"/>
  <path d="M59.259 9.284L59.259 9.358L59.259 9.367L59.259 9.441L59.283 9.51L59.286 9.522L59.308 9.593L59.35 9.653L59.365 9.678L59.406 9.739L59.46 9.789L59.497 9.824L59.551 9.875L59.613 9.914L59.738 9.994L59.805 10.023L59.893 10.061L59.96 10.092L60.03 10.112L60.142 10.144L60.213 10.166L60.284 10.179L60.412 10.201C60.509 10.217 60.46 10.211 60.558 10.218L60.695 10.227L60.768 10.233L60.843 10.23L60.984 10.224L61.057 10.223L61.13 10.211L61.268 10.194L61.341 10.182L61.411 10.166L61.539 10.134L61.61 10.117L61.679 10.092L61.79 10.051L61.859 10.025L61.924 9.99L62.015 9.942L62.079 9.909L62.139 9.865L62.206 9.814L62.265 9.771L62.314 9.717L62.359 9.67L62.408 9.617L62.447 9.553L62.469 9.515L62.506 9.451L62.527 9.381L62.536 9.348L62.557 9.278" stroke="#808080" stroke-width="0.1"/>
  <path d="M60.161 10.18L60.216 10.199L60.287 10.215L60.392 10.239L60.463 10.255L60.536 10.262L60.655 10.272C60.752 10.282 60.703 10.281 60.801 10.278L60.924 10.275L60.999 10.275L61.072 10.265L61.192 10.247L61.265 10.237L61.337 10.22L61.447 10.191L61.518 10.173L61.542 10.163" stroke="#808080" stroke-width="0.1"/>
  <path d="M59.259 7.596L59.259 7.669L59.259 7.677L59.259 7.751L59.283 7.822L59.286 7.833L59.308 7.903L59.35 7.964L59.365 7.988L59.406 8.05L59.46 8.101L59.497 8.135L59.551 8.185L59.613 8.226L59.738 8.304L59.805 8.335L59.893 8.372L59.96 8.403L60.031 8.423L60.143 8.455L60.213 8.477L60.286 8.49L60.412 8.512C60.509 8.528 60.46 8.522 60.558 8.529L60.695 8.538L60.77 8.544L60.843 8.541L60.984 8.535C61.082 8.532 61.033 8.537 61.13 8.522L61.267 8.503L61.34 8.493L61.411 8.477L61.537 8.445L61.609 8.428L61.679 8.403L61.789 8.362L61.857 8.336L61.923 8.301L62.012 8.255L62.079 8.22L62.137 8.176L62.204 8.127L62.264 8.083L62.314 8.028L62.357 7.982L62.408 7.929L62.445 7.865L62.469 7.827L62.506 7.762L62.527 7.692L62.536 7.66L62.557 7.589L62.557 7.514L62.557 7.485L62.557 7.411" stroke="#808080" stroke-width="0.1"/>
  <path d="M60.161 8.49L60.216 8.51L60.287 8.526L60.392 8.55L60.463 8.566L60.536 8.573L60.655 8.583C60.752 8.593 60.703 8.592 60.801 8.589L60.924 8.586L60.999 8.585L61.072 8.574L61.192 8.558L61.265 8.548L61.337 8.531L61.447 8.502L61.518 8.484L61.542 8.474" stroke="#808080" stroke-width="0.1"/>
  <path d="M62.537 8.359L62.557 8.426L62.557 8.516L62.557 8.627L62.537 8.698L62.529 8.73L62.509 8.801L62.472 8.864L62.448 8.903L62.411 8.967L62.36 9.021L62.317 9.067L62.268 9.121L62.207 9.166L62.14 9.215L62.081 9.259L62.015 9.294L61.924 9.343L61.859 9.377L61.79 9.403L61.677 9.445L61.609 9.471L61.536 9.489L61.408 9.521L61.335 9.538L61.262 9.548L61.125 9.566L61.051 9.576L60.978 9.577L60.837 9.583L60.762 9.585L60.689 9.58L60.552 9.57L60.478 9.566L60.406 9.553L60.28 9.531L60.207 9.518L60.137 9.497L60.029 9.464L59.957 9.444L59.89 9.413L59.804 9.375L59.737 9.346L59.613 9.266L59.551 9.227L59.497 9.176L59.46 9.143L59.406 9.092L59.365 9.032L59.35 9.007L59.308 8.946L59.286 8.877L59.281 8.862L59.259 8.792L59.259 8.72L59.259 8.682L59.259 8.609L59.283 8.531" stroke-width="0.25"/>
  <path d="M62.537 8.022L62.555 8.086L62.557 8.117L62.557 8.189L62.557 8.262L62.557 8.292L62.536 8.364L62.527 8.397L62.506 8.468L62.469 8.531L62.445 8.57L62.406 8.634L62.356 8.688L62.311 8.736L62.262 8.789L62.201 8.833L62.134 8.882L62.075 8.926L62.009 8.96L61.917 9.007C61.831 9.054 61.875 9.034 61.783 9.067L61.671 9.108L61.603 9.134L61.53 9.153L61.402 9.183L61.332 9.201L61.259 9.211L61.121 9.228L61.048 9.239L60.973 9.24L60.834 9.244L60.759 9.246L60.686 9.242L60.549 9.231L60.475 9.227L60.404 9.214L60.277 9.192L60.206 9.179L60.134 9.159L60.026 9.125L59.954 9.105L59.887 9.074L59.801 9.037L59.734 9.006L59.612 8.928L59.549 8.887L59.496 8.837L59.46 8.804L59.405 8.753L59.365 8.692L59.35 8.669L59.308 8.609L59.286 8.538L59.281 8.525L59.259 8.455L59.259 8.426L59.259 8.362L59.259 8.298L59.259 8.268L59.283 8.192" stroke-width="0.25"/>
  <path d="M59.283 7.855L59.259 7.931L59.259 7.963L59.259 8.025L59.259 8.087L59.259 8.119L59.283 8.189L59.286 8.201L59.308 8.271L59.35 8.332L59.366 8.356L59.408 8.417L59.462 8.468L59.499 8.503L59.552 8.553L59.615 8.593L59.74 8.672L59.807 8.702L59.895 8.74L59.962 8.769L60.033 8.791L60.142 8.823L60.213 8.843L60.286 8.855L60.411 8.878C60.508 8.894 60.459 8.888 60.557 8.894L60.692 8.903L60.765 8.909L60.84 8.907L60.978 8.903L61.052 8.9L61.125 8.891L61.262 8.872L61.335 8.862L61.406 8.845L61.533 8.814L61.606 8.795L61.674 8.771L61.786 8.728L61.856 8.702L61.92 8.669L62.012 8.621L62.078 8.586L62.137 8.542L62.204 8.493L62.264 8.448L62.314 8.394L62.359 8.348L62.409 8.294L62.447 8.23L62.469 8.191L62.508 8.127L62.527 8.055L62.536 8.023L62.557 7.953L62.557 7.839L62.557 7.751L62.537 7.685" stroke-width="0.25"/>
  <path d="M59.283 7.517L59.259 7.596L59.259 7.669L59.259 7.705L59.259 7.78L59.281 7.849L59.286 7.862L59.308 7.934L59.35 7.995L59.365 8.016L59.405 8.077L59.46 8.128L59.496 8.162L59.548 8.211L59.61 8.252L59.734 8.33L59.801 8.361L59.887 8.399L59.954 8.429L60.024 8.449L60.133 8.483L60.204 8.503L60.276 8.516L60.402 8.538C60.499 8.556 60.45 8.55 60.548 8.557L60.685 8.566L60.759 8.57L60.832 8.568L60.973 8.564L61.048 8.563L61.121 8.553L61.259 8.535L61.332 8.525L61.405 8.507L61.533 8.475L61.606 8.458L61.674 8.432L61.787 8.391L61.856 8.365L61.921 8.33L62.014 8.282L62.079 8.247L62.139 8.204L62.206 8.153L62.265 8.109L62.316 8.055L62.359 8.009L62.409 7.955L62.448 7.892L62.47 7.852L62.508 7.788L62.527 7.718L62.536 7.686L62.557 7.615L62.557 7.541L62.557 7.485C62.557 7.389 62.564 7.435 62.537 7.346" stroke-width="0.25"/>
  <path d="M62.537 7.009L62.557 7.073L62.557 7.147L62.557 7.176L62.557 7.251L62.557 7.28L62.536 7.351L62.527 7.384L62.506 7.455L62.469 7.517L62.445 7.559L62.406 7.621L62.356 7.674L62.31 7.722L62.261 7.777L62.201 7.82L62.134 7.87L62.073 7.913L62.009 7.947L61.917 7.995L61.853 8.028L61.783 8.054L61.671 8.096L61.603 8.121L61.531 8.138L61.405 8.169L61.332 8.186L61.259 8.196L61.124 8.214L61.051 8.224L60.976 8.227L60.838 8.23L60.764 8.234L60.691 8.228L60.554 8.218L60.481 8.214L60.408 8.201L60.283 8.179L60.21 8.167L60.14 8.147L60.03 8.115C59.936 8.086 59.981 8.103 59.893 8.064L59.805 8.025L59.738 7.996L59.676 7.955L59.551 7.876L59.497 7.825L59.46 7.791L59.406 7.74L59.365 7.679L59.35 7.657L59.308 7.596L59.286 7.525L59.283 7.514L59.259 7.443L59.259 7.411L59.259 7.333" stroke-width="0.25"/>
  <path d="M59.259 7.384L59.259 7.286L59.259 7.253L59.283 7.179" stroke-width="0.25"/>
  <path d="M59.283 6.841L59.259 6.919L59.259 6.993L59.259 7.03L59.259 7.105L59.281 7.174L59.286 7.187L59.308 7.258L59.35 7.318L59.366 7.343L59.408 7.403L59.462 7.453L59.499 7.488L59.551 7.538L59.615 7.578L59.738 7.658L59.805 7.687L59.892 7.726L59.959 7.756L60.03 7.777L60.139 7.809L60.21 7.83L60.283 7.841L60.408 7.863C60.505 7.881 60.456 7.875 60.554 7.881L60.691 7.891L60.764 7.895L60.838 7.894L60.978 7.889L61.051 7.887L61.125 7.876L61.264 7.859L61.337 7.849L61.408 7.83L61.536 7.799L61.609 7.782L61.677 7.756L61.789 7.714L61.859 7.687L61.924 7.653L62.015 7.605L62.081 7.57L62.14 7.527L62.207 7.477L62.267 7.432L62.317 7.378L62.36 7.331L62.411 7.278L62.448 7.214L62.472 7.174L62.509 7.112L62.529 7.041L62.537 7.009L62.557 6.937L62.557 6.827L62.557 6.737L62.537 6.671" stroke-width="0.25"/>
  <path d="M62.537 6.333L62.555 6.397L62.557 6.427L62.557 6.501L62.557 6.573L62.557 6.604L62.536 6.674L62.527 6.708L62.506 6.778L62.469 6.841L62.445 6.881L62.408 6.945L62.356 6.998L62.313 7.046L62.262 7.099L62.203 7.142L62.134 7.192L62.076 7.237L62.009 7.27L61.918 7.318C61.832 7.363 61.877 7.344 61.784 7.378L61.671 7.419L61.603 7.445L61.53 7.463L61.402 7.495L61.331 7.512L61.258 7.522L61.119 7.54L61.046 7.549L60.972 7.551L60.832 7.556L60.759 7.557L60.685 7.552L60.548 7.543L60.475 7.538L60.402 7.525L60.277 7.503L60.204 7.49L60.133 7.469L60.024 7.437L59.954 7.416L59.887 7.386L59.801 7.347L59.734 7.317L59.61 7.238L59.548 7.198L59.494 7.147L59.46 7.115L59.405 7.064L59.365 7.003L59.35 6.98L59.308 6.919L59.286 6.849L59.281 6.836L59.259 6.767L59.259 6.692L59.259 6.682L59.259 6.607L59.259 6.58L59.283 6.503" stroke-width="0.25"/>
  <path d="M62.537 5.996L62.557 6.062L62.557 6.136L62.557 6.19L62.557 6.264L62.536 6.334L62.527 6.368L62.506 6.439L62.469 6.503L62.445 6.543L62.408 6.605L62.357 6.66L62.314 6.706L62.262 6.761L62.204 6.804L62.136 6.855L62.076 6.897L62.011 6.932L61.92 6.98L61.854 7.014L61.786 7.04L61.673 7.081L61.604 7.107L61.533 7.125L61.405 7.155L61.335 7.174L61.262 7.182L61.125 7.201L61.051 7.211L60.978 7.214L60.84 7.217L60.765 7.219L60.692 7.214L60.557 7.206L60.484 7.2L60.411 7.189L60.286 7.166L60.213 7.155L60.143 7.134L60.033 7.102C59.939 7.073 59.984 7.091 59.895 7.051L59.807 7.012L59.74 6.982L59.679 6.944L59.552 6.863L59.499 6.814L59.462 6.778L59.408 6.729L59.366 6.666L59.35 6.642L59.308 6.581L59.286 6.512L59.283 6.501L59.259 6.431L59.259 6.399L59.259 6.32" stroke-width="0.25"/>
  <path d="M59.259 6.367L59.259 6.274L59.259 6.24L59.283 6.166" stroke-width="0.25"/>
  <path d="M59.283 5.828L59.259 5.907L59.259 5.98L59.259 6.017L59.259 6.089L59.281 6.16L59.286 6.174L59.308 6.243L59.35 6.304L59.365 6.328L59.405 6.389L59.46 6.439L59.496 6.472L59.549 6.524L59.612 6.562L59.734 6.642L59.801 6.671L59.887 6.71L59.954 6.74L60.024 6.762L60.134 6.794L60.204 6.814L60.277 6.828L60.402 6.849C60.5 6.867 60.451 6.86 60.548 6.867L60.686 6.876L60.759 6.881L60.834 6.879L60.975 6.876L61.048 6.873L61.121 6.863L61.261 6.846L61.334 6.836L61.405 6.817L61.534 6.785L61.606 6.769L61.676 6.743L61.789 6.7L61.857 6.674L61.923 6.641L62.015 6.591L62.079 6.557L62.14 6.514L62.207 6.464L62.267 6.419L62.317 6.365L62.36 6.318L62.411 6.264L62.448 6.201L62.47 6.161L62.508 6.099L62.529 6.027L62.536 5.996L62.557 5.924L62.557 5.851L62.557 5.796C62.557 5.7 62.563 5.746 62.537 5.658" stroke-width="0.25"/>
  <path d="M62.537 5.318L62.557 5.384L62.557 5.458L62.557 5.487L62.557 5.561L62.557 5.591L62.536 5.661L62.527 5.695L62.506 5.766L62.469 5.828L62.445 5.87L62.406 5.932L62.356 5.985L62.31 6.033L62.261 6.088L62.201 6.131L62.134 6.181L62.073 6.224L62.009 6.258L61.917 6.306L61.853 6.339L61.783 6.365L61.671 6.407L61.603 6.432L61.531 6.45L61.405 6.48L61.332 6.498L61.259 6.508L61.122 6.525L61.049 6.535L60.976 6.538L60.837 6.541L60.762 6.544L60.689 6.538L60.554 6.53L60.479 6.525L60.408 6.512L60.281 6.49L60.209 6.477L60.139 6.456L60.029 6.424C59.935 6.397 59.981 6.413 59.89 6.373L59.804 6.336L59.737 6.306L59.674 6.266L59.551 6.187L59.496 6.136L59.46 6.102L59.406 6.051L59.365 5.99L59.35 5.968L59.308 5.905L59.286 5.836L59.283 5.823L59.259 5.753L59.259 5.722L59.259 5.644" stroke-width="0.25"/>
  <path d="M59.259 5.692L59.259 5.596L59.259 5.564L59.283 5.49" stroke-width="0.25"/>
  <path d="M62.243 5.389L62.314 5.363L62.442 5.318L62.512 5.293L62.579 5.262L62.737 5.185L62.804 5.155L62.866 5.115L62.999 5.033L63.06 4.993L63.118 4.947L63.22 4.86L63.277 4.814L63.314 4.77" stroke-width="0.25"/>
  <path d="M59.259 5.386L59.259 5.416L59.281 5.485L59.286 5.498L59.308 5.569L59.35 5.629L59.366 5.653L59.408 5.714L59.462 5.764L59.499 5.799L59.552 5.849L59.615 5.889L59.738 5.969L59.807 5.998L59.893 6.036L59.96 6.067L60.03 6.088L60.14 6.12L60.21 6.141L60.283 6.152L60.408 6.174L60.481 6.187L60.554 6.192L60.691 6.201C60.789 6.208 60.74 6.206 60.838 6.203L60.978 6.2L61.052 6.198L61.125 6.187L61.264 6.168L61.337 6.16L61.408 6.142L61.536 6.11L61.607 6.092L61.676 6.067L61.789 6.025L61.859 5.998L61.923 5.964L62.015 5.916L62.079 5.881L62.14 5.838L62.207 5.788L62.267 5.745L62.317 5.69L62.36 5.642L62.411 5.589L62.448 5.525L62.47 5.485L62.509 5.423L62.549 5.275" stroke-width="0.25"/>
  <path d="M62.537 8.698L62.557 8.763L62.557 8.837L62.557 8.867L62.557 8.941L62.557 8.968L62.536 9.039L62.527 9.073L62.506 9.144L62.469 9.207L62.445 9.246L62.406 9.31L62.356 9.364L62.311 9.412L62.261 9.465L62.201 9.509L62.134 9.558L62.073 9.602L62.009 9.635L61.917 9.683C61.831 9.728 61.875 9.71 61.783 9.743L61.673 9.785L61.603 9.811L61.531 9.827L61.405 9.859L61.334 9.877L61.261 9.885L61.125 9.903L61.051 9.913L60.978 9.916L60.838 9.92L60.765 9.923L60.692 9.917L60.557 9.909L60.482 9.903L60.409 9.891L60.284 9.869L60.212 9.856L60.142 9.836L60.031 9.804C59.938 9.775 59.984 9.792 59.893 9.753L59.807 9.714L59.74 9.685L59.676 9.646L59.551 9.566L59.499 9.516L59.46 9.48L59.406 9.43L59.365 9.369L59.35 9.346L59.308 9.285L59.286 9.214L59.283 9.202L59.259 9.132L59.259 9.101L59.259 9.022" stroke-width="0.25"/>
  <path d="M59.259 9.074L59.259 8.975L59.259 8.942L59.283 8.868" stroke-width="0.25"/>
  <path d="M62.537 9.035L62.557 9.101L62.557 9.175L62.557 9.23L62.557 9.304L62.536 9.375L62.527 9.407L62.508 9.478L62.469 9.542L62.447 9.582L62.409 9.644L62.359 9.698L62.314 9.746L62.265 9.8L62.204 9.843L62.137 9.894L62.078 9.938L62.012 9.971L61.92 10.019L61.856 10.054L61.786 10.08L61.673 10.121L61.604 10.147L61.533 10.166L61.404 10.196L61.332 10.214L61.259 10.224L61.119 10.243L61.046 10.252L60.972 10.253L60.832 10.259L60.758 10.26L60.683 10.255L60.548 10.246L60.473 10.24L60.402 10.227L60.276 10.205L60.203 10.192L60.133 10.172L60.024 10.138L59.953 10.118L59.886 10.087L59.801 10.05L59.734 10.019L59.61 9.941L59.548 9.9L59.494 9.85L59.46 9.817L59.405 9.766L59.365 9.705L59.35 9.683L59.308 9.622L59.286 9.553L59.281 9.538L59.259 9.468L59.259 9.394L59.259 9.358L59.259 9.284L59.283 9.205" stroke-width="0.25"/>
  <path d="M59.259 7.931L59.259 8.005L59.259 8.015L59.259 8.087L59.281 8.157L59.286 8.172L59.308 8.242L59.35 8.303L59.365 8.324L59.405 8.385L59.459 8.436L59.494 8.471L59.548 8.521L59.609 8.561L59.732 8.64L59.799 8.669L59.886 8.708L59.953 8.737L60.024 8.759L60.134 8.791L60.204 8.813L60.277 8.826L60.405 8.849L60.476 8.862L60.551 8.867L60.689 8.875L60.762 8.881L60.837 8.878L60.978 8.874C61.076 8.871 61.027 8.875 61.125 8.862L61.262 8.843L61.335 8.833L61.408 8.814L61.536 8.785L61.606 8.766L61.676 8.742L61.786 8.701L61.856 8.675L61.92 8.641L62.011 8.593L62.076 8.558L62.136 8.516L62.203 8.465L62.262 8.422L62.311 8.368L62.356 8.321L62.406 8.268L62.445 8.205L62.468 8.166L62.506 8.102L62.527 8.032L62.536 8L62.557 7.929L62.557 7.839" stroke="#808080" stroke-width="0.1"/>
  <path d="M60.156 8.827L60.218 8.849L60.289 8.865L60.393 8.887L60.465 8.903L60.537 8.91L60.655 8.922C60.753 8.931 60.704 8.929 60.802 8.926L60.926 8.925L61 8.923L61.073 8.913L61.192 8.897L61.265 8.887L61.338 8.868L61.447 8.839L61.518 8.82L61.542 8.811" stroke="#808080" stroke-width="0.1"/>
  <path d="M59.259 9.621L59.259 9.695L59.259 9.704L59.259 9.778L59.281 9.848L59.286 9.861L59.308 9.931L59.35 9.992L59.365 10.013L59.405 10.076L59.459 10.125L59.494 10.16L59.548 10.211L59.61 10.25L59.734 10.33L59.801 10.359L59.887 10.397L59.954 10.428L60.024 10.448L60.136 10.48L60.206 10.502L60.279 10.515L60.406 10.538L60.478 10.551L60.552 10.556L60.691 10.566L60.764 10.57L60.838 10.567L60.979 10.563C61.078 10.56 61.029 10.564 61.125 10.551L61.264 10.532L61.337 10.522L61.408 10.505L61.536 10.474L61.606 10.455L61.676 10.43L61.786 10.39L61.856 10.365L61.92 10.33L62.011 10.282L62.076 10.249L62.134 10.205L62.201 10.156L62.261 10.112L62.311 10.058L62.356 10.012L62.406 9.958L62.444 9.894L62.468 9.855L62.506 9.792L62.526 9.721L62.536 9.689L62.557 9.618L62.557 9.529" stroke="#808080" stroke-width="0.1"/>
  <path d="M60.158 10.516L60.218 10.538L60.289 10.554L60.393 10.577L60.465 10.593L60.537 10.599L60.655 10.611C60.753 10.621 60.704 10.618 60.802 10.617L60.926 10.614L61 10.612L61.073 10.602L61.192 10.586L61.265 10.576L61.338 10.557L61.448 10.528L61.518 10.51L61.542 10.5" stroke="#808080" stroke-width="0.1"/>
  <path d="M62.557 10.965L62.536 11.037L62.527 11.069L62.508 11.14L62.469 11.202L62.448 11.242L62.409 11.304L62.359 11.359L62.316 11.406L62.265 11.458L62.207 11.503L62.14 11.553L62.081 11.596L62.015 11.631L61.926 11.679C61.838 11.724 61.884 11.705 61.792 11.739L61.68 11.781L61.612 11.806L61.539 11.823L61.412 11.855L61.341 11.872L61.268 11.882L61.13 11.901L61.057 11.912L60.984 11.913L60.841 11.919L60.768 11.922L60.695 11.916L60.557 11.907L60.484 11.903L60.411 11.89L60.283 11.868L60.212 11.855L60.14 11.833L60.03 11.801L59.96 11.781L59.892 11.75L59.805 11.712L59.737 11.683L59.613 11.603L59.551 11.564L59.497 11.513L59.46 11.478L59.406 11.429L59.365 11.367L59.35 11.343L59.308 11.282L59.286 11.211L59.281 11.198L59.259 11.128L59.259 11.048" stroke="#808080" stroke-width="0.1"/>
  <path d="M62.557 7.251L62.536 7.32L62.527 7.352L62.508 7.424L62.469 7.487L62.447 7.525L62.409 7.589L62.359 7.642L62.316 7.689L62.265 7.743L62.207 7.786L62.14 7.836L62.081 7.881L62.015 7.916L61.924 7.963C61.838 8.009 61.883 7.988 61.79 8.022L61.679 8.064L61.609 8.089L61.539 8.108L61.409 8.138L61.338 8.157L61.265 8.166L61.125 8.185L61.052 8.195L60.978 8.198L60.835 8.202L60.762 8.205L60.689 8.201L60.549 8.191L60.476 8.185L60.404 8.173L60.276 8.15L60.204 8.137L60.133 8.115L60.023 8.083C59.929 8.054 59.975 8.071 59.884 8.032L59.799 7.993L59.732 7.964L59.67 7.924L59.548 7.846L59.494 7.794L59.459 7.761L59.405 7.711L59.365 7.649L59.35 7.626L59.308 7.565L59.286 7.496L59.281 7.482L59.259 7.411" stroke="#808080" stroke-width="0.1"/>
  <path d="M60.158 8.151L60.216 8.173L60.289 8.189L60.393 8.211L60.465 8.227L60.537 8.234L60.655 8.246C60.753 8.256 60.704 8.253 60.802 8.252L60.926 8.249L61 8.246L61.073 8.237L61.194 8.221L61.267 8.211L61.338 8.192L61.448 8.163L61.518 8.146L61.542 8.135" stroke="#808080" stroke-width="0.1"/>
  <path d="M62.555 9.775L62.557 9.849L62.557 9.878L62.557 9.952L62.536 10.022L62.527 10.054L62.508 10.125L62.47 10.189L62.448 10.227L62.411 10.291L62.36 10.345L62.317 10.391L62.267 10.445L62.207 10.489L62.14 10.538L62.082 10.583L62.017 10.617L61.926 10.664C61.84 10.711 61.884 10.691 61.792 10.724L61.68 10.766L61.612 10.792L61.54 10.81L61.411 10.842L61.341 10.859L61.268 10.868L61.128 10.887L61.054 10.897L60.981 10.9L60.838 10.906L60.765 10.909L60.692 10.903L60.552 10.894L60.479 10.888L60.406 10.875L60.279 10.852L60.207 10.839L60.136 10.818L60.026 10.787C59.932 10.759 59.978 10.775 59.887 10.736L59.801 10.698L59.734 10.667L59.673 10.628L59.549 10.55L59.496 10.499L59.46 10.464L59.405 10.413L59.365 10.352L59.35 10.33L59.308 10.269L59.286 10.198L59.281 10.185L59.259 10.115" stroke="#808080" stroke-width="0.1"/>
  <path d="M60.159 10.855L60.216 10.875L60.289 10.891L60.392 10.914L60.463 10.931L60.536 10.938L60.655 10.948C60.753 10.958 60.704 10.957 60.801 10.955L60.926 10.952L60.999 10.949L61.072 10.939L61.192 10.923L61.265 10.913L61.337 10.894L61.447 10.867L61.518 10.849L61.542 10.839" stroke="#808080" stroke-width="0.1"/>
  <path d="M62.557 10.454L62.557 10.526L62.557 10.557L62.557 10.631L62.536 10.702L62.527 10.734L62.506 10.804L62.469 10.868L62.445 10.906L62.408 10.968L62.357 11.022L62.314 11.07L62.264 11.124L62.204 11.166L62.137 11.217L62.078 11.26L62.012 11.294L61.923 11.343C61.835 11.388 61.881 11.368 61.789 11.403L61.676 11.444L61.607 11.47L61.536 11.487L61.408 11.518L61.335 11.535L61.262 11.545L61.124 11.564L61.051 11.573L60.976 11.577L60.835 11.582L60.761 11.583L60.688 11.579L60.548 11.568L60.475 11.564L60.402 11.551L60.274 11.528L60.203 11.515L60.131 11.493L60.021 11.461C59.927 11.432 59.973 11.449 59.884 11.41L59.798 11.371L59.731 11.342L59.67 11.301L59.548 11.224L59.493 11.173L59.459 11.138L59.405 11.089L59.365 11.026L59.35 11.006L59.308 10.943L59.286 10.874L59.281 10.861L59.259 10.791" stroke="#808080" stroke-width="0.1"/>
  <path d="M60.156 11.529L60.216 11.551L60.289 11.567L60.393 11.59L60.465 11.606L60.537 11.614L60.655 11.625C60.753 11.634 60.704 11.631 60.802 11.63L60.926 11.628L61 11.625L61.073 11.615L61.194 11.599L61.267 11.589L61.338 11.57L61.448 11.542L61.518 11.524L61.542 11.515" stroke="#808080" stroke-width="0.1"/>
  <path d="M62.557 5.561L62.536 5.631L62.527 5.663L62.508 5.734L62.469 5.798L62.448 5.836L62.409 5.899L62.359 5.953L62.317 5.998L62.267 6.052L62.207 6.097L62.14 6.147L62.082 6.19L62.017 6.225L61.926 6.274C61.84 6.32 61.884 6.299 61.792 6.333L61.679 6.375L61.61 6.4L61.539 6.418L61.411 6.45L61.338 6.466L61.265 6.477L61.127 6.496L61.054 6.506L60.979 6.509L60.837 6.514L60.764 6.517L60.689 6.511L60.551 6.501L60.478 6.496L60.405 6.484L60.277 6.461L60.204 6.448L60.134 6.426L60.024 6.394C59.929 6.365 59.975 6.383 59.886 6.343L59.801 6.304L59.734 6.275L59.671 6.235L59.548 6.157L59.494 6.105L59.459 6.072L59.405 6.022L59.365 5.96L59.35 5.937L59.308 5.876L59.286 5.807L59.281 5.793L59.259 5.722" stroke="#808080" stroke-width="0.1"/>
  <path d="M60.158 6.463L60.216 6.484L60.289 6.5L60.393 6.522L60.465 6.538L60.537 6.546L60.655 6.557C60.753 6.565 60.704 6.564 60.802 6.562L60.926 6.56L61 6.557L61.073 6.548L61.192 6.532L61.265 6.522L61.338 6.503L61.448 6.474L61.518 6.456L61.542 6.447" stroke="#808080" stroke-width="0.1"/>
  <path d="M62.557 6.062L62.557 6.136L62.557 6.166L62.557 6.24L62.536 6.309L62.527 6.343L62.506 6.413L62.468 6.477L62.445 6.514L62.408 6.578L62.356 6.631L62.313 6.679L62.262 6.732L62.203 6.775L62.136 6.825L62.076 6.87L62.012 6.903L61.921 6.95C61.835 6.996 61.88 6.977 61.787 7.011L61.676 7.051L61.606 7.078L61.536 7.094L61.408 7.126L61.335 7.144L61.262 7.153L61.124 7.171L61.051 7.182L60.978 7.184L60.835 7.19L60.762 7.192L60.688 7.187L60.549 7.176L60.475 7.171L60.404 7.158L60.276 7.136L60.203 7.123L60.133 7.102L60.023 7.068C59.929 7.041 59.975 7.057 59.884 7.017L59.799 6.98L59.731 6.95L59.67 6.91L59.548 6.831L59.493 6.78L59.459 6.746L59.405 6.697L59.365 6.634L59.35 6.613L59.308 6.551L59.286 6.482L59.281 6.469L59.259 6.399" stroke="#808080" stroke-width="0.1"/>
  <path d="M60.155 7.137L60.216 7.16L60.289 7.176L60.393 7.198L60.465 7.214L60.537 7.222L60.655 7.232C60.753 7.242 60.704 7.24 60.802 7.237L60.926 7.235L61 7.234L61.073 7.224L61.192 7.206L61.265 7.197L61.338 7.179L61.447 7.15L61.518 7.131L61.542 7.123" stroke="#808080" stroke-width="0.1"/>
  <path d="M62.557 8.941L62.536 9.01L62.527 9.042L62.506 9.114L62.469 9.178L62.447 9.215L62.408 9.278L62.359 9.333L62.314 9.38L62.265 9.432L62.206 9.477L62.139 9.526L62.079 9.57L62.015 9.605L61.923 9.653C61.837 9.698 61.881 9.679 61.789 9.712L61.677 9.753L61.609 9.779L61.536 9.797L61.408 9.829L61.337 9.846L61.264 9.855L61.125 9.875L61.051 9.884L60.978 9.887L60.835 9.891L60.762 9.894L60.688 9.89L60.548 9.88L60.475 9.875L60.402 9.862L60.276 9.839L60.203 9.826L60.133 9.804L60.023 9.772C59.927 9.743 59.973 9.76 59.884 9.721L59.799 9.682L59.731 9.653L59.67 9.612L59.548 9.535L59.493 9.484L59.459 9.449L59.405 9.4L59.365 9.337L59.35 9.317L59.308 9.255L59.286 9.185L59.281 9.17L59.259 9.101" stroke="#808080" stroke-width="0.1"/>
  <path d="M60.156 9.84L60.216 9.862L60.289 9.878L60.393 9.901L60.465 9.916L60.537 9.923L60.655 9.936C60.753 9.945 60.704 9.942 60.802 9.941L60.926 9.938L61 9.936L61.073 9.926L61.194 9.91L61.267 9.9L61.338 9.881L61.448 9.852L61.518 9.835L61.542 9.826" stroke="#808080" stroke-width="0.1"/>
  <path d="M62.555 6.397L62.557 6.471L62.557 6.5L62.557 6.573L62.536 6.644L62.527 6.676L62.508 6.746L62.47 6.811L62.448 6.849L62.411 6.911L62.359 6.966L62.317 7.012L62.267 7.067L62.207 7.11L62.14 7.16L62.082 7.203L62.017 7.238L61.926 7.286C61.84 7.333 61.884 7.312 61.792 7.346L61.682 7.387L61.612 7.413L61.54 7.431L61.412 7.463L61.341 7.48L61.268 7.49L61.13 7.509L61.057 7.519L60.982 7.522L60.841 7.527L60.768 7.53L60.694 7.525L60.555 7.516L60.482 7.511L60.409 7.498L60.283 7.476C60.185 7.458 60.234 7.469 60.14 7.442L60.029 7.408L59.957 7.387L59.89 7.359L59.804 7.32L59.737 7.291L59.612 7.211L59.551 7.171L59.497 7.121L59.46 7.086L59.406 7.035L59.365 6.974L59.35 6.952L59.308 6.889L59.286 6.82L59.281 6.807L59.259 6.737L59.259 6.663L59.259 6.653L59.259 6.58" stroke="#808080" stroke-width="0.1"/>
  <path d="M60.161 7.477L60.216 7.498L60.287 7.514L60.392 7.535L60.463 7.551L60.536 7.559L60.655 7.57C60.753 7.58 60.704 7.578 60.801 7.575L60.926 7.573L60.999 7.572L61.072 7.562L61.192 7.544L61.265 7.535L61.337 7.517L61.447 7.488L61.518 7.469L61.542 7.461" stroke="#808080" stroke-width="0.1"/>
  <path d="M61.262 5.835L61.189 5.843L61.06 5.857L60.987 5.863L60.914 5.865L60.78 5.865L60.707 5.867L60.634 5.86L60.505 5.849L60.432 5.843L60.359 5.828L60.241 5.807L60.17 5.793L60.098 5.77L59.999 5.738L59.929 5.716L59.862 5.686L59.783 5.65L59.716 5.618L59.655 5.578L59.6 5.543L59.539 5.501L59.487 5.45L59.456 5.421L59.402 5.371L59.368 5.318" stroke-width="0.25"/>
  <path d="M59.378 5.32L59.448 5.344L59.56 5.384L59.628 5.41L59.701 5.427L59.905 5.48L59.976 5.498L60.049 5.509L60.268 5.544L60.341 5.557L60.414 5.562L60.643 5.58C60.77 5.591 60.896 5.586 61.023 5.586L61.097 5.586L61.1 5.586" stroke-width="0.25"/>
  <path d="M62.078 11.769L62.012 11.801L61.923 11.843L61.856 11.875L61.786 11.899L61.676 11.936L61.607 11.958L61.534 11.974L61.408 12L61.335 12.016L61.262 12.023L61.125 12.038L61.051 12.044L60.978 12.044L60.837 12.044L60.764 12.044L60.689 12.038L60.552 12.023L60.479 12.016L60.408 12L60.28 11.974L60.209 11.958L60.139 11.936L60.029 11.899L59.959 11.875L59.892 11.843L59.804 11.801L59.737 11.769" stroke-width="0.13"/>
  <path d="M63.984 4.384L63.92 4.421L61.795 5.647L61.732 5.685L61.659 5.673L58.728 5.219L58.655 5.208" stroke-width="0.25"/>
  <path d="M57.831 1.867L57.831 1.94L57.831 3.359C57.831 3.456 57.82 3.41 57.862 3.499L58.625 5.142L58.655 5.208" stroke-width="0.25"/>
  <path d="M63.984 4.384L63.984 4.31L63.984 2.892L63.984 2.819L63.959 2.75L63.871 2.516C63.811 2.358 63.747 2.2 63.679 2.044C63.633 1.942 63.59 1.839 63.539 1.738C63.453 1.559 63.365 1.382 63.262 1.211L63.198 1.106L63.159 1.042L63.09 1.022C62.887 0.965 62.676 0.897 62.466 0.851L62.002 0.747L61.929 0.731L61.856 0.72L61.387 0.647L61.314 0.635L61.24 0.629L60.777 0.589L60.704 0.583L60.631 0.581L60.156 0.569L60.084 0.567L60.015 0.594L59.697 0.722L59.628 0.75L59.563 0.782L59.249 0.933L59.182 0.965L59.118 1.002L58.795 1.189L58.731 1.225L58.67 1.266L58.347 1.484L58.286 1.524C58.131 1.635 57.982 1.753 57.831 1.867" stroke-width="0.25"/>
  <path d="M63.984 2.819L63.915 2.846L63.597 2.974L63.53 3.001L63.463 3.033L63.149 3.185L63.084 3.217L63.02 3.254L62.697 3.44L62.633 3.477L62.572 3.519L62.249 3.735L62.186 3.777C62.033 3.887 61.884 4.004 61.732 4.118" stroke="#808080" stroke-width="0.1"/>
  <path d="M58.655 3.642L58.728 3.645L59.203 3.657L59.277 3.66L59.35 3.665L59.813 3.706L59.886 3.711L59.959 3.724L60.429 3.796L60.502 3.806L60.573 3.823L61.039 3.927L61.11 3.943C61.32 3.996 61.524 4.06 61.732 4.118" stroke="#808080" stroke-width="0.1"/>
  <path d="M58.518 3.282L58.545 3.351L58.63 3.573L58.655 3.642L58.655 3.717L58.655 5.134L58.655 5.208" stroke="#808080" stroke-width="0.1"/>
  <path d="M57.966 2.092C58.012 2.177 58.058 2.261 58.103 2.347C58.149 2.439 58.195 2.535 58.24 2.629C58.34 2.843 58.429 3.063 58.518 3.282" stroke-width="0.25"/>
  <path d="M58.398 4.653L58.366 4.618L58.329 4.554L58.28 4.474L58.243 4.41L58.197 4.275C58.167 4.19 58.176 4.23 58.167 4.157" stroke-width="0.25"/>
  <path d="M58.307 2.599L58.344 2.661L58.387 2.735L58.426 2.798L58.473 2.855L58.542 2.934L58.591 2.988L58.646 3.036L58.743 3.117L58.798 3.164L58.862 3.202L58.984 3.281L59.045 3.319L59.112 3.351L59.262 3.423C59.35 3.467 59.304 3.447 59.398 3.48L59.573 3.544L59.643 3.569L59.713 3.588L59.908 3.637L59.981 3.656L60.052 3.669C60.171 3.689 60.289 3.711 60.408 3.722L60.627 3.741L60.7 3.746L60.774 3.746L60.994 3.748L61.067 3.749L61.142 3.742L61.359 3.726L61.432 3.722L61.505 3.71L61.713 3.677L61.786 3.665L61.857 3.649L62.052 3.601C62.148 3.577 62.1 3.592 62.194 3.56L62.368 3.5L62.439 3.476L62.506 3.444L62.658 3.375L62.725 3.343L62.789 3.306L62.915 3.229L62.978 3.19L63.036 3.145L63.136 3.064L63.194 3.019L63.243 2.964L63.317 2.886L63.366 2.831L63.405 2.769L63.453 2.695L63.493 2.633L63.545 2.496L63.57 2.427L63.582 2.355L63.591 2.289L63.6 2.216L63.594 2.142L63.588 2.076L63.579 2.003L63.533 1.863L63.509 1.794L63.472 1.73L63.427 1.657L63.39 1.593L63.341 1.538L63.274 1.459L63.225 1.403L63.168 1.357L63.073 1.277C62.997 1.213 63.036 1.242 62.954 1.189L62.832 1.112L62.77 1.072L62.704 1.04L62.554 0.969L62.487 0.937L62.417 0.912L62.243 0.849L62.173 0.824L62.101 0.806L61.906 0.755L61.835 0.737L61.762 0.725L61.554 0.689L61.481 0.677L61.406 0.671L61.189 0.653L61.115 0.646L61.042 0.646L60.822 0.645L60.747 0.644L60.673 0.65L60.457 0.666L60.384 0.671L60.31 0.683C60.192 0.701 60.073 0.716 59.957 0.744L59.762 0.792L59.692 0.809L59.621 0.833L59.447 0.894L59.377 0.917L59.31 0.948L59.156 1.018L59.09 1.048L59.027 1.086L58.899 1.163L58.837 1.201L58.78 1.249L58.679 1.328L58.621 1.374L58.572 1.429L58.5 1.508L58.45 1.562L58.409 1.624L58.362 1.698L58.323 1.76L58.271 1.897L58.244 1.966L58.234 2.039L58.225 2.104L58.215 2.177L58.222 2.25L58.228 2.315L58.235 2.39L58.259 2.459L58.307 2.599z" stroke-width="0.13"/>
 </g>
 <g id="01_0031_0303_0_RONDELLA_BISELLA_13">
  <desc>01_0031_0303_0_RONDELLA_BISELLA</desc>
  <line stroke="#808080" stroke-width="0.1" x1="59.128" x2="59.039" y1="64.459" y2="64.368"/>
  <line stroke-width="0.13" x1="59.216" x2="59.128" y1="64.551" y2="64.459"/>
  <line stroke="#808080" stroke-width="0.1" x1="59.292" x2="59.182" y1="63.09" y2="63.173"/>
  <line stroke="#808080" stroke-width="0.1" x1="59.442" x2="59.216" y1="64.712" y2="64.551"/>
  <line stroke-width="0.13" x1="66.456" x2="66.456" y1="63.848" y2="64.013"/>
  <line stroke="#808080" stroke-width="0.1" x1="66.456" x2="66.456" y1="63.683" y2="63.848"/>
  <line stroke-width="0.13" x1="61.197" x2="61.021" y1="63.319" y2="63.319"/>
  <line stroke-width="0.13" x1="62.18" x2="62.027" y1="63.524" y2="63.475"/>
  <line stroke="#808080" stroke-width="0.1" x1="62.316" x2="62.18" y1="63.591" y2="63.524"/>
  <line stroke-width="0.13" x1="62.451" x2="62.316" y1="63.655" y2="63.591"/>
  <line stroke-width="0.13" x1="63.005" x2="62.973" y1="63.771" y2="63.671"/>
  <line stroke-width="0.13" x1="59.037" x2="59.006" y1="63.771" y2="63.871"/>
  <line stroke="#808080" stroke-width="0.1" x1="59.067" x2="59.037" y1="63.671" y2="63.771"/>
  <line stroke-width="0.13" x1="59.128" x2="59.067" y1="63.576" y2="63.671"/>
  <line stroke="#808080" stroke-width="0.1" x1="59.189" x2="59.128" y1="63.479" y2="63.576"/>
  <line stroke-width="0.13" x1="59.277" x2="59.189" y1="63.392" y2="63.479"/>
  <line stroke="#808080" stroke-width="0.1" x1="59.365" x2="59.277" y1="63.304" y2="63.392"/>
  <line stroke-width="0.13" x1="59.478" x2="59.365" y1="63.225" y2="63.304"/>
  <line stroke="#808080" stroke-width="0.1" x1="59.591" x2="59.478" y1="63.148" y2="63.225"/>
  <line stroke-width="0.13" x1="59.726" x2="59.591" y1="63.082" y2="63.148"/>
  <line stroke="#808080" stroke-width="0.1" x1="59.86" x2="59.726" y1="63.017" y2="63.082"/>
  <line stroke-width="0.13" x1="60.014" x2="59.86" y1="62.966" y2="63.017"/>
  <line stroke="#808080" stroke-width="0.1" x1="60.167" x2="60.014" y1="62.915" y2="62.966"/>
  <line stroke-width="0.13" x1="60.332" x2="60.167" y1="62.881" y2="62.915"/>
  <line stroke-width="0.13" x1="62.914" x2="62.825" y1="63.234" y2="63.143"/>
  <line stroke="#808080" stroke-width="0.1" x1="63.002" x2="62.914" y1="63.325" y2="63.234"/>
  <line stroke-width="0.13" x1="63.063" x2="63.002" y1="63.423" y2="63.325"/>
  <line stroke="#808080" stroke-width="0.1" x1="63.124" x2="63.063" y1="63.521" y2="63.423"/>
  <line stroke="#808080" stroke-width="0.1" x1="58.978" x2="58.917" y1="64.269" y2="64.171"/>
  <line stroke-width="0.13" x1="59.039" x2="58.978" y1="64.368" y2="64.269"/>
  <line stroke-width="0.13" x1="62.75" x2="62.64" y1="64.603" y2="64.686"/>
  <line stroke="#808080" stroke-width="0.1" x1="62.859" x2="62.75" y1="64.519" y2="64.603"/>
  <line stroke="#808080" stroke-width="0.1" x1="63.034" x2="63.005" y1="63.871" y2="63.771"/>
  <line stroke="#808080" stroke-width="0.1" x1="64.923" x2="64.87" y1="66.796" y2="66.829"/>
  <line stroke-width="0.13" x1="55.762" x2="55.612" y1="64.659" y2="64.81"/>
  <line stroke-width="0.13" x1="55.612" x2="55.612" y1="65.317" y2="64.81"/>
  <line stroke-width="0.13" x1="66.429" x2="66.278" y1="63.137" y2="63.033"/>
  <line stroke-width="0.13" x1="66.456" x2="66.427" y1="63.683" y2="63.52"/>
  <line stroke="#808080" stroke-width="0.1" x1="55.765" x2="55.646" y1="63.03" y2="63.351"/>
  <line stroke-width="0.13" x1="55.941" x2="55.765" y1="62.718" y2="63.03"/>
  <path d="M55.429 64.65L55.429 64.53L55.429 63.924L55.429 63.804L55.451 63.686L55.469 63.587L55.49 63.468L55.533 63.354L55.612 63.137L55.671 63.031L55.793 62.814L55.868 62.719L55.959 62.601L56.033 62.506L56.118 62.42L56.24 62.298L56.325 62.213L56.42 62.137L56.575 62.015L56.67 61.939L56.771 61.874L56.96 61.753C57.064 61.686 57.17 61.625 57.28 61.567L57.487 61.46L57.594 61.405L57.707 61.357L57.944 61.258L58.054 61.21L58.17 61.173L58.433 61.085C58.604 61.027 58.777 60.987 58.951 60.942L59.069 60.912L59.188 60.89L59.491 60.834L59.61 60.811L59.731 60.796C59.917 60.774 60.101 60.746 60.289 60.734L60.615 60.716L60.735 60.707L60.856 60.707L61.185 60.707L61.307 60.707L61.427 60.716L61.753 60.734L61.874 60.743L61.993 60.758L62.31 60.796L62.43 60.811L62.549 60.834C62.731 60.868 62.911 60.896 63.088 60.942L63.375 61.017L63.493 61.046L63.607 61.085L63.871 61.173L63.985 61.21L64.097 61.258L64.335 61.357L64.447 61.405L64.554 61.46L64.763 61.569C64.835 61.606 64.909 61.645 64.98 61.688L65.081 61.753L65.269 61.874L65.371 61.939L65.466 62.015L65.621 62.137C65.748 62.237 65.688 62.185 65.802 62.298L65.924 62.42L66.01 62.506L66.084 62.601L66.174 62.719L66.248 62.814L66.307 62.92L66.429 63.137L66.471 63.25L66.551 63.468L66.572 63.587L66.59 63.686L66.611 63.804L66.611 63.924L66.611 64.53L66.611 64.65L66.59 64.769L66.572 64.867L66.551 64.986L66.509 65.1L66.429 65.317L66.37 65.424L66.248 65.64L66.174 65.736L66.084 65.852L66.01 65.948L65.924 66.034L65.802 66.156L65.716 66.242L65.621 66.316L65.466 66.441L65.371 66.516L65.271 66.581L65.081 66.701C64.977 66.769 64.873 66.828 64.763 66.885L64.555 66.995L64.447 67.049L64.335 67.096L64.097 67.197L63.987 67.243L63.871 67.281L63.606 67.37C63.435 67.427 63.262 67.468 63.088 67.513L62.97 67.543L62.851 67.564L62.546 67.621L62.429 67.644L62.308 67.659L61.99 67.697L61.871 67.712C61.682 67.73 61.493 67.736 61.304 67.746C61.115 67.746 60.924 67.753 60.734 67.746L60.613 67.739L60.289 67.719L60.168 67.712L60.048 67.697L59.732 67.659L59.612 67.644L59.493 67.621L59.191 67.564L59.073 67.543L58.954 67.513C58.78 67.468 58.607 67.427 58.438 67.37L58.173 67.284L58.06 67.245L57.948 67.198L57.71 67.099L57.598 67.052L57.491 66.996C57.31 66.903 57.131 66.811 56.96 66.701L56.771 66.581L56.67 66.516L56.575 66.441L56.42 66.316C56.293 66.216 56.353 66.271 56.24 66.156L56.118 66.034L56.033 65.948L55.959 65.852L55.868 65.736L55.793 65.64L55.734 65.534L55.612 65.317L55.533 65.1L55.49 64.986L55.469 64.867L55.451 64.769L55.429 64.65z" stroke-width="0.25"/>
  <path d="M59.067 64.275L58.917 64.171L58.886 64.069C58.843 63.935 58.854 64.003 58.85 63.863L58.848 63.759L58.875 63.656L58.904 63.554L59.015 63.357C59.027 63.341 59.168 63.188 59.182 63.173" stroke-width="0.13"/>
  <path d="M60.289 62.662L60.171 62.692L60.079 62.718L59.962 62.747L59.85 62.792L59.776 62.82L59.664 62.863L59.557 62.921L59.506 62.948L59.401 63.006L59.292 63.09" stroke-width="0.13"/>
  <path d="M62.64 64.686L62.534 64.743L62.484 64.772L62.378 64.828L62.265 64.873L62.192 64.902L62.079 64.944L61.963 64.975L61.869 65L61.753 65.031L61.633 65.049L61.526 65.066L61.406 65.084C61.289 65.096 61.167 65.096 61.049 65.103C60.932 65.099 60.811 65.099 60.692 65.088L60.463 65.058L60.344 65.04L60.226 65.013L60.131 64.989L60.012 64.96L59.899 64.92L59.823 64.891L59.709 64.849C59.619 64.811 59.529 64.757 59.442 64.712" stroke-width="0.25"/>
  <path d="M59.006 63.871L59.006 64.075L59.037 64.176L59.067 64.275L59.128 64.37L59.189 64.466L59.365 64.643L59.534 64.76" stroke-width="0.25"/>
  <path d="M59.052 64.227C59.079 64.144 59.058 64.194 59.128 64.084L59.189 63.987L59.365 63.811L59.465 63.743L59.491 63.725L59.591 63.655" stroke-width="0.25"/>
  <path d="M59.53 63.698L59.661 63.627L59.773 63.582L59.844 63.554L59.957 63.512L60.075 63.481L60.167 63.457L60.283 63.426L60.402 63.406L60.509 63.39L60.628 63.371L60.865 63.359L60.987 63.351L61.225 63.36L61.345 63.365L61.576 63.396L61.697 63.414L61.814 63.442L61.911 63.466L62.03 63.494L62.143 63.536L62.22 63.564L62.335 63.606L62.508 63.695" stroke-width="0.25"/>
  <path d="M62.451 63.655L62.549 63.725L62.578 63.743L62.676 63.811L62.853 63.987L62.914 64.084C62.982 64.194 62.963 64.144 62.988 64.227" stroke-width="0.25"/>
  <path d="M62.512 64.757L62.676 64.643L62.853 64.466L62.914 64.37L62.973 64.275L63.005 64.176L63.034 64.075L63.034 63.871" stroke-width="0.25"/>
  <path d="M65.868 65.275L65.784 65.361L65.67 65.474L65.584 65.56L65.489 65.635L65.344 65.75L65.25 65.825L65.147 65.891L64.971 66.004L64.87 66.069L64.762 66.125L64.554 66.233C64.411 66.307 64.483 66.272 64.335 66.335L64.097 66.435L63.987 66.481L63.871 66.519L63.607 66.608C63.438 66.665 63.264 66.704 63.09 66.75C62.911 66.796 62.731 66.825 62.549 66.859L62.43 66.882L62.31 66.897L61.993 66.936L61.874 66.95C61.685 66.968 61.494 66.974 61.305 66.984C61.115 66.984 60.924 66.99 60.734 66.984L60.613 66.977L60.289 66.957L60.167 66.95L60.048 66.936L59.731 66.897L59.61 66.882L59.491 66.859L59.189 66.802L59.07 66.781L58.953 66.751C58.777 66.706 58.604 66.665 58.435 66.608L58.17 66.519L58.055 66.481L57.944 66.435L57.707 66.335L57.594 66.289L57.487 66.233L57.279 66.125L57.171 66.069L57.07 66.004L56.893 65.89L56.79 65.825L56.697 65.75L56.551 65.634C56.424 65.534 56.484 65.587 56.371 65.472L56.256 65.358L56.17 65.274L56.097 65.177L56.012 65.069L55.939 64.972L55.88 64.867L55.762 64.659L55.722 64.546L55.686 64.45L55.643 64.337L55.622 64.218L55.606 64.128L55.585 64.009L55.585 63.844" stroke="#808080" stroke-width="0.1"/>
  <path d="M66.427 63.52L66.397 63.356L66.355 63.243L66.32 63.146L66.278 63.033L66.219 62.927L66.102 62.719L66.028 62.624L65.944 62.515L65.87 62.42L65.784 62.334L65.671 62.219L65.585 62.134L65.49 62.058L65.346 61.944L65.251 61.868L65.149 61.802L64.971 61.689L64.87 61.625" stroke="#808080" stroke-width="0.1"/>
  <path d="M66.278 64.662L66.161 64.87L66.1 64.974L66.027 65.07L65.942 65.18L65.868 65.275" stroke-width="0.13"/>
  <path d="M66.456 64.013L66.435 64.132L66.418 64.222L66.397 64.341L66.355 64.454L66.319 64.549L66.278 64.662" stroke="#808080" stroke-width="0.1"/>
  <path d="M61.021 63.319L60.844 63.319L60.725 63.331L60.618 63.341L60.497 63.353L60.378 63.378L60.284 63.399L60.167 63.423L60.051 63.462L59.975 63.487L59.86 63.524L59.753 63.578L59.7 63.603L59.591 63.655" stroke="#808080" stroke-width="0.1"/>
  <path d="M62.027 63.475L61.875 63.423L61.756 63.399L61.662 63.378L61.543 63.353L61.423 63.341L61.317 63.331L61.197 63.319" stroke="#808080" stroke-width="0.1"/>
  <path d="M63.124 63.521L62.973 63.671L62.973 63.792L62.973 64.058L62.973 64.18" stroke-width="0.13"/>
  <path d="M62.859 64.519C62.872 64.504 63.015 64.352 63.027 64.335L63.139 64.138L63.165 64.036L63.192 63.933L63.191 63.829L63.188 63.725L63.124 63.521" stroke-width="0.13"/>
  <path d="M62.825 63.143L62.726 63.072L62.698 63.051L62.598 62.981L62.491 62.924L62.439 62.899L62.332 62.843L62.219 62.801L62.143 62.774L62.029 62.731L61.911 62.704L61.816 62.68L61.698 62.652L61.469 62.619L61.348 62.603C61.231 62.594 61.11 62.594 60.991 62.59C60.874 62.595 60.753 62.597 60.636 62.609C60.52 62.621 60.404 62.645 60.289 62.662" stroke="#808080" stroke-width="0.1"/>
  <path d="M62.973 63.671L62.853 63.479L62.676 63.304L62.578 63.235L62.549 63.216L62.451 63.148L62.341 63.095L62.289 63.07L62.18 63.017L62.066 62.978L61.99 62.954L61.875 62.915L61.756 62.89L61.662 62.871L61.543 62.845L61.423 62.834L61.317 62.823L61.197 62.811C61.081 62.804 60.962 62.811 60.844 62.811C60.729 62.823 60.612 62.829 60.497 62.845L60.332 62.881" stroke="#808080" stroke-width="0.1"/>
  <path d="M66.611 64.143L66.59 64.262L66.572 64.359L66.551 64.478L66.509 64.593L66.429 64.81L66.37 64.915L66.248 65.132L66.174 65.227L66.084 65.346L66.01 65.441L65.924 65.527L65.802 65.649L65.716 65.733L65.621 65.808L65.466 65.933C65.34 66.033 65.406 65.986 65.271 66.072L65.081 66.194L64.98 66.259L64.873 66.314L64.652 66.43L64.545 66.486L64.433 66.533L64.182 66.638L64.069 66.685L63.956 66.722L63.677 66.816C63.502 66.873 63.323 66.915 63.145 66.96L63.027 66.992L62.908 67.013L62.588 67.073L62.469 67.096L62.35 67.111L62.017 67.152L61.896 67.165L61.776 67.174L61.435 67.194L61.314 67.201C61.118 67.207 60.923 67.201 60.728 67.201C60.533 67.189 60.338 67.183 60.145 67.165L60.024 67.152L59.692 67.111L59.572 67.096L59.453 67.073L59.134 67.013L59.015 66.992L58.898 66.96L58.595 66.884L58.478 66.853L58.365 66.816L58.085 66.722C57.932 66.671 58.009 66.7 57.859 66.638L57.609 66.533L57.497 66.486L57.39 66.43L57.168 66.314L57.061 66.259L56.96 66.194L56.771 66.072L56.67 66.007L56.575 65.933L56.42 65.808L56.325 65.733L56.24 65.649L56.118 65.527L56.031 65.441L55.959 65.344L55.868 65.227L55.793 65.132L55.671 64.915L55.612 64.81L55.533 64.593L55.49 64.478L55.469 64.359L55.451 64.262L55.429 64.143" stroke-width="0.13"/>
  <path d="M64.98 66.766L64.873 66.822L64.652 66.938L64.545 66.993L64.433 67.04L64.182 67.146L64.069 67.192L63.956 67.23L63.677 67.323C63.502 67.382 63.323 67.423 63.145 67.468L63.027 67.498L62.908 67.522L62.588 67.581L62.469 67.603L62.35 67.618L62.017 67.659L61.896 67.674L61.776 67.682L61.435 67.701L61.314 67.709C61.118 67.715 60.923 67.709 60.728 67.709C60.533 67.697 60.338 67.691 60.145 67.674L60.024 67.659L59.692 67.618L59.572 67.603L59.453 67.581L59.133 67.522L59.015 67.498L58.898 67.468C58.718 67.423 58.539 67.382 58.365 67.323L58.085 67.23L57.972 67.192L57.859 67.146L57.609 67.04L57.497 66.993L57.39 66.938L57.168 66.822L57.061 66.766" stroke-width="0.13"/>
  <path d="M55.646 63.351L55.624 63.47L55.606 63.561L55.585 63.679L55.585 63.844" stroke-width="0.13"/>
  <path d="M57.173 61.624L57.07 61.689L56.893 61.802L56.792 61.868L56.698 61.942L56.551 62.057L56.457 62.134L56.371 62.219L56.258 62.332L56.173 62.417L56.098 62.514L56.015 62.621L55.941 62.718" stroke="#808080" stroke-width="0.1"/>
 </g>
 <g id="22894_4_PROTEZIONE_RACCORDI_5">
  <desc>22894_4_PROTEZIONE_RACCORDI</desc>
  <g id="22894_4_PROTEZIONE_RACCORDI_3_2">
   <desc>22894_4_PROTEZIONE_RACCORDI_3</desc>
   <line stroke-width="0.25" x1="47.969" x2="6.418" y1="186.402" y2="162.413"/>
   <line stroke-width="0.25" x1="48.539" x2="47.969" y1="186.074" y2="186.402"/>
   <line stroke-width="0.25" x1="47.401" x2="47.969" y1="157.155" y2="156.825"/>
   <line stroke-width="0.25" x1="6.987" x2="47.401" y1="133.822" y2="157.155"/>
   <line stroke-width="0.13" x1="48.539" x2="47.969" y1="157.812" y2="158.14"/>
   <path d="M7.038 133.522L6.557 133.8C6.474 133.852 6.435 133.969 6.424 134.058L6.418 134.151L6.418 134.955L6.418 161.608L6.418 162.413" stroke-width="0.25"/>
   <path d="M47.969 156.825C48.057 156.884 48.134 156.943 48.207 157.022C48.625 157.485 48.539 158.02 48.539 158.616L48.539 185.27L48.539 186.074" stroke-width="0.25"/>
   <path d="M6.987 133.822C6.905 133.782 6.839 133.758 6.75 133.745C6.657 133.75 6.702 133.741 6.615 133.768" stroke="#808080" stroke-width="0.1"/>
   <path d="M47.401 157.155C47.7 157.354 47.921 157.68 47.963 158.042L47.969 158.14L47.969 158.945L47.969 185.598L47.969 186.402" stroke="#808080" stroke-width="0.1"/>
  </g>
  <g id="22894_4_PROTEZIONE_RACCORDI_2_2">
   <desc>22894_4_PROTEZIONE_RACCORDI_2</desc>
   <line stroke-width="0.13" x1="54.801" x2="54.801" y1="189.688" y2="189.032"/>
   <line stroke-width="0.13" x1="57.646" x2="57.646" y1="189.032" y2="189.688"/>
   <line stroke-width="0.13" x1="106.028" x2="106.028" y1="161.098" y2="161.756"/>
   <line stroke="#808080" stroke-width="0.1" x1="6.25" x2="6.285" y1="160.806" y2="160.787"/>
   <line stroke-width="0.13" x1="6.418" x2="5.849" y1="160.441" y2="160.77"/>
   <line stroke-width="0.25" x1="6.267" x2="6.214" y1="160.796" y2="160.826"/>
   <line stroke-width="0.25" x1="6.25" x2="6.214" y1="160.806" y2="160.826"/>
   <line stroke-width="0.13" x1="61.631" x2="7.556" y1="101.615" y2="132.836"/>
   <line stroke-width="0.13" x1="102.043" x2="47.969" y1="124.948" y2="156.169"/>
   <line stroke-width="0.13" x1="103.183" x2="49.107" y1="126.921" y2="158.14"/>
   <line stroke-width="0.13" x1="100.337" x2="49.107" y1="155.512" y2="185.088"/>
   <line stroke-width="0.13" x1="60.918" x2="60.918" y1="181.556" y2="182.212"/>
   <line stroke-width="0.13" x1="58.926" x2="58.926" y1="182.705" y2="183.362"/>
   <line stroke-width="0.13" x1="95.072" x2="95.072" y1="161.837" y2="162.495"/>
   <line stroke-width="0.13" x1="100.906" x2="49.677" y1="156.497" y2="186.074"/>
   <line stroke-width="0.13" x1="93.079" x2="93.079" y1="162.987" y2="163.645"/>
   <line stroke-width="0.13" x1="0.726" x2="0.726" y1="158.469" y2="157.812"/>
   <path d="M106.617 160.276C106.54 160.95 105.85 161.201 105.331 161.501L58.344 188.629L57.646 189.032L57.445 189.133C57.055 189.306 56.645 189.355 56.223 189.372C55.801 189.355 55.39 189.306 55 189.133L54.801 189.032L54.103 188.629L50.375 186.477L49.677 186.074C49.606 186.032 49.542 185.98 49.482 185.921C49.021 185.461 49.107 184.891 49.107 184.283L49.107 158.945C49.107 158.368 49.152 157.859 48.927 157.325C48.756 156.921 48.487 156.54 48.134 156.277L47.969 156.169L47.273 155.766L8.253 133.239C7.868 133.015 7.525 132.746 7.083 132.681C6.926 132.691 6.831 132.715 6.697 132.793" stroke="#808080" stroke-width="0.1"/>
   <path d="M100.337 155.512C100.362 155.864 100.522 156.207 100.805 156.429L100.906 156.497L101.602 156.9L105.331 159.052C105.623 159.222 106.081 159.427 106.349 159.697C106.694 160.043 106.628 160.468 106.617 160.933C106.614 161.158 106.506 161.356 106.349 161.514C106.081 161.782 105.625 161.989 105.331 162.157L58.344 189.287L57.646 189.688L57.445 189.79C57.055 189.962 56.645 190.014 56.223 190.03C55.801 190.014 55.39 189.962 55 189.79L54.801 189.688L54.103 189.287L50.375 187.133L49.677 186.731L49.514 186.622C48.999 186.24 48.625 185.592 48.551 184.955L48.539 184.759L48.539 183.955L48.539 158.616C48.539 158.039 48.625 157.544 48.255 157.079C48.173 156.977 48.078 156.9 47.969 156.825" stroke-width="0.25"/>
   <path d="M100.451 155.969L100.853 155.272L102.78 151.937C103.316 151.007 103.183 151.508 103.183 150.435L103.183 127.725L103.183 126.921L103.171 126.724C103.096 126.087 102.722 125.441 102.207 125.058L102.043 124.948L101.346 124.546L62.328 102.019C61.942 101.796 61.598 101.525 61.156 101.462C61 101.471 60.906 101.495 60.771 101.572" stroke-width="0.25"/>
   <path d="M6.418 161.575L6.323 161.58C5.881 161.516 5.536 161.247 5.152 161.025L1.423 158.872C1.129 158.703 0.674 158.497 0.406 158.228C0.249 158.07 0.142 157.872 0.137 157.647C0.127 157.182 0.06 156.757 0.405 156.409C0.674 156.14 1.131 155.935 1.423 155.766L5.721 153.284L6.418 152.883" stroke-width="0.25"/>
   <path d="M6.214 160.826L6.134 160.846C5.785 160.832 5.392 160.506 5.152 160.366L1.423 158.215C0.904 157.914 0.214 157.664 0.137 156.991" stroke="#808080" stroke-width="0.1"/>
   <path d="M6.418 160.441C6.407 160.58 6.381 160.681 6.285 160.787" stroke-width="0.25"/>
   <path d="M63.915 182.623C63.826 182.445 63.649 182.31 63.481 182.212C63.049 181.963 62.558 181.908 62.072 181.908C61.819 181.93 61.576 181.957 61.332 182.033C60.938 182.158 60.57 182.414 60.222 182.616L59.624 182.961C59.323 183.133 58.686 183.39 58.491 183.774" stroke-width="0.25"/>
   <path d="M58.401 183.371C58.401 184.092 59.216 184.39 59.823 184.467C60.24 184.519 60.673 184.49 61.075 184.362C61.469 184.239 61.838 183.983 62.185 183.782L62.783 183.437C63.142 183.229 63.796 182.978 63.969 182.516C64.019 182.388 64.007 182.355 64.007 182.221" stroke-width="0.25"/>
   <path d="M64.007 182.221C63.804 181.403 62.78 181.252 62.072 181.252C61.819 181.272 61.576 181.3 61.332 181.377C60.938 181.501 60.57 181.757 60.222 181.957L59.624 182.304C59.148 182.578 58.545 182.788 58.401 183.371" stroke="#808080" stroke-width="0.1"/>
   <path d="M98.067 162.906C97.977 162.728 97.802 162.592 97.632 162.495C97.203 162.247 96.71 162.192 96.224 162.192C95.971 162.212 95.728 162.24 95.484 162.317C95.09 162.441 94.721 162.697 94.375 162.897L93.777 163.242C93.477 163.414 92.837 163.674 92.644 164.056" stroke-width="0.25"/>
   <path d="M92.554 163.653C92.554 164.375 93.368 164.673 93.975 164.748C94.391 164.801 94.825 164.771 95.227 164.645C95.623 164.52 95.989 164.265 96.337 164.064L96.936 163.718C97.293 163.513 97.948 163.259 98.121 162.799C98.171 162.669 98.159 162.637 98.159 162.502" stroke-width="0.25"/>
   <path d="M98.159 162.502C97.956 161.687 96.933 161.533 96.224 161.533C95.971 161.555 95.727 161.582 95.484 161.658C95.09 161.782 94.721 162.039 94.375 162.24L93.777 162.586C93.302 162.86 92.697 163.072 92.554 163.653" stroke="#808080" stroke-width="0.1"/>
   <path d="M6.697 132.793C6.323 133.151 6.418 133.675 6.418 134.151" stroke-width="0.25"/>
  </g>
  <g id="22894_4_PROTEZIONE_RACCORDI_1_2">
   <desc>22894_4_PROTEZIONE_RACCORDI_1</desc>
   <line stroke-width="0.25" x1="47.969" x2="47.401" y1="156.825" y2="157.155"/>
   <line stroke-width="0.25" x1="6.987" x2="47.401" y1="133.822" y2="157.155"/>
   <line stroke-width="0.25" x1="47.969" x2="7.556" y1="156.169" y2="132.836"/>
   <line stroke-width="0.25" x1="47.969" x2="47.969" y1="156.825" y2="156.169"/>
   <path d="M47.969 156.169C47.634 156.39 47.424 156.752 47.401 157.155" stroke="#808080" stroke-width="0.1"/>
   <path d="M6.987 133.822C7.011 133.419 7.221 133.058 7.556 132.836" stroke-width="0.25"/>
  </g>
 </g>
 <g>
  <line stroke="#FFFFFF" stroke-width="1" x1="60.957" x2="60.957" y1="12.919" y2="63.524"/>
  <line stroke-dasharray="5 1 1 1" stroke-width="0.13" x1="60.957" x2="60.957" y1="12.353" y2="63.088"/>
  <line stroke-width="0.13" x1="60.957" x2="60.957" y1="63.088" y2="64.088"/>
 </g>
 <g>
  <line stroke="#FFFFFF" stroke-width="1" x1="60.957" x2="60.957" y1="68.519" y2="182.715"/>
  <line stroke-dasharray="5 1 1 1" stroke-width="0.13" x1="60.957" x2="60.957" y1="67.954" y2="182.28"/>
  <line stroke-width="0.13" x1="60.957" x2="60.957" y1="182.28" y2="183.28"/>
 </g>
 <g class="callout callout_1">
  <g>
   <line stroke="#FFFFFF" stroke-width="1" x1="81.302" x2="108.165" y1="113.868" y2="98.358"/>
   <line stroke="#808080" stroke-width="0.1" x1="81.302" x2="108.165" y1="113.868" y2="98.358"/>
  </g>
  <path d="M105.608 101.881L110.724 101.881 110.724 94.837 105.608 94.837 105.608 101.881z" fill="#FFFFFF" stroke="none"/>
  <text fill="#000000" font-family="'Arial'" font-size="4.232" stroke="none" x="106.989" y="99.881"><desc>1</desc>1</text>
 </g>
 <g class="callout callout_2">
  <g>
   <line stroke="#FFFFFF" stroke-width="1" x1="63.787" x2="88.085" y1="3.52" y2="3.52"/>
   <line stroke="#808080" stroke-width="0.1" x1="63.787" x2="88.085" y1="3.52" y2="3.52"/>
  </g>
  <path d="M85.081 7.043L91.09 7.043 91.09 0 85.081 0 85.081 7.043z" fill="#FFFFFF" stroke="none"/>
  <text fill="#000000" font-family="'Arial'" font-size="4.232" stroke="none" x="86.909" y="5.043"><desc>2</desc>2</text>
 </g>
 <g class="callout callout_3">
  <g>
   <line stroke="#FFFFFF" stroke-width="1" x1="66.509" x2="88.409" y1="64.593" y2="64.593"/>
   <line stroke="#808080" stroke-width="0.1" x1="66.509" x2="88.409" y1="64.593" y2="64.593"/>
  </g>
  <path d="M85.418 68.141L91.402 68.141 91.402 61.045 85.418 61.045 85.418 68.141z" fill="#FFFFFF" stroke="none"/>
  <text fill="#000000" font-family="'Arial'" font-size="4.232" stroke="none" x="87.233" y="66.141"><desc>3</desc>3</text>
 </g>
 <g>
  <line stroke="#FFFFFF" stroke-width="1" x1="61.149" x2="61.149" y1="149.125" y2="150.623"/>
  <line stroke-dasharray="5 1 1 1" stroke-width="0.13" x1="61.149" x2="61.149" y1="148.56" y2="150.188"/>
  <line stroke-width="0.13" x1="61.149" x2="61.149" y1="150.188" y2="151.188"/>
 </g>
 <path class="hotspot hotspot_1" d="M105.608 101.881L 110.724 101.881L 110.724 94.837L 105.608 94.837L 105.608 101.881z" fill="black" id="AUTOID_156804" stroke="black" visibility="hidden"/>
 <path class="hotspot hotspot_2" d="M85.081 7.043L 91.09 7.043L 91.09 0L 85.081 0L 85.081 7.043z" fill="black" id="AUTOID_156805" stroke="black" visibility="hidden"/>
 <path class="hotspot hotspot_3" d="M85.418 68.141L 91.402 68.141L 91.402 61.045L 85.418 61.045L 85.418 68.141z" fill="black" id="AUTOID_156806" stroke="black" visibility="hidden"/>
</svg>