<?xml version="1.0" encoding="UTF-8" standalone="no"?><!-- Generator: PTC Arbortext IsoDraw 7.3 M080 --><svg xmlns="http://www.w3.org/2000/svg" xmlns:xlink="http://www.w3.org/1999/xlink" clip-rule="evenodd" fill="none" fill-rule="evenodd" font-family="sans-serif" font-size="10" font-stretch="normal" font-style="normal" font-variant="normal" font-weight="normal" height="192.213" onabort="parent.dwImageSVGOnAbort('WYS143146095');" onerror="parent.dwImageSVGOnError('WYS143146095');" onload="parent.dwImageSVGOnLoad('WYS143146095');" stroke="#000000" stroke-linecap="round" viewBox="0.0 0.0 153.537 192.213" width="153.537" x="0" xml:space="preserve" y="0">
 <g id="Livello_x0020_standard">
 </g>
 <g id="Disegno">
  <g id="AUTOID_2550">
   <desc>05.0320.0174</desc>
   <g>
    <path d="M80.516 84.695C80.516 85.084 81.061 85.397 81.733 85.397C82.406 85.397 82.95 85.084 82.95 84.695C82.95 84.307 82.406 83.992 81.733 83.992C81.061 83.992 80.516 84.307 80.516 84.695" stroke-width="0.1"/>
   </g>
   <g>
    <path d="M79.325 84.9C79.325 85.668 80.403 86.29 81.733 86.29C83.063 86.29 84.141 85.668 84.141 84.9" stroke-width="0.1"/>
    <path d="M84.141 84.9C84.141 84.132 83.063 83.51 81.733 83.51C80.403 83.51 79.325 84.132 79.325 84.9" stroke-width="0.25"/>
    <path d="M83.4 85.861C83.861 85.596 84.016 85.248 84.016 84.9L84.266 84.9C84.266 85.263 83.95 85.626 83.471 85.903L83.4 85.861z" fill="#000000" stroke="none"/>
    <path d="M79.45 84.9C79.45 85.263 79.653 85.623 80.066 85.861L79.995 85.903C79.537 85.638 79.2 85.304 79.2 84.9L79.45 84.9z" fill="#000000" stroke="none"/>
    <path d="M79.325 85.9C79.325 86.668 80.403 87.29 81.733 87.29C83.063 87.29 84.141 86.668 84.141 85.9" stroke-width="0.1"/>
    <path d="M80.909 87.65C81.188 87.709 81.471 87.736 81.733 87.734C83.063 87.734 84.141 87.111 84.141 86.343" stroke-width="0.1"/>
    <line stroke-width="0.25" x1="79.325" x2="79.325" y1="84.9" y2="86.343"/>
    <line stroke-width="0.25" x1="84.141" x2="84.141" y1="84.9" y2="86.343"/>
   </g>
   <g>
    <path d="M79.807 84.695C79.807 85.31 80.67 85.808 81.733 85.808C82.796 85.808 83.659 85.31 83.659 84.695C83.659 84.081 82.796 83.582 81.733 83.582C80.67 83.582 79.807 84.081 79.807 84.695" stroke-width="0.1"/>
   </g>
   <g>
    <path d="M79.325 86.343C79.325 87.111 80.403 87.734 81.733 87.734C83.063 87.734 84.141 87.111 84.141 86.343" stroke-width="0.1"/>
   </g>
   <path d="M80.186 89.727C80.186 89.727 80.944 89.947 81.733 89.947C82.521 89.947 83.281 89.727 83.281 89.727" stroke-width="0.25"/>
   <path d="M84.825 88.182C84.825 88.182 84.542 88.688 84.052 89.171C83.563 89.656 83.281 89.727 83.281 89.727" stroke-width="0.25"/>
   <path d="M78.641 88.182C78.641 88.182 78.924 88.688 79.414 89.171C79.903 89.656 80.186 89.727 80.186 89.727" stroke-width="0.25"/>
   <line stroke-width="0.1" x1="84.825" x2="83.281" y1="87.102" y2="88.649"/>
   <line stroke-width="0.1" x1="83.281" x2="80.186" y1="88.649" y2="88.649"/>
   <line stroke-width="0.1" x1="80.186" x2="78.641" y1="88.649" y2="87.102"/>
   <line stroke-width="0.1" x1="80.186" x2="80.186" y1="89.727" y2="88.649"/>
   <line stroke-width="0.1" x1="83.281" x2="83.281" y1="89.727" y2="88.649"/>
   <line stroke-width="0.25" x1="84.825" x2="84.825" y1="88.182" y2="87.102"/>
   <line stroke-width="0.25" x1="78.641" x2="78.641" y1="88.182" y2="87.102"/>
   <line stroke-width="0.25" x1="79.328" x2="78.641" y1="86.415" y2="87.102"/>
   <line stroke-width="0.25" x1="84.825" x2="84.138" y1="87.102" y2="86.415"/>
   <g>
    <path d="M81.25 90.51C81.25 90.664 81.465 90.789 81.733 90.789C82 90.789 82.216 90.664 82.216 90.51" stroke-width="0.25"/>
   </g>
   <line stroke-width="0.25" x1="82.216" x2="82.216" y1="90.51" y2="89.921"/>
   <line stroke-width="0.25" x1="81.25" x2="81.25" y1="90.51" y2="89.921"/>
  </g>
  <g id="AUTOID_2563">
   <desc>05.0314.0052</desc>
   <g>
    <path d="M34.537 70.399C35.264 69.98 35.264 68.621 34.537 67.364C33.811 66.108 32.634 65.427 31.91 65.846" stroke-width="0.1"/>
    <path d="M31.91 65.846C31.184 66.266 31.184 67.625 31.91 68.882C32.634 70.138 33.811 70.817 34.537 70.399" stroke-width="0.25"/>
    <path d="M33.223 66.018C32.719 65.727 32.301 65.765 31.972 65.954L31.847 65.739C32.189 65.54 32.701 65.635 33.223 65.936L33.223 66.018z" fill="#000000" stroke="none"/>
    <path d="M34.475 70.29C34.82 70.091 35.046 69.698 35.046 69.176L35.118 69.216C35.118 69.792 34.979 70.287 34.6 70.507L34.475 70.29z" fill="#000000" stroke="none"/>
   </g>
   <g>
    <path d="M61.423 85.983C69.587 81.271 69.587 65.984 61.423 51.843C53.259 37.701 40.021 30.057 31.856 34.771" stroke-width="0.1"/>
   </g>
   <g>
    <path d="M110.557 57.616C118.721 52.902 118.721 37.616 110.557 23.475C102.393 9.333 89.155 1.69 80.989 6.403" stroke-width="0.1"/>
   </g>
   <line stroke-width="0.25" x1="31.856" x2="80.989" y1="34.771" y2="6.403"/>
   <line stroke-width="0.25" x1="61.423" x2="110.557" y1="85.983" y2="57.616"/>
   <g>
    <path d="M31.856 34.771C21.022 41.026 18.859 57.561 27.024 71.701C35.188 85.843 50.588 92.239 61.423 85.983" stroke-width="0.25"/>
   </g>
   <g>
    <path d="M110.557 57.616C121.39 51.362 123.554 34.828 115.388 20.686C107.224 6.544 91.822 0.149 80.989 6.403" stroke-width="0.25"/>
   </g>
   <g>
    <path d="M35.932 69.594C36.656 69.176 36.656 67.816 35.932 66.56C35.206 65.302 34.029 64.623 33.304 65.042" stroke-width="0.1"/>
   </g>
   <g>
    <path d="M34.127 69.688C34.625 69.4 34.625 68.465 34.127 67.602C33.628 66.737 32.819 66.269 32.32 66.558" stroke-width="0.25"/>
    <path d="M32.32 66.558C31.821 66.846 31.821 67.781 32.32 68.644C32.819 69.509 33.628 69.975 34.127 69.688" stroke-width="0.1"/>
    <path d="M32.383 66.667C32.151 66.801 31.981 67.055 31.981 67.406L31.911 67.364C31.911 66.962 31.99 66.603 32.258 66.45L32.383 66.667z" fill="#000000" stroke="none"/>
    <path d="M33.223 69.558C33.567 69.756 33.84 69.709 34.064 69.579L34.189 69.796C33.951 69.933 33.585 69.849 33.223 69.64L33.223 69.558z" fill="#000000" stroke="none"/>
   </g>
   <line stroke-width="0.25" x1="34.537" x2="35.932" y1="70.399" y2="69.594"/>
   <line stroke-width="0.25" x1="33.302" x2="31.91" y1="65.042" y2="65.846"/>
   <g>
    <path d="M83.54 64.257C83.54 63.682 82.73 63.215 81.733 63.215C80.734 63.215 79.927 63.682 79.927 64.257C79.927 64.834 80.734 65.301 81.733 65.301C82.73 65.301 83.54 64.834 83.54 64.257" stroke="none"/>
   </g>
  </g>
  <g id="AUTOID_2576">
   <desc>05.0314.0052</desc>
   <g>
    <path d="M34.537 171.02C35.264 170.6 35.264 169.241 34.537 167.985C33.811 166.728 32.634 166.049 31.91 166.467" stroke-width="0.1"/>
    <path d="M31.91 166.467C31.184 166.887 31.184 168.246 31.91 169.502C32.634 170.759 33.811 171.438 34.537 171.02" stroke-width="0.25"/>
    <path d="M33.223 166.639C32.719 166.348 32.301 166.385 31.972 166.575L31.847 166.36C32.189 166.162 32.701 166.254 33.223 166.556L33.223 166.639z" fill="#000000" stroke="none"/>
    <path d="M34.475 170.912C34.82 170.711 35.046 170.319 35.046 169.795L35.118 169.836C35.118 170.413 34.979 170.908 34.6 171.127L34.475 170.912z" fill="#000000" stroke="none"/>
   </g>
   <g>
    <path d="M61.423 186.604C69.587 181.89 69.587 166.604 61.423 152.462C53.259 138.32 40.021 130.677 31.856 135.391" stroke-width="0.1"/>
   </g>
   <g>
    <path d="M110.557 158.236C118.721 153.524 118.721 138.237 110.557 124.096C102.393 109.953 89.155 102.311 80.989 107.024" stroke-width="0.1"/>
   </g>
   <line stroke-width="0.25" x1="31.856" x2="80.989" y1="135.391" y2="107.025"/>
   <line stroke-width="0.25" x1="61.423" x2="110.557" y1="186.604" y2="158.236"/>
   <g>
    <path d="M31.856 135.391C21.022 141.645 18.859 158.181 27.024 172.323C35.188 186.465 50.588 192.859 61.423 186.604" stroke-width="0.25"/>
   </g>
   <g>
    <path d="M110.557 158.236C121.39 151.983 123.554 135.448 115.388 121.305C107.224 107.164 91.822 100.769 80.989 107.024" stroke-width="0.25"/>
   </g>
   <g>
    <path d="M35.932 170.215C36.656 169.795 36.656 168.437 35.932 167.18C35.206 165.923 34.029 165.243 33.304 165.663" stroke-width="0.1"/>
   </g>
   <g>
    <path d="M34.127 170.308C34.625 170.02 34.625 169.086 34.127 168.222C33.628 167.358 32.819 166.89 32.32 167.179" stroke-width="0.25"/>
    <path d="M32.32 167.179C31.821 167.467 31.821 168.401 32.32 169.264C32.819 170.129 33.628 170.597 34.127 170.308" stroke-width="0.1"/>
    <path d="M32.383 167.287C32.151 167.42 31.981 167.675 31.981 168.026L31.911 167.985C31.911 167.581 31.99 167.224 32.258 167.07L32.383 167.287z" fill="#000000" stroke="none"/>
    <path d="M33.223 170.177C33.567 170.376 33.84 170.33 34.064 170.2L34.189 170.417C33.951 170.554 33.585 170.468 33.223 170.259L33.223 170.177z" fill="#000000" stroke="none"/>
   </g>
   <line stroke-width="0.25" x1="34.537" x2="35.932" y1="171.02" y2="170.215"/>
   <line stroke-width="0.25" x1="33.302" x2="31.91" y1="165.663" y2="166.467"/>
   <g>
    <path d="M83.54 164.878C83.54 164.302 82.73 163.835 81.733 163.835C80.734 163.835 79.927 164.302 79.927 164.878C79.927 165.455 80.734 165.921 81.733 165.921C82.73 165.921 83.54 165.455 83.54 164.878" stroke="none"/>
   </g>
  </g>
  <g id="AUTOID_2714">
   <desc>06.0443.0057</desc>
   <g>
    <path d="M27.655 68.334C26.937 68.748 26.937 70.093 27.655 71.337C28.373 72.582 29.539 73.254 30.257 72.84" stroke-width="0.25"/>
    <path d="M30.257 72.84C30.975 72.426 30.975 71.081 30.257 69.835C29.539 68.591 28.373 67.918 27.655 68.334" stroke-width="0.1"/>
    <path d="M30.195 72.731C30.536 72.534 30.76 72.147 30.76 71.629L30.83 71.67C30.83 72.239 30.696 72.731 30.32 72.948L30.195 72.731z" fill="#000000" stroke="none"/>
    <path d="M28.955 68.504C28.457 68.215 28.044 68.254 27.718 68.441L27.593 68.225C27.931 68.03 28.437 68.123 28.955 68.421L28.955 68.504z" fill="#000000" stroke="none"/>
   </g>
   <g>
    <path d="M28.088 69.084C27.609 69.361 27.609 70.257 28.088 71.087C28.567 71.918 29.344 72.367 29.824 72.09" stroke-width="0.1"/>
    <path d="M29.824 72.09C30.303 71.813 30.303 70.915 29.824 70.085C29.344 69.256 28.567 68.807 28.088 69.084" stroke-width="0.25"/>
    <path d="M28.955 71.963C29.285 72.153 29.545 72.106 29.762 71.983L29.887 72.198C29.658 72.331 29.304 72.246 28.955 72.046L28.955 71.963z" fill="#000000" stroke="none"/>
    <path d="M28.15 69.191C27.928 69.32 27.763 69.561 27.763 69.899L27.693 69.858C27.693 69.468 27.768 69.123 28.025 68.975L28.15 69.191z" fill="#000000" stroke="none"/>
   </g>
   <g>
    <path d="M30.461 72.721C31.179 72.308 31.179 70.962 30.461 69.718C29.742 68.472 28.577 67.801 27.859 68.215" stroke-width="0.25"/>
   </g>
   <g>
    <path d="M28.196 69.034C27.809 69.379 27.858 70.212 28.292 70.969C28.736 71.737 29.434 72.179 29.92 72.021" stroke-width="0.25"/>
   </g>
   <line stroke-width="0.25" x1="30.257" x2="30.461" y1="72.84" y2="72.721"/>
   <line stroke-width="0.25" x1="27.655" x2="27.859" y1="68.334" y2="68.215"/>
  </g>
  <g>
   <g>
    <path d="M25.259 175.368C25.743 175.088 25.743 174.181 25.259 173.342C25.152 173.156 25.028 172.987 24.905 172.853" stroke-width="0.1"/>
    <path d="M25.971 174.957C26.454 174.677 26.454 173.77 25.971 172.931C25.486 172.092 24.699 171.639 24.216 171.918" stroke-width="0.25"/>
    <line stroke-width="0.25" x1="25.971" x2="25.259" y1="174.957" y2="175.368"/>
    <line stroke-width="0.25" x1="24.216" x2="23.504" y1="171.918" y2="172.329"/>
   </g>
   <path d="M25.257 175.663C25.257 175.663 25.452 175.337 25.567 174.901 25.681 174.466 25.638 174.274 25.638 174.274 25.638 174.274 25.503 173.776 25.245 173.329 24.986 172.882 24.614 172.524 24.614 172.524L24.614 172.526C24.614 172.526 24.481 172.389 24.047 172.27 23.611 172.151 23.231 172.155 23.231 172.155L25.257 175.663z" fill="#FFFFFF" stroke="none"/>
   <g>
    <path d="M24.23 175.944C24.714 175.664 24.714 174.758 24.231 173.919C23.745 173.079 22.96 172.626 22.475 172.906C21.99 173.185 21.99 174.092 22.475 174.931C22.96 175.77 23.745 176.224 24.23 175.944" stroke-width="0.1"/>
   </g>
   <line stroke-width="0.1" x1="24.614" x2="23.847" y1="172.526" y2="172.968"/>
   <line stroke-width="0.25" x1="23.231" x2="22.463" y1="172.155" y2="172.598"/>
   <line stroke-width="0.25" x1="25.257" x2="24.489" y1="175.663" y2="176.105"/>
   <path d="M24.859 174.723C24.859 174.723 24.486 174.365 24.228 173.918C23.971 173.471 23.847 172.968 23.847 172.968" stroke-width="0.1"/>
   <path d="M24.859 174.723C24.859 174.723 24.666 175.05 24.551 175.486C24.437 175.923 24.489 176.105 24.489 176.105" stroke-width="0.1"/>
   <path d="M23.847 172.968C23.847 172.968 23.466 172.973 23.032 172.854C22.597 172.735 22.463 172.598 22.463 172.598" stroke-width="0.1"/>
   <path d="M23.231 172.155C23.231 172.155 23.611 172.151 24.047 172.27C24.481 172.389 24.614 172.526 24.614 172.526" stroke-width="0.25"/>
   <path d="M25.257 175.663C25.257 175.663 25.452 175.337 25.567 174.901C25.681 174.466 25.638 174.274 25.638 174.274" stroke-width="0.25"/>
   <path d="M24.614 172.524C24.614 172.524 24.986 172.882 25.245 173.329C25.503 173.776 25.638 174.274 25.638 174.274" stroke-width="0.25"/>
   <line stroke-width="0.1" x1="25.638" x2="24.87" y1="174.274" y2="174.717"/>
   <path d="M23.106 175.735C23.106 175.735 22.734 175.377 22.475 174.93C22.217 174.483 22.094 173.98 22.094 173.98" stroke-width="0.25"/>
   <path d="M22.463 172.598C22.463 172.598 22.271 172.925 22.155 173.36C22.042 173.796 22.094 173.98 22.094 173.98" stroke-width="0.25"/>
   <path d="M24.489 176.105C24.489 176.105 24.109 176.11 23.675 175.991C23.239 175.872 23.106 175.735 23.106 175.735" stroke-width="0.25"/>
   <line stroke-width="0.25" x1="25.971" x2="25.449" y1="174.957" y2="175.258"/>
   <line stroke-width="0.25" x1="24.216" x2="23.727" y1="171.918" y2="172.199"/>
  </g>
  <g>
   <g>
    <path d="M15.942 79.754C16.336 79.525 16.336 78.786 15.942 78.1C15.853 77.948 15.753 77.811 15.653 77.701" stroke-width="0.1"/>
    <path d="M15.226 77.385C14.955 77.23 14.749 77.281 14.571 77.382L14.446 77.165C14.637 77.057 14.936 77.137 15.226 77.305L15.226 77.385z" fill="#000000" stroke="none"/>
    <path d="M15.878 79.647C16.059 79.542 16.202 79.352 16.202 79.078L16.274 79.12C16.274 79.444 16.219 79.739 16.004 79.862L15.878 79.647z" fill="#000000" stroke="none"/>
    <path d="M17.562 78.819C17.957 78.59 17.957 77.85 17.562 77.165C17.166 76.48 16.524 76.111 16.129 76.338" stroke-width="0.25"/>
    <line stroke-width="0.25" x1="17.562" x2="15.942" y1="78.819" y2="79.754"/>
    <line stroke-width="0.25" x1="16.129" x2="14.509" y1="76.338" y2="77.274"/>
   </g>
   <g>
    <path d="M15.868 81.082C16.571 80.677 16.571 79.361 15.868 78.143 15.166 76.926 14.025 76.268 13.323 76.674 13.323 76.674 13.323 76.674 13.323 76.674L15.868 81.082z" fill="#FFFFFF" stroke="none"/>
    <path d="M15.868 81.082C16.571 80.677 16.571 79.361 15.868 78.143C15.166 76.926 14.025 76.268 13.323 76.674" stroke-width="0.25"/>
   </g>
   <g>
    <path d="M12.647 77.063C12.538 77.126 12.445 77.21 12.378 77.305" stroke-width="0.25"/>
    <path d="M14.798 81.59C14.951 81.578 15.086 81.537 15.192 81.472" stroke-width="0.25"/>
    <path d="M15.192 81.472C15.896 81.066 15.896 79.751 15.192 78.533C14.49 77.316 13.35 76.656 12.647 77.063" stroke-width="0.1"/>
    <path d="M15.131 81.364C15.464 81.171 15.685 80.793 15.685 80.287L15.756 80.328C15.756 80.885 15.625 81.367 15.256 81.581L15.131 81.364z" fill="#000000" stroke="none"/>
    <path d="M13.92 77.23C13.432 76.948 13.028 76.986 12.71 77.171L12.585 76.954C12.916 76.763 13.413 76.855 13.92 77.149L13.92 77.23z" fill="#000000" stroke="none"/>
   </g>
   <line stroke-width="0.25" x1="12.647" x2="13.323" y1="77.063" y2="76.674"/>
   <line stroke-width="0.25" x1="15.192" x2="15.868" y1="81.472" y2="81.082"/>
   <g>
    <path d="M12.118 82.971C12.756 82.602 12.756 81.406 12.118 80.298C11.477 79.189 10.441 78.59 9.801 78.959" stroke-width="0.1"/>
   </g>
   <g>
    <path d="M11.593 79.018C11.821 79.932 12.346 80.805 12.98 81.421" stroke-width="0.1"/>
   </g>
   <g>
    <path d="M9.936 78.716C10.451 78.915 11.032 79.013 11.593 79.018" stroke-width="0.1"/>
   </g>
   <g>
    <path d="M12.981 81.421C12.672 81.948 12.47 82.492 12.38 82.986" stroke-width="0.1"/>
   </g>
   <g>
    <path d="M9.807 78.79C9.653 78.879 9.535 79.012 9.457 79.168" stroke-width="0.25"/>
    <path d="M11.779 83.167C11.97 83.173 12.137 83.131 12.266 83.052" stroke-width="0.25"/>
   </g>
   <line stroke-width="0.25" x1="9.807" x2="12.681" y1="78.79" y2="77.131"/>
   <g>
    <path d="M15.685 79.855C15.4 78.945 14.894 78.1 14.301 77.453" stroke-width="0.1"/>
   </g>
   <g>
    <path d="M14.301 77.453C13.785 77.268 13.223 77.159 12.679 77.129" stroke-width="0.1"/>
   </g>
   <g>
    <path d="M15.138 81.394C15.407 80.867 15.589 80.337 15.682 79.864" stroke-width="0.1"/>
   </g>
   <line stroke-width="0.1" x1="11.593" x2="14.301" y1="79.016" y2="77.453"/>
   <line stroke-width="0.1" x1="12.98" x2="15.682" y1="81.421" y2="79.862"/>
   <line stroke-width="0.25" x1="12.266" x2="15.138" y1="83.052" y2="81.394"/>
   <g>
    <path d="M9.125 79.349C9.045 79.396 8.977 79.454 8.923 79.519" stroke-width="0.25"/>
    <path d="M11.195 83.453C11.288 83.436 11.374 83.403 11.442 83.361" stroke-width="0.25"/>
    <path d="M11.442 83.361C12.082 82.992 12.082 81.796 11.442 80.688C10.803 79.579 9.766 78.98 9.125 79.349" stroke-width="0.1"/>
    <path d="M11.38 83.254C11.682 83.079 11.887 82.739 11.887 82.281L11.958 82.322C11.958 82.832 11.842 83.275 11.505 83.471L11.38 83.254z" fill="#000000" stroke="none"/>
    <path d="M10.284 79.506C9.842 79.25 9.478 79.29 9.189 79.459L9.064 79.242C9.367 79.066 9.821 79.158 10.284 79.424L10.284 79.506z" fill="#000000" stroke="none"/>
   </g>
   <line stroke-width="0.25" x1="9.125" x2="9.801" y1="79.349" y2="78.959"/>
   <line stroke-width="0.25" x1="11.442" x2="12.117" y1="83.361" y2="82.972"/>
   <g>
    <path d="M10.654 83.816C11.294 83.447 11.294 82.251 10.654 81.143C10.015 80.034 8.977 79.436 8.339 79.805" stroke-width="0.25"/>
   </g>
   <g>
    <path d="M7.439 80.325C6.799 80.694 6.799 81.891 7.439 83C8.077 84.108 9.115 84.706 9.755 84.337" stroke-width="0.25"/>
    <path d="M9.755 84.337C10.394 83.968 10.394 82.771 9.755 81.662C9.115 80.555 8.077 79.956 7.439 80.325" stroke-width="0.1"/>
    <path d="M9.692 84.228C9.994 84.055 10.199 83.715 10.199 83.257L10.269 83.298C10.269 83.808 10.154 84.251 9.817 84.445L9.692 84.228z" fill="#000000" stroke="none"/>
    <path d="M8.596 80.48C8.154 80.225 7.791 80.266 7.501 80.433L7.376 80.216C7.679 80.042 8.134 80.132 8.596 80.399L8.596 80.48z" fill="#000000" stroke="none"/>
   </g>
   <line stroke-width="0.25" x1="7.439" x2="8.339" y1="80.325" y2="79.805"/>
   <line stroke-width="0.25" x1="9.755" x2="10.654" y1="84.337" y2="83.817"/>
   <g>
    <path d="M7.961 81.228C7.609 81.432 7.609 82.09 7.961 82.698C8.311 83.308 8.881 83.637 9.233 83.433C9.585 83.23 9.585 82.572 9.233 81.963C8.881 81.355 8.311 81.025 7.961 81.228" stroke-width="0.1"/>
   </g>
  </g>
  <g>
   <g>
    <path d="M22.114 76.618C22.612 76.331 22.612 75.4 22.114 74.537C22.004 74.344 21.878 74.173 21.751 74.034" stroke-width="0.1"/>
    <path d="M23.506 75.816C24.004 75.528 24.004 74.596 23.506 73.733C23.007 72.871 22.201 72.405 21.702 72.692" stroke-width="0.25"/>
    <line stroke-width="0.25" x1="23.506" x2="22.114" y1="75.816" y2="76.618"/>
    <line stroke-width="0.25" x1="21.702" x2="20.312" y1="72.692" y2="73.495"/>
   </g>
   <path d="M22.196 77.451C22.196 77.451 22.443 77.039 22.586 76.486 22.731 75.935 22.666 75.703 22.666 75.703 22.666 75.703 22.551 75.073 22.225 74.507 21.899 73.942 21.385 73.483 21.385 73.483 21.385 73.483 21.213 73.305 20.664 73.156 20.114 73.004 19.635 73.016 19.635 73.016L22.196 77.451z" fill="#FFFFFF" stroke="none"/>
   <path d="M21.385 73.483C21.385 73.483 21.899 73.942 22.225 74.507C22.551 75.073 22.666 75.703 22.666 75.703" stroke-width="0.25"/>
   <path d="M19.635 73.016C19.635 73.016 20.114 73.004 20.664 73.156C21.213 73.305 21.385 73.483 21.385 73.483" stroke-width="0.25"/>
   <path d="M22.666 75.703C22.666 75.703 22.731 75.935 22.586 76.486C22.443 77.039 22.196 77.451 22.196 77.451" stroke-width="0.25"/>
   <g>
    <path d="M19.085 74.582C18.676 74.817 18.676 75.581 19.083 76.287C19.492 76.992 20.152 77.373 20.559 77.138C20.966 76.903 20.966 76.141 20.559 75.435C20.152 74.728 19.492 74.347 19.085 74.582" stroke-width="0.1"/>
   </g>
   <g>
    <path d="M18.716 73.944C18.105 74.296 18.105 75.441 18.716 76.5C19.327 77.558 20.318 78.129 20.928 77.777C21.539 77.424 21.539 76.28 20.928 75.221C20.318 74.162 19.327 73.59 18.716 73.944" stroke-width="0.1"/>
   </g>
   <line stroke-width="0.1" x1="21.731" x2="22.664" y1="76.245" y2="75.706"/>
   <line stroke-width="0.25" x1="18.701" x2="19.635" y1="73.555" y2="73.016"/>
   <line stroke-width="0.1" x1="20.449" x2="21.385" y1="74.028" y2="73.487"/>
   <line stroke-width="0.25" x1="22.196" x2="21.262" y1="77.451" y2="77.992"/>
   <path d="M20.451 74.028L20.451 74.028C20.451 74.028 19.971 74.034 19.42 73.882C18.871 73.733 18.701 73.555 18.701 73.555" stroke-width="0.1"/>
   <path d="M21.731 76.245C21.731 76.245 21.259 75.792 20.932 75.227C20.608 74.664 20.451 74.028 20.451 74.028" stroke-width="0.1"/>
   <path d="M21.731 76.245L21.731 76.245C21.731 76.245 21.486 76.658 21.341 77.209C21.196 77.76 21.265 77.996 21.265 77.996" stroke-width="0.1"/>
   <path d="M21.265 77.996L21.265 77.996C21.265 77.996 20.785 78.003 20.236 77.852C19.687 77.701 19.515 77.524 19.515 77.524" stroke-width="0.25"/>
   <path d="M19.515 77.524C19.515 77.524 19.044 77.07 18.719 76.506C18.393 75.942 18.236 75.307 18.236 75.307" stroke-width="0.25"/>
   <path d="M18.701 73.555L18.701 73.555C18.701 73.555 18.455 73.968 18.312 74.519C18.167 75.069 18.236 75.307 18.236 75.307" stroke-width="0.25"/>
  </g>
  <g>
   <g>
    <path d="M124.775 14.051C124.495 14.212 124.495 14.734 124.775 15.217C125.054 15.701 125.506 15.962 125.784 15.801C126.063 15.641 126.063 15.118 125.784 14.634C125.507 14.151 125.054 13.891 124.775 14.051" stroke-width="0.1"/>
   </g>
   <line stroke-width="0.25" x1="131.112" x2="131.109" y1="13.88" y2="13.878"/>
   <g>
    <path d="M131.116 13.881C130.973 13.798 130.786 13.756 130.598 13.756C130.399 13.756 130.217 13.803 130.086 13.878" stroke-width="0.25"/>
   </g>
   <line stroke-width="0.25" x1="131.109" x2="131.719" y1="13.878" y2="14.23"/>
   <line stroke-width="0.25" x1="129.429" x2="130.086" y1="14.257" y2="13.878"/>
   <g>
    <path d="M131.114 10.185C130.831 10.022 130.373 10.022 130.091 10.185" stroke-width="0.25"/>
   </g>
   <line stroke-width="0.25" x1="131.114" x2="132.686" y1="10.185" y2="11.093"/>
   <line stroke-width="0.1" x1="132.686" x2="131.391" y1="11.093" y2="11.84"/>
   <line stroke-width="0.1" x1="131.391" x2="130.86" y1="11.84" y2="11.535"/>
   <g>
    <path d="M130.86 11.535C130.719 11.452 130.491 11.452 130.349 11.535" stroke-width="0.1"/>
   </g>
   <line stroke-width="0.25" x1="132.996" x2="132.686" y1="11.631" y2="11.093"/>
   <line stroke-width="0.25" x1="128.207" x2="128.519" y1="11.631" y2="11.093"/>
   <line stroke-width="0.25" x1="128.519" x2="130.091" y1="11.093" y2="10.185"/>
   <line stroke-width="0.1" x1="130.349" x2="129.816" y1="11.535" y2="11.843"/>
   <line stroke-width="0.1" x1="129.816" x2="129.514" y1="11.843" y2="12.375"/>
   <line stroke-width="0.1" x1="131.701" x2="131.391" y1="12.378" y2="11.84"/>
   <g>
    <path d="M130.86 11.893C130.719 11.811 130.491 11.811 130.349 11.893" stroke-width="0.1"/>
   </g>
   <line stroke-width="0.1" x1="130.86" x2="131.701" y1="11.893" y2="12.378"/>
   <line stroke-width="0.25" x1="130.349" x2="129.816" y1="14.08" y2="14.388"/>
   <g>
    <path d="M130.86 14.08C130.719 13.999 130.491 13.999 130.349 14.08" stroke-width="0.25"/>
   </g>
   <line stroke-width="0.25" x1="130.86" x2="131.391" y1="14.08" y2="14.387"/>
   <line stroke-width="0.25" x1="131.609" x2="131.391" y1="14.153" y2="14.387"/>
   <line stroke-width="0.1" x1="130.349" x2="129.816" y1="11.893" y2="12.201"/>
   <line stroke-width="0.1" x1="129.816" x2="129.514" y1="12.201" y2="12.375"/>
   <line stroke-width="0.25" x1="129.508" x2="129.816" y1="14.211" y2="14.388"/>
   <line stroke-width="0.25" x1="128.04" x2="128.207" y1="11.727" y2="11.631"/>
   <g>
    <path d="M132.99 11.634C132.61 11.5 132.079 11.818 131.706 12.375" stroke-width="0.1"/>
   </g>
   <line stroke-width="0.1" x1="128.519" x2="129.167" y1="11.093" y2="11.468"/>
   <line stroke-width="0.1" x1="129.167" x2="129.816" y1="11.468" y2="11.843"/>
   <g>
    <path d="M129.514 12.375C129.133 11.792 128.592 11.49 128.217 11.625" stroke-width="0.1"/>
   </g>
   <g>
    <path d="M130.278 13.682C130.466 13.356 130.401 12.82 130.145 12.317" stroke-width="0.1"/>
   </g>
   <g>
    <path d="M131.052 12.311C130.77 12.859 130.737 13.413 130.942 13.72" stroke-width="0.1"/>
   </g>
   <g>
    <path d="M127.849 15.525C128.348 15.237 128.348 14.305 127.849 13.442C127.352 12.58 126.545 12.114 126.046 12.401" stroke-width="0.1"/>
   </g>
   <path d="M128.943 15.785C128.943 15.785 129.189 15.369 129.336 14.814C129.48 14.259 129.414 14.026 129.414 14.026" stroke-width="0.25"/>
   <path d="M127.578 12.112C127.578 12.112 127.736 12.752 128.063 13.32C128.393 13.89 128.866 14.346 128.866 14.346" stroke-width="0.1"/>
   <path d="M129.415 14.028C129.415 14.028 129.258 13.39 128.93 12.82C128.602 12.252 128.127 11.795 128.127 11.795" stroke-width="0.25"/>
   <line stroke-width="0.25" x1="125.816" x2="126.364" y1="11.637" y2="11.32"/>
   <line stroke-width="0.1" x1="128.866" x2="129.415" y1="14.346" y2="14.028"/>
   <line stroke-width="0.1" x1="127.578" x2="128.127" y1="12.112" y2="11.795"/>
   <path d="M127.578 12.112C127.578 12.112 127.094 12.118 126.54 11.967C125.987 11.814 125.819 11.641 125.819 11.641" stroke-width="0.1"/>
   <path d="M128.866 14.346C128.866 14.346 128.621 14.762 128.474 15.317C128.33 15.871 128.395 16.106 128.395 16.106" stroke-width="0.1"/>
   <path d="M126.364 11.32C126.364 11.32 126.847 11.314 127.402 11.464C127.954 11.617 128.123 11.791 128.123 11.791" stroke-width="0.25"/>
   <path d="M125.819 11.641C125.819 11.641 125.572 12.057 125.427 12.612C125.412 12.669 125.399 12.721 125.388 12.772" stroke-width="0.25"/>
   <path d="M128.395 16.106C128.395 16.106 127.912 16.111 127.358 15.96C127.293 15.941 127.231 15.923 127.176 15.903" stroke-width="0.25"/>
   <line stroke-width="0.25" x1="128.395" x2="128.943" y1="16.103" y2="15.785"/>
   <line stroke-width="0.25" x1="126.182" x2="127.849" y1="16.489" y2="15.525"/>
   <line stroke-width="0.25" x1="126.046" x2="124.536" y1="12.401" y2="13.274"/>
   <g>
    <path d="M126.182 16.489C126.68 16.201 126.68 15.269 126.182 14.406C125.683 13.542 124.876 13.076 124.379 13.364" stroke-width="0.1"/>
    <path d="M124.379 13.364C123.879 13.651 123.879 14.583 124.378 15.446C124.876 16.309 125.683 16.775 126.182 16.489" stroke-width="0.25"/>
    <path d="M125.28 13.494C124.938 13.297 124.665 13.343 124.441 13.473L124.316 13.256C124.552 13.118 124.918 13.204 125.281 13.413L125.28 13.494z" fill="#000000" stroke="none"/>
    <path d="M126.118 16.381C126.35 16.246 126.519 15.993 126.519 15.643L126.59 15.683C126.59 16.086 126.51 16.443 126.243 16.597L126.118 16.381z" fill="#000000" stroke="none"/>
    <path d="M127.325 14.458C127.26 14.256 127.171 14.061 127.072 13.891C126.575 13.029 125.766 12.563 125.269 12.85" stroke-width="0.1"/>
    <line stroke-width="0.25" x1="126.182" x2="127.072" y1="16.489" y2="15.974"/>
    <line stroke-width="0.25" x1="124.379" x2="125.269" y1="13.364" y2="12.85"/>
   </g>
   <line stroke-width="0.25" x1="132.991" x2="133.156" y1="11.634" y2="11.73"/>
   <g>
    <path d="M137.31 14.568C137.019 14.4 136.545 14.673 136.253 15.179C135.962 15.682 135.962 16.228 136.253 16.396C136.545 16.565 137.019 16.292 137.31 15.788C137.602 15.282 137.602 14.737 137.31 14.568" stroke-width="0.1"/>
   </g>
   <path d="M132.206 15.816C132.206 15.816 131.96 15.4 131.814 14.846C131.669 14.291 131.735 14.057 131.735 14.057" stroke-width="0.25"/>
   <path d="M133.572 12.143C133.572 12.143 133.413 12.782 133.086 13.35C132.758 13.919 132.282 14.375 132.282 14.375" stroke-width="0.1"/>
   <path d="M131.734 14.058C131.734 14.058 131.891 13.419 132.219 12.85C132.549 12.282 133.022 11.826 133.022 11.826" stroke-width="0.25"/>
   <line stroke-width="0.25" x1="135.334" x2="134.786" y1="11.666" y2="11.349"/>
   <line stroke-width="0.1" x1="132.282" x2="131.734" y1="14.375" y2="14.058"/>
   <line stroke-width="0.1" x1="133.572" x2="133.022" y1="12.143" y2="11.826"/>
   <path d="M133.572 12.143C133.572 12.143 134.056 12.148 134.609 11.996C135.162 11.846 135.331 11.672 135.331 11.672" stroke-width="0.1"/>
   <path d="M132.282 14.375C132.282 14.375 132.53 14.791 132.675 15.346C132.819 15.901 132.753 16.135 132.753 16.135" stroke-width="0.1"/>
   <path d="M134.786 11.349C134.786 11.349 134.301 11.343 133.748 11.496C133.195 11.647 133.026 11.82 133.026 11.82" stroke-width="0.25"/>
   <path d="M135.331 11.672C135.331 11.672 135.645 12.266 135.725 12.647" stroke-width="0.25"/>
   <path d="M132.753 16.135C132.753 16.135 133.432 16.117 133.799 15.987" stroke-width="0.25"/>
   <line stroke-width="0.25" x1="132.756" x2="132.206" y1="16.132" y2="15.816"/>
   <g>
    <path d="M136.909 13.332C136.381 13.026 135.52 13.526 134.989 14.448C134.456 15.369 134.454 16.364 134.983 16.67" stroke-width="0.1"/>
    <path d="M134.983 16.67C135.061 16.714 135.145 16.742 135.228 16.751" stroke-width="0.25"/>
    <path d="M137.103 13.502C137.044 13.428 136.978 13.369 136.909 13.332" stroke-width="0.25"/>
    <path d="M134.623 15.769C134.622 16.192 134.806 16.423 135.045 16.562L134.92 16.777C134.669 16.632 134.551 16.256 134.552 15.811L134.623 15.769z" fill="#000000" stroke="none"/>
    <path d="M136.847 13.439C136.599 13.297 136.276 13.282 135.95 13.471L135.95 13.388C136.32 13.173 136.691 13.06 136.972 13.224L136.847 13.439z" fill="#000000" stroke="none"/>
   </g>
   <g>
    <path d="M137.552 14.147C137.127 13.901 136.437 14.301 136.01 15.038C135.586 15.775 135.586 16.573 136.01 16.818C136.061 16.847 136.115 16.867 136.165 16.876" stroke-width="0.1"/>
    <path d="M136.165 16.876C136.604 16.972 137.183 16.564 137.552 15.928C137.929 15.276 137.973 14.579 137.681 14.252" stroke-width="0.25"/>
    <path d="M137.681 14.252C137.64 14.208 137.597 14.172 137.552 14.147" stroke-width="0.1"/>
    <path d="M136.036 16.774C136.085 16.803 136.165 16.754 136.216 16.763L136.116 16.989C136.062 16.98 136.038 16.891 135.985 16.861L136.036 16.774z" fill="#000000" stroke="none"/>
    <path d="M137.608 14.352C137.57 14.31 137.568 14.214 137.527 14.191L137.578 14.105C137.625 14.131 137.711 14.103 137.753 14.151L137.608 14.352z" fill="#000000" stroke="none"/>
   </g>
   <g>
    <path d="M135.164 12.324C134.637 12.019 133.776 12.519 133.245 13.442C132.712 14.362 132.71 15.358 133.239 15.663" stroke-width="0.1"/>
   </g>
   <line stroke-width="0.25" x1="134.983" x2="133.239" y1="16.67" y2="15.663"/>
   <line stroke-width="0.25" x1="136.909" x2="135.165" y1="13.332" y2="12.324"/>
   <line stroke-width="0.25" x1="135.228" x2="136.21" y1="16.751" y2="16.885"/>
   <line stroke-width="0.25" x1="137.71" x2="137.103" y1="14.285" y2="13.502"/>
  </g>
  <g id="AUTOID_14249">
   <desc>05.0320.0174</desc>
   <g>
    <path d="M80.516 185.711C80.516 186.098 81.061 186.413 81.733 186.413C82.406 186.413 82.95 186.098 82.95 185.711C82.95 185.323 82.406 185.008 81.733 185.008C81.061 185.008 80.516 185.323 80.516 185.711" stroke-width="0.1"/>
   </g>
   <g>
    <path d="M79.325 185.914C79.325 186.682 80.403 187.305 81.733 187.305C83.063 187.305 84.141 186.682 84.141 185.914" stroke-width="0.1"/>
    <path d="M84.141 185.914C84.141 185.147 83.063 184.525 81.733 184.525C80.403 184.525 79.325 185.147 79.325 185.914" stroke-width="0.25"/>
    <path d="M83.4 186.877C83.861 186.611 84.016 186.264 84.016 185.914L84.266 185.914C84.266 186.277 83.95 186.641 83.471 186.919L83.4 186.877z" fill="#000000" stroke="none"/>
    <path d="M79.45 185.914C79.45 186.278 79.653 186.639 80.066 186.877L79.995 186.919C79.537 186.653 79.2 186.318 79.2 185.914L79.45 185.914z" fill="#000000" stroke="none"/>
    <path d="M79.325 186.914C79.325 187.682 80.403 188.305 81.733 188.305C83.063 188.305 84.141 187.682 84.141 186.914" stroke-width="0.1"/>
    <path d="M80.909 188.665C81.188 188.724 81.471 188.752 81.733 188.75C83.063 188.75 84.141 188.127 84.141 187.36" stroke-width="0.1"/>
    <line stroke-width="0.25" x1="79.325" x2="79.325" y1="185.914" y2="187.36"/>
    <line stroke-width="0.25" x1="84.141" x2="84.141" y1="185.914" y2="187.36"/>
   </g>
   <g>
    <path d="M79.807 185.711C79.807 186.324 80.67 186.823 81.733 186.823C82.796 186.823 83.659 186.324 83.659 185.711C83.659 185.097 82.796 184.598 81.733 184.598C80.67 184.598 79.807 185.097 79.807 185.711" stroke-width="0.1"/>
   </g>
   <g>
    <path d="M79.325 187.36C79.325 188.127 80.403 188.75 81.733 188.75C83.063 188.75 84.141 188.127 84.141 187.36" stroke-width="0.1"/>
   </g>
   <path d="M80.186 190.742C80.186 190.742 80.944 190.962 81.733 190.962C82.521 190.962 83.281 190.742 83.281 190.742" stroke-width="0.25"/>
   <path d="M84.825 189.197C84.825 189.197 84.542 189.703 84.052 190.187C83.563 190.67 83.281 190.742 83.281 190.742" stroke-width="0.25"/>
   <path d="M78.641 189.197C78.641 189.197 78.924 189.703 79.414 190.187C79.903 190.67 80.186 190.742 80.186 190.742" stroke-width="0.25"/>
   <line stroke-width="0.1" x1="84.825" x2="83.281" y1="188.118" y2="189.663"/>
   <line stroke-width="0.1" x1="83.281" x2="80.186" y1="189.663" y2="189.663"/>
   <line stroke-width="0.1" x1="80.186" x2="78.641" y1="189.663" y2="188.118"/>
   <line stroke-width="0.1" x1="80.186" x2="80.186" y1="190.742" y2="189.663"/>
   <line stroke-width="0.1" x1="83.281" x2="83.281" y1="190.742" y2="189.663"/>
   <line stroke-width="0.25" x1="84.825" x2="84.825" y1="189.197" y2="188.118"/>
   <line stroke-width="0.25" x1="78.641" x2="78.641" y1="189.197" y2="188.118"/>
   <line stroke-width="0.25" x1="79.328" x2="78.641" y1="187.431" y2="188.118"/>
   <line stroke-width="0.25" x1="84.825" x2="84.138" y1="188.118" y2="187.431"/>
   <g>
    <path d="M81.25 191.525C81.25 191.679 81.465 191.804 81.733 191.804C82 191.804 82.216 191.679 82.216 191.525" stroke-width="0.25"/>
   </g>
   <line stroke-width="0.25" x1="82.216" x2="82.216" y1="191.525" y2="190.937"/>
   <line stroke-width="0.25" x1="81.25" x2="81.25" y1="191.525" y2="190.937"/>
  </g>
  <g id="AUTOID_14259">
   <desc>06.0443.0057</desc>
   <g>
    <path d="M85.429 79.25C85.429 78.072 83.775 77.115 81.733 77.115C79.691 77.115 78.037 78.072 78.037 79.25" stroke-width="0.25"/>
    <path d="M78.037 79.25C78.037 80.429 79.691 81.384 81.733 81.384C83.775 81.384 85.429 80.429 85.429 79.25" stroke-width="0.1"/>
    <path d="M78.162 79.25C78.162 79.819 78.509 80.365 79.155 80.739L79.084 80.778C78.393 80.379 77.912 79.858 77.912 79.25L78.162 79.25z" fill="#000000" stroke="none"/>
    <path d="M84.311 80.739C85.022 80.328 85.304 79.789 85.304 79.25L85.554 79.25C85.554 79.804 85.114 80.356 84.382 80.778L84.311 80.739z" fill="#000000" stroke="none"/>
   </g>
   <g>
    <path d="M84.198 79.25C84.198 78.463 83.094 77.826 81.733 77.826C80.371 77.826 79.268 78.463 79.268 79.25" stroke-width="0.1"/>
    <path d="M79.268 79.25C79.268 80.036 80.371 80.674 81.733 80.674C83.094 80.674 84.198 80.036 84.198 79.25" stroke-width="0.25"/>
    <path d="M80.025 78.263C79.552 78.536 79.393 78.893 79.393 79.25L79.143 79.25C79.143 78.878 79.462 78.507 79.953 78.222L80.025 78.263z" fill="#000000" stroke="none"/>
    <path d="M84.073 79.25C84.073 78.876 83.864 78.509 83.441 78.263L83.512 78.222C83.98 78.493 84.323 78.837 84.323 79.25L84.073 79.25z" fill="#000000" stroke="none"/>
   </g>
   <g>
    <path d="M78.037 79.585C78.037 80.765 79.691 81.719 81.733 81.719C83.775 81.719 85.429 80.765 85.429 79.585" stroke-width="0.25"/>
   </g>
   <g>
    <path d="M84.182 79.418C84.033 78.695 82.972 78.165 81.733 78.162C80.474 78.162 79.435 78.707 79.284 79.418" stroke-width="0.25"/>
   </g>
   <line stroke-width="0.25" x1="78.037" x2="78.037" y1="79.25" y2="79.585"/>
   <line stroke-width="0.25" x1="85.429" x2="85.429" y1="79.25" y2="79.585"/>
  </g>
  <g id="AUTOID_14280">
   <desc>06.0443.0057</desc>
   <g>
    <path d="M85.429 179.58C85.429 178.401 83.775 177.445 81.733 177.445C79.691 177.445 78.037 178.401 78.037 179.58" stroke-width="0.25"/>
    <path d="M78.037 179.58C78.037 180.758 79.691 181.713 81.733 181.713C83.775 181.713 85.429 180.758 85.429 179.58" stroke-width="0.1"/>
    <path d="M78.162 179.58C78.162 180.149 78.509 180.694 79.155 181.068L79.084 181.109C78.393 180.71 77.912 180.188 77.912 179.58L78.162 179.58z" fill="#000000" stroke="none"/>
    <path d="M84.311 181.068C85.022 180.657 85.304 180.118 85.304 179.58L85.554 179.58C85.554 180.133 85.114 180.687 84.382 181.109L84.311 181.068z" fill="#000000" stroke="none"/>
   </g>
   <g>
    <path d="M84.198 179.58C84.198 178.794 83.094 178.156 81.733 178.156C80.371 178.156 79.268 178.794 79.268 179.58" stroke-width="0.1"/>
    <path d="M79.268 179.58C79.268 180.366 80.371 181.002 81.733 181.002C83.094 181.002 84.198 180.366 84.198 179.58" stroke-width="0.25"/>
    <path d="M80.025 178.593C79.552 178.866 79.393 179.223 79.393 179.58L79.143 179.58C79.143 179.207 79.462 178.836 79.953 178.552L80.025 178.593z" fill="#000000" stroke="none"/>
    <path d="M84.073 179.58C84.073 179.206 83.864 178.837 83.441 178.593L83.512 178.552C83.98 178.823 84.323 179.167 84.323 179.58L84.073 179.58z" fill="#000000" stroke="none"/>
   </g>
   <g>
    <path d="M78.037 179.915C78.037 181.093 79.691 182.05 81.733 182.05C83.775 182.05 85.429 181.093 85.429 179.915" stroke-width="0.25"/>
   </g>
   <g>
    <path d="M84.182 179.747C84.033 179.026 82.972 178.495 81.733 178.491C80.474 178.491 79.435 179.037 79.284 179.747" stroke-width="0.25"/>
   </g>
   <line stroke-width="0.25" x1="78.037" x2="78.037" y1="179.58" y2="179.915"/>
   <line stroke-width="0.25" x1="85.429" x2="85.429" y1="179.58" y2="179.915"/>
  </g>
  <g>
   <line stroke="#FFFFFF" stroke-width="2" x1="124.37" x2="117.322" y1="15.451" y2="19.521"/>
   <line stroke-dasharray="5 1 1 1" stroke-width="0.1" x1="125.28" x2="117.28" y1="14.926" y2="19.545"/>
   <line stroke-width="0.1" x1="117.28" x2="116.414" y1="19.545" y2="20.045"/>
  </g>
  <g>
   <g>
    <path d="M119.956 120.724C120.447 120.441 120.447 119.519 119.956 118.668C119.463 117.817 118.667 117.358 118.176 117.641" stroke-width="0.1"/>
    <path d="M118.176 117.641C117.683 117.924 117.683 118.846 118.176 119.697C118.668 120.548 119.465 121.007 119.956 120.724" stroke-width="0.25"/>
    <path d="M119.066 117.769C118.727 117.575 118.459 117.621 118.237 117.75L118.112 117.533C118.346 117.397 118.707 117.481 119.066 117.688L119.066 117.769z" fill="#000000" stroke="none"/>
    <path d="M119.894 120.615C120.121 120.483 120.289 120.234 120.289 119.888L120.359 119.93C120.359 120.328 120.281 120.68 120.019 120.832L119.894 120.615z" fill="#000000" stroke="none"/>
    <path d="M120.822 120.224C121.313 119.941 121.313 119.019 120.822 118.168C120.329 117.317 119.533 116.858 119.042 117.141" stroke-width="0.1"/>
    <path d="M121.688 119.724C122.18 119.441 122.18 118.519 121.688 117.668C121.195 116.817 120.399 116.356 119.908 116.641" stroke-width="0.1"/>
    <path d="M122.364 117.98C122.299 117.781 122.212 117.59 122.114 117.423C121.621 116.57 120.825 116.111 120.334 116.394" stroke-width="0.1"/>
    <line stroke-width="0.25" x1="119.956" x2="122.114" y1="120.724" y2="119.477"/>
    <line stroke-width="0.25" x1="118.176" x2="120.334" y1="117.641" y2="116.394"/>
   </g>
   <g>
    <path d="M122.114 119.478C122.605 119.194 122.605 118.274 122.114 117.423C121.623 116.572 120.825 116.111 120.334 116.396" stroke-width="0.1"/>
   </g>
   <g>
    <path d="M119.599 120.108C119.894 119.938 119.894 119.385 119.599 118.875C119.305 118.364 118.826 118.087 118.531 118.257C118.236 118.427 118.236 118.98 118.531 119.49C118.826 120.001 119.305 120.278 119.599 120.108" stroke-width="0.1"/>
   </g>
   <g>
    <path d="M126.843 116.816C127.174 116.388 127.081 115.554 126.652 114.802C126.206 114.033 125.528 113.564 125.006 113.631" stroke-width="0.25"/>
   </g>
   <path d="M123.373 119.825C123.373 119.825 123.632 119.388 123.784 118.805C123.938 118.221 123.868 117.977 123.868 117.977" stroke-width="0.25"/>
   <path d="M123.868 117.977C123.868 117.977 123.703 117.305 123.358 116.706C123.013 116.108 122.513 115.629 122.513 115.629" stroke-width="0.25"/>
   <path d="M120.664 115.134C120.664 115.134 121.171 115.128 121.754 115.287C122.335 115.447 122.513 115.629 122.513 115.629" stroke-width="0.25"/>
   <line stroke-width="0.25" x1="123.373" x2="122.745" y1="119.825" y2="120.188"/>
   <path d="M121.885 115.992C121.885 115.992 122.052 116.664 122.397 117.26C122.742 117.858 123.24 118.338 123.24 118.338" stroke-width="0.1"/>
   <path d="M121.885 115.992C121.885 115.992 121.378 115.998 120.796 115.837C120.215 115.679 120.037 115.495 120.037 115.495" stroke-width="0.1"/>
   <path d="M123.24 118.338C123.24 118.338 122.981 118.775 122.828 119.358C122.677 119.941 122.745 120.188 122.745 120.188" stroke-width="0.1"/>
   <line stroke-width="0.1" x1="123.868" x2="123.24" y1="117.977" y2="118.338"/>
   <line stroke-width="0.1" x1="122.513" x2="121.885" y1="115.629" y2="115.992"/>
   <g>
    <path d="M120.051 115.903C119.808 116.043 119.658 116.299 119.597 116.615" stroke-width="0.1"/>
    <path d="M121.349 119.92C121.762 120.123 122.128 120.126 122.397 119.969C123.046 119.596 123.046 118.382 122.397 117.26C121.75 116.137 120.698 115.53 120.051 115.903" stroke-width="0.1"/>
   </g>
   <path d="M122.745 120.188C122.745 120.188 121.903 120.21 121.343 119.923" stroke-width="0.25"/>
   <path d="M120.037 115.495C120.037 115.495 119.644 115.933 119.572 116.834" stroke-width="0.25"/>
   <line stroke-width="0.25" x1="120.037" x2="120.664" y1="115.495" y2="115.134"/>
   <line stroke-width="0.25" x1="123.501" x2="121.278" y1="113.894" y2="115.177"/>
   <line stroke-width="0.25" x1="123.644" x2="125.864" y1="119.266" y2="117.984"/>
   <line stroke-width="0.25" x1="125.004" x2="123.802" y1="113.631" y2="113.793"/>
   <line stroke-width="0.25" x1="126.1" x2="126.843" y1="117.775" y2="116.814"/>
   <g>
    <path d="M126.1 117.775C126.51 117.245 126.394 116.201 125.855 115.263C125.299 114.299 124.45 113.712 123.802 113.793" stroke-width="0.1"/>
   </g>
   <g>
    <path d="M125.864 117.984C125.959 117.93 126.04 117.856 126.1 117.775" stroke-width="0.25"/>
   </g>
   <g>
    <path d="M123.802 113.793C123.686 113.81 123.584 113.844 123.501 113.894" stroke-width="0.25"/>
   </g>
  </g>
 </g>
 <g id="Numerazione">
  <g class="callout callout_2">
   <g>
    <line stroke="#FFFFFF" stroke-width="1" x1="17.605" x2="3.37" y1="74.382" y2="70.849"/>
    <line stroke-width="0.1" x1="18.138" x2="2.835" y1="74.515" y2="70.715"/>
   </g>
   <path d="M0 73.983L5.673 73.983 5.673 67.448 0 67.448 0 73.983z" fill="#FFFFFF" stroke="none"/>
   <text fill="#000000" font-family="'Arial'" font-size="3.528" stroke="none" x="1.855" y="71.983"><desc>2</desc>2</text>
  </g>
  <g class="callout callout_5">
   <g>
    <line stroke="#FFFFFF" stroke-width="1" x1="85.37" x2="107.456" y1="88.26" y2="91.451"/>
    <line stroke-width="0.1" x1="84.825" x2="108.001" y1="88.182" y2="91.53"/>
   </g>
   <path d="M105.164 94.796L110.837 94.796 110.837 88.263 105.164 88.263 105.164 94.796z" fill="#FFFFFF" stroke="none"/>
   <text fill="#000000" font-family="'Arial'" font-size="3.528" stroke="none" x="107.019" y="92.796"><desc>5</desc>5</text>
  </g>
  <g class="callout callout_5">
   <g>
    <line stroke="#FFFFFF" stroke-width="1" x1="85.376" x2="99.996" y1="189.188" y2="188.955"/>
    <line stroke-width="0.1" x1="84.825" x2="100.546" y1="189.197" y2="188.947"/>
   </g>
   <path d="M97.709 192.213L103.385 192.213 103.385 185.68 97.709 185.68 97.709 192.213z" fill="#FFFFFF" stroke="none"/>
   <text fill="#000000" font-family="'Arial'" font-size="3.528" stroke="none" x="99.566" y="190.213"><desc>5</desc>5</text>
  </g>
  <g class="callout callout_3">
   <g>
    <line stroke="#FFFFFF" stroke-width="1" x1="16.31" x2="29.785" y1="81.7" y2="100.129"/>
    <line stroke-width="0.1" x1="15.986" x2="30.109" y1="81.256" y2="100.573"/>
   </g>
   <path d="M27.283 103.864L32.936 103.864 32.936 97.283 27.283 97.283 27.283 103.864z" fill="#FFFFFF" stroke="none"/>
   <text fill="#000000" font-family="'Arial'" font-size="3.528" stroke="none" x="29.129" y="101.864"><desc>3</desc>3</text>
  </g>
  <g class="callout callout_1">
   <g>
    <line stroke="#FFFFFF" stroke-width="1" x1="26.425" x2="3.474" y1="69.004" y2="59.831"/>
    <line stroke-width="0.1" x1="26.936" x2="2.964" y1="69.207" y2="59.627"/>
   </g>
   <path d="M0.499 62.895L5.429 62.895 5.429 56.359 0.499 56.359 0.499 62.895z" fill="#FFFFFF" stroke="none"/>
   <text fill="#000000" font-family="'Arial'" font-size="3.528" stroke="none" x="1.983" y="60.895"><desc>1</desc>1</text>
  </g>
  <g class="callout callout_1">
   <g>
    <line stroke="#FFFFFF" stroke-width="1" x1="85.974" x2="107.456" y1="79.177" y2="76.275"/>
    <line stroke-width="0.1" x1="85.429" x2="108.001" y1="79.25" y2="76.201"/>
   </g>
   <path d="M105.536 79.469L110.465 79.469 110.465 72.933 105.536 72.933 105.536 79.469z" fill="#FFFFFF" stroke="none"/>
   <text fill="#000000" font-family="'Arial'" font-size="3.528" stroke="none" x="107.019" y="77.469"><desc>1</desc>1</text>
  </g>
  <g class="callout callout_1">
   <g>
    <line stroke="#FFFFFF" stroke-width="1" x1="85.861" x2="100.004" y1="178.974" y2="176.769"/>
    <line stroke-width="0.1" x1="85.317" x2="100.546" y1="179.06" y2="176.683"/>
   </g>
   <path d="M98.081 179.951L103.012 179.951 103.012 173.415 98.081 173.415 98.081 179.951z" fill="#FFFFFF" stroke="none"/>
   <text fill="#000000" font-family="'Arial'" font-size="3.528" stroke="none" x="99.566" y="177.951"><desc>1</desc>1</text>
  </g>
  <g class="callout callout_4">
   <g>
    <line stroke="#FFFFFF" stroke-width="1" x1="21.222" x2="4.876" y1="174.194" y2="172.855"/>
    <line stroke-width="0.1" x1="21.771" x2="4.328" y1="174.24" y2="172.811"/>
   </g>
   <path d="M1.455 176.074L7.2 176.074 7.2 169.549 1.455 169.549 1.455 176.074z" fill="#FFFFFF" stroke="none"/>
   <text fill="#000000" font-family="'Arial'" font-size="3.528" stroke="none" x="3.347" y="174.074"><desc>4</desc>4</text>
  </g>
  <g class="callout callout_7">
   <g>
    <line stroke="#FFFFFF" stroke-width="1" x1="123.307" x2="133.669" y1="120.805" y2="140.074"/>
    <line stroke-width="0.1" x1="123.046" x2="133.931" y1="120.32" y2="140.558"/>
   </g>
   <path d="M131.112 143.805L136.747 143.805 136.747 137.312 131.112 137.312 131.112 143.805z" fill="#FFFFFF" stroke="none"/>
   <text fill="#000000" font-family="'Arial'" font-size="3.528" stroke="none" x="132.949" y="141.805"><desc>7</desc>7</text>
  </g>
  <g class="callout callout_6">
   <g>
    <line stroke="#FFFFFF" stroke-width="1" x1="136.002" x2="150.227" y1="11.772" y2="3.564"/>
    <line stroke-width="0.1" x1="135.526" x2="150.704" y1="12.047" y2="3.289"/>
   </g>
   <path d="M147.87 6.578L153.537 6.578 153.537 0 147.87 0 147.87 6.578z" fill="#FFFFFF" stroke="none"/>
   <text fill="#000000" font-family="'Arial'" font-size="3.528" stroke="none" x="149.723" y="4.578"><desc>6</desc>6</text>
  </g>
 </g>
  <path class="hotspot hotspot_1" d="M0.499 62.895L 5.429 62.895L 5.429 56.359L 0.499 56.359L 0.499 62.895zM105.536 79.469L 110.465 79.469L 110.465 72.933L 105.536 72.933L 105.536 79.469zM98.081 179.951L 103.012 179.951L 103.012 173.415L 98.081 173.415L 98.081 179.951z" fill="black" id="AUTOID_55982" stroke="black" visibility="hidden"/>
  <path class="hotspot hotspot_7" d="M131.112 143.805L 136.747 143.805L 136.747 137.312L 131.112 137.312L 131.112 143.805z" fill="black" id="AUTOID_55983" stroke="black" visibility="hidden"/>
  <path class="hotspot hotspot_5" d="M105.164 94.796L 110.837 94.796L 110.837 88.263L 105.164 88.263L 105.164 94.796zM97.709 192.213L 103.385 192.213L 103.385 185.68L 97.709 185.68L 97.709 192.213z" fill="black" id="AUTOID_55984" stroke="black" visibility="hidden"/>
  <path class="hotspot hotspot_2" d="M0 73.983L 5.673 73.983L 5.673 67.448L 0 67.448L 0 73.983z" fill="black" id="AUTOID_55985" stroke="black" visibility="hidden"/>
  <path class="hotspot hotspot_3" d="M27.283 103.864L 32.936 103.864L 32.936 97.283L 27.283 97.283L 27.283 103.864z" fill="black" id="AUTOID_55986" stroke="black" visibility="hidden"/>
  <path class="hotspot hotspot_6" d="M147.87 6.578L 153.537 6.578L 153.537 0L 147.87 0L 147.87 6.578z" fill="black" id="AUTOID_55987" stroke="black" visibility="hidden"/>
  <path class="hotspot hotspot_4" d="M1.455 176.074L 7.2 176.074L 7.2 169.549L 1.455 169.549L 1.455 176.074z" fill="black" id="AUTOID_55988" stroke="black" visibility="hidden"/>
</svg>