<?xml version="1.0" encoding="UTF-8" standalone="no"?><!-- Generator: PTC Arbortext IsoDraw 7.3 M080 --><svg xmlns="http://www.w3.org/2000/svg" xmlns:xlink="http://www.w3.org/1999/xlink" clip-rule="evenodd" fill="none" fill-rule="evenodd" font-family="sans-serif" font-size="10" font-stretch="normal" font-style="normal" font-variant="normal" font-weight="normal" height="159.336" onabort="parent.dwImageSVGOnAbort('RET143150017');" onerror="parent.dwImageSVGOnError('RET143150017');" onload="parent.dwImageSVGOnLoad('RET143150017');" stroke="#000000" stroke-linecap="round" viewBox="0.0 0.0 131.822 159.336" width="131.822" x="0" xml:space="preserve" y="0">
 <g id="Livello_x0020_standard">
  <g id="05_0301_9919_000">
   <desc>05_0301_9919_000</desc>
   <g id="05_0301_9961_000">
    <desc>05_0301_9961_000</desc>
    <g id="05_0301_9961_000_2">
     <desc>05_0301_9961_000_2</desc>
     <g>
      <path d="M61.164 26.097C61.53 26.48 61.996 26.521 62.473 26.285" stroke-width="0.1"/>
     </g>
     <g>
      <path d="M59.996 31.826C61.152 32.585 62.765 32.972 64.396 32.973C66.016 32.973 67.481 32.594 68.543 31.981" stroke-width="0.1"/>
     </g>
     <g>
      <path d="M70.29 29.379C70.289 29.251 70.278 29.126 70.259 29.018" stroke-width="0.3"/>
      <path d="M58.533 29.481C58.575 31.475 61.209 33.064 64.432 33.045C67.679 33.027 70.302 31.385 70.29 29.379" stroke-width="0.3"/>
     </g>
     <g>
      <path d="M54.945 26.259C57.173 28.463 60 29.864 62.213 30.013" stroke-width="0.3"/>
     </g>
     <g>
      <path d="M62.375 30.024C65.284 30.454 68.81 29.807 71.472 28.486" stroke-width="0.3"/>
     </g>
     <line stroke-width="0.1" x1="68.543" x2="68.543" y1="29.574" y2="31.981"/>
     <line stroke-width="0.1" x1="61.216" x2="61.216" y1="26.146" y2="29.846"/>
     <line stroke-width="0.1" x1="62.375" x2="62.375" y1="26.326" y2="30.025"/>
     <line stroke-width="0.1" x1="71.075" x2="71.075" y1="25.071" y2="28.679"/>
     <line stroke-width="0.1" x1="71.924" x2="71.924" y1="24.655" y2="28.19"/>
     <line stroke-width="0.3" x1="58.533" x2="58.533" y1="28.878" y2="29.481"/>
     <line stroke-width="0.3" x1="62.375" x2="62.268" y1="30.025" y2="30.019"/>
     <path d="M71.801 24.721C71.597 24.907 71.536 24.943 71.269 24.986" stroke-width="0.1"/>
     <path d="M59.112 29.134L58.854 29.028L58.17 28.687" stroke-width="0.1"/>
     <path d="M61.573 29.905L61.216 29.846" stroke-width="0.1"/>
     <path d="M62.212 30.013L63.06 30.106L63.256 30.115" stroke-width="0.3"/>
     <path d="M74.293 22.789C74.293 23.3 74.06 23.798 73.894 24.274C73.573 25.192 73.209 26.1 72.754 26.96C72.43 27.571 72.085 28.146 71.472 28.484" stroke-width="0.3"/>
    </g>
   </g>
   <g id="05_0301_9966_000">
    <desc>05_0301_9966_000</desc>
    <g>
     <path d="M41.168 26.547C40.99 24.925 39.968 23.19 38.701 22.228" stroke-width="0.3"/>
    </g>
    <g>
     <path d="M36.348 21.815C35.332 22.524 35.384 24.532 36.445 26.373C37.548 28.286 39.338 29.32 40.444 28.682C40.476 28.664 40.509 28.643 40.536 28.625" stroke-width="0.1"/>
    </g>
    <g>
     <path d="M36.082 21.617C34.896 22.303 34.896 24.525 36.082 26.582C37.271 28.638 39.195 29.751 40.383 29.065C41.57 28.379 41.57 26.157 40.383 24.1C39.195 22.044 37.27 20.931 36.082 21.617" stroke-width="0.1"/>
    </g>
    <g>
     <path d="M36.25 21.765C35.121 22.417 35.121 24.53 36.25 26.486C37.38 28.44 39.21 29.496 40.338 28.846C40.703 28.635 40.948 28.274 41.073 27.83" stroke-width="0.1"/>
     <path d="M37.595 21.663C37.063 21.509 36.6 21.557 36.25 21.765" stroke-width="0.1"/>
    </g>
    <g>
     <path d="M33.826 19.256C33.276 19.896 32.972 20.9 32.939 21.968" stroke-width="0.3"/>
    </g>
    <g>
     <path d="M33.049 23.564C33.526 26.457 35.375 29.405 37.585 31.03" stroke-width="0.3"/>
    </g>
    <g>
     <path d="M38.78 31.745C39.634 32.164 40.484 32.313 41.189 32.22" stroke-width="0.3"/>
    </g>
    <g>
     <path d="M56.862 24.978C56.866 24.975 56.871 24.972 56.875 24.971C59.359 23.536 59.359 18.882 56.875 14.577C54.393 10.282 50.375 7.955 47.887 9.375" stroke-width="0.3"/>
    </g>
    <g>
     <path d="M37.281 15.577C36.792 15.859 36.401 16.266 36.128 16.739" stroke-width="0.1"/>
     <path d="M45.709 31.278C45.895 31.213 46.07 31.132 46.213 31.047C48.679 29.623 48.679 25.006 46.213 20.734C43.746 16.461 39.747 14.153 37.281 15.577" stroke-width="0.1"/>
    </g>
    <g>
     <path d="M37.491 15.429C37.329 15.524 37.176 15.631 37.052 15.739" stroke-width="0.1"/>
     <path d="M46.406 30.993C46.414 30.99 46.42 30.986 46.424 30.984C48.896 29.565 48.899 24.931 46.432 20.637C43.966 16.341 39.963 14.01 37.491 15.429" stroke-width="0.1"/>
    </g>
    <g>
     <path d="M46.6 30.902C46.606 30.899 46.609 30.896 46.613 30.894C49.098 29.46 49.098 24.806 46.613 20.503C44.133 16.205 40.112 13.88 37.625 15.298" stroke-width="0.1"/>
    </g>
    <g>
     <path d="M34.5 18.775C33.034 19.621 32.598 21.803 33.206 24.321" stroke-width="0.1"/>
     <path d="M35.875 29.437C37.973 31.87 40.439 32.764 42.052 31.856C44.139 30.652 44.139 26.748 42.052 23.135C39.968 19.524 36.585 17.571 34.5 18.775" stroke-width="0.1"/>
    </g>
    <g>
     <path d="M34.548 18.958C32.512 20.134 32.512 23.943 34.548 27.469C36.582 30.993 39.883 32.899 41.917 31.724C43.953 30.548 43.953 26.739 41.917 23.213C39.883 19.689 36.582 17.783 34.548 18.958" stroke-width="0.1"/>
    </g>
    <g>
     <path d="M34.588 18.618C34.276 18.8 34.009 19.039 33.81 19.306" stroke-width="0.1"/>
     <path d="M40.921 32.229C41.426 32.216 41.872 32.087 42.223 31.876C44.332 30.661 44.334 26.708 42.225 23.047C40.116 19.388 36.698 17.405 34.588 18.618" stroke-width="0.1"/>
    </g>
    <line stroke-width="0.3" x1="41.084" x2="40.936" y1="27.778" y2="28.152"/>
    <line stroke-width="0.3" x1="36.917" x2="36.579" y1="21.603" y2="21.686"/>
    <line stroke-width="0.3" x1="36.625" x2="36.348" y1="21.673" y2="21.815"/>
    <line stroke-width="0.1" x1="45.912" x2="45.374" y1="31.219" y2="31.358"/>
    <path d="M40.506 28.652C40.718 28.454 40.814 28.35 40.963 28.109" stroke-width="0.3"/>
    <path d="M41.073 27.83C41.173 27.332 41.185 26.911 41.146 26.403" stroke-width="0.3"/>
    <path d="M38.845 22.35C38.438 22.053 38.067 21.843 37.597 21.663" stroke-width="0.3"/>
    <path d="M37.649 21.681L37.243 21.6L36.862 21.603" stroke-width="0.3"/>
    <path d="M40.779 28.731C40.692 28.539 40.706 28.643 40.764 28.411" stroke-width="0.1"/>
    <path d="M36.85 21.62L36.076 22.065L35.947 22.094C35.755 22.039 35.841 22.085 35.688 21.951" stroke-width="0.1"/>
    <path d="M33.049 23.564C32.976 23.027 32.933 22.509 32.939 21.966" stroke-width="0.3"/>
    <path d="M38.78 31.745C38.359 31.535 37.972 31.3 37.585 31.03" stroke-width="0.3"/>
    <path d="M56.862 24.978L55.13 25.978L48.332 29.902L46.6 30.902L45.912 31.219C45.182 31.528 43.74 31.705 43.213 31.812L43.151 31.824L41.189 32.22" stroke-width="0.3"/>
    <path d="M33.704 19.428L33.856 19.211L35.158 17.74C35.521 17.329 36.372 16.204 37.003 15.731L37.625 15.3L39.357 14.3L46.155 10.375L47.887 9.375" stroke-width="0.3"/>
    <path d="M42.595 31.15C42.658 31.201 42.761 31.317 42.866 31.295C44.207 31.025 45.703 30.658 47.034 30.353C47.177 30.321 47.314 30.268 47.441 30.196L49.173 29.196L55.97 25.271L57.703 24.271" stroke-width="0.1"/>
    <path d="M33.869 19.53C33.798 19.385 33.817 19.46 33.81 19.306" stroke-width="0.1"/>
   </g>
   <g id="05_0301_9972_000">
    <desc>05_0301_9972_000</desc>
    <g>
     <path d="M76.62 7.764C76.563 6.65 76.206 5.466 75.658 4.392" stroke-width="0.1"/>
     <path d="M75.653 4.383C74.814 2.732 73.606 1.429 72.379 0.72" stroke-width="0.1"/>
    </g>
    <g>
     <path d="M57.375 25.836C60.137 24.242 60.136 19.073 57.375 14.289C54.613 9.506 50.137 6.921 47.375 8.516" stroke-width="0.1"/>
    </g>
    <g>
     <path d="M75.29 10.871C77.091 9.696 77.155 6.501 75.448 3.677C74.237 1.677 72.453 0.385 70.823 0.166" stroke-width="0.3"/>
    </g>
    <g>
     <path d="M75.393 18.57C75.465 17.036 74.664 15.457 73.387 14.346" stroke-width="0.3"/>
    </g>
    <g>
     <path d="M58.289 25.307C60.198 26.051 62.369 26.399 64.471 26.385C70.424 26.362 75.259 23.602 75.393 20.179" stroke-width="0.3"/>
    </g>
    <g>
     <path d="M54.709 26.221C55.49 26.489 56.795 26.19 58.006 25.524C59.051 24.943 59.838 24.19 60.188 23.507" stroke-width="0.3"/>
    </g>
    <g>
     <path d="M61.03 20.655C61.168 19.167 60.869 17.429 60.27 15.801" stroke-width="0.3"/>
    </g>
    <g>
     <path d="M60.27 15.801C59.655 14.086 58.716 12.48 57.643 11.18" stroke-width="0.3"/>
    </g>
    <g>
     <path d="M56.917 10.356C55.844 9.224 54.725 8.41 53.688 7.939" stroke-width="0.3"/>
    </g>
    <g>
     <path d="M47.375 8.516C46.587 8.968 46.012 9.739 45.709 10.632" stroke-width="0.3"/>
    </g>
    <g>
     <path d="M54.314 8.26C54.107 8.135 53.831 8.17 53.554 8.33" stroke-width="0.1"/>
     <path d="M54.347 8.282C54.335 8.275 54.325 8.266 54.314 8.26" stroke-width="0.1"/>
    </g>
    <g>
     <path d="M60.732 17.339C60.768 15.978 60.289 14.429 59.491 13.051C58.637 11.577 57.514 10.454 56.404 9.849" stroke-width="0.1"/>
    </g>
    <g>
     <path d="M70.76 19.971C70.76 20.271 70.9 20.614 71.112 20.882" stroke-width="0.1"/>
    </g>
    <g>
     <path d="M72.174 22.908C72.174 22.457 71.962 21.943 71.644 21.542" stroke-width="0.1"/>
    </g>
    <g>
     <path d="M75.195 17.798C75.194 17.018 74.944 16.271 74.513 15.627" stroke-width="0.1"/>
     <path d="M60.17 23.536C61.588 23.888 63.066 24.05 64.442 24.039C70.387 24.028 75.201 21.234 75.195 17.798" stroke-width="0.1"/>
    </g>
    <g>
     <path d="M73.525 16.704C73.522 16.387 73.471 16.076 73.385 15.807" stroke-width="0.1"/>
     <path d="M60.914 21.574C62.103 21.861 63.341 21.99 64.492 21.978C69.496 21.949 73.54 19.588 73.525 16.704" stroke-width="0.1"/>
    </g>
    <g>
     <path d="M61.17 21.147C62.253 21.388 63.366 21.498 64.396 21.492C69.2 21.492 73.126 19.318 73.384 16.568" stroke-width="0.1"/>
    </g>
    <g>
     <path d="M73.896 16.995C73.894 16.364 73.707 15.756 73.385 15.23" stroke-width="0.1"/>
     <path d="M60.789 22.071C62.006 22.362 63.27 22.496 64.444 22.487C69.671 22.477 73.903 20.018 73.896 16.995" stroke-width="0.1"/>
    </g>
    <g>
     <path d="M73.68 11.516C73.634 11.391 73.423 11.345 73.138 11.378" stroke-width="0.1"/>
     <path d="M73.688 11.596C73.692 11.564 73.689 11.538 73.68 11.516" stroke-width="0.1"/>
    </g>
    <g>
     <path d="M73.138 11.378C72.882 11.733 72.876 12.233 73.102 12.6" stroke-width="0.1"/>
    </g>
    <g>
     <path d="M73.102 12.609C73.102 12.606 73.102 12.603 73.102 12.6" stroke-width="0.1"/>
     <path d="M64.381 17.637C64.387 17.637 64.391 17.637 64.397 17.637C69.204 17.637 73.102 15.385 73.102 12.609" stroke-width="0.1"/>
    </g>
    <g>
     <path d="M74.646 17.356C74.644 16.315 74.177 15.339 73.387 14.519" stroke-width="0.1"/>
     <path d="M60.527 22.835C61.825 23.141 63.167 23.283 64.414 23.274C70.067 23.269 74.649 20.62 74.646 17.356" stroke-width="0.1"/>
    </g>
    <g>
     <path d="M59.716 24.161C61.267 24.585 62.902 24.78 64.438 24.768C70.402 24.757 75.25 22 75.393 18.57" stroke-width="0.1"/>
    </g>
    <g>
     <path d="M58.554 25.155C61.316 23.561 61.316 18.39 58.554 13.608C55.793 8.826 51.316 6.24 48.554 7.835" stroke-width="0.1"/>
    </g>
    <g>
     <path d="M60.709 22.356C61.472 19.887 60.732 16.435 58.975 13.365C57.112 10.14 54.454 7.932 52.055 7.368" stroke-width="0.1"/>
    </g>
    <g>
     <path d="M63.116 18.33C62.831 18.129 62.551 18.062 62.369 18.131" stroke-width="0.1"/>
    </g>
    <g>
     <path d="M73.396 13.186C73.396 13.115 73.393 13.042 73.388 12.981" stroke-width="0.1"/>
     <path d="M63.118 18.33C63.564 18.367 64.01 18.385 64.399 18.382C69.367 18.382 73.397 16.056 73.396 13.186" stroke-width="0.1"/>
    </g>
    <line stroke-width="0.1" x1="73.218" x2="73.292" y1="12.519" y2="12.47"/>
    <line stroke-width="0.1" x1="73.305" x2="73.317" y1="12.448" y2="12.448"/>
    <line stroke-width="0.1" x1="73.292" x2="73.221" y1="12.47" y2="12.518"/>
    <line stroke-width="0.3" x1="61.027" x2="61.21" y1="19.109" y2="19.004"/>
    <line stroke-width="0.3" x1="75.393" x2="75.393" y1="20.178" y2="18.568"/>
    <line stroke-width="0.1" x1="52.375" x2="53.554" y1="9.012" y2="8.33"/>
    <line stroke-width="0.1" x1="70.76" x2="70.76" y1="19.971" y2="16.861"/>
    <line stroke-width="0.1" x1="71.644" x2="71.112" y1="21.542" y2="20.882"/>
    <line stroke-width="0.1" x1="72.174" x2="72.174" y1="24.524" y2="22.908"/>
    <line stroke-width="0.1" x1="61.17" x2="60.984" y1="21.147" y2="21.1"/>
    <line stroke-width="0.1" x1="73.302" x2="73.322" y1="12.253" y2="12.16"/>
    <path d="M70.825 0.166L70.341 0.15C69.287 0.314 68.799 0.769 67.75 1.375L56.762 7.719L55.03 8.718" stroke-width="0.3"/>
    <path d="M73.385 12.012C73.924 11.561 74.683 11.223 75.29 10.871" stroke-width="0.3"/>
    <path d="M73.34 12.064C73.278 12.413 73.378 12.599 73.388 12.981L73.384 16.568" stroke-width="0.3"/>
    <path d="M60.188 23.507C60.673 22.647 60.887 21.789 61.023 20.815" stroke-width="0.3"/>
    <path d="M56.917 10.356C57.164 10.627 57.408 10.901 57.643 11.182" stroke-width="0.3"/>
    <path d="M53.546 7.867C52.578 7.472 51.74 7.274 50.694 7.242C50.209 7.285 49.838 7.328 49.371 7.469C48.682 7.679 47.956 8.18 47.375 8.516" stroke-width="0.3"/>
    <path d="M56.466 9.912L58.231 8.897L70.653 1.724L72.385 0.724" stroke-width="0.1"/>
    <path d="M64.381 17.637C64.135 17.379 63.902 17.12 63.707 16.824" stroke-width="0.1"/>
    <path d="M64.381 17.637C65.259 16.704 66.108 15.746 66.977 14.807C67.643 14.087 68.388 13.356 69.307 12.973C70.084 12.647 70.915 12.573 71.748 12.567C72.105 12.564 72.921 12.73 73.218 12.519" stroke-width="0.1"/>
    <path d="M73.688 11.596C73.521 11.743 73.432 11.861 73.34 12.064" stroke-width="0.1"/>
    <path d="M73.688 11.596C73.618 11.833 73.679 11.739 73.531 11.89" stroke-width="0.1"/>
    <path d="M62.369 18.131C63.34 17.17 64.331 16.236 65.326 15.301C66.531 14.17 67.721 12.907 69.254 12.217C70.481 11.663 71.82 11.547 73.138 11.378" stroke-width="0.1"/>
    <path d="M61.057 19.774C61.621 19.547 62.124 19.26 62.585 18.858L63.116 18.33L64.381 17.637" stroke-width="0.1"/>
    <path d="M62.369 18.131C61.625 18.768 62.012 18.478 61.21 19.004" stroke-width="0.1"/>
   </g>
  </g>
  <g>
   <g id="05_0301_9918_000_3">
    <desc>05_0301_9918_000_3</desc>
    <g>
     <path d="M15.002 97.135C14.83 95.689 13.994 94.162 12.916 93.17" stroke-width="0.3"/>
    </g>
    <g>
     <path d="M8.227 89.688C6.472 91.153 6.609 94.754 8.471 98.015C10.01 100.697 12.308 102.433 14.282 102.588" stroke-width="0.3"/>
    </g>
    <g>
     <path d="M18.073 82.688C18.045 82.703 18.018 82.718 17.996 82.733" stroke-width="0.1"/>
     <path d="M26.649 97.364C28.926 95.95 28.885 91.603 26.573 87.594C24.225 83.53 20.42 81.332 18.073 82.688" stroke-width="0.1"/>
    </g>
    <g>
     <path d="M10.996 86.793C10.923 86.835 10.849 86.882 10.791 86.924" stroke-width="0.1"/>
     <path d="M19.225 101.615C19.317 101.575 19.405 101.528 19.48 101.486C21.821 100.132 21.821 95.748 19.48 91.689C17.137 87.632 13.339 85.439 10.996 86.793" stroke-width="0.1"/>
    </g>
    <g>
     <path d="M10.84 86.941C10.605 87.076 10.394 87.242 10.228 87.417" stroke-width="0.1"/>
     <path d="M18.515 101.849C18.8 101.778 19.06 101.671 19.272 101.546C21.6 100.201 21.6 95.843 19.272 91.81C16.945 87.777 13.169 85.596 10.84 86.941" stroke-width="0.1"/>
    </g>
    <g>
     <path d="M11.186 86.671C10.993 86.784 10.814 86.917 10.673 87.051" stroke-width="0.1"/>
     <path d="M19.881 101.262C22.036 99.759 21.926 95.495 19.675 91.584C17.332 87.519 13.531 85.319 11.186 86.671" stroke-width="0.1"/>
    </g>
    <g>
     <path d="M8.561 89.504C8.173 89.727 7.86 90.046 7.639 90.412" stroke-width="0.1"/>
     <path d="M14.984 102.566C15.336 102.516 15.653 102.403 15.907 102.253C17.937 101.082 17.939 97.28 15.91 93.76C13.882 90.239 10.592 88.334 8.561 89.504" stroke-width="0.1"/>
    </g>
    <g>
     <path d="M10.247 92.402C9.175 93.063 9.192 95.111 10.281 96.998C11.384 98.911 13.173 99.945 14.276 99.31C14.282 99.305 14.289 99.302 14.294 99.299" stroke-width="0.1"/>
    </g>
    <g>
     <path d="M10.087 92.391C8.96 93.043 8.96 95.156 10.087 97.112C11.217 99.067 13.047 100.123 14.176 99.472C14.586 99.236 14.848 98.805 14.957 98.274" stroke-width="0.1"/>
     <path d="M11.673 92.371C11.044 92.126 10.496 92.152 10.087 92.391" stroke-width="0.1"/>
    </g>
    <g>
     <path d="M9.899 92.23C8.72 92.915 8.737 95.146 9.939 97.209C10.481 98.144 11.175 98.885 11.875 99.349" stroke-width="0.1"/>
     <path d="M12.557 99.715C13.228 99.986 13.813 99.965 14.246 99.707C15.425 99.022 15.407 96.793 14.207 94.728C13.006 92.664 11.076 91.546 9.899 92.23" stroke-width="0.1"/>
    </g>
    <g>
     <path d="M8.535 89.846C6.583 90.972 6.583 94.628 8.535 98.009C10.487 101.391 13.653 103.218 15.605 102.09C17.556 100.963 17.556 97.308 15.605 93.927C13.653 90.546 10.487 88.718 8.535 89.846" stroke-width="0.1"/>
    </g>
    <g>
     <path d="M8.487 89.662C7.293 90.352 6.811 91.962 7.043 93.909" stroke-width="0.1"/>
     <path d="M11.994 101.793C13.451 102.674 14.782 102.775 15.74 102.224C17.742 101.067 17.742 97.317 15.74 93.849C13.737 90.381 10.49 88.506 8.487 89.662" stroke-width="0.1"/>
    </g>
    <line stroke-width="0.1" x1="10.381" x2="10.028" y1="87.271" y2="87.697"/>
    <line stroke-width="0.1" x1="18.169" x2="18.716" y1="101.873" y2="101.79"/>
    <path d="M14.176 99.381C14.554 99.118 14.385 99.271 14.683 98.927" stroke-width="0.3"/>
    <path d="M14.952 96.85C15.016 97.346 15.022 97.777 14.957 98.272" stroke-width="0.3"/>
    <path d="M14.663 98.965C14.912 98.498 14.807 98.745 14.968 98.221" stroke-width="0.3"/>
    <path d="M11.673 92.371C12.157 92.603 12.538 92.861 12.951 93.204" stroke-width="0.3"/>
    <path d="M11.721 92.388C11.179 92.224 11.451 92.278 10.91 92.218" stroke-width="0.3"/>
    <path d="M10.929 92.221C10.49 92.266 10.708 92.218 10.278 92.373" stroke-width="0.3"/>
    <path d="M26.649 97.364L24.916 98.361L21.15 100.527L19.417 101.524L19.225 101.615C18.391 101.932 17.687 102.016 16.75 102.206C15.692 102.421 15.307 102.555 14.454 102.593L14.281 102.588" stroke-width="0.3"/>
    <path d="M7.953 89.998C8.865 88.963 9.707 87.79 10.791 86.924L10.965 86.802L12.696 85.801L16.265 83.736L17.995 82.733" stroke-width="0.3"/>
    <path d="M23.16 83.659L21.428 84.659L17.992 86.643L16.26 87.643L16.073 87.762L15.887 87.905L14.419 89.125L12.952 90.344C12.818 90.459 12.823 90.501 12.766 90.653" stroke-width="0.1"/>
    <path d="M14.98 97.067L13.435 97.959C13.134 98.132 11.868 98.539 11.647 99.2" stroke-width="0.1"/>
    <path d="M12.557 99.715L12.102 99.498L11.875 99.349" stroke-width="0.1"/>
   </g>
   <g>
    <line stroke-width="0.3" x1="20.812" x2="17.64" y1="79.875" y2="81.706"/>
    <path d="M20.812 79.875C20.92 79.876 20.969 79.873 21 79.876" stroke-width="0.1"/>
    <g>
     <path d="M23.722 82.379C23.603 82.326 23.475 82.308 23.353 82.319" stroke-width="0.1"/>
     <path d="M24.193 82.941C24.103 82.659 23.931 82.468 23.722 82.379" stroke-width="0.1"/>
    </g>
    <g>
     <path d="M34.731 88.028C34.901 85.593 33.332 82.463 31.172 80.861" stroke-width="0.1"/>
    </g>
    <g>
     <path d="M26.573 87.468C27.295 88.403 28.1 89.233 28.89 89.891" stroke-width="0.1"/>
    </g>
    <g>
     <path d="M33.393 90.424C33.405 90.418 33.417 90.412 33.426 90.408C35.003 89.641 35.209 86.813 33.886 84.09C33.454 83.203 32.914 82.436 32.345 81.853" stroke-width="0.3"/>
    </g>
    <g>
     <path d="M28.25 79.968C27.734 80.066 27.257 80.313 26.868 80.659" stroke-width="0.3"/>
     <path d="M32.35 81.852C30.775 80.293 29.37 79.697 28.25 79.968" stroke-width="0.3"/>
    </g>
    <g>
     <path d="M29.271 90.628C29.263 90.341 29.12 90.084 28.89 89.891" stroke-width="0.3"/>
     <path d="M29.208 90.983C29.256 90.861 29.275 90.739 29.271 90.628" stroke-width="0.3"/>
    </g>
    <g>
     <path d="M26.914 80.706C25.879 79.903 23.739 79.643 21.033 79.858" stroke-width="0.3"/>
    </g>
    <line stroke-width="0.1" x1="28.274" x2="28.245" y1="94.45" y2="94.789"/>
    <line stroke-width="0.1" x1="21.032" x2="17.812" y1="79.858" y2="81.715"/>
    <line stroke-width="0.1" x1="31.583" x2="28.379" y1="95.469" y2="97.319"/>
    <line stroke-width="0.1" x1="21.019" x2="21.321" y1="82.53" y2="82.626"/>
    <line stroke-width="0.1" x1="21.341" x2="20.993" y1="82.384" y2="82.375"/>
    <line stroke-width="0.1" x1="20.664" x2="20.35" y1="82.358" y2="82.334"/>
    <line stroke-width="0.1" x1="28.283" x2="28.265" y1="94.381" y2="94.519"/>
    <line stroke-width="0.1" x1="28.202" x2="28.204" y1="95.879" y2="95.516"/>
    <line stroke-width="0.1" x1="28.245" x2="28.213" y1="94.789" y2="95.159"/>
    <line stroke-width="0.1" x1="28.621" x2="28.417" y1="92.765" y2="93.623"/>
    <line stroke-width="0.1" x1="27.451" x2="27.402" y1="81.248" y2="81.209"/>
    <line stroke-width="0.1" x1="28.605" x2="28.702" y1="82.246" y2="82.352"/>
    <line stroke-width="0.1" x1="28.742" x2="28.794" y1="82.394" y2="82.448"/>
    <line stroke-width="0.1" x1="28.684" x2="31.173" y1="82.299" y2="80.862"/>
    <line stroke-width="0.1" x1="27.471" x2="27.605" y1="81.263" y2="81.37"/>
    <line stroke-width="0.1" x1="26.557" x2="23.75" y1="80.471" y2="82.091"/>
    <line stroke-width="0.1" x1="26.304" x2="26.571" y1="87.099" y2="87.468"/>
    <line stroke-width="0.1" x1="29.208" x2="32.404" y1="90.983" y2="89.138"/>
    <line stroke-width="0.1" x1="32.009" x2="31.861" y1="87.781" y2="87.388"/>
    <line stroke-width="0.1" x1="31.585" x2="31.562" y1="86.683" y2="86.623"/>
    <line stroke-width="0.1" x1="31.841" x2="31.775" y1="87.337" y2="87.164"/>
    <line stroke-width="0.1" x1="31.175" x2="31.211" y1="85.825" y2="85.891"/>
    <line stroke-width="0.1" x1="31.263" x2="31.24" y1="85.995" y2="85.944"/>
    <line stroke-width="0.1" x1="30.33" x2="30.312" y1="84.37" y2="84.34"/>
    <line stroke-width="0.1" x1="30.469" x2="30.318" y1="84.587" y2="84.343"/>
    <line stroke-width="0.1" x1="31.152" x2="31.114" y1="85.781" y2="85.712"/>
    <line stroke-width="0.1" x1="31.564" x2="31.612" y1="86.65" y2="86.756"/>
    <line stroke-width="0.1" x1="32.293" x2="32.049" y1="88.721" y2="87.915"/>
    <line stroke-width="0.1" x1="30.265" x2="30.193" y1="84.266" y2="84.165"/>
    <line stroke-width="0.1" x1="31.33" x2="31.278" y1="86.141" y2="86.028"/>
    <line stroke-width="0.1" x1="30.652" x2="30.634" y1="84.887" y2="84.856"/>
    <line stroke-width="0.1" x1="30.606" x2="30.513" y1="84.811" y2="84.665"/>
    <line stroke-width="0.1" x1="30.028" x2="30.187" y1="83.938" y2="84.156"/>
    <line stroke-width="0.1" x1="30.265" x2="30.468" y1="84.266" y2="84.584"/>
    <line stroke-width="0.1" x1="31.19" x2="31.251" y1="85.834" y2="85.965"/>
    <line stroke-width="0.1" x1="30.475" x2="30.666" y1="84.594" y2="84.897"/>
    <line stroke-width="0.1" x1="30.012" x2="29.949" y1="83.915" y2="83.828"/>
    <line stroke-width="0.1" x1="29.681" x2="29.653" y1="83.472" y2="83.438"/>
    <line stroke-width="0.1" x1="30.504" x2="30.214" y1="84.653" y2="84.189"/>
    <line stroke-width="0.3" x1="28.202" x2="28.222" y1="95.879" y2="96.227"/>
    <line stroke-width="0.3" x1="33.393" x2="32.723" y1="90.424" y2="90.81"/>
    <line stroke-width="0.3" x1="28.89" x2="32.079" y1="89.891" y2="88.049"/>
    <line stroke-width="0.3" x1="28.274" x2="28.417" y1="94.45" y2="93.623"/>
    <line stroke-width="0.3" x1="28.204" x2="28.213" y1="95.516" y2="95.159"/>
    <line stroke-width="0.3" x1="27.393" x2="24.574" y1="81.094" y2="82.721"/>
    <line stroke-width="0.3" x1="20.993" x2="20.664" y1="82.375" y2="82.358"/>
    <path d="M17.64 81.706C18.028 81.709 17.675 81.682 18.282 81.912C18.757 82.091 18.963 82.114 19.48 82.225" stroke-width="0.1"/>
    <path d="M21.699 82.388L23.353 82.319" stroke-width="0.1"/>
    <path d="M28.222 96.227L28.259 96.674L28.379 97.319L28.378 97.504L28.189 97.707" stroke-width="0.1"/>
    <path d="M31.623 86.778L31.754 87.108" stroke-width="0.1"/>
    <path d="M30.731 85.012C30.859 85.213 30.961 85.43 31.076 85.641" stroke-width="0.1"/>
    <path d="M27.211 80.938C27.736 81.37 28.214 81.837 28.695 82.319" stroke-width="0.3"/>
    <path d="M27.31 81.143C28.208 81.823 28.951 82.578 29.657 83.442" stroke-width="0.3"/>
    <path d="M28.621 92.765L29.208 90.983" stroke-width="0.3"/>
    <path d="M28.189 97.707C27.556 97.941 26.768 97.846 26.106 97.859L25.801 97.852" stroke-width="0.3"/>
    <path d="M32.375 92.829C32.185 93.623 32.164 93.784 31.907 94.569C31.894 94.605 31.614 95.703 31.326 95.888L30.111 96.593L28.189 97.707" stroke-width="0.3"/>
    <path d="M32.401 92.721C32.5 92.147 32.564 91.591 32.57 91.009" stroke-width="0.3"/>
    <path d="M32.597 90.743C32.59 90.313 32.573 89.871 32.475 89.45" stroke-width="0.3"/>
    <path d="M26.914 80.706C29.946 83.034 31.87 86.356 32.615 90.072" stroke-width="0.3"/>
    <path d="M21.699 82.388L21.609 82.391L21.341 82.384" stroke-width="0.3"/>
    <path d="M24.193 82.941C24.577 84.007 24.989 85.037 25.582 86.006" stroke-width="0.3"/>
    <path d="M16.894 83.37C17.074 82.769 17.199 82.158 17.64 81.706" stroke-width="0.3"/>
   </g>
  </g>
  <g id="05_0343_0085_000">
   <desc>05_0343_0085_000</desc>
   <g>
    <path d="M48.073 62.555C47.634 62.383 47.046 62.265 46.451 62.213C45.18 62.104 44.125 62.319 44.093 62.691C44.088 62.752 44.109 62.813 44.154 62.868" stroke-width="0.1"/>
   </g>
   <g>
    <path d="M53.018 68.394C50.075 65.06 46.771 63.713 44.423 64.59" stroke-width="0.1"/>
   </g>
   <g>
    <path d="M57.176 72.623C58.932 73.956 60.759 74.168 62.468 73.436" stroke-width="0.1"/>
   </g>
   <g>
    <path d="M52.728 85.183C55.707 87.284 60.034 88.37 64.435 88.37C72.659 88.358 79.343 84.552 79.518 79.822" stroke-width="0.1"/>
   </g>
   <g>
    <path d="M40.865 66.641C40.776 66.694 40.689 66.748 40.616 66.799" stroke-width="0.1"/>
    <path d="M51.606 85.829C51.698 85.786 51.789 85.737 51.865 85.694C54.902 83.941 54.902 78.254 51.865 72.992C48.826 67.731 43.902 64.888 40.865 66.641" stroke-width="0.1"/>
    <path d="M40.618 66.798C37.807 68.733 37.939 74.266 40.865 79.343C43.813 84.45 48.539 87.278 51.604 85.831" stroke-width="0.3"/>
    <path d="M46.365 67.227C44.226 65.992 42.341 65.962 40.939 66.772L40.789 66.512C42.204 65.695 44.207 65.9 46.365 67.146L46.365 67.227z" fill="#000000" stroke="none"/>
   </g>
   <g>
    <path d="M68.334 42.506C67.251 42.04 65.96 41.823 64.697 41.84C61.475 41.871 58.877 43.351 58.895 45.143C58.905 46.066 59.604 46.892 60.723 47.472" stroke-width="0.1"/>
   </g>
   <g>
    <path d="M75.396 45.345C75.396 45.243 75.391 45.143 75.384 45.057" stroke-width="0.1"/>
    <path d="M53.408 45.049C53.399 45.154 53.395 45.256 53.396 45.345C53.396 48.853 58.32 51.697 64.396 51.697C70.471 51.697 75.396 48.853 75.396 45.345" stroke-width="0.1"/>
    <path d="M75.384 45.057C75.117 41.655 70.259 39 64.396 38.994C58.5 38.994 53.689 41.671 53.408 45.049" stroke-width="0.3"/>
    <path d="M72.138 49.816C74.275 48.582 75.245 46.963 75.245 45.345L75.546 45.345C75.545 46.978 74.367 48.61 72.209 49.856L72.138 49.816z" fill="#000000" stroke="none"/>
   </g>
   <g>
    <path d="M84.837 62.869C84.858 62.883 84.879 62.896 84.897 62.906C86.072 63.584 87.974 62.485 89.149 60.453C90.301 58.457 90.322 56.304 89.209 55.582" stroke-width="0.1"/>
    <path d="M89.147 55.545C87.974 54.868 86.072 55.966 84.897 57.999C83.746 59.993 83.724 62.146 84.837 62.868" stroke-width="0.3"/>
    <path d="M89.209 55.582C89.188 55.569 89.167 55.555 89.147 55.545" stroke-width="0.3"/>
    <path d="M89.992 57.511C89.992 56.6 89.634 56.034 89.132 55.71L89.287 55.454C89.799 55.784 90.063 56.536 90.063 57.47L89.992 57.511z" fill="#000000" stroke="none"/>
   </g>
   <g>
    <path d="M67.867 72.668C67.888 72.68 67.909 72.694 67.927 72.704C69.102 73.382 71.004 72.284 72.177 70.251C73.329 68.256 73.35 66.102 72.239 65.381" stroke-width="0.1"/>
    <path d="M72.177 65.343C71.004 64.665 69.1 65.763 67.927 67.796C66.775 69.792 66.754 71.944 67.865 72.667" stroke-width="0.3"/>
    <path d="M72.239 65.379C72.218 65.367 72.195 65.353 72.177 65.343" stroke-width="0.3"/>
    <path d="M73.022 67.308C73.022 66.397 72.662 65.832 72.162 65.509L72.316 65.251C72.828 65.582 73.093 66.334 73.093 67.268L73.022 67.308z" fill="#000000" stroke="none"/>
   </g>
   <g>
    <path d="M73.328 62.173C71.158 61.534 68.152 63.548 66.254 66.805C64.138 70.451 64.135 74.4 66.242 75.623C66.31 75.661 66.379 75.697 66.438 75.724" stroke-width="0.1"/>
   </g>
   <g>
    <path d="M73.328 62.173C73.786 62.194 74.317 61.851 74.739 61.316" stroke-width="0.1"/>
   </g>
   <g>
    <path d="M82.177 56.89C79.974 56.085 76.882 57.99 74.739 61.316" stroke-width="0.1"/>
   </g>
   <g>
    <path d="M82.177 56.89C82.632 57.057 83.25 56.75 83.746 56.158" stroke-width="0.1"/>
   </g>
   <g>
    <path d="M90.638 52.526C88.686 51.618 85.829 53.186 83.746 56.158" stroke-width="0.1"/>
   </g>
   <g>
    <path d="M75.132 51.277C75.215 51.575 75.786 51.887 76.478 52.031C76.742 52.085 76.996 52.109 77.212 52.106" stroke-width="0.1"/>
   </g>
   <g>
    <path d="M74.98 51.609C74.875 52.262 75.2 52.887 75.751 53.179" stroke-width="0.1"/>
   </g>
   <g>
    <path d="M66.787 56.095C66.662 56.283 66.558 56.496 66.481 56.704C66.218 57.405 66.233 58.072 66.498 58.293" stroke-width="0.1"/>
   </g>
   <g>
    <path d="M55.621 54.813C56.182 54.451 56.618 53.661 56.618 53.015" stroke-width="0.1"/>
   </g>
   <g>
    <path d="M51.579 49.679C52.018 49.893 52.53 49.862 52.917 49.637" stroke-width="0.1"/>
   </g>
   <g>
    <path d="M53.396 49.021C53.758 51.506 56.604 53.573 60.475 54.463" stroke-width="0.1"/>
   </g>
   <g>
    <path d="M75.751 53.179C76.025 53.271 76.364 53.122 76.688 52.808" stroke-width="0.1"/>
   </g>
   <g>
    <path d="M76.688 52.808C77.254 52.551 77.448 51.219 77.213 49.57" stroke-width="0.1"/>
   </g>
   <g>
    <path d="M77.213 49.57C77.025 48.351 76.322 47.156 75.388 46.307" stroke-width="0.1"/>
   </g>
   <g>
    <path d="M66.498 58.293C67.111 58.472 67.911 58.085 68.471 57.384" stroke-width="0.1"/>
   </g>
   <g>
    <path d="M55.615 54.817C56.584 55.378 57.703 55.859 58.817 56.213" stroke-width="0.1"/>
   </g>
   <g>
    <path d="M51.579 49.679C51.24 50.292 51.985 51.753 53.279 53.058C53.795 53.579 54.332 54.008 54.817 54.31" stroke-width="0.1"/>
   </g>
   <g>
    <path d="M51.579 49.679C51.899 49.759 52.401 49.424 52.774 48.904C53.07 48.493 53.219 48.057 53.195 47.75" stroke-width="0.1"/>
   </g>
   <g>
    <path d="M70.015 43.78C69.59 43.27 68.998 42.834 68.332 42.506" stroke-width="0.3"/>
   </g>
   <g>
    <path d="M69.153 47.215C68.362 46.057 66.501 45.299 64.474 45.2C62.411 45.104 60.595 45.716 59.7 46.698" stroke-width="0.3"/>
   </g>
   <g>
    <path d="M68.427 47.655C67.438 46.89 65.968 46.451 64.457 46.383C62.853 46.313 61.402 46.668 60.414 47.289" stroke-width="0.3"/>
   </g>
   <g>
    <path d="M69.492 46.698C69.081 45.25 66.974 44.152 64.519 44.018C62.043 43.89 59.92 44.779 59.322 46.106" stroke-width="0.3"/>
   </g>
   <g>
    <path d="M69.596 46.125C69.676 44.478 67.433 43.009 64.575 42.837C61.704 42.664 59.295 43.865 59.197 45.518C59.195 45.523 59.195 45.526 59.195 45.529" stroke-width="0.3"/>
   </g>
   <g>
    <path d="M70.379 45.124C70.385 44.076 69.591 43.136 68.334 42.506" stroke-width="0.3"/>
    <path d="M61.146 47.689C62.198 48.212 63.469 48.468 64.721 48.472C67.837 48.487 70.37 46.988 70.379 45.124" stroke-width="0.3"/>
   </g>
   <g>
    <path d="M59.195 45.49C59.195 46.273 59.78 46.975 60.723 47.472" stroke-width="0.3"/>
   </g>
   <g>
    <path d="M59.981 47.017C60.414 47.387 60.984 47.68 61.606 47.878" stroke-width="0.1"/>
   </g>
   <g>
    <path d="M67.239 48.125C65.527 47.396 63.335 47.338 61.616 47.884" stroke-width="0.1"/>
   </g>
   <g>
    <path d="M68.45 47.631C67.459 46.856 65.98 46.411 64.459 46.343C62.838 46.271 61.371 46.637 60.381 47.271" stroke-width="0.1"/>
   </g>
   <g>
    <path d="M69.498 46.679C69.105 45.225 66.992 44.115 64.524 43.978C62.031 43.847 59.896 44.749 59.317 46.09" stroke-width="0.1"/>
   </g>
   <g>
    <path d="M69.171 47.201C68.39 46.03 66.519 45.261 64.477 45.158C62.399 45.063 60.573 45.683 59.685 46.679" stroke-width="0.1"/>
   </g>
   <g>
    <path d="M69.596 46.091C69.68 44.441 67.436 42.969 64.576 42.796C61.704 42.624 59.295 43.826 59.197 45.481C59.195 45.484 59.195 45.488 59.195 45.491" stroke-width="0.1"/>
   </g>
   <g>
    <path d="M59.195 45.527C59.189 46.064 59.482 46.585 59.963 46.999" stroke-width="0.1"/>
   </g>
   <g>
    <path d="M45.389 71.179C44.734 72.415 44.99 74.45 45.933 76.302C47.006 78.39 48.704 79.745 50.101 79.748" stroke-width="0.3"/>
   </g>
   <g>
    <path d="M47.82 72.039C47.162 71.448 46.487 71.022 45.874 70.772" stroke-width="0.3"/>
   </g>
   <g>
    <path d="M46.158 71.325C45.859 72.593 46.203 74.253 46.979 75.751C47.85 77.42 49.121 78.614 50.316 79.021" stroke-width="0.3"/>
   </g>
   <g>
    <path d="M44.728 71.227C43.686 72.292 43.786 74.659 44.889 76.853C46.183 79.409 48.417 80.882 49.877 80.143C49.881 80.141 49.887 80.138 49.893 80.135" stroke-width="0.3"/>
   </g>
   <g>
    <path d="M49.978 80.01C50.789 78.593 50.378 76.141 49.073 73.957C48.179 72.472 47.014 71.355 45.874 70.772" stroke-width="0.3"/>
   </g>
   <g>
    <path d="M44.304 71.343C42.731 72.156 42.545 74.924 43.89 77.525C45.235 80.125 47.601 81.573 49.174 80.76C49.512 80.585 49.784 80.322 49.978 80.01" stroke-width="0.3"/>
    <path d="M47.68 72.147C46.454 71.129 45.213 70.882 44.304 71.343" stroke-width="0.3"/>
   </g>
   <g>
    <path d="M47.048 71.724C47.029 73.996 48.509 76.757 50.387 77.989" stroke-width="0.1"/>
   </g>
   <g>
    <path d="M47.5 71.971C46.265 71.091 45.04 70.933 44.185 71.421" stroke-width="0.1"/>
   </g>
   <g>
    <path d="M45.365 71.177C44.7 72.418 44.951 74.46 45.896 76.319C46.975 78.418 48.686 79.775 50.094 79.766" stroke-width="0.1"/>
   </g>
   <g>
    <path d="M46.128 71.316C45.822 72.59 46.162 74.26 46.942 75.765C47.817 77.447 49.103 78.649 50.31 79.049" stroke-width="0.1"/>
   </g>
   <g>
    <path d="M44.71 71.231C43.652 72.293 43.743 74.674 44.856 76.881C46.101 79.331 48.212 80.784 49.683 80.24" stroke-width="0.1"/>
   </g>
   <g>
    <path d="M44.167 71.432C42.679 72.23 42.53 74.921 43.823 77.466C44.676 79.143 45.945 80.346 47.162 80.774" stroke-width="0.1"/>
   </g>
   <g>
    <path d="M43.552 70.778C41.93 71.689 41.848 74.623 43.368 77.329C44.176 78.766 45.271 79.852 46.369 80.418" stroke-width="0.1"/>
    <path d="M45.875 70.772C44.966 70.402 44.161 70.432 43.552 70.778" stroke-width="0.1"/>
   </g>
   <g>
    <path d="M60.423 80.736C63.039 79.019 64.506 76.618 64.415 74.56" stroke-width="0.1"/>
   </g>
   <g>
    <path d="M56.685 82.903C58.582 82.909 60.642 81.978 62.298 80.516C64.102 78.918 65.174 76.909 65.352 75.105" stroke-width="0.1"/>
   </g>
   <g>
    <path d="M45.259 85.768C45.646 91.725 54.127 96.405 64.4 96.409C69.686 96.409 74.474 95.171 77.938 93.17" stroke-width="0.1"/>
   </g>
   <g>
    <path d="M77.936 93.173C81.501 91.114 83.362 88.453 83.531 85.769" stroke-width="0.1"/>
   </g>
   <g>
    <path d="M82.412 81.049C82.411 79.039 81.421 77.162 79.756 75.617" stroke-width="0.1"/>
    <path d="M48.621 86.058C51.875 89.486 57.987 91.435 64.415 91.453C74.356 91.448 82.415 86.79 82.412 81.049" stroke-width="0.1"/>
   </g>
   <g>
    <path d="M77.936 91.46C77.936 89.486 76.724 87.141 75.09 85.813" stroke-width="0.1"/>
   </g>
   <g>
    <path d="M45.305 84.445C46.029 90.254 54.409 94.689 64.405 94.698C74.849 94.694 83.34 89.864 83.543 83.852" stroke-width="0.1"/>
   </g>
   <g>
    <path d="M66.438 75.724C68.403 76.629 71.234 75.066 73.328 72.09" stroke-width="0.3"/>
   </g>
   <g>
    <path d="M74.897 71.358C74.444 71.191 73.825 71.498 73.328 72.09" stroke-width="0.3"/>
   </g>
   <g>
    <path d="M74.897 71.358C77.108 72.162 80.182 70.263 82.337 66.933" stroke-width="0.3"/>
   </g>
   <g>
    <path d="M83.746 66.076C83.29 66.055 82.757 66.397 82.337 66.933" stroke-width="0.3"/>
   </g>
   <g>
    <path d="M83.745 66.076C85.918 66.715 88.924 64.7 90.822 61.444C92.864 57.923 92.938 54.121 91.034 52.756" stroke-width="0.3"/>
   </g>
   <g>
    <path d="M45.045 45.843C42.874 45.204 39.868 47.219 37.969 50.475C35.927 53.996 35.853 57.798 37.758 59.164" stroke-width="0.3"/>
   </g>
   <g>
    <path d="M45.045 45.843C45.502 45.863 46.033 45.521 46.454 44.985" stroke-width="0.3"/>
   </g>
   <g>
    <path d="M53.893 40.561C51.691 39.756 48.6 41.661 46.454 44.984" stroke-width="0.3"/>
   </g>
   <g>
    <path d="M53.893 40.561C54.348 40.728 54.965 40.42 55.463 39.829" stroke-width="0.3"/>
   </g>
   <g>
    <path d="M62.353 36.195C60.402 35.287 57.545 36.856 55.463 39.829" stroke-width="0.3"/>
   </g>
   <g>
    <path d="M44.481 64.51C44.645 64.323 44.716 64.024 44.688 63.72C44.664 63.472 44.575 63.255 44.451 63.103" stroke-width="0.3"/>
   </g>
   <g>
    <path d="M82.924 80.243C82.534 79.013 81.691 77.682 80.621 76.478" stroke-width="0.3"/>
   </g>
   <line stroke-width="0.1" x1="57.197" x2="55.612" y1="40.551" y2="39.634"/>
   <line stroke-width="0.1" x1="46.365" x2="49.472" y1="67.186" y2="65.393"/>
   <line stroke-width="0.1" x1="65.862" x2="65.59" y1="44.192" y2="45.28"/>
   <line stroke-width="0.1" x1="55.597" x2="53.893" y1="41.545" y2="40.561"/>
   <line stroke-width="0.1" x1="70.052" x2="67.052" y1="72.493" y2="70.762"/>
   <line stroke-width="0.1" x1="87.022" x2="84.022" y1="62.695" y2="60.963"/>
   <line stroke-width="0.1" x1="83.896" x2="77.212" y1="55.965" y2="52.106"/>
   <line stroke-width="0.1" x1="75.751" x2="82.177" y1="53.179" y2="56.89"/>
   <line stroke-width="0.1" x1="72.174" x2="72.174" y1="49.835" y2="52.591"/>
   <line stroke-width="0.1" x1="73.18" x2="66.498" y1="62.152" y2="58.293"/>
   <line stroke-width="0.1" x1="68.471" x2="68.905" y1="57.384" y2="57.091"/>
   <line stroke-width="0.1" x1="51.579" x2="44.896" y1="49.679" y2="45.822"/>
   <line stroke-width="0.1" x1="53.402" x2="53.195" y1="47.06" y2="47.75"/>
   <line stroke-width="0.3" x1="60.723" x2="61.146" y1="47.472" y2="47.689"/>
   <line stroke-width="0.1" x1="64.572" x2="64.424" y1="74.65" y2="74.722"/>
   <line stroke-width="0.1" x1="75.09" x2="75.09" y1="71.412" y2="85.813"/>
   <line stroke-width="0.1" x1="77.936" x2="77.936" y1="93.171" y2="91.46"/>
   <line stroke-width="0.3" x1="79.518" x2="79.519" y1="79.823" y2="70.088"/>
   <line stroke-width="0.3" x1="66.438" x2="59.902" y1="75.724" y2="71.96"/>
   <line stroke-width="0.3" x1="74.871" x2="91.034" y1="43.423" y2="52.756"/>
   <line stroke-width="0.3" x1="75.384" x2="75.394" y1="45.057" y2="48.868"/>
   <line stroke-width="0.3" x1="44.49" x2="44.34" y1="63.171" y2="62.985"/>
   <line stroke-width="0.3" x1="67.727" x2="62.353" y1="39.296" y2="36.195"/>
   <line stroke-width="0.3" x1="45.259" x2="45.253" y1="85.768" y2="84.406"/>
   <line stroke-width="0.3" x1="61.307" x2="61.828" y1="80.115" y2="79.653"/>
   <line stroke-width="0.3" x1="61.307" x2="61.817" y1="80.115" y2="79.662"/>
   <line stroke-width="0.3" x1="51.606" x2="60.424" y1="85.829" y2="80.734"/>
   <line stroke-width="0.3" x1="44.421" x2="40.618" y1="64.59" y2="66.798"/>
   <path d="M59.902 71.96C57.984 70.704 56.527 68.897 54.948 67.26C53.835 66.106 52.646 65.075 51.347 64.137" stroke-width="0.1"/>
   <path d="M51.347 64.137C50.253 63.454 50.805 63.771 49.688 63.179" stroke-width="0.3"/>
   <path d="M48.073 62.555C49.154 62.921 48.615 62.715 49.688 63.179" stroke-width="0.1"/>
   <path d="M57.173 72.623C55.619 71.382 54.344 69.867 53.017 68.394" stroke-width="0.1"/>
   <path d="M55.615 54.817L55.045 54.457L54.817 54.31" stroke-width="0.3"/>
   <path d="M67.051 56.133L66.959 56.134L66.852 56.116" stroke-width="0.3"/>
   <path d="M69.427 56.749L68.905 57.091" stroke-width="0.3"/>
   <path d="M66.852 56.116C64.799 55.301 62.625 54.936 60.475 54.463" stroke-width="0.1"/>
   <path d="M67.058 56.131C67.643 55.981 68.112 55.389 68.578 55.03C69.953 53.963 71.409 52.944 72.966 52.158C73.566 51.856 74.289 51.457 74.98 51.609C75.2 51.356 75.191 50.979 75.242 50.664C75.34 50.064 75.381 49.475 75.394 48.868" stroke-width="0.1"/>
   <path d="M75.751 53.179C74.829 53.344 73.876 54.072 73.115 54.511C71.87 55.229 70.632 55.965 69.427 56.749" stroke-width="0.1"/>
   <path d="M67.391 55.99C67.665 56.281 67.921 56.588 68.155 56.912C68.233 57.02 68.361 57.314 68.471 57.384C70.561 58.698 72.759 59.859 74.897 61.094" stroke-width="0.1"/>
   <path d="M58.817 56.213C61.353 56.994 64.001 57.384 66.498 58.293" stroke-width="0.1"/>
   <path d="M53.398 48.468L53.212 48.478L53.039 48.475L51.307 47.475L48.345 45.764L46.613 44.764" stroke-width="0.1"/>
   <path d="M69.341 47.06C69.495 46.731 69.561 46.453 69.596 46.091" stroke-width="0.3"/>
   <path d="M69.371 47.036C69.513 46.732 69.566 46.46 69.596 46.127" stroke-width="0.1"/>
   <path d="M52.838 49.698C53.021 49.569 53.152 49.445 53.29 49.268" stroke-width="0.3"/>
   <path d="M53.177 49.463C52.975 49.61 52.912 49.64 52.649 49.793" stroke-width="0.3"/>
   <path d="M53.226 49.387C53.646 48.609 53.39 48.299 53.398 47.042L53.408 45.049" stroke-width="0.3"/>
   <path d="M44.228 64.712C44.387 64.602 44.457 64.537 44.579 64.391" stroke-width="0.3"/>
   <path d="M37.758 59.164L39.487 60.165L42.423 61.865L44.154 62.868L44.396 63.054" stroke-width="0.3"/>
   <path d="M82.924 80.243C83.596 82.064 83.543 83.846 83.531 85.768" stroke-width="0.3"/>
   <path d="M79.518 75.412L79.756 75.617L80.62 76.478" stroke-width="0.3"/>
  </g>
  <g>
   <path d="M86.39 88.48C86.39 86.12 85.274 83.909 83.385 82.073" stroke-width="0.3"/>
   <path d="M44.161 83.51C42.942 85.162 42.378 86.881 42.405 88.48" stroke-width="0.3"/>
   <path d="M42.405 88.48C42.405 95.493 52.252 101.179 64.397 101.179C76.543 101.179 86.39 95.493 86.39 88.48" stroke-width="0.1"/>
   <path d="M42.554 88.48C42.554 91.963 44.929 95.156 48.881 97.438L48.811 97.48C44.804 95.167 42.255 92.012 42.255 88.48L42.554 88.48z" fill="#000000" stroke="none"/>
   <path d="M79.912 97.438C84.197 94.965 86.239 91.724 86.239 88.48L86.54 88.48C86.54 91.737 84.287 94.995 79.983 97.48L79.912 97.438z" fill="#000000" stroke="none"/>
  </g>
  <g>
   <path d="M42.405 146.49C42.405 153.502 52.252 159.187 64.397 159.187C76.543 159.187 86.39 153.502 86.39 146.49" stroke-width="0.3"/>
  </g>
  <line stroke-width="0.3" x1="42.405" x2="42.405" y1="146.49" y2="88.48"/>
  <line stroke-width="0.3" x1="86.39" x2="86.39" y1="146.49" y2="88.481"/>
 </g>
 <g id="Numerazione">
  <g class="callout callout_2">
   <g>
    <line stroke="#FFFFFF" stroke-width="1" x1="77.379" x2="128.102" y1="7.993" y2="10.439"/>
    <line stroke-width="0.1" x1="76.831" x2="128.651" y1="7.966" y2="10.465"/>
   </g>
   <path d="M125.48 14.24L131.822 14.24 131.822 6.69 125.48 6.69 125.48 14.24z" fill="#FFFFFF" stroke="none"/>
   <text fill="#000000" font-family="'Arial'" font-size="4.939" stroke="none" x="127.278" y="12.24"><desc>2</desc>2</text>
  </g>
  <g class="callout callout_3">
   <g>
    <line stroke="#FFFFFF" stroke-width="1" x1="92.042" x2="128.127" y1="60.731" y2="72.35"/>
    <line stroke-width="0.1" x1="91.519" x2="128.651" y1="60.564" y2="72.519"/>
   </g>
   <path d="M125.493 76.325L131.808 76.325 131.808 68.713 125.493 68.713 125.493 76.325z" fill="#FFFFFF" stroke="none"/>
   <text fill="#000000" font-family="'Arial'" font-size="4.939" stroke="none" x="127.278" y="74.325"><desc>3</desc>3</text>
  </g>
  <g class="callout callout_1">
   <g>
    <line stroke="#FFFFFF" stroke-width="1" x1="18.835" x2="2.908" y1="80.183" y2="50.143"/>
    <line stroke-width="0.1" x1="19.092" x2="2.65" y1="80.668" y2="49.658"/>
   </g>
   <path d="M0 53.432L5.301 53.432 5.301 45.883 0 45.883 0 53.432z" fill="#FFFFFF" stroke="none"/>
   <text fill="#000000" font-family="'Arial'" font-size="4.939" stroke="none" x="1.278" y="51.432"><desc>1</desc>1</text>
  </g>
 </g>
  <path class="hotspot hotspot_1" d="M0 53.432L 5.301 53.432L 5.301 45.883L 0 45.883L 0 53.432z" fill="black" id="AUTOID_11465" stroke="black" visibility="hidden"/>
  <path class="hotspot hotspot_2" d="M125.48 14.24L 131.822 14.24L 131.822 6.69L 125.48 6.69L 125.48 14.24z" fill="black" id="AUTOID_11466" stroke="black" visibility="hidden"/>
  <path class="hotspot hotspot_3" d="M125.493 76.325L 131.808 76.325L 131.808 68.713L 125.493 68.713L 125.493 76.325z" fill="black" id="AUTOID_11467" stroke="black" visibility="hidden"/>
</svg>