<?xml version="1.0" encoding="UTF-8" standalone="no"?><!-- Generator: PTC Arbortext IsoDraw 7.3 M080 --><svg xmlns="http://www.w3.org/2000/svg" xmlns:xlink="http://www.w3.org/1999/xlink" clip-rule="evenodd" fill="none" fill-rule="evenodd" font-family="sans-serif" font-size="10" font-stretch="normal" font-style="normal" font-variant="normal" font-weight="normal" height="174.918" id="Standard_x0020_layer" onabort="parent.dwImageSVGOnAbort('VAW143318989');" onerror="parent.dwImageSVGOnError('VAW143318989');" onload="parent.dwImageSVGOnLoad('VAW143318989');" stroke="#000000" stroke-linecap="round" viewBox="0.0 0.0 289.997 174.918" width="289.997" x="0" xml:space="preserve" y="0">
 <g id="01_0031_0061_0">
  <desc>01_0031_0061_0</desc>
  <line stroke-width="0.13" x1="1.282" x2="1.423" y1="54.351" y2="54.466"/>
  <line stroke-width="0.13" x1="6.089" x2="5.948" y1="47.29" y2="47.176"/>
  <line stroke-width="0.13" x1="0.657" x2="0.649" y1="52.313" y2="52.575"/>
  <line stroke-width="0.13" x1="0.574" x2="0.566" y1="52.31" y2="52.575"/>
  <path d="M3.31 52.524C3.049 52.676 2.804 52.777 2.501 52.811L2.222 52.786" stroke-width="0.3"/>
  <path d="M0.15 52.334C0.176 53.125 0.405 54.156 1.276 54.43" stroke-width="0.3"/>
  <path d="M0.566 52.575C0.579 52.969 0.618 53.356 0.769 53.726C1.314 55.06 2.761 54.899 3.798 54.261C5.419 53.262 6.597 51.223 6.714 49.329C6.798 47.97 6.129 46.689 4.636 46.584C3.693 46.618 2.867 47.137 2.205 47.78C1.002 48.95 0.203 50.603 0.15 52.286" stroke-width="0.3"/>
  <path d="M2.379 52.92C2.012 52.642 1.915 52.25 1.897 51.805" stroke-width="0.3"/>
  <path d="M3.774 48.707C2.672 49.335 1.948 50.593 1.897 51.853" stroke-width="0.3"/>
  <path d="M4.974 49.5C4.924 50.762 4.203 52.006 3.105 52.643" stroke-width="0.3"/>
  <path d="M4.974 49.548C4.956 49.106 4.892 48.552 4.37 48.542C4.137 48.57 3.942 48.634 3.729 48.734" stroke-width="0.3"/>
  <path d="M4.102 51.799C3.863 52.079 3.613 52.316 3.31 52.524" stroke-width="0.13"/>
  <path d="M2.181 52.807C2.75 53.401 3.564 53.049 4.102 52.588C5.033 51.793 5.894 50.161 5.275 48.956" stroke-width="0.13"/>
  <path d="M5.075 46.901C5.336 46.92 5.554 46.97 5.793 47.079" stroke-width="0.13"/>
  <path d="M5.113 48.857C5.24 49.039 5.307 49.21 5.36 49.424" stroke-width="0.13"/>
  <path d="M4.721 48.59C4.913 48.865 4.961 49.171 4.974 49.5" stroke-width="0.13"/>
  <path d="M2.631 49.738C2.899 49.383 3.193 49.084 3.561 48.829" stroke-width="0.13"/>
  <path d="M3.52 46.856C4.054 46.637 4.565 46.539 5.128 46.716" stroke-width="0.13"/>
  <path d="M5.19 48.835C4.971 48.606 4.746 48.52 4.431 48.514C4.192 48.54 3.992 48.606 3.774 48.707" stroke-width="0.13"/>
  <path d="M2.104 48.74L2.498 48.28" stroke-width="0.13"/>
  <path d="M4.237 47.054L4.666 46.936" stroke-width="0.13"/>
  <path d="M6.219 47.424C6.343 47.588 6.434 47.744 6.522 47.93" stroke-width="0.13"/>
  <path d="M3.105 52.643C2.887 52.746 2.687 52.811 2.447 52.841L2.267 52.834" stroke-width="0.13"/>
  <path d="M1.897 51.853C1.91 52.156 1.956 52.415 2.096 52.686" stroke-width="0.13"/>
  <path d="M0.85 53.712C0.937 53.898 1.028 54.054 1.153 54.218" stroke-width="0.13"/>
  <path d="M0.183 52.779L0.15 52.286" stroke-width="0.13"/>
 </g>
 <g id="02_0112_0250_0_3">
  <desc>02_0112_0250_0</desc>
  <path d="M153.312 119.444C153.187 119.521 153.069 119.561 152.925 119.584C152.473 119.572 152.158 119.216 152.229 118.757" stroke-width="0.3"/>
  <path d="M152.669 117.977C152.961 117.743 153.356 117.722 153.633 117.99" stroke-width="0.3"/>
  <path d="M153.568 118.465L153.478 118.453C153.2 118.51 152.81 119.064 153.127 119.287" stroke-width="0.3"/>
  <path d="M152.241 118.671C152.302 118.423 152.42 118.215 152.603 118.034" stroke-width="0.3"/>
  <path d="M153.384 119.388C153.602 119.215 153.65 118.933 153.844 118.76C153.926 118.688 155.789 117.628 155.889 117.581" stroke-width="0.3"/>
  <path d="M153.49 118.453C154.082 118.796 154.253 118.355 154.989 117.93C155.39 117.697 156.859 117.156 156.225 116.367C156.167 116.293 156.097 116.239 156.015 116.191C155.701 116.01 155.442 115.787 155.09 115.733" stroke-width="0.3"/>
  <path d="M155.09 115.733C155.007 115.948 155.044 116.209 155.245 116.343C155.336 116.406 155.443 116.391 155.532 116.459" stroke-width="0.3"/>
  <path d="M156.167 117.227C156.468 117.402 156.39 117.623 156.281 117.927C156.157 118.272 155.972 118.581 155.75 118.871" stroke-width="0.3"/>
  <path d="M155.75 118.871C155.016 118.448 154.915 118.625 155.225 118.143L155.375 117.881" stroke-width="0.3"/>
  <path d="M153.481 117.876L154.436 117.325L155.415 116.757C155.493 116.689 155.556 116.575 155.55 116.471" stroke-width="0.3"/>
  <path d="M155.75 118.871C155.6 118.674 155.34 118.427 155.086 118.376L155.051 118.385" stroke-width="0.13"/>
  <path d="M153.127 119.287C153.519 119.42 153.669 118.721 153.923 118.552" stroke-width="0.13"/>
  <path d="M156.055 117.32C156.137 117.281 156.201 117.263 156.288 117.298" stroke-width="0.13"/>
  <path d="M155.75 116.114C155.692 116.265 155.588 116.368 155.427 116.394L155.372 116.393" stroke-width="0.13"/>
  <path d="M155.09 115.733C155.587 116.022 155.645 116.027 156.015 116.191" stroke-width="0.13"/>
  <path d="M153.568 118.465C153.62 118.495 153.65 118.542 153.699 118.573" stroke-width="0.13"/>
 </g>
 <g id="02_0112_0250_0">
  <desc>02_0112_0250_0</desc>
  <path d="M103.828 89.262C103.703 89.338 103.585 89.379 103.441 89.402C102.989 89.39 102.674 89.034 102.745 88.573" stroke-width="0.3"/>
  <path d="M103.183 87.796C103.477 87.561 103.873 87.54 104.149 87.808" stroke-width="0.3"/>
  <path d="M104.084 88.283L103.993 88.271C103.715 88.328 103.325 88.882 103.641 89.103" stroke-width="0.3"/>
  <path d="M102.757 88.489C102.819 88.24 102.936 88.033 103.117 87.852" stroke-width="0.3"/>
  <path d="M103.9 89.206C104.117 89.033 104.165 88.751 104.361 88.578C104.442 88.504 106.305 87.445 106.405 87.397" stroke-width="0.3"/>
  <path d="M104.004 88.271C104.599 88.614 104.769 88.173 105.504 87.748C105.906 87.516 107.375 86.974 106.742 86.185C106.682 86.111 106.612 86.057 106.531 86.01C106.218 85.826 105.957 85.605 105.605 85.552" stroke-width="0.3"/>
  <path d="M105.605 85.552C105.522 85.766 105.56 86.028 105.76 86.162C105.852 86.224 105.957 86.209 106.048 86.278" stroke-width="0.3"/>
  <path d="M106.682 87.045C106.984 87.218 106.906 87.439 106.796 87.745C106.673 88.09 106.487 88.4 106.266 88.689" stroke-width="0.3"/>
  <path d="M106.266 88.689C105.533 88.266 105.432 88.442 105.742 87.96L105.891 87.698" stroke-width="0.3"/>
  <path d="M103.998 87.692L104.951 87.143L105.932 86.573C106.01 86.507 106.072 86.393 106.066 86.29" stroke-width="0.3"/>
  <path d="M106.266 88.689C106.117 88.492 105.855 88.245 105.602 88.192L105.567 88.203" stroke-width="0.13"/>
  <path d="M103.641 89.103C104.034 89.237 104.185 88.537 104.438 88.368" stroke-width="0.13"/>
  <path d="M106.57 87.138C106.652 87.099 106.718 87.079 106.804 87.114" stroke-width="0.13"/>
  <path d="M106.266 85.933C106.207 86.082 106.103 86.186 105.944 86.212L105.888 86.21" stroke-width="0.13"/>
  <path d="M105.605 85.552C106.102 85.838 106.161 85.844 106.531 86.01" stroke-width="0.13"/>
  <path d="M104.084 88.283C104.135 88.313 104.165 88.359 104.215 88.391" stroke-width="0.13"/>
 </g>
 <g id="03_0151_0107_0_6">
  <desc>03_0151_0107_0</desc>
  <g id="03_0151_0107_0_5_1">
   <desc>03_0151_0107_0_5</desc>
   <path d="M15.537 55.996C14.59 56.582 13.903 57.665 13.769 58.774C13.679 59.517 13.961 60.475 14.884 60.36C15.118 60.331 15.33 60.237 15.537 60.125" stroke-width="0.3"/>
   <path d="M14.198 60.469C14.794 60.787 15.51 60.405 15.973 60.02C16.792 59.335 17.39 58.262 17.486 57.195C17.536 56.652 17.44 56.042 16.969 55.707" stroke-width="0.3"/>
   <path d="M15.502 60.103C16.484 59.493 17.21 58.329 17.283 57.167C17.326 56.478 17.053 55.761 16.277 55.734C15.993 55.756 15.752 55.844 15.502 55.978" stroke-width="0.3"/>
   <path d="M14.644 59.673C14.278 59.496 14.198 59.039 14.226 58.673C14.287 57.826 14.813 56.994 15.525 56.546" stroke-width="0.3"/>
   <path d="M15.548 56.561C15.839 56.406 16.205 56.286 16.504 56.491" stroke-width="0.3"/>
  </g>
  <g id="03_0151_0107_0_4_1">
   <desc>03_0151_0107_0_4</desc>
   <line stroke-width="0.13" x1="13.938" x2="13.977" y1="59.972" y2="59.969"/>
   <path d="M16.838 55.81C17.396 56.237 17.393 57.018 17.248 57.645C16.977 58.817 16.013 60.31 14.692 60.408C14.526 60.402 14.391 60.377 14.239 60.313" stroke-width="0.13"/>
   <path d="M17.022 55.734C17.609 56.152 17.635 56.941 17.506 57.588C17.25 58.865 16.216 60.5 14.791 60.624C14.577 60.621 14.403 60.582 14.214 60.481" stroke-width="0.13"/>
   <path d="M16.356 55.661L16.403 55.74" stroke-width="0.13"/>
   <path d="M17.022 55.734C16.833 55.634 16.661 55.594 16.446 55.591C16.222 55.61 16.041 55.674 15.832 55.75" stroke-width="0.3"/>
   <path d="M16.033 54.753C15.827 54.634 15.631 54.582 15.391 54.569C14.842 54.591 14.356 54.838 13.936 55.18C13.686 55.384 13.462 55.616 13.263 55.868C12.528 56.796 11.789 58.442 12.407 59.621C12.76 60.298 13.627 60.71 14.323 60.892C14.989 61.067 15.714 60.61 16.182 60.191C17.167 59.308 18.07 57.656 17.722 56.274C17.492 55.362 16.728 55.155 15.926 54.692" stroke-width="0.3"/>
   <path d="M14.214 60.481C13.734 60.137 13.631 59.539 13.681 58.981C13.778 57.912 14.375 56.841 15.194 56.156C15.567 55.844 16.603 55.271 16.917 55.968" stroke-width="0.3"/>
   <path d="M14.39 60.305L14.239 60.313C13.907 60.121 13.746 59.817 13.679 59.448" stroke-width="0.3"/>
   <path d="M13.887 59.81L13.789 59.823" stroke-width="0.3"/>
  </g>
  <g id="03_0151_0107_0_3_1">
   <desc>03_0151_0107_0_3</desc>
   <path d="M15.747 55.856L15.688 55.82" stroke-width="0.3"/>
   <path d="M16.452 56.457C16.922 56.749 16.986 57.253 16.879 57.771C16.704 58.628 16.018 59.698 15.066 59.792C14.903 59.787 14.778 59.753 14.637 59.671" stroke-width="0.3"/>
   <path d="M14.551 58.484L14.58 58.329" stroke-width="0.3"/>
   <path d="M14.513 59.796C14.885 59.96 15.256 59.84 15.585 59.633" stroke-width="0.3"/>
   <path d="M14.573 58.359L14.615 58.195" stroke-width="0.3"/>
   <path d="M15.098 57.301C15.303 57.07 15.519 56.887 15.808 56.768" stroke-width="0.3"/>
   <path d="M16.487 56.281C16.841 56.505 16.951 56.917 16.923 57.319" stroke-width="0.3"/>
   <path d="M15.791 56.776C15.971 56.722 16.117 56.71 16.292 56.783" stroke-width="0.3"/>
   <path d="M15.429 57.006C15.346 57.462 15.147 57.895 14.835 58.241" stroke-width="0.3"/>
   <path d="M14.66 59.21C14.717 59.279 14.768 59.326 14.843 59.374" stroke-width="0.3"/>
   <path d="M14.628 59.155C14.57 59.024 14.544 58.902 14.534 58.761" stroke-width="0.3"/>
   <path d="M14.637 58.128C14.782 57.683 15.057 57.295 15.41 56.994" stroke-width="0.3"/>
   <path d="M14.554 58.46C14.529 58.662 14.531 58.845 14.58 59.043" stroke-width="0.3"/>
   <path d="M14.598 58.262C14.615 58.194 14.637 58.127 14.66 58.06" stroke-width="0.3"/>
   <path d="M14.739 58.344C14.788 58.295 14.836 58.24 14.882 58.188" stroke-width="0.3"/>
   <path d="M16.487 56.281C16.353 56.222 16.236 56.201 16.088 56.201C15.077 56.314 14.348 57.43 14.137 58.344C14.021 58.85 14.025 59.49 14.513 59.796" stroke-width="0.13"/>
   <path d="M14.695 59.706C14.371 59.484 14.291 59.1 14.319 58.726C14.372 57.978 14.804 57.215 15.393 56.755C15.72 56.499 16.143 56.317 16.542 56.509" stroke-width="0.13"/>
  </g>
  <g id="03_0151_0107_0_2_1">
   <desc>03_0151_0107_0_2</desc>
   <path d="M16.143 55.746L16.111 55.676" stroke-width="0.3"/>
  </g>
 </g>
 <g id="03_0151_0107_0">
  <desc>03_0151_0107_0</desc>
  <g id="03_0151_0107_0_5">
   <desc>03_0151_0107_0_5</desc>
   <path d="M199.747 162.394C198.801 162.981 198.114 164.064 197.979 165.173C197.889 165.914 198.171 166.873 199.094 166.758C199.33 166.729 199.54 166.634 199.747 166.525" stroke-width="0.3"/>
   <path d="M199.759 166.717C200.772 166.09 201.504 164.947 201.676 163.768C201.764 163.18 201.704 162.477 201.18 162.104" stroke-width="0.3"/>
   <path d="M199.712 166.502C200.695 165.89 201.421 164.728 201.493 163.566C201.537 162.877 201.264 162.159 200.487 162.133C200.204 162.155 199.962 162.243 199.712 162.377" stroke-width="0.3"/>
   <path d="M198.836 166.064C198.513 165.843 198.432 165.46 198.46 165.086C198.514 164.337 198.943 163.574 199.532 163.114C199.847 162.867 200.341 162.634 200.716 162.89" stroke-width="0.3"/>
   <path d="M198.813 166.05C198.448 165.8 198.394 165.344 198.45 164.932C198.562 164.135 199.056 163.372 199.736 162.945" stroke-width="0.13"/>
  </g>
  <g id="03_0151_0107_0_4">
   <desc>03_0151_0107_0_4</desc>
   <line stroke-width="0.13" x1="198.149" x2="198.187" y1="166.372" y2="166.368"/>
   <path d="M201.05 162.209C201.608 162.635 201.604 163.415 201.459 164.044C201.187 165.216 200.224 166.71 198.902 166.806C198.737 166.801 198.602 166.775 198.449 166.711" stroke-width="0.13"/>
   <path d="M201.234 162.133C201.819 162.55 201.846 163.34 201.717 163.986C201.461 165.264 200.427 166.9 199.002 167.022C198.788 167.02 198.615 166.98 198.425 166.879" stroke-width="0.13"/>
   <path d="M200.568 162.06L200.615 162.139" stroke-width="0.13"/>
   <path d="M201.234 162.133C201.045 162.032 200.872 161.993 200.657 161.991C200.435 162.009 200.252 162.074 200.043 162.149" stroke-width="0.3"/>
   <path d="M198.74 161.191C197.407 161.907 196.407 163.52 196.407 165.051C196.407 165.56 196.551 166.201 197.026 166.48L198.264 167.195C198.546 167.358 198.919 167.343 199.223 167.264C199.668 167.149 200.062 166.885 200.401 166.582C200.643 166.366 200.859 166.122 201.05 165.86C201.719 164.941 202.371 163.389 201.783 162.266C201.469 161.665 200.635 161.377 200.138 161.092C199.977 160.998 199.782 160.977 199.602 160.967C199.293 160.979 199.02 161.062 198.74 161.191z" stroke-width="0.3"/>
   <path d="M201.128 162.366C201.012 162.108 200.766 162.066 200.498 162.057C200.01 162.093 199.622 162.348 199.266 162.676C198.563 163.328 198.051 164.254 197.913 165.205C197.824 165.81 197.894 166.501 198.425 166.879" stroke-width="0.3"/>
   <path d="M197.89 165.847C197.953 166.192 198.17 166.747 198.6 166.705" stroke-width="0.3"/>
   <path d="M198.001 166.223L198.099 166.209" stroke-width="0.3"/>
  </g>
  <g id="03_0151_0107_0_3">
   <desc>03_0151_0107_0_3</desc>
   <path d="M199.959 162.256L199.899 162.218" stroke-width="0.3"/>
   <path d="M200.663 162.854C201.133 163.146 201.197 163.651 201.091 164.169C200.914 165.027 200.229 166.098 199.276 166.191C199.115 166.187 198.989 166.151 198.848 166.07" stroke-width="0.3"/>
   <path d="M198.762 164.883L198.79 164.728" stroke-width="0.3"/>
   <path d="M198.724 166.195C199.097 166.36 199.467 166.237 199.795 166.032" stroke-width="0.3"/>
   <path d="M198.784 164.758L198.825 164.593" stroke-width="0.3"/>
   <path d="M199.308 163.699C199.514 163.469 199.73 163.284 200.02 163.168" stroke-width="0.3"/>
   <path d="M200.699 162.681C201.052 162.903 201.162 163.316 201.133 163.717" stroke-width="0.3"/>
   <path d="M200.002 163.175C200.181 163.121 200.329 163.109 200.503 163.182" stroke-width="0.3"/>
   <path d="M199.64 163.403C199.557 163.86 199.359 164.293 199.045 164.639" stroke-width="0.3"/>
   <path d="M198.871 165.608C198.927 165.677 198.979 165.724 199.055 165.772" stroke-width="0.3"/>
   <path d="M198.838 165.555C198.782 165.423 198.756 165.301 198.745 165.159" stroke-width="0.3"/>
   <path d="M198.848 164.526C198.992 164.081 199.268 163.693 199.622 163.393" stroke-width="0.3"/>
   <path d="M198.765 164.86C198.741 165.062 198.741 165.245 198.79 165.443" stroke-width="0.3"/>
   <path d="M198.808 164.661C198.825 164.592 198.848 164.526 198.871 164.459" stroke-width="0.3"/>
   <path d="M198.949 164.741C199.001 164.693 199.046 164.639 199.093 164.586" stroke-width="0.3"/>
   <path d="M200.699 162.681C200.563 162.622 200.447 162.599 200.3 162.598C199.288 162.712 198.558 163.829 198.348 164.742C198.231 165.248 198.236 165.889 198.724 166.195" stroke-width="0.13"/>
   <path d="M198.907 166.104C198.582 165.883 198.502 165.5 198.53 165.126C198.585 164.377 199.014 163.614 199.604 163.153C199.931 162.897 200.354 162.716 200.753 162.908" stroke-width="0.13"/>
  </g>
  <g id="03_0151_0107_0_2">
   <desc>03_0151_0107_0_2</desc>
   <path d="M200.355 162.145L200.323 162.075" stroke-width="0.3"/>
  </g>
 </g>
 <g id="54308_1_1">
  <desc>54308_1</desc>
  <line stroke-width="0.13" x1="137.048" x2="137.08" y1="128.531" y2="128.457"/>
  <line stroke-width="0.13" x1="136.955" x2="136.973" y1="128.828" y2="128.753"/>
  <line stroke-width="0.13" x1="136.931" x2="136.943" y1="128.971" y2="128.899"/>
  <line stroke-width="0.13" x1="136.926" x2="136.923" y1="129.039" y2="129.11"/>
  <line stroke-width="0.13" x1="137.02" x2="136.993" y1="128.605" y2="128.68"/>
  <line stroke-width="0.13" x1="137.153" x2="137.114" y1="128.313" y2="128.384"/>
  <path d="M136.811 128.076C136.719 128.248 136.646 128.415 136.584 128.599" stroke-width="0.13"/>
  <path d="M135.307 128.094C134.941 128.332 135.419 129.026 135.769 128.939" stroke-width="0.13"/>
  <path d="M138.293 127.221L136.615 126.251L87.56 97.93L85.882 96.96C85.792 96.909 85.763 96.912 85.665 96.894C84.822 96.9 84.109 97.807 84.091 98.608C84.087 98.864 84.076 99.153 84.233 99.373C84.278 99.438 84.331 99.489 84.399 99.528L86.076 100.496L135.133 128.819L136.811 129.788L136.913 129.832C137.234 129.931 137.558 129.722 137.816 129.561C138.377 129.206 138.615 128.532 138.599 127.899C138.593 127.62 138.52 127.388 138.293 127.221z" stroke-width="0.3"/>
  <path d="M84.888 98.984C85.198 98.871 85.373 99.227 85.415 99.48C85.435 99.591 85.454 99.756 85.349 99.829" stroke-width="0.3"/>
  <path d="M135.307 128.094C135.62 127.981 135.793 128.336 135.836 128.591C135.854 128.701 135.875 128.866 135.769 128.939" stroke-width="0.3"/>
  <path d="M85.349 99.829L85.311 99.838C84.981 99.816 84.507 99.23 84.888 98.984" stroke-width="0.13"/>
 </g>
 <g id="54310_1_1">
  <desc>54310_1</desc>
  <line stroke-width="0.13" x1="189.836" x2="190.1" y1="155.758" y2="155.622"/>
  <line stroke-width="0.13" x1="189.805" x2="190.069" y1="155.705" y2="155.567"/>
  <line stroke-width="0.13" x1="188.532" x2="188.307" y1="156.818" y2="157.11"/>
  <path d="M189.675 156.308C189.887 156.669 189.86 157.133 189.774 157.526C189.552 158.52 188.752 159.745 187.643 159.832" stroke-width="0.13"/>
  <path d="M189.519 157.086C189.469 157.598 189.299 158.04 189.034 158.479" stroke-width="0.13"/>
  <path d="M187.961 157.77L188.355 157.15" stroke-width="0.13"/>
  <path d="M143.224 135.013C143.223 133.288 144.117 131.502 145.545 130.508C146.106 130.118 146.87 129.786 147.549 130.067L147.741 130.167L149.419 131.135L190.026 154.58C190.741 154.993 191.908 155.362 192.262 156.26C192.481 156.819 192.456 157.473 192.342 158.054C192.272 158.4 192.167 158.739 192.032 159.064C191.455 160.461 190.188 162.092 188.532 162.11C187.695 161.991 186.875 161.317 186.228 160.943L145.62 137.498C144.721 136.979 143.586 136.662 143.305 135.572C143.245 135.337 143.247 135.254 143.224 135.013z" stroke-width="0.3"/>
  <path d="M188.201 161.395C187.711 160.98 187.593 160.372 187.646 159.752C187.75 158.532 188.437 157.302 189.376 156.528C189.966 156.042 190.752 155.688 191.469 156.102" stroke-width="0.3"/>
  <path d="M147.685 130.186C147.431 130.055 147.563 130.109 147.289 130.022" stroke-width="0.13"/>
  <path d="M191.469 156.102C192.116 156.649 192.116 157.55 191.931 158.318C191.592 159.73 190.485 161.379 188.939 161.587C188.656 161.584 188.449 161.537 188.201 161.395" stroke-width="0.13"/>
 </g>
 <g>
  <line stroke-width="0.13" x1="208.335" x2="208.479" y1="174.371" y2="174.486"/>
  <path d="M210.395 172.514C210.129 172.668 209.879 172.77 209.574 172.806L209.289 172.781" stroke-width="0.3"/>
  <path d="M212.717 166.824C212.427 166.591 212.105 166.504 211.741 166.479C209.388 166.563 207.62 169.372 207.258 171.455C207.086 172.449 207.144 174.079 208.328 174.45" stroke-width="0.3"/>
  <path d="M210.62 174.433C212.401 173.405 213.725 171.336 213.852 169.269C213.925 168.087 213.503 166.818 212.163 166.723C211.212 166.758 210.391 167.276 209.723 167.925C208.466 169.147 207.497 171.032 207.616 172.824C207.635 173.134 207.694 173.445 207.812 173.735C208.52 175.462 210.508 174.701 211.556 173.778C212.02 173.371 212.401 172.894 212.747 172.384" stroke-width="0.3"/>
  <path d="M212.086 169.443C212.033 170.723 211.301 171.987 210.187 172.634" stroke-width="0.3"/>
  <path d="M210.866 168.637C209.747 169.276 209.01 170.551 208.959 171.832" stroke-width="0.3"/>
  <path d="M209.449 172.915C209.075 172.633 208.978 172.235 208.959 171.784" stroke-width="0.3"/>
  <path d="M212.086 169.491C212.067 169.043 212.002 168.479 211.471 168.469C211.234 168.497 211.036 168.562 210.819 168.663" stroke-width="0.3"/>
  <path d="M211.473 171.394C211.175 171.836 210.837 172.21 210.395 172.514" stroke-width="0.13"/>
  <path d="M209.78 174.729C210.01 174.676 210.219 174.609 210.439 174.519" stroke-width="0.13"/>
  <path d="M209.247 172.8C209.825 173.403 210.651 173.048 211.199 172.58C212.145 171.771 213.019 170.112 212.39 168.889" stroke-width="0.13"/>
  <path d="M211.983 166.81C212.461 166.793 212.842 166.895 213.217 167.198" stroke-width="0.13"/>
  <path d="M212.086 169.443C212.072 169.109 212.024 168.796 211.828 168.518" stroke-width="0.13"/>
  <path d="M208.804 169.183C209.153 168.669 209.538 168.211 209.995 167.788" stroke-width="0.13"/>
  <path d="M210.866 168.637C211.373 168.401 211.889 168.335 212.305 168.768" stroke-width="0.13"/>
  <path d="M210.65 168.762C210.275 169.019 209.979 169.324 209.705 169.685" stroke-width="0.13"/>
  <path d="M211.804 170.762C211.914 170.477 211.997 170.198 212.054 169.897" stroke-width="0.13"/>
  <path d="M213.787 168.27C213.694 167.919 213.569 167.625 213.348 167.334" stroke-width="0.13"/>
  <path d="M211.112 167.05L211.556 166.888" stroke-width="0.13"/>
  <path d="M210.215 167.605L210.663 167.29" stroke-width="0.13"/>
  <path d="M209.336 172.829C209.633 172.877 209.925 172.758 210.187 172.634" stroke-width="0.13"/>
  <path d="M207.895 173.721C207.984 173.909 208.076 174.068 208.203 174.234" stroke-width="0.13"/>
  <path d="M209.568 174.758L209.365 174.765C209.098 174.747 208.878 174.695 208.634 174.584" stroke-width="0.13"/>
  <path d="M207.724 172.026C207.693 172.377 207.688 172.712 207.724 173.064" stroke-width="0.13"/>
  <path d="M209.162 172.679C209.02 172.403 208.972 172.14 208.959 171.832" stroke-width="0.13"/>
 </g>
 <g>
  <line stroke="#FFFFFF" stroke-width="1" x1="139.188" x2="143.495" y1="129.469" y2="131.955"/>
  <line stroke-dasharray="5 1 1 1" stroke-width="0.13" x1="138.699" x2="143.117" y1="129.187" y2="131.739"/>
  <line stroke-width="0.13" x1="143.117" x2="143.984" y1="131.739" y2="132.239"/>
 </g>
 <g>
  <line stroke="#FFFFFF" stroke-width="1" x1="139.074" x2="151.508" y1="126.435" y2="119.397"/>
  <line stroke-dasharray="10 2 5 3" stroke-width="0.13" x1="138.584" x2="151.129" y1="126.712" y2="119.611"/>
  <line stroke-width="0.13" x1="151.129" x2="152" y1="119.611" y2="119.118"/>
 </g>
 <g>
  <line stroke="#FFFFFF" stroke-width="1" x1="88.475" x2="101.78" y1="97.343" y2="89.662"/>
  <line stroke-dasharray="10 2 5 3" stroke-width="0.13" x1="87.986" x2="101.403" y1="97.626" y2="89.879"/>
  <line stroke-width="0.13" x1="101.403" x2="102.269" y1="89.879" y2="89.379"/>
 </g>
 <g class="callout callout_3">
  <g>
   <line stroke="#FFFFFF" stroke-width="1" x1="112.609" x2="127.055" y1="112.075" y2="103.734"/>
   <line stroke-width="0.13" x1="112.609" x2="127.055" y1="112.075" y2="103.734"/>
  </g>
  <path d="M124.063 107.284L130.048 107.284 130.048 100.186 124.063 100.186 124.063 107.284z" fill="#FFFFFF" stroke="none"/>
  <text fill="#000000" font-family="'Arial'" font-size="4.232" stroke="none" x="125.878" y="105.284"><desc>3</desc>3</text>
 </g>
 <g class="callout callout_7">
  <g>
   <line stroke="#FFFFFF" stroke-width="1" x1="213.745" x2="225.379" y1="168.389" y2="161.673"/>
   <line stroke-width="0.13" x1="213.745" x2="225.379" y1="168.389" y2="161.673"/>
  </g>
  <path d="M222.399 165.168L228.36 165.168 228.36 158.176 222.399 158.176 222.399 165.168z" fill="#FFFFFF" stroke="none"/>
  <text fill="#000000" font-family="'Arial'" font-size="4.232" stroke="none" x="224.203" y="163.168"><desc>7</desc>7</text>
 </g>
 <g class="callout callout_4">
  <g>
   <line stroke="#FFFFFF" stroke-width="1" x1="169.55" x2="182.243" y1="142.866" y2="135.537"/>
   <line stroke-width="0.13" x1="169.55" x2="182.243" y1="142.866" y2="135.537"/>
  </g>
  <path d="M179.195 139.051L185.292 139.051 185.292 132.021 179.195 132.021 179.195 139.051z" fill="#FFFFFF" stroke="none"/>
  <text fill="#000000" font-family="'Arial'" font-size="4.232" stroke="none" x="181.067" y="137.051"><desc>4</desc>4</text>
 </g>
 <g class="callout callout_5">
  <g>
   <line stroke="#FFFFFF" stroke-width="1" x1="200.638" x2="213.138" y1="161.417" y2="154.199"/>
   <line stroke-width="0.13" x1="200.638" x2="213.138" y1="161.417" y2="154.199"/>
  </g>
  <path d="M210.133 157.719L216.143 157.719 216.143 150.679 210.133 150.679 210.133 157.719z" fill="#FFFFFF" stroke="none"/>
  <text fill="#000000" font-family="'Arial'" font-size="4.232" stroke="none" x="211.961" y="155.719"><desc>5</desc>5</text>
 </g>
 <g class="callout callout_2">
  <g>
   <line stroke="#FFFFFF" stroke-width="1" x1="106.662" x2="117.105" y1="87.987" y2="94.016"/>
   <line stroke-width="0.13" x1="106.662" x2="117.105" y1="87.987" y2="94.016"/>
  </g>
  <path d="M114.102 97.539L120.109 97.539 120.109 90.495 114.102 90.495 114.102 97.539z" fill="#FFFFFF" stroke="none"/>
  <text fill="#000000" font-family="'Arial'" font-size="4.232" stroke="none" x="115.929" y="95.539"><desc>2</desc>2</text>
 </g>
 <g class="callout callout_2">
  <g>
   <line stroke="#FFFFFF" stroke-width="1" x1="156.123" x2="166.188" y1="118.126" y2="123.936"/>
   <line stroke-width="0.13" x1="156.123" x2="166.188" y1="118.126" y2="123.936"/>
  </g>
  <path d="M163.186 127.457L169.193 127.457 169.193 120.415 163.186 120.415 163.186 127.457z" fill="#FFFFFF" stroke="none"/>
  <text fill="#000000" font-family="'Arial'" font-size="4.232" stroke="none" x="165.012" y="125.457"><desc>2</desc>2</text>
 </g>
 <g class="callout callout_5">
  <g>
   <line stroke="#FFFFFF" stroke-width="1" x1="16.515" x2="29.248" y1="54.845" y2="47.494"/>
   <line stroke-width="0.13" x1="16.515" x2="29.248" y1="54.845" y2="47.494"/>
  </g>
  <path d="M26.243 51.015L32.253 51.015 32.253 43.975 26.243 43.975 26.243 51.015z" fill="#FFFFFF" stroke="none"/>
  <text fill="#000000" font-family="'Arial'" font-size="4.232" stroke="none" x="28.071" y="49.015"><desc>5</desc>5</text>
 </g>
 <g class="callout callout_7">
  <g>
   <line stroke="#FFFFFF" stroke-width="1" x1="6.671" x2="18.621" y1="48.259" y2="41.36"/>
   <line stroke-width="0.13" x1="6.671" x2="18.621" y1="48.259" y2="41.36"/>
  </g>
  <path d="M15.641 44.856L21.603 44.856 21.603 37.865 15.641 37.865 15.641 44.856z" fill="#FFFFFF" stroke="none"/>
  <text fill="#000000" font-family="'Arial'" font-size="4.232" stroke="none" x="17.445" y="42.856"><desc>7</desc>7</text>
 </g>
 <g id="28653_1_1_1">
  <desc>28653_1</desc>
  <line stroke-width="0.13" x1="271.62" x2="271.663" y1="137.675" y2="137.582"/>
  <line stroke-width="0.13" x1="271.401" x2="271.379" y1="138.334" y2="138.426"/>
  <line stroke-width="0.13" x1="271.452" x2="271.425" y1="138.145" y2="138.24"/>
  <line stroke-width="0.13" x1="271.514" x2="271.48" y1="137.957" y2="138.051"/>
  <line stroke-width="0.13" x1="271.584" x2="271.547" y1="137.77" y2="137.864"/>
  <line stroke-width="0.13" x1="271.295" x2="271.298" y1="139.141" y2="139.056"/>
  <line stroke-width="0.13" x1="271.341" x2="271.36" y1="138.611" y2="138.52"/>
  <line stroke-width="0.13" x1="271.795" x2="271.846" y1="137.306" y2="137.216"/>
  <line stroke-width="0.13" x1="271.704" x2="271.75" y1="137.49" y2="137.397"/>
  <line stroke-width="0.13" x1="271.315" x2="271.329" y1="138.793" y2="138.703"/>
  <line stroke-width="0.13" x1="271.309" x2="271.3" y1="138.882" y2="138.969"/>
  <line stroke-width="0.13" x1="274.444" x2="274.504" y1="135.338" y2="135.352"/>
  <line stroke-width="0.13" x1="273.915" x2="273.985" y1="135.365" y2="135.35"/>
  <line stroke-width="0.13" x1="273.774" x2="273.845" y1="135.405" y2="135.384"/>
  <line stroke-width="0.13" x1="273.485" x2="273.557" y1="135.524" y2="135.491"/>
  <line stroke-width="0.13" x1="273.338" x2="273.411" y1="135.602" y2="135.562"/>
  <line stroke-width="0.13" x1="274.677" x2="274.73" y1="135.406" y2="135.431"/>
  <line stroke-width="0.13" x1="273.629" x2="273.701" y1="135.457" y2="135.431"/>
  <line stroke-width="0.13" x1="274.122" x2="274.053" y1="135.33" y2="135.337"/>
  <line stroke-width="0.13" x1="274.254" x2="274.189" y1="135.324" y2="135.324"/>
  <line stroke-width="0.13" x1="274.382" x2="274.319" y1="135.331" y2="135.324"/>
  <line stroke-width="0.13" x1="274.62" x2="274.564" y1="135.384" y2="135.365"/>
  <path d="M272.449 134.906C272.762 134.736 273.096 134.598 273.461 134.605C274.379 134.625 275.247 135.367 275.362 136.265C275.54 137.651 274.833 139.139 273.774 140.016C273.322 140.391 272.766 140.695 272.17 140.712C272.002 140.7 271.829 140.68 271.68 140.596L270.839 140.11C270.266 139.77 270.216 138.95 270.252 138.365C270.331 137.032 271.163 135.693 272.291 134.996" stroke-width="0.3"/>
  <path d="M272.562 139.394C272.201 139.186 272.149 138.753 272.206 138.372C272.295 137.762 272.646 137.156 273.129 136.772C273.411 136.55 273.764 136.395 274.117 136.53" stroke-width="0.3"/>
  <path d="M273.439 136.578C273.475 137.436 272.949 138.341 272.19 138.741" stroke-width="0.3"/>
  <path d="M272.449 134.906C271.817 135.295 271.339 135.832 270.946 136.456" stroke-width="0.13"/>
  <path d="M270.98 139.141C271.002 138.4 271.23 137.718 271.572 137.064" stroke-width="0.13"/>
  <path d="M274.117 136.53C274.521 136.764 274.536 137.274 274.449 137.686C274.286 138.439 273.67 139.395 272.824 139.45C272.728 139.443 272.653 139.429 272.562 139.394" stroke-width="0.13"/>
  <path d="M273.194 140.4C272.963 140.504 272.742 140.574 272.49 140.598C272.271 140.598 272.089 140.562 271.894 140.465" stroke-width="0.13"/>
  <path d="M274.685 135.145C274.521 135.075 274.372 135.042 274.194 135.03C273.824 135.039 273.507 135.155 273.182 135.329" stroke-width="0.13"/>
 </g>
 <g class="callout callout_6">
  <g>
   <line stroke="#FFFFFF" stroke-width="1" x1="274.586" x2="286.997" y1="134.941" y2="127.775"/>
   <line stroke-width="0.13" x1="274.586" x2="286.997" y1="134.941" y2="127.775"/>
  </g>
  <path d="M283.995 131.323L289.997 131.323 289.997 124.228 283.995 124.228 283.995 131.323z" fill="#FFFFFF" stroke="none"/>
  <text fill="#000000" font-family="'Arial'" font-size="4.232" stroke="none" x="285.819" y="129.323"><desc>6</desc>6</text>
 </g>
 <g>
  <line stroke="#FFFFFF" stroke-width="1" x1="16.498" x2="21.278" y1="58.578" y2="61.338"/>
  <line stroke-dasharray="5 1 1 1" stroke-width="0.13" x1="16.009" x2="20.902" y1="58.295" y2="61.121"/>
  <line stroke-width="0.13" x1="20.902" x2="21.768" y1="61.121" y2="61.621"/>
 </g>
 <g>
  <line stroke="#FFFFFF" stroke-width="1" x1="4.213" x2="11.896" y1="51.536" y2="55.972"/>
  <line stroke-dasharray="5 1 1 1" stroke-width="0.13" x1="3.724" x2="11.519" y1="51.255" y2="55.756"/>
  <line stroke-width="0.13" x1="11.519" x2="12.385" y1="55.756" y2="56.256"/>
 </g>
 <g>
  <line stroke="#FFFFFF" stroke-width="1" x1="190.552" x2="196.556" y1="159.112" y2="162.579"/>
  <line stroke-dasharray="5 1 1 1" stroke-width="0.13" x1="190.062" x2="196.18" y1="158.83" y2="162.361"/>
  <line stroke-width="0.13" x1="196.18" x2="197.045" y1="162.361" y2="162.861"/>
 </g>
 <g>
  <line stroke="#FFFFFF" stroke-width="1" x1="200.509" x2="207.241" y1="164.873" y2="168.76"/>
  <line stroke-dasharray="5 1 1 1" stroke-width="0.13" x1="200.02" x2="206.866" y1="164.591" y2="168.543"/>
  <line stroke-width="0.13" x1="206.866" x2="207.731" y1="168.543" y2="169.043"/>
 </g>
 <g>
  <line stroke-width="0.13" x1="64.698" x2="64.352" y1="120.207" y2="119.983"/>
  <line stroke-width="0.3" x1="56.484" x2="57.404" y1="128.99" y2="130.582"/>
  <path d="M43.412 152.997C43.604 152.879 43.656 152.862 43.819 152.703C44.326 152.199 44.466 151.457 44.476 150.77L44.476 150.133L44.476 139.449C44.476 138.625 44.499 137.813 44.603 136.996C44.848 135.097 45.472 133.239 46.289 131.514C47.195 129.6 48.375 127.813 49.802 126.25C50.469 125.522 51.188 124.831 51.972 124.233C52.628 123.733 53.32 123.308 54.033 122.896L57.432 120.933C57.945 120.638 58.454 120.338 58.994 120.096C60.039 119.629 61.189 119.326 62.341 119.397C62.908 119.432 63.469 119.561 63.984 119.796C64.269 119.924 64.652 120.158 64.903 120.302C65.549 120.676 66.257 121.01 66.825 121.504C68.034 122.557 68.573 124.168 68.733 125.719C68.795 126.31 68.79 126.899 68.79 127.49L68.79 138.175C68.79 139.058 68.787 139.935 68.444 140.764C68.233 141.272 67.903 141.736 67.448 142.052L67.182 142.215L66.629 142.533L45.223 154.893C44.932 155.061 44.695 155.223 44.387 155.337C44.073 155.455 43.764 155.485 43.432 155.506C43.11 155.491 43.048 155.498 42.728 155.437C42.055 155.306 41.421 155.01 40.845 154.645C39.868 154.026 39.03 153.191 38.329 152.274C38.112 151.99 37.911 151.699 37.719 151.397L37.438 150.935L37.119 150.383L30.359 138.671L30.039 138.121" stroke-width="0.3"/>
  <path d="M44.595 137.069L44.043 137.388L41.578 138.812C41.204 139.027 40.953 139.237 40.533 139.246C40.395 139.229 40.268 139.205 40.137 139.147C39.643 138.926 39.427 138.442 39.17 137.996L37.896 135.789C37.64 135.343 37.424 134.86 36.929 134.638C36.799 134.58 36.673 134.556 36.533 134.54C36.115 134.549 35.862 134.758 35.49 134.973L30.591 137.801L30.039 138.121" stroke-width="0.3"/>
  <path d="M49.017 127.165L48.465 127.483L48.377 127.534L47.826 127.852L47.72 127.924C47.429 128.155 47.326 128.544 47.368 128.901C47.387 129.049 47.429 129.182 47.484 129.319" stroke-width="0.3"/>
  <path d="M49.002 127.183C48.892 127.259 48.795 127.388 48.743 127.509" stroke-width="0.13"/>
  <path d="M66.153 121.024C65.825 120.855 65.751 120.802 65.4 120.682C64.843 120.489 64.281 120.439 63.694 120.429C63.213 120.457 62.75 120.507 62.28 120.621C61.182 120.89 60.206 121.412 59.234 121.972L55.835 123.936C55.121 124.347 54.429 124.772 53.773 125.272C52.25 126.433 50.954 127.905 49.868 129.473C48.665 131.215 47.707 133.129 47.067 135.149C46.77 136.088 46.53 137.056 46.405 138.034C46.299 138.854 46.277 139.664 46.277 140.489L46.277 151.174L46.277 151.81L46.262 152.245C46.2 153.192 45.909 154.198 45.183 154.854C44.976 155.042 44.909 155.067 44.673 155.211" stroke-width="0.13"/>
  <path d="M57.993 127.878C58.098 128.305 58.037 128.79 57.941 129.212C57.712 130.217 57.158 131.175 56.402 131.877C56.088 132.169 55.695 132.469 55.274 132.59" stroke-width="0.3"/>
  <path d="M55.902 133.58C55.765 133.484 55.728 133.471 55.615 133.342C55.259 132.933 55.195 132.341 55.237 131.822C55.341 130.526 56.076 129.215 57.082 128.401C57.552 128.02 58.189 127.676 58.817 127.798C58.984 127.829 59.015 127.855 59.165 127.927" stroke-width="0.3"/>
  <path d="M59.165 127.927C59.302 128.022 59.341 128.037 59.453 128.164C59.935 128.718 59.895 129.578 59.743 130.247C59.676 130.544 59.578 130.836 59.457 131.117C59.372 131.312 59.277 131.502 59.17 131.687C58.606 132.669 57.654 133.694 56.445 133.73C56.24 133.707 56.088 133.668 55.902 133.58" stroke-width="0.13"/>
  <path d="M43.412 152.997C43.158 153.103 42.944 153.152 42.668 153.18C42.411 153.169 42.359 153.179 42.103 153.123C40.893 152.86 39.889 151.894 39.182 150.925C38.887 150.519 38.643 150.081 38.393 149.647L31.632 137.937L31.314 137.385" stroke-width="0.13"/>
 </g>
 <g class="callout callout_8">
  <g>
   <line stroke="#FFFFFF" stroke-width="1" x1="68.304" x2="83.256" y1="132.747" y2="132.747"/>
   <line stroke-width="0.13" x1="68.304" x2="83.256" y1="132.747" y2="132.747"/>
  </g>
  <path d="M80.257 136.294L86.254 136.294 86.254 129.199 80.257 129.199 80.257 136.294z" fill="#FFFFFF" stroke="none"/>
  <text fill="#000000" font-family="'Arial'" font-size="4.232" stroke="none" x="82.078" y="134.294"><desc>8</desc>8</text>
 </g>
 <g id="54307_1">
  <desc>54307_1</desc>
  <g id="54309_1">
   <desc>54309_1</desc>
   <path d="M134.515 58.868L133.138 58.073L97.186 37.316L95.808 36.521L95.569 36.399C95.013 36.146 94.417 36.07 93.811 36.06C92.721 36.118 92.025 36.543 91.001 37.031L27.178 67.433C26.315 67.843 25.576 68.298 24.64 68.418C24.304 68.409 24 68.39 23.698 68.224C23.303 68.01 22.475 67.629 22.102 67.198C21.272 66.239 21.48 64.704 21.829 63.598C22.292 62.14 23.204 60.74 24.443 59.823C25.103 59.335 25.919 59.021 26.641 58.676L90.465 28.275L91.902 27.591L92.237 27.451C92.882 27.213 93.579 27.118 94.265 27.114C95.256 27.106 96.278 27.282 97.18 27.705L97.518 27.881L98.896 28.676L140.586 52.746C141.144 53.069 141.983 53.46 142.522 53.939C143.389 54.71 143.098 55.548 143.018 56.668L142.659 61.6C142.588 62.567 142.769 63.613 141.942 64.268C141.769 64.405 141.586 64.51 141.387 64.606L139.949 65.292L76.126 95.692C75.265 96.102 74.527 96.557 73.591 96.679C73.26 96.67 72.954 96.653 72.656 96.49L71.531 95.84L71.272 95.673C70.573 95.114 70.435 94.112 70.495 93.275C70.647 91.174 71.959 88.927 73.769 87.828L74.153 87.62L75.59 86.936L139.413 56.536L140.849 55.851C141.221 55.671 141.492 55.418 141.544 55" stroke-width="0.3"/>
   <path d="M139.031 58.789C139.024 59.582 138.556 60.435 137.855 60.826" stroke-width="0.3"/>
   <path d="M138.183 61.542C137.848 61.28 137.812 60.869 137.884 60.472C137.99 59.896 138.319 59.331 138.775 58.962C139.08 58.713 139.449 58.557 139.828 58.723" stroke-width="0.3"/>
   <path d="M141.544 55C141.489 54.569 141.21 54.29 140.843 54.076L139.465 53.28L97.775 29.21L96.397 28.414L96.159 28.292C95.602 28.039 95.004 27.964 94.4 27.954C93.31 28.013 92.614 28.437 91.59 28.925L27.766 59.326C27.045 59.67 26.23 59.984 25.571 60.47C24.208 61.475 23.222 63.075 22.826 64.709C22.525 65.948 22.533 67.453 23.698 68.224" stroke-width="0.13"/>
   <path d="M26.858 62.655C26.693 62.582 26.78 62.609 26.599 62.576C25.707 62.606 25.059 63.604 24.914 64.403C24.841 64.801 24.879 65.212 25.213 65.472" stroke-width="0.3"/>
   <path d="M24.885 64.757C25.585 64.37 26.053 63.511 26.06 62.72" stroke-width="0.3"/>
   <path d="M26.858 62.655C27.193 62.914 27.23 63.326 27.158 63.725C27.012 64.522 26.364 65.521 25.472 65.551C25.292 65.519 25.378 65.545 25.213 65.472" stroke-width="0.13"/>
   <path d="M89.236 33.28C88.9 33.021 88.864 32.609 88.936 32.212C89.042 31.637 89.371 31.071 89.826 30.701C90.132 30.452 90.501 30.297 90.879 30.463" stroke-width="0.3"/>
   <path d="M88.908 32.566C89.608 32.176 90.075 31.321 90.082 30.53" stroke-width="0.3"/>
   <path d="M89.236 33.28C89.614 33.448 89.983 33.292 90.29 33.043C90.743 32.673 91.075 32.109 91.18 31.533C91.253 31.135 91.215 30.724 90.879 30.463" stroke-width="0.13"/>
   <path d="M143.133 55.082C143.004 56.332 141.469 56.741 140.538 57.185L76.715 87.587C75.992 87.93 75.177 88.245 74.519 88.731C73.155 89.737 72.167 91.34 71.772 92.978C71.472 94.219 71.484 95.725 72.656 96.49" stroke-width="0.13"/>
   <path d="M75.009 90.981C75.001 91.772 74.534 92.629 73.834 93.016" stroke-width="0.3"/>
   <path d="M75.805 90.915C75.641 90.843 75.727 90.868 75.546 90.837C74.656 90.867 74.007 91.864 73.861 92.662C73.79 93.061 73.826 93.472 74.162 93.733" stroke-width="0.3"/>
   <path d="M74.162 93.733C74.54 93.9 74.909 93.743 75.215 93.495C75.67 93.126 76 92.56 76.105 91.984C76.177 91.587 76.141 91.174 75.805 90.915" stroke-width="0.13"/>
   <path d="M139.828 58.723C140.163 58.984 140.2 59.396 140.127 59.793C139.981 60.591 139.335 61.59 138.443 61.619C138.262 61.588 138.348 61.613 138.183 61.542" stroke-width="0.13"/>
  </g>
 </g>
 <g>
  <line stroke="#FFFFFF" stroke-width="1" x1="26.591" x2="70.942" y1="64.481" y2="90.028"/>
  <line stroke-dasharray="5 1 1 1" stroke-width="0.13" x1="26.103" x2="70.566" y1="64.2" y2="89.811"/>
  <line stroke-width="0.13" x1="70.566" x2="71.433" y1="89.811" y2="90.31"/>
 </g>
 <g>
  <line stroke="#FFFFFF" stroke-width="1" x1="75.572" x2="83.641" y1="92.737" y2="97.344"/>
  <line stroke-dasharray="5 1 1 1" stroke-width="0.13" x1="75.081" x2="83.263" y1="92.457" y2="97.129"/>
  <line stroke-width="0.13" x1="83.263" x2="84.132" y1="97.129" y2="97.625"/>
 </g>
 <g id="02_0112_0250_0_3_1">
  <desc>02_0112_0250_0</desc>
  <path d="M216.218 86.76C216.092 86.837 215.975 86.879 215.83 86.9C215.378 86.89 215.063 86.534 215.133 86.073" stroke-width="0.3"/>
  <path d="M215.574 85.295C215.866 85.061 216.262 85.04 216.538 85.308" stroke-width="0.3"/>
  <path d="M216.474 85.783L216.383 85.769C216.105 85.828 215.715 86.382 216.032 86.603" stroke-width="0.3"/>
  <path d="M215.146 85.989C215.209 85.739 215.326 85.533 215.508 85.35" stroke-width="0.3"/>
  <path d="M216.289 86.706C216.507 86.531 216.555 86.251 216.751 86.078C216.831 86.004 218.694 84.944 218.794 84.897" stroke-width="0.3"/>
  <path d="M216.395 85.769C216.989 86.112 217.158 85.671 217.894 85.246C218.296 85.015 219.764 84.474 219.131 83.685C219.072 83.611 219.002 83.557 218.92 83.509C218.606 83.326 218.347 83.105 217.995 83.051" stroke-width="0.3"/>
  <path d="M217.995 83.051C217.912 83.266 217.949 83.527 218.15 83.661C218.242 83.722 218.348 83.707 218.437 83.777" stroke-width="0.3"/>
  <path d="M219.072 84.543C219.373 84.718 219.296 84.939 219.187 85.245C219.062 85.59 218.877 85.899 218.656 86.188" stroke-width="0.3"/>
  <path d="M218.656 86.188C217.921 85.766 217.822 85.941 218.131 85.459L218.28 85.197" stroke-width="0.3"/>
  <path d="M216.388 85.192L217.341 84.641L218.32 84.073C218.4 84.007 218.461 83.893 218.456 83.789" stroke-width="0.3"/>
  <path d="M218.656 86.188C218.506 85.99 218.246 85.743 217.992 85.692L217.956 85.701" stroke-width="0.13"/>
  <path d="M216.032 86.603C216.425 86.736 216.574 86.037 216.828 85.868" stroke-width="0.13"/>
  <path d="M218.96 84.638C219.042 84.597 219.108 84.579 219.193 84.614" stroke-width="0.13"/>
  <path d="M218.656 83.432C218.597 83.581 218.493 83.686 218.334 83.712L218.277 83.709" stroke-width="0.13"/>
  <path d="M217.995 83.051C218.492 83.338 218.55 83.344 218.92 83.509" stroke-width="0.13"/>
  <path d="M216.474 85.783C216.525 85.813 216.556 85.858 216.604 85.891" stroke-width="0.13"/>
 </g>
 <g id="02_0112_0250_0_1">
  <desc>02_0112_0250_0</desc>
  <path d="M166.735 56.579C166.609 56.655 166.491 56.697 166.346 56.719C165.895 56.707 165.58 56.351 165.65 55.89" stroke-width="0.3"/>
  <path d="M166.09 55.112C166.383 54.878 166.777 54.857 167.054 55.125" stroke-width="0.3"/>
  <path d="M166.991 55.6L166.899 55.588C166.622 55.646 166.23 56.2 166.548 56.42" stroke-width="0.3"/>
  <path d="M165.663 55.807C165.724 55.557 165.842 55.35 166.024 55.168" stroke-width="0.3"/>
  <path d="M166.806 56.524C167.022 56.35 167.07 56.067 167.265 55.895C167.348 55.822 169.211 54.762 169.31 54.715" stroke-width="0.3"/>
  <path d="M166.911 55.588C167.504 55.93 167.675 55.49 168.409 55.064C168.812 54.832 170.28 54.292 169.646 53.503C169.587 53.429 169.518 53.374 169.437 53.326C169.122 53.145 168.862 52.923 168.51 52.868" stroke-width="0.3"/>
  <path d="M168.51 52.868C168.427 53.082 168.465 53.344 168.665 53.478C168.758 53.54 168.864 53.526 168.953 53.594" stroke-width="0.3"/>
  <path d="M169.587 54.362C169.889 54.536 169.812 54.756 169.701 55.063C169.578 55.406 169.393 55.716 169.17 56.006" stroke-width="0.3"/>
  <path d="M169.17 56.006C168.437 55.582 168.336 55.759 168.646 55.277L168.795 55.015" stroke-width="0.3"/>
  <path d="M166.903 55.009L167.856 54.46L168.836 53.89C168.914 53.825 168.977 53.71 168.973 53.606" stroke-width="0.3"/>
  <path d="M169.17 56.006C169.021 55.808 168.76 55.561 168.508 55.509L168.473 55.52" stroke-width="0.13"/>
  <path d="M166.548 56.42C166.939 56.554 167.09 55.854 167.343 55.686" stroke-width="0.13"/>
  <path d="M169.475 54.456C169.557 54.415 169.623 54.396 169.71 54.432" stroke-width="0.13"/>
  <path d="M169.17 53.25C169.112 53.399 169.009 53.503 168.848 53.53L168.794 53.527" stroke-width="0.13"/>
  <path d="M168.51 52.868C169.008 53.155 169.066 53.161 169.437 53.326" stroke-width="0.13"/>
  <path d="M166.991 55.6C167.04 55.631 167.07 55.676 167.12 55.709" stroke-width="0.13"/>
 </g>
 <g id="03_0151_0107_0_1">
  <desc>03_0151_0107_0</desc>
  <g id="03_0151_0107_0_5_2">
   <desc>03_0151_0107_0_5</desc>
   <path d="M262.653 129.711C261.706 130.299 261.019 131.382 260.884 132.49C260.795 133.233 261.077 134.191 262 134.075C262.235 134.046 262.447 133.953 262.653 133.842" stroke-width="0.3"/>
   <path d="M262.665 134.034C263.677 133.407 264.41 132.264 264.583 131.085C264.668 130.497 264.608 129.794 264.086 129.421" stroke-width="0.3"/>
   <path d="M262.619 133.818C263.601 133.209 264.326 132.044 264.399 130.883C264.442 130.193 264.17 129.477 263.394 129.45C263.11 129.472 262.869 129.561 262.619 129.693" stroke-width="0.3"/>
   <path d="M261.742 133.382C261.418 133.161 261.338 132.776 261.365 132.403C261.418 131.655 261.85 130.89 262.437 130.431C262.752 130.185 263.245 129.951 263.622 130.207" stroke-width="0.3"/>
   <path d="M261.718 133.367C261.353 133.118 261.298 132.662 261.357 132.25C261.468 131.453 261.961 130.689 262.641 130.263" stroke-width="0.13"/>
  </g>
  <g id="03_0151_0107_0_4_2">
   <desc>03_0151_0107_0_4</desc>
   <line stroke-width="0.13" x1="261.053" x2="261.093" y1="133.688" y2="133.686"/>
   <path d="M263.954 129.526C264.512 129.953 264.509 130.733 264.363 131.36C264.093 132.532 263.129 134.026 261.807 134.123C261.644 134.118 261.507 134.092 261.355 134.028" stroke-width="0.13"/>
   <path d="M264.139 129.45C264.725 129.867 264.75 130.657 264.622 131.304C264.367 132.58 263.333 134.217 261.908 134.34C261.694 134.336 261.519 134.298 261.331 134.197" stroke-width="0.13"/>
   <path d="M263.473 129.377L263.519 129.455" stroke-width="0.13"/>
   <path d="M264.139 129.45C263.951 129.349 263.776 129.311 263.564 129.307C263.339 129.326 263.158 129.39 262.947 129.466" stroke-width="0.3"/>
   <path d="M261.644 128.508C260.312 129.224 259.312 130.836 259.312 132.368C259.312 132.877 259.456 133.519 259.932 133.798L261.17 134.513C261.451 134.675 261.824 134.661 262.129 134.581C262.572 134.466 262.968 134.203 263.305 133.9C263.548 133.683 263.764 133.438 263.954 133.176C264.625 132.258 265.276 130.705 264.689 129.584C264.375 128.983 263.54 128.694 263.043 128.408C262.882 128.317 262.687 128.294 262.507 128.284C262.197 128.296 261.925 128.378 261.644 128.508z" stroke-width="0.3"/>
   <path d="M264.035 129.683C263.918 129.425 263.672 129.383 263.404 129.375C262.915 129.411 262.528 129.664 262.172 129.993C261.47 130.645 260.956 131.572 260.817 132.521C260.73 133.127 260.798 133.818 261.331 134.197" stroke-width="0.3"/>
   <path d="M260.795 133.163C260.858 133.508 261.076 134.063 261.505 134.021" stroke-width="0.3"/>
   <path d="M260.906 133.539L261.004 133.526" stroke-width="0.3"/>
  </g>
  <g id="03_0151_0107_0_3_2">
   <desc>03_0151_0107_0_3</desc>
   <path d="M262.863 129.573L262.803 129.536" stroke-width="0.3"/>
   <path d="M263.569 130.171C264.038 130.463 264.101 130.968 263.995 131.485C263.819 132.344 263.134 133.414 262.182 133.508C262.019 133.503 261.894 133.468 261.754 133.388" stroke-width="0.3"/>
   <path d="M261.666 132.199L261.696 132.044" stroke-width="0.3"/>
   <path d="M261.629 133.513C262.002 133.676 262.372 133.555 262.701 133.348" stroke-width="0.3"/>
   <path d="M261.689 132.074L261.732 131.911" stroke-width="0.3"/>
   <path d="M262.213 131.016C262.418 130.787 262.637 130.602 262.925 130.485" stroke-width="0.3"/>
   <path d="M263.603 129.997C263.958 130.221 264.067 130.633 264.038 131.033" stroke-width="0.3"/>
   <path d="M262.908 130.491C263.088 130.437 263.235 130.425 263.408 130.5" stroke-width="0.3"/>
   <path d="M262.545 130.721C262.463 131.177 262.264 131.61 261.951 131.957" stroke-width="0.3"/>
   <path d="M261.776 132.925C261.833 132.995 261.884 133.042 261.961 133.09" stroke-width="0.3"/>
   <path d="M261.745 132.872C261.687 132.74 261.661 132.618 261.649 132.477" stroke-width="0.3"/>
   <path d="M261.754 131.842C261.898 131.399 262.173 131.01 262.526 130.711" stroke-width="0.3"/>
   <path d="M261.67 132.176C261.646 132.378 261.646 132.562 261.696 132.759" stroke-width="0.3"/>
   <path d="M261.713 131.978C261.73 131.909 261.754 131.842 261.776 131.776" stroke-width="0.3"/>
   <path d="M261.855 132.058C261.906 132.009 261.951 131.956 261.999 131.903" stroke-width="0.3"/>
   <path d="M263.603 129.997C263.47 129.938 263.353 129.917 263.206 129.917C262.194 130.03 261.464 131.146 261.254 132.06C261.137 132.566 261.142 133.206 261.629 133.513" stroke-width="0.13"/>
   <path d="M261.812 133.421C261.487 133.199 261.408 132.817 261.435 132.443C261.49 131.694 261.92 130.931 262.509 130.471C262.836 130.215 263.259 130.032 263.658 130.225" stroke-width="0.13"/>
  </g>
  <g id="03_0151_0107_0_2_2">
   <desc>03_0151_0107_0_2</desc>
   <path d="M263.261 129.461L263.228 129.393" stroke-width="0.3"/>
  </g>
 </g>
 <g id="54308_1_1_1">
  <desc>54308_1</desc>
  <line stroke-width="0.13" x1="199.953" x2="199.985" y1="95.847" y2="95.775"/>
  <line stroke-width="0.13" x1="199.86" x2="199.879" y1="96.144" y2="96.07"/>
  <line stroke-width="0.13" x1="199.836" x2="199.848" y1="96.287" y2="96.215"/>
  <line stroke-width="0.13" x1="199.832" x2="199.829" y1="96.356" y2="96.427"/>
  <line stroke-width="0.13" x1="199.925" x2="199.899" y1="95.923" y2="95.996"/>
  <line stroke-width="0.13" x1="200.058" x2="200.02" y1="95.631" y2="95.701"/>
  <path d="M199.716 95.394C199.625 95.566 199.551 95.733 199.489 95.918" stroke-width="0.13"/>
  <path d="M198.213 95.412C197.847 95.65 198.324 96.343 198.674 96.257" stroke-width="0.13"/>
  <path d="M201.199 94.537L199.52 93.569L150.465 65.246L148.787 64.278C148.698 64.227 148.669 64.23 148.569 64.21C147.727 64.218 147.014 65.123 146.997 65.924C146.991 66.182 146.981 66.469 147.138 66.691C147.182 66.754 147.236 66.805 147.305 66.846L148.983 67.813L198.038 96.137L199.716 97.105L199.818 97.15C200.139 97.248 200.463 97.039 200.721 96.878C201.282 96.524 201.52 95.849 201.506 95.215C201.498 94.938 201.426 94.706 201.199 94.537z" stroke-width="0.3"/>
  <path d="M147.794 66.302C148.104 66.188 148.278 66.543 148.322 66.798C148.341 66.909 148.36 67.072 148.253 67.147" stroke-width="0.3"/>
  <path d="M198.213 95.412C198.525 95.299 198.699 95.653 198.741 95.908C198.76 96.019 198.78 96.183 198.674 96.257" stroke-width="0.3"/>
  <path d="M148.253 67.147L148.217 67.156C147.887 67.134 147.413 66.548 147.794 66.302" stroke-width="0.13"/>
 </g>
 <g id="54310_1_1_1">
  <desc>54310_1</desc>
  <line stroke-width="0.13" x1="252.741" x2="253.006" y1="123.075" y2="122.938"/>
  <line stroke-width="0.13" x1="252.71" x2="252.974" y1="123.022" y2="122.884"/>
  <line stroke-width="0.13" x1="251.437" x2="251.212" y1="124.135" y2="124.427"/>
  <path d="M252.581 123.626C252.792 123.986 252.766 124.45 252.679 124.843C252.457 125.837 251.657 127.061 250.549 127.15" stroke-width="0.13"/>
  <path d="M252.425 124.403C252.376 124.915 252.204 125.358 251.939 125.796" stroke-width="0.13"/>
  <path d="M250.866 125.087L251.262 124.466" stroke-width="0.13"/>
  <path d="M206.129 102.329C206.128 100.605 207.024 98.819 208.45 97.825C209.013 97.436 209.775 97.102 210.454 97.384L210.646 97.483L212.324 98.453L252.931 121.897C253.646 122.311 254.813 122.68 255.168 123.578C255.388 124.137 255.362 124.79 255.247 125.37C255.179 125.716 255.072 126.055 254.937 126.382C254.36 127.778 253.093 129.408 251.437 129.427C250.602 129.308 249.78 128.633 249.133 128.259L208.526 104.816C207.627 104.296 206.491 103.978 206.21 102.888C206.15 102.655 206.151 102.572 206.129 102.329z" stroke-width="0.3"/>
  <path d="M251.106 128.711C250.617 128.298 250.498 127.688 250.551 127.069C250.656 125.849 251.342 124.62 252.281 123.846C252.872 123.358 253.657 123.006 254.376 123.418" stroke-width="0.3"/>
  <path d="M210.591 97.503C210.337 97.371 210.468 97.426 210.195 97.34" stroke-width="0.13"/>
  <path d="M254.376 123.418C255.022 123.965 255.021 124.867 254.836 125.635C254.497 127.048 253.39 128.697 251.846 128.905C251.561 128.901 251.354 128.854 251.106 128.711" stroke-width="0.13"/>
 </g>
 <g>
  <line stroke="#FFFFFF" stroke-width="1" x1="202.094" x2="206.4" y1="96.787" y2="99.272"/>
  <line stroke-dasharray="5 1 1 1" stroke-width="0.13" x1="201.604" x2="206.024" y1="96.504" y2="99.055"/>
  <line stroke-width="0.13" x1="206.024" x2="206.889" y1="99.055" y2="99.555"/>
 </g>
 <g>
  <line stroke="#FFFFFF" stroke-width="1" x1="201.98" x2="214.413" y1="93.751" y2="86.715"/>
  <line stroke-dasharray="10 2 5 3" stroke-width="0.13" x1="201.489" x2="214.034" y1="94.031" y2="86.929"/>
  <line stroke-width="0.13" x1="214.034" x2="214.905" y1="86.929" y2="86.436"/>
 </g>
 <g>
  <line stroke="#FFFFFF" stroke-width="1" x1="151.382" x2="164.685" y1="64.659" y2="56.979"/>
  <line stroke-dasharray="10 2 5 3" stroke-width="0.13" x1="150.891" x2="164.307" y1="64.942" y2="57.197"/>
  <line stroke-width="0.13" x1="164.307" x2="165.174" y1="57.197" y2="56.697"/>
 </g>
 <g class="callout callout_3">
  <g>
   <line stroke="#FFFFFF" stroke-width="1" x1="175.515" x2="190.235" y1="79.393" y2="70.894"/>
   <line stroke-width="0.13" x1="175.515" x2="190.235" y1="79.393" y2="70.894"/>
  </g>
  <path d="M187.242 74.442L193.227 74.442 193.227 67.346 187.242 67.346 187.242 74.442z" fill="#FFFFFF" stroke="none"/>
  <text fill="#000000" font-family="'Arial'" font-size="4.232" stroke="none" x="189.057" y="72.442"><desc>3</desc>3</text>
 </g>
 <g class="callout callout_4">
  <g>
   <line stroke="#FFFFFF" stroke-width="1" x1="232.455" x2="245.429" y1="110.183" y2="102.692"/>
   <line stroke-width="0.13" x1="232.455" x2="245.429" y1="110.183" y2="102.692"/>
  </g>
  <path d="M242.381 106.207L248.477 106.207 248.477 99.177 242.381 99.177 242.381 106.207z" fill="#FFFFFF" stroke="none"/>
  <text fill="#000000" font-family="'Arial'" font-size="4.232" stroke="none" x="244.252" y="104.207"><desc>4</desc>4</text>
 </g>
 <g class="callout callout_5">
  <g>
   <line stroke="#FFFFFF" stroke-width="1" x1="263.543" x2="276.06" y1="128.734" y2="121.507"/>
   <line stroke-width="0.13" x1="263.543" x2="276.06" y1="128.734" y2="121.507"/>
  </g>
  <path d="M273.055 125.028L279.064 125.028 279.064 117.986 273.055 117.986 273.055 125.028z" fill="#FFFFFF" stroke="none"/>
  <text fill="#000000" font-family="'Arial'" font-size="4.232" stroke="none" x="274.882" y="123.028"><desc>5</desc>5</text>
 </g>
 <g class="callout callout_2">
  <g>
   <line stroke="#FFFFFF" stroke-width="1" x1="169.568" x2="180.012" y1="55.304" y2="61.335"/>
   <line stroke-width="0.13" x1="169.568" x2="180.012" y1="55.304" y2="61.335"/>
  </g>
  <path d="M177.008 64.855L183.014 64.855 183.014 57.813 177.008 57.813 177.008 64.855z" fill="#FFFFFF" stroke="none"/>
  <text fill="#000000" font-family="'Arial'" font-size="4.232" stroke="none" x="178.835" y="62.856"><desc>2</desc>2</text>
 </g>
 <g class="callout callout_2">
  <g>
   <line stroke="#FFFFFF" stroke-width="1" x1="219.028" x2="229.301" y1="85.442" y2="91.373"/>
   <line stroke-width="0.13" x1="219.028" x2="229.301" y1="85.442" y2="91.373"/>
  </g>
  <path d="M226.298 94.894L232.305 94.894 232.305 87.852 226.298 87.852 226.298 94.894z" fill="#FFFFFF" stroke="none"/>
  <text fill="#000000" font-family="'Arial'" font-size="4.232" stroke="none" x="228.123" y="92.894"><desc>2</desc>2</text>
 </g>
 <g>
  <line stroke="#FFFFFF" stroke-width="1" x1="253.457" x2="259.461" y1="126.43" y2="129.895"/>
  <line stroke-dasharray="5 1 1 1" stroke-width="0.13" x1="252.968" x2="259.084" y1="126.147" y2="129.679"/>
  <line stroke-width="0.13" x1="259.084" x2="259.951" y1="129.679" y2="130.179"/>
 </g>
 <g>
  <line stroke="#FFFFFF" stroke-width="1" x1="263.415" x2="270.148" y1="132.191" y2="136.078"/>
  <line stroke-dasharray="5 1 1 1" stroke-width="0.13" x1="262.925" x2="269.771" y1="131.907" y2="135.86"/>
  <line stroke-width="0.13" x1="269.771" x2="270.637" y1="135.86" y2="136.36"/>
 </g>
 <g>
  <line stroke="#FFFFFF" stroke-width="1" x1="139.445" x2="146.36" y1="60.634" y2="64.626"/>
  <line stroke-dasharray="5 1 1 1" stroke-width="0.13" x1="138.956" x2="145.983" y1="60.351" y2="64.409"/>
  <line stroke-width="0.13" x1="145.983" x2="146.848" y1="64.409" y2="64.909"/>
 </g>
 <g class="callout callout_1">
  <g>
   <line stroke="#FFFFFF" stroke-width="1" x1="118.331" x2="133.022" y1="39.798" y2="31.317"/>
   <line stroke-width="0.13" x1="118.331" x2="133.022" y1="39.798" y2="31.317"/>
  </g>
  <path d="M130.465 34.838L135.58 34.838 135.58 27.795 130.465 27.795 130.465 34.838z" fill="#FFFFFF" stroke="none"/>
  <text fill="#000000" font-family="'Arial'" font-size="4.232" stroke="none" x="131.846" y="32.838"><desc>1</desc>1</text>
 </g>
 <g id="28653_1_1_1_1_1">
  <desc>28653_1</desc>
  <line stroke-width="0.13" x1="56.74" x2="56.781" y1="13.446" y2="13.353"/>
  <line stroke-width="0.13" x1="56.521" x2="56.497" y1="14.105" y2="14.198"/>
  <line stroke-width="0.13" x1="56.573" x2="56.545" y1="13.916" y2="14.01"/>
  <line stroke-width="0.13" x1="56.633" x2="56.6" y1="13.728" y2="13.823"/>
  <line stroke-width="0.13" x1="56.703" x2="56.665" y1="13.541" y2="13.634"/>
  <line stroke-width="0.13" x1="56.414" x2="56.417" y1="14.913" y2="14.827"/>
  <line stroke-width="0.13" x1="56.462" x2="56.479" y1="14.382" y2="14.291"/>
  <line stroke-width="0.13" x1="56.914" x2="56.965" y1="13.076" y2="12.987"/>
  <line stroke-width="0.13" x1="56.823" x2="56.869" y1="13.26" y2="13.169"/>
  <line stroke-width="0.13" x1="56.435" x2="56.448" y1="14.564" y2="14.474"/>
  <line stroke-width="0.13" x1="56.427" x2="56.42" y1="14.653" y2="14.74"/>
  <line stroke-width="0.13" x1="59.564" x2="59.624" y1="11.108" y2="11.122"/>
  <line stroke-width="0.13" x1="59.034" x2="59.104" y1="11.135" y2="11.121"/>
  <line stroke-width="0.13" x1="58.893" x2="58.965" y1="11.176" y2="11.156"/>
  <line stroke-width="0.13" x1="58.604" x2="58.676" y1="11.294" y2="11.262"/>
  <line stroke-width="0.13" x1="58.459" x2="58.531" y1="11.372" y2="11.333"/>
  <line stroke-width="0.13" x1="59.798" x2="59.85" y1="11.176" y2="11.202"/>
  <line stroke-width="0.13" x1="58.75" x2="58.822" y1="11.228" y2="11.201"/>
  <line stroke-width="0.13" x1="59.24" x2="59.173" y1="11.102" y2="11.108"/>
  <line stroke-width="0.13" x1="59.374" x2="59.308" y1="11.096" y2="11.096"/>
  <line stroke-width="0.13" x1="59.502" x2="59.439" y1="11.102" y2="11.096"/>
  <line stroke-width="0.13" x1="59.74" x2="59.683" y1="11.156" y2="11.135"/>
  <path d="M57.567 10.676C57.883 10.506 58.216 10.368 58.581 10.377C59.5 10.396 60.368 11.138 60.482 12.037C60.659 13.423 59.951 14.91 58.893 15.788C58.441 16.163 57.886 16.466 57.289 16.484C57.121 16.472 56.948 16.451 56.798 16.367L55.959 15.881C55.387 15.541 55.337 14.721 55.371 14.135C55.451 12.804 56.283 11.464 57.411 10.766" stroke-width="0.3"/>
  <path d="M57.682 15.164C57.32 14.957 57.268 14.525 57.326 14.143C57.415 13.532 57.765 12.926 58.25 12.544C58.53 12.321 58.884 12.166 59.235 12.301" stroke-width="0.3"/>
  <path d="M58.558 12.349C58.594 13.207 58.07 14.112 57.31 14.512" stroke-width="0.3"/>
  <path d="M57.567 10.676C56.936 11.066 56.46 11.603 56.066 12.227" stroke-width="0.13"/>
  <path d="M56.1 14.913C56.121 14.17 56.348 13.489 56.692 12.836" stroke-width="0.13"/>
  <path d="M59.235 12.301C59.64 12.534 59.656 13.044 59.567 13.457C59.405 14.211 58.79 15.166 57.944 15.221C57.847 15.214 57.771 15.199 57.682 15.164" stroke-width="0.13"/>
  <path d="M58.313 16.17C58.082 16.275 57.862 16.344 57.609 16.37C57.39 16.37 57.21 16.333 57.014 16.236" stroke-width="0.13"/>
  <path d="M59.804 10.916C59.64 10.846 59.491 10.813 59.314 10.801C58.944 10.811 58.625 10.926 58.301 11.099" stroke-width="0.13"/>
 </g>
 <g class="callout callout_6">
  <g>
   <line stroke="#FFFFFF" stroke-width="1" x1="59.707" x2="72.117" y1="10.711" y2="3.547"/>
   <line stroke-width="0.13" x1="59.707" x2="72.117" y1="10.711" y2="3.547"/>
  </g>
  <path d="M69.115 7.094L75.117 7.094 75.117 0 69.115 0 69.115 7.094z" fill="#FFFFFF" stroke="none"/>
  <text fill="#000000" font-family="'Arial'" font-size="4.232" stroke="none" x="70.938" y="5.094"><desc>6</desc>6</text>
 </g>
 <g id="03_0151_0107_0_1_1_1">
  <desc>03_0151_0107_0</desc>
  <g id="03_0151_0107_0_5_2_1_1">
   <desc>03_0151_0107_0_5</desc>
   <path d="M69.04 18.094C68.093 18.682 67.406 19.765 67.272 20.873C67.182 21.617 67.465 22.574 68.387 22.46C68.623 22.431 68.834 22.336 69.04 22.225" stroke-width="0.3"/>
   <path d="M69.052 22.419C70.064 21.791 70.796 20.647 70.969 19.469C71.055 18.881 70.995 18.178 70.472 17.806" stroke-width="0.3"/>
   <path d="M69.006 22.202C69.987 21.593 70.713 20.428 70.787 19.266C70.829 18.577 70.557 17.861 69.781 17.835C69.496 17.856 69.256 17.945 69.006 18.077" stroke-width="0.3"/>
   <path d="M68.129 21.765C67.805 21.545 67.724 21.161 67.751 20.788C67.805 20.039 68.236 19.274 68.825 18.815C69.138 18.568 69.632 18.335 70.009 18.591" stroke-width="0.3"/>
   <path d="M68.105 21.751C67.739 21.503 67.686 21.045 67.743 20.634C67.855 19.836 68.349 19.074 69.028 18.646" stroke-width="0.13"/>
  </g>
  <g id="03_0151_0107_0_4_2_1_1">
   <desc>03_0151_0107_0_4</desc>
   <line stroke-width="0.13" x1="67.441" x2="67.48" y1="22.073" y2="22.07"/>
   <path d="M70.341 17.91C70.9 18.336 70.896 19.117 70.751 19.745C70.48 20.917 69.516 22.411 68.194 22.507C68.031 22.503 67.894 22.475 67.742 22.413" stroke-width="0.13"/>
   <path d="M70.525 17.835C71.111 18.251 71.138 19.041 71.009 19.687C70.754 20.964 69.719 22.6 68.293 22.724C68.081 22.721 67.906 22.681 67.718 22.58" stroke-width="0.13"/>
   <path d="M69.861 17.76L69.906 17.839" stroke-width="0.13"/>
   <path d="M70.525 17.835C70.337 17.734 70.164 17.695 69.95 17.692C69.727 17.71 69.545 17.774 69.334 17.85" stroke-width="0.3"/>
   <path d="M68.031 16.891C66.698 17.609 65.7 19.221 65.7 20.753C65.7 21.26 65.843 21.902 66.319 22.181L67.557 22.896C67.838 23.059 68.21 23.045 68.516 22.966C68.959 22.85 69.355 22.586 69.692 22.283C69.935 22.068 70.15 21.823 70.341 21.561C71.012 20.641 71.662 19.089 71.075 17.968C70.762 17.367 69.927 17.079 69.43 16.792C69.269 16.701 69.075 16.678 68.894 16.669C68.584 16.681 68.313 16.763 68.031 16.891z" stroke-width="0.3"/>
   <path d="M70.421 18.068C70.305 17.809 70.058 17.768 69.792 17.759C69.302 17.795 68.914 18.048 68.558 18.378C67.855 19.028 67.343 19.955 67.204 20.905C67.117 21.51 67.186 22.202 67.718 22.58" stroke-width="0.3"/>
   <path d="M67.183 21.548C67.245 21.893 67.462 22.448 67.893 22.405" stroke-width="0.3"/>
   <path d="M67.293 21.923L67.391 21.91" stroke-width="0.3"/>
  </g>
  <g id="03_0151_0107_0_3_2_1_1">
   <desc>03_0151_0107_0_3</desc>
   <path d="M69.251 17.957L69.191 17.92" stroke-width="0.3"/>
   <path d="M69.956 18.556C70.424 18.847 70.489 19.353 70.382 19.87C70.206 20.728 69.521 21.798 68.569 21.891C68.406 21.888 68.281 21.853 68.141 21.771" stroke-width="0.3"/>
   <path d="M68.054 20.583L68.082 20.428" stroke-width="0.3"/>
   <path d="M68.016 21.896C68.388 22.06 68.759 21.939 69.088 21.733" stroke-width="0.3"/>
   <path d="M68.076 20.458L68.118 20.295" stroke-width="0.3"/>
   <path d="M68.6 19.4C68.805 19.17 69.022 18.986 69.311 18.868" stroke-width="0.3"/>
   <path d="M69.99 18.382C70.344 18.605 70.453 19.016 70.426 19.417" stroke-width="0.3"/>
   <path d="M69.295 18.876C69.474 18.821 69.621 18.809 69.796 18.884" stroke-width="0.3"/>
   <path d="M68.933 19.105C68.849 19.562 68.65 19.995 68.338 20.341" stroke-width="0.3"/>
   <path d="M68.162 21.309C68.219 21.379 68.272 21.425 68.347 21.474" stroke-width="0.3"/>
   <path d="M68.131 21.256C68.073 21.123 68.048 21.003 68.037 20.861" stroke-width="0.3"/>
   <path d="M68.141 20.227C68.284 19.783 68.56 19.394 68.914 19.094" stroke-width="0.3"/>
   <path d="M68.058 20.561C68.034 20.763 68.034 20.946 68.082 21.143" stroke-width="0.3"/>
   <path d="M68.1 20.361C68.117 20.294 68.141 20.227 68.162 20.16" stroke-width="0.3"/>
   <path d="M68.242 20.443C68.293 20.393 68.338 20.341 68.385 20.288" stroke-width="0.3"/>
   <path d="M69.99 18.382C69.856 18.323 69.739 18.3 69.593 18.3C68.581 18.414 67.85 19.53 67.641 20.443C67.525 20.949 67.53 21.591 68.016 21.896" stroke-width="0.13"/>
   <path d="M68.198 21.806C67.875 21.583 67.795 21.201 67.822 20.826C67.876 20.079 68.307 19.315 68.896 18.855C69.224 18.599 69.647 18.417 70.046 18.609" stroke-width="0.13"/>
  </g>
  <g id="03_0151_0107_0_2_2_1_1">
   <desc>03_0151_0107_0_2</desc>
   <path d="M69.647 17.846L69.615 17.777" stroke-width="0.3"/>
  </g>
 </g>
 <g class="callout callout_5">
  <g>
   <line stroke="#FFFFFF" stroke-width="1" x1="69.93" x2="82.447" y1="17.117" y2="9.891"/>
   <line stroke-width="0.13" x1="69.93" x2="82.447" y1="17.117" y2="9.891"/>
  </g>
  <path d="M79.441 13.412L85.45 13.412 85.45 6.371 79.441 6.371 79.441 13.412z" fill="#FFFFFF" stroke="none"/>
  <text fill="#000000" font-family="'Arial'" font-size="4.232" stroke="none" x="81.269" y="11.412"><desc>5</desc>5</text>
 </g>
 <g>
  <line stroke="#FFFFFF" stroke-width="1" x1="58.639" x2="65.388" y1="13.981" y2="17.879"/>
  <line stroke-dasharray="5 1 1 1" stroke-width="0.13" x1="58.149" x2="65.012" y1="13.699" y2="17.661"/>
  <line stroke-width="0.13" x1="65.012" x2="65.878" y1="17.661" y2="18.161"/>
 </g>
 <g>
  <line stroke="#FFFFFF" stroke-width="1" x1="69.859" x2="85.496" y1="20.46" y2="29.489"/>
  <line stroke-dasharray="5 1 1 1" stroke-width="0.13" x1="69.37" x2="85.12" y1="20.178" y2="29.271"/>
  <line stroke-width="0.13" x1="85.12" x2="85.986" y1="29.271" y2="29.771"/>
 </g>
 <g>
  <line stroke="#FFFFFF" stroke-width="1" x1="90.45" x2="134.158" y1="32.348" y2="57.584"/>
  <line stroke-dasharray="5 1 1 1" stroke-width="0.13" x1="89.962" x2="133.782" y1="32.066" y2="57.366"/>
  <line stroke-width="0.13" x1="133.782" x2="134.649" y1="57.366" y2="57.866"/>
 </g>
 <path class="hotspot hotspot_1" d="M130.465 34.838L 135.58 34.838L 135.58 27.795L 130.465 27.795L 130.465 34.838z" fill="black" id="AUTOID_10844" stroke="black" visibility="hidden"/>
 <path class="hotspot hotspot_7" d="M222.399 165.168L 228.36 165.168L 228.36 158.176L 222.399 158.176L 222.399 165.168zM15.641 44.856L 21.603 44.856L 21.603 37.865L 15.641 37.865L 15.641 44.856z" fill="black" id="AUTOID_10845" stroke="black" visibility="hidden"/>
 <path class="hotspot hotspot_5" d="M210.133 157.719L 216.143 157.719L 216.143 150.679L 210.133 150.679L 210.133 157.719zM26.243 51.015L 32.253 51.015L 32.253 43.975L 26.243 43.975L 26.243 51.015zM273.055 125.028L 279.064 125.028L 279.064 117.986L 273.055 117.986L 273.055 125.028zM79.441 13.412L 85.45 13.412L 85.45 6.371L 79.441 6.371L 79.441 13.412z" fill="black" id="AUTOID_10846" stroke="black" visibility="hidden"/>
 <path class="hotspot hotspot_8" d="M80.257 136.294L 86.254 136.294L 86.254 129.199L 80.257 129.199L 80.257 136.294z" fill="black" id="AUTOID_10847" stroke="black" visibility="hidden"/>
 <path class="hotspot hotspot_2" d="M114.102 97.539L 120.109 97.539L 120.109 90.495L 114.102 90.495L 114.102 97.539zM163.186 127.457L 169.193 127.457L 169.193 120.415L 163.186 120.415L 163.186 127.457zM177.008 64.855L 183.014 64.855L 183.014 57.813L 177.008 57.813L 177.008 64.855zM226.298 94.894L 232.305 94.894L 232.305 87.852L 226.298 87.852L 226.298 94.894z" fill="black" id="AUTOID_10848" stroke="black" visibility="hidden"/>
 <path class="hotspot hotspot_3" d="M124.063 107.284L 130.048 107.284L 130.048 100.186L 124.063 100.186L 124.063 107.284zM187.242 74.442L 193.227 74.442L 193.227 67.346L 187.242 67.346L 187.242 74.442z" fill="black" id="AUTOID_10849" stroke="black" visibility="hidden"/>
 <path class="hotspot hotspot_6" d="M283.995 131.323L 289.997 131.323L 289.997 124.228L 283.995 124.228L 283.995 131.323zM69.115 7.094L 75.117 7.094L 75.117 0L 69.115 0L 69.115 7.094z" fill="black" id="AUTOID_10850" stroke="black" visibility="hidden"/>
 <path class="hotspot hotspot_4" d="M179.195 139.051L 185.292 139.051L 185.292 132.021L 179.195 132.021L 179.195 139.051zM242.381 106.207L 248.477 106.207L 248.477 99.177L 242.381 99.177L 242.381 106.207z" fill="black" id="AUTOID_10851" stroke="black" visibility="hidden"/>
</svg>