<?xml version="1.0" encoding="UTF-8" standalone="no"?><!-- Generator: PTC Arbortext IsoDraw 7.3 M090 --><svg xmlns="http://www.w3.org/2000/svg" xmlns:xlink="http://www.w3.org/1999/xlink" clip-rule="evenodd" fill="none" fill-rule="evenodd" font-family="sans-serif" font-size="10" font-stretch="normal" font-style="normal" font-variant="normal" font-weight="normal" height="180.93" id="Standard_x0020_layer" onabort="parent.dwImageSVGOnAbort('WQW143328980');" onerror="parent.dwImageSVGOnError('WQW143328980');" onload="parent.dwImageSVGOnLoad('WQW143328980');" stroke="#000000" stroke-linecap="round" viewBox="0.0 0.0 242.106 180.93" width="242.106" x="0" xml:space="preserve" y="0">
 <g id="01_0023_0053_0_4">
  <desc>01_0023_0053_0</desc>
  <g id="01_0023_0053_0_2_2">
   <desc>01_0023_0053_0_2</desc>
   <line stroke="#808080" stroke-width="0.1" x1="154.262" x2="154.263" y1="2.798" y2="2.805"/>
   <line stroke="#808080" stroke-width="0.1" x1="154.262" x2="154.314" y1="2.797" y2="3.02"/>
   <line stroke="#808080" stroke-width="0.1" x1="151.788" x2="151.11" y1="4.429" y2="4.448"/>
   <line stroke="#808080" stroke-width="0.1" x1="151.122" x2="150.467" y1="4.4" y2="4.323"/>
   <line stroke="#808080" stroke-width="0.1" x1="150.798" x2="150.467" y1="4.351" y2="4.323"/>
   <line stroke="#808080" stroke-width="0.1" x1="151.454" x2="151.11" y1="4.426" y2="4.448"/>
   <line stroke="#808080" stroke-width="0.1" x1="149.146" x2="148.966" y1="3.398" y2="3.041"/>
   <line stroke="#808080" stroke-width="0.1" x1="149.146" x2="149.012" y1="3.398" y2="3.237"/>
   <line stroke="#808080" stroke-width="0.1" x1="149.274" x2="149.012" y1="3.577" y2="3.237"/>
   <line stroke="#808080" stroke-width="0.1" x1="149.06" x2="148.963" y1="3.21" y2="2.847"/>
   <line stroke="#808080" stroke-width="0.1" x1="149.06" x2="148.966" y1="3.21" y2="3.041"/>
   <line stroke="#808080" stroke-width="0.1" x1="153.139" x2="153.614" y1="4.214" y2="3.915"/>
   <line stroke="#808080" stroke-width="0.1" x1="153.858" x2="153.989" y1="3.799" y2="3.594"/>
   <line stroke="#808080" stroke-width="0.1" x1="153.858" x2="154.12" y1="3.799" y2="3.416"/>
   <line stroke="#808080" stroke-width="0.1" x1="153.818" x2="153.65" y1="3.762" y2="3.955"/>
   <line stroke="#808080" stroke-width="0.1" x1="153.65" x2="153.989" y1="3.955" y2="3.594"/>
   <line stroke="#808080" stroke-width="0.1" x1="153.818" x2="153.408" y1="3.762" y2="4.094"/>
   <line stroke="#808080" stroke-width="0.1" x1="153.139" x2="153.377" y1="4.214" y2="4.051"/>
   <line stroke="#808080" stroke-width="0.1" x1="153.614" x2="153.408" y1="3.915" y2="4.094"/>
   <line stroke-width="0.13" x1="150.195" x2="149.927" y1="6.11" y2="5.993"/>
   <line stroke-width="0.13" x1="152.612" x2="152.775" y1="1.439" y2="1.552"/>
   <line stroke-width="0.13" x1="152.929" x2="152.752" y1="1.32" y2="1.199"/>
   <path d="M154.564 2.781C154.389 2.833 154.298 3.04 154.224 3.19L154.12 3.416C154.013 3.658 153.93 3.907 153.859 4.163L153.781 4.469L153.781 5.014L153.781 5.209L153.781 5.754" stroke="#808080" stroke-width="0.1"/>
   <path d="M153.859 5.724C153.724 5.777 153.612 5.868 153.485 5.936" stroke="#808080" stroke-width="0.1"/>
   <path d="M153.467 5.947L153.354 6.008L153.173 6.086" stroke="#808080" stroke-width="0.1"/>
   <path d="M151.448 4.476L152.122 4.405C152.451 4.362 152.764 4.296 153.098 4.317C153.34 4.333 153.554 4.392 153.781 4.469" stroke="#808080" stroke-width="0.1"/>
   <path d="M152.848 4.315C153.18 4.15 153.534 4.006 153.818 3.762C153.984 3.621 153.995 3.585 154.12 3.416" stroke="#808080" stroke-width="0.1"/>
   <path d="M148.713 3.686C148.918 3.672 148.95 3.655 149.157 3.702C149.388 3.756 149.579 3.874 149.783 3.983C149.993 4.094 150.099 4.147 150.328 4.224C151.247 4.53 152.344 4.508 153.235 4.113C153.611 3.947 153.993 3.689 154.173 3.303C154.251 3.133 154.241 3.093 154.262 2.911" stroke="#808080" stroke-width="0.1"/>
   <path d="M149.015 2.911C149.037 3.092 149.026 3.134 149.104 3.303C149.353 3.836 149.941 4.012 150.355 4.376C150.481 4.487 150.6 4.61 150.709 4.738L150.854 4.923L150.854 5.466L150.854 5.663L150.854 6.208" stroke="#808080" stroke-width="0.1"/>
   <path d="M150.355 6.176C150.468 6.198 150.592 6.229 150.709 6.222L150.854 6.208L151.147 6.301L151.461 6.352" stroke="#808080" stroke-width="0.1"/>
   <path d="M152.122 4.405C151.823 4.469 151.747 4.472 151.461 4.589C151.174 4.706 151.116 4.759 150.854 4.923" stroke="#808080" stroke-width="0.1"/>
   <path d="M150.782 4.399C151.231 4.402 151.67 4.437 152.122 4.405" stroke="#808080" stroke-width="0.1"/>
   <path d="M151.122 4.4C150.802 4.352 150.487 4.291 150.171 4.229" stroke="#808080" stroke-width="0.1"/>
   <path d="M149.64 3.899C149.372 3.694 149.509 3.791 149.229 3.609" stroke="#808080" stroke-width="0.1"/>
   <path d="M149.438 3.745C149.219 3.523 149.332 3.628 149.099 3.427" stroke="#808080" stroke-width="0.1"/>
   <path d="M153.467 5.947C153.627 5.859 153.822 5.79 153.943 5.644C154.068 5.493 154.146 5.294 154.224 5.118C154.33 4.881 154.411 4.637 154.48 4.389C154.507 4.293 154.557 4.152 154.564 4.065L154.564 3.52L154.564 3.326L154.564 2.781C154.545 2.713 154.346 2.514 154.26 2.427" stroke-width="0.25"/>
   <path d="M149.015 2.911L149.016 2.455C149.018 2.041 148.979 1.669 149.231 1.318C149.439 1.03 149.754 0.825 150.076 0.684C150.697 0.412 151.405 0.334 152.074 0.401C152.268 0.42 152.562 0.465 152.748 0.525C153.218 0.677 153.757 0.886 154.045 1.318C154.162 1.492 154.252 1.684 154.26 1.897L154.26 2.405L154.262 2.911" stroke-width="0.25"/>
   <path d="M153.179 6.083C152.746 6.277 152.254 6.32 151.788 6.363C151.24 6.363 150.663 6.323 150.15 6.105C149.794 5.952 149.441 5.729 149.157 5.466C149.104 5.416 148.733 5.043 148.713 4.971L148.713 4.426L148.713 4.23L148.713 3.686L148.766 3.472L148.793 3.379C148.854 3.154 148.925 2.934 149.016 2.718" stroke-width="0.25"/>
   <path d="M153.662 5.846C153.483 5.96 153.292 6.035 153.098 6.118" stroke-width="0.25"/>
   <path d="M154.224 3.19C154.278 2.936 154.265 3.064 154.263 2.805" stroke-width="0.13"/>
   <path d="M149.018 2C149.05 2.189 149.044 2.234 149.139 2.407C149.307 2.714 149.608 2.935 149.914 3.089C150.418 3.343 150.991 3.451 151.55 3.462C151.786 3.467 152.026 3.452 152.259 3.419C152.485 3.387 152.709 3.338 152.925 3.267C153.419 3.108 153.973 2.812 154.187 2.306C154.263 2.129 154.248 2.084 154.26 1.897" stroke-width="0.13"/>
   <path d="M154.125 1.738C154.125 1.925 154.14 1.968 154.074 2.146C153.955 2.46 153.683 2.694 153.401 2.859C152.912 3.141 152.367 3.23 151.814 3.275C151.347 3.275 150.894 3.246 150.444 3.104L150.145 2.992C149.653 2.781 149.078 2.346 149.153 1.738L149.204 1.535L149.304 1.338C149.394 1.199 149.514 1.08 149.644 0.979C149.971 0.728 150.371 0.579 150.77 0.493C151.445 0.348 152.174 0.371 152.834 0.579C153.264 0.715 153.721 0.947 153.973 1.338C154.082 1.508 154.076 1.548 154.125 1.738z" stroke-width="0.13"/>
   <path d="M153.586 0.892C153.759 1.024 153.836 1.064 153.973 1.231C154.067 1.346 154.144 1.476 154.186 1.619C154.323 2.077 154.054 2.504 153.698 2.774C153.085 3.241 152.298 3.349 151.55 3.363C151.245 3.346 151.158 3.35 150.856 3.294L150.528 3.22L150.222 3.121C149.657 2.907 148.943 2.422 149.068 1.72C149.093 1.577 149.152 1.445 149.235 1.324C149.353 1.153 149.421 1.11 149.58 0.971" stroke-width="0.13"/>
   <path d="M149.877 0.824C149.846 0.811 149.861 0.815 149.83 0.812C149.805 0.82 149.816 0.813 149.796 0.831" stroke-width="0.13"/>
   <path d="M149.015 2.806L149.013 2.826L149.014 3.019" stroke-width="0.13"/>
   <path d="M153.493 3.983L153.493 3.5C153.493 3.358 153.582 2.992 153.401 2.859" stroke-width="0.13"/>
   <path d="M152.752 1.199L152.612 1.439L152.612 2.53" stroke-width="0.13"/>
   <path d="M150.489 2.436C150.362 2.306 150.306 2.214 150.264 2.039" stroke-width="0.25"/>
   <path d="M150.526 2.484C151.081 2.753 151.7 2.827 152.304 2.665C152.522 2.605 152.552 2.58 152.752 2.484" stroke-width="0.25"/>
   <path d="M152.768 2.451C152.877 2.359 152.967 2.256 153.002 2.112L153.014 1.964" stroke-width="0.25"/>
   <path d="M152.612 1.439C152.312 1.296 152.034 1.234 151.703 1.207L151.449 1.215L151.201 1.248C150.852 1.316 150.37 1.5 150.275 1.891L150.264 2.039" stroke="#808080" stroke-width="0.1"/>
   <path d="M150.349 2.362C150.241 2.253 150.183 2.217 150.118 2.076C149.907 1.619 150.36 1.249 150.736 1.096C151.389 0.833 152.127 0.897 152.752 1.199" stroke="#808080" stroke-width="0.1"/>
   <path d="M152.929 1.32C153.038 1.429 153.093 1.465 153.158 1.607L153.206 1.762C153.258 2.097 152.997 2.314 152.752 2.484" stroke="#808080" stroke-width="0.1"/>
   <path d="M153.014 1.964L152.979 1.819C152.925 1.689 152.872 1.653 152.775 1.552" stroke="#808080" stroke-width="0.1"/>
   <path d="M150.487 4.278C150.103 4.152 150.289 4.222 149.927 4.065" stroke-width="0.13"/>
   <path d="M153.111 4.171C152.722 4.302 152.92 4.243 152.514 4.344" stroke-width="0.13"/>
  </g>
  <g id="01_0023_0053_0_1_2">
   <desc>01_0023_0053_0_1</desc>
   <path d="M153.737 1.819L153.711 1.629C153.629 1.332 153.379 1.112 153.122 0.963C152.667 0.7 152.157 0.632 151.64 0.609C151.122 0.632 150.611 0.7 150.155 0.963C149.951 1.08 149.759 1.238 149.643 1.445C149.554 1.605 149.564 1.645 149.54 1.819" stroke-width="0.25"/>
   <path d="M153.737 1.819L153.711 2.009C153.629 2.306 153.379 2.528 153.122 2.677C152.665 2.94 152.155 3.008 151.638 3.031C151.122 3.008 150.61 2.94 150.156 2.677C149.951 2.56 149.759 2.402 149.643 2.193C149.554 2.035 149.564 1.995 149.54 1.819" stroke="#808080" stroke-width="0.1"/>
   <path d="M153.206 1.898L153.159 2.053C153.076 2.232 152.919 2.366 152.752 2.463C152.367 2.684 151.935 2.725 151.502 2.725L151.231 2.698L150.974 2.644C150.612 2.546 150.135 2.318 150.07 1.899L150.07 1.742" stroke-width="0.25"/>
   <path d="M153.206 1.898L153.206 1.74C153.143 1.32 152.665 1.094 152.304 0.996L152.045 0.942L151.776 0.915C151.342 0.915 150.909 0.956 150.526 1.177C150.36 1.274 150.2 1.407 150.117 1.585L150.07 1.742" stroke="#808080" stroke-width="0.1"/>
  </g>
 </g>
 <g id="01_0023_0053_0_3">
  <desc>01_0023_0053_0</desc>
  <g id="01_0023_0053_0_2_1">
   <desc>01_0023_0053_0_2</desc>
   <line stroke="#808080" stroke-width="0.1" x1="213.432" x2="213.439" y1="123.956" y2="123.957"/>
   <line stroke="#808080" stroke-width="0.1" x1="213.442" x2="213.222" y1="123.959" y2="123.893"/>
   <line stroke="#808080" stroke-width="0.1" x1="215.259" x2="215.685" y1="119.248" y2="119.191"/>
   <line stroke="#808080" stroke-width="0.1" x1="215.031" x2="215.477" y1="119.308" y2="119.173"/>
   <line stroke="#808080" stroke-width="0.1" x1="215.685" x2="215.478" y1="119.191" y2="119.227"/>
   <line stroke="#808080" stroke-width="0.1" x1="215.254" x2="214.795" y1="119.194" y2="119.405"/>
   <line stroke="#808080" stroke-width="0.1" x1="215.254" x2="215.031" y1="119.194" y2="119.308"/>
   <line stroke="#808080" stroke-width="0.1" x1="215.477" x2="215.259" y1="119.173" y2="119.248"/>
   <line stroke="#808080" stroke-width="0.1" x1="216.045" x2="215.683" y1="119.344" y2="119.246"/>
   <line stroke="#808080" stroke-width="0.1" x1="213.622" x2="214.016" y1="120.436" y2="119.909"/>
   <line stroke="#808080" stroke-width="0.1" x1="213.826" x2="214.016" y1="120.182" y2="119.909"/>
   <line stroke="#808080" stroke-width="0.1" x1="213.622" x2="213.794" y1="120.436" y2="120.144"/>
   <line stroke="#808080" stroke-width="0.1" x1="213.432" x2="213.794" y1="120.712" y2="120.144"/>
   <line stroke="#808080" stroke-width="0.1" x1="213.264" x2="213.586" y1="121.001" y2="120.403"/>
   <line stroke="#808080" stroke-width="0.1" x1="213.432" x2="213.586" y1="120.712" y2="120.403"/>
   <line stroke="#808080" stroke-width="0.1" x1="213.118" x2="213.394" y1="121.301" y2="120.683"/>
   <line stroke="#808080" stroke-width="0.1" x1="213.264" x2="213.394" y1="121.001" y2="120.683"/>
   <line stroke="#808080" stroke-width="0.1" x1="212.885" x2="212.743" y1="123.322" y2="122.849"/>
   <line stroke="#808080" stroke-width="0.1" x1="212.743" x2="212.826" y1="122.849" y2="123.093"/>
   <line stroke="#808080" stroke-width="0.1" x1="212.775" x2="212.796" y1="122.278" y2="122.838"/>
   <line stroke="#808080" stroke-width="0.1" x1="212.775" x2="212.885" y1="123.108" y2="123.322"/>
   <line stroke="#808080" stroke-width="0.1" x1="212.775" x2="212.974" y1="123.108" y2="123.525"/>
   <line stroke="#808080" stroke-width="0.1" x1="212.743" x2="212.796" y1="122.572" y2="122.838"/>
   <line stroke="#808080" stroke-width="0.1" x1="212.743" x2="212.826" y1="122.572" y2="123.093"/>
   <line stroke="#808080" stroke-width="0.1" x1="212.796" x2="212.775" y1="122.564" y2="122.278"/>
   <line stroke-width="0.25" x1="211.217" x2="211.306" y1="122.358" y2="122.561"/>
   <line stroke-width="0.13" x1="211.306" x2="211.217" y1="120.707" y2="121.013"/>
   <line stroke-width="0.13" x1="212.84" x2="212.604" y1="118.606" y2="118.781"/>
   <line stroke-width="0.13" x1="215.441" x2="215.262" y1="123.209" y2="123.293"/>
   <line stroke-width="0.13" x1="215.387" x2="215.58" y1="123.542" y2="123.45"/>
   <path d="M213.304 119.945C213.314 120.253 213.33 120.331 213.288 120.637C213.253 120.894 213.205 121.058 213.118 121.301C212.979 121.691 212.818 122.075 212.55 122.396C212.425 122.548 212.377 122.578 212.233 122.706" stroke="#808080" stroke-width="0.1"/>
   <path d="M213.304 124.228C213.347 124.049 213.213 123.87 213.118 123.73L212.974 123.525C212.818 123.311 212.645 123.114 212.46 122.927L212.233 122.706L211.762 122.433L211.592 122.334L211.12 122.063" stroke="#808080" stroke-width="0.1"/>
   <path d="M211.106 121.825C211.122 122.09 211.132 121.984 211.108 122.146" stroke="#808080" stroke-width="0.1"/>
   <path d="M211.11 121.695C211.114 121.587 211.125 121.48 211.138 121.371" stroke="#808080" stroke-width="0.1"/>
   <path d="M215.444 118.709C215.355 118.893 215.354 118.93 215.209 119.084C215.046 119.257 214.85 119.364 214.652 119.487C214.45 119.614 214.353 119.677 214.173 119.837C213.447 120.481 212.918 121.442 212.813 122.412C212.77 122.819 212.802 123.281 213.046 123.628C213.153 123.781 213.194 123.793 213.342 123.9" stroke="#808080" stroke-width="0.1"/>
   <path d="M212.191 119.302L212.663 119.575L212.831 119.674L213.304 119.945L213.536 119.911C213.7 119.881 213.866 119.84 214.026 119.786C214.548 119.608 214.995 119.188 215.58 119.239C215.766 119.256 215.796 119.284 215.963 119.358" stroke="#808080" stroke-width="0.1"/>
   <path d="M214.795 119.405C214.989 119.325 215.056 119.284 215.259 119.248C215.466 119.212 215.669 119.245 215.877 119.25" stroke="#808080" stroke-width="0.1"/>
   <path d="M211.763 119.754L211.963 119.51L212.191 119.302L212.251 119.168C212.304 119.063 212.391 118.972 212.467 118.887" stroke="#808080" stroke-width="0.1"/>
   <path d="M213.118 121.301C213.266 120.998 213.419 120.709 213.622 120.436C213.813 120.179 214.036 119.942 214.246 119.7" stroke="#808080" stroke-width="0.1"/>
   <path d="M212.834 121.974C212.81 122.344 212.758 122.724 212.826 123.093C212.866 123.305 212.89 123.334 212.974 123.525" stroke="#808080" stroke-width="0.1"/>
   <path d="M214.509 119.57C214.192 119.805 214.347 119.68 214.045 119.95" stroke-width="0.13"/>
   <path d="M216.131 119.454C215.99 119.269 215.835 119.096 215.67 118.93L215.604 118.862L215.444 118.709L214.973 118.436L214.804 118.338L214.332 118.066C214.007 118.12 213.694 118.18 213.389 118.311C213.127 118.423 212.86 118.572 212.632 118.743C212.106 119.138 211.7 119.739 211.449 120.337C211.31 120.668 211.174 121.018 211.137 121.379" stroke-width="0.25"/>
   <path d="M211.146 121.29C211.122 121.5 211.091 121.701 211.099 121.912" stroke-width="0.25"/>
   <path d="M211.11 121.716C211.1 121.891 211.072 122.09 211.134 122.259C211.203 122.442 211.336 122.609 211.449 122.766C211.6 122.974 211.771 123.168 211.953 123.352C212.021 123.423 212.118 123.537 212.191 123.587L212.663 123.858L212.831 123.956L213.304 124.228C213.372 124.246 213.644 124.173 213.76 124.143" stroke-width="0.25"/>
   <path d="M215.963 119.358L216.359 119.587C216.717 119.795 217.057 119.947 217.235 120.341C217.426 120.763 217.407 121.26 217.312 121.703C217.266 121.92 217.195 122.144 217.112 122.35C217.026 122.563 216.92 122.775 216.801 122.971C216.415 123.611 215.808 124.278 215.056 124.468C214.905 124.507 214.77 124.51 214.612 124.512C214.3 124.501 214.039 124.302 213.782 124.153L213.342 123.9" stroke-width="0.25"/>
   <path d="M216.055 119.411L216.04 119.397L215.872 119.304" stroke-width="0.13"/>
   <path d="M216.753 119.816C216.489 119.719 216.626 119.753 216.341 119.718C216.118 119.733 216.081 119.724 215.865 119.796C215.587 119.89 215.335 120.049 215.11 120.233C214.573 120.671 214.162 121.272 213.902 121.914C213.818 122.123 213.748 122.343 213.701 122.564C213.592 123.073 213.57 123.701 213.902 124.138C214.019 124.293 214.064 124.304 214.222 124.408" stroke-width="0.13"/>
   <path d="M217.364 120.816C217.288 120.442 217.168 120.07 216.8 119.887C216.635 119.805 216.574 119.813 216.394 119.79C216.175 119.807 216.139 119.796 215.925 119.868C215.118 120.141 214.503 120.9 214.134 121.635C214.032 121.843 213.944 122.055 213.877 122.277C213.812 122.483 213.765 122.692 213.742 122.908C213.675 123.504 213.81 124.317 214.498 124.481L214.711 124.509C214.973 124.513 215.193 124.424 215.427 124.326" stroke-width="0.13"/>
   <path d="M215.83 124.034C216.057 123.846 216.11 123.816 216.312 123.593C216.842 123.007 217.231 122.239 217.324 121.448C217.385 120.915 217.299 120.2 216.734 119.962C216.562 119.888 216.497 119.902 216.312 119.891C216.086 119.924 216.049 119.917 215.83 120.006C215.554 120.12 215.304 120.298 215.084 120.498C214.574 120.966 214.189 121.585 213.979 122.242C213.912 122.45 213.861 122.665 213.836 122.882C213.813 123.072 213.811 123.269 213.836 123.462C213.858 123.625 213.901 123.789 213.978 123.936L214.098 124.12L214.248 124.266C214.753 124.647 215.379 124.331 215.83 124.034z" stroke-width="0.13"/>
   <path d="M217.342 121.147C217.371 121.126 217.383 121.111 217.376 121.075" stroke-width="0.13"/>
   <path d="M213.818 123.183C213.786 123.197 213.759 123.201 213.725 123.204C213.542 123.189 213.319 123.001 213.216 122.941L212.798 122.7" stroke-width="0.13"/>
   <path d="M213.118 123.73C213.312 123.903 213.207 123.828 213.432 123.956" stroke-width="0.13"/>
   <path d="M215.58 123.45L215.441 123.209L214.497 122.664" stroke-width="0.13"/>
   <path d="M215.387 123.542C215.143 123.608 215.264 123.59 215.024 123.599L214.865 123.561C214.549 123.438 214.491 123.103 214.467 122.808" stroke="#808080" stroke-width="0.1"/>
   <path d="M215.58 123.45C216.153 123.061 216.578 122.453 216.675 121.756C216.718 121.448 216.695 121.058 216.432 120.846C216.319 120.757 216.274 120.763 216.137 120.73C215.896 120.739 216.018 120.722 215.774 120.787" stroke="#808080" stroke-width="0.1"/>
   <path d="M215.441 123.209C215.911 122.887 216.256 122.415 216.377 121.852C216.439 121.563 216.45 121.18 216.217 120.959L216.097 120.875" stroke="#808080" stroke-width="0.1"/>
   <path d="M215.262 123.293C215.037 123.349 215.149 123.335 214.929 123.337L214.784 123.295" stroke="#808080" stroke-width="0.1"/>
   <path d="M214.784 123.295L214.663 123.21C214.556 123.108 214.513 122.977 214.486 122.835" stroke-width="0.25"/>
   <path d="M215.58 120.879C215.068 121.227 214.695 121.725 214.534 122.328C214.475 122.548 214.484 122.587 214.467 122.808" stroke-width="0.25"/>
   <path d="M215.639 120.87C215.816 120.828 215.923 120.823 216.097 120.875" stroke-width="0.25"/>
   <path d="M212.974 121.671C212.858 122.073 212.907 121.871 212.826 122.275" stroke-width="0.13"/>
  </g>
  <g id="01_0023_0053_0_1_1">
   <desc>01_0023_0053_0_1</desc>
   <path d="M216.647 120.358C216.409 120.26 216.533 120.293 216.272 120.26L216.057 120.281C215.706 120.352 215.395 120.569 215.139 120.811C214.679 121.251 214.337 121.84 214.187 122.459C214.09 122.861 214.056 123.346 214.276 123.716C214.37 123.875 214.409 123.885 214.55 123.992" stroke="#808080" stroke-width="0.1"/>
   <path d="M216.647 120.358C216.788 120.466 216.828 120.477 216.92 120.635C217.14 121.006 217.106 121.489 217.009 121.891C216.86 122.51 216.519 123.1 216.057 123.54C215.802 123.783 215.491 123.998 215.139 124.069L214.925 124.09C214.663 124.057 214.788 124.09 214.55 123.992" stroke-width="0.25"/>
   <path d="M216.45 120.856C216.266 120.751 216.365 120.79 216.155 120.742L215.979 120.748C215.766 120.781 215.572 120.891 215.405 121.022C214.991 121.346 214.687 121.834 214.552 122.34C214.466 122.667 214.429 123.081 214.635 123.376L214.747 123.495" stroke-width="0.25"/>
   <path d="M216.45 120.856L216.562 120.975C216.768 121.269 216.73 121.688 216.645 122.012C216.509 122.518 216.206 123.006 215.793 123.329C215.626 123.459 215.43 123.569 215.218 123.602L215.043 123.609C214.832 123.561 214.931 123.6 214.747 123.495" stroke="#808080" stroke-width="0.1"/>
  </g>
 </g>
 <g id="57569_0">
  <desc>57569_0</desc>
  <line stroke-width="0.13" x1="157.689" x2="148.788" y1="94.221" y2="99.359"/>
  <line stroke-width="0.13" x1="145.388" x2="122.018" y1="98.754" y2="85.26"/>
  <line stroke="#808080" stroke-width="0.1" x1="145.819" x2="145.819" y1="99.359" y2="98.504"/>
  <line stroke-width="0.13" x1="144.645" x2="143.903" y1="106.463" y2="106.891"/>
  <line stroke-width="0.13" x1="126.469" x2="125.727" y1="98.325" y2="98.754"/>
  <line stroke-width="0.13" x1="139.453" x2="138.711" y1="105.82" y2="106.248"/>
  <line stroke-width="0.13" x1="129.127" x2="120.224" y1="77.73" y2="82.87"/>
  <line stroke-width="0.13" x1="124.305" x2="124.305" y1="68.948" y2="68.093"/>
  <line stroke-width="0.13" x1="128.014" x2="128.014" y1="68.093" y2="68.948"/>
  <line stroke-width="0.13" x1="133.207" x2="133.207" y1="65.093" y2="65.95"/>
  <line stroke-width="0.25" x1="129.127" x2="129.127" y1="64.603" y2="63.656"/>
  <line stroke-width="0.13" x1="130.425" x2="130.425" y1="63.06" y2="63.915"/>
  <line stroke-width="0.13" x1="129.87" x2="120.966" y1="61.024" y2="66.165"/>
  <line stroke-width="0.13" x1="122.822" x2="122.079" y1="69.805" y2="69.378"/>
  <line stroke-width="0.13" x1="120.966" x2="120.224" y1="67.022" y2="67.45"/>
  <line stroke-width="0.13" x1="122.822" x2="122.079" y1="80.085" y2="79.656"/>
  <line stroke-width="0.13" x1="130.425" x2="130.425" y1="81.049" y2="81.906"/>
  <line stroke-width="0.13" x1="129.87" x2="120.966" y1="79.015" y2="84.155"/>
  <line stroke-width="0.13" x1="148.045" x2="147.304" y1="98.932" y2="99.359"/>
  <line stroke-width="0.13" x1="151.383" x2="150.643" y1="86.296" y2="85.867"/>
  <line stroke-width="0.13" x1="151.383" x2="150.643" y1="96.575" y2="96.147"/>
  <line stroke-width="0.13" x1="157.689" x2="148.788" y1="78.801" y2="83.941"/>
  <line stroke-width="0.13" x1="156.206" x2="147.304" y1="76.23" y2="81.37"/>
  <line stroke-width="0.13" x1="143.966" x2="143.966" y1="80.299" y2="79.442"/>
  <line stroke-width="0.13" x1="152.682" x2="152.682" y1="75.909" y2="76.766"/>
  <path d="M147.865 99.388C148.128 99.134 148.045 98.715 148.045 98.388L148.045 84.057L148.045 83.512L148.038 83.385C147.99 82.968 147.746 82.548 147.411 82.298L147.304 82.227L146.831 81.954L144.437 80.572C143.96 80.296 143.331 80.004 143.213 79.397L143.198 79.228L143.198 78.801L143.198 78.371L143.213 78.203C143.331 77.596 143.96 77.305 144.437 77.028L148.687 74.575C148.992 74.399 149.288 74.21 149.621 74.09C150.332 73.832 151.137 73.795 151.877 73.944C152.14 73.996 152.401 74.075 152.645 74.188L152.867 74.302L153.34 74.575L155.735 75.959C156.019 76.123 156.313 76.271 156.562 76.486C157.111 76.96 157.51 77.652 157.646 78.364C157.709 78.688 157.689 79.016 157.689 79.344L157.689 93.676L157.689 94.221C157.686 94.539 157.611 94.953 157.317 95.141L156.846 95.414L148.759 100.081C148.433 100.269 148.319 100.379 147.995 100.418C147.841 100.409 147.812 100.417 147.661 100.373C147.366 100.287 147.087 100.093 146.831 99.944L146.292 99.632L145.819 99.359" stroke-width="0.25"/>
  <path d="M142.969 109.908C143.24 109.751 143.317 109.727 143.55 109.515C144.264 108.867 144.557 107.884 144.627 106.95C144.652 106.62 144.645 106.248 144.645 105.918L144.645 101.439L144.645 100.894L144.653 100.768C144.701 100.352 144.944 99.93 145.281 99.68L145.388 99.609L145.819 99.359" stroke-width="0.25"/>
  <path d="M143.272 109.731L142.801 110.004L142.699 110.063C142.364 110.257 142.242 110.356 141.901 110.466C141.598 110.564 141.501 110.558 141.183 110.593C140.828 110.59 140.754 110.602 140.399 110.539C139.609 110.396 138.925 110.013 138.239 109.617L126.198 102.667L125.727 102.394L125.296 102.123C124.975 101.909 124.745 101.724 124.45 101.472C123.79 100.909 123.215 100.237 122.712 99.531C122.013 98.552 121.453 97.477 121.066 96.34C120.914 95.891 120.78 95.432 120.694 94.965C120.623 94.584 120.578 94.293 120.552 93.908L120.534 93.4L120.534 92.855L120.534 88.376C120.534 88.048 120.516 87.718 120.578 87.394C120.713 86.683 121.112 85.99 121.662 85.516C121.9 85.311 122.179 85.168 122.45 85.012" stroke-width="0.25"/>
  <path d="M121.737 85.456C121.358 85.237 120.944 85.043 120.611 84.754C120.061 84.281 119.662 83.59 119.527 82.878C119.465 82.554 119.483 82.224 119.483 81.897L119.483 67.566L119.483 67.022C119.487 66.703 119.561 66.289 119.856 66.1L120.328 65.828L128.413 61.159C128.669 61.012 128.881 60.832 129.179 60.823C129.608 60.81 129.991 61.095 130.341 61.296L132.736 62.679C133.215 62.956 133.842 63.246 133.96 63.854L133.977 64.022L133.977 64.451C133.977 64.784 134.007 65.085 133.83 65.379C133.584 65.786 133.132 65.995 132.736 66.222L128.486 68.677L128.014 68.948L127.793 69.063C127.277 69.301 126.722 69.375 126.159 69.393C125.597 69.375 125.045 69.301 124.528 69.063L124.305 68.948L123.834 68.677L121.438 67.293C121.183 67.147 120.951 66.963 120.658 66.921C120.555 66.927 120.495 66.942 120.406 66.993" stroke-width="0.25"/>
  <path d="M142.531 110.161C142.782 109.962 142.848 109.932 143.057 109.683C143.594 109.045 143.824 108.197 143.885 107.379C143.911 107.049 143.903 106.677 143.903 106.346L143.903 101.867C143.903 101.54 143.884 101.21 143.947 100.887C144.082 100.174 144.481 99.483 145.031 99.01C145.27 98.804 145.548 98.661 145.819 98.504" stroke="#808080" stroke-width="0.1"/>
  <path d="M147.865 99.388C147.776 99.439 147.715 99.454 147.612 99.46C147.318 99.418 147.087 99.236 146.831 99.087L146.292 98.775L145.819 98.504" stroke="#808080" stroke-width="0.1"/>
  <path d="M127.174 98.894C127.313 98.793 127.349 98.781 127.457 98.644C127.81 98.197 127.811 97.552 127.715 97.018C127.662 96.715 127.57 96.42 127.453 96.137C127.37 95.938 127.277 95.748 127.168 95.563C126.748 94.835 126.099 94.096 125.271 93.837C125.075 93.777 125.037 93.784 124.837 93.763C124.623 93.778 124.474 93.811 124.28 93.902" stroke-width="0.25"/>
  <path d="M127.49 98.594L127.355 98.602C127.156 98.582 127.118 98.588 126.924 98.528C126.093 98.268 125.441 97.525 125.022 96.793C124.915 96.608 124.82 96.417 124.739 96.218C124.659 96.025 124.593 95.831 124.543 95.629C124.387 95.022 124.344 94.316 124.706 93.772" stroke-width="0.25"/>
  <path d="M127.174 98.894C126.98 98.983 126.831 99.016 126.617 99.031C126.418 99.012 126.379 99.019 126.183 98.956C125.355 98.698 124.706 97.959 124.286 97.233C124.179 97.046 124.084 96.856 124.001 96.659C123.885 96.375 123.793 96.079 123.739 95.778C123.644 95.243 123.644 94.599 123.996 94.15C124.105 94.013 124.141 94.001 124.28 93.902" stroke="#808080" stroke-width="0.1"/>
  <path d="M140.157 106.388C139.963 106.478 139.813 106.513 139.6 106.527C139.401 106.507 139.362 106.513 139.167 106.453C138.338 106.194 137.689 105.456 137.269 104.728C137.162 104.542 137.068 104.352 136.985 104.153C136.867 103.87 136.776 103.575 136.722 103.272C136.627 102.739 136.627 102.094 136.979 101.647C137.087 101.51 137.125 101.498 137.263 101.397" stroke="#808080" stroke-width="0.1"/>
  <path d="M140.157 106.388C140.296 106.289 140.332 106.277 140.441 106.14C140.793 105.691 140.794 105.048 140.699 104.513C140.645 104.212 140.554 103.915 140.436 103.632C140.354 103.433 140.259 103.243 140.151 103.058C139.731 102.331 139.081 101.591 138.253 101.334C138.057 101.272 138.02 101.278 137.819 101.26C137.606 101.274 137.456 101.308 137.263 101.397" stroke-width="0.25"/>
  <path d="M137.689 101.269C137.383 101.728 137.368 102.305 137.462 102.835C137.64 103.847 138.211 104.835 138.996 105.498C139.411 105.846 139.919 106.125 140.473 106.09" stroke-width="0.25"/>
  <path d="M148.045 89.509L147.574 89.236L130.341 79.287L129.87 79.015L129.763 78.944C129.426 78.694 129.183 78.272 129.135 77.858L129.127 77.73L129.127 77.185L129.127 68.85L129.127 68.307" stroke-width="0.25"/>
  <path d="M133.977 64.022C133.961 64.177 133.968 64.212 133.911 64.358C133.711 64.867 133.176 65.112 132.736 65.367L128.486 67.819L128.014 68.093L127.793 68.206C127.277 68.444 126.722 68.518 126.159 68.536C125.597 68.518 125.045 68.444 124.528 68.206L124.305 68.093L123.834 67.819L121.438 66.436C121.183 66.29 120.903 66.094 120.611 66.009C120.459 65.965 120.43 65.971 120.277 65.962C120.075 65.987 120.171 65.965 119.983 66.028" stroke="#808080" stroke-width="0.1"/>
  <path d="M130.699 64.131C130.372 63.746 129.78 63.667 129.312 63.649C128.841 63.667 128.258 63.749 127.929 64.131" stroke-width="0.25"/>
  <path d="M127.739 63.701C127.751 63.807 127.746 63.835 127.793 63.936C127.9 64.168 128.132 64.323 128.358 64.424C128.894 64.661 129.555 64.673 130.108 64.486C130.391 64.391 130.703 64.221 130.834 63.936C130.879 63.835 130.875 63.81 130.887 63.703" stroke-width="0.25"/>
  <path d="M130.887 63.703C130.814 63.066 130.056 62.84 129.509 62.801L129.302 62.793L129.097 62.801C128.556 62.844 127.811 63.073 127.739 63.701" stroke="#808080" stroke-width="0.1"/>
  <path d="M120.406 66.993C120.141 67.248 120.224 67.665 120.224 67.995L120.224 82.325C120.224 82.573 120.197 82.873 120.254 83.129C120.337 83.496 120.557 83.858 120.859 84.084L120.966 84.155L121.438 84.427L121.978 84.739L122.45 85.012" stroke="#808080" stroke-width="0.1"/>
  <path d="M122.243 67.759C122.144 67.894 122.117 67.923 122.03 68.075L121.935 68.257C121.701 68.748 121.525 69.507 122.034 69.882" stroke-width="0.25"/>
  <path d="M123.028 68.212C122.849 68.626 122.596 69.012 122.227 69.281C122.09 69.381 121.927 69.475 121.757 69.506" stroke-width="0.25"/>
  <path d="M123.771 68.64C123.509 69.251 122.995 69.948 122.263 69.954C122.105 69.923 122.18 69.947 122.034 69.882" stroke="#808080" stroke-width="0.1"/>
  <path d="M122.034 80.162C121.948 80.099 121.921 80.09 121.858 80.001C121.677 79.743 121.686 79.39 121.745 79.096C121.859 78.525 122.2 77.957 122.674 77.611C122.875 77.465 123.125 77.343 123.379 77.367C123.489 77.376 123.51 77.394 123.608 77.438" stroke-width="0.25"/>
  <path d="M121.757 79.786C121.986 79.745 122.198 79.596 122.368 79.447C122.762 79.097 123.048 78.602 123.153 78.087C123.2 77.862 123.219 77.608 123.143 77.387" stroke-width="0.25"/>
  <path d="M123.608 77.438C123.695 77.501 123.721 77.51 123.784 77.6C123.965 77.856 123.957 78.21 123.899 78.504C123.873 78.629 123.834 78.759 123.789 78.876C123.548 79.506 122.998 80.227 122.263 80.234C122.105 80.203 122.18 80.227 122.034 80.162" stroke="#808080" stroke-width="0.1"/>
  <path d="M130.887 81.692C130.814 81.055 130.056 80.829 129.509 80.79L129.302 80.783L129.097 80.792C128.556 80.834 127.811 81.063 127.739 81.691" stroke="#808080" stroke-width="0.1"/>
  <path d="M130.699 82.12C130.372 81.736 129.78 81.658 129.312 81.64C128.841 81.658 128.258 81.739 127.929 82.12" stroke-width="0.25"/>
  <path d="M127.739 81.691C127.751 81.798 127.746 81.825 127.793 81.926C127.9 82.158 128.132 82.313 128.358 82.414C128.894 82.65 129.555 82.662 130.108 82.475C130.391 82.379 130.703 82.21 130.834 81.926C130.879 81.825 130.875 81.799 130.887 81.692" stroke-width="0.25"/>
  <path d="M151.729 94.495L151.568 94.489C151.282 94.501 151.001 94.528 150.729 94.632" stroke-width="0.25"/>
  <path d="M152.17 93.927C152.025 93.864 152.1 93.888 151.942 93.856C151.211 93.862 150.663 94.579 150.42 95.203C150.375 95.323 150.336 95.453 150.31 95.578C150.248 95.873 150.239 96.231 150.42 96.49C150.485 96.581 150.51 96.59 150.598 96.653" stroke-width="0.25"/>
  <path d="M151.705 93.878C151.783 94.096 151.763 94.353 151.717 94.575C151.61 95.09 151.324 95.587 150.931 95.936C150.762 96.087 150.549 96.236 150.32 96.277" stroke-width="0.25"/>
  <path d="M151.352 95.441C151.038 95.406 150.705 95.347 150.436 95.17" stroke-width="0.25"/>
  <path d="M150.598 86.373C150.51 86.31 150.485 86.301 150.42 86.21C150.274 86.001 150.254 85.724 150.282 85.478C150.343 84.897 150.662 84.322 151.096 83.936C151.322 83.736 151.626 83.549 151.942 83.576C152.051 83.587 152.072 83.605 152.17 83.649" stroke-width="0.25"/>
  <path d="M150.32 85.996C150.549 85.956 150.762 85.808 150.931 85.656C151.324 85.308 151.61 84.811 151.717 84.296C151.763 84.073 151.783 83.816 151.705 83.597" stroke-width="0.25"/>
  <path d="M152.17 83.649C152.258 83.712 152.283 83.721 152.348 83.811C152.53 84.07 152.52 84.427 152.459 84.724C152.433 84.849 152.394 84.978 152.348 85.097C152.105 85.722 151.557 86.438 150.826 86.445C150.668 86.414 150.743 86.438 150.598 86.373" stroke="#808080" stroke-width="0.1"/>
  <path d="M152.17 93.927C152.258 93.992 152.283 94.001 152.348 94.091C152.53 94.35 152.52 94.707 152.459 95.004C152.433 95.129 152.394 95.259 152.348 95.378C152.105 96.003 151.557 96.718 150.826 96.724C150.668 96.694 150.745 96.718 150.598 96.653" stroke="#808080" stroke-width="0.1"/>
  <path d="M143.198 78.371C143.211 78.527 143.205 78.561 143.263 78.707C143.462 79.215 143.997 79.462 144.437 79.715L146.831 81.097C147.116 81.262 147.411 81.411 147.661 81.626C148.209 82.099 148.609 82.792 148.743 83.504C148.806 83.828 148.788 84.156 148.788 84.484L148.788 98.816C148.788 99.219 148.842 99.694 148.616 100.06C148.544 100.177 148.515 100.189 148.414 100.281" stroke="#808080" stroke-width="0.1"/>
  <path d="M153.144 76.552C153.072 75.915 152.312 75.689 151.765 75.65L151.558 75.643L151.354 75.652C150.813 75.694 150.068 75.923 149.996 76.551" stroke="#808080" stroke-width="0.1"/>
  <path d="M153.144 76.552C153.072 77.18 152.326 77.409 151.786 77.451L151.58 77.46L151.373 77.453C150.828 77.414 150.068 77.188 149.996 76.551" stroke-width="0.25"/>
  <path d="M150.185 76.98C150.337 76.804 150.568 76.692 150.787 76.62C151.284 76.456 151.858 76.456 152.355 76.62C152.57 76.692 152.806 76.804 152.955 76.98" stroke-width="0.25"/>
 </g>
 <g id="57593_0_1">
  <desc>57593_0</desc>
  <path d="M149.135 54.401C149.157 54.582 149.146 54.622 149.225 54.792C149.447 55.271 149.972 55.554 150.449 55.713C151.281 55.99 152.237 55.99 153.068 55.713C153.42 55.597 153.766 55.421 154.032 55.158L154.182 54.979C154.431 54.634 154.382 54.267 154.382 53.856L154.382 40.811C154.382 40.506 154.426 40.164 154.293 39.875C154.155 39.579 153.891 39.356 153.614 39.195C153.045 38.868 152.402 38.777 151.758 38.752C151.116 38.777 150.471 38.866 149.903 39.195C149.616 39.362 149.342 39.594 149.211 39.908C149.09 40.195 149.138 40.573 149.138 40.862L149.137 53.856L149.135 54.401z" stroke-width="0.25"/>
  <path d="M154.382 40.267C154.361 40.447 154.371 40.488 154.293 40.658C154.156 40.954 153.891 41.177 153.614 41.338C153.133 41.612 152.574 41.74 152.026 41.773L151.668 41.78C151.103 41.746 150.55 41.667 150.038 41.409C149.729 41.255 149.43 41.034 149.259 40.726C149.163 40.551 149.171 40.509 149.138 40.319" stroke="#808080" stroke-width="0.1"/>
  <path d="M153.727 40.267C153.704 40.43 153.713 40.468 153.629 40.616C153.52 40.811 153.341 40.96 153.15 41.07C152.723 41.317 152.243 41.381 151.758 41.402C151.275 41.381 150.795 41.317 150.367 41.07C150.127 40.93 149.893 40.722 149.816 40.444L149.792 40.267" stroke-width="0.25"/>
  <path d="M153.727 40.267C153.704 40.103 153.713 40.064 153.629 39.915C153.52 39.722 153.341 39.573 153.15 39.463C152.723 39.216 152.243 39.152 151.758 39.131C151.275 39.152 150.795 39.216 150.367 39.463C150.177 39.573 149.997 39.722 149.888 39.915C149.804 40.066 149.813 40.103 149.792 40.267" stroke="#808080" stroke-width="0.1"/>
 </g>
 <g id="57592_0">
  <desc>57592_0</desc>
  <path d="M89.397 52.241C89.251 52.133 89.209 52.121 89.102 51.969C88.799 51.536 88.816 50.942 88.917 50.45C89.111 49.5 89.679 48.561 90.465 47.987C90.798 47.744 91.212 47.542 91.637 47.579C91.822 47.597 91.852 47.625 92.019 47.698" stroke="#808080" stroke-width="0.1"/>
  <path d="M91.691 48.267C91.507 48.186 91.603 48.216 91.405 48.177C90.546 48.183 89.896 48.981 89.569 49.704C89.5 49.862 89.439 50.026 89.397 50.192C89.295 50.584 89.254 51.061 89.474 51.423C89.551 51.549 89.582 51.561 89.692 51.654" stroke-width="0.25"/>
  <path d="M89.397 52.241L88.926 51.969L65.757 38.594C65.493 38.441 65.174 38.308 64.99 38.048C64.748 37.701 64.715 37.24 64.757 36.832C64.85 35.963 65.287 35.115 65.884 34.484L66.114 34.259C66.578 33.847 67.293 33.447 67.909 33.777L68.379 34.049L91.548 47.426L92.019 47.698L92.18 47.817C92.623 48.228 92.611 48.947 92.5 49.49C92.456 49.704 92.393 49.911 92.313 50.115C92.231 50.326 92.132 50.53 92.019 50.728C91.629 51.404 91.012 52.106 90.227 52.316C90.022 52.371 89.987 52.359 89.781 52.359C89.513 52.308 89.641 52.347 89.397 52.241z" stroke-width="0.25"/>
  <path d="M91.691 48.267C91.802 48.347 91.832 48.356 91.912 48.47C92.14 48.795 92.128 49.24 92.052 49.61C92.019 49.768 91.971 49.927 91.912 50.079C91.615 50.844 91.004 51.621 90.153 51.764C89.971 51.759 89.855 51.735 89.692 51.654" stroke="#808080" stroke-width="0.1"/>
 </g>
 <g id="01_0001_0113_0">
  <desc>01_0001_0113_0</desc>
  <line stroke="#808080" stroke-width="0.1" x1="37.862" x2="37.606" y1="18.265" y2="18.117"/>
  <line stroke="#808080" stroke-width="0.1" x1="37.718" x2="37.606" y1="18.376" y2="18.117"/>
  <line stroke="#808080" stroke-width="0.1" x1="9.021" x2="7.73" y1="3.742" y2="2.999"/>
  <line stroke-width="0.25" x1="12.73" x2="12.73" y1="1.601" y2="2.334"/>
  <line stroke-width="0.25" x1="10.875" x2="11.234" y1="6.381" y2="5.934"/>
  <line stroke-width="0.25" x1="10.291" x2="10.875" y1="6.33" y2="6.381"/>
  <path d="M37.871 18.652C37.545 18.926 37.286 19.373 37.218 19.794" stroke="#808080" stroke-width="0.1"/>
  <path d="M37.53 21.115C37.438 21.047 37.411 21.039 37.341 20.943C37.183 20.728 37.154 20.443 37.173 20.185C37.22 19.608 37.514 19.028 37.93 18.629C38.143 18.425 38.435 18.225 38.744 18.245C38.851 18.251 38.869 18.268 38.965 18.309" stroke="#808080" stroke-width="0.1"/>
  <path d="M38.088 21.437C37.993 21.367 37.966 21.359 37.896 21.263C37.74 21.047 37.71 20.763 37.731 20.504C37.777 19.928 38.07 19.35 38.485 18.951C38.764 18.684 39.139 18.468 39.521 18.629" stroke="#808080" stroke-width="0.1"/>
  <path d="M38.643 21.757C38.548 21.689 38.523 21.681 38.453 21.585C38.295 21.368 38.265 21.085 38.286 20.826C38.334 20.25 38.627 19.672 39.042 19.272C39.32 19.006 39.695 18.789 40.076 18.951" stroke="#808080" stroke-width="0.1"/>
  <path d="M39.198 22.079C39.106 22.01 39.079 22.001 39.009 21.905C38.853 21.692 38.823 21.408 38.844 21.15C38.89 20.571 39.182 19.992 39.6 19.593C39.878 19.326 40.253 19.109 40.634 19.272" stroke="#808080" stroke-width="0.1"/>
  <path d="M39.756 22.4C39.661 22.332 39.637 22.324 39.566 22.228C39.409 22.013 39.378 21.73 39.399 21.472C39.445 20.893 39.738 20.314 40.156 19.914C40.435 19.646 40.81 19.431 41.191 19.594" stroke="#808080" stroke-width="0.1"/>
  <path d="M40.313 22.722C40.219 22.652 40.192 22.644 40.122 22.548C39.966 22.332 39.936 22.048 39.957 21.791C40.003 21.213 40.295 20.635 40.712 20.236C40.99 19.969 41.365 19.751 41.746 19.914" stroke="#808080" stroke-width="0.1"/>
  <path d="M40.868 23.042C40.774 22.974 40.749 22.966 40.679 22.87C40.521 22.653 40.491 22.368 40.512 22.111C40.56 21.533 40.851 20.957 41.268 20.557C41.545 20.291 41.92 20.074 42.302 20.236" stroke="#808080" stroke-width="0.1"/>
  <path d="M41.423 23.364C41.331 23.295 41.304 23.286 41.234 23.19C41.079 22.975 41.048 22.692 41.069 22.434C41.115 21.856 41.408 21.277 41.826 20.878C42.103 20.611 42.478 20.394 42.859 20.557" stroke="#808080" stroke-width="0.1"/>
  <path d="M41.981 23.684C41.889 23.617 41.86 23.608 41.792 23.513C41.636 23.298 41.604 23.015 41.625 22.757C41.671 22.178 41.963 21.599 42.383 21.198C42.661 20.931 43.034 20.716 43.417 20.879" stroke="#808080" stroke-width="0.1"/>
  <path d="M42.539 24.007C42.445 23.939 42.417 23.929 42.347 23.833C42.192 23.618 42.161 23.335 42.182 23.077C42.228 22.498 42.521 21.92 42.938 21.521C43.216 21.254 43.591 21.036 43.972 21.201" stroke="#808080" stroke-width="0.1"/>
  <path d="M43.094 24.327C43 24.26 42.975 24.251 42.905 24.155C42.747 23.939 42.718 23.653 42.738 23.396C42.786 22.818 43.078 22.242 43.493 21.843C43.771 21.576 44.146 21.359 44.529 21.521" stroke="#808080" stroke-width="0.1"/>
  <path d="M43.523 22.286C43.777 21.974 44.142 21.588 44.588 21.617C44.695 21.625 44.712 21.641 44.807 21.682" stroke="#808080" stroke-width="0.1"/>
  <path d="M44.25 21.361C44.109 21.3 44.182 21.323 44.03 21.295C43.317 21.326 42.802 22.059 42.585 22.672C42.542 22.794 42.506 22.925 42.484 23.053C42.429 23.364 42.432 23.728 42.625 23.993C42.695 24.089 42.722 24.097 42.814 24.167" stroke="#808080" stroke-width="0.1"/>
  <path d="M42.259 23.846C42.167 23.777 42.139 23.768 42.07 23.673C41.912 23.457 41.883 23.172 41.904 22.914C41.951 22.336 42.243 21.76 42.658 21.361C42.871 21.158 43.162 20.957 43.472 20.975C43.579 20.981 43.597 20.998 43.694 21.039" stroke="#808080" stroke-width="0.1"/>
  <path d="M43.137 20.718C42.996 20.658 43.07 20.679 42.917 20.653C42.204 20.682 41.692 21.414 41.472 22.027C41.429 22.149 41.393 22.28 41.371 22.408C41.317 22.719 41.32 23.085 41.514 23.352C41.584 23.448 41.609 23.457 41.704 23.524" stroke="#808080" stroke-width="0.1"/>
  <path d="M41.148 23.204C41.054 23.135 41.027 23.126 40.957 23.03C40.801 22.817 40.771 22.533 40.79 22.275C40.837 21.696 41.13 21.117 41.548 20.716C41.826 20.451 42.201 20.234 42.582 20.397" stroke="#808080" stroke-width="0.1"/>
  <path d="M42.024 20.076C41.884 20.015 41.957 20.038 41.804 20.01C41.091 20.039 40.576 20.774 40.359 21.388C40.316 21.512 40.28 21.64 40.258 21.769C40.204 22.079 40.207 22.443 40.401 22.708C40.47 22.804 40.496 22.814 40.59 22.882" stroke="#808080" stroke-width="0.1"/>
  <path d="M40.033 22.561C39.939 22.492 39.914 22.484 39.844 22.388C39.688 22.172 39.658 21.888 39.677 21.629C39.725 21.053 40.018 20.475 40.433 20.074C40.712 19.809 41.085 19.591 41.468 19.754" stroke="#808080" stroke-width="0.1"/>
  <path d="M40.911 19.432C40.77 19.373 40.844 19.394 40.689 19.368C39.978 19.399 39.466 20.129 39.247 20.742C39.204 20.864 39.168 20.995 39.146 21.123C39.091 21.434 39.094 21.8 39.287 22.067C39.357 22.164 39.384 22.17 39.478 22.239" stroke="#808080" stroke-width="0.1"/>
  <path d="M38.921 21.919C38.828 21.85 38.801 21.841 38.731 21.745C38.575 21.53 38.545 21.245 38.566 20.989C38.612 20.411 38.905 19.832 39.32 19.432C39.598 19.166 39.973 18.949 40.356 19.111" stroke="#808080" stroke-width="0.1"/>
  <path d="M39.799 18.791C39.659 18.731 39.732 18.753 39.579 18.727C38.865 18.754 38.35 19.49 38.133 20.105C38.09 20.227 38.054 20.358 38.033 20.486C37.978 20.795 37.981 21.158 38.174 21.425C38.246 21.521 38.271 21.528 38.365 21.597" stroke="#808080" stroke-width="0.1"/>
  <path d="M37.807 21.275C37.715 21.207 37.688 21.199 37.618 21.103C37.462 20.888 37.432 20.605 37.453 20.347C37.499 19.768 37.792 19.19 38.209 18.789C38.42 18.586 38.713 18.385 39.021 18.405C39.128 18.411 39.146 18.428 39.243 18.469" stroke="#808080" stroke-width="0.1"/>
  <path d="M37.252 20.954C37.158 20.887 37.131 20.876 37.061 20.782C36.905 20.565 36.875 20.28 36.896 20.022C36.942 19.446 37.235 18.868 37.651 18.469C37.862 18.266 38.155 18.065 38.463 18.083C38.572 18.089 38.588 18.106 38.686 18.147" stroke="#808080" stroke-width="0.1"/>
  <path d="M36.973 20.794C36.881 20.725 36.853 20.716 36.783 20.621C36.628 20.407 36.597 20.123 36.618 19.867C36.673 19.178 37.06 18.528 37.606 18.117" stroke="#808080" stroke-width="0.1"/>
  <path d="M36.941 19.631C37.011 19.199 37.273 18.785 37.591 18.492" stroke="#808080" stroke-width="0.1"/>
  <path d="M38.149 18.815C37.826 19.092 37.566 19.53 37.496 19.951" stroke="#808080" stroke-width="0.1"/>
  <path d="M37.774 20.112C37.844 19.693 38.103 19.248 38.427 18.975" stroke="#808080" stroke-width="0.1"/>
  <path d="M38.706 19.135C38.381 19.408 38.122 19.853 38.054 20.274" stroke="#808080" stroke-width="0.1"/>
  <path d="M38.331 20.434C38.401 20.012 38.659 19.574 38.982 19.297" stroke="#808080" stroke-width="0.1"/>
  <path d="M39.262 19.457C38.936 19.73 38.677 20.175 38.609 20.597" stroke="#808080" stroke-width="0.1"/>
  <path d="M38.887 20.756C38.956 20.332 39.216 19.896 39.539 19.617" stroke="#808080" stroke-width="0.1"/>
  <path d="M39.819 19.777C39.493 20.05 39.234 20.496 39.165 20.917" stroke="#808080" stroke-width="0.1"/>
  <path d="M39.444 21.077C39.512 20.658 39.771 20.211 40.097 19.939" stroke="#808080" stroke-width="0.1"/>
  <path d="M40.374 20.1C40.051 20.378 39.79 20.815 39.722 21.237" stroke="#808080" stroke-width="0.1"/>
  <path d="M40 21.399C40.069 20.978 40.329 20.533 40.652 20.26" stroke="#808080" stroke-width="0.1"/>
  <path d="M40.93 20.42C40.607 20.699 40.347 21.135 40.279 21.559" stroke="#808080" stroke-width="0.1"/>
  <path d="M40.557 21.719C40.625 21.298 40.884 20.853 41.209 20.58" stroke="#808080" stroke-width="0.1"/>
  <path d="M41.487 20.742C41.162 21.015 40.905 21.46 40.835 21.879" stroke="#808080" stroke-width="0.1"/>
  <path d="M41.112 22.041C41.182 21.617 41.442 21.181 41.765 20.902" stroke="#808080" stroke-width="0.1"/>
  <path d="M42.043 21.062C41.716 21.338 41.472 21.774 41.393 22.193" stroke="#808080" stroke-width="0.1"/>
  <path d="M41.67 22.361C41.738 21.939 41.999 21.501 42.322 21.224" stroke="#808080" stroke-width="0.1"/>
  <path d="M42.6 21.384C42.276 21.657 42.017 22.103 41.948 22.522" stroke="#808080" stroke-width="0.1"/>
  <path d="M42.225 22.684C42.293 22.265 42.554 21.818 42.878 21.545" stroke="#808080" stroke-width="0.1"/>
  <path d="M43.155 21.707C42.832 21.984 42.573 22.42 42.505 22.844" stroke="#808080" stroke-width="0.1"/>
  <path d="M42.786 22.995C42.863 22.576 43.107 22.141 43.435 21.865" stroke="#808080" stroke-width="0.1"/>
  <path d="M43.06 23.166C43.128 22.745 43.389 22.3 43.713 22.025" stroke="#808080" stroke-width="0.1"/>
  <path d="M44.115 22.089C43.975 22.187 43.86 22.307 43.755 22.44" stroke="#808080" stroke-width="0.1"/>
  <path d="M43.951 22.356C43.543 22.82 43.265 23.385 43.331 24.015" stroke="#808080" stroke-width="0.1"/>
  <path d="M44.305 24.42C44.167 24.484 44.052 24.522 43.901 24.542C43.768 24.533 43.686 24.513 43.57 24.448" stroke-width="0.13"/>
  <path d="M43.685 22.381C43.572 22.535 43.54 22.567 43.445 22.734L43.347 22.923C43.21 23.217 43.116 23.545 43.13 23.873C43.137 24.068 43.186 24.272 43.317 24.422C43.393 24.509 43.421 24.513 43.52 24.568" stroke-width="0.13"/>
  <path d="M43.951 22.356L44.084 22.228C44.365 21.984 44.878 21.73 45.182 22.082C45.237 22.146 45.277 22.221 45.304 22.3C45.343 22.417 45.341 22.463 45.353 22.586" stroke-width="0.13"/>
  <path d="M43.771 22.455C43.872 22.329 43.899 22.289 44.015 22.178C44.301 21.902 44.874 21.573 45.197 21.984C45.25 22.05 45.286 22.126 45.31 22.208C45.393 22.486 45.363 22.82 45.287 23.092C45.094 23.794 44.53 24.504 43.774 24.609C43.67 24.603 43.616 24.609 43.52 24.568C43.454 24.539 43.311 24.458 43.25 24.402C43.018 24.196 42.97 23.849 42.991 23.554C43.039 22.922 43.387 22.265 43.884 21.87C44.119 21.684 44.52 21.478 44.807 21.682C44.912 21.757 44.883 21.731 44.954 21.818" stroke-width="0.25"/>
  <path d="M43.231 24.384C42.868 24.309 42.72 23.896 42.71 23.57C42.688 22.881 43.07 22.135 43.606 21.71C43.881 21.492 44.365 21.285 44.643 21.617" stroke-width="0.25"/>
  <path d="M42.954 24.222C42.591 24.146 42.442 23.737 42.432 23.408C42.409 22.721 42.792 21.975 43.326 21.55C43.601 21.332 44.088 21.123 44.365 21.457" stroke-width="0.25"/>
  <path d="M44.087 21.297C43.993 21.182 43.863 21.144 43.723 21.121C43.009 21.152 42.5 21.89 42.281 22.504C42.237 22.629 42.203 22.759 42.179 22.888C42.11 23.295 42.168 23.957 42.676 24.062" stroke-width="0.25"/>
  <path d="M43.808 21.135C43.713 21.021 43.585 20.984 43.444 20.96C42.731 20.995 42.223 21.725 42.006 22.338C41.96 22.466 41.926 22.589 41.902 22.722C41.832 23.132 41.889 23.795 42.398 23.902" stroke-width="0.25"/>
  <path d="M43.53 20.975C43.435 20.861 43.307 20.823 43.165 20.8C42.453 20.833 41.945 21.568 41.725 22.181C41.682 22.307 41.646 22.434 41.624 22.565C41.554 22.975 41.612 23.635 42.119 23.74" stroke-width="0.25"/>
  <path d="M43.252 20.815C43.156 20.701 43.03 20.663 42.889 20.64C42.176 20.673 41.665 21.408 41.448 22.021C41.404 22.146 41.368 22.274 41.345 22.405C41.276 22.812 41.334 23.475 41.841 23.579" stroke-width="0.25"/>
  <path d="M42.973 20.653C42.878 20.539 42.75 20.501 42.607 20.478C41.896 20.515 41.39 21.245 41.17 21.856C41.125 21.983 41.091 22.109 41.067 22.24C40.996 22.652 41.054 23.312 41.563 23.42" stroke-width="0.25"/>
  <path d="M42.695 20.492C42.601 20.379 42.472 20.341 42.332 20.318C41.618 20.35 41.109 21.088 40.89 21.701C40.847 21.826 40.811 21.955 40.789 22.085C40.719 22.493 40.777 23.153 41.284 23.259" stroke-width="0.25"/>
  <path d="M42.417 20.332C42.322 20.219 42.194 20.181 42.052 20.158C41.341 20.192 40.832 20.923 40.613 21.536C40.569 21.663 40.534 21.788 40.512 21.92C40.441 22.329 40.497 22.992 41.006 23.099" stroke-width="0.25"/>
  <path d="M42.139 20.172C42.045 20.057 41.915 20.019 41.774 19.998C41.061 20.032 40.554 20.763 40.335 21.378C40.29 21.504 40.256 21.629 40.234 21.76C40.162 22.172 40.22 22.83 40.728 22.937" stroke-width="0.25"/>
  <path d="M41.86 20.01C41.767 19.897 41.639 19.859 41.497 19.836C40.783 19.868 40.274 20.605 40.057 21.219C40.012 21.346 39.978 21.469 39.954 21.602C39.884 22.01 39.942 22.673 40.45 22.777" stroke-width="0.25"/>
  <path d="M41.582 19.85C41.487 19.736 41.359 19.699 41.216 19.675C40.506 19.711 39.999 20.442 39.78 21.053C39.735 21.178 39.7 21.306 39.677 21.437C39.606 21.847 39.664 22.509 40.171 22.617" stroke-width="0.25"/>
  <path d="M41.304 19.69C41.21 19.576 41.082 19.539 40.942 19.515C40.228 19.548 39.718 20.283 39.5 20.897C39.456 21.022 39.42 21.152 39.398 21.282C39.328 21.69 39.387 22.35 39.893 22.455" stroke-width="0.25"/>
  <path d="M41.027 19.53C40.932 19.416 40.802 19.378 40.661 19.355C39.95 19.388 39.441 20.12 39.222 20.734C39.177 20.859 39.143 20.986 39.121 21.117C39.049 21.527 39.106 22.19 39.615 22.295" stroke-width="0.25"/>
  <path d="M40.747 19.368C40.652 19.254 40.524 19.216 40.383 19.193C39.671 19.228 39.162 19.96 38.945 20.574C38.899 20.699 38.865 20.824 38.843 20.957C38.771 21.367 38.829 22.027 39.338 22.135" stroke-width="0.25"/>
  <path d="M40.469 19.207C40.375 19.094 40.247 19.056 40.107 19.033C39.393 19.065 38.883 19.803 38.664 20.417C38.621 20.542 38.585 20.669 38.564 20.8C38.493 21.207 38.551 21.868 39.058 21.974" stroke-width="0.25"/>
  <path d="M40.192 19.047C40.097 18.932 39.968 18.896 39.826 18.873C39.115 18.908 38.607 19.638 38.389 20.251C38.344 20.376 38.308 20.504 38.286 20.634C38.215 21.045 38.271 21.705 38.78 21.814" stroke-width="0.25"/>
  <path d="M39.914 18.887C39.82 18.772 39.689 18.736 39.549 18.713C38.837 18.745 38.326 19.481 38.109 20.094C38.064 20.221 38.03 20.347 38.006 20.478C37.936 20.887 37.996 21.547 38.503 21.652" stroke-width="0.25"/>
  <path d="M39.636 18.727C39.54 18.612 39.412 18.574 39.271 18.551C38.558 18.583 38.049 19.32 37.832 19.931C37.786 20.056 37.752 20.184 37.729 20.315C37.658 20.724 37.716 21.387 38.225 21.492" stroke-width="0.25"/>
  <path d="M39.357 18.565C39.262 18.451 39.133 18.414 38.991 18.39C38.28 18.425 37.771 19.157 37.554 19.769C37.509 19.896 37.475 20.021 37.451 20.153C37.38 20.564 37.438 21.224 37.945 21.332" stroke-width="0.25"/>
  <path d="M39.079 18.405C38.984 18.292 38.856 18.254 38.716 18.231C38.002 18.262 37.491 19 37.274 19.614C37.229 19.739 37.195 19.867 37.173 19.998C37.103 20.405 37.161 21.065 37.667 21.17" stroke-width="0.25"/>
  <path d="M37.862 18.265C37.277 18.705 36.844 19.446 36.868 20.195C36.878 20.524 37.026 20.934 37.39 21.01" stroke-width="0.25"/>
  <path d="M10.164 5.315L10.635 5.588L36.502 20.521L36.973 20.794L37.09 20.844L37.112 20.85" stroke-width="0.25"/>
  <path d="M38.801 18.245C38.676 18.094 38.28 17.914 38.213 17.876L12.205 2.859L11.734 2.588" stroke-width="0.25"/>
  <path d="M43.771 22.455C43.637 22.341 43.718 22.399 43.523 22.286" stroke-width="0.25"/>
  <path d="M11.734 2.588C11.587 2.524 11.663 2.548 11.503 2.517C10.772 2.524 10.224 3.246 9.983 3.871C9.936 3.991 9.897 4.121 9.872 4.248C9.814 4.541 9.806 4.897 9.987 5.152C10.053 5.245 10.076 5.251 10.164 5.315" stroke="#808080" stroke-width="0.1"/>
  <path d="M12.73 1.601L12.188 1.552L11.417 1.484L10.875 1.435L10.403 1.163L10.057 0.964L9.586 0.692" stroke="#808080" stroke-width="0.1"/>
  <path d="M9.021 6.216L9.021 5.671L9.021 4.288L9.021 3.742L9.362 3.318L9.606 3.013L9.948 2.589C10.385 2.059 11.055 1.451 11.803 1.519C11.967 1.534 11.996 1.556 12.147 1.616" stroke="#808080" stroke-width="0.1"/>
  <path d="M12.26 1.68C12.07 1.595 11.929 1.565 11.721 1.559C11.525 1.584 11.492 1.577 11.301 1.645C10.884 1.794 10.521 2.081 10.221 2.403C9.711 2.95 9.33 3.645 9.169 4.376C9.055 4.891 9.028 5.538 9.365 5.98C9.442 6.081 9.535 6.149 9.637 6.222" stroke="#808080" stroke-width="0.1"/>
  <path d="M10.875 1.435L10.534 1.859L10.288 2.165L9.948 2.589L9.766 2.831C9.65 2.998 9.547 3.172 9.455 3.352C9.362 3.531 9.284 3.716 9.217 3.905C9.071 4.323 8.986 4.778 9.034 5.222C9.063 5.493 9.147 5.769 9.326 5.98C9.43 6.104 9.47 6.115 9.602 6.201" stroke="#808080" stroke-width="0.1"/>
  <path d="M12.147 1.616C12.246 1.672 12.319 1.706 12.407 1.786C12.801 2.136 12.826 2.708 12.784 3.193" stroke-width="0.25"/>
  <path d="M7.73 5.471C7.649 4.796 7.594 4.134 7.666 3.455L7.73 2.999L7.99 2.573C8.253 2.162 8.547 1.774 8.871 1.411C8.936 1.34 9.506 0.734 9.586 0.692C9.624 0.671 10.208 0.699 10.228 0.701C10.492 0.718 10.743 0.748 11.006 0.787L11.441 0.857L11.913 1.129L12.257 1.328L12.73 1.601" stroke-width="0.25"/>
  <path d="M9.772 6.283L9.021 6.216L8.548 5.944L8.202 5.743L7.73 5.471" stroke-width="0.25"/>
  <path d="M9.602 6.201C10.134 6.525 10.752 6.24 11.21 5.919" stroke-width="0.25"/>
 </g>
 <g id="01_0001_0162_0">
  <desc>01_0001_0162_0</desc>
  <line stroke-width="0.25" x1="149.538" x2="150.108" y1="176.544" y2="176.455"/>
  <line stroke-width="0.25" x1="153.253" x2="154.605" y1="176.546" y2="177.328"/>
  <line stroke="#808080" stroke-width="0.1" x1="150.896" x2="150.896" y1="180.776" y2="179.468"/>
  <path d="M150.752 153.522C150.622 153.621 150.507 153.713 150.454 153.875" stroke-width="0.13"/>
  <path d="M153.253 177.598L153.253 177.054L153.253 154.849C153.253 154.657 153.305 154.259 153.2 154.036C153.099 153.818 152.906 153.698 152.707 153.581C152.556 153.493 152.52 153.461 152.365 153.402C152.121 153.311 151.872 153.289 151.615 153.286C151.423 153.3 151.24 153.32 151.056 153.382C150.883 153.438 150.722 153.533 150.568 153.627C150.383 153.741 150.205 153.888 150.134 154.102L150.108 154.236L150.108 154.782L150.108 176.989L150.108 177.532" stroke-width="0.25"/>
  <path d="M151.55 154.727L151.356 154.705L151.263 154.687" stroke="#808080" stroke-width="0.1"/>
  <path d="M152.907 154.14C152.758 154.596 152.152 154.699 151.747 154.729L151.55 154.727" stroke-width="0.13"/>
  <path d="M150.487 154.864C151.068 155.198 151.774 155.27 152.415 155.074C152.769 154.967 153.068 154.78 153.227 154.439" stroke-width="0.13"/>
  <path d="M152.927 154.028C152.943 153.759 152.728 153.598 152.521 153.472" stroke="#808080" stroke-width="0.1"/>
  <path d="M153.253 177.598C153.229 177.723 153.235 177.752 153.168 177.864C152.883 178.336 152.239 178.441 151.741 178.473L151.507 178.468C151.036 178.438 150.383 178.276 150.162 177.802C150.106 177.686 150.116 177.657 150.108 177.532" stroke="#808080" stroke-width="0.1"/>
  <path d="M154.605 177.328L154.605 177.872L154.605 178.091L154.605 178.635L154.502 178.943C154.417 179.188 154.324 179.433 154.215 179.67C154.132 179.849 154.038 180.024 153.925 180.186L153.823 180.324L153.437 180.468C152.847 180.673 152.258 180.771 151.637 180.805C151.441 180.802 151.087 180.806 150.896 180.776C150.782 180.758 150.466 180.65 150.354 180.605C149.746 180.364 149.243 179.967 148.756 179.54" stroke-width="0.25"/>
  <path d="M149.538 176.544L149.31 177.038L148.985 177.739L148.756 178.233L148.756 178.776L148.756 178.996L148.756 179.54" stroke-width="0.25"/>
  <path d="M149.349 177.703C149.35 177.53 149.335 177.467 149.39 177.306C149.507 176.962 149.805 176.741 150.108 176.574" stroke-width="0.25"/>
  <path d="M153.253 176.574C153.599 176.758 153.951 177.045 154.008 177.461L154.012 177.856" stroke-width="0.25"/>
  <path d="M152.685 180.677C152.248 180.764 152.469 180.729 152.022 180.781" stroke-width="0.13"/>
  <path d="M154.215 179.67L154.104 179.859" stroke-width="0.13"/>
  <path d="M150.085 180.48C149.746 180.308 149.907 180.402 149.599 180.2" stroke-width="0.13"/>
  <path d="M153.823 179.016C152.847 179.168 151.872 179.318 150.896 179.468L148.756 178.233" stroke="#808080" stroke-width="0.1"/>
  <path d="M154.605 177.328L154.377 177.822L154.051 178.522L153.823 179.016L153.823 179.561L153.823 179.78L153.823 180.324" stroke="#808080" stroke-width="0.1"/>
  <path d="M154.012 177.856C153.974 178.026 153.979 178.062 153.889 178.216C153.729 178.486 153.456 178.68 153.179 178.813C152.715 179.038 152.218 179.104 151.711 179.127L151.391 179.117C150.907 179.082 150.411 178.963 149.991 178.711C149.742 178.56 149.507 178.348 149.401 178.069C149.341 177.911 149.354 177.868 149.349 177.703" stroke="#808080" stroke-width="0.1"/>
  <path d="M154.012 177.644C153.973 177.812 153.979 177.849 153.889 178.002C153.728 178.275 153.454 178.467 153.174 178.602C152.711 178.824 152.215 178.889 151.707 178.913L151.389 178.902C150.905 178.867 150.407 178.748 149.987 178.493C149.74 178.342 149.504 178.131 149.4 177.853C149.34 177.693 149.353 177.653 149.35 177.487" stroke="#808080" stroke-width="0.1"/>
  <path d="M150.487 154.864C150.319 154.731 150.159 154.592 150.116 154.372L150.108 154.236" stroke="#808080" stroke-width="0.1"/>
 </g>
 <g>
  <line stroke="#FFFFFF" stroke-width="1" x1="151.658" x2="151.658" y1="6.996" y2="39.52"/>
  <line stroke-dasharray="5 1 1 1" stroke-width="0.13" x1="151.658" x2="151.658" y1="6.431" y2="39.085"/>
  <line stroke-width="0.13" x1="151.658" x2="151.658" y1="39.085" y2="40.085"/>
 </g>
 <g>
  <line stroke="#FFFFFF" stroke-width="1" x1="151.658" x2="151.658" y1="56.484" y2="76.192"/>
  <line stroke-dasharray="5 1 1 1" stroke-width="0.13" x1="151.658" x2="151.658" y1="55.92" y2="75.757"/>
  <line stroke-width="0.13" x1="151.658" x2="151.658" y1="75.757" y2="76.757"/>
 </g>
 <g>
  <line stroke="#FFFFFF" stroke-width="1" x1="151.658" x2="151.658" y1="99.599" y2="153.628"/>
  <line stroke-dasharray="5 1 1 1" stroke-width="0.13" x1="151.658" x2="151.658" y1="99.034" y2="153.193"/>
  <line stroke-width="0.13" x1="151.658" x2="151.658" y1="153.193" y2="154.193"/>
 </g>
 <g>
  <line stroke="#FFFFFF" stroke-width="1" x1="44.5" x2="64.509" y1="23.384" y2="34.936"/>
  <line stroke-dasharray="5 1 1 1" stroke-width="0.13" x1="44.011" x2="64.132" y1="23.102" y2="34.719"/>
  <line stroke-width="0.13" x1="64.132" x2="64.998" y1="34.719" y2="35.219"/>
 </g>
 <g>
  <line stroke="#FFFFFF" stroke-width="1" x1="91.084" x2="118.662" y1="50.28" y2="66.201"/>
  <line stroke-dasharray="5 1 1 1" stroke-width="0.13" x1="90.596" x2="118.286" y1="49.996" y2="65.983"/>
  <line stroke-width="0.13" x1="118.286" x2="119.152" y1="65.983" y2="66.483"/>
 </g>
 <g>
  <line stroke="#FFFFFF" stroke-width="1" x1="123.037" x2="144.924" y1="68.727" y2="81.364"/>
  <line stroke-dasharray="5 1 1 1" stroke-width="0.13" x1="122.548" x2="144.546" y1="68.444" y2="81.146"/>
  <line stroke-width="0.13" x1="144.546" x2="145.413" y1="81.146" y2="81.646"/>
 </g>
 <g>
  <line stroke="#FFFFFF" stroke-width="1" x1="151.747" x2="210.592" y1="85.302" y2="119.277"/>
  <line stroke-dasharray="5 1 1 1" stroke-width="0.13" x1="151.258" x2="210.215" y1="85.021" y2="119.06"/>
  <line stroke-width="0.13" x1="210.215" x2="211.08" y1="119.06" y2="119.56"/>
 </g>
 <g class="callout callout_1">
  <g>
   <line stroke="#FFFFFF" stroke-width="1" x1="154.564" x2="186.669" y1="3.52" y2="3.52"/>
   <line stroke="#808080" stroke-width="0.1" x1="154.564" x2="186.669" y1="3.52" y2="3.52"/>
  </g>
  <path d="M184.111 7.043L189.229 7.043 189.229 0 184.111 0 184.111 7.043z" fill="#FFFFFF" stroke="none"/>
  <text fill="#000000" font-family="'Arial'" font-size="4.232" stroke="none" x="185.492" y="5.043"><desc>1</desc>1</text>
 </g>
 <g class="callout callout_2">
  <g>
   <line stroke="#FFFFFF" stroke-width="1" x1="153.919" x2="186.128" y1="47.417" y2="47.417"/>
   <line stroke="#808080" stroke-width="0.1" x1="153.919" x2="186.128" y1="47.417" y2="47.417"/>
  </g>
  <path d="M183.125 50.938L189.133 50.938 189.133 43.895 183.125 43.895 183.125 50.938z" fill="#FFFFFF" stroke="none"/>
  <text fill="#000000" font-family="'Arial'" font-size="4.232" stroke="none" x="184.951" y="48.938"><desc>2</desc>2</text>
 </g>
 <g class="callout callout_1">
  <g>
   <line stroke="#FFFFFF" stroke-width="1" x1="216.055" x2="239.549" y1="119.411" y2="105.846"/>
   <line stroke="#808080" stroke-width="0.1" x1="216.055" x2="239.549" y1="119.411" y2="105.846"/>
  </g>
  <path d="M236.991 109.367L242.106 109.367 242.106 102.325 236.991 102.325 236.991 109.367z" fill="#FFFFFF" stroke="none"/>
  <text fill="#000000" font-family="'Arial'" font-size="4.232" stroke="none" x="238.372" y="107.367"><desc>1</desc>1</text>
 </g>
 <g class="callout callout_3">
  <g>
   <line stroke="#FFFFFF" stroke-width="1" x1="149.688" x2="118.811" y1="167.183" y2="167.183"/>
   <line stroke="#808080" stroke-width="0.1" x1="149.688" x2="118.811" y1="167.183" y2="167.183"/>
  </g>
  <path d="M115.819 170.731L121.804 170.731 121.804 163.635 115.819 163.635 115.819 170.731z" fill="#FFFFFF" stroke="none"/>
  <text fill="#000000" font-family="'Arial'" font-size="4.232" stroke="none" x="117.634" y="168.731"><desc>3</desc>3</text>
 </g>
 <g class="callout callout_4">
  <g>
   <line stroke="#FFFFFF" stroke-width="1" x1="129.806" x2="105.284" y1="104.025" y2="118.183"/>
   <line stroke="#808080" stroke-width="0.1" x1="129.806" x2="105.284" y1="104.025" y2="118.183"/>
  </g>
  <path d="M102.236 121.697L108.332 121.697 108.332 114.668 102.236 114.668 102.236 121.697z" fill="#FFFFFF" stroke="none"/>
  <text fill="#000000" font-family="'Arial'" font-size="4.232" stroke="none" x="104.108" y="119.697"><desc>4</desc>4</text>
 </g>
 <g class="callout callout_5">
  <g>
   <line stroke="#FFFFFF" stroke-width="1" x1="76.939" x2="55.179" y1="44.61" y2="57.173"/>
   <line stroke="#808080" stroke-width="0.1" x1="76.939" x2="55.179" y1="44.61" y2="57.173"/>
  </g>
  <path d="M52.174 60.695L58.183 60.695 58.183 53.654 52.174 53.654 52.174 60.695z" fill="#FFFFFF" stroke="none"/>
  <text fill="#000000" font-family="'Arial'" font-size="4.232" stroke="none" x="54.003" y="58.695"><desc>5</desc>5</text>
 </g>
 <g class="callout callout_6">
  <g>
   <line stroke="#FFFFFF" stroke-width="1" x1="24.309" x2="3" y1="12.564" y2="24.865"/>
   <line stroke="#808080" stroke-width="0.1" x1="24.309" x2="3" y1="12.564" y2="24.865"/>
  </g>
  <path d="M0 28.414L6.001 28.414 6.001 21.318 0 21.318 0 28.414z" fill="#FFFFFF" stroke="none"/>
  <text fill="#000000" font-family="'Arial'" font-size="4.232" stroke="none" x="1.823" y="26.414"><desc>6</desc>6</text>
 </g>
 <path class="hotspot hotspot_6" d="M0 28.414L 6.001 28.414L 6.001 21.318L 0 21.318L 0 28.414z" fill="black" id="AUTOID_243428" stroke="black" visibility="hidden"/>
 <path class="hotspot hotspot_1" d="M184.111 7.043L 189.229 7.043L 189.229 0L 184.111 0L 184.111 7.043zM236.991 109.367L 242.106 109.367L 242.106 102.325L 236.991 102.325L 236.991 109.367z" fill="black" id="AUTOID_243429" stroke="black" visibility="hidden"/>
 <path class="hotspot hotspot_2" d="M183.125 50.938L 189.133 50.938L 189.133 43.895L 183.125 43.895L 183.125 50.938z" fill="black" id="AUTOID_243430" stroke="black" visibility="hidden"/>
 <path class="hotspot hotspot_5" d="M52.174 60.695L 58.183 60.695L 58.183 53.654L 52.174 53.654L 52.174 60.695z" fill="black" id="AUTOID_243431" stroke="black" visibility="hidden"/>
 <path class="hotspot hotspot_4" d="M102.236 121.697L 108.332 121.697L 108.332 114.668L 102.236 114.668L 102.236 121.697z" fill="black" id="AUTOID_243432" stroke="black" visibility="hidden"/>
 <path class="hotspot hotspot_3" d="M115.819 170.731L 121.804 170.731L 121.804 163.635L 115.819 163.635L 115.819 170.731z" fill="black" id="AUTOID_243433" stroke="black" visibility="hidden"/>
</svg>