<?xml version="1.0" encoding="UTF-8" standalone="no"?><!-- Generator: PTC Arbortext IsoDraw 7.3 M090 --><svg xmlns="http://www.w3.org/2000/svg" xmlns:xlink="http://www.w3.org/1999/xlink" clip-rule="evenodd" fill="none" fill-rule="evenodd" font-family="sans-serif" font-size="10" font-stretch="normal" font-style="normal" font-variant="normal" font-weight="normal" height="165.611" onabort="parent.dwImageSVGOnAbort('RGP143386071');" onerror="parent.dwImageSVGOnError('RGP143386071');" onload="parent.dwImageSVGOnLoad('RGP143386071');" stroke="#000000" stroke-linecap="round" viewBox="0.0 0.0 265.023 165.611" width="265.023" x="0" xml:space="preserve" y="0">
 <g id="Livello_x0020_standard">
 </g>
 <g id="Numerazione">
  <g>
   <line stroke="#FFFFFF" stroke-width="1" x1="259.074" x2="244.349" y1="125.927" y2="137.01"/>
   <line stroke-width="0.13" x1="259.526" x2="243.899" y1="125.587" y2="137.35"/>
  </g>
  <text fill="#000000" font-family="'Arial'" font-size="3.528" font-weight="bold" stroke="none" x="260.012" y="125.522">5</text>
  <g>
   <line stroke="#FFFFFF" stroke-width="1" x1="262.122" x2="247.399" y1="130.769" y2="141.852"/>
   <line stroke-width="0.13" x1="262.574" x2="246.948" y1="130.429" y2="142.192"/>
  </g>
  <text fill="#000000" font-family="'Arial'" font-size="3.528" font-weight="bold" stroke="none" x="263.06" y="130.362">6</text>
  <g id="NYM-06AM000-41_000_9">
   <desc>NYM-06AM000-41_000</desc>
   <g id="NYM-06AM000-41_000_1_7">
    <desc>NYM-06AM000-41_000_1</desc>
    <g>
     <path d="M245.917 142.599C245.664 142.282 245.137 142.282 244.737 142.599C244.35 142.907 244.228 143.401 244.454 143.723" stroke-width="0.13"/>
     <path d="M245.937 142.627C245.931 142.616 245.924 142.608 245.917 142.599" stroke-width="0.13"/>
     <path d="M244.454 143.723C244.461 143.731 244.467 143.741 244.473 143.748C244.725 144.067 245.253 144.067 245.652 143.75C246.039 143.441 246.163 142.947 245.937 142.627" stroke-width="0.3"/>
    </g>
    <g>
     <path d="M244.817 145.09C245.274 145.473 246.028 145.407 246.603 144.955C247.187 144.495 247.407 143.774 247.147 143.25" stroke-width="0.13"/>
    </g>
    <g>
     <path d="M246.008 143.24C245.612 143.264 245.227 143.566 245.088 143.941" stroke-width="0.3"/>
    </g>
    <g>
     <path d="M244.645 144.905C244.937 145.293 245.397 145.421 245.897 145.312" stroke-width="0.3"/>
    </g>
    <g>
     <path d="M246.128 145.241C246.336 145.164 246.526 145.049 246.68 144.913C247.218 144.443 247.403 143.747 247.147 143.247" stroke-width="0.3"/>
    </g>
    <line stroke-width="0.13" x1="246.45" x2="244.902" y1="143.9" y2="144.736"/>
    <line stroke-width="0.13" x1="246.45" x2="246.742" y1="143.9" y2="142.336"/>
    <line stroke-width="0.13" x1="246.45" x2="246.917" y1="143.9" y2="144.485"/>
    <line stroke-width="0.13" x1="244.807" x2="244.96" y1="144.998" y2="145.188"/>
    <line stroke-width="0.13" x1="245.747" x2="246.014" y1="142.455" y2="142.79"/>
    <line stroke-width="0.3" x1="243.939" x2="245.487" y1="142.449" y2="141.611"/>
    <line stroke-width="0.3" x1="245.076" x2="245.088" y1="143.983" y2="143.941"/>
    <line stroke-width="0.3" x1="246.917" x2="245.368" y1="144.485" y2="145.323"/>
    <line stroke-width="0.3" x1="247.209" x2="246.917" y1="142.921" y2="144.485"/>
    <line stroke-width="0.3" x1="243.647" x2="243.939" y1="144.013" y2="142.449"/>
    <path d="M245.368 145.323L244.902 144.736L244.371 144.43L244.18 144.319L243.647 144.013" stroke-width="0.13"/>
    <path d="M243.647 144.013L244.114 144.598L244.645 144.905L244.836 145.014L245.368 145.323" stroke-width="0.3"/>
    <path d="M247.209 142.921L246.742 142.336L246.211 142.028L246.02 141.919L245.487 141.611" stroke-width="0.3"/>
    <path d="M246.128 145.241C246.054 145.27 245.977 145.294 245.897 145.312" stroke-width="0.3"/>
   </g>
  </g>
  <g id="WMD-60MX000-20_000_9">
   <desc>WMD-60MX000-20_000</desc>
   <g>
    <path d="M242.564 138.295C242.26 138.05 241.765 138.102 241.39 138.4C241.012 138.703 240.867 139.169 241.027 139.514" stroke-width="0.3"/>
   </g>
   <g>
    <path d="M240.052 137.354C239.002 138.409 238.887 139.838 239.735 140.706" stroke-width="0.3"/>
   </g>
   <g>
    <path d="M239.735 140.706C239.74 140.712 239.745 140.719 239.75 140.724C240.498 141.665 242.063 141.665 243.246 140.724C244.104 140.04 244.524 139.048 244.399 138.181" stroke-width="0.3"/>
   </g>
   <g>
    <path d="M243.39 136.693C242.402 136.08 241.057 136.382 240.052 137.353" stroke-width="0.3"/>
    <path d="M244.399 138.181C244.247 137.503 243.878 136.992 243.39 136.693" stroke-width="0.3"/>
   </g>
   <g>
    <path d="M240.899 139.383C240.906 139.394 240.913 139.403 240.92 139.412C241.194 139.757 241.768 139.757 242.199 139.412C242.62 139.078 242.752 138.542 242.508 138.193" stroke-width="0.3"/>
    <path d="M242.486 138.164C242.212 137.82 241.639 137.82 241.206 138.164C240.787 138.5 240.653 139.036 240.899 139.383" stroke-width="0.13"/>
    <path d="M242.508 138.193C242.501 138.183 242.493 138.174 242.486 138.164" stroke-width="0.13"/>
    <path d="M242.37 138.258C242.252 138.111 242.09 137.963 241.893 137.963L241.919 137.849C242.186 137.849 242.447 137.873 242.604 138.072L242.37 138.258z" fill="#000000" stroke="none"/>
   </g>
   <g>
    <path d="M239.55 140.473C239.555 140.479 239.56 140.485 239.563 140.491C240.312 141.432 241.877 141.432 243.06 140.492C244.233 139.557 244.587 138.046 243.858 137.104" stroke-width="0.13"/>
   </g>
  </g>
  <g id="SMF-06AM020-28_000_3">
   <desc>SMF-06AM020-28_000</desc>
   <g>
    <path d="M226.402 116.966C225.981 116.438 225.102 116.438 224.437 116.966C223.772 117.495 223.575 118.353 223.997 118.882C224.419 119.411 225.299 119.411 225.962 118.882C226.627 118.352 226.824 117.495 226.402 116.966" stroke-width="0.13"/>
   </g>
   <g>
    <path d="M228.645 120.82C228.64 120.816 228.637 120.811 228.633 120.807" stroke-width="0.3"/>
    <path d="M227.262 121.945C227.512 122.239 228.012 122.23 228.389 121.93C228.775 121.625 228.889 121.128 228.645 120.82" stroke-width="0.3"/>
   </g>
   <line stroke-width="0.13" x1="226.162" x2="225.807" y1="119.754" y2="119.31"/>
   <line stroke-width="0.3" x1="227.223" x2="226.162" y1="118.368" y2="119.754"/>
   <line stroke-width="0.3" x1="224.543" x2="226.162" y1="119.819" y2="119.754"/>
   <line stroke-width="0.3" x1="228.633" x2="226.962" y1="120.807" y2="118.709"/>
   <line stroke-width="0.3" x1="225.538" x2="227.262" y1="119.78" y2="121.944"/>
   <path d="M225.807 119.31C225.588 119.29 225.371 119.278 225.151 119.274C224.824 119.28 224.509 119.313 224.189 119.375" stroke-width="0.13"/>
   <path d="M226.87 117.924C226.435 118.335 226.098 118.786 225.807 119.31" stroke-width="0.13"/>
   <path d="M227.223 118.368L226.87 117.924L226.612 117.367C226.501 117.117 226.403 116.861 226.313 116.603" stroke-width="0.13"/>
   <path d="M223.633 118.055C223.848 117.665 224.086 117.296 224.39 116.968C224.413 116.944 224.663 116.686 224.695 116.668C224.721 116.655 225.038 116.608 225.063 116.603C225.48 116.549 225.896 116.567 226.313 116.603" stroke-width="0.3"/>
   <path d="M223.633 118.055C223.723 118.313 223.819 118.567 223.931 118.817L224.189 119.375L224.543 119.819" stroke-width="0.3"/>
   <path d="M226.313 116.603L226.668 117.048L226.907 117.614L226.985 117.802L227.223 118.368" stroke-width="0.3"/>
  </g>
  <g id="09_0695_1260_000">
   <desc>09_0695_1260_000</desc>
   <g id="09_0695_1260_PART01_000">
    <desc>09_0695_1260_PART01_000</desc>
    <g>
     <path d="M242.401 121.897C241.388 109.387 238.086 99.066 233.245 91.573" stroke-width="0.13"/>
    </g>
    <g>
     <path d="M192.403 144.849C199.152 151.515 207.477 155.17 216.252 155.996" stroke-width="0.13"/>
    </g>
    <g>
     <path d="M243.034 119.858C242.262 110.959 240.193 102.834 237.379 96.498" stroke-width="0.3"/>
    </g>
    <g>
     <path d="M242.396 121.891C242.931 121.174 243.128 120.472 243.034 119.855" stroke-width="0.3"/>
    </g>
    <g>
     <path d="M213.383 157.331C214.354 157.514 215.519 156.948 216.253 155.996" stroke-width="0.3"/>
    </g>
    <g>
     <path d="M201.281 154.013C205.116 155.724 209.355 156.84 213.383 157.331" stroke-width="0.3"/>
    </g>
    <g>
     <path d="M225.48 74.522C225.691 74.402 225.881 74.194 226.018 73.957C226.31 73.456 226.318 72.915 226.043 72.727" stroke-width="0.13"/>
    </g>
    <g>
     <path d="M226.176 72.447C225.796 72.224 225.18 72.578 224.798 73.233C224.651 73.483 224.562 73.74 224.526 73.971" stroke-width="0.13"/>
     <path d="M226.211 72.468C226.199 72.459 226.187 72.453 226.176 72.447" stroke-width="0.13"/>
    </g>
    <g>
     <path d="M226.02 72.712C225.733 72.54 225.256 72.811 224.955 73.314C224.798 73.579 224.721 73.856 224.724 74.085" stroke-width="0.3"/>
     <path d="M226.043 72.727C226.034 72.721 226.027 72.716 226.02 72.712" stroke-width="0.3"/>
    </g>
    <g>
     <path d="M225.677 74.635C225.873 74.477 226.044 74.268 226.173 74.046C226.544 73.408 226.556 72.718 226.211 72.468" stroke-width="0.3"/>
    </g>
    <g>
     <path d="M110.924 5.905C110.546 5.685 109.929 6.036 109.546 6.692C109.4 6.942 109.311 7.2 109.275 7.432" stroke-width="0.3"/>
     <path d="M110.953 5.924C110.944 5.918 110.933 5.91 110.924 5.905" stroke-width="0.3"/>
    </g>
    <line stroke-width="0.3" x1="216.253" x2="242.396" y1="155.996" y2="121.891"/>
    <line stroke-width="0.3" x1="226.211" x2="214.967" y1="72.468" y2="65.977"/>
    <line stroke-width="0.3" x1="121.462" x2="110.953" y1="11.992" y2="5.924"/>
    <line stroke-width="0.13" x1="225.888" x2="224.841" y1="74.153" y2="73.549"/>
    <path d="M197.788 152.275C197.045 151.825 196.284 151.4 195.557 150.926L195.054 150.574L193.919 149.782L193.415 149.429L192.936 149.044L191.847 148.169L191.366 147.784C191.211 147.651 190.596 147.079 190.444 146.939" stroke-width="0.13"/>
    <path d="M237.378 96.5C236.609 94.772 235.788 93.058 234.861 91.408C234.676 91.078 234.402 90.637 234.209 90.311" stroke-width="0.3"/>
    <path d="M189.556 147.522L190.09 147.83L197.257 151.967C198.186 152.503 199.143 153.002 200.106 153.473C200.475 153.652 200.909 153.842 201.282 154.014" stroke-width="0.3"/>
   </g>
   <g id="09_0695_1260_PART02_000">
    <desc>09_0695_1260_PART02_000</desc>
    <g>
     <path d="M121.873 12.05C121.45 11.804 120.763 12.198 120.34 12.931C120.197 13.176 120.102 13.428 120.058 13.656" stroke-width="0.3"/>
     <path d="M121.906 12.07C121.896 12.063 121.884 12.055 121.873 12.05" stroke-width="0.3"/>
    </g>
    <g>
     <path d="M215.379 66.036C214.955 65.79 214.269 66.185 213.844 66.918C213.703 67.162 213.609 67.412 213.562 67.641" stroke-width="0.13"/>
     <path d="M215.419 66.061C215.406 66.051 215.391 66.043 215.379 66.036" stroke-width="0.13"/>
    </g>
    <g>
     <path d="M182.27 139.325C184.674 140.711 188.265 139.686 190.299 137.033" stroke-width="0.13"/>
    </g>
    <g>
     <path d="M227.099 89.027C228.662 86.987 228.847 84.584 227.737 82.923" stroke-width="0.13"/>
    </g>
    <g>
     <path d="M95.998 0.205C94.974 0.055 93.911 0.212 92.938 0.599" stroke-width="0.3"/>
    </g>
    <g>
     <path d="M92.896 0.615C91.635 1.108 90.563 1.951 89.804 2.945" stroke-width="0.3"/>
    </g>
    <g>
     <path d="M45.246 61.128C44.406 62.435 44.125 64.009 44.405 65.286" stroke-width="0.3"/>
    </g>
    <g>
     <path d="M183.865 147.8C186.266 149.187 189.86 148.163 191.894 145.512" stroke-width="0.3"/>
    </g>
    <g>
     <path d="M237.281 83.144C237.058 82.225 236.551 81.403 235.858 80.75" stroke-width="0.3"/>
     <path d="M236.813 86.676C237.419 85.364 237.554 84.152 237.281 83.144" stroke-width="0.3"/>
    </g>
    <g>
     <path d="M50.409 55.283C49.444 57.713 49.805 60.201 51.167 62.118" stroke-width="0.3"/>
    </g>
    <g>
     <path d="M92.135 4.147C90.397 4.192 88.727 5.046 87.582 6.33" stroke-width="0.3"/>
    </g>
    <g>
     <path d="M93.927 4.306C93.308 4.147 92.683 4.099 92.135 4.147" stroke-width="0.3"/>
    </g>
    <g>
     <path d="M97.805 0.808C97.513 0.64 97.069 0.85 96.727 1.29" stroke-width="0.13"/>
     <path d="M97.835 0.826C97.825 0.819 97.814 0.813 97.805 0.808" stroke-width="0.13"/>
    </g>
    <g>
     <path d="M183.674 145.676C183.268 146.207 183.145 146.897 183.401 147.218" stroke-width="0.13"/>
    </g>
    <g>
     <path d="M234.801 79.902C234.51 79.734 234.064 79.944 233.724 80.385" stroke-width="0.13"/>
     <path d="M234.832 79.921C234.822 79.914 234.812 79.908 234.801 79.902" stroke-width="0.13"/>
    </g>
    <g>
     <path d="M235.592 87.319C237.157 85.281 237.34 82.873 236.227 81.21" stroke-width="0.13"/>
    </g>
    <g>
     <path d="M183.401 147.218C185.804 148.605 189.396 147.58 191.431 144.93" stroke-width="0.13"/>
    </g>
    <g>
     <path d="M46.677 66.581C46.618 66.658 46.567 66.737 46.524 66.811C46.234 67.316 46.194 67.853 46.405 68.123" stroke-width="0.13"/>
    </g>
    <g>
     <path d="M224.122 79.138C221.31 77.287 215.901 78.302 211.282 81.391" stroke-width="0.13"/>
    </g>
    <g>
     <path d="M180.001 122.198C178.246 127.891 178.641 134.763 180.882 137.58" stroke-width="0.13"/>
    </g>
    <g>
     <path d="M58.226 51.892C54.917 51.637 52.575 52.174 51.61 53.228" stroke-width="0.13"/>
    </g>
    <g>
     <path d="M96.727 1.29C94.799 0.182 91.933 1.002 90.304 3.124" stroke-width="0.13"/>
    </g>
    <g>
     <path d="M234.651 81.189C234.387 80.85 234.064 80.578 233.725 80.387" stroke-width="0.13"/>
     <path d="M234.258 86.236C235.562 84.531 235.668 82.518 234.651 81.189" stroke-width="0.13"/>
    </g>
    <g>
     <path d="M183.674 145.676C185.6 146.786 188.467 145.966 190.098 143.844" stroke-width="0.13"/>
    </g>
    <g>
     <path d="M46.143 60.732C44.515 62.859 44.758 65.468 46.677 66.581" stroke-width="0.13"/>
    </g>
    <g>
     <path d="M225.71 87.28C224.157 85.328 220.561 83.456 216.522 82.331C214.655 81.816 212.847 81.504 211.282 81.391" stroke-width="0.13"/>
    </g>
    <g>
     <path d="M180.877 137.578C183.28 138.965 186.875 137.939 188.907 135.288" stroke-width="0.13"/>
    </g>
    <g>
     <path d="M225.71 87.28C227.292 85.215 227.461 82.774 226.301 81.111" stroke-width="0.13"/>
    </g>
    <g>
     <path d="M58.226 51.892C53.09 55.338 50.548 60.273 52.341 63.167C52.417 63.289 52.502 63.408 52.579 63.505" stroke-width="0.13"/>
    </g>
    <g>
     <path d="M94.865 4.716C92.831 4.482 90.757 7.086 89.509 11.083" stroke-width="0.13"/>
     <path d="M95.496 4.887C95.28 4.794 95.061 4.737 94.865 4.716" stroke-width="0.13"/>
    </g>
    <line stroke-width="0.13" x1="45.93" x2="45.561" y1="67.962" y2="67.498"/>
    <line stroke-width="0.13" x1="227.099" x2="190.299" y1="89.027" y2="137.034"/>
    <line stroke-width="0.3" x1="92.896" x2="92.939" y1="0.615" y2="0.599"/>
    <line stroke-width="0.3" x1="87.581" x2="87.506" y1="6.331" y2="6.426"/>
    <line stroke-width="0.13" x1="183.865" x2="183.401" y1="147.801" y2="147.218"/>
    <line stroke-width="0.13" x1="191.431" x2="235.592" y1="144.93" y2="87.319"/>
    <line stroke-width="0.13" x1="46.405" x2="46.868" y1="68.123" y2="68.706"/>
    <line stroke-width="0.13" x1="180.002" x2="211.282" y1="122.198" y2="81.391"/>
    <line stroke-width="0.13" x1="182.269" x2="180.878" y1="139.324" y2="137.578"/>
    <line stroke-width="0.13" x1="90.305" x2="88.484" y1="3.123" y2="5.496"/>
    <line stroke-width="0.13" x1="233.724" x2="96.727" y1="80.385" y2="1.29"/>
    <line stroke-width="0.13" x1="190.098" x2="234.259" y1="143.844" y2="86.234"/>
    <line stroke-width="0.13" x1="46.677" x2="183.674" y1="66.581" y2="145.676"/>
    <line stroke-width="0.13" x1="50.515" x2="46.143" y1="55.029" y2="60.731"/>
    <line stroke-width="0.13" x1="227.099" x2="225.71" y1="89.027" y2="87.28"/>
    <line stroke-width="0.13" x1="225.71" x2="188.907" y1="87.28" y2="135.288"/>
    <line stroke-width="0.13" x1="52.581" x2="53.97" y1="63.505" y2="65.251"/>
    <line stroke-width="0.13" x1="89.507" x2="58.226" y1="11.085" y2="51.892"/>
    <path d="M215.633 66.361C215.53 66.028 215.155 65.908 214.885 65.753L122.439 12.378L121.906 12.07" stroke-width="0.3"/>
    <path d="M182.269 139.324L181.736 139.018L54.503 65.56C54.148 65.353 53.792 65.165 53.469 64.909L53.033 64.507" stroke-width="0.13"/>
    <path d="M95.998 0.206C96.418 0.258 96.828 0.362 97.221 0.524L97.724 0.772" stroke-width="0.3"/>
    <path d="M45.246 61.127C45.484 60.759 45.75 60.414 46.015 60.067L89.43 3.434L89.804 2.945" stroke-width="0.3"/>
    <path d="M183.865 147.801L183.332 147.493L47.401 69.013C47.045 68.808 46.689 68.62 46.365 68.364C45.945 68.03 45.883 67.902 45.548 67.481L45.485 67.403L45.101 66.921C44.753 66.424 44.542 65.873 44.405 65.286" stroke-width="0.3"/>
    <path d="M236.813 86.674L236.473 87.298C236.237 87.679 235.954 88.036 235.682 88.39L192.269 145.024L191.895 145.512" stroke-width="0.3"/>
    <path d="M97.328 0.576L97.835 0.827L98.368 1.133L234.3 79.614C234.626 79.802 234.995 79.998 235.294 80.231L235.705 80.599L235.858 80.748" stroke-width="0.3"/>
    <path d="M50.409 55.283C50.612 54.795 50.844 54.317 51.136 53.875C51.393 53.484 51.7 53.11 51.984 52.738L86.87 7.23L87.245 6.742L87.534 6.391" stroke-width="0.3"/>
    <path d="M53.033 64.507L52.649 64.028L51.701 62.841C51.259 62.287 51.426 62.536 51.168 62.119" stroke-width="0.3"/>
    <path d="M227.737 82.923L227.355 82.441L226.685 81.593C226.3 81.108 225.924 80.593 225.467 80.168C224.895 79.635 224.264 79.219 223.588 78.829L96.468 5.437C95.983 5.155 95.498 4.857 94.981 4.637C94.528 4.442 94.405 4.429 93.927 4.306" stroke-width="0.3"/>
    <path d="M89.804 2.945C89.975 2.911 90.162 3.044 90.305 3.123" stroke-width="0.13"/>
    <path d="M190.098 143.844C190.544 144.116 190.98 144.433 191.336 144.82C191.537 145.038 191.711 145.281 191.895 145.512" stroke-width="0.13"/>
    <path d="M234.259 86.234C234.707 86.507 235.144 86.823 235.5 87.21C235.699 87.427 235.872 87.671 236.056 87.902" stroke-width="0.13"/>
    <path d="M45.101 66.921C45.43 67.332 45.491 67.456 45.908 67.787C46.222 68.036 46.593 68.233 46.938 68.432L182.868 146.912L183.401 147.218" stroke-width="0.13"/>
    <path d="M45.642 60.555C45.814 60.521 46 60.655 46.143 60.731" stroke-width="0.13"/>
    <path d="M58.226 51.892L58.759 52.2L179.468 121.891L180.002 122.198L180.329 122.718C181.085 123.921 181.824 125.141 182.616 126.323L185.046 129.955L185.389 130.466C186.11 131.509 186.848 132.544 187.598 133.568C188.462 134.751 189.388 135.888 190.299 137.034" stroke-width="0.13"/>
    <path d="M211.282 81.391L210.751 81.084L90.04 11.393C89.331 10.983 89.611 11.262 89.197 10.554C88.668 9.651 88.12 8.757 87.652 7.823C87.486 7.492 87.269 7.12 87.245 6.742" stroke-width="0.13"/>
    <path d="M180.878 137.578L180.346 137.27L53.112 63.813C52.774 63.618 52.408 63.421 52.098 63.179C51.698 62.866 51.637 62.749 51.317 62.362" stroke-width="0.13"/>
   </g>
  </g>
  <polygon points="231.493 114.861 228.157 113.816 224.643 110.506 220.058 112.798 219.193 118.783 220.543 120.692 220.9 123.519 223.835 126.281 227.877 128.584 230.572 128.472 233.997 126.9 236.001 119.929 231.493 114.861" stroke-width="0.13"/>
  <g>
   <line stroke="#FFFFFF" stroke-width="2" x1="236.641" x2="241.039" y1="132.43" y2="137.955"/>
   <line stroke-dasharray="5 1 1 1" stroke-width="0.13" x1="235.979" x2="241.08" y1="131.597" y2="138.006"/>
   <line stroke-width="0.13" x1="241.08" x2="241.704" y1="138.006" y2="138.788"/>
  </g>
  <g>
   <g>
    <path d="M230.54 123.073C230.235 122.828 229.741 122.879 229.366 123.177C228.986 123.48 228.842 123.947 229.002 124.29" stroke-width="0.3"/>
   </g>
   <g>
    <path d="M228.873 124.161C228.882 124.171 228.889 124.18 228.895 124.189C229.169 124.534 229.742 124.534 230.175 124.188C230.596 123.855 230.729 123.319 230.484 122.971" stroke-width="0.3"/>
    <path d="M230.461 122.942C230.187 122.597 229.615 122.597 229.182 122.942C228.763 123.277 228.629 123.813 228.875 124.161" stroke-width="0.13"/>
    <path d="M230.484 122.971C230.477 122.96 230.468 122.95 230.461 122.942" stroke-width="0.13"/>
    <path d="M230.344 123.036C230.229 122.89 230.066 122.742 229.868 122.742L229.895 122.626C230.161 122.626 230.421 122.65 230.58 122.849L230.344 123.036z" fill="#000000" stroke="none"/>
   </g>
   <g>
    <path d="M228.11 124.724C228.125 124.745 228.139 124.765 228.152 124.781C228.687 125.453 229.804 125.453 230.646 124.781C231.466 124.129 231.725 123.084 231.248 122.406" stroke-width="0.13"/>
    <path d="M231.205 122.349C230.671 121.679 229.555 121.679 228.711 122.35C227.893 123.003 227.633 124.048 228.11 124.725" stroke-width="0.3"/>
    <path d="M231.247 122.406C231.234 122.387 231.218 122.367 231.205 122.349" stroke-width="0.3"/>
    <path d="M231.384 123.566C231.484 123.134 231.336 122.79 231.127 122.495L231.368 122.317C231.592 122.632 231.608 123.103 231.502 123.566L231.384 123.566z" fill="#000000" stroke="none"/>
   </g>
   <g>
    <path d="M228.331 125.009C228.866 125.68 229.984 125.68 230.826 125.009C231.645 124.356 231.905 123.311 231.427 122.634" stroke-width="0.3"/>
   </g>
   <line stroke-width="0.3" x1="228.15" x2="228.33" y1="124.778" y2="125.006"/>
   <line stroke-width="0.3" x1="231.207" x2="231.427" y1="122.352" y2="122.634"/>
  </g>
  <g>
   <g>
    <g>
     <path d="M12.442 80.831C10.901 80.811 9.153 81.882 7.702 83.564" stroke-width="0.13"/>
    </g>
    <g>
     <path d="M11.169 83.028C11.483 83.197 11.755 83.216 11.964 83.112" stroke-width="0.13"/>
    </g>
    <g>
     <path d="M15.454 82.673C15.343 82.786 15.362 83.036 15.493 83.262C15.583 83.42 15.711 83.533 15.83 83.576" stroke-width="0.3"/>
    </g>
    <g>
     <path d="M16.708 82.691C16.82 82.579 16.8 82.328 16.67 82.102C16.528 81.853 16.3 81.715 16.152 81.783" stroke-width="0.3"/>
    </g>
    <g>
     <path d="M14.98 82.945C14.868 83.057 14.887 83.308 15.018 83.534C15.162 83.784 15.391 83.923 15.541 83.852" stroke-width="0.13"/>
    </g>
    <g>
     <path d="M14.284 109.655C15.259 110.085 16.568 110.096 17.565 109.727" stroke-width="0.13"/>
    </g>
    <g>
     <path d="M13.131 108.415C13.275 109.274 14.526 109.918 16.004 109.924C17.129 109.927 18.105 109.558 18.591 109.01" stroke-width="0.13"/>
    </g>
    <g>
     <path d="M11.535 86.769C11.59 87.028 11.75 87.293 11.931 87.451" stroke-width="0.13"/>
    </g>
    <g>
     <path d="M8.585 84.805C8.399 84.697 8.221 84.67 8.099 84.715" stroke-width="0.13"/>
    </g>
    <g>
     <path d="M10.945 86.629C10.746 86.78 10.759 87.183 10.973 87.552C11.198 87.942 11.563 88.153 11.787 88.024C11.797 88.018 11.807 88.012 11.814 88.006" stroke-width="0.13"/>
     <path d="M10.973 86.612C10.962 86.617 10.952 86.625 10.945 86.631" stroke-width="0.3"/>
     <path d="M11.814 88.007C12.013 87.858 12 87.453 11.787 87.082C11.561 86.694 11.196 86.483 10.973 86.612" stroke-width="0.3"/>
    </g>
    <g>
     <path d="M50.192 128.983C50.822 130.627 51.847 131.822 53.055 132.501" stroke-width="0.13"/>
    </g>
    <g>
     <path d="M49.978 129.243C50.603 130.872 51.627 132.073 52.835 132.77" stroke-width="0.13"/>
    </g>
    <g>
     <path d="M124.328 147.566C126.191 142.173 125.808 137.394 123.65 134.84" stroke-width="0.13"/>
    </g>
    <g>
     <path d="M109.415 163.645C113.909 166.139 121.108 161.93 125.552 154.228C130.026 146.467 130.022 138.081 125.542 135.498C125.515 135.483 125.486 135.467 125.462 135.454" stroke-width="0.13"/>
     <path d="M109.337 163.602C109.364 163.617 109.393 163.633 109.415 163.646" stroke-width="0.3"/>
     <path d="M125.463 135.455C120.968 132.961 113.769 137.17 109.326 144.872C104.852 152.632 104.855 161.018 109.337 163.602" stroke-width="0.3"/>
    </g>
    <g>
     <path d="M126.188 134.478C126.173 134.468 126.158 134.461 126.144 134.453C121.331 131.677 113.531 136.187 108.724 144.524C103.93 152.836 103.92 161.814 108.691 164.622" stroke-width="0.13"/>
     <path d="M108.733 164.646C113.546 167.423 121.346 162.913 126.155 154.575C130.948 146.264 130.959 137.284 126.188 134.478" stroke-width="0.3"/>
     <path d="M108.691 164.622C108.706 164.631 108.721 164.639 108.733 164.646" stroke-width="0.3"/>
     <path d="M105.167 156.644C105.168 160.534 106.569 163.2 108.766 164.491L108.615 164.752C106.403 163.45 105.076 160.616 105.075 156.698L105.167 156.644z" fill="#000000" stroke="none"/>
    </g>
    <g>
     <path d="M107.813 162.289C112.876 163.2 119.64 157.866 123.251 150.217" stroke-width="0.13"/>
    </g>
    <g>
     <path d="M108.087 162.311C115.426 155.64 119.588 145.479 120.024 135.144" stroke-width="0.13"/>
    </g>
    <g>
     <path d="M107.841 162.317C112.433 163.126 118.385 158.843 122.191 152.298C126.081 145.561 126.594 138.352 123.682 134.846" stroke-width="0.13"/>
    </g>
    <g>
     <path d="M108.084 162.32C112.664 162.925 118.444 158.661 122.158 152.27C126.039 145.542 126.543 138.342 123.629 134.835" stroke-width="0.13"/>
    </g>
    <g>
     <path d="M48.139 109.896C47.918 109.89 47.716 110.052 47.618 110.29" stroke-width="0.13"/>
    </g>
    <g>
     <path d="M48.539 111.798C48.197 112.614 48.265 113.358 48.667 113.662" stroke-width="0.13"/>
    </g>
    <g>
     <path d="M48.96 113.076C48.802 113.239 48.695 113.462 48.668 113.664" stroke-width="0.13"/>
    </g>
    <g>
     <path d="M41.351 85.498C36.524 82.811 28.783 87.332 24.007 95.612C19.41 103.584 19.213 112.17 23.437 115.353" stroke-width="0.13"/>
    </g>
    <g>
     <path d="M32.725 86.409C31.027 85.429 29.486 85.316 28.358 85.927" stroke-width="0.13"/>
    </g>
    <g>
     <path d="M48.171 127.111C47.932 127.198 47.701 127.427 47.539 127.706C47.265 128.185 47.264 128.699 47.533 128.866" stroke-width="0.13"/>
    </g>
    <g>
     <path d="M48.308 127.39C48.118 127.352 47.869 127.53 47.712 127.805C47.531 128.117 47.529 128.455 47.701 128.568" stroke-width="0.13"/>
    </g>
    <g>
     <path d="M46.021 112.469C45.96 112.436 45.877 112.462 45.826 112.53C45.776 112.596 45.774 112.68 45.817 112.73" stroke-width="0.13"/>
    </g>
    <g>
     <path d="M48.923 128.65C48.905 128.843 48.981 129.032 49.112 129.171C49.304 129.375 49.585 129.437 49.817 129.348" stroke-width="0.13"/>
    </g>
    <g>
     <path d="M48.84 128.48C48.832 128.495 48.825 128.508 48.819 128.52C48.668 128.812 48.679 129.117 48.837 129.223" stroke-width="0.13"/>
    </g>
    <g>
     <path d="M49.1 128.848C49.274 128.932 49.521 128.909 49.74 128.802C50.049 128.651 50.228 128.372 50.165 128.155" stroke-width="0.13"/>
    </g>
    <g>
     <path d="M41.255 119.792C41.418 119.9 41.637 119.921 41.841 119.867C42.164 119.78 42.38 119.518 42.36 119.253" stroke-width="0.13"/>
    </g>
    <g>
     <path d="M45.679 121.039C45.661 121.177 45.945 121.328 46.311 121.376C46.668 121.423 46.975 121.353 47.006 121.221" stroke-width="0.13"/>
     <path d="M45.68 121.028C45.679 121.033 45.679 121.036 45.679 121.039" stroke-width="0.13"/>
    </g>
    <g>
     <path d="M46.36 119.783C45.774 120.734 45.658 121.81 46.005 122.534" stroke-width="0.13"/>
    </g>
    <g>
     <path d="M45.878 122.412C45.996 122.62 46.345 122.659 46.667 122.501C47 122.34 47.182 122.028 47.075 121.808C47.072 121.802 47.069 121.796 47.066 121.792" stroke-width="0.13"/>
    </g>
    <g>
     <path d="M50.38 115.18C50.64 114.753 50.701 114.28 50.579 113.89" stroke-width="0.13"/>
    </g>
    <g>
     <path d="M50.161 113.319C50.142 113.293 50.118 113.272 50.095 113.26C49.915 113.153 49.618 113.325 49.43 113.644C49.293 113.876 49.253 114.123 49.314 114.284" stroke-width="0.13"/>
    </g>
    <g>
     <path d="M45.143 113.896C45.732 114.236 46.564 113.938 47 113.23" stroke-width="0.13"/>
    </g>
    <g>
     <path d="M45.917 112.01C45.869 112.222 45.914 112.394 46.021 112.469" stroke-width="0.13"/>
    </g>
    <g>
     <path d="M41.942 117.231C41.359 118.186 41.119 119.189 41.281 119.808" stroke-width="0.13"/>
    </g>
    <g>
     <path d="M41.088 118.311C41.06 118.475 41.314 118.677 41.662 118.766C42.021 118.858 42.347 118.799 42.39 118.634C42.39 118.629 42.392 118.626 42.392 118.623" stroke-width="0.13"/>
    </g>
    <g>
     <path d="M42.512 124.903C42.6 125.183 42.948 125.328 43.296 125.234C43.654 125.138 43.881 124.825 43.802 124.539C43.801 124.533 43.799 124.528 43.798 124.522" stroke-width="0.13"/>
    </g>
    <g>
     <path d="M44.32 125.069C44.316 125.066 44.311 125.063 44.307 125.061C44.121 124.953 43.822 125.128 43.637 125.448C43.457 125.76 43.453 126.097 43.624 126.213" stroke-width="0.13"/>
    </g>
    <g>
     <path d="M42.957 125.65C42.996 125.697 43.247 125.546 43.518 125.311" stroke-width="0.13"/>
     <path d="M42.954 125.647C42.954 125.649 42.956 125.65 42.957 125.65" stroke-width="0.13"/>
    </g>
    <g>
     <path d="M24.67 83.54C25.195 83.239 25.62 82.301 25.62 81.445" stroke-width="0.13"/>
    </g>
    <g>
     <path d="M34.969 75.89C32.505 74.09 30.153 73.686 28.443 74.515" stroke-width="0.13"/>
    </g>
    <g>
     <path d="M26.314 72.144C26.278 72.165 26.245 72.186 26.214 72.204" stroke-width="0.13"/>
     <path d="M34.969 75.888C32.13 72.302 28.593 70.859 26.314 72.144" stroke-width="0.13"/>
    </g>
    <g>
     <path d="M21.1 75.156C21.067 75.174 21.033 75.194 21.006 75.212" stroke-width="0.13"/>
     <path d="M29.858 79.028C27.01 75.358 23.411 73.85 21.1 75.156" stroke-width="0.13"/>
    </g>
    <g>
     <path d="M35.435 79.557C35.728 79.518 36.018 79.439 36.267 79.341" stroke-width="0.13"/>
    </g>
    <g>
     <path d="M39.691 77.371C39.825 77.254 39.878 77.144 39.859 77.055" stroke-width="0.13"/>
    </g>
    <g>
     <path d="M59.765 96.131C59.49 95.739 59.095 95.519 58.825 95.587" stroke-width="0.3"/>
    </g>
    <g>
     <path d="M47.155 121.974C47.465 122.001 47.853 121.712 48.112 121.29C48.216 121.12 48.287 120.947 48.328 120.787" stroke-width="0.13"/>
    </g>
    <g>
     <path d="M52.835 107.269C52.877 107.245 52.909 107.216 52.93 107.186C53.253 106.731 52.024 105.308 50.185 104.007C48.918 103.111 47.694 102.506 46.938 102.364" stroke-width="0.13"/>
    </g>
    <g>
     <path d="M52.692 107.453C52.755 107.569 52.844 107.664 52.939 107.721" stroke-width="0.13"/>
    </g>
    <g>
     <path d="M53.258 110.459C53.395 110.12 53.427 109.805 53.371 109.564" stroke-width="0.13"/>
    </g>
    <g>
     <path d="M70.611 102.391C70.561 102.361 70.512 102.332 70.469 102.308C65.641 99.531 57.828 104.058 53.018 112.42C52.853 112.706 52.695 112.993 52.563 113.24" stroke-width="0.13"/>
    </g>
    <g>
     <path d="M70.823 102.121C66.042 99.132 58.149 103.474 53.133 111.834" stroke-width="0.13"/>
    </g>
    <g>
     <path d="M88.936 112.734C89.209 112.893 89.563 112.969 89.921 112.969" stroke-width="0.13"/>
    </g>
    <g>
     <path d="M85.173 110.236C85.177 110.456 85.331 110.653 85.581 110.796" stroke-width="0.13"/>
     <path d="M85.173 110.227C85.173 110.23 85.173 110.233 85.173 110.236" stroke-width="0.13"/>
    </g>
    <g>
     <path d="M97.68 118.019C97.406 117.631 97.013 117.411 96.742 117.477" stroke-width="0.3"/>
    </g>
    <g>
     <path d="M21.701 88.855C20.786 89.381 19.913 90.198 19.208 91.123" stroke-width="0.13"/>
    </g>
    <g>
     <path d="M21.701 88.528C21.701 88.453 21.673 88.368 21.631 88.295C21.585 88.215 21.524 88.153 21.463 88.117" stroke-width="0.13"/>
    </g>
    <g>
     <path d="M25.14 88.137C23.184 87.108 20.1 88.936 18.187 92.233C17.417 93.563 16.951 94.936 16.792 96.156" stroke-width="0.13"/>
    </g>
    <g>
     <path d="M25.42 88.042C25.367 88.004 25.312 87.968 25.263 87.941C23.282 86.781 20.042 88.632 18.027 92.075C17.3 93.322 16.83 94.603 16.629 95.76" stroke-width="0.13"/>
    </g>
    <g>
     <path d="M23.442 88.138C21.65 88.507 19.765 90.185 18.483 92.368C17.591 93.897 17.109 95.486 17.038 96.852" stroke-width="0.13"/>
    </g>
    <g>
     <path d="M25.339 87.875C25.275 87.829 25.21 87.787 25.152 87.754C23.117 86.578 19.815 88.483 17.777 92.009C17.167 93.066 16.739 94.15 16.504 95.138" stroke-width="0.13"/>
    </g>
    <g>
     <path d="M24.469 87.391C22.355 86.555 19.239 88.575 17.343 91.956" stroke-width="0.13"/>
    </g>
    <g>
     <path d="M25.155 88.251C23.185 87.474 20.3 89.314 18.498 92.429C17.623 93.944 17.146 95.516 17.068 96.876" stroke-width="0.13"/>
    </g>
    <g>
     <path d="M17.486 98.646C16.917 95.23 14.702 91.759 12.082 89.909" stroke-width="0.13"/>
    </g>
    <g>
     <path d="M14.593 104.149C15.099 103.637 15.432 102.945 15.576 102.182" stroke-width="0.13"/>
    </g>
    <g>
     <path d="M15.067 104.74C17.301 103.165 17.182 98.733 14.842 94.671C12.48 90.581 8.701 88.308 6.234 89.441" stroke-width="0.13"/>
    </g>
    <g>
     <path d="M15.916 104.251C18.15 102.676 18.032 98.243 15.691 94.18C13.33 90.091 9.551 87.819 7.083 88.95" stroke-width="0.13"/>
    </g>
    <g>
     <path d="M15.695 100.132C15.432 97.043 13.561 93.674 11.151 91.668" stroke-width="0.13"/>
    </g>
    <g>
     <path d="M23.41 90.031C20.954 91.537 18.958 95.01 18.882 97.879" stroke-width="0.13"/>
    </g>
    <g>
     <path d="M24.074 89.319C22.516 89.992 21.035 91.498 19.989 93.305C18.885 95.221 18.417 97.225 18.588 98.802" stroke-width="0.13"/>
    </g>
    <g>
     <path d="M5.851 90.423C5.628 90.552 5.427 90.709 5.269 90.873" stroke-width="0.13"/>
     <path d="M11.148 91.668C9.166 90.037 7.206 89.653 5.851 90.423" stroke-width="0.13"/>
    </g>
    <g>
     <path d="M9.954 91.245C8.609 90.489 7.357 90.409 6.434 90.891" stroke-width="0.13"/>
    </g>
    <g>
     <path d="M5.687 91.948C3.835 93.102 3.873 96.647 5.759 99.915C7.65 103.192 10.701 104.983 12.621 103.96" stroke-width="0.13"/>
    </g>
    <g>
     <path d="M12.712 104.534C12.75 104.515 12.788 104.495 12.818 104.477C14.884 103.284 14.884 99.417 12.818 95.838C10.791 92.325 7.525 90.399 5.445 91.462" stroke-width="0.13"/>
     <path d="M5.339 91.521C3.273 92.713 3.272 96.581 5.338 100.159C7.365 103.671 10.632 105.599 12.711 104.534" stroke-width="0.3"/>
     <path d="M5.443 91.462C5.407 91.483 5.37 91.503 5.339 91.521" stroke-width="0.3"/>
     <path d="M9.079 91.944C7.682 91.138 6.456 91.111 5.519 91.593L5.373 91.331C6.326 90.84 7.658 91.018 9.079 91.837L9.079 91.944z" fill="#000000" stroke="none"/>
    </g>
    <g>
     <path d="M13.733 103.947C14.718 103.432 15.268 102.311 15.35 100.93" stroke-width="0.13"/>
    </g>
    <g>
     <path d="M11.503 104.816C12.659 105.171 13.922 104.868 14.615 104.129" stroke-width="0.13"/>
    </g>
    <g>
     <path d="M5.607 91.986C3.69 93.093 3.69 96.682 5.607 100.003C7.525 103.323 10.634 105.118 12.551 104.013C12.551 104.012 12.551 104.012 12.551 104.012" stroke-width="0.13"/>
     <path d="M5.607 91.986C5.607 91.986 5.605 91.986 5.605 91.986" stroke-width="0.3"/>
     <path d="M12.55 104.013C12.55 104.013 12.55 104.013 12.551 104.013C14.468 102.906 14.467 99.316 12.55 95.995C10.631 92.674 7.524 90.879 5.607 91.986" stroke-width="0.3"/>
     <path d="M5.682 92.115C4.743 92.656 4.214 93.771 4.214 95.191L4.123 95.138C4.123 93.655 4.552 92.421 5.532 91.855L5.682 92.115z" fill="#000000" stroke="none"/>
    </g>
    <g>
     <path d="M9.394 86.152C9.374 85.65 9.013 85.052 8.585 84.805" stroke-width="0.3"/>
    </g>
    <g>
     <path d="M9.21 86.323C9.303 86.283 9.375 86.168 9.387 86.052" stroke-width="0.3"/>
    </g>
    <g>
     <path d="M11.285 86.609C11.253 86.805 11.317 87.052 11.442 87.274C11.58 87.515 11.769 87.688 11.948 87.754" stroke-width="0.3"/>
    </g>
    <g>
     <path d="M25.984 83.588C26.341 83.382 26.51 82.963 26.466 82.504" stroke-width="0.3"/>
    </g>
    <g>
     <path d="M24.178 83.825C24.653 83.543 25.013 82.814 25.121 81.996C25.164 81.671 25.163 81.358 25.126 81.088" stroke-width="0.3"/>
    </g>
    <g>
     <path d="M29.885 79.542C27.469 77.733 25.217 77.313 23.562 78.108" stroke-width="0.3"/>
    </g>
    <g>
     <path d="M35.59 80.162C35.88 80.123 36.173 80.046 36.42 79.947" stroke-width="0.3"/>
    </g>
    <g>
     <path d="M39.844 77.977C39.978 77.858 40.033 77.75 40.014 77.661" stroke-width="0.3"/>
    </g>
    <g>
     <path d="M39.859 77.054C39.841 76.956 39.743 76.885 39.591 76.846" stroke-width="0.3"/>
    </g>
    <g>
     <path d="M26.786 71.871C26.754 71.891 26.722 71.909 26.696 71.926" stroke-width="0.3"/>
     <path d="M35.548 75.748C32.701 72.075 29.097 70.563 26.786 71.871" stroke-width="0.3"/>
    </g>
    <g>
     <path d="M21.573 74.882C21.539 74.902 21.506 74.921 21.478 74.939" stroke-width="0.3"/>
     <path d="M30.231 78.626C27.393 75.039 23.85 73.593 21.573 74.882" stroke-width="0.3"/>
    </g>
    <g>
     <path d="M11.638 82.754C11.859 82.876 12.086 82.924 12.24 82.894" stroke-width="0.3"/>
    </g>
    <g>
     <path d="M9.884 81.536C9.021 82.034 8.202 82.756 7.517 83.572" stroke-width="0.3"/>
    </g>
    <g>
     <path d="M10.057 85.075C9.372 85.62 9.147 86.67 9.346 87.894" stroke-width="0.3"/>
    </g>
    <g>
     <path d="M17.297 109.816C17.751 109.685 18.128 109.484 18.387 109.257" stroke-width="0.3"/>
    </g>
    <g>
     <path d="M13.119 108.188C13.066 108.808 13.646 109.442 14.487 109.734" stroke-width="0.3"/>
    </g>
    <g>
     <path d="M24.731 88.123C24.268 88.027 23.768 88.049 23.289 88.171" stroke-width="0.3"/>
    </g>
    <g>
     <path d="M24.881 87.599C24.836 87.572 24.791 87.546 24.751 87.525C22.64 86.371 19.356 88.295 17.326 91.844" stroke-width="0.3"/>
    </g>
    <g>
     <path d="M53.645 110.51C53.847 110.016 53.896 109.545 53.814 109.188" stroke-width="0.3"/>
    </g>
    <g>
     <path d="M48.378 115.745C48.43 115.787 48.485 115.825 48.536 115.852" stroke-width="0.3"/>
     <path d="M48.149 113.873C47.75 114.528 47.857 115.319 48.378 115.745" stroke-width="0.3"/>
    </g>
    <g>
     <path d="M48.372 109.974C48.209 110.024 48.082 110.159 48.006 110.343" stroke-width="0.3"/>
    </g>
    <g>
     <path d="M50.225 111.796C50.253 111.727 50.271 111.656 50.279 111.59C50.317 111.298 50.2 111.03 50 110.912" stroke-width="0.3"/>
    </g>
    <g>
     <path d="M48.926 111.849C48.707 112.373 48.731 112.846 48.96 113.076" stroke-width="0.3"/>
    </g>
    <g>
     <path d="M46.17 119.688C45.786 120.311 45.619 120.989 45.662 121.569" stroke-width="0.3"/>
    </g>
    <g>
     <path d="M47.31 120.387C47.078 120.757 46.97 121.182 46.999 121.53" stroke-width="0.3"/>
    </g>
    <g>
     <path d="M50.475 115.257C50.682 114.921 50.753 114.555 50.706 114.234" stroke-width="0.3"/>
    </g>
    <g>
     <path d="M50.701 114.18C50.636 113.846 50.491 113.59 50.302 113.432" stroke-width="0.3"/>
    </g>
    <g>
     <path d="M47.292 122.257C47.783 122.121 48.301 121.534 48.512 120.896" stroke-width="0.3"/>
    </g>
    <g>
     <path d="M48.838 129.223C49.281 129.514 49.814 129.473 50.094 129.141C50.207 129.008 50.265 128.843 50.273 128.675" stroke-width="0.3"/>
    </g>
    <g>
     <path d="M47.531 128.866C47.679 128.961 47.895 128.925 48.091 128.794" stroke-width="0.3"/>
    </g>
    <g>
     <path d="M45.134 125.144C44.853 124.989 44.405 125.253 44.128 125.733C43.857 126.203 43.85 126.709 44.106 126.887" stroke-width="0.3"/>
    </g>
    <g>
     <path d="M43.523 117.844C43.402 118.052 43.302 118.284 43.231 118.507C42.968 119.328 43.03 120.087 43.366 120.243" stroke-width="0.3"/>
    </g>
    <g>
     <path d="M42.768 117.763C42.412 118.352 42.267 118.924 42.36 119.253" stroke-width="0.3"/>
    </g>
    <g>
     <path d="M44.987 113.784C45.337 114.081 45.878 114.153 46.292 113.977" stroke-width="0.3"/>
    </g>
    <g>
     <path d="M46.338 113.96C46.655 113.834 46.92 113.593 47.097 113.305" stroke-width="0.3"/>
    </g>
    <g>
     <path d="M45.932 110.293C45.591 111.106 45.658 111.847 46.055 112.155" stroke-width="0.3"/>
    </g>
    <g>
     <path d="M45.582 111.242C45.24 111.367 44.962 111.611 44.77 111.92" stroke-width="0.3"/>
    </g>
    <g>
     <path d="M41.624 117.067C41.067 117.983 40.881 118.903 41.06 119.543" stroke-width="0.3"/>
    </g>
    <g>
     <path d="M42.878 125.555C43.042 125.759 43.228 125.936 43.414 126.072" stroke-width="0.3"/>
     <path d="M42.877 125.552C42.878 125.552 42.878 125.555 42.878 125.555" stroke-width="0.3"/>
    </g>
    <g>
     <path d="M46.621 106.628C46.759 106.29 46.792 105.974 46.735 105.734" stroke-width="0.3"/>
    </g>
    <g>
     <path d="M46.445 103.707C46.384 103.59 46.293 103.496 46.198 103.439" stroke-width="0.3"/>
    </g>
    <g>
     <path d="M53.277 106.891C53.319 106.868 53.351 106.84 53.372 106.808C53.695 106.355 52.466 104.932 50.628 103.631C49.362 102.733 48.137 102.128 47.381 101.986" stroke-width="0.3"/>
    </g>
    <g>
     <path d="M65.125 98.831C61.405 96.51 55.804 98.623 51.061 103.701" stroke-width="0.3"/>
    </g>
    <g>
     <path d="M33.503 84.099C31.271 84.439 29.027 85.39 27.182 86.661" stroke-width="0.3"/>
    </g>
    <g>
     <path d="M22.771 114.923C23.208 115.251 23.664 115.543 24.077 115.769" stroke-width="0.3"/>
     <path d="M26.329 87.281C24.728 88.551 23.332 90.015 22.239 91.495C16.135 99.635 16.373 110.123 22.771 114.923" stroke-width="0.3"/>
    </g>
    <g>
     <path d="M5.77 89.709C4.86 90.35 4.338 91.475 4.208 92.819" stroke-width="0.3"/>
    </g>
    <g>
     <path d="M6.112 90.859C6.041 90.9 5.972 90.944 5.916 90.984" stroke-width="0.3"/>
     <path d="M13.573 104.242C13.647 104.209 13.718 104.171 13.778 104.137C15.894 102.915 15.894 98.951 13.778 95.286C11.66 91.62 8.228 89.638 6.112 90.859" stroke-width="0.3"/>
    </g>
    <g>
     <path d="M11.118 104.802C12.464 105.412 13.676 105.444 14.605 105.009" stroke-width="0.3"/>
    </g>
    <g>
     <path d="M16.483 103.748C18.248 101.823 17.911 97.754 15.807 94.099C15.15 92.963 14.38 91.971 13.598 91.194" stroke-width="0.3"/>
    </g>
    <g>
     <path d="M8.989 97.493C8.855 97.57 8.855 97.819 8.989 98.051C9.121 98.281 9.337 98.406 9.471 98.328C9.471 98.328 9.471 98.328 9.471 98.328" stroke-width="0.13"/>
     <path d="M9.471 98.328C9.471 98.328 9.471 98.328 9.471 98.328C9.605 98.251 9.605 98.003 9.471 97.772C9.337 97.542 9.121 97.417 8.989 97.493" stroke-width="0.3"/>
     <path d="M9.064 97.623C9.018 97.65 8.935 97.671 8.935 97.74L8.843 97.688C8.843 97.555 8.827 97.414 8.913 97.364L9.064 97.623z" fill="#000000" stroke="none"/>
    </g>
    <g>
     <path d="M9.077 97.472C9.009 97.587 9.038 97.786 9.141 97.962C9.246 98.147 9.404 98.263 9.534 98.263" stroke-width="0.3"/>
    </g>
    <line stroke-width="0.13" x1="21.088" x2="19.028" y1="82.558" y2="84.634"/>
    <line stroke-width="0.13" x1="18.26" x2="19.028" y1="84.191" y2="84.634"/>
    <line stroke-width="0.13" x1="24.216" x2="22.571" y1="77.868" y2="78.819"/>
    <line stroke-width="0.13" x1="35.024" x2="34.869" y1="80.179" y2="79.572"/>
    <line stroke-width="0.13" x1="36.619" x2="36.774" y1="79.174" y2="79.781"/>
    <line stroke-width="0.13" x1="39.456" x2="39.609" y1="77.537" y2="78.144"/>
    <line stroke-width="0.3" x1="15.454" x2="16.332" y1="82.673" y2="81.787"/>
    <line stroke-width="0.13" x1="15.454" x2="14.98" y1="82.673" y2="82.945"/>
    <line stroke-width="0.13" x1="15.519" x2="16.327" y1="82.606" y2="83.075"/>
    <line stroke-width="0.13" x1="21.112" x2="21.083" y1="85.453" y2="85.405"/>
    <line stroke-width="0.13" x1="8.962" x2="9.368" y1="86.191" y2="85.957"/>
    <line stroke-width="0.13" x1="13.814" x2="13.814" y1="91.421" y2="90.614"/>
    <line stroke-width="0.13" x1="16.146" x2="12.211" y1="88.462" y2="90.004"/>
    <line stroke-width="0.13" x1="8.792" x2="9.316" y1="87.686" y2="87.655"/>
    <line stroke-width="0.13" x1="8.73" x2="9.346" y1="87.935" y2="87.897"/>
    <line stroke-width="0.13" x1="12.512" x2="14.289" y1="89.161" y2="87.37"/>
    <line stroke-width="0.13" x1="16.164" x2="14.289" y1="88.453" y2="87.37"/>
    <line stroke-width="0.13" x1="14.326" x2="14.675" y1="89.513" y2="90.117"/>
    <line stroke-width="0.13" x1="15.135" x2="15.484" y1="89.046" y2="89.65"/>
    <line stroke-width="0.13" x1="25.62" x2="25.126" y1="81.445" y2="81.73"/>
    <line stroke-width="0.13" x1="127.21" x2="123.813" y1="150.844" y2="148.894"/>
    <line stroke-width="0.13" x1="108.075" x2="107.793" y1="162.317" y2="162.259"/>
    <line stroke-width="0.13" x1="44.628" x2="44.332" y1="116.016" y2="116.742"/>
    <line stroke-width="0.13" x1="46.737" x2="53.371" y1="105.734" y2="109.566"/>
    <line stroke-width="0.13" x1="46.621" x2="53.258" y1="106.629" y2="110.459"/>
    <line stroke-width="0.13" x1="47.618" x2="47.353" y1="110.29" y2="110.941"/>
    <line stroke-width="0.13" x1="49.143" x2="49.207" y1="114.453" y2="114.295"/>
    <line stroke-width="0.13" x1="30.231" x2="34.97" y1="78.626" y2="75.89"/>
    <line stroke-width="0.13" x1="30.004" x2="29.859" y1="79.603" y2="79.03"/>
    <line stroke-width="0.13" x1="28.507" x2="28.507" y1="79.706" y2="85.849"/>
    <line stroke-width="0.13" x1="45.92" x2="48.527" y1="110.322" y2="111.826"/>
    <line stroke-width="0.13" x1="48.844" x2="46.307" y1="111.838" y2="110.373"/>
    <line stroke-width="0.13" x1="50.497" x2="50.395" y1="113.695" y2="113.534"/>
    <line stroke-width="0.13" x1="50.578" x2="50.502" y1="113.884" y2="113.7"/>
    <line stroke-width="0.13" x1="50.39" x2="50.261" y1="113.528" y2="113.391"/>
    <line stroke-width="0.13" x1="47.603" x2="48.74" y1="128.439" y2="129.097"/>
    <line stroke-width="0.13" x1="50.081" x2="50.024" y1="129.143" y2="129.213"/>
    <line stroke-width="0.13" x1="46.027" x2="49.1" y1="122.546" y2="128.848"/>
    <line stroke-width="0.13" x1="45.722" x2="43.093" y1="120.79" y2="119.272"/>
    <line stroke-width="0.13" x1="43.195" x2="45.895" y1="118.679" y2="120.236"/>
    <line stroke-width="0.13" x1="50.381" x2="47.213" y1="115.179" y2="120.313"/>
    <line stroke-width="0.13" x1="46.057" x2="48.667" y1="112.155" y2="113.664"/>
    <line stroke-width="0.13" x1="48.148" x2="46.859" y1="113.879" y2="113.135"/>
    <line stroke-width="0.13" x1="42.671" x2="45.036" y1="117.686" y2="113.819"/>
    <line stroke-width="0.13" x1="46.435" x2="43.652" y1="119.259" y2="117.653"/>
    <line stroke-width="0.13" x1="43.527" x2="43.927" y1="126.087" y2="126.317"/>
    <line stroke-width="0.13" x1="37.966" x2="37.948" y1="79.695" y2="79.706"/>
    <line stroke-width="0.13" x1="37.395" x2="37.948" y1="79.421" y2="79.706"/>
    <line stroke-width="0.13" x1="25.126" x2="25.62" y1="81.088" y2="81.373"/>
    <line stroke-width="0.13" x1="25.62" x2="25.62" y1="81.445" y2="81.373"/>
    <line stroke-width="0.13" x1="35.546" x2="29.859" y1="75.746" y2="79.03"/>
    <line stroke-width="0.13" x1="66.593" x2="37.966" y1="96.224" y2="79.695"/>
    <line stroke-width="0.13" x1="37.966" x2="37.966" y1="79.695" y2="84.233"/>
    <line stroke-width="0.13" x1="37.948" x2="37.948" y1="79.706" y2="84.23"/>
    <line stroke-width="0.13" x1="77.021" x2="77.021" y1="106.093" y2="102.243"/>
    <line stroke-width="0.13" x1="53.381" x2="52.939" y1="107.343" y2="107.721"/>
    <line stroke-width="0.13" x1="52.548" x2="52.99" y1="106.049" y2="105.671"/>
    <line stroke-width="0.13" x1="53.371" x2="52.939" y1="109.566" y2="107.721"/>
    <line stroke-width="0.13" x1="48.912" x2="53.258" y1="121.126" y2="110.459"/>
    <line stroke-width="0.13" x1="52.404" x2="52.563" y1="113.558" y2="113.24"/>
    <line stroke-width="0.13" x1="53.131" x2="53.039" y1="111.834" y2="112"/>
    <line stroke-width="0.3" x1="85.173" x2="85.173" y1="106.95" y2="110.799"/>
    <line stroke-width="0.13" x1="89.921" x2="89.921" y1="112.969" y2="113.468"/>
    <line stroke-width="0.13" x1="95.599" x2="95.599" y1="112.969" y2="116.819"/>
    <line stroke-width="0.13" x1="85.183" x2="85.215" y1="110.694" y2="110.68"/>
    <line stroke-width="0.13" x1="85.183" x2="85.173" y1="110.694" y2="110.727"/>
    <line stroke-width="0.13" x1="101.477" x2="101.003" y1="115.816" y2="116.09"/>
    <line stroke-width="0.13" x1="85.581" x2="88.935" y1="110.798" y2="112.733"/>
    <line stroke-width="0.13" x1="101.003" x2="101.003" y1="116.09" y2="119.938"/>
    <line stroke-width="0.13" x1="17.344" x2="16.111" y1="91.953" y2="91.24"/>
    <line stroke-width="0.13" x1="11.041" x2="11.515" y1="87.659" y2="87.387"/>
    <line stroke-width="0.13" x1="25.135" x2="25.236" y1="88.135" y2="88.2"/>
    <line stroke-width="0.13" x1="16.504" x2="16.458" y1="95.141" y2="95.367"/>
    <line stroke-width="0.13" x1="17.067" x2="17.068" y1="96.938" y2="96.873"/>
    <line stroke-width="0.13" x1="15.725" x2="15.692" y1="100.847" y2="101.525"/>
    <line stroke-width="0.13" x1="9.079" x2="10.07" y1="91.891" y2="91.319"/>
    <line stroke-width="0.13" x1="15.692" x2="15.598" y1="101.525" y2="102.161"/>
    <line stroke-width="0.13" x1="18.129" x2="17.561" y1="100.786" y2="101.114"/>
    <line stroke-width="0.13" x1="15.695" x2="15.725" y1="100.134" y2="100.847"/>
    <line stroke-width="0.13" x1="14.882" x2="15.484" y1="104.847" y2="105.075"/>
    <line stroke-width="0.3" x1="12.224" x2="12.281" y1="82.777" y2="82.858"/>
    <line stroke-width="0.3" x1="26.765" x2="28.446" y1="75.483" y2="74.513"/>
    <line stroke-width="0.3" x1="101.477" x2="101.477" y1="120.212" y2="115.816"/>
    <line stroke-width="0.3" x1="9.67" x2="10.054" y1="84.534" y2="85.078"/>
    <line stroke-width="0.3" x1="13.32" x2="13.32" y1="90.924" y2="90.093"/>
    <line stroke-width="0.3" x1="26.468" x2="13.32" y1="82.504" y2="90.093"/>
    <line stroke-width="0.3" x1="7.463" x2="7.463" y1="86.387" y2="85.799"/>
    <line stroke-width="0.3" x1="25.984" x2="13.814" y1="83.587" y2="90.614"/>
    <line stroke-width="0.3" x1="20.903" x2="19.028" y1="85.716" y2="84.634"/>
    <line stroke-width="0.3" x1="19.158" x2="26.032" y1="84.709" y2="77.78"/>
    <line stroke-width="0.3" x1="39.859" x2="40.014" y1="77.055" y2="77.661"/>
    <line stroke-width="0.3" x1="35.546" x2="39.591" y1="75.746" y2="76.846"/>
    <line stroke-width="0.3" x1="13.119" x2="13.119" y1="105.29" y2="108.188"/>
    <line stroke-width="0.3" x1="23.838" x2="24.882" y1="86.998" y2="87.6"/>
    <line stroke-width="0.3" x1="14.481" x2="18.984" y1="92.182" y2="89.581"/>
    <line stroke-width="0.3" x1="66.593" x2="66.593" y1="99.68" y2="96.224"/>
    <line stroke-width="0.3" x1="108.683" x2="53.06" y1="164.617" y2="132.502"/>
    <line stroke-width="0.3" x1="70.611" x2="126.194" y1="102.393" y2="134.483"/>
    <line stroke-width="0.3" x1="53.276" x2="52.834" y1="106.893" y2="107.269"/>
    <line stroke-width="0.3" x1="53.645" x2="49.299" y1="110.51" y2="121.177"/>
    <line stroke-width="0.3" x1="49.378" x2="46.021" y1="114.394" y2="112.469"/>
    <line stroke-width="0.3" x1="47.685" x2="48.006" y1="111.132" y2="110.341"/>
    <line stroke-width="0.3" x1="49.716" x2="50.225" y1="113.045" y2="111.796"/>
    <line stroke-width="0.3" x1="50.475" x2="47.31" y1="115.259" y2="120.387"/>
    <line stroke-width="0.3" x1="50.701" x2="50.706" y1="114.18" y2="114.234"/>
    <line stroke-width="0.3" x1="47.701" x2="48.837" y1="128.568" y2="129.223"/>
    <line stroke-width="0.3" x1="44.106" x2="47.533" y1="126.888" y2="128.866"/>
    <line stroke-width="0.3" x1="48.026" x2="45.134" y1="126.813" y2="125.144"/>
    <line stroke-width="0.3" x1="43.451" x2="42.851" y1="117.972" y2="117.626"/>
    <line stroke-width="0.3" x1="47.435" x2="44.628" y1="117.638" y2="116.016"/>
    <line stroke-width="0.3" x1="45.662" x2="43.368" y1="121.566" y2="120.245"/>
    <line stroke-width="0.3" x1="45.137" x2="42.768" y1="113.89" y2="117.763"/>
    <line stroke-width="0.3" x1="46.338" x2="46.293" y1="113.96" y2="113.977"/>
    <line stroke-width="0.3" x1="41.625" x2="44.771" y1="117.066" y2="111.92"/>
    <line stroke-width="0.3" x1="46.465" x2="46.304" y1="103.753" y2="103.89"/>
    <line stroke-width="0.3" x1="46.737" x2="46.304" y1="105.734" y2="103.89"/>
    <line stroke-width="0.3" x1="43.86" x2="46.621" y1="113.409" y2="106.629"/>
    <line stroke-width="0.3" x1="45.911" x2="46.198" y1="102.218" y2="103.439"/>
    <line stroke-width="0.3" x1="51.067" x2="50.927" y1="103.698" y2="103.858"/>
    <line stroke-width="0.3" x1="26.321" x2="27.184" y1="87.286" y2="86.659"/>
    <line stroke-width="0.3" x1="45.648" x2="24.085" y1="128.223" y2="115.774"/>
    <line stroke-width="0.3" x1="17.82" x2="15.135" y1="103.727" y2="105.277"/>
    <line stroke-width="0.3" x1="14.513" x2="15.135" y1="105.04" y2="105.277"/>
    <line stroke-width="0.3" x1="17.82" x2="15.135" y1="103.727" y2="105.277"/>
    <line stroke-width="0.3" x1="7.083" x2="5.77" y1="88.95" y2="89.709"/>
    <line stroke-width="0.3" x1="12.712" x2="13.734" y1="104.534" y2="103.945"/>
    <line stroke-width="0.3" x1="6.432" x2="5.445" y1="90.891" y2="91.462"/>
    <path d="M21.088 82.558L20.356 82.98L17.079 84.873L16.349 85.295L15.753 85.894L14.884 86.771L14.289 87.37" stroke-width="0.3"/>
    <path d="M16.708 82.691L16.15 83.253L15.593 83.816L15.541 83.85" stroke-width="0.3"/>
    <path d="M16.152 81.784L16.096 81.82L15.538 82.384L14.98 82.945" stroke-width="0.13"/>
    <path d="M21.112 85.453C21.074 85.566 21.004 85.626 20.917 85.709" stroke-width="0.13"/>
    <path d="M12.039 89.435L12.634 88.834L21.977 79.418C22.283 79.109 22.675 78.68 23.044 78.417L23.565 78.105" stroke-width="0.13"/>
    <path d="M9.872 84.82L8.432 83.989L7.7 83.566C7.637 83.531 7.578 83.531 7.519 83.57" stroke-width="0.13"/>
    <path d="M8.433 84.891C8.346 84.951 8.38 84.918 8.326 84.986" stroke-width="0.13"/>
    <path d="M9.211 86.323C9.137 86.344 9.077 86.359 9 86.34" stroke-width="0.13"/>
    <path d="M9.06 86.775C9.18 86.748 9.227 86.686 9.304 86.591" stroke-width="0.13"/>
    <path d="M12.506 90.225C13.711 89.647 14.923 89.081 16.117 88.48" stroke-width="0.13"/>
    <path d="M45.932 110.293L46.664 110.715L47.807 111.376C48.652 111.862 48.259 111.76 48.926 111.849" stroke-width="0.13"/>
    <path d="M49.197 114.68C49.158 114.605 49.167 114.576 49.195 114.495" stroke-width="0.13"/>
    <path d="M49.996 128.622C50.073 128.8 50.148 128.972 50.073 129.161" stroke-width="0.13"/>
    <path d="M49.1 128.848C48.996 128.78 49.042 128.819 48.962 128.729" stroke-width="0.13"/>
    <path d="M47.31 120.387C46.975 120.109 46.57 119.865 46.173 119.686" stroke-width="0.13"/>
    <path d="M42.768 117.763C42.554 117.576 42.279 117.432 42.039 117.289C41.899 117.204 41.773 117.126 41.625 117.066" stroke-width="0.13"/>
    <path d="M41.058 119.543L41.103 119.638C41.192 119.751 41.142 119.698 41.255 119.792L42.71 125.159" stroke-width="0.13"/>
    <path d="M43.81 125.221C43.731 125.162 43.691 125.121 43.646 125.036" stroke-width="0.13"/>
    <path d="M43.518 125.311C43.679 125.167 43.915 124.99 43.966 124.769" stroke-width="0.13"/>
    <path d="M25.62 81.373L26.35 80.951L27.775 80.129C28.332 79.807 28.871 79.498 29.466 79.254" stroke-width="0.13"/>
    <path d="M35.435 79.557C34.948 79.605 34.536 79.536 34.03 79.481L30.699 79.12L29.859 79.03" stroke-width="0.13"/>
    <path d="M39.691 77.371C39.393 77.603 39.049 77.771 38.723 77.959L37.35 78.751C36.979 78.965 36.652 79.176 36.268 79.341" stroke-width="0.13"/>
    <path d="M58.965 95.668L58.991 95.579" stroke-width="0.3"/>
    <path d="M46.304 103.89C46.393 103.93 46.338 103.918 46.469 103.9" stroke-width="0.13"/>
    <path d="M46.939 102.362C46.246 102.224 46.588 102.271 45.911 102.218" stroke-width="0.13"/>
    <path d="M52.692 107.453C52.659 107.373 52.652 107.346 52.668 107.26" stroke-width="0.13"/>
    <path d="M66.593 99.501C66.614 99.658 66.594 99.588 66.644 99.709" stroke-width="0.13"/>
    <path d="M70.941 102.207C71.358 102.266 71.76 102.243 72.186 102.243L76.176 102.243L77.021 102.243L77.751 102.665L84.441 106.528L85.173 106.95" stroke-width="0.13"/>
    <path d="M85.215 110.68C85.572 110.762 85.936 111.042 86.216 111.203L88.308 112.412C88.754 112.668 89.171 112.903 89.581 113.201" stroke-width="0.13"/>
    <path d="M89.581 113.201C89.775 113.349 89.956 113.5 90.135 113.664" stroke-width="0.13"/>
    <path d="M89.921 112.969L90.765 112.969L94.754 112.969L95.599 112.969L96.331 113.391L100.271 115.667L101.003 116.09" stroke-width="0.13"/>
    <path d="M96.909 117.471L96.882 117.558" stroke-width="0.3"/>
    <path d="M17.327 91.843C17.3 91.909 17.298 91.879 17.324 91.938" stroke-width="0.13"/>
    <path d="M17.8 99.864C18.134 100.222 17.981 100.094 18.23 100.283" stroke-width="0.13"/>
    <path d="M17.591 99.548C17.899 100.012 17.692 99.801 18.26 100.129" stroke-width="0.13"/>
    <path d="M17.202 95.364C17.097 95.838 17.042 96.308 17.016 96.793" stroke-width="0.13"/>
    <path d="M18.21 100.379C17.785 100.103 17.986 100.263 17.608 99.9" stroke-width="0.13"/>
    <path d="M17.618 100.257C17.777 100.408 17.957 100.534 18.163 100.617" stroke-width="0.13"/>
    <path d="M17.522 100.346C17.603 100.289 17.596 100.283 17.614 100.171" stroke-width="0.13"/>
    <path d="M4.394 92.463C4.509 92.034 4.686 91.629 4.944 91.265L5.275 90.868" stroke-width="0.13"/>
    <path d="M11.268 89.513L10.419 90.003L9.945 90.823" stroke-width="0.13"/>
    <path d="M5.519 91.42C5.873 91.025 5.677 91.207 6.11 90.873" stroke-width="0.13"/>
    <path d="M5.379 91.504C5.661 91.167 5.49 91.346 5.918 90.984" stroke-width="0.13"/>
    <path d="M13.711 104.164C13.185 104.352 13.426 104.295 13.003 104.367" stroke-width="0.13"/>
    <path d="M12.864 104.447C13.288 104.373 13.048 104.432 13.573 104.243" stroke-width="0.13"/>
    <path d="M12.224 82.777L12.022 82.888" stroke-width="0.3"/>
    <path d="M37.889 79.137L38.441 79.421L39.171 79.843L100.745 115.394L101.477 115.816" stroke-width="0.3"/>
    <path d="M11.394 89.474C12.221 89.424 11.852 89.542 12.512 89.161" stroke-width="0.3"/>
    <path d="M29.013 78.945C28.405 79.2 27.853 79.515 27.283 79.843L25.858 80.667L25.126 81.088" stroke-width="0.3"/>
    <path d="M21.263 85.509L21.083 85.405C20.907 85.323 20.646 85.424 20.472 85.468" stroke-width="0.3"/>
    <path d="M35.59 80.162C35.101 80.212 34.689 80.143 34.183 80.087L31.082 79.751C30.693 79.709 30.248 79.733 29.888 79.542" stroke-width="0.3"/>
    <path d="M39.844 77.977C39.548 78.21 39.204 78.378 38.878 78.566L37.505 79.358C37.134 79.572 36.805 79.781 36.42 79.947" stroke-width="0.3"/>
    <path d="M23.638 74.418L24.271 73.859L25.129 73.1C25.518 72.757 25.795 72.48 26.216 72.203L26.696 71.927" stroke-width="0.3"/>
    <path d="M11.96 83.114L12.082 83.034L12.714 82.474L19.917 76.111C20.315 75.759 20.579 75.493 21.007 75.21L21.477 74.939" stroke-width="0.3"/>
    <path d="M9.67 84.534L10.266 83.935L10.57 83.628L11.164 83.028L11.638 82.754" stroke-width="0.3"/>
    <path d="M13.731 81.575L12.439 80.829L12.387 80.807L11.888 80.823" stroke-width="0.3"/>
    <path d="M9.884 81.536C10.367 81.257 10.849 81.072 11.38 80.915" stroke-width="0.3"/>
    <path d="M7.463 83.959C7.463 83.825 7.437 83.683 7.519 83.57" stroke-width="0.3"/>
    <path d="M8.71 84.891C8.603 84.864 8.539 84.861 8.433 84.891" stroke-width="0.3"/>
    <path d="M18.387 109.256L18.426 109.221L18.602 109.04" stroke-width="0.3"/>
    <path d="M14.487 109.734C15.377 110.058 16.39 110.079 17.297 109.816" stroke-width="0.3"/>
    <path d="M17.611 100.421C17.858 100.561 17.928 100.612 18.147 100.691" stroke-width="0.3"/>
    <path d="M18.228 100.286C17.975 100.088 17.757 99.856 17.593 99.578" stroke-width="0.3"/>
    <path d="M23.167 87.207C23.326 87.147 23.478 87.126 23.646 87.109" stroke-width="0.3"/>
    <path d="M23.282 88.17C22.711 88.346 22.228 88.566 21.704 88.855" stroke-width="0.3"/>
    <path d="M25.172 88.259L24.858 88.153L24.722 88.12" stroke-width="0.3"/>
    <path d="M24.846 87.587C25.164 87.772 25.26 87.802 25.475 87.984" stroke-width="0.3"/>
    <path d="M43.801 124.533L43.841 124.608L43.92 124.721" stroke-width="0.3"/>
    <path d="M44.192 124.986C44.085 124.9 43.997 124.804 43.905 124.7" stroke-width="0.3"/>
    <path d="M44.186 124.981C44.316 125.073 44.454 125.147 44.593 125.227" stroke-width="0.3"/>
    <path d="M45.052 127.435C45.405 128.014 45.893 128.556 46.421 128.984C46.868 129.343 47.395 129.628 47.887 129.912L52.109 132.35C52.945 132.832 53.786 133.318 54.75 133.479" stroke-width="0.3"/>
    <path d="M52.668 107.26C52.765 107.221 52.71 107.227 52.834 107.269" stroke-width="0.3"/>
    <path d="M53.115 107.03L53.134 107.072C53.2 107.185 53.274 107.269 53.381 107.343L53.814 109.188" stroke-width="0.3"/>
    <path d="M47.395 120.25C47.527 120.325 48.771 121.066 48.912 121.126L49.299 121.177" stroke-width="0.3"/>
    <path d="M49.378 114.396C49.35 114.364 49.334 114.322 49.314 114.284" stroke-width="0.3"/>
    <path d="M45.802 112.736C45.908 112.677 45.854 112.716 45.956 112.605" stroke-width="0.3"/>
    <path d="M46.584 112.792L46.54 112.933" stroke-width="0.3"/>
    <path d="M49.335 114.555C49.259 114.652 49.305 114.605 49.182 114.686" stroke-width="0.3"/>
    <path d="M48.151 113.873C48.389 113.975 48.613 114.125 48.832 114.26C48.982 114.352 49.156 114.453 49.293 114.572" stroke-width="0.3"/>
    <path d="M49.999 110.912L49.268 110.489L49.072 110.376C48.79 110.213 48.484 109.951 48.139 109.896" stroke-width="0.3"/>
    <path d="M49.335 114.555C49.573 114.659 49.798 114.808 50.015 114.941C50.167 115.036 50.34 115.135 50.478 115.254" stroke-width="0.3"/>
    <path d="M46.17 119.688L46.612 118.969L48.892 115.275C49.085 114.962 49.35 114.718 49.378 114.362" stroke-width="0.3"/>
    <path d="M48.962 128.729L48.591 127.971L46.249 123.17C45.981 122.623 45.715 122.171 45.662 121.569" stroke-width="0.3"/>
    <path d="M48.776 112.504L49.441 112.887C49.787 113.084 50.039 113.186 50.304 113.433" stroke-width="0.3"/>
    <path d="M50.273 128.675C50.304 128.211 49.935 127.676 49.759 127.316L47.436 122.552C47.249 122.167 47.049 121.9 46.997 121.504" stroke-width="0.3"/>
    <path d="M43.819 124.59L43.798 124.522L43.576 123.707L42.561 119.965L42.341 119.15" stroke-width="0.3"/>
    <path d="M43.521 117.844C43.921 117.254 44.371 116.688 44.799 116.115" stroke-width="0.3"/>
    <path d="M47.097 113.305C46.99 113.21 46.865 113.135 46.744 113.061C46.491 112.902 46.231 112.725 45.956 112.605" stroke-width="0.3"/>
    <path d="M45.862 112.704C45.92 112.608 45.968 112.51 46.09 112.501" stroke-width="0.3"/>
    <path d="M45.912 112.62C45.804 112.525 45.679 112.45 45.558 112.375C45.307 112.216 45.046 112.04 44.771 111.92" stroke-width="0.3"/>
    <path d="M48.926 111.849L48.195 111.427L47.051 110.766C46.207 110.278 46.598 110.381 45.932 110.293" stroke-width="0.3"/>
    <path d="M42.875 125.549C42.523 125.084 42.454 124.683 42.292 124.088L41.28 120.358L41.058 119.543" stroke-width="0.3"/>
    <path d="M43.923 126.387C43.743 126.281 43.579 126.189 43.411 126.069" stroke-width="0.3"/>
    <path d="M46.445 103.707C46.478 103.786 46.484 103.813 46.469 103.9" stroke-width="0.3"/>
    <path d="M47.381 101.984C47.262 101.96 46.502 101.787 46.354 101.84L45.911 102.218" stroke-width="0.3"/>
    <path d="M72.207 103.314L71.543 102.65C71.105 102.272 70.588 101.986 70.091 101.698L65.865 99.259L65.134 98.837" stroke-width="0.3"/>
    <path d="M33.506 84.1C34.049 84.046 34.597 83.978 35.143 83.962C36.372 83.923 37.654 84.09 38.826 84.453L39.247 84.584L39.962 84.828C40.698 85.132 41.405 85.528 42.091 85.926L62.353 97.626L63.085 98.048" stroke-width="0.3"/>
    <path d="M16.478 103.751C16.152 104.152 15.698 104.376 15.26 104.629L14.605 105.009" stroke-width="0.3"/>
    <path d="M6.623 89.216C6.937 89.033 7.139 88.897 7.488 88.792C9.362 88.231 11.301 89.236 12.721 90.394C13.029 90.646 13.316 90.918 13.6 91.195" stroke-width="0.3"/>
   </g>
   <g>
    <g>
     <path d="M11.346 75.197C11.272 75.177 11.192 75.204 11.112 75.265" stroke-width="0.13"/>
     <path d="M11.576 75.533C11.531 75.332 11.448 75.221 11.346 75.197" stroke-width="0.13"/>
    </g>
    <g>
     <path d="M7.727 62.814C7.477 62.777 7.222 62.82 7.044 62.92" stroke-width="0.13"/>
    </g>
    <g>
     <path d="M7.301 85.712C7.267 85.912 7.333 86.164 7.461 86.388C7.599 86.625 7.788 86.795 7.966 86.862" stroke-width="0.3"/>
    </g>
    <g>
     <path d="M6.992 85.716C6.99 85.718 6.99 85.718 6.988 85.718" stroke-width="0.3"/>
     <path d="M7.809 87.128C8.032 86.995 8.031 86.575 7.807 86.188C7.581 85.798 7.216 85.587 6.992 85.716" stroke-width="0.3"/>
     <path d="M6.988 85.718C6.766 85.849 6.767 86.269 6.992 86.658C7.216 87.048 7.581 87.259 7.807 87.129C7.807 87.128 7.807 87.128 7.809 87.128" stroke-width="0.13"/>
     <path d="M7.065 85.847C6.974 85.902 6.868 85.978 6.868 86.117L6.777 86.063C6.777 85.864 6.782 85.665 6.913 85.588L7.065 85.847z" fill="#000000" stroke="none"/>
    </g>
    <g>
     <path d="M8.801 87.65C9.207 87.222 9.13 86.29 8.646 85.447C8.541 85.266 8.425 85.1 8.308 84.965" stroke-width="0.3"/>
    </g>
    <g>
     <path d="M0.482 65.081C0.281 65.343 0.172 65.626 0.15 65.89" stroke-width="0.3"/>
    </g>
    <g>
     <path d="M7.262 61.786C5.214 61.146 2.375 62.57 0.483 65.078" stroke-width="0.3"/>
    </g>
    <g>
     <path d="M1.07 65.808C0.94 65.882 0.874 65.98 0.873 66.075" stroke-width="0.13"/>
    </g>
    <g>
     <path d="M7.711 62.262C7.466 62.223 7.203 62.268 7.028 62.368" stroke-width="0.13"/>
    </g>
    <g>
     <path d="M7.533 61.893C5.081 61.439 2.347 63.125 0.424 66" stroke-width="0.13"/>
    </g>
    <g>
     <path d="M8.333 87.918C8.737 87.492 8.66 86.558 8.175 85.718C8.07 85.536 7.953 85.37 7.836 85.234" stroke-width="0.13"/>
    </g>
    <line stroke-width="0.13" x1="2.849" x2="3.652" y1="74.652" y2="80.935"/>
    <line stroke-width="0.13" x1="9" x2="11.974" y1="77.26" y2="78.429"/>
    <line stroke-width="0.13" x1="2.097" x2="5.527" y1="81.135" y2="82.484"/>
    <line stroke-width="0.13" x1="7.838" x2="8.307" y1="85.236" y2="84.963"/>
    <line stroke-width="0.13" x1="8.801" x2="8.332" y1="87.647" y2="87.92"/>
    <line stroke-width="0.13" x1="7.419" x2="7.889" y1="87.099" y2="86.828"/>
    <line stroke-width="0.3" x1="12.018" x2="11.974" y1="78.736" y2="78.424"/>
    <line stroke-width="0.3" x1="12.018" x2="12.166" y1="78.736" y2="78.652"/>
    <line stroke-width="0.3" x1="6.144" x2="5.996" y1="82.128" y2="82.212"/>
    <line stroke-width="0.3" x1="8.307" x2="5.996" y1="84.963" y2="82.212"/>
    <line stroke-width="0.3" x1="3.944" x2="3.672" y1="93.6" y2="93.454"/>
    <line stroke-width="0.3" x1="7.535" x2="7.259" y1="61.893" y2="61.784"/>
    <line stroke-width="0.3" x1="7.535" x2="7.549" y1="61.893" y2="62.006"/>
    <line stroke-width="0.13" x1="12.166" x2="14.243" y1="78.652" y2="81.123"/>
    <line stroke-width="0.13" x1="12.166" x2="12.635" y1="78.652" y2="78.379"/>
    <line stroke-width="0.13" x1="0.441" x2="7.549" y1="66.111" y2="62.006"/>
    <line stroke-width="0.13" x1="0.15" x2="0.426" y1="65.89" y2="65.998"/>
    <line stroke-width="0.13" x1="0.441" x2="0.159" y1="66.111" y2="65.96"/>
    <line stroke-width="0.13" x1="0.962" x2="1.478" y1="67.481" y2="67.183"/>
    <line stroke-width="0.13" x1="7.028" x2="1.07" y1="62.368" y2="65.808"/>
    <line stroke-width="0.13" x1="0.441" x2="0.426" y1="66.111" y2="65.998"/>
    <line stroke-width="0.13" x1="5.996" x2="5.527" y1="82.212" y2="82.484"/>
    <path d="M9.401 76.555C9.268 76.706 9.164 76.871 9.082 77.058L9 77.26L9.108 78.096L9.465 80.896L9.573 81.733" stroke-width="0.13"/>
    <path d="M3.504 80.816C3.302 80.662 3.097 80.509 2.87 80.394C2.726 80.322 2.617 80.281 2.46 80.34" stroke-width="0.13"/>
    <path d="M9.458 81.805L9.352 80.968L7.152 63.758C7.022 62.737 7.054 63.201 7.028 62.368" stroke-width="0.13"/>
    <path d="M7.711 62.262C7.737 63.095 7.705 62.633 7.835 63.652L9.368 75.653L9.475 76.49" stroke-width="0.13"/>
    <path d="M11.974 78.429C11.458 74.647 10.984 70.861 10.5 67.075" stroke-width="0.13"/>
    <path d="M9.401 76.555C9.926 76.096 10.556 75.682 11.114 75.265" stroke-width="0.13"/>
    <path d="M9.544 62.631C9.567 63.383 9.538 62.945 9.666 63.939L11.006 74.427L11.114 75.265" stroke-width="0.13"/>
    <path d="M7.727 62.814L8.563 62.945L8.724 62.97L9.558 63.1L9.705 63.134" stroke-width="0.13"/>
    <path d="M1.026 66.402L1.086 66.361L1.818 65.938L6.314 63.343L7.046 62.92" stroke-width="0.13"/>
    <path d="M2.072 80.846C2.633 80.117 2.488 80.551 2.354 79.503L0.901 68.129L0.794 67.292" stroke-width="0.13"/>
    <path d="M1.11 66.548L1.086 66.361L1.07 65.808" stroke-width="0.13"/>
    <path d="M2.051 80.891L2.072 80.846L1.964 80.007L0.318 67.123L0.211 66.284" stroke-width="0.13"/>
    <path d="M10.029 62.246C10.455 63.979 10.85 65.719 11.162 67.477C11.278 68.135 11.374 68.792 11.461 69.453L12.525 77.543L12.635 78.379L14.644 80.769" stroke-width="0.3"/>
    <path d="M10.029 62.246C9.647 62.125 9.242 62.091 8.849 62.03C8.372 61.954 7.9 61.847 7.416 61.847" stroke-width="0.3"/>
    <path d="M8.598 88.632C8.637 88.293 8.72 87.977 8.801 87.647" stroke-width="0.3"/>
    <path d="M6.144 82.128L5.871 81.328L2.838 72.454L2.315 70.871C2.068 70.058 1.873 69.227 1.693 68.397L1.571 67.831L1.526 67.552L1.478 67.183C1.334 66.814 0.925 66.474 0.873 66.075" stroke-width="0.3"/>
    <path d="M0.15 65.89C0.16 65.971 0.143 66.043 0.153 66.125C0.756 71.072 1.39 76.016 2.048 80.956L2.097 81.135C2.717 85.227 3.148 89.349 3.673 93.454" stroke-width="0.3"/>
    <path d="M12.018 78.736L11.909 77.9L10.609 67.912C10.471 66.855 10.311 65.808 10.089 64.766C9.929 64.016 9.762 63.27 9.512 62.543" stroke-width="0.13"/>
    <path d="M10.029 62.246L9.512 62.543L8.679 62.414L8.545 62.393L7.711 62.262" stroke-width="0.13"/>
    <path d="M0.153 66.125C0.182 66.233 0.163 66.18 0.211 66.284L0.503 66.787C0.654 67.049 0.746 67.289 0.962 67.481C1.411 69.569 1.882 71.668 2.54 73.703C3.492 76.644 4.53 79.557 5.527 82.484" stroke-width="0.13"/>
    <path d="M8.332 87.92L8.218 88.373L8.167 88.659" stroke-width="0.13"/>
    <path d="M3.504 80.816L4.155 81.353L4.876 81.947L5.527 82.484L6.07 83.131L7.294 84.588L7.838 85.236" stroke-width="0.13"/>
   </g>
  </g>
  <g>
   <path d="M228.289 120.376C228.286 120.37 228.282 120.365 228.278 120.361" stroke-width="0.13"/>
   <path d="M226.907 121.501C227.157 121.793 227.657 121.786 228.034 121.486C228.419 121.18 228.533 120.683 228.289 120.376" stroke-width="0.13"/>
  </g>
  <g>
   <path d="M227.956 119.954C227.953 119.95 227.949 119.944 227.944 119.941" stroke-width="0.13"/>
   <path d="M226.574 121.079C226.824 121.373 227.324 121.364 227.701 121.064C228.086 120.759 228.2 120.262 227.956 119.954" stroke-width="0.13"/>
  </g>
  <g>
   <path d="M227.956 119.954C227.953 119.95 227.949 119.944 227.944 119.941" stroke-width="0.13"/>
   <path d="M226.574 121.079C226.824 121.373 227.324 121.364 227.701 121.064C228.086 120.759 228.2 120.262 227.956 119.954" stroke-width="0.13"/>
  </g>
  <g>
   <path d="M227.622 119.534C227.618 119.528 227.615 119.524 227.61 119.519" stroke-width="0.13"/>
   <path d="M226.241 120.659C226.491 120.951 226.991 120.944 227.367 120.644C227.752 120.337 227.866 119.84 227.622 119.534" stroke-width="0.13"/>
  </g>
  <g>
   <path d="M227.622 119.534C227.618 119.528 227.615 119.524 227.61 119.519" stroke-width="0.13"/>
   <path d="M226.241 120.659C226.491 120.951 226.991 120.944 227.367 120.644C227.752 120.337 227.866 119.84 227.622 119.534" stroke-width="0.13"/>
  </g>
  <g>
   <path d="M227.289 119.112C227.286 119.108 227.282 119.102 227.277 119.099" stroke-width="0.13"/>
   <path d="M225.907 120.237C226.157 120.531 226.657 120.522 227.033 120.222C227.419 119.917 227.533 119.42 227.289 119.112" stroke-width="0.13"/>
  </g>
  <line stroke-width="0.13" x1="59.877" x2="53.243" y1="136.518" y2="146.8"/>
  <text fill="#000000" font-family="'Arial'" font-size="3.528" font-weight="bold" stroke="none" x="51.338" y="149.532">1</text>
  <line stroke-width="0.13" x1="174.222" x2="168.903" y1="29.225" y2="39.475"/>
  <text fill="#000000" font-family="'Arial'" font-size="3.528" font-weight="bold" stroke="none" x="173.963" y="28.435">2</text>
  <g>
   <line stroke="#FFFFFF" stroke-width="1" x1="245.114" x2="227.74" y1="105.606" y2="118.772"/>
   <line stroke-width="0.13" x1="245.564" x2="227.289" y1="105.266" y2="119.112"/>
  </g>
  <text fill="#000000" font-family="'Arial'" font-size="3.528" font-weight="bold" stroke="none" x="246.09" y="104.745">3</text>
  <g>
   <line stroke="#FFFFFF" stroke-width="1" x1="248.157" x2="231.664" y1="109.998" y2="122.021"/>
   <line stroke-width="0.13" x1="248.614" x2="231.207" y1="109.665" y2="122.352"/>
  </g>
  <text fill="#000000" font-family="'Arial'" font-size="3.528" font-weight="bold" stroke="none" x="249.139" y="109.146">4</text>
 </g>
</svg>