<?xml version="1.0" encoding="UTF-8" standalone="no"?><!-- Generator: PTC Arbortext IsoDraw 7.3 M090 --><svg xmlns="http://www.w3.org/2000/svg" xmlns:xlink="http://www.w3.org/1999/xlink" clip-rule="evenodd" fill="none" fill-rule="evenodd" font-family="sans-serif" font-size="10" font-stretch="normal" font-style="normal" font-variant="normal" font-weight="normal" height="100.843" id="Livello_x0020_standard" onabort="parent.dwImageSVGOnAbort('SGR143123018');" onerror="parent.dwImageSVGOnError('SGR143123018');" onload="parent.dwImageSVGOnLoad('SGR143123018');" stroke="#000000" stroke-linecap="round" viewBox="0.0 0.0 232.022 100.843" width="232.022" x="0" xml:space="preserve" y="0">
 <g>
  <g>
   <polyline points="19.75 43.756 20.004 42.74 20.088 41.725 20.004 40.75 19.75 39.734" stroke-linejoin="round" stroke-miterlimit="10" stroke-width="0.3"/>
   <polyline points="19.75 45.746 16.617 45.746 16.277 45.365" stroke-linejoin="round" stroke-miterlimit="10" stroke-width="0.3"/>
   <polyline points="19.75 45.746 20.088 45.365 20.384 45.365" stroke-linejoin="round" stroke-miterlimit="10" stroke-width="0.3"/>
   <polyline points="19.75 45.746 20.004 45.28 20.088 44.729 20.004 44.222 19.75 43.756" stroke-linejoin="round" stroke-miterlimit="10" stroke-width="0.3"/>
   <polyline points="19.75 39.734 20.004 39.27 20.088 38.762 20.004 38.21 19.75 37.746" stroke-linejoin="round" stroke-miterlimit="10" stroke-width="0.3"/>
   <polyline points="16.617 37.746 16.362 38.21 16.277 38.762 16.362 39.27 16.617 39.734 19.75 39.734" stroke-linejoin="round" stroke-miterlimit="10" stroke-width="0.3"/>
   <polyline points="19.75 37.746 16.617 37.746 16.277 38.127" stroke-linejoin="round" stroke-miterlimit="10" stroke-width="0.3"/>
   <polyline points="19.75 37.746 20.088 38.127 20.384 38.127" stroke-linejoin="round" stroke-miterlimit="10" stroke-width="0.3"/>
   <line stroke-linejoin="round" stroke-miterlimit="10" stroke-width="0.3" x1="20.088" x2="20.088" y1="45.365" y2="38.127"/>
   <line stroke-linejoin="round" stroke-miterlimit="10" stroke-width="0.3" x1="20.384" x2="20.384" y1="45.365" y2="38.127"/>
   <polyline points="16.617 39.734 16.362 40.75 16.277 41.725 16.362 42.74 16.617 43.756" stroke-linejoin="round" stroke-miterlimit="10" stroke-width="0.3"/>
   <polyline points="2.435 43.756 2.69 42.74 2.774 41.725 2.69 40.75 2.435 39.734" stroke-linejoin="round" stroke-miterlimit="10" stroke-width="0.3"/>
   <polyline points="0.489 39.734 0.235 40.75 0.15 41.725 0.235 42.74 0.489 43.756" stroke-linejoin="round" stroke-miterlimit="10" stroke-width="0.3"/>
   <line stroke-linejoin="round" stroke-miterlimit="10" stroke-width="0.3" x1="0.15" x2="0.15" y1="45.365" y2="38.127"/>
   <polyline points="8.108 34.655 3.748 34.655 3.451 34.74 3.197 34.993 3.112 35.332" stroke-linejoin="round" stroke-miterlimit="10" stroke-width="0.3"/>
   <polyline points="0.489 43.756 0.235 44.222 0.15 44.729 0.235 45.28 0.489 45.746" stroke-linejoin="round" stroke-miterlimit="10" stroke-width="0.3"/>
   <polyline points="2.435 45.746 2.774 45.365 3.112 45.365" stroke-linejoin="round" stroke-miterlimit="10" stroke-width="0.3"/>
   <polyline points="2.435 45.746 2.69 45.28 2.774 44.729 2.69 44.222 2.435 43.756" stroke-linejoin="round" stroke-miterlimit="10" stroke-width="0.3"/>
   <line stroke-linejoin="round" stroke-miterlimit="10" stroke-width="0.3" x1="16.277" x2="14.965" y1="45.365" y2="45.365"/>
   <polyline points="14.965 35.332 14.881 34.993 14.627 34.74 14.288 34.655" stroke-linejoin="round" stroke-miterlimit="10" stroke-width="0.3"/>
   <polyline points="16.617 43.756 16.362 44.222 16.277 44.729 16.362 45.28 16.617 45.746" stroke-linejoin="round" stroke-miterlimit="10" stroke-width="0.3"/>
   <line stroke-linejoin="round" stroke-miterlimit="10" stroke-width="0.3" x1="14.288" x2="3.748" y1="49.81" y2="49.81"/>
   <polyline points="2.435 39.734 2.69 39.27 2.774 38.762 2.69 38.21 2.435 37.746" stroke-linejoin="round" stroke-miterlimit="10" stroke-width="0.3"/>
   <polyline points="0.489 37.746 0.235 38.21 0.15 38.762 0.235 39.27 0.489 39.734 2.435 39.734" stroke-linejoin="round" stroke-miterlimit="10" stroke-width="0.3"/>
   <polyline points="2.435 37.746 0.489 37.746 0.15 38.127" stroke-linejoin="round" stroke-miterlimit="10" stroke-width="0.3"/>
   <polyline points="2.435 37.746 2.774 38.127 3.112 38.127" stroke-linejoin="round" stroke-miterlimit="10" stroke-width="0.3"/>
   <polyline points="3.112 49.174 3.197 49.472 3.451 49.725 3.748 49.81" stroke-linejoin="round" stroke-miterlimit="10" stroke-width="0.3"/>
   <line stroke-linejoin="round" stroke-miterlimit="10" stroke-width="0.3" x1="16.277" x2="14.965" y1="38.127" y2="38.127"/>
   <polyline points="14.288 49.81 14.627 49.725 14.881 49.472 14.965 49.174" stroke-linejoin="round" stroke-miterlimit="10" stroke-width="0.3"/>
   <line stroke-linejoin="round" stroke-miterlimit="10" stroke-width="0.3" x1="14.288" x2="14.288" y1="32.454" y2="36.264"/>
   <line stroke-linejoin="round" stroke-miterlimit="10" stroke-width="0.3" x1="6.711" x2="6.711" y1="31.1" y2="31.903"/>
   <line stroke-linejoin="round" stroke-miterlimit="10" stroke-width="0.3" x1="6.711" x2="6.711" y1="34.402" y2="31.903"/>
   <polyline points="6.711 31.1 6.711 31.015 6.753 30.972 6.796 30.929 9.505 30.929" stroke-linejoin="round" stroke-miterlimit="10" stroke-width="0.3"/>
   <line stroke-linejoin="round" stroke-miterlimit="10" stroke-width="0.3" x1="9.631" x2="12.765" y1="30.888" y2="30.888"/>
   <line stroke-linejoin="round" stroke-miterlimit="10" stroke-width="0.3" x1="9.631" x2="9.505" y1="30.929" y2="30.929"/>
   <polyline points="9.631 30.929 9.631 30.253 9.589 30.167 6.373 30.167" stroke-linejoin="round" stroke-miterlimit="10" stroke-width="0.3"/>
   <line stroke-linejoin="round" stroke-miterlimit="10" stroke-width="0.3" x1="6.288" x2="6.288" y1="30.253" y2="30.507"/>
   <polyline points="6.373 30.167 6.288 30.167 6.288 30.253" stroke-linejoin="round" stroke-miterlimit="10" stroke-width="0.3"/>
   <polyline points="6.288 30.507 6.288 31.141 6.373 31.184 6.711 31.31" stroke-linejoin="round" stroke-miterlimit="10" stroke-width="0.3"/>
   <polyline points="12.765 30.888 12.891 30.972 12.933 31.015 12.975 31.056 13.019 31.1 13.06 31.141 13.102 31.227 13.188 31.268 13.272 31.353 13.314 31.437 13.4 31.481 13.484 31.608 13.695 31.777 14.246 32.326 14.288 32.454" stroke-linejoin="round" stroke-miterlimit="10" stroke-width="0.3"/>
   <line stroke-linejoin="round" stroke-miterlimit="10" stroke-width="0.3" x1="8.278" x2="8.278" y1="36.264" y2="34.529"/>
   <line stroke-linejoin="round" stroke-miterlimit="10" stroke-width="0.3" x1="8.278" x2="6.881" y1="34.529" y2="34.529"/>
   <polyline points="6.711 34.402 6.753 34.485 6.881 34.529" stroke-linejoin="round" stroke-miterlimit="10" stroke-width="0.3"/>
   <polyline points="14.372 36.264 8.108 36.264 8.108 34.655" stroke-linejoin="round" stroke-miterlimit="10" stroke-width="0.3"/>
   <line stroke-linejoin="round" stroke-miterlimit="10" stroke-width="0.3" x1="8.278" x2="8.108" y1="35.121" y2="35.121"/>
   <line stroke-linejoin="round" stroke-miterlimit="10" stroke-width="0.3" x1="2.435" x2="0.489" y1="45.746" y2="45.746"/>
   <line stroke-linejoin="round" stroke-miterlimit="10" stroke-width="0.3" x1="2.435" x2="0.489" y1="43.756" y2="43.756"/>
   <line stroke-linejoin="round" stroke-miterlimit="10" stroke-width="0.3" x1="0.15" x2="0.489" y1="45.365" y2="45.746"/>
   <line stroke-linejoin="round" stroke-miterlimit="10" stroke-width="0.3" x1="2.774" x2="2.774" y1="45.365" y2="38.127"/>
   <line stroke-linejoin="round" stroke-miterlimit="10" stroke-width="0.3" x1="16.277" x2="16.277" y1="45.365" y2="38.127"/>
   <line stroke-linejoin="round" stroke-miterlimit="10" stroke-width="0.3" x1="3.112" x2="3.112" y1="35.332" y2="49.174"/>
   <line stroke-linejoin="round" stroke-miterlimit="10" stroke-width="0.3" x1="14.965" x2="14.965" y1="35.332" y2="49.174"/>
  </g>
  <g>
   <line stroke-linejoin="round" stroke-miterlimit="10" stroke-width="0.3" x1="20.384" x2="21.231" y1="39.057" y2="39.057"/>
   <line stroke-linejoin="round" stroke-miterlimit="10" stroke-width="0.3" x1="20.384" x2="21.231" y1="44.433" y2="44.433"/>
   <line stroke-linejoin="round" stroke-miterlimit="10" stroke-width="0.3" x1="21.231" x2="24.701" y1="44.603" y2="44.603"/>
   <line stroke-linejoin="round" stroke-miterlimit="10" stroke-width="0.3" x1="21.231" x2="24.701" y1="38.889" y2="38.889"/>
   <line stroke-linejoin="round" stroke-miterlimit="10" stroke-width="0.3" x1="29.315" x2="29.443" y1="39.651" y2="39.82"/>
   <line stroke-linejoin="round" stroke-miterlimit="10" stroke-width="0.3" x1="27.666" x2="28.809" y1="40.115" y2="40.115"/>
   <line stroke-linejoin="round" stroke-miterlimit="10" stroke-width="0.3" x1="21.231" x2="21.527" y1="38.889" y2="38.591"/>
   <line stroke-linejoin="round" stroke-miterlimit="10" stroke-width="0.3" x1="24.701" x2="24.405" y1="38.889" y2="38.591"/>
   <line stroke-linejoin="round" stroke-miterlimit="10" stroke-width="0.3" x1="29.315" x2="29.443" y1="43.841" y2="43.671"/>
   <line stroke-linejoin="round" stroke-miterlimit="10" stroke-width="0.3" x1="24.701" x2="27.666" y1="39.651" y2="39.651"/>
   <line stroke-linejoin="round" stroke-miterlimit="10" stroke-width="0.3" x1="28.809" x2="29.315" y1="39.651" y2="39.651"/>
   <line stroke-linejoin="round" stroke-miterlimit="10" stroke-width="0.3" x1="21.527" x2="24.405" y1="38.591" y2="38.591"/>
   <line stroke-linejoin="round" stroke-miterlimit="10" stroke-width="0.3" x1="27.666" x2="28.809" y1="43.375" y2="43.375"/>
   <line stroke-linejoin="round" stroke-miterlimit="10" stroke-width="0.3" x1="21.231" x2="21.527" y1="44.603" y2="44.899"/>
   <line stroke-linejoin="round" stroke-miterlimit="10" stroke-width="0.3" x1="24.701" x2="24.405" y1="44.603" y2="44.899"/>
   <line stroke-linejoin="round" stroke-miterlimit="10" stroke-width="0.3" x1="29.315" x2="29.315" y1="43.841" y2="39.651"/>
   <line stroke-linejoin="round" stroke-miterlimit="10" stroke-width="0.3" x1="29.443" x2="29.443" y1="43.671" y2="39.82"/>
   <line stroke-linejoin="round" stroke-miterlimit="10" stroke-width="0.3" x1="28.809" x2="28.809" y1="43.841" y2="39.651"/>
   <line stroke-linejoin="round" stroke-miterlimit="10" stroke-width="0.3" x1="24.701" x2="24.701" y1="44.603" y2="38.889"/>
   <line stroke-linejoin="round" stroke-miterlimit="10" stroke-width="0.3" x1="27.666" x2="27.666" y1="43.841" y2="39.651"/>
   <line stroke-linejoin="round" stroke-miterlimit="10" stroke-width="0.3" x1="24.405" x2="24.405" y1="44.899" y2="38.591"/>
   <line stroke-linejoin="round" stroke-miterlimit="10" stroke-width="0.3" x1="21.231" x2="21.231" y1="44.603" y2="38.889"/>
   <line stroke-linejoin="round" stroke-miterlimit="10" stroke-width="0.3" x1="21.527" x2="21.527" y1="44.899" y2="38.591"/>
   <line stroke-linejoin="round" stroke-miterlimit="10" stroke-width="0.3" x1="24.701" x2="27.666" y1="43.841" y2="43.841"/>
   <line stroke-linejoin="round" stroke-miterlimit="10" stroke-width="0.3" x1="28.809" x2="29.315" y1="43.841" y2="43.841"/>
   <line stroke-linejoin="round" stroke-miterlimit="10" stroke-width="0.3" x1="21.527" x2="24.405" y1="44.899" y2="44.899"/>
  </g>
 </g>
 <g>
  <path d="M11.454 33.99C11.91 33.99 12.278 33.621 12.278 33.165 12.278 32.71 11.91 32.341 11.454 32.341 10.999 32.341 10.628 32.71 10.628 33.165 10.628 33.621 10.999 33.99 11.454 33.99z" fill="#FFFFFF" stroke="none"/>
  <line stroke="#FFFFFF" stroke-width="1" x1="9.855" x2="11.454" y1="21.297" y2="33.165"/>
  <path d="M11.454 33.555C11.669 33.555 11.843 33.381 11.843 33.165 11.843 32.95 11.669 32.776 11.454 32.776 11.239 32.776 11.064 32.95 11.064 33.165 11.064 33.381 11.239 33.555 11.454 33.555z" fill="#000000" stroke="none"/>
  <line stroke-width="0.13" x1="9.778" x2="11.454" y1="20.736" y2="33.165"/>
 </g>
 <text fill="#000000" font-family="'Helvetica'" font-size="4.232" font-weight="bold" stroke="none" x="8.109" y="19.597">1</text>
 <g>
  <path d="M23.033 41.024C23.487 41.024 23.858 40.655 23.858 40.198 23.858 39.743 23.487 39.374 23.033 39.374 22.576 39.374 22.207 39.743 22.207 40.198 22.207 40.655 22.576 41.024 23.033 41.024z" fill="#FFFFFF" stroke="none"/>
  <line stroke="#FFFFFF" stroke-width="1" x1="25.117" x2="23.033" y1="21.298" y2="40.198"/>
  <path d="M23.033 40.588C23.248 40.588 23.422 40.414 23.422 40.198 23.422 39.984 23.248 39.808 23.033 39.808 22.817 39.808 22.643 39.984 22.643 40.198 22.643 40.414 22.817 40.588 23.033 40.588z" fill="#000000" stroke="none"/>
  <line stroke-width="0.13" x1="25.178" x2="23.033" y1="20.736" y2="40.198"/>
 </g>
 <text fill="#000000" font-family="'Helvetica'" font-size="4.232" font-weight="bold" stroke="none" x="24.17" y="19.222">2</text>
 <g>
  <polygon points="50.694 73.219 50.524 73.177 50.398 73.049 50.354 72.881 50.398 72.712 50.524 72.542 50.694 72.5 50.905 72.542 51.033 72.712 51.075 72.881 51.033 73.049 50.905 73.177 50.694 73.219" stroke-linejoin="round" stroke-miterlimit="10" stroke-width="0.3"/>
  <polygon points="50.694 73.855 50.313 73.811 50.017 73.6 49.804 73.262 49.719 72.881 49.804 72.5 50.017 72.161 50.313 71.95 50.694 71.864 51.116 71.95 51.414 72.161 51.625 72.5 51.71 72.881 51.625 73.262 51.414 73.6 51.116 73.811 50.694 73.855" stroke-linejoin="round" stroke-miterlimit="10" stroke-width="0.3"/>
  <polygon points="49.677 74.659 48.661 72.881 49.677 71.102 51.752 71.102 52.768 72.881 51.752 74.659 49.677 74.659" stroke-linejoin="round" stroke-miterlimit="10" stroke-width="0.3"/>
  <polygon points="50.694 74.617 50.185 74.531 49.677 74.278 49.296 73.897 49.042 73.43 48.957 72.881 49.042 72.331 49.296 71.822 49.677 71.441 50.185 71.188 50.694 71.102 51.243 71.188 51.752 71.441 52.133 71.822 52.387 72.331 52.472 72.881 52.387 73.43 52.133 73.897 51.752 74.278 51.243 74.531 50.694 74.617" stroke-linejoin="round" stroke-miterlimit="10" stroke-width="0.3"/>
  <line stroke-linejoin="round" stroke-miterlimit="10" stroke-width="0.3" x1="75.076" x2="75.076" y1="72.881" y2="95.105"/>
  <polyline points="80.367 95.105 75.076 95.105 74.781 94.766" stroke-linejoin="round" stroke-miterlimit="10" stroke-width="0.3"/>
  <line stroke-linejoin="round" stroke-miterlimit="10" stroke-width="0.3" x1="182.811" x2="182.811" y1="92.65" y2="84.563"/>
  <polyline points="177.858 93.793 177.943 93.962 178.153 94.046" stroke-linejoin="round" stroke-miterlimit="10" stroke-width="0.3"/>
  <line stroke-linejoin="round" stroke-miterlimit="10" stroke-width="0.3" x1="177.562" x2="177.858" y1="95.105" y2="94.766"/>
  <polyline points="178.153 94.046 182.556 94.046 182.725 93.962 182.811 93.793 182.811 92.65" stroke-linejoin="round" stroke-miterlimit="10" stroke-width="0.3"/>
  <polyline points="183.784 82.743 183.784 83.082 182.811 83.676" stroke-linejoin="round" stroke-miterlimit="10" stroke-width="0.3"/>
  <polyline points="183.784 82.743 183.784 83.082 182.811 83.676" stroke-linejoin="round" stroke-miterlimit="10" stroke-width="0.3"/>
  <polyline points="183.784 62.975 183.784 62.679 182.811 62.085" stroke-linejoin="round" stroke-miterlimit="10" stroke-width="0.3"/>
  <line stroke-linejoin="round" stroke-miterlimit="10" stroke-width="0.3" x1="75.076" x2="75.076" y1="72.881" y2="50.656"/>
  <polygon points="74.781 72.881 74.781 50.953 74.781 72.881" stroke-linejoin="round" stroke-miterlimit="10" stroke-width="0.3"/>
  <polyline points="82.442 50.656 75.076 50.656 74.781 50.953" stroke-linejoin="round" stroke-miterlimit="10" stroke-width="0.3"/>
  <line stroke-linejoin="round" stroke-miterlimit="10" stroke-width="0.3" x1="177.562" x2="177.858" y1="50.656" y2="50.953"/>
  <line stroke-linejoin="round" stroke-miterlimit="10" stroke-width="0.3" x1="72.114" x2="72.114" y1="66.277" y2="79.441"/>
  <polygon points="220.359 72.881 220.274 71.695 220.02 70.552 219.639 69.451 219.046 68.436 218.368 67.462 217.522 66.658 216.592 65.938 215.575 65.388 214.474 64.965 213.289 64.71 212.146 64.626 210.961 64.71 209.818 64.965 208.717 65.388 207.701 65.938 206.728 66.658 205.924 67.462 205.204 68.436 204.653 69.451 204.23 70.552 203.977 71.695 203.891 72.881 203.977 74.066 204.23 75.209 204.653 76.31 205.204 77.325 205.924 78.257 206.728 79.103 207.701 79.781 208.717 80.373 209.818 80.754 210.961 81.009 212.146 81.093 213.289 81.009 214.474 80.754 215.575 80.373 216.592 79.781 217.522 79.103 218.368 78.257 219.046 77.325 219.639 76.31 220.02 75.209 220.274 74.066 220.359 72.881" stroke-linejoin="round" stroke-miterlimit="10" stroke-width="0.3"/>
  <polygon points="221.713 72.881 221.628 71.611 221.375 70.382 220.993 69.197 220.443 68.096 219.723 67.039 218.919 66.108 217.945 65.26 216.93 64.584 215.787 64.034 214.602 63.609 213.373 63.399 212.146 63.314 210.877 63.399 209.649 63.609 208.463 64.034 207.362 64.584 206.305 65.26 205.373 66.108 204.526 67.039 203.849 68.096 203.299 69.197 202.876 70.382 202.622 71.611 202.58 72.881 202.622 74.108 202.876 75.335 203.299 76.521 203.849 77.664 204.526 78.722 205.373 79.653 206.305 80.457 207.362 81.177 208.463 81.727 209.649 82.108 210.877 82.362 212.146 82.447 213.373 82.362 214.602 82.108 215.787 81.727 216.93 81.177 217.945 80.457 218.919 79.653 219.723 78.722 220.443 77.664 220.993 76.521 221.375 75.335 221.628 74.108 221.713 72.881" stroke-linejoin="round" stroke-miterlimit="10" stroke-width="0.3"/>
  <polyline points="218.665 82.533 219.723 81.686 220.655 80.712 221.46 79.653 222.137 78.51 222.687 77.24 223.068 75.971 223.28 74.659 223.365 73.304 223.28 71.95 222.984 70.637 222.603 69.367 222.051 68.14 221.332 66.996 220.485 65.938 219.555 64.965 218.454 64.161 217.311 63.482 216.084 62.932 214.813 62.509 213.459 62.298 212.146 62.213 210.792 62.298 209.479 62.509 208.168 62.932 206.939 63.482 205.796 64.161 204.739 64.965 203.764 65.938 202.961 66.996 202.241 68.14 201.691 69.367 201.266 70.637 201.013 71.95 200.929 73.304 200.971 74.659 201.224 75.971 201.605 77.24 202.114 78.51 202.834 79.653 203.638 80.712 204.568 81.686 205.627 82.533" stroke-linejoin="round" stroke-miterlimit="10" stroke-width="0.3"/>
  <polygon points="224.508 72.881 224.423 71.483 224.169 70.129 223.788 68.775 223.28 67.504 222.603 66.319 221.798 65.177 220.866 64.117 219.85 63.228 218.707 62.424 217.479 61.747 216.211 61.197 214.897 60.816 213.501 60.604 212.146 60.52 210.75 60.604 209.395 60.816 208.04 61.197 206.77 61.747 205.585 62.424 204.442 63.228 203.383 64.117 202.495 65.177 201.691 66.319 201.013 67.504 200.462 68.775 200.081 70.129 199.871 71.483 199.786 72.881 199.871 74.278 200.081 75.632 200.462 76.944 201.013 78.215 201.691 79.441 202.495 80.584 203.383 81.6 204.442 82.533 205.585 83.337 206.77 84.013 208.04 84.522 209.395 84.903 210.75 85.156 212.146 85.242 213.501 85.156 214.897 84.903 216.211 84.522 217.479 84.013 218.707 83.337 219.85 82.533 220.866 81.6 221.798 80.584 222.603 79.441 223.28 78.215 223.788 76.944 224.169 75.632 224.423 74.278 224.508 72.881" stroke-linejoin="round" stroke-miterlimit="10" stroke-width="0.3"/>
  <polyline points="208.21 83.718 208.294 83.295 208.168 82.914 207.913 82.575 207.532 82.406 207.109 82.406 206.728 82.575" stroke-linejoin="round" stroke-miterlimit="10" stroke-width="0.3"/>
  <polyline points="217.522 82.575 217.141 82.406 216.76 82.406 216.379 82.575 216.126 82.914 215.998 83.295 216.04 83.718" stroke-linejoin="round" stroke-miterlimit="10" stroke-width="0.3"/>
  <polygon points="207.787 83.379 207.701 83.125 207.532 82.956 207.278 82.87 207.067 82.956 206.854 83.125 206.812 83.379 206.854 83.632 207.067 83.802 207.278 83.887 207.532 83.802 207.701 83.632 207.787 83.379" stroke-linejoin="round" stroke-miterlimit="10" stroke-width="0.3"/>
  <line stroke-linejoin="round" stroke-miterlimit="10" stroke-width="0.3" x1="208.21" x2="207.955" y1="83.718" y2="84.48"/>
  <polygon points="217.479 83.379 217.395 83.125 217.227 82.956 216.973 82.87 216.718 82.956 216.549 83.125 216.507 83.379 216.549 83.632 216.718 83.802 216.973 83.887 217.227 83.802 217.395 83.632 217.479 83.379" stroke-linejoin="round" stroke-miterlimit="10" stroke-width="0.3"/>
  <line stroke-linejoin="round" stroke-miterlimit="10" stroke-width="0.3" x1="216.04" x2="216.337" y1="83.718" y2="84.48"/>
  <polyline points="217.522 82.575 217.903 82.701 218.284 82.701 218.665 82.533" stroke-linejoin="round" stroke-miterlimit="10" stroke-width="0.3"/>
  <polyline points="205.627 82.533 205.966 82.701 206.389 82.701 206.728 82.575" stroke-linejoin="round" stroke-miterlimit="10" stroke-width="0.3"/>
  <polyline points="221.713 90.152 223.28 89.221 224.718 88.12 226.074 86.893 227.3 85.537 228.443 84.057 229.376 82.533 230.222 80.882 230.856 79.188 231.365 77.409 231.704 75.632 231.872 73.769 231.872 71.95 231.704 70.129 231.365 68.35 230.856 66.573 230.222 64.879 229.376 63.228 228.443 61.662 227.3 60.223 226.074 58.868 224.718 57.642 223.28 56.54 221.713 55.567" stroke-linejoin="round" stroke-miterlimit="10" stroke-width="0.3"/>
  <line stroke-linejoin="round" stroke-miterlimit="10" stroke-width="0.3" x1="183.784" x2="190.727" y1="62.975" y2="62.975"/>
  <line stroke-linejoin="round" stroke-miterlimit="10" stroke-width="0.3" x1="202.58" x2="190.727" y1="90.152" y2="82.743"/>
  <polyline points="193.181 89.135 193.604 89.221 193.308 87.909" stroke-linejoin="round" stroke-miterlimit="10" stroke-width="0.3"/>
  <line stroke-linejoin="round" stroke-miterlimit="10" stroke-width="0.3" x1="193.181" x2="193.097" y1="89.135" y2="88.671"/>
  <polyline points="193.055 88.543 193.055 88.671 193.097 88.798" stroke-linejoin="round" stroke-miterlimit="10" stroke-width="0.3"/>
  <polyline points="193.308 87.909 192.969 88.162 193.097 88.671" stroke-linejoin="round" stroke-miterlimit="10" stroke-width="0.3"/>
  <line stroke-linejoin="round" stroke-miterlimit="10" stroke-width="0.3" x1="194.366" x2="194.366" y1="89.093" y2="89.135"/>
  <line stroke-linejoin="round" stroke-miterlimit="10" stroke-width="0.3" x1="193.775" x2="194.112" y1="89.179" y2="89.009"/>
  <polyline points="194.537 87.528 194.07 87.655 194.112 87.992 194.198 88.373" stroke-linejoin="round" stroke-miterlimit="10" stroke-width="0.3"/>
  <polyline points="193.817 87.865 194.028 87.697 194.07 87.655" stroke-linejoin="round" stroke-miterlimit="10" stroke-width="0.3"/>
  <line stroke-linejoin="round" stroke-miterlimit="10" stroke-width="0.3" x1="193.817" x2="193.478" y1="87.865" y2="87.865"/>
  <polyline points="194.537 87.528 194.705 88.246 194.198 88.373" stroke-linejoin="round" stroke-miterlimit="10" stroke-width="0.3"/>
  <polyline points="195.425 86.935 195.044 87.061 194.79 87.316 194.579 87.611" stroke-linejoin="round" stroke-miterlimit="10" stroke-width="0.3"/>
  <polyline points="195.341 86.638 195.467 86.766 195.425 86.935" stroke-linejoin="round" stroke-miterlimit="10" stroke-width="0.3"/>
  <line stroke-linejoin="round" stroke-miterlimit="10" stroke-width="0.3" x1="193.817" x2="194.112" y1="87.865" y2="89.009"/>
  <polyline points="193.775 89.179 193.478 87.865 193.308 87.909" stroke-linejoin="round" stroke-miterlimit="10" stroke-width="0.3"/>
  <polyline points="194.198 88.373 194.282 88.754 194.366 89.093" stroke-linejoin="round" stroke-miterlimit="10" stroke-width="0.3"/>
  <line stroke-linejoin="round" stroke-miterlimit="10" stroke-width="0.3" x1="194.875" x2="194.875" y1="88.966" y2="89.009"/>
  <polyline points="196.737 87.781 196.907 87.697 197.033 87.697" stroke-linejoin="round" stroke-miterlimit="10" stroke-width="0.3"/>
  <line stroke-linejoin="round" stroke-miterlimit="10" stroke-width="0.3" x1="196.187" x2="197.161" y1="87.188" y2="87.781"/>
  <polyline points="195.044 89.052 195.467 89.221 195.89 89.179 196.314 89.009 196.652 88.671 196.78 88.246 196.78 87.781" stroke-linejoin="round" stroke-miterlimit="10" stroke-width="0.3"/>
  <line stroke-linejoin="round" stroke-miterlimit="10" stroke-width="0.3" x1="195.68" x2="197.627" y1="59.884" y2="58.658"/>
  <polyline points="194.366 56.667 194.875 56.753 194.366 56.625" stroke-linejoin="round" stroke-miterlimit="10" stroke-width="0.3"/>
  <polyline points="193.181 56.582 193.604 56.499 193.308 57.853" stroke-linejoin="round" stroke-miterlimit="10" stroke-width="0.3"/>
  <line stroke-linejoin="round" stroke-miterlimit="10" stroke-width="0.3" x1="193.181" x2="193.097" y1="56.582" y2="57.091"/>
  <polyline points="193.097 56.963 193.055 57.091 193.055 57.218" stroke-linejoin="round" stroke-miterlimit="10" stroke-width="0.3"/>
  <polyline points="193.308 57.853 192.969 57.598 193.097 57.091" stroke-linejoin="round" stroke-miterlimit="10" stroke-width="0.3"/>
  <line stroke-linejoin="round" stroke-miterlimit="10" stroke-width="0.3" x1="193.604" x2="193.775" y1="56.499" y2="56.54"/>
  <polyline points="194.112 56.71 194.366 56.625 194.366 56.667" stroke-linejoin="round" stroke-miterlimit="10" stroke-width="0.3"/>
  <polyline points="194.537 58.192 194.07 58.106 194.112 57.725 194.198 57.387" stroke-linejoin="round" stroke-miterlimit="10" stroke-width="0.3"/>
  <polyline points="193.817 57.853 194.028 58.064 194.07 58.106" stroke-linejoin="round" stroke-miterlimit="10" stroke-width="0.3"/>
  <line stroke-linejoin="round" stroke-miterlimit="10" stroke-width="0.3" x1="193.478" x2="193.817" y1="57.896" y2="57.853"/>
  <polyline points="194.537 58.192 194.705 57.515 194.198 57.387" stroke-linejoin="round" stroke-miterlimit="10" stroke-width="0.3"/>
  <polyline points="194.579 58.106 194.79 58.445 195.044 58.7 195.425 58.826 195.467 58.954 195.341 59.122" stroke-linejoin="round" stroke-miterlimit="10" stroke-width="0.3"/>
  <line stroke-linejoin="round" stroke-miterlimit="10" stroke-width="0.3" x1="193.817" x2="194.112" y1="57.853" y2="56.71"/>
  <polyline points="193.775 56.54 193.478 57.896 193.308 57.853" stroke-linejoin="round" stroke-miterlimit="10" stroke-width="0.3"/>
  <polyline points="194.198 57.387 194.282 57.006 194.366 56.667" stroke-linejoin="round" stroke-miterlimit="10" stroke-width="0.3"/>
  <polyline points="197.033 58.064 196.907 58.064 196.737 57.979" stroke-linejoin="round" stroke-miterlimit="10" stroke-width="0.3"/>
  <line stroke-linejoin="round" stroke-miterlimit="10" stroke-width="0.3" x1="196.187" x2="197.161" y1="58.573" y2="57.979"/>
  <polyline points="196.78 57.979 196.78 57.515 196.652 57.091 196.314 56.753 195.89 56.54 195.467 56.54 195.044 56.71" stroke-linejoin="round" stroke-miterlimit="10" stroke-width="0.3"/>
  <polyline points="112.498 39.777 112.498 34.148 79.522 34.148" stroke-linejoin="round" stroke-miterlimit="10" stroke-width="0.3"/>
  <polyline points="156.48 48.329 156.354 47.439 156.099 46.551 155.675 45.789 155.126 45.069 154.406 44.518 153.602 44.052 152.754 43.798 151.866 43.713" stroke-linejoin="round" stroke-miterlimit="10" stroke-width="0.3"/>
  <polyline points="160.417 48.329 160.332 47.1 160.079 45.915 159.656 44.773 159.062 43.713 158.342 42.74 157.454 41.851 156.48 41.131 155.421 40.539 154.278 40.115 153.051 39.862 151.866 39.777" stroke-linejoin="round" stroke-miterlimit="10" stroke-width="0.3"/>
  <polyline points="178.153 51.715 177.943 51.756 177.858 51.969" stroke-linejoin="round" stroke-miterlimit="10" stroke-width="0.3"/>
  <line stroke-linejoin="round" stroke-miterlimit="10" stroke-width="0.3" x1="182.556" x2="178.153" y1="51.715" y2="51.715"/>
  <polyline points="182.811 51.969 182.725 51.756 182.556 51.715" stroke-linejoin="round" stroke-miterlimit="10" stroke-width="0.3"/>
  <polyline points="183.784 62.975 183.784 62.679 182.811 62.085" stroke-linejoin="round" stroke-miterlimit="10" stroke-width="0.3"/>
  <line stroke-linejoin="round" stroke-miterlimit="10" stroke-width="0.3" x1="183.784" x2="183.784" y1="62.679" y2="62.975"/>
  <line stroke-linejoin="round" stroke-miterlimit="10" stroke-width="0.3" x1="88.918" x2="80.367" y1="95.105" y2="95.105"/>
  <polyline points="80.706 100.692 80.367 100.396 80.367 95.105" stroke-linejoin="round" stroke-miterlimit="10" stroke-width="0.3"/>
  <polyline points="88.581 100.692 88.918 100.396 88.918 95.105" stroke-linejoin="round" stroke-miterlimit="10" stroke-width="0.3"/>
  <line stroke-linejoin="round" stroke-miterlimit="10" stroke-width="0.3" x1="88.581" x2="80.706" y1="100.692" y2="100.692"/>
  <polyline points="154.491 100.692 154.151 100.396 154.151 95.105" stroke-linejoin="round" stroke-miterlimit="10" stroke-width="0.3"/>
  <polyline points="162.407 100.692 162.703 100.396 162.703 95.105" stroke-linejoin="round" stroke-miterlimit="10" stroke-width="0.3"/>
  <line stroke-linejoin="round" stroke-miterlimit="10" stroke-width="0.3" x1="162.407" x2="154.491" y1="100.692" y2="100.692"/>
  <line stroke-linejoin="round" stroke-miterlimit="10" stroke-width="0.3" x1="177.858" x2="177.858" y1="50.953" y2="94.766"/>
  <line stroke-linejoin="round" stroke-miterlimit="10" stroke-width="0.3" x1="183.784" x2="190.727" y1="82.743" y2="82.743"/>
  <line stroke-linejoin="round" stroke-miterlimit="10" stroke-width="0.3" x1="160.417" x2="160.417" y1="48.329" y2="50.656"/>
  <line stroke-linejoin="round" stroke-miterlimit="10" stroke-width="0.3" x1="162.703" x2="162.237" y1="100.185" y2="100.692"/>
  <line stroke-linejoin="round" stroke-miterlimit="10" stroke-width="0.3" x1="129.176" x2="117.323" y1="50.656" y2="50.656"/>
  <line stroke-linejoin="round" stroke-miterlimit="10" stroke-width="0.3" x1="114.784" x2="112.498" y1="50.656" y2="48.329"/>
  <line stroke-linejoin="round" stroke-miterlimit="10" stroke-width="0.3" x1="182.811" x2="182.811" y1="62.085" y2="61.197"/>
  <line stroke-linejoin="round" stroke-miterlimit="10" stroke-width="0.3" x1="182.811" x2="182.811" y1="51.969" y2="53.112"/>
  <line stroke-linejoin="round" stroke-miterlimit="10" stroke-width="0.3" x1="182.811" x2="182.811" y1="53.112" y2="61.197"/>
  <line stroke-linejoin="round" stroke-miterlimit="10" stroke-width="0.3" x1="156.48" x2="156.48" y1="48.329" y2="50.656"/>
  <line stroke-linejoin="round" stroke-miterlimit="10" stroke-width="0.3" x1="112.498" x2="114.444" y1="37.787" y2="39.777"/>
  <line stroke-linejoin="round" stroke-miterlimit="10" stroke-width="0.3" x1="112.498" x2="114.444" y1="45.704" y2="43.713"/>
  <line stroke-linejoin="round" stroke-miterlimit="10" stroke-width="0.3" x1="156.48" x2="154.491" y1="48.667" y2="50.656"/>
  <line stroke-linejoin="round" stroke-miterlimit="10" stroke-width="0.3" x1="160.417" x2="162.407" y1="48.667" y2="50.656"/>
  <line stroke-linejoin="round" stroke-miterlimit="10" stroke-width="0.3" x1="77.236" x2="79.522" y1="50.656" y2="48.329"/>
  <line stroke-linejoin="round" stroke-miterlimit="10" stroke-width="0.3" x1="112.498" x2="151.866" y1="43.713" y2="43.713"/>
  <line stroke-linejoin="round" stroke-miterlimit="10" stroke-width="0.3" x1="112.498" x2="151.866" y1="39.777" y2="39.777"/>
  <line stroke-linejoin="round" stroke-miterlimit="10" stroke-width="0.3" x1="79.522" x2="79.522" y1="50.656" y2="34.148"/>
  <line stroke-linejoin="round" stroke-miterlimit="10" stroke-width="0.3" x1="112.498" x2="112.498" y1="50.656" y2="39.777"/>
  <line stroke-linejoin="round" stroke-miterlimit="10" stroke-width="0.3" x1="194.112" x2="193.775" y1="56.71" y2="56.54"/>
  <line stroke-linejoin="round" stroke-miterlimit="10" stroke-width="0.3" x1="195.044" x2="194.875" y1="56.71" y2="56.837"/>
  <line stroke-linejoin="round" stroke-miterlimit="10" stroke-width="0.3" x1="195.425" x2="196.78" y1="58.826" y2="57.979"/>
  <line stroke-linejoin="round" stroke-miterlimit="10" stroke-width="0.3" x1="195.213" x2="196.187" y1="59.165" y2="58.573"/>
  <line stroke-linejoin="round" stroke-miterlimit="10" stroke-width="0.3" x1="194.705" x2="194.875" y1="57.515" y2="56.753"/>
  <line stroke-linejoin="round" stroke-miterlimit="10" stroke-width="0.3" x1="197.627" x2="197.161" y1="58.658" y2="57.979"/>
  <line stroke-linejoin="round" stroke-miterlimit="10" stroke-width="0.3" x1="196.652" x2="196.187" y1="59.292" y2="58.573"/>
  <line stroke-linejoin="round" stroke-miterlimit="10" stroke-width="0.3" x1="195.68" x2="195.213" y1="59.884" y2="59.165"/>
  <line stroke-linejoin="round" stroke-miterlimit="10" stroke-width="0.3" x1="193.604" x2="193.775" y1="89.221" y2="89.179"/>
  <line stroke-linejoin="round" stroke-miterlimit="10" stroke-width="0.3" x1="194.112" x2="194.366" y1="89.009" y2="89.135"/>
  <line stroke-linejoin="round" stroke-miterlimit="10" stroke-width="0.3" x1="195.68" x2="197.627" y1="85.834" y2="87.061"/>
  <line stroke-linejoin="round" stroke-miterlimit="10" stroke-width="0.3" x1="194.366" x2="194.875" y1="89.093" y2="88.966"/>
  <line stroke-linejoin="round" stroke-miterlimit="10" stroke-width="0.3" x1="194.366" x2="194.875" y1="89.135" y2="89.009"/>
  <line stroke-linejoin="round" stroke-miterlimit="10" stroke-width="0.3" x1="194.875" x2="195.044" y1="88.924" y2="89.052"/>
  <line stroke-linejoin="round" stroke-miterlimit="10" stroke-width="0.3" x1="195.425" x2="196.78" y1="86.935" y2="87.781"/>
  <line stroke-linejoin="round" stroke-miterlimit="10" stroke-width="0.3" x1="195.213" x2="196.187" y1="86.554" y2="87.188"/>
  <line stroke-linejoin="round" stroke-miterlimit="10" stroke-width="0.3" x1="194.705" x2="194.875" y1="88.246" y2="88.966"/>
  <line stroke-linejoin="round" stroke-miterlimit="10" stroke-width="0.3" x1="197.627" x2="197.161" y1="87.061" y2="87.781"/>
  <line stroke-linejoin="round" stroke-miterlimit="10" stroke-width="0.3" x1="196.652" x2="196.187" y1="86.468" y2="87.188"/>
  <line stroke-linejoin="round" stroke-miterlimit="10" stroke-width="0.3" x1="195.68" x2="195.213" y1="85.834" y2="86.554"/>
  <line stroke-linejoin="round" stroke-miterlimit="10" stroke-width="0.3" x1="190.727" x2="202.58" y1="62.975" y2="55.567"/>
  <line stroke-linejoin="round" stroke-miterlimit="10" stroke-width="0.3" x1="221.713" x2="202.58" y1="55.567" y2="55.567"/>
  <line stroke-linejoin="round" stroke-miterlimit="10" stroke-width="0.3" x1="221.713" x2="202.58" y1="90.152" y2="90.152"/>
  <line stroke-linejoin="round" stroke-miterlimit="10" stroke-width="0.3" x1="82.442" x2="177.562" y1="50.656" y2="50.656"/>
  <line stroke-linejoin="round" stroke-miterlimit="10" stroke-width="0.3" x1="72.114" x2="74.781" y1="66.277" y2="63.652"/>
  <line stroke-linejoin="round" stroke-miterlimit="10" stroke-width="0.3" x1="72.114" x2="74.781" y1="79.441" y2="82.108"/>
  <line stroke-linejoin="round" stroke-miterlimit="10" stroke-width="0.3" x1="82.442" x2="177.562" y1="95.105" y2="95.105"/>
  <line stroke-linejoin="round" stroke-miterlimit="10" stroke-width="0.3" x1="182.811" x2="182.811" y1="83.676" y2="84.563"/>
  <line stroke-linejoin="round" stroke-miterlimit="10" stroke-width="0.3" x1="74.781" x2="74.781" y1="72.881" y2="94.766"/>
  <line stroke-linejoin="round" stroke-miterlimit="10" stroke-width="0.3" x1="74.781" x2="74.781" y1="94.766" y2="72.881"/>
  <line stroke-linejoin="round" stroke-miterlimit="10" stroke-width="0.3" x1="25.507" x2="25.507" y1="79.441" y2="66.277"/>
  <line stroke-linejoin="round" stroke-miterlimit="10" stroke-width="0.3" x1="25.507" x2="25.634" y1="79.358" y2="79.441"/>
  <line stroke-linejoin="round" stroke-miterlimit="10" stroke-width="0.3" x1="25.507" x2="72.114" y1="66.277" y2="66.277"/>
  <line stroke-linejoin="round" stroke-miterlimit="10" stroke-width="0.3" x1="25.507" x2="72.114" y1="79.441" y2="79.441"/>
 </g>
 <g>
  <line stroke="#FFFFFF" stroke-width="1" x1="30.007" x2="77.468" y1="41.746" y2="41.746"/>
  <line stroke-dasharray="2 0.5 0.2 0.5" stroke-width="0.13" x1="29.443" x2="78.034" y1="41.746" y2="41.746"/>
 </g>
 <text fill="#000000" font-family="'Helvetica'" font-size="4.232" font-weight="bold" stroke="none" x="215.671" y="6.597">3</text>
 <polygon points="180.974 0.15 231.788 0.15 231.788 33.549 180.974 33.549 180.974 0.15" stroke-width="0.3"/>
 <g>
  <g>
   <g>
    <path d="M211.54 18.08C211.54 16.669 208.832 15.525 205.492 15.525C202.152 15.525 199.445 16.669 199.445 18.08C199.445 19.492 202.152 20.637 205.492 20.637C208.832 20.637 211.54 19.492 211.54 18.08" stroke-width="0.13"/>
   </g>
   <g>
    <g>
     <path d="M210.33 18.08C210.33 16.951 208.164 16.036 205.492 16.036C202.82 16.036 200.655 16.951 200.655 18.08C200.655 19.21 202.82 20.126 205.492 20.126C208.164 20.126 210.33 19.21 210.33 18.08" stroke-width="0.13"/>
    </g>
    <g>
     <path d="M210.283 18.367C209.943 17.347 207.883 16.611 205.492 16.608C203.06 16.608 201.045 17.367 200.703 18.367" stroke-width="0.13"/>
    </g>
    <g>
     <path d="M199.445 18.896C199.445 20.309 202.152 21.452 205.492 21.452C208.832 21.452 211.54 20.309 211.54 18.896" stroke-width="0.13"/>
    </g>
    <line stroke-width="0.13" x1="199.445" x2="199.445" y1="18.896" y2="18.167"/>
    <line stroke-width="0.13" x1="211.54" x2="211.54" y1="18.896" y2="18.08"/>
   </g>
  </g>
  <g>
   <path d="M186.076 19.295C186.076 19.295 186.444 19.701 187.99 20.216C188.693 20.451 186.407 21.1 185.045 18.634" stroke-width="0.13"/>
   <path d="M189.176 20.114C189.176 20.114 186.885 19.111 186.076 18.192" stroke-width="0.13"/>
   <path d="M184.669 18.015C184.669 18.015 201.271 12.85 202.542 11.102" stroke-width="0.3"/>
   <path d="M202.542 11.102C203.332 10.31 204.185 11.125 204.185 11.125C204.993 12.045 207.284 13.048 207.284 13.048" stroke-width="0.3"/>
   <path d="M226.356 20.001C226.667 19.67 226.608 19.278 226.792 18.974C228.033 16.923 223.848 15.846 219.504 15.22C215.162 14.595 213.284 15.035 207.284 13.048" stroke-width="0.3"/>
   <path d="M190.33 19.586C190.33 19.586 203.941 15.294 204.971 13.875" stroke-width="0.13"/>
   <path d="M206.033 29.091C206.033 29.091 225.086 21.75 226.356 20.001" stroke-width="0.3"/>
   <path d="M210.891 25.189C210.891 25.189 223.865 20.192 224.729 19.001" stroke-width="0.13"/>
   <path d="M184.669 18.015C184.364 18.155 184.262 18.553 184.76 19.489C185.949 21.718 187.705 21.44 188.219 21.071C188.735 20.704 189.324 20.85 189.949 21.992C190.575 23.132 192.931 25.489 196.39 26.297C199.85 27.108 202.906 28.617 204.487 29.021C205.242 29.214 205.712 29.207 206.034 29.089" stroke-width="0.3"/>
   <path d="M186.076 18.192C186.076 18.192 185.134 17.801 184.669 18.015" stroke-width="0.13"/>
   <path d="M206.034 29.089C206.387 28.961 206.56 28.702 206.733 28.432C207.064 27.917 208.905 26.96 208.683 26.041C208.462 25.12 205.74 22.911 201.396 22.286C197.054 21.661 195.176 22.103 189.176 20.114" stroke-width="0.13"/>
   <path d="M190.627 21.242C190.627 21.242 191.436 23.451 199.828 25.192C200.421 25.315 205.826 27.425 206.269 26.506" stroke-width="0.13"/>
   <line stroke-width="0.3" x1="190.236" x2="193.355" y1="17.899" y2="16.708"/>
   <line stroke-width="0.3" x1="198.997" x2="202.116" y1="14.554" y2="13.364"/>
   <line stroke-width="0.3" x1="190.348" x2="193.467" y1="17.992" y2="16.8"/>
   <line stroke-width="0.3" x1="199.106" x2="202.225" y1="14.647" y2="13.455"/>
   <line stroke-width="0.3" x1="199.106" x2="198.997" y1="14.647" y2="14.554"/>
   <line stroke-width="0.3" x1="202.225" x2="202.116" y1="13.455" y2="13.364"/>
   <line stroke-width="0.3" x1="190.348" x2="190.236" y1="17.992" y2="17.899"/>
   <line stroke-width="0.3" x1="193.467" x2="193.355" y1="16.8" y2="16.708"/>
   <g>
    <path d="M205.092 22.19C205.092 20.923 203.037 19.894 200.501 19.894C197.966 19.894 195.911 20.923 195.911 22.19C195.911 23.457 197.966 24.484 200.501 24.484C203.037 24.484 205.092 23.457 205.092 22.19" stroke-width="1"/>
   </g>
   <g>
    <path d="M213.699 24.003C213.699 23.033 211.842 22.248 209.55 22.248C207.258 22.248 205.4 23.033 205.4 24.003C205.4 24.971 207.258 25.757 209.55 25.757C211.842 25.757 213.699 24.971 213.699 24.003" stroke-width="0.3"/>
   </g>
   <g>
    <path d="M223.956 18.521C223.956 17.565 222.125 16.792 219.866 16.792C217.605 16.792 215.774 17.565 215.774 18.521C215.774 19.475 217.605 20.25 219.866 20.25C222.125 20.25 223.956 19.475 223.956 18.521" stroke-width="0.7"/>
   </g>
   <g>
    <path d="M195.144 20.257C195.931 20.5 197.929 20.983 201.723 21.146C206.691 21.359 209.57 20.888 212.967 22.399" stroke="#FFFFFF" stroke-width="1"/>
    <path d="M194.735 20.114C194.735 20.114 196.574 20.925 201.728 21.146C206.881 21.367 209.788 20.85 213.358 22.58" stroke-width="0.13"/>
   </g>
   <g>
    <path d="M204.556 15.256C204.991 15.522 205.983 15.874 208.205 15.919C213.175 16.021 216.84 16.028 220.294 17.579" stroke="#FFFFFF" stroke-width="1"/>
    <path d="M204.23 14.962C204.23 14.962 204.598 15.846 208.205 15.919C213.361 16.024 217.111 16.03 220.681 17.76" stroke-width="0.13"/>
   </g>
  </g>
  <g>
   <path d="M213.425 18.144C213.882 18.144 214.251 17.775 214.251 17.32 214.251 16.864 213.882 16.495 213.425 16.495 212.969 16.495 212.6 16.864 212.6 17.32 212.6 17.775 212.969 18.144 213.425 18.144z" fill="#FFFFFF" stroke="none"/>
   <line stroke="#FFFFFF" stroke-width="1" x1="215.967" x2="213.425" y1="8.368" y2="17.32"/>
   <path d="M213.425 17.71C213.64 17.71 213.816 17.535 213.816 17.32 213.816 17.103 213.64 16.929 213.425 16.929 213.21 16.929 213.036 17.103 213.036 17.32 213.036 17.535 213.21 17.71 213.425 17.71z" fill="#000000" stroke="none"/>
   <line stroke-width="0.13" x1="216.122" x2="213.425" y1="7.825" y2="17.32"/>
  </g>
 </g>
 <line stroke-width="0.3" x1="182.811" x2="182.811" y1="62.085" y2="83.676"/>
 <line stroke-width="0.3" x1="183.784" x2="183.784" y1="62.679" y2="83.09"/>
 <line stroke-width="0.3" x1="190.727" x2="190.727" y1="62.975" y2="82.743"/>
</svg>