<?xml version="1.0" encoding="UTF-8" standalone="no"?><!-- Generator: PTC Arbortext IsoDraw 7.3 M090 --><svg xmlns="http://www.w3.org/2000/svg" xmlns:xlink="http://www.w3.org/1999/xlink" clip-rule="evenodd" fill="none" fill-rule="evenodd" font-family="sans-serif" font-size="10" font-stretch="normal" font-style="normal" font-variant="normal" font-weight="normal" height="160.789" id="Livello_x0020_standard" onabort="parent.dwImageSVGOnAbort('ABX143132954');" onerror="parent.dwImageSVGOnError('ABX143132954');" onload="parent.dwImageSVGOnLoad('ABX143132954');" stroke="#000000" stroke-linecap="round" viewBox="0.0 0.0 254.967 160.789" width="254.967" x="0" xml:space="preserve" y="0">
 <g id="60428_1_PLATFORM_CENTER_LEFT_MO">
  <desc>60428_1_PLATFORM_CENTER_LEFT_MO</desc>
  <g id="01_0019_0014_0_DADO_ESAGONALE_M_6">
   <desc>01_0019_0014_0_DADO_ESAGONALE_M</desc>
   <path d="M218.677 89.061C218.634 89.031 218.658 89.046 218.61 89.022" stroke-width="0.13"/>
   <path d="M218.733 89.137C218.717 89.099 218.727 89.117 218.703 89.084" stroke-width="0.13"/>
   <path d="M218.62 89.192C218.62 89.069 218.602 89.117 218.646 89.04" stroke-width="0.13"/>
   <path d="M218.215 89.04C218.181 89.061 218.15 89.084 218.133 89.123" stroke-width="0.13"/>
   <path d="M218.633 89.096C218.615 89.082 218.625 89.088 218.603 89.078" stroke-width="0.13"/>
   <path d="M218.61 89.022C218.55 89.001 218.493 88.99 218.431 88.987C218.353 88.992 218.284 89.004 218.215 89.04" stroke="#808080" stroke-width="0.1"/>
   <path d="M218.603 89.078C218.544 89.049 218.484 89.043 218.419 89.042C218.356 89.046 218.296 89.055 218.241 89.087" stroke="#808080" stroke-width="0.1"/>
  </g>
  <g id="01_0019_0014_0_DADO_ESAGONALE_M_5">
   <desc>01_0019_0014_0_DADO_ESAGONALE_M</desc>
   <path d="M137.549 135.938C137.473 135.866 137.378 135.847 137.276 135.842C137.198 135.846 137.131 135.859 137.06 135.894" stroke="#808080" stroke-width="0.1"/>
   <path d="M137.449 135.932C137.39 135.903 137.329 135.896 137.264 135.895C137.203 135.9 137.143 135.909 137.087 135.941" stroke="#808080" stroke-width="0.1"/>
   <path d="M137.579 135.991C137.562 135.955 137.573 135.972 137.549 135.938" stroke-width="0.13"/>
   <path d="M137.466 136.046C137.466 135.923 137.448 135.972 137.492 135.894" stroke-width="0.13"/>
   <path d="M137.06 135.894C137.026 135.917 136.996 135.938 136.979 135.978" stroke-width="0.13"/>
   <path d="M137.479 135.95C137.461 135.937 137.471 135.943 137.449 135.932" stroke-width="0.13"/>
  </g>
  <g id="60429_0_PLATFORM_CENTER_LEFT_PL">
   <desc>60429_0_PLATFORM_CENTER_LEFT_PL</desc>
   <line stroke-width="0.25" x1="96.969" x2="96.969" y1="135.55" y2="135.362"/>
   <line stroke-width="0.25" x1="254.842" x2="134.3" y1="91.069" y2="160.664"/>
   <line stroke-width="0.25" x1="134.138" x2="134.3" y1="160.57" y2="160.664"/>
   <line stroke-width="0.25" x1="161.435" x2="161.435" y1="99.593" y2="99.406"/>
   <line stroke-width="0.13" x1="228.33" x2="228.33" y1="81.2" y2="81.387"/>
   <line stroke-width="0.13" x1="225.788" x2="225.788" y1="79.73" y2="79.918"/>
   <line stroke-width="0.13" x1="224.977" x2="224.977" y1="83.135" y2="83.322"/>
   <line stroke-width="0.13" x1="222.433" x2="222.433" y1="81.668" y2="81.855"/>
   <line stroke-width="0.13" x1="217.538" x2="217.538" y1="104.236" y2="104.049"/>
   <line stroke-width="0.13" x1="218.294" x2="218.294" y1="104.674" y2="104.486"/>
   <line stroke-width="0.13" x1="215.373" x2="215.373" y1="102.986" y2="102.799"/>
   <line stroke-width="0.13" x1="216.131" x2="216.131" y1="103.424" y2="103.236"/>
   <line stroke-width="0.13" x1="218.728" x2="218.728" y1="88.805" y2="88.992"/>
   <line stroke-width="0.13" x1="137.574" x2="137.574" y1="135.659" y2="135.847"/>
   <line stroke-width="0.13" x1="146.014" x2="146.014" y1="147.155" y2="147.342"/>
   <line stroke-width="0.13" x1="144.444" x2="144.444" y1="148.061" y2="148.247"/>
   <line stroke-width="0.13" x1="165.491" x2="165.491" y1="135.909" y2="136.097"/>
   <line stroke-width="0.13" x1="163.921" x2="163.921" y1="136.816" y2="137.002"/>
   <line stroke-width="0.13" x1="180.342" x2="180.342" y1="88.445" y2="88.634"/>
   <line stroke-width="0.13" x1="181.911" x2="181.911" y1="87.54" y2="87.727"/>
   <line stroke-width="0.13" x1="126.293" x2="126.293" y1="119.65" y2="119.838"/>
   <line stroke-width="0.13" x1="127.861" x2="127.861" y1="118.745" y2="118.933"/>
   <line stroke-width="0.13" x1="148.584" x2="148.584" y1="111.78" y2="111.966"/>
   <line stroke-width="0.13" x1="150.152" x2="150.152" y1="110.873" y2="111.061"/>
   <line stroke-width="0.13" x1="163.787" x2="163.787" y1="98.629" y2="98.816"/>
   <line stroke-width="0.13" x1="165.355" x2="165.355" y1="97.724" y2="97.911"/>
   <line stroke-width="0.13" x1="162.627" x2="162.627" y1="99.959" y2="99.771"/>
   <line stroke-width="0.13" x1="198.358" x2="198.358" y1="78.045" y2="78.231"/>
   <line stroke-width="0.13" x1="199.926" x2="199.926" y1="77.138" y2="77.325"/>
   <line stroke-width="0.13" x1="108.222" x2="108.222" y1="130.084" y2="130.271"/>
   <line stroke-width="0.13" x1="109.792" x2="109.792" y1="129.177" y2="129.366"/>
   <line stroke-width="0.13" x1="247.05" x2="247.05" y1="86.165" y2="86.353"/>
   <line stroke-width="0.13" x1="248.62" x2="248.62" y1="85.26" y2="85.447"/>
   <line stroke-width="0.13" x1="234.606" x2="234.606" y1="78.981" y2="79.168"/>
   <line stroke-width="0.13" x1="236.175" x2="236.175" y1="78.075" y2="78.263"/>
   <line stroke-width="0.13" x1="222.163" x2="222.163" y1="71.796" y2="71.984"/>
   <line stroke-width="0.13" x1="223.733" x2="223.733" y1="70.891" y2="71.078"/>
   <line stroke-width="0.13" x1="183.155" x2="182.992" y1="130.584" y2="130.49"/>
   <line stroke-width="0.13" x1="180.449" x2="180.288" y1="132.145" y2="132.051"/>
   <line stroke-width="0.13" x1="254.842" x2="134.3" y1="87.947" y2="157.54"/>
   <line stroke-width="0.13" x1="132.191" x2="132.191" y1="153.729" y2="153.918"/>
   <line stroke-width="0.13" x1="254.3" x2="133.759" y1="87.009" y2="156.604"/>
   <line stroke-width="0.13" x1="130.622" x2="130.622" y1="152.824" y2="153.012"/>
   <line stroke-width="0.13" x1="118.177" x2="118.177" y1="145.826" y2="145.639"/>
   <line stroke-width="0.13" x1="119.746" x2="119.746" y1="146.733" y2="146.545"/>
   <line stroke-width="0.13" x1="105.733" x2="105.733" y1="138.643" y2="138.455"/>
   <line stroke-width="0.13" x1="107.302" x2="107.302" y1="139.549" y2="139.36"/>
   <path d="M107.424 139.507L107.403 139.455C107.355 139.373 107.245 139.328 107.171 139.284L105.867 138.532C105.799 138.493 105.73 138.447 105.656 138.42C105.581 138.394 105.558 138.395 105.478 138.385L105.385 138.385L105.295 138.399C105.189 138.419 105.043 138.479 105.019 138.599L105.019 138.652" stroke="#808080" stroke-width="0.1"/>
   <path d="M107.424 139.507L107.424 139.561C107.4 139.681 107.253 139.74 107.147 139.762L107.057 139.774L106.962 139.775C106.885 139.764 106.859 139.766 106.786 139.74C106.712 139.713 106.641 139.667 106.575 139.628L105.272 138.876C105.197 138.832 105.087 138.787 105.039 138.705L105.019 138.652" stroke-width="0.25"/>
   <path d="M107.391 139.627C107.331 139.555 107.251 139.519 107.171 139.472L105.867 138.718C105.799 138.681 105.73 138.634 105.656 138.608C105.582 138.581 105.558 138.582 105.481 138.573C105.34 138.573 105.192 138.586 105.081 138.685L105.051 138.721" stroke-width="0.25"/>
   <path d="M110.507 129.323L110.507 129.377C110.484 129.491 110.34 129.549 110.254 129.598L108.95 130.35C108.884 130.389 108.813 130.436 108.739 130.462C108.667 130.489 108.643 130.487 108.564 130.497C108.445 130.497 108.331 130.489 108.224 130.427C108.17 130.396 108.115 130.349 108.102 130.286L108.102 130.23" stroke-width="0.25"/>
   <path d="M108.135 130.349C108.194 130.277 108.274 130.242 108.355 130.194L109.659 129.442C109.719 129.407 109.798 129.356 109.867 129.33C110.06 129.262 110.337 129.277 110.474 129.443" stroke-width="0.25"/>
   <path d="M110.507 129.323L110.486 129.27C110.418 129.156 110.257 129.116 110.135 129.109L110.043 129.109C109.966 129.118 109.939 129.117 109.867 129.144C109.798 129.169 109.719 129.219 109.659 129.254L108.355 130.008C108.281 130.05 108.17 130.097 108.121 130.177L108.102 130.23" stroke="#808080" stroke-width="0.1"/>
   <path d="M119.867 146.692L119.846 146.639C119.799 146.557 119.688 146.512 119.614 146.468L118.31 145.716C118.243 145.677 118.173 145.631 118.099 145.604C118.025 145.578 118.001 145.58 117.923 145.569L117.828 145.57L117.739 145.582C117.634 145.604 117.486 145.663 117.462 145.783L117.462 145.837" stroke="#808080" stroke-width="0.1"/>
   <path d="M119.867 146.692L119.867 146.745C119.843 146.866 119.695 146.924 119.59 146.945L119.501 146.959L119.406 146.959C119.328 146.949 119.304 146.95 119.23 146.924C119.156 146.897 119.084 146.85 119.019 146.812L117.715 146.06C117.641 146.016 117.53 145.971 117.481 145.889L117.462 145.837" stroke-width="0.25"/>
   <path d="M119.834 146.811C119.775 146.739 119.695 146.704 119.614 146.657L118.31 145.903C118.243 145.865 118.174 145.818 118.099 145.792C118.027 145.765 118.003 145.768 117.924 145.758C117.784 145.758 117.637 145.771 117.525 145.868L117.495 145.905" stroke-width="0.25"/>
   <path d="M159.455 101.799L159.356 101.917L158.437 103.001L158.338 103.118L158.233 103.228L157.216 104.286L157.11 104.396L156.997 104.5L155.883 105.528L155.77 105.631L155.651 105.728L154.431 106.73L154.313 106.828L154.191 106.918L152.872 107.89L152.75 107.98L152.622 108.064L151.216 108.996L151.087 109.081L150.956 109.159L149.455 110.054L149.323 110.132L149.187 110.203L147.6 111.055L147.328 111.194L145.663 111.996L145.525 112.063C144.177 112.68 142.783 113.248 141.391 113.757C139.948 114.286 138.465 114.763 136.986 115.186L136.838 115.225L132.945 116.266L132.798 116.305C130.424 116.986 128.087 117.832 125.846 118.873C124.751 119.382 123.68 119.941 122.635 120.546L97.102 135.287L96.969 135.362" stroke-width="0.25"/>
   <path d="M96.969 135.55L97.102 135.627L133.627 156.715C133.694 156.753 133.772 156.794 133.836 156.844C133.989 156.967 134.099 157.161 134.129 157.354C134.143 157.433 134.138 157.52 134.138 157.599L134.138 160.418L134.138 160.57" stroke-width="0.25"/>
   <path d="M217.51 65.769L217.643 65.844L254.168 86.933C254.258 86.984 254.329 87.021 254.408 87.085C254.627 87.262 254.786 87.537 254.83 87.813C254.846 87.915 254.842 87.995 254.842 88.099L254.842 90.917L254.842 91.069" stroke-width="0.25"/>
   <path d="M161.435 99.406L161.544 99.299L162.427 98.424L162.537 98.317L162.652 98.216L163.627 97.368L163.741 97.269L163.862 97.174L164.93 96.352L165.05 96.26L165.176 96.173L166.329 95.382L166.455 95.296L166.586 95.216L167.824 94.459L168.087 94.302L217.377 65.844L217.51 65.769" stroke-width="0.25"/>
   <path d="M161.435 99.593L161.581 99.638L162.479 99.914C162.625 99.957 162.772 100.004 162.912 100.063L163.038 100.123L163.163 100.186L163.271 100.257L163.381 100.329L163.472 100.411C163.591 100.516 163.538 100.459 163.632 100.578L163.7 100.664L163.794 100.846L163.836 101.018" stroke-width="0.25"/>
   <path d="M163.698 98.894C163.758 98.822 163.836 98.787 163.919 98.739L165.223 97.986C165.283 97.951 165.36 97.902 165.431 97.876C165.623 97.807 165.9 97.822 166.038 97.989" stroke-width="0.25"/>
   <path d="M159.455 101.799L159.602 101.844L160.33 102.067C160.483 102.114 160.639 102.162 160.796 102.192L160.949 102.216L160.977 102.221L161.127 102.245C161.292 102.262 161.46 102.266 161.623 102.263L161.661 102.262L161.813 102.259L161.966 102.242L161.998 102.237L162.151 102.221C162.308 102.195 162.467 102.158 162.618 102.111L162.629 102.108L162.776 102.063L162.913 102.004C163.092 101.927 163.006 101.971 163.169 101.876L163.29 101.805L163.391 101.727L163.492 101.649L163.573 101.561C163.677 101.447 163.633 101.507 163.71 101.382L163.765 101.289L163.83 101.094L163.844 100.897" stroke-width="0.25"/>
   <path d="M163.665 98.777L163.667 98.831C163.686 98.921 163.782 98.977 163.861 99.007C164.001 99.058 164.164 99.058 164.304 99.007C164.377 98.98 164.448 98.935 164.514 98.896L165.818 98.144C165.903 98.093 166.049 98.037 166.07 97.921L166.07 97.868" stroke-width="0.25"/>
   <path d="M129.906 153.021L129.925 153.074C129.973 153.155 130.085 153.201 130.158 153.243L131.462 153.997C131.528 154.034 131.599 154.081 131.674 154.109C131.812 154.158 131.979 154.157 132.117 154.106C132.198 154.078 132.293 154.02 132.311 153.93L132.311 153.876" stroke-width="0.25"/>
   <path d="M129.937 153.09C130.076 152.924 130.352 152.907 130.544 152.977C130.617 153.002 130.687 153.05 130.753 153.087L132.057 153.841C132.139 153.888 132.218 153.923 132.278 153.996" stroke-width="0.25"/>
   <path d="M126.173 119.799L126.173 119.852C126.191 119.944 126.287 120 126.368 120.028C126.507 120.079 126.671 120.079 126.811 120.03C126.885 120.003 126.954 119.956 127.021 119.918L128.324 119.165C128.411 119.115 128.556 119.058 128.578 118.944L128.578 118.891" stroke-width="0.25"/>
   <path d="M126.204 119.917C126.266 119.844 126.343 119.81 126.426 119.762L127.73 119.009C127.79 118.974 127.867 118.924 127.938 118.897C128.131 118.828 128.407 118.844 128.545 119.01" stroke-width="0.25"/>
   <path d="M148.496 112.046C148.556 111.972 148.633 111.938 148.716 111.891L150.02 111.138C150.08 111.102 150.158 111.052 150.229 111.027C150.42 110.956 150.698 110.972 150.836 111.138" stroke-width="0.25"/>
   <path d="M148.462 111.927L148.463 111.98C148.483 112.072 148.579 112.129 148.658 112.158C148.798 112.207 148.961 112.207 149.1 112.158C149.175 112.132 149.245 112.084 149.311 112.046L150.615 111.293C150.7 111.243 150.846 111.188 150.868 111.072L150.868 111.019" stroke-width="0.25"/>
   <path d="M128.578 118.891L128.557 118.837C128.489 118.722 128.329 118.683 128.205 118.676L128.114 118.676C128.037 118.686 128.01 118.685 127.938 118.71C127.867 118.736 127.79 118.787 127.73 118.822L126.426 119.575C126.352 119.617 126.239 119.664 126.192 119.745L126.173 119.799" stroke="#808080" stroke-width="0.1"/>
   <path d="M137.694 135.806L137.693 135.86C137.669 135.98 137.522 136.038 137.418 136.06L137.326 136.073L137.233 136.073C137.106 136.057 136.949 136.031 136.877 135.909L136.858 135.858" stroke-width="0.25"/>
   <path d="M136.89 135.925C137.013 135.78 137.235 135.753 137.413 135.788C137.509 135.808 137.598 135.848 137.662 135.925" stroke-width="0.25"/>
   <path d="M137.694 135.806L137.675 135.752C137.603 135.632 137.444 135.605 137.318 135.59L137.224 135.591L137.134 135.603C137.028 135.625 136.882 135.682 136.858 135.804L136.858 135.858" stroke="#808080" stroke-width="0.1"/>
   <path d="M146.729 147.3L146.729 147.353C146.706 147.468 146.562 147.525 146.477 147.574L145.173 148.328C145.105 148.366 145.036 148.413 144.961 148.438C144.889 148.466 144.865 148.463 144.787 148.473C144.668 148.473 144.552 148.465 144.447 148.405C144.391 148.373 144.337 148.326 144.324 148.262L144.324 148.207" stroke-width="0.25"/>
   <path d="M144.356 148.325C144.417 148.253 144.495 148.218 144.576 148.171L145.881 147.419C145.948 147.381 146.018 147.334 146.092 147.306C146.282 147.239 146.56 147.253 146.697 147.419" stroke-width="0.25"/>
   <path d="M150.868 111.019L150.848 110.965C150.778 110.852 150.618 110.811 150.497 110.804L150.403 110.804C150.326 110.813 150.3 110.813 150.229 110.838C150.158 110.864 150.08 110.915 150.02 110.95L148.716 111.703C148.641 111.745 148.53 111.793 148.483 111.873L148.462 111.927" stroke="#808080" stroke-width="0.1"/>
   <path d="M163.844 100.897L163.807 100.7L163.719 100.509L163.651 100.418C163.558 100.293 163.611 100.352 163.492 100.242L163.401 100.159L163.288 100.081L163.174 100.004L162.915 99.876C162.776 99.816 162.625 99.771 162.479 99.725L161.581 99.45L161.435 99.406" stroke="#808080" stroke-width="0.1"/>
   <path d="M163.665 98.777L163.686 98.722C163.733 98.641 163.844 98.596 163.919 98.552L165.223 97.799C165.283 97.765 165.36 97.713 165.431 97.688C165.57 97.638 165.735 97.638 165.875 97.688C165.942 97.712 166.013 97.751 166.05 97.816L166.07 97.868" stroke="#808080" stroke-width="0.1"/>
   <path d="M166.206 136.055L166.206 136.108C166.183 136.223 166.039 136.28 165.954 136.33L164.65 137.082C164.582 137.121 164.513 137.168 164.438 137.193C164.366 137.219 164.342 137.218 164.264 137.229C164.145 137.229 164.028 137.219 163.924 137.159C163.868 137.128 163.814 137.08 163.801 137.016L163.8 136.962" stroke-width="0.25"/>
   <path d="M163.834 137.08C163.894 137.008 163.973 136.973 164.055 136.926L165.358 136.174C165.425 136.135 165.495 136.088 165.568 136.062C165.759 135.993 166.037 136.008 166.174 136.175" stroke-width="0.25"/>
   <path d="M182.627 87.686L182.627 87.739C182.604 87.853 182.46 87.911 182.373 87.96L181.069 88.712C181.002 88.751 180.932 88.798 180.86 88.825C180.786 88.85 180.762 88.849 180.685 88.859L180.591 88.858L180.501 88.846C180.395 88.825 180.247 88.768 180.222 88.647L180.221 88.593" stroke-width="0.25"/>
   <path d="M180.253 88.712C180.313 88.64 180.393 88.605 180.474 88.557L181.778 87.804C181.838 87.769 181.917 87.718 181.986 87.692C182.179 87.623 182.455 87.64 182.594 87.805" stroke-width="0.25"/>
   <path d="M182.627 87.686L182.605 87.632C182.538 87.518 182.377 87.478 182.254 87.471L182.162 87.471C182.086 87.48 182.058 87.48 181.986 87.506C181.917 87.531 181.84 87.581 181.778 87.617L180.474 88.37C180.401 88.412 180.288 88.459 180.241 88.54L180.221 88.593" stroke="#808080" stroke-width="0.1"/>
   <path d="M200.643 77.284L200.643 77.337C200.621 77.453 200.475 77.509 200.389 77.558L199.086 78.311C199.02 78.349 198.949 78.397 198.876 78.423C198.801 78.45 198.777 78.447 198.7 78.457C198.581 78.457 198.466 78.448 198.36 78.388C198.306 78.358 198.252 78.311 198.237 78.245L198.237 78.191" stroke-width="0.25"/>
   <path d="M198.27 78.31C198.33 78.237 198.408 78.203 198.491 78.156L199.794 77.403C199.855 77.367 199.932 77.316 200.002 77.292C200.195 77.221 200.472 77.237 200.61 77.403" stroke-width="0.25"/>
   <path d="M200.643 77.284L200.622 77.23C200.554 77.117 200.394 77.076 200.27 77.069L200.179 77.069C200.102 77.078 200.074 77.078 200.002 77.103C199.932 77.129 199.854 77.18 199.794 77.215L198.491 77.968C198.417 78.01 198.305 78.057 198.257 78.138L198.237 78.191" stroke="#808080" stroke-width="0.1"/>
   <path d="M216.252 103.382L216.252 103.436C216.228 103.557 216.08 103.614 215.974 103.637L215.884 103.65L215.79 103.65C215.711 103.64 215.687 103.641 215.614 103.614C215.539 103.588 215.469 103.542 215.402 103.504L214.911 103.219C214.836 103.177 214.725 103.129 214.677 103.049L214.657 102.996" stroke-width="0.25"/>
   <path d="M218.415 104.632L218.415 104.686C218.391 104.805 218.245 104.864 218.139 104.887L218.049 104.899L217.955 104.899C217.877 104.89 217.852 104.891 217.777 104.864C217.705 104.837 217.633 104.79 217.568 104.753L217.074 104.468C217.001 104.426 216.889 104.379 216.842 104.299L216.822 104.246" stroke-width="0.25"/>
   <path d="M216.218 103.501C216.158 103.43 216.08 103.394 215.998 103.347L215.506 103.063C215.439 103.025 215.37 102.978 215.295 102.951C215.223 102.926 215.199 102.927 215.121 102.917C214.979 102.917 214.831 102.93 214.721 103.028L214.689 103.064" stroke-width="0.25"/>
   <path d="M216.854 104.313C216.993 104.149 217.268 104.132 217.46 104.2C217.533 104.227 217.604 104.275 217.669 104.313L218.163 104.596C218.243 104.644 218.323 104.679 218.383 104.751" stroke-width="0.25"/>
   <path d="M216.252 103.382L216.231 103.329C216.183 103.248 216.073 103.203 215.998 103.159L215.506 102.876C215.439 102.837 215.368 102.79 215.294 102.763C215.222 102.737 215.197 102.739 215.118 102.73L215.025 102.73L214.933 102.742C214.829 102.763 214.681 102.822 214.657 102.942L214.657 102.996" stroke="#808080" stroke-width="0.1"/>
   <path d="M218.415 104.632L218.395 104.578C218.348 104.498 218.236 104.451 218.163 104.409L217.669 104.125C217.604 104.087 217.532 104.04 217.46 104.013C217.384 103.986 217.361 103.989 217.282 103.978L217.188 103.978L217.098 103.992C216.992 104.013 216.846 104.072 216.822 104.192L216.822 104.246" stroke="#808080" stroke-width="0.1"/>
   <path d="M218.848 88.95L218.848 89.006C218.824 89.125 218.679 89.183 218.574 89.204L218.484 89.218L218.389 89.218C218.263 89.203 218.104 89.177 218.032 89.055L218.012 89.003" stroke-width="0.25"/>
   <path d="M218.044 89.07C218.167 88.926 218.389 88.9 218.567 88.935C218.663 88.953 218.752 88.993 218.816 89.07" stroke-width="0.25"/>
   <path d="M224.448 71.037L224.448 71.09C224.425 71.204 224.281 71.262 224.194 71.311L222.89 72.063C222.824 72.102 222.754 72.149 222.681 72.176C222.608 72.201 222.584 72.2 222.506 72.21C222.387 72.21 222.27 72.201 222.164 72.141C222.11 72.109 222.056 72.063 222.043 71.998L222.043 71.944" stroke-width="0.25"/>
   <path d="M222.074 72.063C222.135 71.99 222.213 71.956 222.295 71.908L223.599 71.156C223.661 71.12 223.739 71.069 223.808 71.043C224.001 70.974 224.276 70.99 224.415 71.156" stroke-width="0.25"/>
   <path d="M224.448 71.037L224.427 70.983C224.359 70.87 224.199 70.829 224.075 70.822L223.984 70.822C223.907 70.831 223.881 70.831 223.808 70.856C223.739 70.882 223.661 70.933 223.599 70.968L222.295 71.721C222.222 71.763 222.11 71.81 222.062 71.891L222.043 71.944" stroke="#808080" stroke-width="0.1"/>
   <path d="M222.501 81.762L222.493 81.796C222.455 81.876 222.348 81.888 222.272 81.894C222.197 81.888 222.086 81.876 222.05 81.796L222.043 81.762" stroke-width="0.25"/>
   <path d="M222.433 81.855C222.377 81.831 222.332 81.82 222.27 81.816C222.211 81.82 222.165 81.831 222.11 81.855" stroke-width="0.25"/>
   <path d="M225.044 83.23L225.036 83.263C224.998 83.343 224.891 83.355 224.816 83.361C224.74 83.356 224.629 83.344 224.592 83.263L224.585 83.23" stroke-width="0.25"/>
   <path d="M228.007 81.387C228.079 81.355 228.149 81.34 228.227 81.352C228.276 81.359 228.287 81.367 228.33 81.387" stroke-width="0.25"/>
   <path d="M225.854 79.825L225.848 79.858C225.811 79.938 225.704 79.951 225.627 79.956C225.55 79.951 225.441 79.939 225.403 79.858L225.396 79.825" stroke-width="0.25"/>
   <path d="M224.651 83.323C224.723 83.292 224.794 83.277 224.872 83.289C224.921 83.296 224.931 83.304 224.977 83.323" stroke-width="0.25"/>
   <path d="M225.788 79.918C225.731 79.894 225.687 79.885 225.626 79.879C225.564 79.885 225.52 79.894 225.465 79.918" stroke-width="0.25"/>
   <path d="M227.939 81.293L227.947 81.326C227.967 81.37 228.014 81.394 228.056 81.409C228.128 81.432 228.211 81.432 228.284 81.406C228.325 81.394 228.371 81.368 228.39 81.326L228.397 81.293" stroke-width="0.25"/>
   <path d="M222.501 81.762L222.493 81.727C222.456 81.647 222.347 81.635 222.27 81.629C222.193 81.635 222.086 81.647 222.05 81.727L222.043 81.762" stroke="#808080" stroke-width="0.1"/>
   <path d="M224.585 83.23L224.592 83.195C224.611 83.153 224.657 83.129 224.699 83.115C224.77 83.09 224.854 83.09 224.925 83.114C224.968 83.128 225.016 83.153 225.037 83.195L225.044 83.23" stroke="#808080" stroke-width="0.1"/>
   <path d="M227.939 81.293L227.947 81.259C227.967 81.218 228.012 81.192 228.052 81.179C228.126 81.155 228.207 81.153 228.281 81.177C228.323 81.191 228.371 81.215 228.39 81.26L228.397 81.293" stroke="#808080" stroke-width="0.1"/>
   <path d="M225.396 79.825L225.403 79.79C225.424 79.748 225.468 79.724 225.51 79.71C225.582 79.686 225.665 79.686 225.737 79.709C225.78 79.724 225.828 79.748 225.848 79.79L225.854 79.825" stroke="#808080" stroke-width="0.1"/>
   <path d="M236.891 78.221L236.891 78.274C236.87 78.39 236.724 78.445 236.639 78.495L235.335 79.248C235.268 79.287 235.198 79.334 235.125 79.359C235.05 79.387 235.026 79.385 234.949 79.394C234.83 79.394 234.715 79.385 234.609 79.325C234.555 79.295 234.501 79.248 234.486 79.183L234.485 79.129" stroke-width="0.25"/>
   <path d="M234.519 79.248C234.579 79.174 234.657 79.14 234.74 79.093L236.044 78.34C236.104 78.305 236.181 78.254 236.252 78.228C236.443 78.159 236.721 78.174 236.86 78.34" stroke-width="0.25"/>
   <path d="M236.891 78.221L236.871 78.168C236.8 78.049 236.645 78.022 236.52 78.006C236.426 78.006 236.341 78.009 236.252 78.04C236.181 78.066 236.104 78.117 236.044 78.152L234.74 78.905C234.665 78.947 234.554 78.995 234.506 79.075L234.485 79.129" stroke="#808080" stroke-width="0.1"/>
   <path d="M249.336 85.405L249.336 85.459C249.312 85.573 249.169 85.631 249.081 85.68L247.778 86.433C247.711 86.471 247.641 86.518 247.568 86.545C247.495 86.57 247.471 86.569 247.393 86.578C247.274 86.578 247.157 86.57 247.052 86.51C246.997 86.478 246.943 86.432 246.931 86.367L246.93 86.313" stroke-width="0.25"/>
   <path d="M246.962 86.432C247.022 86.358 247.1 86.323 247.182 86.277L248.486 85.524C248.548 85.489 248.626 85.438 248.695 85.412C248.888 85.343 249.164 85.359 249.302 85.525" stroke-width="0.25"/>
   <path d="M249.336 85.405L249.314 85.352C249.246 85.237 249.086 85.198 248.963 85.191L248.871 85.191C248.794 85.2 248.768 85.2 248.695 85.225C248.626 85.251 248.548 85.302 248.486 85.337L247.182 86.09C247.109 86.132 246.997 86.179 246.949 86.26L246.93 86.313" stroke="#808080" stroke-width="0.1"/>
   <path d="M218.848 88.95L218.828 88.897C218.757 88.778 218.598 88.751 218.473 88.736L218.378 88.736L218.288 88.748C218.183 88.769 218.036 88.828 218.012 88.95L218.012 89.003" stroke="#808080" stroke-width="0.1"/>
   <path d="M146.729 147.3L146.709 147.247C146.639 147.133 146.479 147.092 146.358 147.085L146.264 147.085C146.187 147.094 146.162 147.093 146.09 147.12C146.02 147.145 145.942 147.195 145.881 147.23L144.576 147.984C144.502 148.026 144.391 148.074 144.343 148.153L144.324 148.207" stroke="#808080" stroke-width="0.1"/>
   <path d="M166.206 136.055L166.186 136.002C166.116 135.888 165.956 135.848 165.835 135.84L165.741 135.84C165.665 135.849 165.639 135.848 165.567 135.875C165.497 135.901 165.419 135.95 165.358 135.985L164.055 136.739C163.979 136.782 163.868 136.828 163.82 136.908L163.8 136.962" stroke="#808080" stroke-width="0.1"/>
   <path d="M182.992 130.49L182.986 130.544C182.967 130.64 182.907 130.715 182.83 130.77" stroke-width="0.25"/>
   <path d="M180.126 132.332C180.203 132.276 180.262 132.203 180.282 132.106L180.288 132.051" stroke-width="0.25"/>
   <path d="M183.106 130.479L183.074 130.468L183.033 130.473C182.931 130.501 182.858 130.618 182.836 130.717C182.828 130.76 182.824 130.814 182.853 130.853L182.878 130.877" stroke-width="0.25"/>
   <path d="M180.174 132.438L180.147 132.414C180.12 132.377 180.122 132.323 180.132 132.278C180.147 132.205 180.188 132.133 180.246 132.084C180.277 132.055 180.322 132.026 180.367 132.03L180.401 132.04" stroke-width="0.25"/>
   <path d="M183.106 130.479L183.133 130.502C183.161 130.54 183.157 130.594 183.149 130.638C183.128 130.736 183.055 130.854 182.951 130.882L182.913 130.887L182.878 130.877" stroke="#808080" stroke-width="0.1"/>
   <path d="M180.174 132.438L180.207 132.449C180.253 132.451 180.298 132.425 180.33 132.395C180.387 132.344 180.429 132.274 180.443 132.199C180.453 132.157 180.455 132.102 180.427 132.063L180.401 132.04" stroke="#808080" stroke-width="0.1"/>
   <path d="M134.3 160.664L134.3 160.512L134.3 157.693C134.3 157.591 134.305 157.509 134.288 157.408C134.245 157.131 134.086 156.856 133.867 156.68C133.788 156.615 133.717 156.579 133.627 156.526L97.102 135.439L96.969 135.362" stroke="#808080" stroke-width="0.1"/>
   <path d="M129.906 153.021L129.906 152.967C129.924 152.877 130.019 152.819 130.098 152.79C130.237 152.74 130.403 152.739 130.543 152.788C130.616 152.816 130.687 152.862 130.753 152.901L132.057 153.653C132.132 153.695 132.242 153.742 132.29 153.823L132.311 153.876" stroke="#808080" stroke-width="0.1"/>
  </g>
 </g>
 <g id="59806_0_PLATFORM_CENTRE_RIGHT">
  <desc>59806_0_PLATFORM_CENTRE_RIGHT</desc>
  <g id="01_0019_0014_0_DADO_ESAGONALE_M_4">
   <desc>01_0019_0014_0_DADO_ESAGONALE_M</desc>
   <line stroke-width="0.13" x1="37.024" x2="36.987" y1="77.7" y2="77.683"/>
   <path d="M37.079 77.745C37.045 77.712 37.064 77.728 37.024 77.7" stroke="#808080" stroke-width="0.1"/>
   <path d="M36.618 77.748C36.723 77.688 36.871 77.686 36.979 77.739" stroke="#808080" stroke-width="0.1"/>
   <path d="M36.987 77.683C36.926 77.662 36.871 77.652 36.807 77.649C36.728 77.653 36.661 77.665 36.591 77.7" stroke="#808080" stroke-width="0.1"/>
   <path d="M37.109 77.798C37.094 77.762 37.103 77.778 37.079 77.745" stroke-width="0.13"/>
   <path d="M36.996 77.853C36.996 77.73 36.978 77.778 37.024 77.7" stroke-width="0.13"/>
   <path d="M36.979 77.739C37.002 77.751 36.99 77.743 37.011 77.757" stroke-width="0.13"/>
   <path d="M36.591 77.7C36.557 77.724 36.527 77.745 36.511 77.784" stroke-width="0.13"/>
  </g>
  <g id="01_0019_0014_0_DADO_ESAGONALE_M_3">
   <desc>01_0019_0014_0_DADO_ESAGONALE_M</desc>
   <path d="M118.209 30.867C118.132 30.815 118.052 30.798 117.962 30.795C117.884 30.798 117.816 30.812 117.745 30.846" stroke="#808080" stroke-width="0.1"/>
   <path d="M117.772 30.893C117.878 30.832 118.025 30.832 118.134 30.885" stroke="#808080" stroke-width="0.1"/>
   <path d="M118.263 30.943C118.25 30.911 118.234 30.891 118.209 30.867" stroke-width="0.13"/>
   <path d="M118.165 30.902C118.146 30.89 118.156 30.896 118.134 30.885" stroke-width="0.13"/>
   <path d="M118.177 30.847C118.132 30.923 118.15 30.876 118.15 30.998" stroke-width="0.13"/>
   <path d="M117.745 30.846C117.712 30.868 117.68 30.89 117.665 30.929" stroke-width="0.13"/>
  </g>
  <g id="55215_0_TUBE_8">
   <desc>55215_0_TUBE</desc>
   <line stroke-width="0.13" x1="69.813" x2="65.641" y1="61.179" y2="58.771"/>
   <line stroke-width="0.25" x1="69.953" x2="65.322" y1="61.362" y2="58.689"/>
  </g>
  <g id="59807_0_PLATFORM_CENTRE_RIGHT_P">
   <desc>59807_0_PLATFORM_CENTRE_RIGHT_P</desc>
   <line stroke-width="0.25" x1="0.288" x2="3.371" y1="83.292" y2="81.512"/>
   <line stroke-width="0.25" x1="157.997" x2="157.997" y1="31.596" y2="31.408"/>
   <line stroke-width="0.25" x1="0.126" x2="0.288" y1="83.198" y2="83.292"/>
   <line stroke-width="0.25" x1="61.262" x2="61.643" y1="48.088" y2="47.868"/>
   <line stroke-width="0.13" x1="37.104" x2="37.104" y1="77.466" y2="77.653"/>
   <line stroke-width="0.13" x1="121.207" x2="0.667" y1="10.167" y2="79.763"/>
   <line stroke-width="0.13" x1="0.288" x2="0.667" y1="80.168" y2="79.95"/>
   <line stroke-width="0.13" x1="122.072" x2="122.072" y1="14.198" y2="14.009"/>
   <line stroke-width="0.13" x1="123.641" x2="123.641" y1="13.291" y2="13.105"/>
   <line stroke="#808080" stroke-width="0.1" x1="37.457" x2="37.457" y1="101.191" y2="101.003"/>
   <line stroke-width="0.13" x1="64.021" x2="64.021" y1="49.182" y2="48.994"/>
   <line stroke-width="0.13" x1="64.778" x2="64.778" y1="49.619" y2="49.432"/>
   <line stroke-width="0.13" x1="61.856" x2="61.856" y1="47.932" y2="47.746"/>
   <line stroke-width="0.13" x1="62.613" x2="62.613" y1="48.369" y2="48.182"/>
   <line stroke-width="0.13" x1="118.259" x2="118.259" y1="30.611" y2="30.8"/>
   <line stroke-width="0.13" x1="137.709" x2="137.709" y1="41.216" y2="41.405"/>
   <line stroke-width="0.13" x1="136.139" x2="136.139" y1="42.122" y2="42.31"/>
   <line stroke-width="0.13" x1="119.692" x2="119.692" y1="51.618" y2="51.805"/>
   <line stroke-width="0.13" x1="118.123" x2="118.123" y1="52.524" y2="52.712"/>
   <line stroke-width="0.13" x1="102.055" x2="102.055" y1="61.176" y2="61.365"/>
   <line stroke-width="0.13" x1="100.486" x2="100.486" y1="62.082" y2="62.27"/>
   <line stroke-width="0.13" x1="96.528" x2="96.528" y1="64.686" y2="64.873"/>
   <line stroke-width="0.13" x1="79.278" x2="79.278" y1="69.953" y2="70.141"/>
   <line stroke-width="0.13" x1="77.709" x2="77.709" y1="70.859" y2="71.048"/>
   <line stroke-width="0.13" x1="65.59" x2="65.59" y1="82.855" y2="83.042"/>
   <line stroke-width="0.13" x1="64.021" x2="64.021" y1="83.76" y2="83.947"/>
   <line stroke-width="0.13" x1="63.253" x2="63.253" y1="86.108" y2="86.296"/>
   <line stroke-width="0.13" x1="47.573" x2="47.573" y1="93.257" y2="93.444"/>
   <line stroke-width="0.13" x1="46.005" x2="46.005" y1="94.162" y2="94.349"/>
   <line stroke-width="0.13" x1="148.53" x2="148.53" y1="27.472" y2="27.661"/>
   <line stroke-width="0.13" x1="146.961" x2="146.961" y1="28.379" y2="28.565"/>
   <line stroke-width="0.13" x1="136.086" x2="136.086" y1="20.289" y2="20.475"/>
   <line stroke-width="0.13" x1="134.516" x2="134.516" y1="21.195" y2="21.382"/>
   <line stroke-width="0.13" x1="51.826" x2="51.826" y1="63.225" y2="63.412"/>
   <line stroke-width="0.13" x1="61.771" x2="61.771" y1="68.968" y2="69.155"/>
   <line stroke-width="0.13" x1="61.771" x2="61.771" y1="57.481" y2="57.67"/>
   <line stroke-width="0.13" x1="71.718" x2="71.718" y1="63.225" y2="63.412"/>
   <line stroke-width="0.13" x1="68.075" x2="68.075" y1="59.774" y2="59.585"/>
   <line stroke-width="0.13" x1="70.165" x2="70.165" y1="46.981" y2="47.17"/>
   <line stroke-width="0.13" x1="74.757" x2="74.757" y1="49.633" y2="49.82"/>
   <line stroke-width="0.13" x1="77.272" x2="77.272" y1="45.53" y2="45.716"/>
   <line stroke-width="0.13" x1="74.757" x2="74.757" y1="44.332" y2="44.518"/>
   <line stroke-width="0.13" x1="79.347" x2="79.347" y1="46.981" y2="47.17"/>
   <line stroke-width="0.13" x1="5.644" x2="5.644" y1="80.855" y2="80.668"/>
   <line stroke-width="0.13" x1="7.213" x2="7.213" y1="81.762" y2="81.573"/>
   <line stroke-width="0.13" x1="18.088" x2="18.088" y1="88.04" y2="87.852"/>
   <line stroke-width="0.13" x1="19.657" x2="19.657" y1="88.945" y2="88.759"/>
   <line stroke-width="0.13" x1="30.53" x2="30.53" y1="95.224" y2="95.037"/>
   <line stroke-width="0.13" x1="32.1" x2="32.1" y1="96.129" y2="95.942"/>
   <line stroke-width="0.13" x1="108.441" x2="108.441" y1="60.02" y2="60.207"/>
   <line stroke-width="0.13" x1="71.335" x2="71.335" y1="79.231" y2="79.418"/>
   <path d="M37.457 101.191L37.323 101.114L0.799 80.027C0.747 79.996 0.656 79.938 0.591 79.915L0.521 79.9C0.436 79.903 0.476 79.894 0.399 79.924" stroke-width="0.25"/>
   <path d="M4.961 80.933C5.099 80.769 5.373 80.751 5.565 80.82C5.639 80.847 5.71 80.894 5.777 80.932L7.081 81.685C7.161 81.731 7.24 81.768 7.301 81.84" stroke-width="0.25"/>
   <path d="M7.333 81.719L7.333 81.774C7.309 81.894 7.161 81.953 7.057 81.974L6.966 81.986L6.873 81.987C6.794 81.977 6.769 81.98 6.695 81.953C6.623 81.927 6.551 81.879 6.485 81.84L5.182 81.088C5.107 81.046 4.996 81 4.948 80.918L4.927 80.865" stroke-width="0.25"/>
   <path d="M0.126 83.198L0.126 83.046L0.126 80.227C0.126 80.078 0.111 79.903 0.218 79.78C0.265 79.725 0.363 79.679 0.417 79.647L120.692 10.207C120.746 10.175 120.834 10.114 120.906 10.099C121.066 10.069 121.209 10.169 121.34 10.244L157.865 31.332L157.997 31.408" stroke-width="0.25"/>
   <path d="M157.997 31.596L157.865 31.673L108.573 60.131C108.034 60.442 107.489 60.743 106.936 61.03C106.418 61.298 105.891 61.557 105.361 61.802L105.221 61.863L103.858 62.463L103.575 62.579L102.147 63.14L101.859 63.246L100.379 63.761L100.088 63.856L98.557 64.325L98.411 64.37L98.263 64.409L94.307 65.468L94.159 65.507C93.388 65.728 92.621 65.962 91.861 66.212L91.715 66.263L89.775 66.936L89.489 67.043L87.614 67.778L87.331 67.894L85.539 68.682L85.262 68.811L83.549 69.65L83.412 69.718C82.774 70.049 82.141 70.394 81.519 70.753L81.388 70.832L79.858 71.766L79.727 71.844L79.6 71.93L78.165 72.906L78.039 72.992L77.917 73.085L76.584 74.096L76.462 74.189L76.346 74.289L75.114 75.337L74.998 75.436L74.887 75.542L73.765 76.617L73.655 76.722L73.551 76.835L72.537 77.938L72.435 78.051L72.338 78.17L70.56 80.385L70.463 80.504L70.361 80.617L69.599 81.445L69.495 81.558L69.385 81.664L68.54 82.474C68.176 82.823 67.759 83.15 67.384 83.469L67.266 83.569L67.144 83.662L66.138 84.426L66.016 84.519L65.89 84.605L64.805 85.34L64.68 85.427C64.168 85.756 63.646 86.069 63.121 86.373L37.588 101.114L37.457 101.191" stroke-width="0.25"/>
   <path d="M63.899 83.906L63.899 83.959C63.918 84.052 64.015 84.108 64.096 84.138C64.236 84.188 64.4 84.188 64.54 84.138C64.609 84.114 64.688 84.063 64.748 84.028L66.052 83.275C66.126 83.231 66.237 83.186 66.286 83.105L66.305 83.051" stroke-width="0.25"/>
   <path d="M66.272 83.12L66.245 83.085C66.132 82.987 65.986 82.972 65.844 82.972C65.766 82.981 65.742 82.98 65.668 83.007C65.594 83.034 65.524 83.081 65.457 83.118L64.153 83.871C64.072 83.918 63.993 83.953 63.932 84.025" stroke-width="0.25"/>
   <path d="M77.587 71.004L77.587 71.058C77.606 71.153 77.703 71.209 77.784 71.237C77.924 71.289 78.088 71.289 78.227 71.237C78.298 71.212 78.376 71.162 78.436 71.126L79.74 70.375C79.814 70.331 79.926 70.284 79.974 70.203L79.993 70.15" stroke-width="0.25"/>
   <path d="M77.62 71.126C77.68 71.054 77.76 71.019 77.841 70.971L79.146 70.218C79.212 70.18 79.281 70.132 79.355 70.106C79.546 70.037 79.823 70.054 79.96 70.219" stroke-width="0.25"/>
   <path d="M100.365 62.228L100.365 62.28C100.384 62.375 100.48 62.43 100.561 62.46C100.7 62.511 100.865 62.511 101.004 62.46C101.075 62.435 101.153 62.384 101.213 62.35L102.518 61.597C102.591 61.554 102.703 61.508 102.751 61.426L102.771 61.374" stroke-width="0.25"/>
   <path d="M100.397 62.347C100.457 62.276 100.537 62.24 100.618 62.194L101.923 61.441C101.989 61.402 102.06 61.356 102.134 61.329C102.323 61.261 102.602 61.276 102.739 61.442" stroke-width="0.25"/>
   <path d="M124.325 13.369L124.296 13.335C124.186 13.237 124.039 13.223 123.897 13.221C123.819 13.231 123.793 13.23 123.721 13.256C123.647 13.282 123.575 13.33 123.51 13.368L122.206 14.121C122.123 14.169 122.045 14.204 121.984 14.275" stroke-width="0.25"/>
   <path d="M121.953 14.154L121.953 14.208C121.971 14.303 122.067 14.359 122.149 14.388C122.287 14.439 122.453 14.439 122.593 14.388C122.662 14.362 122.74 14.311 122.801 14.276L124.105 13.525C124.179 13.481 124.29 13.435 124.338 13.353L124.358 13.301" stroke-width="0.25"/>
   <path d="M19.745 89.024C19.684 88.951 19.606 88.917 19.524 88.87L18.219 88.117C18.153 88.078 18.083 88.031 18.01 88.004C17.937 87.978 17.913 87.98 17.835 87.971C17.693 87.971 17.547 87.984 17.434 88.081L17.403 88.117" stroke-width="0.25"/>
   <path d="M17.371 88.051L17.391 88.102C17.44 88.183 17.55 88.23 17.625 88.272L18.928 89.025C18.995 89.063 19.065 89.111 19.14 89.137C19.278 89.186 19.445 89.186 19.585 89.135C19.664 89.105 19.759 89.049 19.777 88.957L19.777 88.905" stroke-width="0.25"/>
   <path d="M32.189 96.209C32.128 96.135 32.048 96.1 31.968 96.054L30.664 95.301C30.597 95.263 30.527 95.215 30.454 95.189C30.379 95.162 30.356 95.165 30.278 95.155C30.138 95.155 29.989 95.168 29.879 95.266L29.847 95.302" stroke-width="0.25"/>
   <path d="M29.815 95.234L29.835 95.287C29.884 95.367 29.995 95.414 30.068 95.456L31.373 96.209C31.439 96.248 31.51 96.295 31.582 96.322C31.722 96.371 31.888 96.37 32.027 96.319C32.107 96.29 32.203 96.233 32.22 96.143L32.22 96.088" stroke-width="0.25"/>
   <path d="M37.192 77.731L37.164 77.697C37.076 77.62 36.966 77.599 36.851 77.584C36.71 77.584 36.564 77.599 36.451 77.695L36.421 77.731" stroke-width="0.25"/>
   <path d="M37.225 77.612L37.225 77.665C37.201 77.787 37.054 77.846 36.948 77.867L36.859 77.879L36.765 77.879C36.639 77.864 36.481 77.837 36.408 77.716L36.389 77.664" stroke-width="0.25"/>
   <path d="M51.845 63.427C51.783 63.38 51.71 63.372 51.636 63.366C51.561 63.372 51.488 63.381 51.426 63.427" stroke-width="0.25"/>
   <path d="M52.414 63.484L52.414 63.231L52.442 63.079L52.49 62.831L52.518 62.68L52.57 62.536L52.665 62.283L52.719 62.139L52.795 62.006L52.942 61.746L53.018 61.612L53.112 61.491L53.316 61.228L53.409 61.106L53.518 60.999L53.783 60.734L53.89 60.627L54.011 60.531L54.337 60.274L54.457 60.179L54.585 60.097L54.972 59.85L55.1 59.768L55.237 59.697L55.679 59.468C55.86 59.372 55.768 59.417 55.957 59.338C56.216 59.229 56.472 59.112 56.74 59.023L57.283 58.843L57.429 58.793L57.576 58.756L58.161 58.606L58.31 58.57L58.46 58.542L59.075 58.426L59.225 58.399L59.377 58.38L60.012 58.302L60.164 58.284L60.317 58.276L60.965 58.237C61.28 58.218 61.6 58.228 61.917 58.228L62.07 58.228L62.222 58.237L62.865 58.277L63.017 58.286L63.168 58.304C63.481 58.343 63.795 58.371 64.105 58.429L64.718 58.543L64.87 58.572L65.018 58.609L65.599 58.759L65.746 58.798L65.893 58.845L66.435 59.027L66.581 59.075L66.721 59.134L67.213 59.341C67.463 59.445 67.698 59.578 67.938 59.703C68.12 59.796 68.033 59.746 68.203 59.856L68.596 60.107L68.724 60.191L68.844 60.286L69.17 60.545L69.29 60.64L69.397 60.749L69.664 61.017L69.772 61.125L69.864 61.246L70.069 61.514L70.162 61.636L70.237 61.768L70.384 62.033L70.459 62.167L70.51 62.31L70.603 62.567L70.656 62.712L70.683 62.862L70.724 63.103L70.751 63.253" stroke-width="0.25"/>
   <path d="M52.412 63.066L52.412 63.219L52.414 63.463L52.414 63.615L52.442 63.765L52.487 64.012L52.514 64.162L52.567 64.305L52.661 64.561L52.713 64.703L52.789 64.837L52.935 65.099L53.009 65.231L53.103 65.352L53.307 65.617C53.432 65.778 53.363 65.703 53.509 65.846L53.773 66.111L53.881 66.219L54 66.314L54.323 66.572L54.442 66.667L54.572 66.75L54.962 67L55.091 67.082L55.225 67.153L55.677 67.388C55.927 67.516 56.191 67.615 56.451 67.724L56.593 67.784L56.737 67.831L57.286 68.013C57.575 68.109 57.872 68.174 58.167 68.251L58.316 68.287L58.466 68.316L59.085 68.43L59.235 68.459L59.387 68.477L60.027 68.555L60.179 68.572L60.332 68.581L60.978 68.62L61.131 68.629L61.284 68.629C61.601 68.628 61.923 68.638 62.24 68.617C62.557 68.597 62.875 68.587 63.192 68.549L63.826 68.471L63.978 68.451L64.128 68.423L64.739 68.308C65.036 68.251 65.325 68.167 65.617 68.09L65.766 68.052L65.911 68.004C66.188 67.912 66.468 67.828 66.736 67.715L67.23 67.507L67.371 67.448L67.507 67.378L67.948 67.147L68.084 67.076L68.213 66.993L68.597 66.746L68.727 66.664L68.846 66.569L69.171 66.31C69.331 66.182 69.254 66.251 69.399 66.105L69.662 65.84L69.771 65.733L69.864 65.611L70.066 65.346L70.159 65.224L70.234 65.09L70.382 64.828L70.456 64.695L70.509 64.552L70.6 64.296L70.653 64.153L70.68 64.003L70.724 63.753L70.753 63.603L70.751 63.45L70.751 63.206L70.751 63.052" stroke-width="0.25"/>
   <path d="M71.319 63.427C71.43 63.344 71.629 63.343 71.739 63.427" stroke-width="0.25"/>
   <path d="M71.262 63.334L71.271 63.374C71.293 63.423 71.349 63.453 71.399 63.469C71.483 63.496 71.579 63.496 71.664 63.468C71.712 63.451 71.766 63.423 71.787 63.374L71.796 63.335" stroke-width="0.25"/>
   <path d="M51.368 63.334L51.377 63.374C51.399 63.423 51.456 63.453 51.506 63.469C51.59 63.496 51.686 63.496 51.771 63.468C51.819 63.451 51.871 63.423 51.895 63.374L51.904 63.335" stroke-width="0.25"/>
   <path d="M61.372 69.171C61.484 69.087 61.682 69.084 61.792 69.171" stroke-width="0.25"/>
   <path d="M61.314 69.076L61.323 69.117C61.347 69.167 61.402 69.194 61.451 69.212C61.536 69.239 61.634 69.239 61.718 69.209C61.765 69.194 61.819 69.165 61.841 69.117L61.85 69.076" stroke-width="0.25"/>
   <path d="M61.372 57.685C61.484 57.601 61.682 57.6 61.792 57.686" stroke-width="0.25"/>
   <path d="M61.314 57.591L61.323 57.631C61.347 57.682 61.402 57.71 61.451 57.725C61.536 57.753 61.634 57.753 61.718 57.725C61.765 57.709 61.819 57.679 61.841 57.631L61.85 57.591" stroke-width="0.25"/>
   <path d="M62.701 48.448C62.642 48.375 62.563 48.341 62.481 48.293L61.988 48.009C61.923 47.97 61.853 47.924 61.779 47.898C61.706 47.871 61.682 47.872 61.603 47.862C61.463 47.862 61.316 47.877 61.204 47.975L61.173 48.011" stroke-width="0.25"/>
   <path d="M63.338 49.259C63.476 49.094 63.75 49.078 63.942 49.148C64.016 49.173 64.087 49.22 64.153 49.259L64.646 49.542C64.727 49.59 64.807 49.625 64.867 49.698" stroke-width="0.25"/>
   <path d="M62.734 48.329L62.734 48.381C62.71 48.503 62.564 48.561 62.459 48.582L62.368 48.595L62.274 48.595C62.195 48.585 62.171 48.588 62.097 48.561C62.024 48.534 61.953 48.487 61.887 48.45L61.393 48.165C61.32 48.122 61.209 48.076 61.161 47.996L61.14 47.942" stroke-width="0.25"/>
   <path d="M64.899 49.578L64.899 49.631C64.875 49.752 64.728 49.81 64.625 49.832L64.534 49.844L64.439 49.845C64.361 49.835 64.335 49.838 64.262 49.811C64.188 49.784 64.117 49.737 64.051 49.698L63.557 49.414C63.472 49.365 63.326 49.308 63.304 49.192L63.305 49.137" stroke-width="0.25"/>
   <path d="M70.186 47.185C70.125 47.137 70.051 47.13 69.975 47.125C69.9 47.13 69.828 47.137 69.766 47.185" stroke-width="0.25"/>
   <path d="M70.751 47.182L70.778 46.975L70.879 46.694L70.957 46.561L70.963 46.552L71.042 46.42L71.143 46.305L71.165 46.28L71.265 46.164L71.382 46.064L71.427 46.026L71.543 45.926L71.671 45.841L71.745 45.795L71.873 45.71L72.01 45.642L72.111 45.591L72.248 45.523L72.391 45.468L72.519 45.417L72.662 45.362L72.963 45.279L73.111 45.237L73.26 45.207L73.433 45.173L73.582 45.145L73.734 45.127L73.917 45.106L74.069 45.088L74.221 45.082L74.412 45.076C74.679 45.066 74.948 45.076 75.215 45.106L75.4 45.128L75.552 45.145L75.703 45.173L75.878 45.207L76.028 45.237L76.174 45.28L76.477 45.365L76.62 45.42L76.748 45.469L76.891 45.524L77.028 45.594L77.135 45.648L77.272 45.716L77.4 45.801L77.478 45.853L77.606 45.938L77.721 46.037L77.768 46.078L77.884 46.177L77.983 46.295L78.007 46.323L78.105 46.439L78.183 46.572L78.189 46.585L78.266 46.716L78.362 47.003L78.382 47.189" stroke-width="0.25"/>
   <path d="M70.742 47.09L70.775 47.378L70.87 47.661L70.948 47.792L70.954 47.802L71.031 47.935L71.131 48.051L71.153 48.078L71.253 48.195L71.368 48.295L71.414 48.332L71.528 48.432L71.656 48.518L71.734 48.569L71.861 48.652L71.998 48.722L72.108 48.777L72.243 48.845L72.387 48.901L72.659 49.006L72.807 49.048L73.114 49.134L73.265 49.164L73.444 49.198L73.593 49.228L73.746 49.244C73.912 49.262 74.075 49.281 74.243 49.287L74.441 49.295L74.593 49.299L74.746 49.293C74.914 49.286 75.078 49.28 75.245 49.261L75.43 49.238L75.581 49.22L75.731 49.191L75.903 49.156C76.153 49.106 76.403 49.036 76.641 48.942L76.768 48.893L76.911 48.837L77.046 48.768L77.147 48.716L77.283 48.646L77.411 48.563L77.481 48.515L77.609 48.429L77.724 48.329L77.769 48.29L77.885 48.191L77.983 48.073L78.004 48.048L78.103 47.932L78.182 47.801L78.186 47.792L78.263 47.659L78.359 47.378L78.393 47.093" stroke-width="0.25"/>
   <path d="M79.367 47.185C79.305 47.137 79.233 47.13 79.158 47.125C79.082 47.13 79.01 47.137 78.948 47.185" stroke-width="0.25"/>
   <path d="M78.891 47.091L78.899 47.131C78.921 47.18 78.978 47.21 79.028 47.225C79.111 47.253 79.209 47.253 79.293 47.225C79.34 47.209 79.394 47.179 79.417 47.131L79.426 47.091" stroke-width="0.25"/>
   <path d="M74.299 49.741L74.308 49.78C74.331 49.832 74.388 49.859 74.436 49.877C74.521 49.905 74.617 49.904 74.701 49.875C74.75 49.859 74.804 49.829 74.825 49.781L74.834 49.741" stroke-width="0.25"/>
   <path d="M74.777 49.835C74.715 49.787 74.641 49.78 74.566 49.774C74.492 49.78 74.42 49.789 74.358 49.835" stroke-width="0.25"/>
   <path d="M74.358 44.534C74.468 44.451 74.667 44.448 74.777 44.534" stroke-width="0.25"/>
   <path d="M74.834 44.441L74.825 44.481C74.783 44.573 74.658 44.588 74.569 44.595C74.48 44.588 74.352 44.576 74.308 44.479L74.299 44.441" stroke-width="0.25"/>
   <path d="M69.709 47.091L69.718 47.131C69.74 47.18 69.796 47.21 69.846 47.225C69.93 47.253 70.027 47.253 70.111 47.225C70.159 47.209 70.212 47.179 70.236 47.131L70.243 47.091" stroke-width="0.25"/>
   <path d="M118.346 30.878C118.239 30.748 118.07 30.73 117.912 30.73C117.802 30.745 117.694 30.765 117.606 30.839L117.575 30.878" stroke-width="0.25"/>
   <path d="M118.379 30.757L118.379 30.812C118.355 30.931 118.209 30.989 118.105 31.012L118.015 31.024L117.921 31.025C117.793 31.01 117.635 30.984 117.563 30.862L117.543 30.809" stroke-width="0.25"/>
   <path d="M136.769 20.553C136.663 20.425 136.497 20.407 136.341 20.407C136.262 20.416 136.237 20.414 136.163 20.44C136.091 20.468 136.02 20.515 135.954 20.553L134.65 21.306C134.568 21.353 134.489 21.388 134.429 21.46" stroke-width="0.25"/>
   <path d="M134.396 21.339L134.396 21.393C134.414 21.486 134.51 21.542 134.592 21.573C134.731 21.623 134.896 21.623 135.036 21.573C135.105 21.547 135.183 21.496 135.245 21.461L136.549 20.708C136.622 20.666 136.735 20.62 136.782 20.539L136.801 20.484" stroke-width="0.25"/>
   <path d="M149.212 27.739L149.183 27.704C149.073 27.606 148.925 27.591 148.784 27.591C148.705 27.6 148.681 27.599 148.608 27.626C148.533 27.652 148.462 27.699 148.396 27.736L147.092 28.489C147.01 28.536 146.932 28.571 146.872 28.644" stroke-width="0.25"/>
   <path d="M146.84 28.524L146.84 28.577C146.858 28.67 146.955 28.728 147.037 28.757C147.175 28.806 147.341 28.806 147.479 28.757C147.55 28.731 147.627 28.681 147.687 28.646L148.991 27.893C149.066 27.85 149.177 27.803 149.225 27.722L149.246 27.67" stroke-width="0.25"/>
   <path d="M37.225 77.612L37.206 77.56C37.134 77.438 36.975 77.412 36.85 77.397L36.756 77.397L36.665 77.409C36.56 77.432 36.412 77.489 36.389 77.611L36.389 77.664" stroke="#808080" stroke-width="0.1"/>
   <path d="M7.333 81.719L7.314 81.668C7.266 81.587 7.155 81.54 7.081 81.498L5.777 80.745C5.71 80.706 5.639 80.659 5.565 80.632C5.492 80.606 5.468 80.608 5.389 80.599L5.294 80.599L5.205 80.611C5.099 80.632 4.953 80.691 4.929 80.811L4.927 80.865" stroke="#808080" stroke-width="0.1"/>
   <path d="M19.777 88.905L19.757 88.852C19.708 88.771 19.597 88.724 19.524 88.682L18.219 87.929C18.153 87.891 18.082 87.843 18.01 87.817C17.936 87.79 17.911 87.793 17.832 87.783L17.739 87.784L17.647 87.796C17.542 87.817 17.396 87.876 17.371 87.996L17.371 88.051" stroke="#808080" stroke-width="0.1"/>
   <path d="M157.997 31.408L157.865 31.484L108.573 59.942C108.034 60.255 107.489 60.557 106.936 60.843C106.418 61.112 105.891 61.368 105.361 61.615L105.221 61.676L103.858 62.276L103.575 62.393L102.147 62.951L101.859 63.058L100.379 63.573L100.088 63.667L98.557 64.138L98.411 64.183L98.263 64.221L94.307 65.281L94.159 65.32C93.388 65.542 92.621 65.775 91.861 66.025L91.715 66.075L89.775 66.75L89.489 66.855L87.614 67.59L87.331 67.707L85.539 68.493L85.262 68.623L83.549 69.463L83.412 69.531C82.774 69.861 82.141 70.206 81.519 70.566L81.388 70.644L79.858 71.578L79.727 71.658L79.6 71.743L78.165 72.719L78.039 72.805L77.917 72.897L76.584 73.909L76.462 74.001L76.346 74.1L75.114 75.15L74.998 75.248L74.887 75.355L73.765 76.43L73.655 76.536L73.551 76.649L72.537 77.75L72.435 77.862L72.338 77.981L70.56 80.197L70.463 80.317L70.361 80.43L69.599 81.257L69.495 81.37L69.385 81.477L68.54 82.287C68.176 82.635 67.757 82.963 67.384 83.283L67.266 83.382L67.144 83.474L66.138 84.239L66.016 84.331L65.89 84.417L64.805 85.153L64.68 85.239C64.168 85.569 63.646 85.882 63.121 86.186L37.588 100.927L37.457 101.003" stroke="#808080" stroke-width="0.1"/>
   <path d="M0.284 79.724L0.365 79.694C0.525 79.662 0.669 79.763 0.799 79.838L37.323 100.927L37.457 101.003" stroke="#808080" stroke-width="0.1"/>
   <path d="M0.399 79.924L0.352 79.962C0.269 80.058 0.288 80.206 0.288 80.322L0.288 83.138L0.288 83.292" stroke="#808080" stroke-width="0.1"/>
   <path d="M100.365 62.228L100.385 62.174C100.433 62.094 100.545 62.048 100.618 62.006L101.923 61.253C101.989 61.215 102.058 61.168 102.132 61.142C102.272 61.091 102.436 61.091 102.575 61.143C102.656 61.171 102.751 61.228 102.771 61.319L102.771 61.374" stroke="#808080" stroke-width="0.1"/>
   <path d="M77.587 71.004L77.608 70.951C77.656 70.871 77.768 70.825 77.841 70.784L79.146 70.031C79.21 69.992 79.281 69.945 79.355 69.92C79.495 69.87 79.659 69.87 79.798 69.92C79.878 69.948 79.974 70.004 79.992 70.096L79.993 70.15" stroke="#808080" stroke-width="0.1"/>
   <path d="M66.305 83.051L66.305 82.996C66.292 82.933 66.237 82.885 66.183 82.855C66.078 82.793 65.962 82.786 65.843 82.784C65.765 82.795 65.74 82.793 65.668 82.819C65.593 82.846 65.524 82.893 65.457 82.932L64.153 83.683C64.079 83.727 63.969 83.772 63.92 83.852L63.899 83.906" stroke="#808080" stroke-width="0.1"/>
   <path d="M48.289 93.453L48.27 93.507C48.222 93.587 48.11 93.634 48.036 93.677L46.731 94.43C46.671 94.465 46.594 94.515 46.524 94.54C46.451 94.566 46.424 94.566 46.348 94.575L46.256 94.575L46.164 94.563C46.057 94.542 45.908 94.483 45.884 94.361L45.884 94.308" stroke-width="0.25"/>
   <path d="M48.256 93.522L48.228 93.486C48.116 93.388 47.969 93.375 47.829 93.373C47.75 93.384 47.725 93.382 47.652 93.409C47.578 93.436 47.506 93.481 47.441 93.521L46.137 94.272C46.054 94.32 45.976 94.355 45.917 94.427" stroke-width="0.25"/>
   <path d="M51.904 63.335L51.895 63.295C51.851 63.2 51.723 63.185 51.634 63.179C51.545 63.186 51.42 63.201 51.377 63.295L51.368 63.334" stroke="#808080" stroke-width="0.1"/>
   <path d="M52.412 63.066L52.439 62.914L52.484 62.665L52.512 62.515L52.564 62.371L52.656 62.116L52.709 61.972L52.783 61.84L52.929 61.578L53.005 61.445L53.097 61.323L53.301 61.057L53.395 60.936L53.503 60.828L53.767 60.563L53.875 60.454L53.993 60.359L54.319 60.1L54.439 60.005L54.567 59.921L54.951 59.674C55.124 59.564 55.036 59.615 55.216 59.521C55.454 59.396 55.686 59.265 55.933 59.161L56.427 58.953L56.569 58.893L56.713 58.844L57.253 58.664L57.399 58.615L57.548 58.576L58.128 58.427L58.276 58.39L58.426 58.36L59.036 58.244C59.347 58.186 59.661 58.158 59.973 58.119C60.289 58.081 60.609 58.07 60.926 58.051C61.243 58.03 61.563 58.04 61.881 58.039L62.033 58.039L62.185 58.048L62.832 58.087L62.985 58.095L63.137 58.113L63.777 58.192C64.087 58.228 64.393 58.295 64.698 58.353L64.849 58.38L64.998 58.417L65.585 58.569C65.87 58.642 66.147 58.743 66.427 58.837C66.621 58.901 66.525 58.865 66.713 58.944L67.21 59.152L67.352 59.21L67.487 59.28L67.938 59.515L68.075 59.585L68.203 59.668L68.593 59.918L68.721 60.002L68.841 60.097L69.165 60.353L69.284 60.448L69.393 60.557L69.656 60.822C69.801 60.966 69.733 60.89 69.858 61.051L70.063 61.316L70.156 61.436L70.23 61.57L70.376 61.831L70.451 61.965L70.504 62.107L70.599 62.362L70.652 62.506L70.679 62.656L70.724 62.902L70.751 63.052" stroke="#808080" stroke-width="0.1"/>
   <path d="M71.796 63.335L71.787 63.295C71.745 63.2 71.617 63.185 71.528 63.179C71.438 63.186 71.313 63.201 71.271 63.295L71.262 63.334" stroke="#808080" stroke-width="0.1"/>
   <path d="M61.314 57.591L61.323 57.551C61.347 57.503 61.399 57.475 61.448 57.457C61.531 57.429 61.628 57.429 61.713 57.457C61.762 57.472 61.819 57.502 61.841 57.551L61.85 57.591" stroke="#808080" stroke-width="0.1"/>
   <path d="M62.734 48.329L62.715 48.276C62.667 48.195 62.555 48.149 62.481 48.106L61.988 47.822C61.923 47.783 61.851 47.737 61.779 47.71C61.704 47.683 61.68 47.685 61.601 47.676L61.508 47.676L61.417 47.689C61.311 47.71 61.164 47.768 61.14 47.889L61.14 47.942" stroke="#808080" stroke-width="0.1"/>
   <path d="M64.899 49.578L64.879 49.524C64.831 49.445 64.719 49.398 64.646 49.356L64.153 49.07C64.087 49.033 64.016 48.985 63.942 48.96C63.868 48.932 63.844 48.935 63.764 48.924L63.67 48.926C63.548 48.935 63.393 48.975 63.326 49.085L63.305 49.137" stroke="#808080" stroke-width="0.1"/>
   <path d="M61.85 69.076L61.841 69.037C61.798 68.942 61.67 68.929 61.581 68.923C61.491 68.93 61.368 68.944 61.323 69.037L61.314 69.076" stroke="#808080" stroke-width="0.1"/>
   <path d="M70.243 47.091L70.236 47.051C70.191 46.957 70.063 46.942 69.974 46.936C69.885 46.944 69.762 46.957 69.718 47.051L69.709 47.091" stroke="#808080" stroke-width="0.1"/>
   <path d="M70.742 47.09L70.775 46.804L70.87 46.523L70.947 46.39L70.953 46.383L71.031 46.25L71.129 46.134L71.15 46.109L71.25 45.991L71.364 45.892L71.409 45.853L71.525 45.753L71.653 45.667L71.724 45.621L71.852 45.536L71.987 45.466L72.087 45.414L72.224 45.345L72.367 45.289L72.493 45.24C72.731 45.148 72.981 45.076 73.231 45.026L73.403 44.991L73.552 44.962L73.704 44.944L73.89 44.921C74.057 44.902 74.221 44.896 74.388 44.889L74.54 44.883L74.694 44.887L74.891 44.895C75.058 44.901 75.221 44.92 75.388 44.939L75.54 44.956L75.691 44.984L75.87 45.02L76.019 45.048L76.328 45.134L76.474 45.176L76.748 45.281L76.891 45.337L77.027 45.405L77.135 45.46L77.272 45.53L77.4 45.613L77.477 45.664L77.605 45.75L77.721 45.85L77.766 45.889L77.882 45.988L77.98 46.104L78.004 46.131L78.102 46.247L78.18 46.38L78.186 46.39L78.263 46.521L78.359 46.805L78.393 47.093" stroke="#808080" stroke-width="0.1"/>
   <path d="M78.891 47.091L78.9 47.051C78.921 47.003 78.975 46.975 79.022 46.957C79.108 46.929 79.203 46.929 79.289 46.957C79.337 46.972 79.394 47.002 79.417 47.051L79.426 47.091" stroke="#808080" stroke-width="0.1"/>
   <path d="M74.299 44.441L74.308 44.401C74.331 44.353 74.385 44.323 74.433 44.307C74.516 44.279 74.614 44.279 74.697 44.307C74.746 44.323 74.802 44.35 74.825 44.402L74.834 44.441" stroke="#808080" stroke-width="0.1"/>
   <path d="M74.834 49.741L74.825 49.703C74.783 49.607 74.655 49.594 74.566 49.588C74.477 49.594 74.352 49.609 74.308 49.701L74.299 49.741" stroke="#808080" stroke-width="0.1"/>
   <path d="M118.379 30.757L118.358 30.704C118.287 30.585 118.129 30.557 118.004 30.542L117.909 30.542L117.819 30.556C117.715 30.576 117.567 30.635 117.543 30.756L117.543 30.809" stroke="#808080" stroke-width="0.1"/>
   <path d="M120.409 51.814L120.388 51.868C120.34 51.95 120.23 51.996 120.155 52.039L118.85 52.792C118.79 52.826 118.712 52.877 118.643 52.902C118.555 52.935 118.468 52.938 118.375 52.938L118.283 52.926C118.176 52.905 118.027 52.845 118.003 52.722L118.003 52.67" stroke-width="0.25"/>
   <path d="M120.376 51.884L120.347 51.85C120.236 51.75 120.088 51.737 119.947 51.737C119.868 51.746 119.844 51.744 119.771 51.771C119.697 51.798 119.626 51.844 119.56 51.883L118.256 52.636C118.174 52.682 118.096 52.718 118.036 52.789" stroke-width="0.25"/>
   <path d="M124.358 13.301L124.358 13.246C124.343 13.182 124.29 13.134 124.236 13.103C124.129 13.042 124.013 13.035 123.894 13.035C123.816 13.044 123.793 13.042 123.719 13.07C123.647 13.096 123.575 13.143 123.51 13.18L122.206 13.933C122.132 13.975 122.022 14.022 121.972 14.102L121.953 14.154" stroke="#808080" stroke-width="0.1"/>
   <path d="M136.02 42.268L136.02 42.322C136.038 42.414 136.133 42.472 136.216 42.5C136.354 42.551 136.52 42.551 136.658 42.5C136.729 42.475 136.806 42.424 136.867 42.39L138.171 41.637C138.246 41.594 138.358 41.548 138.405 41.466L138.425 41.414" stroke-width="0.25"/>
   <path d="M138.391 41.481L138.364 41.448C138.252 41.35 138.105 41.335 137.966 41.335C137.887 41.344 137.861 41.343 137.788 41.368C137.713 41.396 137.643 41.442 137.576 41.481L136.272 42.234C136.191 42.28 136.111 42.316 136.051 42.387" stroke-width="0.25"/>
   <path d="M138.425 41.414L138.424 41.359C138.411 41.295 138.356 41.247 138.302 41.216C138.197 41.155 138.08 41.148 137.961 41.146C137.883 41.156 137.86 41.155 137.787 41.182C137.712 41.209 137.643 41.255 137.576 41.293L136.272 42.046C136.199 42.088 136.087 42.134 136.039 42.215L136.02 42.268" stroke="#808080" stroke-width="0.1"/>
   <path d="M136.801 20.484L136.8 20.431C136.788 20.367 136.734 20.318 136.68 20.288C136.574 20.228 136.457 20.219 136.338 20.219C136.26 20.228 136.236 20.228 136.163 20.254C136.09 20.28 136.02 20.327 135.954 20.364L134.65 21.117C134.575 21.161 134.465 21.207 134.417 21.286L134.396 21.339" stroke="#808080" stroke-width="0.1"/>
   <path d="M149.246 27.67L149.245 27.614C149.23 27.55 149.176 27.504 149.122 27.472C149.016 27.411 148.901 27.403 148.782 27.403C148.704 27.413 148.681 27.411 148.606 27.437C148.533 27.464 148.463 27.51 148.396 27.55L147.092 28.303C147.019 28.344 146.908 28.39 146.86 28.471L146.84 28.524" stroke="#808080" stroke-width="0.1"/>
   <path d="M120.409 51.814L120.408 51.761C120.394 51.697 120.34 51.649 120.286 51.618C120.18 51.557 120.064 51.548 119.945 51.548C119.867 51.558 119.843 51.557 119.771 51.584C119.697 51.609 119.626 51.656 119.56 51.695L118.256 52.448C118.182 52.49 118.072 52.536 118.024 52.616L118.003 52.67" stroke="#808080" stroke-width="0.1"/>
   <path d="M48.289 93.453L48.289 93.399C48.276 93.334 48.22 93.287 48.167 93.256C48.06 93.195 47.945 93.186 47.826 93.186C47.749 93.197 47.725 93.194 47.652 93.221C47.578 93.248 47.506 93.295 47.441 93.332L46.137 94.085C46.063 94.129 45.953 94.174 45.905 94.254L45.884 94.308" stroke="#808080" stroke-width="0.1"/>
   <path d="M32.22 96.088L32.201 96.036C32.152 95.956 32.042 95.909 31.968 95.867L30.664 95.114C30.597 95.075 30.527 95.028 30.452 95.001C30.379 94.975 30.355 94.977 30.277 94.966L30.182 94.968L30.091 94.98C29.986 95.001 29.839 95.061 29.815 95.18L29.815 95.234" stroke="#808080" stroke-width="0.1"/>
  </g>
 </g>
 <g id="46735_2_COPERCHIO_GRANDE_PIANAL">
  <desc>46735_2_COPERCHIO_GRANDE_PIANAL</desc>
  <line stroke="#808080" stroke-width="0.1" x1="50.874" x2="50.874" y1="28.35" y2="28.556"/>
  <line stroke-width="0.13" x1="51.636" x2="51.636" y1="28.132" y2="28.257"/>
  <line stroke-width="0.13" x1="71.53" x2="71.53" y1="28.132" y2="28.257"/>
  <line stroke-width="0.13" x1="61.582" x2="61.582" y1="34.472" y2="34.597"/>
  <path d="M51.88 28.35C51.828 28.275 51.719 28.262 51.636 28.257C51.551 28.262 51.445 28.275 51.392 28.35" stroke-width="0.25"/>
  <path d="M53.253 32.301C53.051 32.149 52.85 31.998 52.659 31.833C52.271 31.495 51.915 31.112 51.625 30.687C51.331 30.256 51.103 29.785 50.978 29.277C50.921 29.041 50.884 28.798 50.874 28.556L50.874 28.402L50.874 28.297C50.874 28.051 50.895 27.806 50.944 27.565C51.091 26.847 51.453 26.182 51.917 25.621C52.109 25.388 52.323 25.172 52.546 24.969C52.713 24.817 52.887 24.673 53.069 24.536C53.234 24.413 53.404 24.291 53.578 24.178C53.762 24.056 53.954 23.946 54.146 23.838C54.438 23.673 54.74 23.524 55.045 23.388C55.408 23.227 55.78 23.086 56.155 22.957C56.646 22.788 57.149 22.649 57.655 22.533C58.29 22.388 58.936 22.283 59.585 22.211C60.365 22.126 61.149 22.097 61.935 22.108C62.369 22.114 62.807 22.137 63.24 22.178C64.164 22.268 65.081 22.414 65.98 22.647C66.231 22.713 66.48 22.788 66.727 22.864C67.388 23.07 68.037 23.327 68.653 23.643C69.203 23.926 69.734 24.248 70.221 24.631C70.728 25.03 71.188 25.495 71.552 26.03C71.84 26.452 72.063 26.92 72.185 27.419C72.242 27.655 72.281 27.896 72.292 28.14L72.292 28.431C72.292 28.62 72.275 28.806 72.243 28.992C72.221 29.138 72.191 29.283 72.15 29.425C71.876 30.375 71.245 31.19 70.507 31.832C70.356 31.963 70.198 32.085 70.039 32.206C69.852 32.345 69.659 32.476 69.462 32.6C69.23 32.743 68.996 32.878 68.756 33.003C68.418 33.176 68.073 33.338 67.721 33.479C67.301 33.649 66.868 33.798 66.433 33.926C65.343 34.246 64.218 34.442 63.088 34.534C62.587 34.576 62.085 34.59 61.582 34.597C61.081 34.59 60.581 34.576 60.079 34.536C59.265 34.469 58.453 34.347 57.655 34.165C57.398 34.107 57.143 34.039 56.889 33.969C56.122 33.759 55.369 33.478 54.655 33.13C54.286 32.948 53.923 32.746 53.578 32.521C53.469 32.451 53.36 32.374 53.253 32.301z" stroke-width="0.25"/>
  <path d="M51.904 28.286C51.887 28.41 51.738 28.437 51.636 28.442C51.533 28.437 51.386 28.411 51.368 28.288" stroke-width="0.25"/>
  <path d="M61.338 22.606C61.362 22.574 61.399 22.553 61.435 22.539C61.527 22.506 61.637 22.506 61.729 22.539C61.767 22.554 61.801 22.574 61.826 22.606" stroke-width="0.25"/>
  <path d="M61.314 22.545C61.323 22.608 61.368 22.646 61.424 22.67C61.521 22.71 61.643 22.71 61.74 22.67C61.798 22.646 61.841 22.608 61.85 22.545" stroke-width="0.25"/>
  <path d="M71.284 28.35C71.305 28.321 71.338 28.3 71.37 28.288C71.457 28.251 71.563 28.248 71.653 28.274C71.697 28.288 71.745 28.31 71.774 28.35" stroke-width="0.25"/>
  <path d="M71.262 28.288C71.271 28.35 71.314 28.388 71.37 28.411C71.468 28.452 71.59 28.452 71.688 28.411C71.745 28.388 71.789 28.35 71.796 28.286" stroke-width="0.25"/>
  <path d="M61.338 34.093C61.362 34.06 61.399 34.039 61.435 34.026C61.527 33.99 61.637 33.99 61.728 34.024C61.767 34.039 61.801 34.06 61.826 34.093" stroke-width="0.25"/>
  <path d="M61.314 34.03C61.323 34.093 61.368 34.131 61.426 34.155C61.521 34.195 61.643 34.195 61.74 34.155C61.798 34.131 61.841 34.093 61.85 34.03" stroke-width="0.25"/>
  <path d="M51.904 28.286C51.886 28.164 51.738 28.138 51.636 28.132C51.533 28.138 51.384 28.164 51.368 28.288" stroke="#808080" stroke-width="0.1"/>
  <path d="M72.292 28.14L72.292 28.431C72.284 28.623 72.26 28.82 72.221 29.009C72.075 29.727 71.712 30.39 71.248 30.952C71.055 31.185 70.841 31.4 70.618 31.605C70.451 31.757 70.278 31.902 70.096 32.037C69.93 32.161 69.762 32.283 69.587 32.396C69.359 32.545 69.125 32.682 68.885 32.811C68.59 32.97 68.287 33.115 67.978 33.246C67.612 33.401 67.242 33.543 66.865 33.667C66.42 33.813 65.966 33.936 65.51 34.04C64.923 34.174 64.329 34.271 63.732 34.344C63.186 34.411 62.636 34.45 62.087 34.465C61.918 34.469 61.75 34.469 61.582 34.472C61.414 34.469 61.246 34.469 61.078 34.465C60.527 34.45 59.975 34.411 59.429 34.344C58.829 34.27 58.235 34.173 57.648 34.039C57.191 33.935 56.737 33.811 56.29 33.664C55.914 33.54 55.543 33.398 55.179 33.243C54.871 33.112 54.567 32.966 54.274 32.807C54.036 32.679 53.801 32.542 53.573 32.393C53.399 32.28 53.231 32.159 53.066 32.034C52.884 31.899 52.71 31.756 52.543 31.603C52.322 31.399 52.109 31.184 51.917 30.951C51.453 30.391 51.091 29.728 50.945 29.012C50.905 28.823 50.881 28.626 50.874 28.434L50.874 28.143" stroke="#808080" stroke-width="0.1"/>
  <path d="M71.262 28.288C71.269 28.225 71.313 28.187 71.37 28.163C71.468 28.121 71.59 28.12 71.688 28.163C71.743 28.187 71.787 28.224 71.796 28.286" stroke="#808080" stroke-width="0.1"/>
  <path d="M61.314 34.03C61.323 33.966 61.368 33.929 61.424 33.905C61.521 33.863 61.643 33.863 61.74 33.905C61.798 33.929 61.841 33.966 61.85 34.03" stroke="#808080" stroke-width="0.1"/>
  <path d="M61.85 22.545C61.832 22.422 61.686 22.394 61.582 22.39C61.479 22.394 61.332 22.422 61.314 22.545" stroke="#808080" stroke-width="0.1"/>
 </g>
 <g id="46737_2_COPERCHIO_PICCOLO_PIANA">
  <desc>46737_2_COPERCHIO_PICCOLO_PIANA</desc>
  <line stroke-width="0.13" x1="69.977" x2="69.977" y1="12.451" y2="12.577"/>
  <line stroke-width="0.13" x1="79.158" x2="79.158" y1="12.451" y2="12.577"/>
  <path d="M74.834 9.955C74.819 10.085 74.655 10.109 74.549 10.111C74.453 10.102 74.313 10.073 74.299 9.955" stroke-width="0.25"/>
  <path d="M70.328 10.718C70.489 10.602 70.653 10.49 70.828 10.393C71.521 10.003 72.298 9.768 73.079 9.637C73.817 9.513 74.57 9.484 75.316 9.545C75.959 9.598 76.596 9.717 77.209 9.917C77.807 10.114 78.388 10.387 78.885 10.778C79.179 11.009 79.445 11.285 79.637 11.609C79.765 11.827 79.858 12.067 79.9 12.317C79.93 12.5 79.932 12.692 79.917 12.877C79.852 13.667 79.281 14.304 78.653 14.73C78.569 14.788 78.483 14.84 78.397 14.891C78.248 14.98 78.093 15.061 77.935 15.135C77.768 15.214 77.596 15.282 77.424 15.346C77.206 15.426 76.986 15.493 76.76 15.551C76.487 15.622 76.212 15.679 75.933 15.721C75.521 15.785 75.106 15.811 74.691 15.823C74.233 15.823 73.777 15.801 73.322 15.737C73.042 15.699 72.763 15.647 72.487 15.582C72.262 15.526 72.037 15.461 71.817 15.385C71.643 15.324 71.471 15.256 71.302 15.182C71.14 15.109 70.981 15.032 70.828 14.945C70.71 14.88 70.596 14.808 70.484 14.733C69.855 14.305 69.281 13.669 69.218 12.878C69.203 12.692 69.204 12.499 69.234 12.316C69.281 12.038 69.391 11.775 69.543 11.538C69.68 11.323 69.849 11.128 70.04 10.955C70.132 10.871 70.23 10.794 70.328 10.718z" stroke-width="0.25"/>
  <path d="M69.731 12.669C69.813 12.573 69.968 12.561 70.084 12.589C70.135 12.602 70.188 12.625 70.221 12.669" stroke-width="0.25"/>
  <path d="M70.245 12.606C70.23 12.728 70.076 12.757 69.977 12.76C69.876 12.757 69.722 12.728 69.709 12.606" stroke-width="0.25"/>
  <path d="M74.322 10.019C74.403 9.929 74.543 9.912 74.658 9.936C74.718 9.948 74.771 9.973 74.811 10.019" stroke-width="0.25"/>
  <path d="M79.426 12.606C79.412 12.728 79.259 12.757 79.158 12.76C79.058 12.757 78.905 12.728 78.891 12.606" stroke-width="0.25"/>
  <path d="M78.914 12.669C78.995 12.573 79.15 12.561 79.265 12.589C79.316 12.602 79.37 12.625 79.403 12.669" stroke-width="0.25"/>
  <path d="M74.299 15.256C74.308 15.321 74.355 15.361 74.414 15.384C74.51 15.423 74.626 15.422 74.721 15.382C74.78 15.359 74.826 15.32 74.834 15.256" stroke-width="0.25"/>
  <path d="M74.811 15.32C74.745 15.244 74.646 15.227 74.549 15.227C74.465 15.234 74.382 15.253 74.322 15.32" stroke-width="0.25"/>
  <path d="M79.923 12.606C79.917 12.755 79.906 12.897 79.87 13.041C79.697 13.74 79.153 14.282 78.566 14.663C78.451 14.737 78.334 14.804 78.215 14.869C78.058 14.954 77.897 15.031 77.733 15.101C77.561 15.173 77.385 15.237 77.207 15.295C76.984 15.368 76.759 15.43 76.53 15.483C76.253 15.545 75.972 15.595 75.689 15.63C75.319 15.676 74.944 15.698 74.569 15.698C74.194 15.698 73.819 15.676 73.447 15.631C73.164 15.596 72.882 15.545 72.605 15.483C72.376 15.43 72.15 15.368 71.926 15.295C71.748 15.237 71.572 15.173 71.399 15.099C71.234 15.029 71.073 14.952 70.917 14.868C70.796 14.804 70.68 14.734 70.566 14.66C69.98 14.281 69.436 13.739 69.265 13.041C69.228 12.896 69.218 12.755 69.212 12.606" stroke="#808080" stroke-width="0.1"/>
  <path d="M69.709 12.606C69.715 12.545 69.759 12.507 69.813 12.484C69.903 12.444 70.016 12.442 70.111 12.473C70.174 12.494 70.236 12.535 70.245 12.606" stroke="#808080" stroke-width="0.1"/>
  <path d="M78.891 12.606C78.899 12.535 78.959 12.493 79.025 12.473C79.118 12.442 79.23 12.444 79.32 12.484C79.375 12.507 79.418 12.545 79.426 12.606" stroke="#808080" stroke-width="0.1"/>
  <path d="M74.834 15.256C74.82 15.141 74.682 15.109 74.584 15.102C74.48 15.102 74.316 15.128 74.299 15.256" stroke="#808080" stroke-width="0.1"/>
  <path d="M74.834 9.955C74.82 9.839 74.682 9.81 74.584 9.801C74.48 9.801 74.314 9.827 74.299 9.955" stroke="#808080" stroke-width="0.1"/>
 </g>
 <g>
  <line stroke="#FFFFFF" stroke-width="1" x1="61.609" x2="61.609" y1="56.856" y2="35.725"/>
  <line stroke-dasharray="5 1 1 1" stroke-width="0.13" x1="61.609" x2="61.609" y1="57.421" y2="36.161"/>
  <line stroke-width="0.13" x1="61.609" x2="61.609" y1="36.161" y2="35.161"/>
 </g>
 <g>
  <line stroke="#FFFFFF" stroke-width="1" x1="74.543" x2="74.543" y1="43.829" y2="16.751"/>
  <line stroke-dasharray="5 1 1 1" stroke-width="0.13" x1="74.543" x2="74.543" y1="44.393" y2="17.185"/>
  <line stroke-width="0.13" x1="74.543" x2="74.543" y1="17.185" y2="16.185"/>
 </g>
 <g class="callout callout_1">
  <g>
   <line stroke="#FFFFFF" stroke-width="1" x1="36.656" x2="21.422" y1="58.984" y2="50.188"/>
   <line stroke="#808080" stroke-width="0.1" x1="36.656" x2="21.422" y1="58.984" y2="50.188"/>
  </g>
  <path d="M18.864 53.709L23.981 53.709 23.981 46.667 18.864 46.667 18.864 53.709z" fill="#FFFFFF" stroke="none"/>
  <text fill="#000000" font-family="'Arial'" font-size="4.232" stroke="none" x="20.245" y="51.709"><desc>1</desc>1</text>
 </g>
 <g class="callout callout_2">
  <g>
   <line stroke="#FFFFFF" stroke-width="1" x1="52.573" x2="40.621" y1="25.559" y2="18.658"/>
   <line stroke="#808080" stroke-width="0.1" x1="52.573" x2="40.621" y1="25.559" y2="18.658"/>
  </g>
  <path d="M37.618 22.179L43.625 22.179 43.625 15.137 37.618 15.137 37.618 22.179z" fill="#FFFFFF" stroke="none"/>
  <text fill="#000000" font-family="'Arial'" font-size="4.232" stroke="none" x="39.444" y="20.179"><desc>2</desc>2</text>
 </g>
 <g class="callout callout_3">
  <g>
   <line stroke="#FFFFFF" stroke-width="1" x1="78.885" x2="91.408" y1="10.778" y2="3.548"/>
   <line stroke="#808080" stroke-width="0.1" x1="78.885" x2="91.408" y1="10.778" y2="3.548"/>
  </g>
  <path d="M88.415 7.096L94.4 7.096 94.4 0 88.415 0 88.415 7.096z" fill="#FFFFFF" stroke="none"/>
  <text fill="#000000" font-family="'Arial'" font-size="4.232" stroke="none" x="90.23" y="5.096"><desc>3</desc>3</text>
 </g>
 <g class="callout callout_4">
  <g>
   <line stroke="#FFFFFF" stroke-width="1" x1="189.407" x2="172.118" y1="82.31" y2="72.328"/>
   <line stroke="#808080" stroke-width="0.1" x1="189.407" x2="172.118" y1="82.31" y2="72.328"/>
  </g>
  <path d="M169.07 75.843L175.167 75.843 175.167 68.813 169.07 68.813 169.07 75.843z" fill="#FFFFFF" stroke="none"/>
  <text fill="#000000" font-family="'Arial'" font-size="4.232" stroke="none" x="170.942" y="73.843"><desc>4</desc>4</text>
 </g>
 <path class="hotspot hotspot_1" d="M18.864 53.709L 23.981 53.709L 23.981 46.667L 18.864 46.667L 18.864 53.709z" fill="black" id="AUTOID_120650" stroke="black" visibility="hidden"/>
 <path class="hotspot hotspot_2" d="M37.618 22.179L 43.625 22.179L 43.625 15.137L 37.618 15.137L 37.618 22.179z" fill="black" id="AUTOID_120651" stroke="black" visibility="hidden"/>
 <path class="hotspot hotspot_4" d="M169.07 75.843L 175.167 75.843L 175.167 68.813L 169.07 68.813L 169.07 75.843z" fill="black" id="AUTOID_120652" stroke="black" visibility="hidden"/>
 <path class="hotspot hotspot_3" d="M88.415 7.096L 94.4 7.096L 94.4 0L 88.415 0L 88.415 7.096z" fill="black" id="AUTOID_120653" stroke="black" visibility="hidden"/>
</svg>