<?xml version="1.0" encoding="UTF-8" standalone="no"?><!-- Generator: PTC Arbortext IsoDraw 7.3 M090 --><svg xmlns="http://www.w3.org/2000/svg" xmlns:xlink="http://www.w3.org/1999/xlink" clip-rule="evenodd" fill="none" fill-rule="evenodd" font-family="sans-serif" font-size="10" font-stretch="normal" font-style="normal" font-variant="normal" font-weight="normal" height="199.143" id="Standard_x0020_layer" onabort="parent.dwImageSVGOnAbort('NLG143136033');" onerror="parent.dwImageSVGOnError('NLG143136033');" onload="parent.dwImageSVGOnLoad('NLG143136033');" stroke="#000000" stroke-linecap="round" viewBox="0.0 0.0 227.417 199.143" width="227.417" x="0" xml:space="preserve" y="0">
 <g>
  <path d="M85.423 40.527L85.367 40.502C85.314 40.482 85.296 40.485 85.242 40.482C85.177 40.488 85.165 40.487 85.1 40.506C84.96 40.551 84.837 40.64 84.733 40.743C84.597 40.875 84.489 41.037 84.411 41.21C84.362 41.317 84.325 41.429 84.305 41.545C84.274 41.719 84.274 41.929 84.39 42.075C84.424 42.119 84.438 42.124 84.483 42.155" stroke-width="0.13"/>
  <path d="M85.423 40.527C85.468 40.558 85.48 40.563 85.516 40.607C85.632 40.753 85.632 40.963 85.602 41.137C85.581 41.253 85.543 41.365 85.495 41.472C85.415 41.645 85.308 41.807 85.173 41.939C85.069 42.042 84.944 42.131 84.805 42.176C84.74 42.195 84.728 42.194 84.664 42.2C84.608 42.197 84.59 42.2 84.537 42.18L84.483 42.155" stroke-width="0.13"/>
 </g>
 <g id="01_0003_0351_0_2">
  <desc>01_0003_0351_0</desc>
  <line stroke-width="0.13" x1="74.462" x2="74.456" y1="131.301" y2="131.473"/>
  <line stroke-width="0.13" x1="74.447" x2="74.427" y1="131.643" y2="131.819"/>
  <line stroke-width="0.13" x1="74.406" x2="74.37" y1="131.997" y2="132.179"/>
  <line stroke-width="0.13" x1="74.287" x2="74.335" y1="132.545" y2="132.36"/>
  <line stroke-width="0.13" x1="74.177" x2="74.239" y1="132.918" y2="132.73"/>
  <line stroke-width="0.13" x1="72.234" x2="72.094" y1="135.878" y2="136"/>
  <line stroke-width="0.13" x1="71.534" x2="69.84" y1="135.129" y2="134.979"/>
  <line stroke-width="0.13" x1="73.296" x2="71.563" y1="130.717" y2="130.562"/>
  <line stroke-width="0.13" x1="71.563" x2="69.829" y1="135.185" y2="135.03"/>
  <line stroke-width="0.13" x1="71.194" x2="70.668" y1="131.829" y2="131.687"/>
  <line stroke-width="0.3" x1="71.552" x2="73.248" y1="130.588" y2="130.74"/>
  <line stroke-width="0.13" x1="66.691" x2="59.063" y1="127.959" y2="123.555"/>
  <path d="M71.09 136.604C70.865 136.695 70.638 136.764 70.396 136.788L70.135 136.795L69.887 136.768C69.73 136.736 69.579 136.682 69.441 136.603C68.677 136.161 68.528 135.162 68.593 134.358C68.64 133.792 68.792 133.236 69.001 132.711C69.301 131.961 69.727 131.263 70.265 130.658C70.593 130.29 70.959 129.96 71.376 129.694C72.019 129.288 72.887 128.985 73.6 129.397C73.739 129.478 73.861 129.58 73.966 129.701C74.078 129.83 74.168 129.977 74.239 130.132C74.361 130.405 74.408 130.683 74.447 130.977" stroke-width="0.13"/>
  <path d="M74.403 131.377C74.394 131.6 74.385 131.824 74.35 132.046C74.263 132.604 74.081 133.146 73.843 133.657C73.513 134.36 73.07 135.01 72.518 135.557C72.025 136.045 71.423 136.485 70.734 136.639C70.501 136.693 70.456 136.683 70.221 136.691C69.981 136.663 69.768 136.627 69.555 136.503C68.867 136.108 68.7 135.236 68.728 134.508C68.736 134.286 68.728 134.397 68.754 134.173C68.888 133.038 69.402 131.945 70.105 131.054C70.442 130.626 70.834 130.231 71.284 129.92C71.924 129.479 72.832 129.118 73.57 129.544C73.703 129.621 73.822 129.721 73.924 129.836C74.031 129.961 74.117 130.1 74.186 130.251C74.349 130.61 74.385 130.987 74.403 131.377z" stroke-width="0.13"/>
  <path d="M71.5 136.405C71.548 136.387 71.558 136.353 71.563 136.305" stroke-width="0.13"/>
  <path d="M73.478 129.26L73.265 129.169C73.063 129.104 72.998 129.11 72.787 129.092C72.546 129.104 72.501 129.094 72.26 129.151C71.682 129.289 71.165 129.621 70.718 130.003C70.228 130.425 69.814 130.924 69.469 131.468C69.049 132.129 68.731 132.858 68.561 133.623C68.432 134.211 68.381 134.836 68.522 135.427C68.602 135.764 68.75 136.091 68.99 136.342C69.137 136.496 69.186 136.512 69.361 136.623" stroke-width="0.13"/>
  <path d="M71.563 129.743C71.543 129.512 71.322 129.442 71.144 129.337L67.862 127.444L67.585 127.284" stroke-width="0.13"/>
  <path d="M71.09 136.604C70.873 136.693 70.661 136.75 70.43 136.79L70.402 136.794L70.15 136.811C69.923 136.795 69.871 136.795 69.653 136.741C69.45 136.691 69.26 136.564 69.084 136.463L65.804 134.568C65.727 134.525 65.421 134.354 65.329 134.283C65.061 134.08 64.876 133.788 64.763 133.475C64.527 132.816 64.578 132.075 64.727 131.402C64.897 130.639 65.216 129.913 65.635 129.252C65.98 128.71 66.391 128.211 66.879 127.793C67.393 127.352 68.01 126.969 68.694 126.891C68.938 126.861 69.191 126.878 69.427 126.956C69.626 127.021 69.734 127.099 69.921 127.206L73.201 129.1C73.49 129.268 73.807 129.424 74.001 129.707C74.102 129.853 74.198 129.992 74.259 130.161C74.338 130.382 74.365 130.445 74.408 130.681C74.509 131.237 74.457 131.812 74.335 132.36C74.227 132.848 74.051 133.32 73.831 133.769C73.493 134.457 73.049 135.098 72.5 135.635C72.09 136.037 71.623 136.388 71.09 136.604z" stroke-width="0.3"/>
  <path d="M67.37 127.42L67.093 127.26L60.759 123.602L60.481 123.442L60.316 123.358C60.159 123.296 60.104 123.304 59.939 123.289C59.74 123.305 59.707 123.296 59.512 123.355C59.082 123.486 58.706 123.766 58.393 124.078C57.81 124.662 57.375 125.435 57.195 126.239C57.085 126.721 57.054 127.272 57.271 127.73C57.354 127.908 57.478 128.063 57.643 128.171L57.92 128.331L64.335 132.036L64.612 132.195" stroke-width="0.3"/>
  <path d="M71.534 135.129L71.734 134.881L73.037 133.258L73.239 133.009L73.239 132.689L73.239 131.056L73.239 130.736" stroke-width="0.13"/>
  <path d="M71.552 130.586C72.114 130.634 72.677 130.687 73.239 130.736" stroke-width="0.13"/>
  <path d="M73.296 130.717L73.296 131.038L73.296 132.709L73.296 133.028L73.094 133.277L71.763 134.935L71.563 135.185" stroke-width="0.13"/>
  <path d="M69.829 135.03L69.829 134.71L69.829 133.038L69.829 132.718L70.031 132.469L71.361 130.812L71.563 130.562" stroke-width="0.13"/>
  <path d="M73.26 130.74C73.275 130.735 73.296 130.717 73.296 130.717" stroke-width="0.13"/>
  <path d="M71.563 135.185C71.561 135.169 71.558 135.158 71.549 135.145" stroke-width="0.13"/>
  <path d="M73.296 133.028L73.26 133.019" stroke-width="0.13"/>
  <path d="M73.26 133.019L73.239 133.009L72.962 132.849L71.471 131.989L71.194 131.829" stroke-width="0.13"/>
  <path d="M71.194 131.034L71.194 131.354L71.194 131.508L71.194 131.829L70.992 132.078L70.042 133.26L69.84 133.51" stroke-width="0.13"/>
  <path d="M71.549 135.145L71.534 135.129L71.257 134.969L70.118 134.312L69.84 134.152" stroke-width="0.13"/>
  <path d="M71.557 130.582L71.355 130.832L70.042 132.467L69.84 132.717L69.84 133.037L69.84 134.685L69.84 135.004" stroke-width="0.3"/>
 </g>
 <g id="09_0694_0102_0">
  <desc>09_0694_0102_0</desc>
  <g id="09_0694_0109_PORTS_0">
   <desc>09_0694_0109_PORTS_0</desc>
   <line stroke-width="0.3" x1="122.9" x2="122.204" y1="31.027" y2="31.033"/>
   <line stroke-width="0.3" x1="122.84" x2="122.563" y1="31.028" y2="31.362"/>
   <line stroke-width="0.3" x1="123.659" x2="123.659" y1="29.649" y2="28.603"/>
   <line stroke-width="0.3" x1="123.364" x2="123.691" y1="29.079" y2="29.71"/>
   <line stroke-width="0.3" x1="126.025" x2="126.406" y1="29.743" y2="29.283"/>
   <line stroke-width="0.3" x1="126.308" x2="125.632" y1="29.224" y2="29.23"/>
   <line stroke-width="0.3" x1="130.586" x2="130.586" y1="25.807" y2="24.763"/>
   <line stroke-width="0.3" x1="130.289" x2="130.617" y1="25.239" y2="25.87"/>
   <line stroke-width="0.13" x1="126.618" x2="128.393" y1="24.913" y2="25.98"/>
   <line stroke-width="0.3" x1="129.765" x2="129.489" y1="27.187" y2="27.521"/>
   <line stroke-width="0.3" x1="129.826" x2="129.132" y1="27.187" y2="27.193"/>
   <line stroke-width="0.13" x1="128.611" x2="129.6" y1="26.574" y2="26.795"/>
   <line stroke-width="0.13" x1="131.596" x2="131.596" y1="32.831" y2="29.562"/>
   <line stroke-width="0.3" x1="127.353" x2="127.353" y1="27.76" y2="26.405"/>
   <line stroke-width="0.3" x1="126.912" x2="127.231" y1="27.071" y2="27.687"/>
   <line stroke-width="0.13" x1="122.924" x2="124.698" y1="26.811" y2="27.876"/>
   <line stroke-width="0.13" x1="128.04" x2="128.04" y1="34.801" y2="31.535"/>
   <line stroke-width="0.13" x1="126.045" x2="125.057" y1="28.766" y2="28.545"/>
   <line stroke-width="0.13" x1="119.691" x2="121.465" y1="28.754" y2="29.821"/>
   <line stroke-width="0.13" x1="124.67" x2="124.67" y1="36.671" y2="33.404"/>
   <line stroke-width="0.13" x1="121.686" x2="122.674" y1="30.416" y2="30.635"/>
   <line stroke-width="0.13" x1="122.915" x2="122.915" y1="37.645" y2="39.604"/>
   <path d="M132.918 30.521C133.832 30.868 134.715 31.303 135.445 31.969C135.955 32.432 136.385 33.011 136.58 33.68C136.677 34.015 136.689 34.341 136.689 34.688L136.688 36.003C136.688 36.344 136.698 36.679 136.621 37.014C136.467 37.682 136.072 38.268 135.587 38.743C134.943 39.378 134.139 39.835 133.306 40.176C132.199 40.628 131.013 40.88 129.824 40.978C129.426 41.011 129.03 41.021 128.632 41.024C128.235 41.018 127.837 41.005 127.441 40.969C126.254 40.859 125.07 40.598 123.969 40.134C123.233 39.825 122.525 39.42 121.93 38.881C121.364 38.365 120.894 37.707 120.739 36.944C120.686 36.682 120.685 36.429 120.685 36.164L120.685 34.84C120.685 34.579 120.674 34.319 120.712 34.06C120.9 32.75 121.986 31.754 123.09 31.143" stroke-width="0.3"/>
   <path d="M119.691 30.187L119.966 30.353L121.191 31.088L121.465 31.254L121.784 31.286L122.245 31.33L122.563 31.362" stroke-width="0.3"/>
   <path d="M120.789 27.428L120.584 27.675L119.896 28.507L119.691 28.754L119.691 29.074L119.691 29.867L119.691 30.187" stroke-width="0.3"/>
   <path d="M123.659 28.603L123.385 28.439L122.159 27.702L121.885 27.538L121.566 27.506L121.108 27.46L120.789 27.428" stroke-width="0.3"/>
   <path d="M125.992 36.386L125.992 36.066L125.992 33.426C125.992 33.118 125.992 32.82 125.933 32.515C125.775 31.727 125.349 30.966 124.757 30.422C124.421 30.114 124.009 29.902 123.62 29.667" stroke-width="0.3"/>
   <path d="M124.754 30.42C125.563 30.155 126.409 29.981 127.257 29.899" stroke-width="0.3"/>
   <path d="M127.126 29.754C127.433 30.074 127.643 30.449 127.756 30.878" stroke-width="0.3"/>
   <path d="M127.75 30.853C127.795 31.071 127.79 31.26 127.79 31.486L127.79 34.112L127.79 34.433" stroke-width="0.3"/>
   <path d="M126.233 29.179C126.469 29.321 126.709 29.458 126.939 29.605" stroke-width="0.3"/>
   <path d="M126.936 29.603C127.012 29.658 127.081 29.716 127.15 29.78" stroke-width="0.3"/>
   <path d="M123.659 28.987L123.933 29.152L124.424 29.448L124.698 29.612L125.016 29.643L125.707 29.713L126.025 29.743" stroke-width="0.3"/>
   <path d="M122.837 30.989C123.081 31.137 123.331 31.28 123.572 31.435" stroke-width="0.3"/>
   <path d="M123.548 31.417C123.701 31.533 123.832 31.664 123.956 31.814" stroke-width="0.3"/>
   <path d="M123.948 31.803C124.106 32.018 124.23 32.238 124.331 32.485" stroke-width="0.3"/>
   <path d="M124.328 32.478C124.393 32.661 124.435 32.841 124.454 33.033" stroke-width="0.3"/>
   <path d="M124.453 33.015L124.456 33.088L124.456 33.408L124.456 36.023L124.456 36.343" stroke-width="0.3"/>
   <path d="M136.689 34.368C136.686 34.601 136.673 34.826 136.62 35.055C136.372 36.128 135.538 36.944 134.647 37.527C134.128 37.866 133.556 38.13 132.975 38.344C131.962 38.715 130.893 38.929 129.818 39.018C129.421 39.051 129.024 39.06 128.626 39.064C128.228 39.057 127.831 39.043 127.433 39.008C126.483 38.92 125.539 38.732 124.635 38.426C123.938 38.189 123.259 37.881 122.644 37.473C121.826 36.929 121.073 36.173 120.793 35.207C120.727 34.979 120.701 34.755 120.685 34.52" stroke-width="0.13"/>
   <path d="M127.715 23.588L127.51 23.835L126.822 24.667L126.618 24.913L126.618 25.233L126.618 25.643L126.618 25.963" stroke-width="0.3"/>
   <path d="M130.586 24.763L130.312 24.597L129.086 23.861L128.812 23.696L128.492 23.664L128.033 23.62L127.715 23.588" stroke-width="0.3"/>
   <path d="M132.918 32.545L132.918 32.225L132.919 29.585C132.919 29.277 132.919 28.978 132.859 28.675C132.701 27.885 132.276 27.126 131.683 26.582C131.347 26.272 130.936 26.06 130.546 25.826" stroke-width="0.3"/>
   <path d="M130.586 24.763L130.266 24.731L129.807 24.686L129.489 24.655L129.215 24.489L127.989 23.753L127.715 23.588" stroke-width="0.13"/>
   <path d="M128.393 27.413L128.393 27.092L128.393 26.3L128.393 25.98L128.597 25.733L129.284 24.9L129.489 24.655" stroke-width="0.13"/>
   <path d="M129.489 27.521L129.17 27.489L128.711 27.445L128.393 27.413L128.117 27.248L127.628 26.954L127.353 26.789" stroke-width="0.3"/>
   <path d="M129.763 27.149C130.008 27.295 130.258 27.439 130.497 27.594" stroke-width="0.3"/>
   <path d="M130.473 27.576C130.627 27.693 130.758 27.823 130.882 27.972" stroke-width="0.3"/>
   <path d="M130.875 27.963C131.032 28.176 131.157 28.397 131.258 28.644" stroke-width="0.3"/>
   <path d="M131.254 28.638C131.318 28.821 131.361 29 131.382 29.193" stroke-width="0.3"/>
   <path d="M131.379 29.172L131.382 29.246L131.383 29.567L131.383 32.18L131.383 32.502" stroke-width="0.3"/>
   <path d="M132.682 29.576C132.658 28.839 132.418 28.138 132.03 27.513C131.816 27.17 131.557 26.85 131.254 26.582C130.925 26.291 130.53 26.085 130.155 25.861" stroke-width="0.13"/>
   <path d="M129.763 27.149C129.6 27.033 129.58 26.832 129.615 26.647C129.667 26.356 129.847 26.067 130.092 25.899C130.229 25.804 130.389 25.754 130.546 25.826" stroke-width="0.13"/>
   <path d="M130.417 27.542C130.275 27.428 130.25 27.254 130.274 27.082C130.313 26.801 130.474 26.527 130.692 26.347C130.838 26.227 131.027 26.143 131.211 26.227" stroke-width="0.13"/>
   <path d="M131.382 29.246C131.395 29.443 131.556 29.561 131.729 29.626C132.006 29.731 132.346 29.728 132.616 29.608C132.768 29.542 132.895 29.434 132.919 29.265" stroke-width="0.13"/>
   <path d="M131.092 28.288C131.311 28.146 131.544 28.027 131.77 27.899C131.986 27.778 132.203 27.64 132.43 27.536" stroke-width="0.13"/>
   <path d="M129.132 27.193C129.05 27.19 128.977 27.185 128.902 27.152C128.647 27.033 128.594 26.718 128.616 26.466C128.663 25.958 128.973 25.437 129.396 25.152C129.605 25.01 129.911 24.9 130.14 25.062C130.207 25.109 130.248 25.17 130.289 25.239" stroke-width="0.13"/>
   <path d="M132.918 32.545C132.856 32.875 132.443 32.954 132.162 32.966C132.082 32.965 132.062 32.966 131.984 32.956C131.734 32.923 131.388 32.799 131.383 32.502" stroke-width="0.13"/>
   <path d="M124.251 25.207L124.048 25.454L123.129 26.564L122.924 26.811L122.924 27.131L122.924 27.841L122.924 28.161" stroke-width="0.3"/>
   <path d="M127.353 26.405L127.078 26.239L125.853 25.503L125.579 25.338L125.26 25.306L124.57 25.237L124.251 25.207" stroke-width="0.3"/>
   <path d="M129.584 34.454L129.584 34.134L129.584 31.507C129.584 31.214 129.586 30.928 129.533 30.64C129.389 29.838 128.978 29.045 128.384 28.484C128.258 28.362 128.128 28.248 127.984 28.149C127.716 27.963 127.427 27.806 127.149 27.638" stroke-width="0.3"/>
   <path d="M131.383 30.094C130.692 29.957 129.997 29.87 129.294 29.838" stroke-width="0.3"/>
   <path d="M127.353 26.405L127.034 26.373L126.344 26.304L126.025 26.272L125.751 26.108L124.527 25.371L124.251 25.207" stroke-width="0.13"/>
   <path d="M124.698 29.612L124.698 29.292L124.698 28.196L124.698 27.876L124.903 27.631L125.822 26.519L126.025 26.272" stroke-width="0.13"/>
   <path d="M127.813 28.036C127.753 28.009 127.704 27.998 127.637 27.993C127.186 28.032 126.853 28.498 126.746 28.905C126.683 29.14 126.683 29.425 126.9 29.579" stroke-width="0.13"/>
   <path d="M126.691 27.676C127.073 27.907 127.475 28.117 127.813 28.414C128.131 28.696 128.401 29.03 128.625 29.39C129.031 30.044 129.282 30.778 129.307 31.55" stroke-width="0.13"/>
   <path d="M127.79 31.166C127.805 31.394 127.993 31.533 128.194 31.609C128.519 31.731 128.914 31.728 129.231 31.588C129.407 31.51 129.556 31.385 129.584 31.187" stroke-width="0.13"/>
   <path d="M129.079 29.394L129.044 29.411C129.003 29.432 128.965 29.454 128.925 29.475C128.782 29.553 128.64 29.632 128.498 29.711C128.276 29.836 128.054 29.961 127.832 30.088C127.727 30.147 127.617 30.204 127.516 30.271" stroke-width="0.13"/>
   <path d="M126.233 29.179C126.045 29.045 126.022 28.811 126.061 28.594C126.123 28.254 126.331 27.917 126.618 27.721C126.78 27.611 126.965 27.553 127.149 27.638" stroke-width="0.13"/>
   <path d="M125.632 29.23C125.542 29.228 125.46 29.222 125.376 29.184C125.096 29.053 125.037 28.704 125.061 28.428C125.111 27.865 125.456 27.289 125.924 26.974C126.156 26.818 126.492 26.696 126.746 26.875C126.82 26.926 126.865 26.993 126.912 27.071" stroke-width="0.13"/>
   <path d="M129.584 34.454C129.539 34.783 129.159 34.914 128.872 34.95C128.786 34.96 128.762 34.959 128.674 34.96C128.586 34.957 128.562 34.959 128.473 34.947C128.191 34.905 127.811 34.765 127.79 34.433" stroke-width="0.13"/>
   <path d="M123.659 28.603L123.34 28.573L122.882 28.527L122.563 28.495L122.289 28.33L121.063 27.594L120.789 27.428" stroke-width="0.13"/>
   <path d="M121.465 31.254L121.465 30.934L121.465 30.14L121.465 29.821L121.671 29.574L122.358 28.742L122.563 28.495" stroke-width="0.13"/>
   <path d="M124.284 30.068C124.233 30.044 124.191 30.035 124.134 30.03C123.737 30.064 123.445 30.484 123.362 30.844C123.317 31.036 123.325 31.251 123.49 31.382" stroke-width="0.13"/>
   <path d="M123.227 29.701C123.602 29.926 123.998 30.132 124.328 30.423C124.632 30.692 124.89 31.01 125.102 31.355C125.492 31.978 125.731 32.68 125.757 33.417" stroke-width="0.13"/>
   <path d="M124.456 33.088C124.468 33.284 124.629 33.402 124.802 33.468C125.079 33.573 125.418 33.57 125.691 33.448C125.841 33.383 125.969 33.276 125.992 33.106" stroke-width="0.13"/>
   <path d="M124.167 32.128C124.385 31.987 124.617 31.867 124.844 31.74C125.061 31.62 125.277 31.481 125.504 31.378" stroke-width="0.13"/>
   <path d="M122.837 30.989C122.674 30.873 122.655 30.673 122.688 30.489C122.74 30.196 122.92 29.908 123.165 29.739C123.304 29.646 123.462 29.597 123.62 29.667" stroke-width="0.13"/>
   <path d="M122.204 31.033C122.123 31.032 122.051 31.027 121.975 30.992C121.721 30.873 121.668 30.559 121.691 30.307C121.736 29.8 122.048 29.277 122.469 28.992C122.68 28.852 122.983 28.742 123.215 28.902C123.281 28.951 123.322 29.01 123.364 29.079" stroke-width="0.13"/>
   <path d="M125.992 36.386C125.93 36.716 125.516 36.795 125.236 36.807C125.156 36.805 125.135 36.807 125.058 36.796C124.808 36.765 124.46 36.64 124.456 36.343" stroke-width="0.13"/>
  </g>
  <g id="09_0694_0102_PART03_0">
   <desc>09_0694_0102_PART03_0</desc>
   <line stroke-width="0.3" x1="174.676" x2="174.639" y1="53.533" y2="53.485"/>
   <line stroke-width="0.13" x1="182.715" x2="182.707" y1="48.746" y2="48.737"/>
   <line stroke-width="0.13" x1="182.705" x2="182.706" y1="48.737" y2="48.737"/>
   <line stroke-width="0.13" x1="187.725" x2="187.653" y1="51.557" y2="51.799"/>
   <line stroke-width="0.13" x1="191.604" x2="191.61" y1="58.405" y2="58.414"/>
   <line stroke-width="0.3" x1="191.61" x2="191.614" y1="58.415" y2="58.426"/>
   <line stroke-width="0.3" x1="190.486" x2="190.462" y1="58.365" y2="58.386"/>
   <line stroke-width="0.3" x1="190.487" x2="190.462" y1="58.365" y2="58.386"/>
   <line stroke-width="0.13" x1="174.591" x2="174.525" y1="58.212" y2="58.252"/>
   <line stroke-width="0.3" x1="176.061" x2="176.01" y1="58.697" y2="58.682"/>
   <line stroke-width="0.3" x1="177.18" x2="177.174" y1="61.259" y2="61.277"/>
   <line stroke-width="0.3" x1="177.193" x2="177.187" y1="61.222" y2="61.24"/>
   <line stroke-width="0.3" x1="186.29" x2="186.284" y1="63.399" y2="63.381"/>
   <line stroke-width="0.3" x1="186.294" x2="186.295" y1="63.417" y2="63.433"/>
   <path d="M182.745 63.899C182.659 64.037 182.592 64.186 182.519 64.331C182.413 64.536 182.346 64.762 182.111 64.84C182.073 64.853 182.032 64.858 181.991 64.861C181.882 64.861 181.789 64.837 181.679 64.816C181.409 64.766 181.143 64.706 180.877 64.638C179.811 64.362 178.781 63.953 177.817 63.418C177.578 63.286 177.343 63.146 177.115 63C176.972 62.908 176.811 62.823 176.754 62.652C176.688 62.451 176.784 62.265 176.846 62.072L176.891 61.923L176.986 61.618" stroke-width="0.3"/>
   <path d="M176.979 61.646C176.991 61.594 176.986 61.619 176.991 61.567" stroke-width="0.3"/>
   <path d="M175.637 60.143C175.754 60.232 175.849 60.34 175.955 60.445L176.65 61.139L176.877 61.365" stroke-width="0.3"/>
   <path d="M176.973 61.509L176.931 61.429" stroke-width="0.3"/>
   <path d="M176.968 61.493L176.987 61.564" stroke-width="0.3"/>
   <path d="M176.935 61.435L176.866 61.353" stroke-width="0.3"/>
   <path d="M175.36 60.026C175.443 60.046 175.516 60.075 175.592 60.115" stroke-width="0.3"/>
   <path d="M173.599 59.417L173.698 59.582L173.795 59.746L173.835 59.799C174.008 60.014 174.288 59.985 174.536 59.993L174.925 60.003C175.074 60.009 175.219 60.003 175.366 60.027" stroke-width="0.3"/>
   <path d="M172.598 55.542C172.584 55.972 172.593 56.396 172.659 56.822C172.766 57.505 172.973 58.186 173.277 58.807C173.436 59.13 173.609 59.439 173.795 59.746" stroke-width="0.3"/>
   <path d="M172.599 55.514C172.622 55.368 172.687 55.24 172.741 55.1L172.919 54.637L173.034 54.338L173.067 54.274C173.247 53.939 173.677 53.914 174.002 53.85L174.473 53.762" stroke-width="0.3"/>
   <path d="M174.653 53.698L174.723 53.651" stroke-width="0.3"/>
   <path d="M173.881 52.34C173.871 52.381 173.861 52.42 173.862 52.463C173.871 52.689 174.049 52.829 174.189 52.987L174.437 53.261L174.651 53.499" stroke-width="0.3"/>
   <path d="M174.518 53.752C174.57 53.735 174.62 53.716 174.669 53.691" stroke-width="0.3"/>
   <path d="M175.239 52.426L175.117 52.722L174.877 53.313L174.756 53.609L174.745 53.625" stroke-width="0.3"/>
   <path d="M174.728 53.631C174.712 53.591 174.693 53.557 174.669 53.521" stroke-width="0.3"/>
   <path d="M174.756 53.612L174.716 53.655" stroke-width="0.3"/>
   <path d="M175.235 52.25L175.247 52.284" stroke-width="0.3"/>
   <path d="M173.877 52.36L173.891 52.305L174.007 52.006L174.183 51.548C174.213 51.469 174.274 51.262 174.344 51.158C174.401 51.073 174.435 51.046 174.514 50.96C174.682 50.777 174.861 50.606 175.05 50.444C175.616 49.956 176.264 49.57 176.951 49.28C177.26 49.149 177.578 49.036 177.901 48.944L178.092 48.893C178.229 48.856 178.35 48.813 178.491 48.835C178.659 48.86 178.788 48.963 178.925 49.057C179.125 49.192 179.318 49.332 179.52 49.465" stroke-width="0.3"/>
   <path d="M179.503 49.456C179.634 49.527 179.766 49.57 179.914 49.593" stroke-width="0.3"/>
   <path d="M179.909 49.593C180.046 49.603 180.18 49.594 180.318 49.588C180.593 49.581 180.87 49.573 181.145 49.567C181.379 49.563 181.627 49.588 181.859 49.534" stroke-width="0.3"/>
   <path d="M181.836 49.539L181.914 49.508" stroke-width="0.3"/>
   <path d="M181.913 49.506L182.05 49.253C182.147 49.073 182.227 48.862 182.427 48.771C182.592 48.697 182.752 48.746 182.924 48.777C183.14 48.819 183.358 48.863 183.573 48.917C184.581 49.164 185.564 49.536 186.485 50.018C186.812 50.191 187.131 50.377 187.441 50.576C187.605 50.682 187.769 50.768 187.824 50.969C187.87 51.137 187.805 51.29 187.758 51.45" stroke-width="0.3"/>
   <path d="M187.653 51.801L187.813 51.259" stroke-width="0.3"/>
   <path d="M187.647 51.756L187.657 51.817" stroke-width="0.3"/>
   <path d="M187.667 51.847C187.794 52.045 187.991 52.195 188.156 52.359C188.35 52.551 188.544 52.746 188.735 52.941C188.835 53.04 188.925 53.139 189.032 53.226" stroke-width="0.3"/>
   <path d="M189.024 53.22C189.147 53.305 189.274 53.365 189.419 53.404" stroke-width="0.3"/>
   <path d="M189.402 53.399C189.639 53.442 189.878 53.475 190.116 53.515C190.282 53.542 190.449 53.554 190.59 53.652C190.709 53.734 190.765 53.847 190.84 53.969C190.98 54.201 191.111 54.439 191.231 54.685C191.618 55.481 191.87 56.335 191.945 57.219C191.973 57.53 191.991 57.859 191.949 58.17" stroke-width="0.3"/>
   <path d="M191.426 59.457C191.534 59.328 191.563 59.195 191.628 59.027C191.728 58.77 191.849 58.491 191.935 58.226" stroke-width="0.3"/>
   <path d="M191.37 59.506C191.195 59.61 191.02 59.597 190.814 59.612L190.454 59.64L190.134 59.664" stroke-width="0.3"/>
   <path d="M186.352 64.748C186.701 64.655 187.049 64.555 187.387 64.427C188.094 64.156 188.762 63.789 189.354 63.317C189.566 63.149 189.77 62.97 189.955 62.776L190.17 62.54L190.219 62.475L190.251 62.414L190.366 62.115L190.54 61.659C190.606 61.488 190.701 61.311 190.697 61.121C190.689 60.886 190.556 60.713 190.425 60.529L190.153 60.145C190.068 60.027 189.987 59.929 189.931 59.798" stroke-width="0.3"/>
   <path d="M190.055 59.679L189.978 59.709" stroke-width="0.3"/>
   <path d="M189.914 59.719L189.936 59.804" stroke-width="0.3"/>
   <path d="M190.151 59.664L190.052 59.679" stroke-width="0.3"/>
   <path d="M189.932 59.74L189.985 59.704" stroke-width="0.3"/>
   <path d="M189.915 59.658L189.915 59.725" stroke-width="0.3"/>
   <path d="M185.974 64.694C186.104 64.759 186.235 64.78 186.377 64.74" stroke-width="0.3"/>
   <path d="M185.027 63.875C185.15 63.959 185.251 64.061 185.362 64.162C185.545 64.325 185.729 64.507 185.924 64.661" stroke-width="0.3"/>
   <path d="M184.748 63.771C184.85 63.792 184.941 63.826 185.031 63.877" stroke-width="0.3"/>
   <path d="M182.902 63.814C183.04 63.792 183.175 63.798 183.318 63.795L184.31 63.771C184.461 63.768 184.604 63.756 184.751 63.771" stroke-width="0.3"/>
   <path d="M182.784 63.86L182.741 63.904" stroke-width="0.3"/>
   <path d="M182.82 63.841L182.914 63.811" stroke-width="0.3"/>
   <path d="M182.77 63.874L182.841 63.832" stroke-width="0.3"/>
   <path d="M190.632 61.262C190.639 61.322 190.627 61.378 190.61 61.435" stroke-width="0.3"/>
   <path d="M190.51 60.932L190.549 60.996" stroke-width="0.3"/>
   <path d="M190.622 53.725L190.668 53.743" stroke-width="0.3"/>
   <path d="M187.647 51.79L187.686 51.875" stroke-width="0.3"/>
   <path d="M176.741 62.426C176.728 62.68 176.951 62.801 177.139 62.92C177.644 63.243 178.169 63.53 178.713 63.78C179.533 64.156 180.39 64.448 181.271 64.649L181.71 64.74C181.9 64.777 182.12 64.843 182.292 64.712C182.409 64.62 182.439 64.439 182.486 64.317C182.594 64.04 182.693 63.755 182.812 63.481" stroke-width="0.13"/>
   <path d="M177.193 61.222C177.211 61.171 177.221 61.115 177.263 61.078C177.354 60.996 177.508 61.003 177.622 61.023C177.637 61.024 177.723 61.042 177.736 61.049L178.092 61.279L178.275 61.387C179.334 62.02 180.489 62.493 181.687 62.786L181.899 62.834L182.111 62.881L182.324 62.921L182.538 62.962C182.552 62.966 182.629 63.014 182.643 63.023C182.739 63.088 182.854 63.189 182.867 63.311C182.873 63.362 182.848 63.401 182.829 63.445" stroke-width="0.13"/>
   <path d="M177.174 61.277C177.157 61.32 177.144 61.362 177.145 61.409C177.15 61.64 177.379 61.759 177.546 61.865L177.734 61.985L177.925 62.1L178.118 62.213C179.163 62.807 180.293 63.256 181.46 63.545L181.677 63.594L181.896 63.643L182.116 63.686C182.312 63.723 182.558 63.795 182.724 63.634C182.753 63.604 182.757 63.595 182.778 63.561" stroke-width="0.13"/>
   <path d="M182.703 63.959C182.734 63.921 182.748 63.872 182.786 63.84C182.865 63.768 182.96 63.735 183.067 63.731L183.387 63.725L184.377 63.701C184.582 63.697 184.788 63.664 184.979 63.756C185.123 63.826 185.248 63.965 185.36 64.064L185.645 64.319C185.817 64.472 185.965 64.644 186.198 64.683C186.343 64.707 186.467 64.664 186.609 64.626C186.862 64.558 187.111 64.48 187.358 64.388C188.169 64.09 188.931 63.667 189.586 63.103C189.763 62.951 189.929 62.789 190.086 62.618L190.204 62.49L190.23 62.454" stroke-width="0.13"/>
   <path d="M190.189 62.518L190.204 62.49L190.318 62.192L190.495 61.734L190.61 61.435L190.657 61.362" stroke-width="0.13"/>
   <path d="M190.549 60.996C190.596 61.079 190.618 61.168 190.632 61.262" stroke-width="0.13"/>
   <path d="M190.61 61.435C190.373 61.694 190.131 61.942 189.859 62.162C189.235 62.671 188.518 63.057 187.764 63.334C187.518 63.424 187.269 63.503 187.015 63.57C186.906 63.6 186.82 63.628 186.712 63.637C186.551 63.631 186.415 63.581 186.29 63.478" stroke-width="0.13"/>
   <path d="M186.234 63.295C186.336 63.171 186.455 63.063 186.58 62.963C186.616 62.933 186.669 62.878 186.711 62.863L187.08 62.767C187.32 62.698 187.561 62.618 187.794 62.526C188.46 62.265 189.093 61.911 189.646 61.457C189.862 61.279 190.066 61.085 190.253 60.877L190.366 60.753L190.408 60.735C190.449 60.719 190.519 60.688 190.56 60.719" stroke-width="0.13"/>
   <path d="M190.51 60.932C190.467 60.868 190.413 60.814 190.366 60.753L190.088 60.36L189.814 59.981C189.756 59.898 189.711 59.811 189.671 59.716C189.616 59.585 189.599 59.423 189.633 59.283L189.657 59.207L189.778 58.911L189.788 58.887L189.909 58.59L190.027 58.301C190.092 58.143 190.143 57.948 190.28 57.829C190.472 57.661 190.725 57.679 190.965 57.689L191.389 57.713L191.604 57.726C191.629 57.729 191.712 57.767 191.735 57.779C191.86 57.844 191.945 57.941 191.96 58.082" stroke-width="0.13"/>
   <path d="M191.92 58.268C191.855 58.393 191.747 58.444 191.61 58.462" stroke-width="0.13"/>
   <path d="M190.487 58.365C190.615 58.298 190.765 58.332 190.902 58.338L191.318 58.36C191.336 58.362 191.534 58.347 191.594 58.396" stroke-width="0.13"/>
   <path d="M191.526 58.372C191.612 58.228 191.645 58.057 191.633 57.887C191.628 57.835 191.605 57.779 191.604 57.726L191.616 57.39C191.621 56.398 191.354 55.417 190.919 54.53C190.81 54.302 190.688 54.084 190.556 53.868L190.456 53.706C190.42 53.64 190.419 53.576 190.337 53.551" stroke-width="0.13"/>
   <path d="M187.626 50.695L187.612 50.695C187.478 50.761 187.474 50.93 187.436 51.06L187.35 51.34L187.336 51.408C187.295 51.75 187.617 52.011 187.83 52.219C188.066 52.453 188.3 52.686 188.534 52.923L188.759 53.151L188.834 53.219C188.991 53.357 189.182 53.46 189.383 53.521C189.586 53.584 189.805 53.598 190.014 53.631L190.456 53.706C190.514 53.713 190.564 53.71 190.622 53.725" stroke-width="0.13"/>
   <path d="M190.668 53.743C190.697 53.756 190.712 53.776 190.735 53.798" stroke-width="0.13"/>
   <path d="M187.806 51.283C187.852 51.124 187.796 50.972 187.669 50.865C187.622 50.826 187.572 50.807 187.52 50.776L187.165 50.546L186.799 50.329C185.854 49.786 184.836 49.372 183.782 49.095C183.501 49.021 183.218 48.957 182.932 48.905C182.806 48.881 182.674 48.84 182.544 48.826C182.396 48.829 182.277 48.874 182.191 48.996" stroke-width="0.13"/>
   <path d="M182.186 49.012L182.169 49.039L182.032 49.29" stroke-width="0.13"/>
   <path d="M181.913 49.506C182.04 49.329 182.248 49.32 182.441 49.384" stroke-width="0.13"/>
   <path d="M178.282 48.841C178.403 48.834 178.456 48.896 178.545 48.962L178.729 49.085C178.937 49.226 179.137 49.386 179.353 49.515C179.556 49.636 179.81 49.719 180.049 49.72L180.151 49.722L180.471 49.713L180.675 49.707L180.996 49.698L181.316 49.692L181.478 49.689C181.64 49.686 181.824 49.695 181.987 49.664C182.143 49.636 182.305 49.57 182.403 49.442L182.441 49.384L182.581 49.121C182.673 48.951 182.735 48.914 182.719 48.762" stroke-width="0.13"/>
   <path d="M174.506 51.595C174.538 51.43 174.629 51.286 174.753 51.173C174.794 51.134 174.852 51.109 174.891 51.072L175.116 50.826C175.813 50.101 176.699 49.578 177.639 49.235C177.877 49.149 178.116 49.075 178.361 49.011L178.545 48.962C178.617 48.939 178.662 48.899 178.739 48.93" stroke-width="0.13"/>
   <path d="M174.299 51.249C174.257 51.381 174.3 51.494 174.385 51.601" stroke-width="0.13"/>
   <path d="M173.975 52.749C173.962 52.716 173.967 52.689 173.979 52.656L174.093 52.357L174.27 51.901L174.385 51.601C174.394 51.581 174.407 51.57 174.427 51.566" stroke-width="0.13"/>
   <path d="M174.453 51.567C174.53 51.59 174.628 51.7 174.662 51.728L174.973 51.996C175.048 52.06 175.187 52.149 175.235 52.25" stroke-width="0.13"/>
   <path d="M175.239 52.426C175.332 52.237 175.55 52.229 175.733 52.273" stroke-width="0.13"/>
   <path d="M174.704 51.006C174.764 51.02 174.841 51.033 174.891 51.072L175.216 51.344L175.53 51.616C175.576 51.659 175.616 51.7 175.652 51.752C175.745 51.88 175.793 52.042 175.756 52.198L175.733 52.273L175.611 52.569L175.366 53.17C175.311 53.304 175.258 53.484 175.162 53.606C174.963 53.854 174.653 53.905 174.36 53.96C174.125 54.005 173.889 54.06 173.653 54.098L173.497 54.112C173.381 54.133 173.252 54.173 173.161 54.249C173.002 54.378 172.975 54.527 172.899 54.728L172.723 55.185L172.608 55.484L172.599 55.512" stroke-width="0.13"/>
   <path d="M176.986 61.618C177.044 61.362 176.805 61.198 176.645 61.039L175.951 60.347C175.806 60.201 175.68 60.037 175.479 59.972C175.325 59.923 175.139 59.938 174.987 59.933L174.599 59.921C174.373 59.915 174.15 59.938 173.954 59.808C173.828 59.725 173.771 59.612 173.693 59.482C173.558 59.259 173.435 59.033 173.32 58.798C172.947 58.03 172.695 57.201 172.622 56.347C172.602 56.116 172.594 55.887 172.602 55.655L172.608 55.484L172.614 55.439" stroke-width="0.13"/>
   <path d="M176.061 58.697C176.23 58.755 176.336 58.899 176.462 59.023L176.582 59.14L176.811 59.365L177.036 59.593L177.157 59.715C177.306 59.865 177.507 60.006 177.495 60.24C177.492 60.276 177.485 60.32 177.473 60.353L177.359 60.652L177.102 61.319L176.986 61.618" stroke-width="0.13"/>
   <path d="M174.774 58.783C174.872 58.746 174.992 58.75 175.087 58.74L175.324 58.718L175.795 58.679C175.87 58.671 175.937 58.667 176.01 58.682" stroke-width="0.13"/>
   <path d="M175.762 58.031C175.788 58.183 175.802 58.338 175.804 58.493C175.805 58.546 175.813 58.625 175.795 58.679L175.681 58.976L175.424 59.643L175.308 59.942C175.296 59.973 175.281 60.009 175.245 60.014" stroke-width="0.13"/>
   <path d="M174.591 58.212C174.651 58.18 174.73 58.131 174.8 58.121L175.289 58.072C175.48 58.054 175.676 58.024 175.868 58.027C176.114 58.031 176.361 58.11 176.555 58.262L176.631 58.329L176.859 58.554L176.984 58.676L177.211 58.902L177.437 59.128L177.563 59.256C177.748 59.444 177.963 59.624 178.013 59.896C178.056 60.137 177.969 60.332 177.895 60.563L177.836 60.744L177.736 61.049L177.697 61.109L177.616 61.237C177.55 61.347 177.49 61.46 177.433 61.576C177.29 61.874 177.187 62.195 177.068 62.503L176.953 62.801C176.943 62.826 176.925 62.865 176.943 62.889" stroke-width="0.13"/>
   <path d="M177.223 61.13L177.322 60.826L177.376 60.658L177.473 60.353L177.49 60.323C177.596 60.174 177.848 60.219 177.993 60.259" stroke-width="0.13"/>
   <path d="M176.741 62.421L176.751 62.378L176.866 62.079L177.042 61.621L177.157 61.323" stroke-width="0.13"/>
   <path d="M176.866 61.353C176.855 61.323 176.86 61.295 176.872 61.265L176.987 60.966L177.266 60.24L177.382 59.942L177.401 59.902C177.489 59.731 177.635 59.594 177.789 59.484" stroke-width="0.13"/>
   <path d="M176.631 58.329C176.478 58.439 176.332 58.582 176.252 58.756L176.235 58.798L176.12 59.095L175.84 59.822L175.724 60.121L175.716 60.148C175.71 60.176 175.71 60.198 175.729 60.219" stroke-width="0.13"/>
   <path d="M174.3 58.442C174.366 58.368 174.439 58.302 174.525 58.252" stroke-width="0.13"/>
   <path d="M173.034 54.338C173.006 54.429 173.012 54.497 173.008 54.6C173.002 54.832 173.008 55.061 173.027 55.292C173.108 56.209 173.39 57.1 173.811 57.917C173.901 58.091 173.998 58.261 174.099 58.427L174.203 58.597L174.234 58.64C174.346 58.779 174.514 58.844 174.687 58.857" stroke-width="0.13"/>
   <path d="M174.741 58.799C174.633 58.872 174.604 59.072 174.572 59.156L174.395 59.613L174.28 59.912C174.268 59.944 174.252 59.981 174.216 59.984" stroke-width="0.13"/>
   <path d="M173.545 53.942C173.593 53.951 173.618 54.018 173.637 54.057L173.653 54.098L173.647 54.267C173.638 54.546 173.646 54.829 173.677 55.107C173.757 55.805 173.962 56.491 174.256 57.128C174.36 57.356 174.475 57.578 174.6 57.793L174.8 58.121C174.822 58.162 174.82 58.241 174.826 58.287C174.847 58.445 174.86 58.604 174.852 58.764" stroke-width="0.13"/>
   <path d="M173.796 59.746C173.748 59.636 173.902 59.375 173.911 59.353L174.087 58.896L174.203 58.597" stroke-width="0.13"/>
   <path d="M174.588 53.918C174.567 53.868 174.538 53.771 174.473 53.762" stroke-width="0.13"/>
   <path d="M173.877 52.36C173.848 52.585 174.062 52.75 174.193 52.895L174.429 53.158L174.643 53.396C174.695 53.456 174.746 53.536 174.747 53.619" stroke-width="0.13"/>
   <path d="M174.774 53.572C174.889 53.423 175.076 53.426 175.245 53.466" stroke-width="0.13"/>
   <path d="M174.639 53.485C174.627 53.454 174.631 53.426 174.643 53.396L174.758 53.097L175.014 52.429L175.129 52.131C175.146 52.085 175.156 52.037 175.177 51.991C175.254 51.834 175.381 51.707 175.53 51.616" stroke-width="0.13"/>
   <path d="M175.239 52.426C175.254 52.377 175.26 52.335 175.247 52.284" stroke-width="0.13"/>
   <path d="M174.644 50.999L174.637 50.999C174.561 51 174.503 51.012 174.437 51.052" stroke-width="0.13"/>
   <path d="M176.474 49.773C177.09 50.231 177.694 50.703 178.277 51.203C178.883 51.722 179.461 52.267 180.032 52.823" stroke-width="0.13"/>
   <path d="M180.474 52.612C180.722 52.524 180.966 52.451 181.225 52.406C182.538 52.185 183.945 52.57 185.027 53.326C185.477 53.642 185.879 54.029 186.189 54.484C186.378 54.761 186.532 55.063 186.633 55.383C186.727 55.676 186.772 55.987 186.76 56.295C186.752 56.517 186.711 56.734 186.64 56.945C186.573 57.149 186.472 57.347 186.348 57.523C185.877 58.191 185.099 58.564 184.31 58.697C184.039 58.743 183.771 58.753 183.498 58.756C183.112 58.738 182.735 58.7 182.359 58.609C181.258 58.344 180.205 57.731 179.501 56.832C178.917 56.085 178.581 55.09 178.895 54.158C178.941 54.02 179.001 53.89 179.074 53.762C179.182 53.57 179.322 53.393 179.479 53.237C179.768 52.956 180.109 52.77 180.474 52.612z" stroke-width="0.13"/>
   <path d="M188.782 62.052C188.265 61.384 187.74 60.726 187.186 60.09C186.645 59.468 186.08 58.869 185.503 58.28" stroke-width="0.13"/>
   <path d="M179.266 49.459C179.329 49.424 179.389 49.396 179.457 49.423" stroke-width="0.13"/>
   <path d="M180.042 49.597C180.104 49.606 180.128 49.67 180.151 49.722" stroke-width="0.13"/>
   <path d="M181.682 49.558C181.747 49.567 181.774 49.628 181.798 49.682" stroke-width="0.13"/>
   <path d="M187.35 51.34C187.536 51.426 187.68 51.576 187.656 51.792" stroke-width="0.13"/>
   <path d="M187.776 51.985C187.752 51.969 187.737 51.966 187.709 51.963C187.669 51.969 187.638 51.979 187.602 51.994" stroke-width="0.13"/>
   <path d="M188.759 53.151C188.814 53.128 188.877 53.1 188.931 53.137" stroke-width="0.13"/>
   <path d="M189.584 53.567C189.562 53.5 189.54 53.435 189.469 53.411" stroke-width="0.13"/>
   <path d="M191.133 59.588C191.173 59.582 191.191 59.551 191.205 59.517L191.319 59.218L191.496 58.761L191.61 58.462L191.614 58.426" stroke-width="0.13"/>
   <path d="M191.492 59.365C191.348 59.554 191.098 59.524 190.885 59.542L190.526 59.57L190.206 59.594C190.091 59.603 189.991 59.651 189.919 59.744" stroke-width="0.13"/>
   <path d="M190.015 59.953C189.997 59.938 189.985 59.938 189.961 59.936C189.909 59.944 189.864 59.962 189.814 59.981" stroke-width="0.13"/>
   <path d="M189.918 59.734L190.032 59.435L190.292 58.765C190.367 58.567 190.491 58.392 190.36 58.198C190.341 58.167 190.317 58.14 190.29 58.115C190.247 58.073 190.199 58.042 190.146 58.012" stroke-width="0.13"/>
   <path d="M190.462 58.386C190.373 58.46 190.296 58.734 190.284 58.762L190.044 59.353L189.923 59.649" stroke-width="0.13"/>
   <path d="M189.923 59.649C189.978 59.448 189.817 59.298 189.657 59.207" stroke-width="0.13"/>
   <path d="M190.757 57.68C190.8 57.847 190.805 58.021 190.756 58.188C190.741 58.24 190.713 58.28 190.694 58.329L190.579 58.628L190.323 59.295L190.206 59.594C190.194 59.625 190.181 59.648 190.151 59.664" stroke-width="0.13"/>
   <path d="M182.495 63.174C182.506 63.127 182.516 63.078 182.525 63.029L182.538 62.962L182.679 62.673L182.763 62.502L182.903 62.213C183.02 61.987 183.243 61.841 183.493 61.804L183.593 61.795L183.913 61.786L184.079 61.781L184.399 61.771L184.718 61.767L184.92 61.762C185.218 61.758 185.466 61.741 185.735 61.878C185.945 61.985 186.08 62.143 186.235 62.317C186.394 62.496 186.566 62.673 186.711 62.863C186.754 62.92 186.776 63.008 186.8 63.073C186.853 63.226 186.878 63.408 186.84 63.569L186.823 63.622L186.707 63.921L186.532 64.379C186.526 64.394 186.461 64.703 186.349 64.748" stroke-width="0.13"/>
   <path d="M182.396 63.545C182.425 63.448 182.454 63.35 182.478 63.25" stroke-width="0.13"/>
   <path d="M182.335 63.728L182.219 64.027L182.044 64.483L181.929 64.783C181.919 64.807 181.907 64.846 181.879 64.855" stroke-width="0.13"/>
   <path d="M182.903 62.213C183.038 62.286 183.253 62.427 183.231 62.61L183.223 62.643L183.109 62.942L182.852 63.609L182.736 63.906" stroke-width="0.13"/>
   <path d="M183.348 62.49C183.493 62.371 183.734 62.405 183.896 62.399C184.227 62.39 184.556 62.383 184.888 62.377C185.068 62.374 185.24 62.341 185.405 62.417" stroke-width="0.13"/>
   <path d="M185.123 63.948C185.099 63.92 185.11 63.883 185.122 63.851L185.237 63.552L185.495 62.886L185.61 62.587C185.633 62.533 185.695 62.478 185.735 62.438C185.84 62.328 185.955 62.228 186.078 62.14" stroke-width="0.13"/>
   <path d="M185.45 62.442C185.515 62.481 185.561 62.53 185.61 62.587L185.924 62.939L186.079 63.118C186.138 63.185 186.247 63.28 186.284 63.381" stroke-width="0.13"/>
   <path d="M186.295 63.433C186.298 63.448 186.295 63.465 186.29 63.478L186.175 63.777L186 64.234L185.884 64.534C185.872 64.566 185.861 64.6 185.884 64.629" stroke-width="0.13"/>
   <path d="M185.241 61.758C185.274 61.944 185.281 62.146 185.223 62.328L185.207 62.371L185.092 62.67L184.812 63.395L184.698 63.694L184.687 63.719C184.673 63.744 184.657 63.762 184.629 63.765" stroke-width="0.13"/>
   <path d="M182.998 63.802C183.026 63.799 183.042 63.783 183.055 63.758L183.067 63.731L183.181 63.432L183.461 62.707L183.576 62.408L183.59 62.368C183.639 62.182 183.627 61.981 183.593 61.795" stroke-width="0.13"/>
   <path d="M182.861 63.375L183.003 63.088L183.081 62.929C183.144 62.804 183.194 62.671 183.277 62.558" stroke-width="0.13"/>
   <path d="M190.252 62.406L190.233 62.451" stroke-width="0.13"/>
   <path d="M191.604 58.405L191.594 58.396z" stroke-width="0.3"/>
   <path d="M174.437 51.052C174.407 51.07 174.389 51.1 174.368 51.127" stroke-width="0.13"/>
   <path d="M174.644 50.999L174.704 51.006" stroke-width="0.13"/>
   <path d="M174.453 51.567L174.439 51.566L174.427 51.566" stroke-width="0.3"/>
   <path d="M174.3 58.442C174.258 58.487 174.229 58.54 174.203 58.597" stroke-width="0.13"/>
   <path d="M174.774 58.783L174.741 58.799" stroke-width="0.3"/>
   <path d="M182.396 63.545C182.378 63.607 182.358 63.667 182.335 63.728" stroke-width="0.3"/>
   <path d="M182.495 63.174L182.478 63.25" stroke-width="0.3"/>
   <path d="M182.829 63.445L182.812 63.481" stroke-width="0.3"/>
   <path d="M183.348 62.49C183.316 62.518 183.307 62.526 183.277 62.558" stroke-width="0.3"/>
   <path d="M185.45 62.442L185.405 62.417" stroke-width="0.3"/>
   <path d="M182.719 48.762L182.715 48.746" stroke-width="0.13"/>
  </g>
  <g id="09_0694_0102_PART02_0_1">
   <desc>09_0694_0102_PART02_0</desc>
   <line stroke-width="0.13" x1="91.358" x2="84.466" y1="41.561" y2="45.539"/>
   <line stroke-width="0.13" x1="99.216" x2="90.162" y1="38.112" y2="43.34"/>
   <line stroke-width="0.13" x1="107.293" x2="98.237" y1="39.256" y2="44.482"/>
   <line stroke-width="0.13" x1="152.566" x2="143.512" y1="65.394" y2="70.621"/>
   <line stroke-width="0.13" x1="164.789" x2="155.735" y1="86.566" y2="91.793"/>
   <line stroke-width="0.13" x1="164.789" x2="155.735" y1="138.842" y2="144.07"/>
   <line stroke-width="0.3" x1="102.766" x2="102.766" y1="37.521" y2="36.38"/>
   <line stroke-width="0.3" x1="101.859" x2="102.766" y1="35.857" y2="36.38"/>
   <line stroke-width="0.13" x1="95.296" x2="95.296" y1="39.832" y2="38.601"/>
   <line stroke-width="0.13" x1="89.862" x2="89.862" y1="35.465" y2="41.981"/>
   <line stroke-width="0.13" x1="88.052" x2="88.052" y1="35.465" y2="43.027"/>
   <line stroke-width="0.3" x1="91.78" x2="84.171" y1="40.875" y2="45.267"/>
   <line stroke-width="0.13" x1="80.129" x2="80.129" y1="50.759" y2="49.45"/>
   <line stroke-width="0.13" x1="79.224" x2="80.129" y1="48.926" y2="49.45"/>
   <line stroke-width="0.13" x1="83.977" x2="83.977" y1="47.228" y2="48.368"/>
   <line stroke-width="0.3" x1="79.224" x2="79.224" y1="51.893" y2="48.926"/>
   <line stroke-width="0.13" x1="83.072" x2="83.072" y1="46.704" y2="45.658"/>
   <line stroke-width="0.13" x1="102.766" x2="100.394" y1="36.38" y2="37.749"/>
   <line stroke-width="0.13" x1="78.543" x2="78.543" y1="40.954" y2="42"/>
   <line stroke-width="0.13" x1="143.284" x2="142.379" y1="159.622" y2="159.1"/>
   <line stroke-width="0.13" x1="152.793" x2="150.247" y1="154.133" y2="152.664"/>
   <line stroke-width="0.13" x1="153.698" x2="152.421" y1="152.566" y2="151.829"/>
   <line stroke-width="0.13" x1="151.585" x2="151.337" y1="150.834" y2="150.957"/>
   <path d="M147.878 152.955C148.606 152.877 149.341 152.825 150.062 152.698L150.318 152.652L150.633 152.597L150.937 152.497L151.156 152.425L151.461 152.325L151.747 152.181C152.004 152.052 152.258 151.924 152.508 151.778L161.008 146.872L161.286 146.711L161.548 146.527L161.729 146.399L161.991 146.215L162.223 145.995L162.395 145.83L162.627 145.61L162.825 145.36L162.989 145.153L163.187 144.903L163.353 144.628L163.669 144.098L163.8 143.806L164.068 143.201L164.167 142.896L164.284 142.526L164.383 142.221L164.449 141.907L164.542 141.474L164.608 141.162L164.646 140.843L164.705 140.354C164.778 139.748 164.789 139.133 164.789 138.522L164.789 86.885C164.789 86.463 164.77 86.043 164.754 85.621L164.742 85.302L164.709 84.983L164.638 84.322L164.604 84.004L164.549 83.688L164.426 82.983C164.311 82.314 164.152 81.65 163.96 81.001L163.734 80.24L163.643 79.935C163.491 79.472 163.325 79.012 163.151 78.558C162.792 77.635 162.379 76.721 161.929 75.84L161.776 75.56L161.362 74.799C161.02 74.173 160.646 73.558 160.243 72.969C159.961 72.557 159.687 72.141 159.384 71.742L158.875 71.072L158.681 70.816C158.079 70.069 157.431 69.341 156.751 68.662L156.518 68.444C156.177 68.123 155.847 67.799 155.487 67.5C155.139 67.209 154.8 66.915 154.433 66.647L153.895 66.256L153.638 66.066L153.366 65.897C153.008 65.671 152.655 65.444 152.288 65.233L107.569 39.415C107.248 39.229 106.921 39.057 106.591 38.884L106.308 38.734L106.016 38.604L105.632 38.438L105.34 38.308L105.037 38.204L104.683 38.085L104.382 37.981L103.748 37.826L103.438 37.75L103.12 37.704L102.84 37.665L102.522 37.621C102.23 37.594 101.927 37.601 101.635 37.591L101.316 37.618L101.105 37.637L100.787 37.664L100.474 37.731L100.295 37.771L99.981 37.838L99.68 37.945C99.424 38.037 99.174 38.131 98.924 38.24L91.652 41.432L91.358 41.561" stroke-width="0.3"/>
   <path d="M152.23 151.939L152.492 151.754L152.675 151.627L152.937 151.443L153.169 151.222L153.341 151.058L153.573 150.837L153.771 150.586L153.935 150.382L154.133 150.131L154.298 149.856L154.615 149.325L154.745 149.033L155.014 148.43L155.111 148.125L155.23 147.752L155.328 147.448L155.395 147.134L155.486 146.703L155.554 146.389L155.592 146.072L155.651 145.582L155.688 145.264L155.701 144.944C155.717 144.545 155.735 144.15 155.735 143.751L155.735 92.114C155.735 91.691 155.716 91.272 155.699 90.849L155.687 90.528L155.653 90.21L155.582 89.549C155.534 89.099 155.449 88.658 155.372 88.209C155.292 87.75 155.177 87.302 155.069 86.846L154.997 86.534C154.748 85.606 154.443 84.682 154.096 83.787L153.972 83.49L153.646 82.713C153.454 82.253 153.229 81.808 153.013 81.356C152.704 80.713 152.36 80.081 151.987 79.472L151.537 78.734L151.37 78.462C150.831 77.631 150.247 76.816 149.626 76.045C149.322 75.665 149.006 75.293 148.681 74.93L148.461 74.698L147.917 74.123C147.45 73.632 146.954 73.162 146.432 72.727L145.883 72.269L145.638 72.063L145.378 71.876L144.842 71.483L144.582 71.295L144.312 71.125C143.954 70.9 143.599 70.673 143.234 70.462L98.516 44.643C98.194 44.457 97.865 44.286 97.537 44.11L97.254 43.962L96.96 43.832L96.578 43.664L96.284 43.536L95.981 43.432L95.629 43.313L95.326 43.209L94.694 43.054L94.382 42.978L94.066 42.932L93.786 42.893L93.468 42.848C93.176 42.823 92.873 42.829 92.581 42.82L92.262 42.847L92.051 42.865L91.733 42.892L91.42 42.96L91.239 42.997L90.927 43.066L90.626 43.173C90.37 43.265 90.118 43.359 89.868 43.468L84.912 45.643L84.62 45.771" stroke-width="0.13"/>
   <path d="M77.864 108.004C77.626 107.046 77.435 106.072 77.283 105.096L77.239 104.78L77.159 104.194C77.031 103.268 76.945 102.331 76.909 101.396C76.89 100.929 76.888 100.459 76.888 99.99L76.894 41.692C76.894 41.459 76.87 41.369 76.947 41.162C77.112 40.722 77.533 40.493 77.915 40.271L86.868 35.103C87.147 34.942 87.424 34.786 87.73 34.689C88.126 34.566 88.543 34.512 88.956 34.512C89.37 34.512 89.787 34.566 90.183 34.689C90.49 34.786 90.766 34.942 91.045 35.103L95.924 37.918C96.043 37.987 96.218 38.097 96.356 38.155C96.531 38.228 96.718 38.27 96.906 38.286C97.224 38.316 97.56 38.28 97.855 38.155C97.995 38.097 98.17 37.987 98.289 37.918L101.582 36.018L101.859 35.857" stroke-width="0.3"/>
   <path d="M92.643 40.996C92.516 40.912 92.376 40.845 92.225 40.816L92.063 40.801C91.865 40.826 91.959 40.801 91.78 40.875" stroke-width="0.13"/>
   <path d="M84.721 47.939L84.721 47.618L84.721 46.398L84.721 46.076C84.697 45.85 84.567 45.637 84.415 45.473C84.212 45.259 83.953 45.121 83.7 44.976L78.822 42.159C78.612 42.039 78.356 41.926 78.231 41.704C78.177 41.606 78.183 41.585 78.17 41.476" stroke-width="0.3"/>
   <path d="M84.721 46.286C84.671 46.481 84.679 46.524 84.566 46.698C84.358 47.021 84.022 47.201 83.7 47.387L80.406 49.289L80.129 49.45" stroke-width="0.13"/>
   <path d="M83.447 46.182C83.432 46.289 83.438 46.311 83.384 46.409C83.26 46.631 83.003 46.744 82.795 46.865L79.501 48.767L79.224 48.926" stroke-width="0.3"/>
   <path d="M141.473 159.622L141.197 159.462L96.477 133.645C95.977 133.355 95.475 133.06 94.99 132.743C94.436 132.382 93.896 131.995 93.37 131.59" stroke-width="0.13"/>
   <path d="M96.751 134.668C96.605 134.567 96.563 134.555 96.456 134.407C96.201 134.062 96.2 133.633 96.2 133.223" stroke-width="0.13"/>
   <path d="M77.864 104.73C77.777 104.061 77.709 103.388 77.673 102.715C77.643 102.15 77.638 101.581 77.638 101.013L77.638 42.843L77.638 42.523" stroke-width="0.13"/>
   <path d="M76.888 100.311C76.912 100.486 76.905 100.524 76.983 100.686C77.162 101.06 77.521 101.266 77.864 101.465" stroke-width="0.13"/>
   <path d="M154.604 150.569L154.604 150.889L154.604 151.723C154.604 151.985 154.61 152.094 154.584 152.354C154.556 152.634 154.474 152.912 154.377 153.174C154.151 153.783 153.784 154.358 153.304 154.8C153.066 155.018 152.793 155.179 152.514 155.34L143.562 160.508C143.31 160.655 143.062 160.811 142.774 160.878L142.531 160.913C142.354 160.905 142.263 160.917 142.098 160.842L141.82 160.681L97.028 134.828C96.609 134.586 96.191 134.343 95.783 134.086C94.992 133.587 94.222 133.044 93.484 132.472L93.018 132.109L92.765 131.912C91.995 131.293 91.248 130.639 90.537 129.954" stroke-width="0.3"/>
   <path d="M83.447 46.182C83.432 46.073 83.438 46.052 83.384 45.954C83.26 45.731 83.003 45.619 82.795 45.499L77.915 42.682C77.593 42.496 77.257 42.316 77.049 41.993C76.936 41.819 76.944 41.777 76.894 41.582" stroke-width="0.13"/>
   <path d="M97.123 39.03C96.757 39.03 96.4 38.99 96.046 38.898C95.888 38.856 95.724 38.81 95.575 38.74C95.335 38.633 95.245 38.573 95.018 38.442L90.14 35.625C90.021 35.557 89.846 35.447 89.706 35.389C89.465 35.287 89.215 35.261 88.956 35.249C88.698 35.261 88.448 35.287 88.207 35.389C88.069 35.447 87.894 35.557 87.775 35.625L78.822 40.793C78.612 40.914 78.356 41.027 78.231 41.249C78.177 41.347 78.183 41.369 78.17 41.476" stroke-width="0.13"/>
   <path d="M153.698 151.092L153.698 151.413L153.698 152.246C153.698 152.473 153.707 152.693 153.652 152.915C153.562 153.293 153.354 153.652 153.073 153.92C152.907 154.079 152.712 154.181 152.514 154.294L143.562 159.462C143.389 159.562 143.205 159.693 143.003 159.734L142.872 159.747C142.713 159.725 142.789 159.746 142.645 159.687" stroke-width="0.13"/>
   <path d="M141.917 160.737C141.771 160.598 141.733 160.582 141.639 160.399C141.462 160.056 141.473 159.676 141.473 159.302L141.473 156.854L141.473 156.533" stroke-width="0.13"/>
   <path d="M142.645 159.687C142.558 159.62 142.536 159.616 142.479 159.519C142.348 159.3 142.379 159.021 142.379 158.781L142.379 156.449L142.379 156.129" stroke-width="0.3"/>
   <path d="M151.585 150.834L151.847 150.65L151.977 150.557L152.239 150.373L152.471 150.152L152.594 150.034L152.826 149.813L153.026 149.562L153.147 149.409L153.347 149.159L153.51 148.884L153.627 148.688L153.793 148.413L153.923 148.122L154.032 147.877L154.162 147.584L154.259 147.278L154.453 146.675L154.519 146.361L154.594 146.008L154.662 145.694L154.699 145.377L154.748 144.972L154.787 144.653L154.8 144.334C154.813 143.965 154.83 143.598 154.83 143.228L154.83 91.59C154.83 91.2 154.812 90.811 154.798 90.42L154.786 90.099L154.752 89.781L154.691 89.216C154.646 88.799 154.568 88.391 154.497 87.975C154.406 87.447 154.283 86.92 154.145 86.402C153.917 85.542 153.633 84.686 153.312 83.856L153.187 83.561L152.905 82.885C152.725 82.457 152.52 82.046 152.319 81.629C152.026 81.019 151.7 80.42 151.348 79.843L150.955 79.2L150.788 78.927C150.289 78.156 149.747 77.403 149.173 76.688C148.891 76.337 148.598 75.992 148.298 75.656L148.078 75.424L147.605 74.927C147.164 74.459 146.692 74.013 146.199 73.602L145.725 73.207L145.479 73.003L145.221 72.813L144.762 72.478L144.503 72.29L144.233 72.12C143.901 71.912 143.573 71.703 143.234 71.507L98.516 45.689C98.18 45.496 97.84 45.32 97.498 45.14L97.215 44.991L96.918 44.868L96.501 44.692L96.206 44.567L95.902 44.472L95.518 44.353L95.212 44.258L94.899 44.195L94.555 44.125L94.242 44.063L93.923 44.037L93.304 43.987L92.984 44.003L92.725 44.015L92.406 44.03L92.091 44.09L91.873 44.131L91.56 44.191L91.257 44.295L91.063 44.365L90.76 44.469L90.468 44.598L85.013 46.991L84.721 47.121" stroke-width="0.3"/>
  </g>
  <g id="09_0694_0102_PART02_0">
   <desc>09_0694_0102_PART02_0</desc>
   <line stroke-width="0.13" x1="145.687" x2="138.794" y1="10.195" y2="14.173"/>
   <line stroke-width="0.13" x1="153.544" x2="144.49" y1="6.746" y2="11.973"/>
   <line stroke-width="0.13" x1="161.621" x2="152.566" y1="7.889" y2="13.117"/>
   <line stroke-width="0.13" x1="206.894" x2="197.838" y1="34.027" y2="39.256"/>
   <line stroke-width="0.13" x1="219.117" x2="210.062" y1="55.2" y2="60.427"/>
   <line stroke-width="0.13" x1="219.117" x2="210.062" y1="107.477" y2="112.704"/>
   <line stroke-width="0.3" x1="157.093" x2="157.093" y1="6.155" y2="5.014"/>
   <line stroke-width="0.3" x1="156.187" x2="157.093" y1="4.49" y2="5.014"/>
   <line stroke-width="0.13" x1="149.622" x2="149.622" y1="8.467" y2="7.235"/>
   <line stroke-width="0.13" x1="144.191" x2="144.191" y1="4.099" y2="10.615"/>
   <line stroke-width="0.13" x1="142.379" x2="142.379" y1="4.099" y2="11.66"/>
   <line stroke-width="0.3" x1="146.108" x2="138.5" y1="9.507" y2="13.9"/>
   <line stroke-width="0.13" x1="134.456" x2="134.456" y1="19.224" y2="18.082"/>
   <line stroke-width="0.13" x1="133.55" x2="134.456" y1="17.561" y2="18.082"/>
   <line stroke-width="0.13" x1="138.305" x2="138.305" y1="15.862" y2="17.003"/>
   <line stroke-width="0.3" x1="133.55" x2="133.55" y1="19.746" y2="17.561"/>
   <line stroke-width="0.13" x1="137.4" x2="137.4" y1="15.339" y2="14.292"/>
   <line stroke-width="0.13" x1="195.801" x2="193.229" y1="128.257" y2="126.772"/>
   <line stroke-width="0.13" x1="131.967" x2="131.967" y1="20.661" y2="11.157"/>
   <line stroke-width="0.13" x1="157.093" x2="154.723" y1="5.014" y2="6.383"/>
   <line stroke-width="0.13" x1="132.872" x2="132.872" y1="9.587" y2="10.634"/>
   <line stroke-width="0.13" x1="197.612" x2="196.707" y1="128.257" y2="127.733"/>
   <line stroke-width="0.13" x1="207.12" x2="204.575" y1="122.768" y2="121.299"/>
   <line stroke-width="0.13" x1="208.026" x2="206.75" y1="121.2" y2="120.462"/>
   <line stroke-width="0.13" x1="205.913" x2="205.664" y1="119.468" y2="119.591"/>
   <path d="M202.206 121.588C202.935 121.51 203.669 121.459 204.39 121.331L204.646 121.286L204.961 121.23L205.265 121.131L205.484 121.058L205.788 120.959L206.074 120.816C206.332 120.686 206.586 120.557 206.836 120.412L215.336 115.506L215.614 115.346L215.875 115.161L216.057 115.033L216.319 114.849L216.551 114.628L216.723 114.465L216.955 114.243L217.153 113.992L217.317 113.787L217.515 113.537L217.68 113.263L217.997 112.731L218.127 112.439L218.396 111.835L218.495 111.531L218.612 111.159L218.71 110.855L218.776 110.542L218.87 110.108L218.936 109.796L218.974 109.477L219.033 108.989C219.106 108.382 219.117 107.766 219.117 107.156L219.117 55.52C219.117 55.097 219.098 54.677 219.082 54.255L219.07 53.935L219.036 53.616L218.966 52.956L218.931 52.637L218.877 52.322L218.754 51.615C218.639 50.948 218.48 50.283 218.288 49.634L218.062 48.875L217.971 48.567C217.818 48.106 217.653 47.646 217.478 47.192C217.12 46.27 216.707 45.356 216.257 44.473L216.104 44.192L215.689 43.433C215.348 42.807 214.973 42.192 214.572 41.603C214.288 41.189 214.015 40.774 213.712 40.377L213.203 39.706L213.008 39.451C212.407 38.703 211.758 37.975 211.079 37.296L210.846 37.076C210.504 36.756 210.175 36.432 209.816 36.134C209.467 35.843 209.127 35.548 208.762 35.281L208.223 34.89L207.966 34.701L207.693 34.53C207.336 34.305 206.983 34.079 206.616 33.868L161.897 8.048C161.575 7.863 161.247 7.692 160.919 7.517L160.637 7.368L160.343 7.238L159.961 7.07L159.668 6.942L159.365 6.839L159.012 6.719L158.709 6.615L158.076 6.459L157.765 6.384L157.449 6.339L157.168 6.299L156.85 6.254C156.558 6.229 156.256 6.235 155.962 6.225L155.644 6.253L155.433 6.27L155.115 6.298L154.801 6.365L154.622 6.403L154.31 6.471L154.008 6.58C153.752 6.671 153.501 6.764 153.252 6.873L145.979 10.066L145.687 10.195" stroke-width="0.3"/>
   <path d="M206.558 120.572L206.82 120.388L207.002 120.26L207.264 120.076L207.497 119.855L207.669 119.692L207.9 119.471L208.098 119.221L208.263 119.016L208.461 118.765L208.626 118.489L208.943 117.959L209.073 117.668L209.342 117.063L209.439 116.759L209.557 116.387L209.656 116.081L209.723 115.769L209.814 115.337L209.882 115.022L209.919 114.706L209.979 114.216L210.016 113.899L210.03 113.578C210.044 113.18 210.062 112.784 210.062 112.385L210.062 60.747C210.062 60.326 210.044 59.905 210.027 59.482L210.015 59.162L209.981 58.844L209.911 58.183C209.862 57.732 209.777 57.292 209.699 56.844C209.62 56.384 209.504 55.936 209.397 55.481L209.324 55.168C209.076 54.24 208.77 53.316 208.424 52.42L208.3 52.125L207.974 51.347C207.782 50.887 207.557 50.442 207.341 49.99C207.032 49.347 206.687 48.716 206.316 48.106L205.865 47.368L205.698 47.095C205.159 46.264 204.574 45.451 203.954 44.679C203.65 44.299 203.334 43.926 203.008 43.564L202.788 43.332L202.243 42.756C201.778 42.265 201.282 41.795 200.76 41.362L200.211 40.902L199.966 40.698L199.706 40.509L199.169 40.118L198.911 39.929L198.639 39.759C198.282 39.533 197.927 39.307 197.562 39.094L152.842 13.276C152.521 13.09 152.193 12.919 151.865 12.744L151.582 12.595L151.288 12.467L150.906 12.298L150.612 12.17L150.31 12.067L149.957 11.945L149.655 11.843L149.021 11.688L148.711 11.612L148.394 11.567L148.112 11.526L147.796 11.481C147.503 11.457 147.201 11.462 146.907 11.454L146.59 11.48L146.378 11.499L146.06 11.525L145.747 11.593L145.568 11.631L145.254 11.698L144.954 11.807C144.698 11.899 144.447 11.993 144.197 12.102L139.241 14.276L138.948 14.406" stroke-width="0.13"/>
   <path d="M131.222 21.091L131.222 20.771L131.223 10.326L131.223 10.006C131.277 9.454 131.818 9.15 132.243 8.904L141.197 3.735C141.474 3.576 141.751 3.42 142.058 3.323C142.455 3.198 142.872 3.146 143.284 3.146C143.699 3.146 144.116 3.198 144.51 3.323C144.818 3.42 145.094 3.576 145.372 3.735L150.252 6.552C150.371 6.621 150.545 6.73 150.685 6.788C150.859 6.862 151.046 6.903 151.235 6.921C151.552 6.95 151.888 6.913 152.183 6.788C152.323 6.73 152.497 6.621 152.616 6.552L155.911 4.65L156.187 4.49" stroke-width="0.3"/>
   <path d="M146.971 9.631C146.843 9.545 146.705 9.48 146.554 9.449L146.39 9.433C146.193 9.46 146.288 9.435 146.108 9.507" stroke-width="0.13"/>
   <path d="M139.049 16.573L139.049 16.253L139.049 15.031L139.049 14.711C139.026 14.483 138.895 14.271 138.742 14.108C138.539 13.893 138.28 13.756 138.027 13.609L133.15 10.794C132.941 10.673 132.685 10.561 132.56 10.339C132.504 10.24 132.512 10.218 132.497 10.111" stroke-width="0.3"/>
   <path d="M139.049 14.92C139 15.115 139.007 15.157 138.894 15.33C138.686 15.654 138.35 15.835 138.027 16.021L134.734 17.923L134.456 18.082" stroke-width="0.13"/>
   <path d="M137.774 14.816C137.759 14.923 137.766 14.945 137.711 15.044C137.586 15.266 137.33 15.378 137.122 15.499L133.829 17.399L133.55 17.561" stroke-width="0.3"/>
   <path d="M208.931 119.203L208.931 119.524L208.931 120.356C208.931 120.62 208.937 120.727 208.912 120.989C208.884 121.268 208.802 121.546 208.705 121.808C208.479 122.418 208.112 122.992 207.632 123.433C207.394 123.652 207.121 123.813 206.842 123.974L197.889 129.143C197.638 129.288 197.389 129.444 197.102 129.513L196.859 129.548C196.682 129.538 196.591 129.55 196.426 129.475L196.149 129.316L192.763 127.361L192.485 127.2" stroke-width="0.3"/>
   <path d="M137.774 14.816C137.759 14.708 137.766 14.686 137.711 14.587C137.586 14.365 137.33 14.253 137.122 14.132L132.243 11.317C131.92 11.13 131.586 10.949 131.377 10.625C131.264 10.451 131.271 10.41 131.223 10.215" stroke-width="0.13"/>
   <path d="M151.449 7.665C151.086 7.665 150.728 7.625 150.375 7.532C150.216 7.49 150.052 7.442 149.902 7.375C149.663 7.267 149.574 7.206 149.346 7.075L144.467 4.259C144.348 4.19 144.174 4.081 144.034 4.022C143.794 3.922 143.544 3.894 143.284 3.883C143.026 3.894 142.776 3.922 142.534 4.022C142.395 4.081 142.222 4.19 142.103 4.259L133.15 9.428C132.941 9.548 132.685 9.66 132.56 9.882C132.504 9.98 132.512 10.003 132.497 10.111" stroke-width="0.13"/>
   <path d="M196.973 128.319C197.073 128.361 197.088 128.378 197.2 128.379C197.455 128.383 197.681 128.217 197.889 128.097L206.842 122.927C207.039 122.813 207.235 122.712 207.401 122.555C207.681 122.286 207.889 121.927 207.98 121.549C208.034 121.326 208.026 121.106 208.026 120.879L208.026 120.046L208.026 119.725" stroke-width="0.13"/>
   <path d="M196.245 129.371C196.099 129.231 196.061 129.217 195.967 129.032C195.79 128.689 195.801 128.31 195.801 127.936L195.801 125.606L195.801 125.286" stroke-width="0.13"/>
   <path d="M196.707 124.763L196.707 125.084L196.707 127.414C196.707 127.655 196.676 127.933 196.806 128.152C196.864 128.248 196.887 128.253 196.973 128.319" stroke-width="0.3"/>
   <path d="M205.913 119.468L206.175 119.283L206.305 119.191L206.567 119.007L206.799 118.787L206.923 118.668L207.155 118.447L207.354 118.197L207.475 118.043L207.675 117.793L207.838 117.519L207.955 117.322L208.121 117.048L208.251 116.756L208.36 116.51L208.49 116.218L208.587 115.912L208.781 115.308L208.847 114.995L208.923 114.641L208.99 114.328L209.027 114.01L209.076 113.605L209.115 113.287L209.127 112.968C209.141 112.599 209.157 112.23 209.157 111.861L209.157 60.225C209.157 59.834 209.14 59.445 209.126 59.054L209.114 58.734L209.08 58.415L209.019 57.85C208.974 57.432 208.896 57.024 208.825 56.609C208.734 56.081 208.611 55.554 208.473 55.036C208.245 54.176 207.961 53.32 207.639 52.49L207.515 52.195L207.233 51.518C207.054 51.091 206.848 50.679 206.647 50.262C206.354 49.652 206.027 49.054 205.675 48.476L205.282 47.834L205.116 47.56C204.617 46.79 204.075 46.036 203.501 45.323C203.218 44.972 202.925 44.625 202.626 44.29L202.406 44.058L201.933 43.56C201.491 43.094 201.02 42.648 200.526 42.235L200.054 41.841L199.807 41.637L199.549 41.448L199.09 41.112L198.831 40.924L198.56 40.753C198.229 40.545 197.901 40.337 197.562 40.14L152.842 14.323C152.508 14.13 152.168 13.954 151.825 13.774L151.542 13.625L151.247 13.5L150.83 13.326L150.534 13.201L150.229 13.106L149.846 12.987L149.539 12.891L149.227 12.829L148.883 12.759L148.569 12.696L148.251 12.67L147.632 12.621L147.312 12.637L147.054 12.649L146.735 12.663L146.419 12.724L146.201 12.765L145.888 12.824L145.586 12.929L145.39 12.997L145.088 13.103L144.794 13.231L139.342 15.625L139.049 15.755" stroke-width="0.3"/>
  </g>
  <g id="09_0694_0102_PART01_0">
   <desc>09_0694_0102_PART01_0</desc>
   <line stroke-width="0.13" x1="134.909" x2="106.537" y1="77.156" y2="60.776"/>
   <line stroke-width="0.3" x1="209.098" x2="163.825" y1="117.608" y2="143.747"/>
   <line stroke-width="0.3" x1="206.062" x2="170.687" y1="119.362" y2="139.786"/>
   <line stroke-width="0.13" x1="154.83" x2="145.775" y1="143.548" y2="148.776"/>
   <line stroke-width="0.13" x1="209.157" x2="164.789" y1="112.182" y2="137.798"/>
   <line stroke-width="0.13" x1="227.266" x2="219.117" y1="101.727" y2="106.432"/>
   <line stroke-width="0.3" x1="144.961" x2="102.579" y1="13.159" y2="37.628"/>
   <line stroke-width="0.13" x1="98.237" x2="89.183" y1="45.529" y2="50.756"/>
   <line stroke-width="0.13" x1="122.445" x2="108.197" y1="31.553" y2="39.777"/>
   <line stroke-width="0.13" x1="125.644" x2="124.614" y1="29.705" y2="30.3"/>
   <line stroke-width="0.13" x1="129.436" x2="128.139" y1="27.516" y2="28.265"/>
   <line stroke-width="0.13" x1="129.545" x2="129.914" y1="27.452" y2="27.239"/>
   <line stroke-width="0.13" x1="152.566" x2="131.423" y1="14.163" y2="26.37"/>
   <line stroke-width="0.13" x1="170.675" x2="162.526" y1="3.706" y2="8.412"/>
   <line stroke-width="0.13" x1="128.534" x2="129.296" y1="87.501" y2="87.061"/>
   <line stroke-width="0.13" x1="133.627" x2="134.389" y1="96.323" y2="95.884"/>
   <line stroke-width="0.13" x1="124.769" x2="124.007" y1="92.29" y2="92.73"/>
   <line stroke-width="0.13" x1="127.599" x2="126.837" y1="97.191" y2="97.631"/>
   <line stroke-width="0.13" x1="143.512" x2="134.456" y1="71.667" y2="76.894"/>
   <line stroke-width="0.13" x1="154.83" x2="145.775" y1="91.271" y2="96.498"/>
   <line stroke-width="0.13" x1="172.895" x2="153.432" y1="54.703" y2="65.938"/>
   <line stroke-width="0.13" x1="209.157" x2="164.752" y1="59.905" y2="85.543"/>
   <line stroke-width="0.13" x1="174.729" x2="174.568" y1="53.643" y2="53.737"/>
   <line stroke-width="0.13" x1="197.838" x2="183.099" y1="40.301" y2="48.811"/>
   <line stroke-width="0.13" x1="215.949" x2="207.76" y1="29.846" y2="34.573"/>
   <line stroke-width="0.13" x1="227.266" x2="219.08" y1="49.45" y2="54.176"/>
   <path d="M81.558 49.765L81.858 49.651L82.061 49.573L82.361 49.459L82.674 49.392L82.911 49.341L83.224 49.274L83.543 49.253L83.816 49.234L84.135 49.213L84.772 49.256L85.091 49.277L85.406 49.338L85.768 49.406L86.081 49.466L86.388 49.56L86.795 49.683L87.1 49.777L87.397 49.899L87.837 50.084C88.397 50.317 88.936 50.612 89.46 50.917L134.18 76.734C134.538 76.941 134.884 77.165 135.235 77.387L135.507 77.558L135.764 77.748L136.282 78.129L136.538 78.32L136.782 78.528L137.314 78.978L137.558 79.186L137.788 79.409L138.318 79.918C138.81 80.393 139.276 80.902 139.709 81.43L140.213 82.046L140.417 82.295C140.715 82.68 141.002 83.075 141.28 83.475C141.557 83.879 141.825 84.29 142.081 84.707L142.241 84.984L142.661 85.712C143.012 86.319 143.332 86.95 143.616 87.593C143.814 88.04 144.019 88.48 144.192 88.936L144.473 89.683L144.586 89.983L144.681 90.287L144.913 91.027L145.009 91.331L145.086 91.643C145.198 92.09 145.317 92.53 145.399 92.981C145.479 93.423 145.568 93.855 145.617 94.301L145.689 94.939L145.725 95.257L145.739 95.578C145.754 95.992 145.775 96.405 145.775 96.819L145.775 148.455C145.775 149.062 145.763 149.675 145.685 150.276L145.622 150.752L145.581 151.068L145.509 151.381L145.413 151.794L145.342 152.106L145.235 152.408L145.115 152.756L145.009 153.058L144.867 153.346L144.586 153.919L144.408 154.186L144.257 154.412L144.079 154.679L143.864 154.915L143.701 155.096L143.486 155.332L143.239 155.534L143.069 155.673L142.82 155.875" stroke-width="0.13"/>
   <path d="M186.612 64.679L186.497 64.977L185.719 66.995L185.604 67.295L185.397 67.397C185.192 67.501 184.978 67.593 184.756 67.655L184.292 67.753" stroke-width="0.13"/>
   <path d="M186.758 66.329C186.518 66.578 186.281 66.826 186.002 67.034L185.604 67.295" stroke-width="0.13"/>
   <path d="M154.77 148.974L154.493 149.135L142.359 156.141L142.081 156.301L141.782 156.415L141.579 156.493L141.28 156.608L140.967 156.675L140.729 156.725L140.417 156.793L140.097 156.813L139.824 156.831L139.506 156.853L138.867 156.81L138.549 156.788L138.234 156.729L137.872 156.661L137.557 156.6L137.252 156.507L136.846 156.383L136.538 156.289L136.243 156.167L135.801 155.983L135.507 155.86L135.223 155.711C134.872 155.527 134.521 155.348 134.18 155.151L89.46 129.331C89.102 129.125 88.754 128.901 88.403 128.68L88.134 128.508L87.876 128.318L87.358 127.936C86.998 127.671 86.668 127.378 86.325 127.087C85.975 126.79 85.653 126.468 85.322 126.147L85.091 125.926L84.875 125.689L84.35 125.12L84.135 124.885L83.932 124.637L83.427 124.019C83.117 123.641 82.837 123.245 82.549 122.849C82.135 122.283 81.75 121.689 81.399 121.081L80.978 120.355L80.819 120.078C80.585 119.647 80.362 119.209 80.153 118.766C79.944 118.328 79.745 117.879 79.561 117.429L79.448 117.129L79.167 116.384C78.926 115.745 78.718 115.087 78.554 114.424L78.376 113.709L78.299 113.4L78.24 113.084L78.115 112.399L78.058 112.084L78.022 111.766L77.95 111.126L77.914 110.808L77.902 110.489C77.885 110.075 77.864 109.662 77.864 109.248L77.864 57.61C77.864 57.216 77.885 56.822 77.9 56.426L77.914 56.106L77.956 55.789L78.016 55.314L78.058 54.997L78.131 54.686L78.227 54.271L78.299 53.96L78.403 53.658L78.525 53.31L78.631 53.008L78.912 52.435L79.054 52.148L79.231 51.881L79.384 51.655L79.561 51.389L79.775 51.151L79.938 50.97L80.153 50.734L80.402 50.531L80.57 50.393L80.819 50.192L81.096 50.031L90.356 44.686L90.634 44.526" stroke-width="0.3"/>
   <path d="M156.907 6.262L157.185 6.102L162.772 2.875L163.05 2.716L163.349 2.601L163.554 2.524L163.853 2.41L164.165 2.343L164.401 2.291L164.716 2.225L165.034 2.204L165.306 2.185L165.627 2.165L165.945 2.185L166.584 2.229L166.897 2.289L167.258 2.357L167.574 2.416L167.879 2.509L168.287 2.633L168.592 2.727L168.889 2.851L169.33 3.035L169.626 3.157L169.908 3.306C170.259 3.49 170.61 3.669 170.953 3.867L215.671 29.686C216.031 29.893 216.377 30.115 216.728 30.338L216.998 30.509L217.256 30.699L217.774 31.08L218.031 31.271L218.275 31.478L218.806 31.929L219.05 32.137L219.281 32.359L219.81 32.869C220.301 33.344 220.766 33.851 221.199 34.381L221.705 34.997L221.908 35.244C222.205 35.63 222.495 36.026 222.771 36.426C223.049 36.829 223.318 37.241 223.574 37.658L223.734 37.936L224.152 38.662C224.503 39.27 224.824 39.901 225.109 40.542C225.306 40.99 225.51 41.43 225.683 41.887L225.965 42.634L226.078 42.932L226.174 43.238L226.406 43.976L226.502 44.283L226.579 44.594C226.689 45.04 226.808 45.479 226.89 45.932C226.972 46.374 227.06 46.807 227.11 47.25L227.181 47.89L227.217 48.209L227.23 48.529C227.247 48.942 227.266 49.354 227.266 49.77L227.266 101.406C227.266 101.802 227.247 102.194 227.23 102.59L227.217 102.911L227.176 103.227L227.115 103.701L227.074 104.019L227.002 104.331L226.906 104.745L226.834 105.058L226.728 105.359L226.606 105.706L226.502 106.009L226.219 106.582L226.078 106.87L225.9 107.135L225.748 107.362L225.57 107.629L225.355 107.867L225.193 108.046L224.979 108.284L224.73 108.486L224.562 108.623L224.312 108.825L224.036 108.986L218.431 112.221L218.153 112.382" stroke-width="0.3"/>
   <path d="M92.275 108.436C91.328 108.983 90.379 109.531 89.432 110.078C89.275 110.045 89.144 110.004 89.001 109.935" stroke-width="0.13"/>
   <path d="M89.001 109.935L89.001 109.614L89.001 70.103C89.001 69.606 89.024 69.111 89.076 68.617C89.109 68.314 89.15 68.01 89.224 67.715L89.301 67.478C89.373 67.257 89.456 67.037 89.569 66.832C89.674 66.647 89.801 66.478 89.944 66.323L90.081 66.176L90.391 65.95L90.563 65.87L90.734 65.792C91.04 65.683 91.364 65.655 91.685 65.673C92.341 65.709 92.954 65.923 93.548 66.195L93.826 66.325L94.109 66.474C94.313 66.582 94.512 66.691 94.712 66.807L128.929 86.563C129.884 87.114 130.812 87.751 131.594 88.536C132.955 89.9 133.915 91.638 134.35 93.516C134.574 94.477 134.639 95.468 134.639 96.453L134.639 135.962C134.639 136.46 134.616 136.955 134.562 137.449C134.513 137.915 134.435 138.385 134.263 138.824L134.167 139.03C134.074 139.227 133.967 139.421 133.832 139.594L133.695 139.742L133.557 139.89L133.403 140.003L133.248 140.116L133.076 140.195C132.906 140.274 132.727 140.338 132.54 140.371L132.157 140.405C131.878 140.389 131.602 140.372 131.328 140.312C130.899 140.218 130.49 140.054 130.092 139.871C129.693 139.687 129.308 139.479 128.929 139.259L94.712 119.504C93.947 119.063 93.197 118.569 92.531 117.987C92.278 117.766 92.04 117.527 91.813 117.281C91.433 116.876 91.079 116.441 90.769 115.98C90.183 115.108 89.734 114.137 89.441 113.129C89.269 112.54 89.15 111.936 89.082 111.326C89.031 110.864 89.018 110.399 89.001 109.935z" stroke-width="0.13"/>
   <path d="M89.001 69.784C89.123 69.843 89.141 69.858 89.275 69.894L89.432 69.927L89.671 70.14L92.036 72.236L92.275 72.448" stroke-width="0.13"/>
   <path d="M92.275 72.448L92.275 72.769L92.275 108.115C92.275 108.981 92.326 109.847 92.504 110.697C92.881 112.492 93.766 114.167 95.052 115.477C95.546 115.98 96.099 116.436 96.683 116.829C96.995 117.039 97.322 117.23 97.646 117.418L128.258 135.092C128.483 135.222 128.711 135.344 128.942 135.467C129.318 135.667 129.126 135.574 129.519 135.742L129.542 135.752L129.836 135.878L130.108 135.965C130.487 136.086 130.883 136.176 131.284 136.174L131.474 136.157L131.664 136.141L131.836 136.098L132.006 136.054L132.159 135.983L132.313 135.912L132.451 135.814L132.59 135.717L132.712 135.591L132.836 135.463C133.061 135.191 133.21 134.865 133.323 134.532C133.598 133.717 133.627 132.844 133.627 131.991L133.627 96.644C133.627 95.778 133.576 94.912 133.399 94.063C133.024 92.268 132.138 90.593 130.852 89.283C130.358 88.781 129.804 88.323 129.219 87.93C128.908 87.721 128.581 87.528 128.258 87.341L97.646 69.668C96.975 69.281 96.278 68.906 95.525 68.709L95.045 68.612L94.618 68.585C94.373 68.606 94.132 68.623 93.897 68.706L93.743 68.777L93.59 68.847L93.451 68.944L93.313 69.043L93.191 69.168L93.067 69.296L92.957 69.453L92.849 69.611C92.647 69.957 92.527 70.346 92.442 70.737L92.382 71.016L92.344 71.334L92.341 71.356L92.304 71.674C92.284 71.927 92.284 72.194 92.275 72.448z" stroke-width="0.13"/>
   <path d="M94.433 119.344C94.444 119.209 94.439 119.186 94.474 119.052L94.525 118.9L94.802 118.739L97.091 117.418L97.368 117.257" stroke-width="0.13"/>
   <path d="M93.938 118.563C93.59 118.338 93.239 118.117 92.911 117.861C92.469 117.521 92.055 117.129 91.683 116.713C90.935 115.873 90.362 114.885 89.981 113.828C89.804 113.335 89.658 112.829 89.572 112.313C89.474 111.736 89.439 111.143 89.436 110.558C89.433 110.292 89.432 110.025 89.432 109.757L89.432 70.246C89.432 70.027 89.432 69.807 89.432 69.587L89.43 69.266L89.445 68.974C89.477 68.353 89.567 67.745 89.825 67.177C89.9 67.012 89.987 66.844 90.1 66.7C90.212 66.56 90.346 66.441 90.489 66.334L90.634 66.228C90.795 66.135 90.974 66.078 91.155 66.039L91.343 65.998C91.552 65.971 91.766 65.98 91.974 66.001C92.4 66.046 92.813 66.168 93.209 66.328C93.763 66.552 94.287 66.849 94.802 67.147L129.02 86.902C129.304 87.066 129.592 87.23 129.867 87.408C130.524 87.828 131.139 88.32 131.685 88.879C132.967 90.191 133.849 91.879 134.195 93.68C134.354 94.513 134.389 95.358 134.389 96.203L134.389 135.715C134.389 135.938 134.388 136.159 134.383 136.383L134.377 136.704L134.353 137.002L134.329 137.3L134.289 137.558C134.223 137.997 134.117 138.421 133.927 138.824C133.798 139.099 133.628 139.361 133.397 139.566L133.252 139.673L133.108 139.778L132.942 139.853L132.776 139.926C132.521 140.009 132.258 140.013 131.992 140.022L131.566 139.974L131.106 139.859L130.842 139.756C130.203 139.508 129.612 139.157 129.02 138.814L94.802 119.06C94.515 118.894 94.227 118.727 93.938 118.563z" stroke-width="0.13"/>
   <path d="M94.433 66.647C94.442 66.753 94.444 66.902 94.525 66.986L94.765 67.198L97.129 69.296L97.368 69.507" stroke-width="0.13"/>
   <path d="M129.205 86.722C129.213 86.825 129.21 86.87 129.247 86.966L129.296 87.061" stroke-width="0.13"/>
   <path d="M134.639 96.132C134.554 96.073 134.513 96.055 134.447 95.974L134.389 95.884" stroke-width="0.13"/>
   <path d="M134.639 136.282C134.55 136.223 134.424 136.146 134.389 136.034L134.325 135.721L133.693 132.625L133.627 132.311" stroke-width="0.13"/>
   <path d="M129.205 139.419C129.216 139.286 129.211 139.26 129.247 139.127L129.296 138.974L129.233 138.662L128.598 135.564L128.534 135.252" stroke-width="0.13"/>
   <path d="M124.769 92.29L124.492 92.129L101.593 78.909C101.292 78.734 100.99 78.558 100.671 78.415C100.5 78.338 100.32 78.26 100.137 78.215C99.852 78.147 99.858 78.161 99.573 78.153C99.367 78.186 99.287 78.179 99.105 78.284C98.825 78.447 98.67 78.739 98.582 79.039C98.426 79.578 98.486 80.15 98.486 80.703L98.486 107.144C98.486 107.718 98.454 108.296 98.555 108.865C98.715 109.763 99.155 110.623 99.789 111.275C100.037 111.531 100.313 111.76 100.609 111.957C100.926 112.167 101.266 112.335 101.593 112.525L124.492 125.745C124.789 125.917 125.078 126.102 125.382 126.257C125.543 126.337 125.715 126.426 125.891 126.474C126.075 126.524 126.246 126.555 126.438 126.545L126.686 126.507C127.09 126.394 127.322 126.028 127.442 125.65C127.617 125.105 127.599 124.518 127.599 123.951L127.599 97.51C127.599 97.084 127.599 96.656 127.543 96.233C127.42 95.308 127.042 94.415 126.459 93.686C126.167 93.322 125.817 92.993 125.439 92.718C125.281 92.602 125.114 92.495 124.944 92.394L124.769 92.29L124.719 92.194C124.683 92.097 124.686 92.054 124.679 91.95" stroke-width="0.13"/>
   <path d="M124.679 91.95L125.137 92.242C125.522 92.506 125.888 92.807 126.206 93.149C126.98 93.977 127.513 95.018 127.725 96.131C127.808 96.561 127.84 97.001 127.847 97.438L127.847 97.76L127.847 124.2L127.847 124.521L127.835 124.778C127.813 125.233 127.772 125.709 127.573 126.128C127.456 126.376 127.287 126.605 127.049 126.75L126.819 126.855C126.605 126.929 126.54 126.915 126.316 126.924C126.034 126.894 126.031 126.905 125.751 126.829C125.579 126.784 125.412 126.71 125.251 126.638C124.957 126.507 124.68 126.35 124.4 126.191L101.503 112.969C101.108 112.742 100.718 112.501 100.358 112.218C99.775 111.762 99.271 111.183 98.896 110.543C98.48 109.837 98.215 109.036 98.114 108.222C98.063 107.816 98.055 107.409 98.055 107.001L98.055 80.558L98.055 80.239L98.069 79.981C98.09 79.527 98.132 79.049 98.329 78.632C98.447 78.384 98.615 78.155 98.853 78.01L99.084 77.905C99.254 77.846 99.409 77.829 99.587 77.835C99.838 77.844 100.078 77.903 100.313 77.986C100.731 78.132 101.118 78.347 101.503 78.569L124.4 91.79L124.679 91.95z" stroke-width="0.13"/>
   <path d="M124.007 92.73L124.43 92.995C124.677 93.165 124.915 93.355 125.134 93.561C125.792 94.179 126.295 94.968 126.566 95.831C126.725 96.331 126.807 96.853 126.826 97.379L126.837 97.631L126.837 97.95L126.837 120.228L126.837 120.549L126.828 120.787L126.817 121.025L126.79 121.224C126.724 121.719 126.57 122.28 126.108 122.549L125.909 122.637C125.713 122.7 125.64 122.686 125.432 122.691C125.216 122.662 125.015 122.631 124.81 122.56C124.43 122.427 124.078 122.222 123.73 122.022L104.436 110.884C104.066 110.668 103.698 110.447 103.364 110.179C102.846 109.762 102.396 109.246 102.063 108.67C101.73 108.094 101.507 107.448 101.405 106.792C101.338 106.364 101.331 105.933 101.331 105.501L101.331 83.224L101.331 82.903L101.34 82.665L101.349 82.427L101.376 82.227C101.444 81.733 101.596 81.173 102.06 80.903L102.257 80.816C102.412 80.766 102.575 80.751 102.736 80.76C102.962 80.775 103.003 80.793 103.191 80.846C103.638 80.971 104.039 81.2 104.436 81.43L123.73 92.569L124.007 92.73z" stroke-width="0.13"/>
   <path d="M127.847 97.438C127.763 97.381 127.721 97.361 127.656 97.281L127.599 97.191" stroke-width="0.13"/>
   <path d="M127.847 124.521C127.76 124.459 127.632 124.384 127.599 124.272L127.534 123.959L126.902 120.861L126.837 120.549" stroke-width="0.13"/>
   <path d="M124.679 126.35C124.688 126.216 124.683 126.191 124.719 126.058L124.769 125.906L124.706 125.591L124.072 122.495L124.007 122.183" stroke-width="0.13"/>
   <path d="M101.224 112.81C101.234 112.676 101.23 112.652 101.266 112.518L101.316 112.364L101.593 112.204L103.882 110.884L104.159 110.722" stroke-width="0.13"/>
   <path d="M98.055 107.32C98.177 107.379 98.195 107.394 98.329 107.43L98.486 107.463L98.763 107.304L101.052 105.983L101.331 105.822" stroke-width="0.13"/>
   <path d="M98.055 80.239C98.177 80.298 98.195 80.313 98.329 80.349L98.486 80.382L98.725 80.594L101.09 82.691L101.331 82.903" stroke-width="0.13"/>
   <path d="M101.224 78.409C101.233 78.516 101.236 78.664 101.316 78.748L101.555 78.96L103.921 81.058L104.159 81.271" stroke-width="0.13"/>
   <path d="M184.292 67.753L183.796 67.792L183.265 67.766L182.695 67.668L182.391 67.579L182.087 67.492C181.77 67.382 181.457 67.24 181.159 67.09L181.068 67.045L180.782 66.9C180.229 66.594 179.699 66.233 179.199 65.846C178.155 65.037 177.195 64.12 176.348 63.106C175.816 62.47 175.317 61.801 174.891 61.088C174.68 60.731 174.497 60.359 174.317 59.985" stroke-width="0.13"/>
   <path d="M188.026 64.15L187.784 64.731C187.712 64.885 187.549 65.197 187.462 65.343L187.118 65.875L186.758 66.329" stroke-width="0.13"/>
   <path d="M183.705 63.786L183.608 63.79L183.564 63.789" stroke-width="0.13"/>
  </g>
 </g>
 <g id="01_0038_0196_0_1">
  <desc>01_0038_0196_0</desc>
  <line stroke-width="0.3" x1="26.51" x2="26.193" y1="109.4" y2="112.266"/>
  <line stroke-width="0.3" x1="25.567" x2="26.51" y1="108.79" y2="109.4"/>
  <line stroke-width="0.3" x1="26.51" x2="26.193" y1="104.599" y2="101.367"/>
  <line stroke-width="0.3" x1="25.257" x2="26.193" y1="100.956" y2="101.367"/>
  <path d="M20.649 108.935C20.658 109.191 20.666 109.444 20.701 109.698C20.792 110.335 21.015 110.983 21.451 111.469C21.682 111.728 21.983 111.93 22.253 112.144L22.504 112.343L22.734 112.519C23.062 112.739 23.443 112.862 23.833 112.897C24.658 112.971 25.489 112.671 26.193 112.266C27.039 111.778 27.771 111.102 28.396 110.358C29.14 109.474 29.743 108.475 30.185 107.409C30.513 106.617 30.756 105.786 30.859 104.935C30.885 104.724 30.899 104.512 30.905 104.299C30.939 103.237 30.725 102.024 29.882 101.29C29.469 100.93 28.925 100.775 28.425 100.576C28.187 100.483 28.099 100.435 27.85 100.382C27.596 100.329 27.516 100.338 27.254 100.329C27.038 100.346 26.826 100.362 26.614 100.409C26.199 100.501 25.801 100.665 25.428 100.864C24.803 101.2 24.242 101.641 23.736 102.137C22.824 103.031 22.091 104.102 21.553 105.257C21.193 106.03 20.914 106.844 20.765 107.685C20.692 108.099 20.664 108.515 20.649 108.935z" stroke-width="0.3"/>
  <path d="M29.135 100.858L28.852 100.78C28.589 100.724 28.509 100.734 28.24 100.725C28.019 100.742 27.801 100.759 27.583 100.807C26.6 101.025 25.716 101.602 24.972 102.262C24.126 103.012 23.423 103.914 22.859 104.891C22.295 105.87 21.864 106.93 21.638 108.037C21.472 108.846 21.413 109.688 21.559 110.504C21.649 110.998 21.815 111.486 22.106 111.9C22.263 112.123 22.314 112.156 22.504 112.343" stroke-width="0.13"/>
  <path d="M27.98 104.453L27.806 104.375C27.641 104.317 27.585 104.326 27.411 104.316C27.208 104.337 27.172 104.329 26.972 104.393C26.535 104.53 26.147 104.811 25.824 105.131C25.399 105.546 25.062 106.051 24.818 106.59C24.666 106.924 24.548 107.274 24.484 107.635C24.387 108.18 24.388 108.837 24.75 109.293C24.859 109.432 24.899 109.444 25.041 109.546" stroke-width="0.3"/>
  <path d="M24.609 109.061C25.129 109.091 25.632 108.795 26.016 108.471C26.373 108.173 26.667 107.81 26.911 107.417C27.213 106.933 27.437 106.399 27.538 105.835C27.626 105.341 27.632 104.757 27.344 104.322" stroke-width="0.3"/>
  <path d="M27.98 104.453C28.12 104.555 28.161 104.567 28.271 104.706C28.632 105.162 28.634 105.819 28.536 106.364C28.472 106.725 28.355 107.075 28.202 107.409C27.957 107.948 27.62 108.453 27.196 108.868C26.871 109.188 26.486 109.469 26.047 109.606C25.847 109.67 25.812 109.662 25.608 109.683C25.435 109.673 25.379 109.68 25.213 109.625L25.041 109.546" stroke-width="0.13"/>
 </g>
 <g class="callout callout_1">
  <g>
   <line stroke="#FFFFFF" stroke-width="1" x1="195.231" x2="223.852" y1="20.045" y2="3.52"/>
   <line stroke-width="0.13" x1="195.231" x2="223.852" y1="20.045" y2="3.52"/>
  </g>
  <path d="M221.294 7.043L226.409 7.043 226.409 0 221.294 0 221.294 7.043z" fill="#FFFFFF" stroke="none"/>
  <text fill="#000000" font-family="'Arial'" font-size="4.232" stroke="none" x="222.674" y="5.043"><desc>1</desc>1</text>
 </g>
 <g class="callout callout_2">
  <g>
   <line stroke="#FFFFFF" stroke-width="1" x1="61.659" x2="40.518" y1="130.199" y2="142.405"/>
   <line stroke-width="0.13" x1="61.659" x2="40.518" y1="130.199" y2="142.405"/>
  </g>
  <path d="M37.515 145.926L43.521 145.926 43.521 138.883 37.515 138.883 37.515 145.926z" fill="#FFFFFF" stroke="none"/>
  <text fill="#000000" font-family="'Arial'" font-size="4.232" stroke="none" x="39.341" y="143.926"><desc>2</desc>2</text>
 </g>
 <g class="callout callout_3">
  <g>
   <line stroke="#FFFFFF" stroke-width="1" x1="21.451" x2="2.992" y1="111.469" y2="122.126"/>
   <line stroke-width="0.13" x1="21.451" x2="2.992" y1="111.469" y2="122.126"/>
  </g>
  <path d="M0 125.674L5.984 125.674 5.984 118.578 0 118.578 0 125.674z" fill="#FFFFFF" stroke="none"/>
  <text fill="#000000" font-family="'Arial'" font-size="4.232" stroke="none" x="1.815" y="123.674"><desc>3</desc>3</text>
 </g>
 <g>
  <line stroke="#FFFFFF" stroke-width="2" x1="85.84" x2="94.519" y1="41.838" y2="46.847"/>
  <line stroke-dasharray="5 1 1 1" stroke-width="0.13" x1="84.918" x2="94.575" y1="41.304" y2="46.881"/>
  <line stroke-width="0.13" x1="94.575" x2="95.441" y1="46.881" y2="47.381"/>
 </g>
 <g>
  <line stroke="#FFFFFF" stroke-width="1" x1="9.743" x2="20.964" y1="97.423" y2="103.902"/>
  <line stroke-dasharray="5 1 1 1" stroke-width="0.13" x1="9.253" x2="20.588" y1="97.141" y2="103.685"/>
  <line stroke-width="0.13" x1="20.588" x2="21.454" y1="103.685" y2="104.185"/>
 </g>
 <g>
  <line stroke="#FFFFFF" stroke-width="1" x1="26.702" x2="56.512" y1="107.215" y2="124.426"/>
  <line stroke-dasharray="5 1 1 1" stroke-width="0.13" x1="26.213" x2="56.136" y1="106.933" y2="124.207"/>
  <line stroke-width="0.13" x1="56.136" x2="57.002" y1="124.207" y2="124.707"/>
 </g>
 <g>
  <line stroke="#FFFFFF" stroke-width="2" x1="10.176" x2="94.519" y1="96.608" y2="47.912"/>
  <line stroke-dasharray="5 1 1 1" stroke-width="0.13" x1="9.253" x2="94.575" y1="97.141" y2="47.881"/>
  <line stroke-width="0.13" x1="94.575" x2="95.441" y1="47.881" y2="47.381"/>
 </g>
 <g id="09_0694_0105_000_MODEL">
  <desc>09_0694_0105_000_MODEL</desc>
  <g id="09_0694_0105-002_000">
   <desc>09_0694_0105-002_000</desc>
   <g>
    <path d="M176.573 191.313C176.514 191.145 176.29 191.032 176.038 191.031C175.781 191.031 175.563 191.15 175.504 191.312" stroke-width="0.13"/>
   </g>
   <g>
    <path d="M176.519 191.358C176.542 191.302 176.519 191.229 176.466 191.175" stroke-width="0.13"/>
   </g>
   <g>
    <path d="M179.075 198.937C179.189 198.872 179.189 198.657 179.075 198.46C179.019 198.36 178.943 198.284 178.868 198.241" stroke-width="0.13"/>
   </g>
   <g>
    <path d="M179.075 198.221C178.961 198.155 178.776 198.262 178.662 198.46C178.548 198.657 178.548 198.872 178.662 198.937" stroke-width="0.13"/>
   </g>
   <g>
    <path d="M174.661 197.763C174.686 198.192 175.296 198.531 176.038 198.532C176.556 198.532 177.007 198.367 177.246 198.121" stroke-width="0.3"/>
   </g>
   <g>
    <path d="M178.662 198.937C178.812 199.027 179.022 199.004 179.141 198.888" stroke-width="0.3"/>
   </g>
   <g>
    <path d="M179.143 198.888C179.205 198.838 179.252 198.758 179.271 198.669C179.288 198.594 179.284 198.521 179.265 198.461" stroke-width="0.3"/>
   </g>
   <g>
    <path d="M176.687 197.582C176.657 197.703 176.704 197.813 176.796 197.86" stroke-width="0.13"/>
   </g>
   <line stroke-width="0.13" x1="177.502" x2="178.868" y1="197.453" y2="198.241"/>
   <line stroke-width="0.13" x1="177.014" x2="177.014" y1="198.298" y2="197.986"/>
   <line stroke-width="0.3" x1="174.661" x2="174.661" y1="197.763" y2="197.27"/>
   <line stroke-width="0.3" x1="178.662" x2="176.796" y1="198.937" y2="197.86"/>
   <path d="M175.592 191.199C175.557 191.258 175.55 191.288 175.558 191.356" stroke-width="0.13"/>
   <path d="M177.623 197.383L178.598 197.944C178.86 198.097 179.147 198.179 179.265 198.461" stroke-width="0.3"/>
  </g>
  <g id="09_0694_0105-001_000">
   <desc>09_0694_0105-001_000</desc>
   <g>
    <path d="M175.42 191.103C175.419 191.112 175.419 191.123 175.419 191.133C175.419 191.33 175.697 191.491 176.039 191.491C176.364 191.491 176.631 191.347 176.657 191.163" stroke-width="0.13"/>
    <path d="M176.659 191.133C176.659 190.935 176.383 190.774 176.039 190.774C175.715 190.774 175.448 190.918 175.42 191.103" stroke-width="0.13"/>
    <path d="M176.657 191.163C176.659 191.151 176.661 191.141 176.659 191.133" stroke-width="0.13"/>
   </g>
   <g>
    <path d="M173.698 190.242C173.246 190.56 173.018 190.939 173.004 191.317" stroke-width="0.3"/>
   </g>
   <g>
    <path d="M179.074 191.399C179.058 190.389 177.733 189.563 176.098 189.542C175.126 189.528 174.258 189.802 173.698 190.242" stroke-width="0.3"/>
   </g>
   <g>
    <path d="M173.997 192.655C175.05 193.206 176.592 193.252 177.741 192.81" stroke-width="0.13"/>
   </g>
   <g>
    <path d="M173.004 193.413C173.003 193.427 173.003 193.442 173.003 193.454C173.003 194.421 174.362 195.205 176.039 195.205C177.692 195.205 179.036 194.443 179.074 193.492" stroke-width="0.13"/>
   </g>
   <g>
    <path d="M173.004 191.316C172.983 191.843 173.367 192.323 173.997 192.655" stroke-width="0.13"/>
   </g>
   <g>
    <path d="M178.799 191.133C178.799 190.747 178.562 190.395 178.174 190.122" stroke-width="0.13"/>
    <path d="M177.991 192.258C178.53 191.948 178.799 191.539 178.799 191.133" stroke-width="0.13"/>
   </g>
   <g>
    <path d="M177.741 192.808C178.582 192.479 179.048 191.949 179.074 191.399" stroke-width="0.13"/>
   </g>
   <g>
    <path d="M173.997 190.063C173.516 190.365 173.28 190.748 173.28 191.129C173.278 191.599 173.628 192.02 174.187 192.311" stroke-width="0.13"/>
   </g>
   <line stroke-width="0.3" x1="173.004" x2="171.883" y1="192.163" y2="192.811"/>
   <line stroke-width="0.3" x1="173.004" x2="173.004" y1="191.316" y2="193.413"/>
   <line stroke-width="0.3" x1="179.074" x2="179.074" y1="193.492" y2="191.4"/>
   <line stroke-width="0.13" x1="177.152" x2="177.152" y1="197.655" y2="195.853"/>
   <line stroke-width="0.13" x1="175.599" x2="175.599" y1="191.192" y2="190.878"/>
   <path d="M179.081 191.697L179.313 192.198L179.962 193.596L180.194 194.096L180.194 194.647L180.194 195.347L180.194 195.899" stroke-width="0.3"/>
   <path d="M180.194 195.899C179.181 196.484 178.167 197.069 177.152 197.655L172.997 197.013" stroke-width="0.3"/>
   <path d="M171.883 192.811L171.883 193.362L171.883 194.061L171.883 194.612L172.116 195.114L172.764 196.512L172.997 197.013" stroke-width="0.3"/>
   <path d="M172.997 197.013L172.997 196.461L172.997 195.762L172.997 195.21L172.764 194.709L172.116 193.311L171.883 192.811" stroke-width="0.13"/>
   <path d="M180.194 194.096C179.181 194.681 178.167 195.266 177.152 195.853L172.997 195.21" stroke-width="0.13"/>
   <path d="M176.538 191.27L176.579 191.306" stroke-width="0.13"/>
   <path d="M178.186 194.693L178.186 194.14L178.186 193.149L178.186 192.597L177.991 192.258" stroke-width="0.13"/>
   <path d="M175.562 191.253C175.519 191.284 175.539 191.266 175.5 191.306" stroke-width="0.13"/>
   <path d="M173.893 190.118L174.087 190.006" stroke-width="0.13"/>
  </g>
 </g>
 <g id="06_0443_0057_000">
  <desc>06_0443_0057_000</desc>
  <g>
   <path d="M179.074 166.554C179.074 165.586 177.716 164.801 176.039 164.801C174.387 164.801 173.044 165.563 173.004 166.514" stroke-width="0.13"/>
   <path d="M179.074 166.593C179.074 166.58 179.074 166.566 179.074 166.554" stroke-width="0.13"/>
   <path d="M173.004 166.514C173.003 166.527 173.003 166.542 173.003 166.554C173.003 167.521 174.362 168.306 176.039 168.306C177.692 168.306 179.036 167.544 179.074 166.593" stroke-width="0.3"/>
  </g>
  <g>
   <path d="M172.451 166.554C172.451 167.698 174.057 168.626 176.039 168.626C178.02 168.626 179.627 167.698 179.627 166.554" stroke-width="0.13"/>
   <path d="M179.627 166.554C179.627 165.409 178.02 164.483 176.039 164.483C175.379 164.483 174.762 164.586 174.247 164.759" stroke-width="0.3"/>
   <path d="M178.53 167.992C179.217 167.594 179.477 167.074 179.477 166.554L179.776 166.554C179.776 167.093 179.336 167.633 178.622 168.045L178.53 167.992z" fill="#000000" stroke="none"/>
  </g>
  <g>
   <path d="M179.058 166.724C178.909 165.819 177.592 165.14 176.037 165.139C174.487 165.139 173.211 165.811 173.025 166.683" stroke-width="0.3"/>
  </g>
  <g>
   <path d="M179.627 166.9C179.627 166.896 179.627 166.894 179.627 166.89" stroke-width="0.3"/>
   <path d="M178.576 168.356C179.274 167.954 179.623 167.427 179.627 166.9" stroke-width="0.3"/>
  </g>
  <g>
   <path d="M174.247 164.758C172.905 165.219 172.322 165.997 172.451 166.893" stroke-width="0.3"/>
  </g>
  <g>
   <path d="M172.451 166.894C172.453 168.037 174.058 168.963 176.038 168.963C177.03 168.963 177.926 168.731 178.576 168.356" stroke-width="0.3"/>
  </g>
  <line stroke-width="0.13" x1="173.893" x2="173.893" y1="165.314" y2="165.652"/>
  <line stroke-width="0.13" x1="178.575" x2="178.575" y1="168.019" y2="168.356"/>
  <line stroke-width="0.13" x1="172.465" x2="172.451" y1="166.723" y2="166.894"/>
  <line stroke-width="0.3" x1="173.02" x2="173.025" y1="166.723" y2="166.683"/>
  <line stroke-width="0.3" x1="179.627" x2="179.627" y1="166.554" y2="166.89"/>
 </g>
 <g>
  <line stroke="#FFFFFF" stroke-width="1" x1="176.014" x2="176.014" y1="170.343" y2="190.439"/>
  <line stroke-dasharray="5 1 1 1" stroke-width="0.13" x1="176.014" x2="176.014" y1="169.778" y2="190.004"/>
  <line stroke-width="0.13" x1="176.014" x2="176.014" y1="190.004" y2="191.004"/>
 </g>
 <g>
  <line stroke="#FFFFFF" stroke-width="1" x1="176.014" x2="176.014" y1="137.825" y2="165.241"/>
  <line stroke-dasharray="5 1 1 1" stroke-width="0.13" x1="176.014" x2="176.014" y1="137.26" y2="164.806"/>
  <line stroke-width="0.13" x1="176.014" x2="176.014" y1="164.806" y2="165.806"/>
 </g>
 <g class="callout callout_4">
  <g>
   <line stroke="#FFFFFF" stroke-width="1" x1="180.798" x2="200.798" y1="193.503" y2="193.503"/>
   <line stroke-width="0.13" x1="180.798" x2="200.798" y1="193.503" y2="193.503"/>
  </g>
  <path d="M197.75 197.019L203.846 197.019 203.846 189.989 197.75 189.989 197.75 197.019z" fill="#FFFFFF" stroke="none"/>
  <text fill="#000000" font-family="'Arial'" font-size="4.232" stroke="none" x="199.621" y="195.019"><desc>4</desc>4</text>
 </g>
 <path class="hotspot hotspot_1" d="M221.294 7.043L 226.409 7.043L 226.409 0L 221.294 0L 221.294 7.043z" fill="black" id="AUTOID_1730" stroke="black" visibility="hidden"/>
 <path class="hotspot hotspot_2" d="M37.515 145.926L 43.521 145.926L 43.521 138.883L 37.515 138.883L 37.515 145.926z" fill="black" id="AUTOID_1731" stroke="black" visibility="hidden"/>
 <path class="hotspot hotspot_4" d="M197.75 197.019L 203.846 197.019L 203.846 189.989L 197.75 189.989L 197.75 197.019z" fill="black" id="AUTOID_1732" stroke="black" visibility="hidden"/>
 <path class="hotspot hotspot_3" d="M0 125.674L 5.984 125.674L 5.984 118.578L 0 118.578L 0 125.674z" fill="black" id="AUTOID_1733" stroke="black" visibility="hidden"/>
</svg>