<svg id="Calque_1" data-name="Calque 1" xmlns="http://www.w3.org/2000/svg" viewBox="0 0 373.61 63.66"><defs><style>.cls-1{fill:#fff;}</style></defs><title>6MCR-MarkII</title><path class="cls-1" d="M115.58,447.17a7.24,7.24,0,0,1-1.61-1.74,6,6,0,0,1-.88-2.08,3,3,0,0,1,0-1.56l13.5-39.35a5.74,5.74,0,0,1,1.38-2,21.42,21.42,0,0,1,3-2.69,23,23,0,0,1,3.41-2.1,5.25,5.25,0,0,1,2.14-.7h58.88l-3.36,8.7h-47.5s-4.23-.17-6.14,1.36a9.68,9.68,0,0,0-2.58,3l-2.25,6.2a3.59,3.59,0,0,0,0,2.44c.86,1.58,3.21,1.25,3.21,1.25h47.68c.21,0,.87,0,1,.25a3,3,0,0,1,.51,1.78,14.67,14.67,0,0,1-.4,3.67,35.08,35.08,0,0,1-1.24,4.27L179.92,440a.49.49,0,0,1,0,.11L175.82,445a17.6,17.6,0,0,1-3.14,2,5.5,5.5,0,0,1-2.35.66H116.59a1.7,1.7,0,0,1-1-.43m181-57.51H275.74s-3-.14-4.27.56a9.58,9.58,0,0,0-2.48,2.39L250.8,419l.38-25.93s.22-1.94-.54-2.64a4.28,4.28,0,0,0-2.8-.75l-22.32,0a12.29,12.29,0,0,0-3,.39,6.22,6.22,0,0,0-2,1.8l-30.59,36.34c.37-1.13.69-2.27,1-3.42a20.89,20.89,0,0,0,.52-5,8.32,8.32,0,0,0-1.57-4.8,6.23,6.23,0,0,0-5.31-2.4l-42.34-.05a7.75,7.75,0,0,1-2-.1c-.18-.14.12-.77.12-.77l.49-1.34s0-.5,1-1.05a4.59,4.59,0,0,1,2.22-.3h51.94l7-19.37H136.54a10.22,10.22,0,0,0-4.53,1.26,29.68,29.68,0,0,0-4.22,2.61,28.75,28.75,0,0,0-3.69,3.32,11.2,11.2,0,0,0-2.54,4l-13.49,39.33a8.29,8.29,0,0,0-.2,4.41,11.58,11.58,0,0,0,1.66,3.91,12.41,12.41,0,0,0,2.78,3,6.84,6.84,0,0,0,4.28,1.54h52.52l-.09.1,31.76-.1,26.95-32.32v32.32l26.81,0,21.7-32.46L276.11,453h25.81l.4-57s.17-3.72-.8-5-4.9-1.34-4.9-1.34" transform="translate(-107.67 -389.47)"/><path class="cls-1" d="M463.4,432.48c25.88,0,22.69-42.92-4.26-42.92l-48.08.1v0l-82.94-.23a29.49,29.49,0,0,0-6,.65,22.9,22.9,0,0,0-5.76,2,18.06,18.06,0,0,0-4.77,3.48c-1.37,1.42-3.59,4.15-3.72,7.73l-.34,38.36c-.18,3.89,2.07,7.75,3.29,8.65a12.09,12.09,0,0,0,4.45,2,24.42,24.42,0,0,0,5.58.69h43l13.28-17.61-43.64-.21.36-29.74,68.25.14h53.36c11.28,0,10.56,12.15,0,12.15s-59.35.23-59.35.23l-8,10.41h.13l-5.55,7.06-13.5,17.57,27.38,0L411.8,433h27.78l16.58,20.09,25.11,0Z" transform="translate(-107.67 -389.47)"/><path class="cls-1" d="M164,434.82s-.1,0-.07,0h-32l1.55-5.12h32.1c-.55,1.81-1.29,4.27-1.56,5.15m5.87-8.32a2.88,2.88,0,0,0-2.36-1.1H132.66a3.18,3.18,0,0,0-3.1,2.32l-2.22,7.33a2.88,2.88,0,0,0,.19,2.58,3.3,3.3,0,0,0,3,1.43H163.9a3.89,3.89,0,0,0,4.08-2.72l2.25-7.43a2.65,2.65,0,0,0-.39-2.41" transform="translate(-107.67 -389.47)"/></svg>