<svg id="Calque_1" data-name="Calque 1" xmlns="http://www.w3.org/2000/svg" viewBox="0 0 368.23 56.52"><defs><style>.cls-1{fill:#fff;fill-rule:evenodd;}</style></defs><path class="cls-1" d="M170.07,76.46h-68.7V19.94h66a8.27,8.27,0,0,1,3.5.81,15.33,15.33,0,0,1,3.22,2.06,10,10,0,0,1,2.51,2.68,6.07,6.07,0,0,1,1,3V42.33a22.18,22.18,0,0,1-.26,4.21,6.71,6.71,0,0,1-.9,1.8,5.37,5.37,0,0,1,3.76,4V67.86a5.37,5.37,0,0,1-1,3,11.49,11.49,0,0,1-2.42,2.68,14.76,14.76,0,0,1-3.23,2.06,8.23,8.23,0,0,1-3.49.81m-48.28-21v6.63H158.6l1.08-.72V55.86l-.45-.36H121.79m0-14.32H156l1.07-.63V35L156,34.27H121.79v6.91" transform="translate(-0.87 -19.94)"/><polyline class="cls-1" points="50.43 56.52 50.43 56.52 69.78 30.36 69.78 56.52 90.11 56.52 90.11 0 71.12 0 45.05 33.77 18.99 0 0 0 0 56.52 20.33 56.52 20.33 30.36 39.68 56.52 50.43 56.52"/><polyline class="cls-1" points="276.96 56.52 276.96 56.52 297.56 56.52 334.28 13.35 334.28 0 275.52 0 275.52 14.33 312.87 14.33 276.96 56.52"/><polyline class="cls-1" points="350.85 56.52 350.85 56.52 368.23 56.52 368.23 0 342.25 0 342.25 14.42 350.85 14.42 350.85 56.52"/><path class="cls-1" d="M210.73,57.29V76.46H190.31V19.94h65.84a8.15,8.15,0,0,1,3.4.81,15.14,15.14,0,0,1,3.23,2.06,10,10,0,0,1,2.5,2.68,6.1,6.1,0,0,1,1,3V45.83a8.57,8.57,0,0,1-1.7,5.37,11.29,11.29,0,0,1-4.3,3.58,21.78,21.78,0,0,1-5.82,2,34.75,34.75,0,0,1-5.56.54l25.17,19.17H246.92l-25.7-19.17H210.73m0-14.51H245a2.64,2.64,0,0,0,.72-.36c.09-.18.18-.18.18-.18V34.72c-.09-.27-.45-.36-.9-.45H210.73v8.51" transform="translate(-0.87 -19.94)"/></svg>