<svg id="Calque_1" data-name="Calque 1" xmlns="http://www.w3.org/2000/svg" viewBox="0 0 487.27 54.79"><defs><style>.cls-1{fill:#fff;fill-rule:evenodd;}</style></defs><polyline class="cls-1" points="23.68 54.79 23.68 54.79 23.68 14.08 0 14.08 0 0.25 67.59 0.25 67.59 14.08 43.3 14.08 43.3 54.79 23.68 54.79"/><polyline class="cls-1" points="77.27 54.79 77.27 54.79 77.27 0.25 96.88 0.25 96.88 40.96 144.85 40.96 144.85 54.79 77.27 54.79"/><path class="cls-1" d="M425.31,20.65h46.42a21.59,21.59,0,0,1,5.09.61,15.8,15.8,0,0,1,4.67,1.9A12.93,12.93,0,0,1,485,26.44a7.89,7.89,0,0,1,1.38,4.41v34A7.39,7.39,0,0,1,485,69.31a11.32,11.32,0,0,1-3.46,3.28,13.94,13.94,0,0,1-4.67,1.91,21.24,21.24,0,0,1-5.09.69H425.31a27.15,27.15,0,0,1-5.35-.61,14,14,0,0,1-4.58-1.81,10.12,10.12,0,0,1-3.46-3.2,8.27,8.27,0,0,1-1.3-4.75v-34h0a8.21,8.21,0,0,1,1.3-4.67A10.84,10.84,0,0,1,415.29,23,18,18,0,0,1,420,21.17a27.06,27.06,0,0,1,5.27-.52m40.37,40.62c.9,0,1-.6,1-.6V35.09s-.13-.61-1-.61h-34.4c-.9,0-1,.61-1,.61V60.67s.14.6,1,.6h34.4" transform="translate(0.85 -20.4)"/><path class="cls-1" d="M336.64,54.44c-7.49,0-11.58-4.61-11.58-9V30.85a7.29,7.29,0,0,1,1.39-4.49,10.76,10.76,0,0,1,3.37-3.2,13.8,13.8,0,0,1,4.75-2,21.39,21.39,0,0,1,5.19-.61h46.41a22,22,0,0,1,5.27.61A13.88,13.88,0,0,1,396.11,23a9.67,9.67,0,0,1,3.37,3.11,7.88,7.88,0,0,1,1.38,4.75V64.73a8.35,8.35,0,0,1-1.38,4.75,10.29,10.29,0,0,1-3.37,3.29,16.23,16.23,0,0,1-4.67,1.73,21.58,21.58,0,0,1-5.27.6H325.06V61.27h56.18V54.44h-44.6m9.17-13.74H380.2c.91,0,1-.6,1-.6V35s-.13-.61-1-.61H345.81c-.91,0-1,.61-1,.61v5.1s.13.6,1,.6" transform="translate(0.85 -20.4)"/><path class="cls-1" d="M251.08,54.44c-7.49,0-11.58-4.61-11.58-9V30.85a7.28,7.28,0,0,1,1.38-4.49,10.87,10.87,0,0,1,3.37-3.2,13.85,13.85,0,0,1,4.76-2,21.31,21.31,0,0,1,5.18-.61h46.42a22.1,22.1,0,0,1,5.27.61A13.75,13.75,0,0,1,310.54,23a9.5,9.5,0,0,1,3.37,3.11,7.82,7.82,0,0,1,1.39,4.75V64.73a8.28,8.28,0,0,1-1.39,4.75,10.1,10.1,0,0,1-3.37,3.29,16.06,16.06,0,0,1-4.66,1.73,21.58,21.58,0,0,1-5.27.6H239.5V61.27h56.18V54.44h-44.6M220,74.94a8,8,0,0,0,3.37-.78,14.72,14.72,0,0,0,3.11-1.9,9.9,9.9,0,0,0,2.33-2.68,5.15,5.15,0,0,0,.95-2.94v-15c0-1.13-.74-3-3.62-3.81a9,9,0,0,0,.86-1.81,19.68,19.68,0,0,0,.26-4V28.7a5.38,5.38,0,0,0-.95-2.85,8.91,8.91,0,0,0-2.42-2.68,14.69,14.69,0,0,0-3.11-2,8,8,0,0,0-3.37-.78h-63.7V74.94H220M207.44,40.36s-.14.61-1,.61h-33V34.32h33c.9,0,1,.6,1,.6v5.44m2.5,15v5.1s-.13.61-1,.61H173.38V54.8h35.53c.9,0,1,.6,1,.6m50.3-14.7h34.4c.9,0,1-.6,1-.6V35s-.14-.61-1-.61h-34.4c-.9,0-1,.61-1,.61v5.1s.13.6,1,.6" transform="translate(0.85 -20.4)"/></svg>