<?xml version="1.0" encoding="UTF-8"?>
<svg id="Calque_1" xmlns="http://www.w3.org/2000/svg" version="1.1" viewBox="0 0 309.1 51.6">
  <!-- Generator: Adobe Illustrator 29.3.1, SVG Export Plug-In . SVG Version: 2.1.0 Build 151)  -->
  <defs>
    <style>
      .st0 {
        fill: #fff;
      }
    </style>
  </defs>
  <path class="st0" d="M37.8,1.6c-.7-1-1.8-1.6-3.1-1.6h-18L3.3,6.6.4,13.2h12.5S0,51.2,0,51.2h20.4c2,0,3.7-1.3,4.4-3.2L38.3,5c.4-1.2.2-2.4-.5-3.4ZM35.1,3.9l-13.6,43c-.2.5-.6.8-1.1.8H4.7S17.6,9.8,17.6,9.8H5.6s.3-.7.3-.7l11.6-5.7h17.2c.1,0,.2,0,.3.2,0,0,0,.2,0,.3h0Z"/>
  <path class="st0" d="M182.6,0h-21.4C160.3,0,159.4.5,158.9,1.2l-15.5,22.5.3-22.3c0-.8-.6-1.4-1.4-1.4h-19.9c-1.3,0-2.5.6-3.3,1.6l-28.4,33.8h-38.4l.9-2.5h31.1c1.2,0,2.6-.2,4-.8,1.3-.5,2.7-1.1,3.9-1.9,1.2-.8,2.3-1.7,3.3-2.7,1-1.1,1.7-2.2,2.1-3.3l5-14.5h0c.3-1.3.3-2.5,0-3.6-.3-1.1-.8-2.2-1.5-3.1-.7-.9-1.7-1.6-2.8-2.1C97,.3,95.8,0,94.5,0h-49.7l-5.4,15.8h41.3l-.9,2.5h-30.3c-1.2,0-3.3.2-4.7.8-1.3.5-2.6,1.1-3.9,1.9s-2.4,1.7-3.3,2.7c-1,1-1.6,2.1-2,3.2l-8,23.1-.4,1.2h60.9s14.8,0,14.8,0l21.8-26.1v26.1h21.7l17.5-26.2v26.3c-.1,0,20.8,0,20.8,0l.3-48.8C185,1.1,183.9,0,182.6,0ZM80.2,47.8h-48.2l.3-.8,5.1-14.9,1.3-3.6c.2-.6.8-1.8,1.5-2.5.7-.8,1.6-1.5,2.6-2.2,1-.6,2.1-1.2,3.2-1.6,1-.4,2.8-.6,3.7-.6h32.7l3.2-9.3h-41.3l3.1-9h47.3c.8,0,1.5.2,2.2.5.7.3,1.2.7,1.6,1.3.4.5.7,1.1.8,1.7.1.6.1,1.2,0,1.8l-5,14.4c-.2.7-.7,1.4-1.3,2.1-.8.8-1.6,1.5-2.6,2.2-1,.6-2.1,1.2-3.2,1.6-1,.4-2,.6-2.8.6h-33.5l-3.2,9.3h40.3l-7.5,9h0Z"/>
  <path class="st0" d="M265.6.4c-.2-.2-.5-.4-.8-.4h-21c-.4,0-.7.5-.4.9l42,50.3c.2.3.6.4.9.4h21.9c.5,0,.7-.5.4-.9L265.6.4Z"/>
  <path class="st0" d="M308.5,0h-21.1c-.3,0-.7.2-.9.4l-8.5,9.8,11.9,13.8L309,.9c.3-.4,0-.9-.4-.9Z"/>
  <path class="st0" d="M248.6,44.5l-12.4-10.8c.3,0,.9-.2,1.8-.5,1.5-.4,2.9-1.1,4-1.9,1.2-.8,2.1-1.9,2.8-3.1.7-1.3,1.1-2.8,1.1-4.4V7.8c0-.8-.2-1.7-.8-2.6-.5-.9-1.1-1.8-1.9-2.5-.8-.8-1.6-1.4-2.6-1.9-.9-.5-1.8-.8-2.6-.8h-50.4v13.7h42c.4,0,.6.1.6.3v6.1c0,.2-.2.3-.6.3h-42v31h18.9v-17.6h4.8l19.7,17.6h0c0,0,35.7,0,35.7,0,.3,0,.6-.1.8-.4l7-8.3-12.1-14.3-13.7,15.9h0Z"/>
</svg>