<svg id="Calque_1" data-name="Calque 1" xmlns="http://www.w3.org/2000/svg" viewBox="0 0 445.48 76.31"><defs><style>.cls-1{fill:#fff;}</style></defs><title>7MWR</title><path class="cls-1" d="M99,455.72l28.15-56.09h-51l4.06-11.72,69.25,0H150c1.64,0,3.8.39,4.48,1.48.34.53-.28,3-1.46,5.11l0,.05-24.49,50.38-9.1,10.84H99Zm169.9-71.85h-25s-3.61-.15-5.14.69a11.57,11.57,0,0,0-3,2.85L213.94,419l.46-31.1s.26-2.32-.65-3.16a5,5,0,0,0-3.35-.92H183.63a14.59,14.59,0,0,0-3.63.46,7.44,7.44,0,0,0-2.38,2.15L139.25,432l17.32-35.63c.83-1.48,3.21-6.25,1.34-9.23s-6.19-3.4-7.94-3.4h-.56l-72.11,0-6.89,19.9h50.12L92.37,459.8h33.38l28.21-.06L186.29,421v38.76h32.14l26-38.92-.16,39h31l.48-68.41s.19-4.45-1-6-5.87-1.61-5.87-1.61" transform="translate(-70.41 -383.75)"/><path class="cls-1" d="M494.47,435.22c31,0,26.45-51-5.87-51l-81.25.19s-4.21-.12-5.65,1.18a72.14,72.14,0,0,0-5.14,5.63l-25.72,31.3V384.23H339.59L314.3,422.7l.16-38.57h-30l-.16,71s-.25,2.75.89,3.77a5.36,5.36,0,0,0,3.29,1.2l26.78-.06s3.82-.5,5.51-1.57a11.48,11.48,0,0,0,2.81-3.28L344,424.45l-.13,29s-.17,3.11,1.06,4.42S349,460,349,460h22.81a23.12,23.12,0,0,0,5-1.35c1.87-.89,4.24-3.77,4.24-3.77l42.63-51.8h61.12c13.51,0,12.67,14.57,0,14.57H464.21l-33.87.28L396.8,460h32.81L448,435.89H465.9L485.78,460h30.11Z" transform="translate(-70.41 -383.75)"/></svg>