<?xml version="1.0" encoding="UTF-8"?>
<svg id="Calque_1" xmlns="http://www.w3.org/2000/svg" version="1.1" viewBox="0 0 309.1 50.7">
  <!-- Generator: Adobe Illustrator 29.3.1, SVG Export Plug-In . SVG Version: 2.1.0 Build 151)  -->
  <defs>
    <style>
      .st0 {
        fill: #fff;
      }
    </style>
  </defs>
  <path class="st0" d="M37.4,1.6C36.7.6,35.6,0,34.4,0h-17.9L3.3,6.5.4,13.1h12.3S0,50.7,0,50.7h20.2c2,0,3.7-1.3,4.3-3.1L37.9,5c.4-1.1.2-2.4-.5-3.4h0ZM34.7,3.9l-13.4,42.6c-.2.5-.6.8-1.1.8H4.7S17.4,9.7,17.4,9.7H5.5s.3-.7.3-.7l11.5-5.6h17.1c.1,0,.2,0,.3.2,0,0,0,.2,0,.3Z"/>
  <path class="st0" d="M201.9,0c-8.9,0-16.3,7.2-16.4,16.1-.2,8.9,7.5,16.7,16.7,16.7h31.7c.8,0,1.6.6,1.7,1.4,0,1-.7,1.8-1.6,1.8h-48.7c-.6,0-1-.5-1-1l.2-32.7C184.5,1.1,183.4,0,182.1,0h-21.2C160,0,159.1.5,158.6,1.2l-15.3,22.2.3-22.1c0-.8-.6-1.4-1.4-1.4h-19.7c-1.3,0-2.5.6-3.3,1.5l-28.2,33.5h-39.3l.9-2.5h30.8c1.2,0,2.6-.2,3.9-.8,1.3-.5,2.6-1.1,3.8-1.9,1.2-.8,2.3-1.7,3.3-2.7,1-1.1,1.7-2.2,2.1-3.3l4.9-14.4h0c.3-1.3.3-2.4,0-3.6-.3-1.1-.8-2.1-1.5-3-.7-.9-1.7-1.6-2.8-2.1-1.1-.5-2.3-.8-3.6-.8h-49.2l-5.3,15.6h40.9l-.9,2.5h-30c-1.2,0-3.3.2-4.7.8-1.3.5-2.6,1.1-3.8,1.9-1.2.8-2.3,1.7-3.3,2.7-.9,1-1.6,2.1-2,3.1l-7.9,22.9-.4,1.2h60.3s16.1,0,16.1,0l21.5-25.8v25.8h21.5l17.3-26v25.2c0,.5.3.8.7.8h19.8s49.5,0,49.5,0c9.1,0,16.6-7.4,16.5-16.5-.1-8.8-7.4-15.9-16.2-15.9h-32c-.9,0-1.8-.7-1.9-1.6-.1-1.1.7-2,1.8-2h53.6c.5,0,1,.2,1.3.6l29.3,35c.2.2.5.4.8.4h21.7c.5,0,.7-.5.4-.9L267.4,1.1c-.6-.7-1.5-1.1-2.4-1.1,0,0-63.1,0-63.1,0ZM32,46.5l5.1-14.7,1.2-3.6c.2-.6.8-1.8,1.5-2.5.7-.8,1.6-1.5,2.6-2.2,1-.6,2.1-1.2,3.2-1.6,1-.4,2.8-.5,3.6-.5h32.3l3.2-9.2h-40.9l3-8.9h46.8c.8,0,1.5.2,2.1.5.7.3,1.2.7,1.6,1.2.4.5.7,1.1.8,1.7.1.6.1,1.2,0,1.8l-4.9,14.3c-.2.7-.7,1.4-1.3,2.1-.8.8-1.6,1.5-2.6,2.2-1,.6-2.1,1.2-3.2,1.6-1,.4-2,.5-2.8.5h-33.2l-3.2,9.2h41.2l-7.5,8.9H31.7l.3-.8h0Z"/>
  <path class="st0" d="M309,1c.3-.4,0-.9-.4-.9h-19.3c-1.4,0-2.8.7-3.8,1.9l-6.7,7.8,11.8,13.7L309,1Z"/>
  <path class="st0" d="M244.8,50.6h22.6c.3,0,.6-.1.7-.3l6.9-8.2-11.9-14.1-18.8,21.8c-.3.3,0,.9.4.9h0Z"/>
</svg>