<?xml version="1.0" encoding="UTF-8"?><svg id="Calque_1" xmlns="http://www.w3.org/2000/svg" viewBox="0 0 28.35 3.32"><defs><style>.cls-1{fill:#fff;}</style></defs><path class="cls-1" d="M9.18,1.62c.03-.11-.04-.23-.16-.24-.04,0-.08,0-.11,0h-2.21c-.09,0-.16-.09-.12-.18l.16-.43c.09-.21.29-.35.52-.35h1.42s.89,0,.89,0c0,0,0,0,0,0,0-.02.08-.21.29-.33.04-.02.02-.08-.02-.08h-3.44c-.31,0-.59.19-.71.47l-.16.39h0s-.16.39-.16.39h0s-.06.16-.06.16c0,0,0,0,0,0-.05.21.11.43.34.43h2.06c.12,0,.21.13.16.24l-.17.5c-.06.16-.22.26-.39.26h-2.17,0s-3.6-.01-3.6-.01c-.14,0-.26-.07-.33-.18-.07-.12-.06-.27,0-.41l.54-1.31c.12-.27.4-.44.68-.44h1.51c.12,0,.19.11.14.22l-.14.41s0,0,0,0c-.07.16-.23.26-.4.26h-1.51s0,0,0,0l-.19.46s0,0,0,0h2.45c.29,0,.54-.15.63-.38l.25-.6h0s.11-.26.11-.26c.06-.14.03-.29-.07-.41C5.14.07,4.98,0,4.8,0H1.86c-.5,0-.95.27-1.11.66L.04,2.4c-.09.21-.04.43.11.61.15.17.38.27.63.28h3.83s0,0,0,0l3.57.02s.12,0,.19,0c.13,0,.25-.09.3-.21,0,0,0,0,0,0,0,0,.45-1.35.5-1.49,0,0,0,0,0,0Z"/><path class="cls-1" d="M22.81.4c-.01-.07-.03-.14-.07-.2-.04-.06-.09-.11-.15-.14-.06-.04-.13-.06-.21-.06h-2.92c-.07,0-.15.02-.23.05-.08.03-.15.07-.22.13-.07.05-.13.11-.19.18-.06.07-.1.14-.12.21l-.73,2.13c-.03.07-.03.15-.02.22,0,.07.03.14.07.2.04.06.09.11.15.14.06.04.13.06.21.06h2.92c.07,0,.15-.02.23-.05.08-.03.15-.07.22-.13.07-.05.13-.11.19-.18.06-.07.1-.14.12-.21l.73-2.13c.02-.07.03-.15.02-.22ZM22.57.56l-.73,2.13s-.04.1-.08.14c-.04.05-.09.1-.15.14-.06.04-.11.07-.17.1-.05.02-.1.03-.14.03h-2.92s-.07,0-.09-.03c-.03-.02-.06-.04-.08-.07-.02-.03-.03-.07-.04-.11,0-.04,0-.08.01-.12l.73-2.13s.04-.09.08-.14c.04-.05.09-.1.15-.14.06-.04.11-.07.17-.1.05-.02.1-.03.14-.03h2.92s.06,0,.09.02c.04.02.07.05.09.08.02.03.03.07.04.11,0,.04,0,.08-.01.12Z"/><path class="cls-1" d="M18.96,2.48h2.25s0,0,0,0l.47-1.38.08-.24s0,0,0,0h-2.26s0,0,0,0l-.55,1.62s0,0,0,0ZM21.46,1.08l-.41,1.18s0,0,0,0h-1.8s0,0,0,0l.41-1.18s0,0,0,0h1.8s0,0,0,0Z"/><path class="cls-1" d="M18.43.4c-.01-.07-.03-.14-.07-.2-.04-.06-.09-.11-.15-.14-.06-.04-.13-.06-.21-.06h-2.98c-.07,0-.15.02-.23.05-.08.03-.15.07-.22.13-.07.05-.13.11-.19.18-.06.07-.1.14-.12.21l-.67,2.13c-.03.07-.03.15-.02.22,0,.07.03.14.07.2.04.06.09.11.15.14.06.04.13.06.21.06h2.92c.07,0,.15-.02.23-.05.08-.03.15-.07.22-.13.07-.05.13-.11.19-.18.06-.07.1-.14.12-.21l.73-2.13c.02-.07.03-.15.02-.22ZM18.2.56l-.73,2.13s-.04.1-.08.14c-.04.05-.09.1-.15.14-.06.04-.11.07-.17.1-.05.02-.1.03-.14.03h-2.92s-.07,0-.09-.03c-.03-.02-.06-.04-.08-.07-.02-.03-.03-.07-.04-.11,0-.04,0-.08.01-.12l.67-2.13s.04-.09.08-.14c.04-.05.09-.1.15-.14.06-.04.11-.07.17-.1.05-.02.1-.03.14-.03h2.98s.06,0,.09.02c.04.02.07.05.09.08.02.03.03.07.04.11,0,.04,0,.08-.01.12Z"/><path class="cls-1" d="M14.58,2.48h2.22s0,0,0,0l.47-1.38.08-.24s0,0,0,0h-2.26s0,0,0,0l-.52,1.62s0,0,0,0ZM17.06,1.08l-.41,1.18s0,0,0,0h-1.76s0,0,0,0l.37-1.18s0,0,0,0h1.8s0,0,0,0Z"/><path class="cls-1" d="M13.41,0h-2.78C10.22,0,9.85.26,9.73.65l-.24.73c-.11.35.15.7.51.7.88,0,2.22,0,2.22,0l-.1.32s0,0,0,0h-2.97s0,0,0,0l-.3.89s0,0,0,0h3.36c.11,0,.22-.01.34-.03.12-.02.22-.06.32-.11.1-.05.19-.11.27-.19.08-.08.14-.18.17-.29l.62-1.98C14.04.36,13.78,0,13.41,0ZM13.71.64l-.62,1.99c-.02.07-.06.14-.11.19-.06.06-.13.11-.21.15-.08.04-.17.07-.27.09-.1.02-.2.03-.29.03h-3.02s0,0,0,0l.14-.42s0,0,0,0h2.77c.11,0,.22-.08.25-.19l.11-.4c.03-.1-.05-.21-.16-.21h-2.23c-.24,0-.41-.24-.34-.47l.21-.67c.09-.29.36-.49.67-.49h2.77c.1,0,.2.04.26.13s.08.18.05.28Z"/><path class="cls-1" d="M12.63.73h-1.68c-.13,0-.18.07-.19.12l-.11.34s-.02.08,0,.12c.03.05.08.07.15.07h1.72s.12-.05.15-.14h0c.02-.06.06-.19.09-.28v-.05c.04-.07.01-.11,0-.13-.04-.05-.11-.05-.13-.05ZM12.46,1.14h-1.54s0,0,0,0l.05-.17s0,0,0,0h1.54s0,0,0,0c-.02.06-.04.12-.05.17,0,0,0,0,0,0Z"/><path class="cls-1" d="M23.72,2.32l.07-.22s-.01-.07-.05-.07h-1.24s-.04.01-.05.03l-.07.22s.01.07.05.07h.33s.06.03.05.07l-.27.83s.01.07.05.07h.28s.04-.01.05-.03l.29-.9s.03-.03.05-.03h.41s.04-.01.05-.03Z"/><path class="cls-1" d="M24.95,3h-.81s-.06-.03-.05-.07l.02-.06s.03-.04.05-.04h.43s.04-.01.05-.03l.07-.22s-.01-.07-.05-.07h-.36s-.06-.03-.05-.07l.02-.06s.03-.03.05-.03h.88s.04-.01.05-.03l.07-.22s-.01-.07-.05-.07h-1.23s-.04.01-.05.03l-.39,1.19s.01.07.05.07h1.23s.04-.01.05-.03l.07-.22s-.01-.07-.05-.07Z"/><path class="cls-1" d="M26.46,3h-.81s-.06-.03-.05-.07l.27-.84s-.01-.07-.05-.07h-.28s-.04.01-.05.03l-.39,1.19s.01.07.05.07h1.23s.04-.01.05-.03l.07-.22s-.01-.07-.05-.07Z"/><path class="cls-1" d="M28.3,2.04h-1.23s-.04.01-.05.03l-.39,1.19s.01.06.05.06h1.23s.04-.01.05-.03l.07-.22s-.01-.06-.05-.06h-.82s-.06-.03-.05-.06l.02-.06s.03-.03.05-.03h.43s.04-.01.05-.03l.07-.22s-.01-.06-.05-.06h-.36s-.06-.03-.05-.06l.02-.07s.03-.03.05-.03h.88s.04-.01.05-.03l.07-.22s-.01-.06-.05-.06Z"/></svg>