<svg viewBox="0 0 775.9 115.6" xmlns="http://www.w3.org/2000/svg"><path d="m28.4 115.6h85v-56.7h45.3v-56.7h-45.3z"/><path d="m0 87.2 110.6-85h-110.6z" fill="#0089c8"/><path d="m299.7 28.3h-26.9v70.3h-30.5v-70.3h-26.9v-26.1h84.3z"/><path d="m286.6 98.6 34.8-96.4h32.9l34.9 96.4h-31.5l-4.3-14h-31l-4.3 14zm51-65.4c-.4 2.8-1 5.5-1.9 8.2l-7 22.8h18.5l-7-22.8c-.9-2.7-1.5-5.4-1.9-8.2z"/><path d="m476.7 76.1c-6.1 13.7-19.6 22.4-34.5 22.4h-48.2v-96.3h48.2c14.9 0 28.5 8.8 34.5 22.5 3.6 8.1 5.5 16.9 5.5 25.7s-1.9 17.6-5.5 25.7zm-25.5-38.7c-2.5-6.6-8.8-11-15.9-11h-12.8v47.9h12.8c7 0 13.4-4.4 15.9-10.9 1.6-4.2 2.4-8.6 2.4-13s-.8-8.8-2.4-13z"/><path d="m547 98.6-4.3-14h-31.1l-4.3 14h-31.5l34.9-96.4h32.9l34.9 96.4zm-29.1-34.4h18.5l-7-22.8c-.9-2.7-1.5-5.4-1.9-8.2h-.7c-.4 2.8-1 5.5-1.9 8.2z"/><path d="m583.6 2.2h28.6l27 43.9c1.9 2.9 3.6 5.8 5.2 8.9h.7c-.2-2.2-.4-4.5-.4-6.8v-46h27.6v96.4h-28.6l-27-43.9c-1.9-2.9-3.6-5.9-5.2-8.9h-.7c.2 2.2.4 4.5.4 6.8v46h-27.6z"/><path d="m708.8 50.4c0-4.1.5-8.3 1.6-12.3 2-7.6 8.8-12.8 16.6-12.8s14.6 5.3 16.6 12.8c1 4 1.6 8.1 1.6 12.3s-.5 8.3-1.6 12.3c-2 7.6-8.8 12.8-16.6 12.8s-14.6-5.3-16.6-12.8c-1-4-1.6-8.1-1.6-12.3zm-24.3-26.5c-4.2 8.2-6.4 17.2-6.4 26.4s2.2 18.3 6.4 26.4c5.2 10.2 14.3 17.9 25.3 21.3 5.6 1.7 11.4 2.6 17.2 2.6s11.7-.9 17.2-2.6c11-3.4 20.1-11.1 25.3-21.3 4.2-8.2 6.4-17.2 6.4-26.4s-2.2-18.3-6.4-26.4c-5.2-10.2-14.3-17.9-25.3-21.3-5.6-1.7-11.4-2.6-17.2-2.6s-11.7.9-17.2 2.6c-11 3.4-20.1 11.1-25.3 21.3z"/></svg>