<svg id="acc72200-0f07-4972-9a72-7b1c7aea2ffc" data-name="Calque 1" xmlns="http://www.w3.org/2000/svg" viewBox="0 0 213.89 29.68"><defs><style>.b17df209-161c-462c-abed-ad098cb07509{fill:#fff;}</style></defs><polygon class="b17df209-161c-462c-abed-ad098cb07509" points="25.26 0 0 29.59 11.23 29.59 26.51 11.7 26.51 19.2 35.06 19.21 35.06 0 25.26 0"/><path class="b17df209-161c-462c-abed-ad098cb07509" d="M67.36,10.67H47a1.07,1.07,0,0,1,0-2.13H72L74.85,0H47a9.61,9.61,0,1,0,0,19.21H67.36a.94.94,0,1,1,0,1.88H21.13L13.66,29.6l3.15,0H67.36a9.48,9.48,0,1,0,0-19"/><path class="b17df209-161c-462c-abed-ad098cb07509" d="M79,28.1l9.65,0a1.14,1.14,0,0,0,1.07-.77L97.57,2.4A.65.65,0,0,0,97,1.54H86.87l-6.94,3.4-.5,1.16h7ZM84.3,7.63H77.08l1.67-3.83L86.51,0H97A2.18,2.18,0,0,1,99,2.9L91.17,27.81a2.69,2.69,0,0,1-2.53,1.81l-11.81,0Z"/><path class="b17df209-161c-462c-abed-ad098cb07509" d="M105.05,20.61h17l3.86-11.46H109ZM103,22.12l.67-2.15L107.9,7.64H128l-.77,2.17-4.14,12.31Z"/><path class="b17df209-161c-462c-abed-ad098cb07509" d="M107.21,1.63a3.89,3.89,0,0,0-1.44.33,7.78,7.78,0,0,0-1.65.94,8,8,0,0,0-1.4,1.33,4.37,4.37,0,0,0-.81,1.39l-6,19a2.93,2.93,0,0,0-.14,1.3,2.7,2.7,0,0,0,.42,1.14,2.42,2.42,0,0,0,.83.79,2.1,2.1,0,0,0,1.07.29h25.73a3.89,3.89,0,0,0,1.44-.33,8,8,0,0,0,1.65-.94,8.35,8.35,0,0,0,1.4-1.32,4.72,4.72,0,0,0,.81-1.4l6-19a2.94,2.94,0,0,0,.13-1.3,2.83,2.83,0,0,0-.41-1.14,2.54,2.54,0,0,0-.84-.79,2,2,0,0,0-1.06-.29Zm-9.1,28a3.54,3.54,0,0,1-1.83-.5,3.88,3.88,0,0,1-1.34-1.27,4.14,4.14,0,0,1-.64-1.75,4.27,4.27,0,0,1,.2-2l6-19a6,6,0,0,1,1.08-1.89,10.29,10.29,0,0,1,1.66-1.57,9.23,9.23,0,0,1,2-1.12,5.34,5.34,0,0,1,2-.45h25.7a3.62,3.62,0,0,1,1.82.49,4,4,0,0,1,1.34,1.27,4.25,4.25,0,0,1,.65,1.76,4.35,4.35,0,0,1-.2,2l-6,19a5.86,5.86,0,0,1-1.08,1.89,9.52,9.52,0,0,1-1.66,1.57,9.3,9.3,0,0,1-2,1.12,5.21,5.21,0,0,1-2,.45Z"/><path class="b17df209-161c-462c-abed-ad098cb07509" d="M143.58,20.66h16.84L164.21,9.2H147.36Zm-2.06,1.51.67-2.15,4.09-12.34h20.06l-.77,2.17-4.06,12.31Z"/><path class="b17df209-161c-462c-abed-ad098cb07509" d="M145.59,1.63a3.93,3.93,0,0,0-1.44.33,7.71,7.71,0,0,0-1.64.94,8,8,0,0,0-1.4,1.33,4.19,4.19,0,0,0-.81,1.39l-6,19a2.79,2.79,0,0,0-.14,1.3,2.83,2.83,0,0,0,.41,1.14,2.45,2.45,0,0,0,.84.79,2.1,2.1,0,0,0,1.07.29h25.91a3.89,3.89,0,0,0,1.44-.33,7.6,7.6,0,0,0,1.65-.94,7.92,7.92,0,0,0,1.39-1.32,4.45,4.45,0,0,0,.82-1.4l6-19a3,3,0,0,0,.14-1.3,2.7,2.7,0,0,0-.42-1.14,2.42,2.42,0,0,0-.83-.79,2,2,0,0,0-1.07-.29Zm-9.14,28.05a3.54,3.54,0,0,1-1.83-.5,3.88,3.88,0,0,1-1.34-1.27,4.14,4.14,0,0,1-.64-1.75,4.25,4.25,0,0,1,.19-2l6-19A5.78,5.78,0,0,1,140,3.26a9.52,9.52,0,0,1,1.66-1.57,9,9,0,0,1,2-1.12,5.29,5.29,0,0,1,2-.45h25.87a3.66,3.66,0,0,1,1.83.49,4.17,4.17,0,0,1,1.34,1.27,4.33,4.33,0,0,1,.44,3.74l-6,19A6,6,0,0,1,168,26.54a9.2,9.2,0,0,1-1.67,1.57,8.65,8.65,0,0,1-2,1.13,5.42,5.42,0,0,1-2,.44Z"/><path class="b17df209-161c-462c-abed-ad098cb07509" d="M181.86,20.57h17l3.95-11.46H185.67Zm-2.06,1.51.67-2.15L184.59,7.6H205l-.77,2.17-4.24,12.31Z"/><path class="b17df209-161c-462c-abed-ad098cb07509" d="M184.08,1.59a3.89,3.89,0,0,0-1.44.33,7.78,7.78,0,0,0-1.65.94,8.35,8.35,0,0,0-1.4,1.32,4.52,4.52,0,0,0-.81,1.4l-6,19a2.93,2.93,0,0,0-.14,1.3,2.7,2.7,0,0,0,.42,1.14,2.42,2.42,0,0,0,.83.79,2.1,2.1,0,0,0,1.07.29H200.4a3.84,3.84,0,0,0,1.44-.33,7.78,7.78,0,0,0,1.65-.94,8.41,8.41,0,0,0,1.4-1.33,4.49,4.49,0,0,0,.81-1.4l6.52-19a2.79,2.79,0,0,0,.13-1.3,2.94,2.94,0,0,0-.41-1.14,2.64,2.64,0,0,0-.84-.79A2.08,2.08,0,0,0,210,1.59ZM175,29.6a3.63,3.63,0,0,1-1.83-.49,3.91,3.91,0,0,1-1.34-1.28,4.14,4.14,0,0,1-.64-1.75,4.27,4.27,0,0,1,.2-2l6-19a5.74,5.74,0,0,1,1.08-1.88,9.52,9.52,0,0,1,1.66-1.57,9.73,9.73,0,0,1,2-1.13,5.47,5.47,0,0,1,2-.44h26a3.53,3.53,0,0,1,1.82.49,4,4,0,0,1,1.34,1.27,4.25,4.25,0,0,1,.65,1.76,4.35,4.35,0,0,1-.2,2l-6.52,19a5.92,5.92,0,0,1-1.08,1.88,9.48,9.48,0,0,1-3.63,2.69,5.3,5.3,0,0,1-2,.45Z"/></svg>