<?xml version="1.0" encoding="utf-8"?>
<svg width="248" height="80" viewBox="0 20 248 80" fill="none" xmlns="http://www.w3.org/2000/svg">
  <path fill-rule="evenodd" clip-rule="evenodd" d="M50.8279 71.3849H62.0569C62.0569 70.5238 62.068 69.1186 62.0872 67.1703C62.1079 65.2225 62.1158 63.8465 62.1158 63.0417H86.991V57.2684H62.1158V54.5658H87.1322V48.9231H50.8279V71.3849Z" fill="white" />
  <path fill-rule="evenodd" clip-rule="evenodd" d="M88.9604 62.9075C88.9604 63.1867 88.9668 65.4387 88.9668 65.7758C88.9668 67.2729 89.3203 68.2868 89.6749 68.8305C90.4229 69.9724 91.4305 70.7113 93.1718 71.049C94.2771 71.2725 96.158 71.385 98.815 71.385H115.014C117.505 71.385 119.189 71.3287 120.07 71.2157C121.622 71.0123 122.658 70.5425 123.65 69.8131C124.38 69.2695 125.059 68.41 125.207 67.2299C125.244 66.8933 125.264 65.6388 125.264 63.4686V48.9232H113.753V60.7176C113.753 60.7739 113.765 63.4713 113.746 63.9852C113.722 64.6589 113.478 64.9949 113.316 65.1579C113.056 65.4164 112.609 65.6803 111.281 65.7434H106.117H104.346C103.504 65.7625 102.84 65.7535 102.353 65.7169C101.66 65.6797 101.153 65.4737 100.866 65.1616C100.565 64.8393 100.461 64.5437 100.461 63.3879C100.461 63.1267 100.473 61.3966 100.473 61.2087V48.9232H88.9604V62.9075Z" fill="white" />
  <path fill-rule="evenodd" clip-rule="evenodd" d="M132.727 48.9233C131.142 49.0646 130.03 49.4356 129.246 50.0191C128.252 50.7586 127.101 52.073 127.075 54.1588C127.058 55.4706 127.085 65.1256 127.085 65.1256C127.127 67.7614 127.414 68.3889 127.865 69.0058C128.687 70.1105 129.987 70.9934 132.064 71.2726C133 71.4058 135.124 71.3851 138.342 71.3851H163.358V65.7435H146.122C145.784 65.7435 143.139 65.751 142.745 65.751C140.91 65.751 139.564 65.5737 138.875 64.9764C138.058 64.2672 138.003 63.3918 138.003 61.4302C138.003 61.4302 138.003 56.9109 138.005 56.8302C138.043 55.9027 138.762 55.3177 139.548 54.9822C140.149 54.7396 141.057 54.618 142.274 54.618H143.537H144.884H163.358V48.9233H132.727Z" fill="white" />
  <path fill-rule="evenodd" clip-rule="evenodd" d="M165.155 71.3849H176.528V63.1197H190.593V71.3849H201.935V48.9231H190.593V57.2939H176.528V48.9231H165.155V71.3849Z" fill="white" />
  <path fill-rule="evenodd" clip-rule="evenodd" d="M209.438 48.9233C206.53 49.0014 203.729 49.9092 203.729 54.455C203.712 54.9525 203.735 58.2221 203.752 58.5008C203.827 59.3619 204.078 60 204.357 60.4322C205.087 61.5534 206.359 62.3019 208.175 62.6772C209.371 62.9193 211.293 63.0419 213.929 63.0419H223.223L228.728 63.0674C229.355 63.1348 230.114 63.4783 230.114 64.3755C230.114 65.2376 229.406 65.6331 228.68 65.6347C227.792 65.6984 221.222 65.665 220.753 65.665H203.851V71.3851H229.148C232.424 71.3851 234.523 71.4133 235.364 71.2869C237.761 70.9291 240.276 68.6862 240.276 65.8035C240.276 65.4479 240.348 65.459 240.276 62.897C240.164 58.95 237.964 57.9647 235.72 57.4805C234.427 57.1991 232.563 57.2687 229.288 57.2687H218.057C216.915 57.2687 217.022 57.2687 216.6 57.2623C215.973 57.2708 215.175 56.8604 215.143 55.9643C215.16 55.1462 215.783 54.5941 216.507 54.5697C216.712 54.566 216.915 54.566 218.114 54.566H240.239V48.9233C240.239 48.9233 209.862 48.926 209.438 48.9233Z" fill="white" />
  <path fill-rule="evenodd" clip-rule="evenodd" d="M21.2148 79.6363C10.5055 79.6363 1.79329 70.9225 1.79329 60.2127C1.79329 49.5028 10.5055 40.7912 21.2148 40.7912C31.9225 40.7912 40.6357 49.5028 40.6357 60.2127C40.6357 70.9225 31.9225 79.6363 21.2148 79.6363ZM21.2148 39C9.51857 39 0 48.5164 0 60.2127C0 71.9121 9.51857 81.4269 21.2148 81.4269C32.9121 81.4269 42.4274 71.9121 42.4274 60.2127C42.4274 48.5164 32.9121 39 21.2148 39Z" fill="white" />
  <path fill-rule="evenodd" clip-rule="evenodd" d="M29.2833 53.0931L27.0993 62.2926L24.8123 63.7276L22.1186 74.2405H20.3051L17.7946 63.8794L15.2018 62.2677L13.2397 53.0623L16.5821 56.908H25.8761L29.2833 53.0931ZM17.3943 55.1285L10.0593 46.694L13.6193 63.3788L16.236 65.0054L16.7414 67.0859L14.2569 66.1006L14.8111 68.1588L17.2388 69.1361L17.4437 69.9823L15.1042 69.0544L15.6621 71.1136L17.9374 72.032L18.1206 72.7822L15.9578 71.9269L16.5131 73.9841L18.6159 74.8303L18.9047 76.021H23.4989L23.8126 74.7979L26.0492 73.8954L26.6066 71.8346L24.3398 72.7344L24.5341 71.9811L26.9039 71.0245L27.4602 68.9647L25.0618 69.9181L25.281 69.0671L27.7512 68.0701L28.307 66.0093L25.8098 67.0015L26.3592 64.8584L28.6611 63.4123L32.6379 46.6589L25.0787 55.1285H17.3943Z" fill="white" />
  <path fill-rule="evenodd" clip-rule="evenodd" d="M20.6461 61.5611L16.6141 61.5558L20.644 64.2372L20.6461 61.5611Z" fill="white" />
  <path fill-rule="evenodd" clip-rule="evenodd" d="M25.8576 61.5449L21.8246 61.555L21.8288 64.228L25.8576 61.5449Z" fill="white" />
  <path fill-rule="evenodd" clip-rule="evenodd" d="M149.239 84.7412H152.082L150.684 80.8281H150.661L149.239 84.7412ZM150.073 79.8179H151.307L154.586 88.2083H153.352L152.435 85.6814H148.887L147.946 88.2083H146.794L150.073 79.8179Z" fill="white" />
  <path fill-rule="evenodd" clip-rule="evenodd" d="M161.195 80.7572H158.397V79.8175H165.108V80.7572H162.311V88.2085H161.195V80.7572Z" fill="white" />
  <path fill-rule="evenodd" clip-rule="evenodd" d="M166.346 79.8177H172.14V80.7574H167.462V83.4256H171.822V84.3657H167.462V87.268H172.175V88.2087H166.346V79.8177Z" fill="white" />
  <path fill-rule="evenodd" clip-rule="evenodd" d="M177.277 83.6837C178.324 83.6837 179.217 83.4135 179.217 82.1914C179.217 81.3696 178.77 80.7575 177.724 80.7575H174.951V83.6837H177.277ZM173.834 79.8179H177.783C179.357 79.8179 180.333 80.6752 180.333 82.0152C180.333 83.0254 179.887 83.8599 178.876 84.1424V84.1657C179.851 84.3537 180.051 85.0709 180.134 85.8932C180.204 86.716 180.157 87.6329 180.627 88.2083H179.381C179.064 87.868 179.24 86.9629 179.076 86.14C178.958 85.3172 178.759 84.6239 177.677 84.6239H174.951V88.2083H173.834V79.8179Z" fill="white" />
  <path fill-rule="evenodd" clip-rule="evenodd" d="M182.193 79.8177H187.987V80.7574H183.309V83.4256H187.669V84.3657H183.309V87.268H188.022V88.2087H182.193V79.8177Z" fill="white" />
  <path fill-rule="evenodd" clip-rule="evenodd" d="M191.679 83.8951L188.917 79.8175H190.256L192.349 83.0967L194.535 79.8175H195.781L193.007 83.8951L195.957 88.2085H194.593L192.337 84.7414L190.01 88.2085H188.752L191.679 83.8951Z" fill="white" />
  <path fill-rule="evenodd" clip-rule="evenodd" d="M201.861 87.2682H204.658C205.622 87.2682 206.232 86.6815 206.232 85.7637C206.232 84.6711 205.351 84.3659 204.411 84.3659H201.861V87.2682ZM201.861 83.4252H204.095C205.363 83.4252 205.88 82.9665 205.88 82.0852C205.88 80.9221 205.058 80.7575 204.095 80.7575H201.861V83.4252ZM200.744 79.8179H203.788C204.529 79.8179 205.504 79.8179 206.009 80.1231C206.562 80.4517 206.997 81.0516 206.997 81.8739C206.997 82.7674 206.527 83.4374 205.751 83.7548V83.7777C206.785 83.9889 207.349 84.7651 207.349 85.7992C207.349 87.034 206.468 88.2083 204.8 88.2083H200.744V79.8179Z" fill="white" />
  <path fill-rule="evenodd" clip-rule="evenodd" d="M212.546 83.6837C213.593 83.6837 214.486 83.4135 214.486 82.1914C214.486 81.3696 214.039 80.7575 212.993 80.7575H210.219V83.6837H212.546ZM209.103 79.8179H213.051C214.626 79.8179 215.602 80.6752 215.602 82.0152C215.602 83.0254 215.155 83.8599 214.145 84.1424V84.1657C215.12 84.3537 215.32 85.0709 215.402 85.8932C215.473 86.716 215.426 87.6329 215.896 88.2083H214.65C214.332 87.868 214.509 86.9629 214.345 86.14C214.227 85.3172 214.027 84.6239 212.946 84.6239H210.219V88.2083H209.103V79.8179Z" fill="white" />
  <path fill-rule="evenodd" clip-rule="evenodd" d="M218.907 84.7412H221.75L220.353 80.8281H220.329L218.907 84.7412ZM219.741 79.8179H220.976L224.254 88.2083H223.021L222.103 85.6814H218.555L217.614 88.2083H216.463L219.741 79.8179Z" fill="white" />
  <path fill-rule="evenodd" clip-rule="evenodd" d="M225.374 79.8177H226.561L230.98 86.622H231.003V79.8177H232.061V88.2087H230.838L226.455 81.4746H226.431V88.2087H225.374V79.8177Z" fill="white" />
  <path fill-rule="evenodd" clip-rule="evenodd" d="M235.296 87.2682H237.153C237.916 87.2682 239.973 87.0574 239.973 83.9661C239.973 81.9684 239.232 80.7575 237.176 80.7575H235.296V87.2682ZM234.179 79.8179H237.058C239.644 79.8179 241.089 81.11 241.089 83.8127C241.089 86.6221 239.855 88.2083 237.058 88.2083H234.179V79.8179Z" fill="white" />
  <path fill-rule="evenodd" clip-rule="evenodd" d="M149.239 84.7412H152.082L150.684 80.8281H150.661L149.239 84.7412ZM150.073 79.8179H151.307L154.586 88.2083H153.352L152.435 85.6814H148.887L147.946 88.2083H146.794L150.073 79.8179Z" fill="white" />
  <path fill-rule="evenodd" clip-rule="evenodd" d="M161.195 80.7572H158.397V79.8175H165.108V80.7572H162.311V88.2085H161.195V80.7572Z" fill="white" />
  <path fill-rule="evenodd" clip-rule="evenodd" d="M166.346 79.8177H172.14V80.7574H167.462V83.4256H171.822V84.3657H167.462V87.268H172.175V88.2087H166.346V79.8177Z" fill="white" />
  <path fill-rule="evenodd" clip-rule="evenodd" d="M177.277 83.6837C178.324 83.6837 179.217 83.4135 179.217 82.1914C179.217 81.3696 178.77 80.7575 177.724 80.7575H174.951V83.6837H177.277ZM173.834 79.8179H177.783C179.357 79.8179 180.333 80.6752 180.333 82.0152C180.333 83.0254 179.887 83.8599 178.876 84.1424V84.1657C179.851 84.3537 180.051 85.0709 180.134 85.8932C180.204 86.716 180.157 87.6329 180.627 88.2083H179.381C179.064 87.868 179.24 86.9629 179.076 86.14C178.958 85.3172 178.759 84.6239 177.677 84.6239H174.951V88.2083H173.834V79.8179Z" fill="white" />
  <path fill-rule="evenodd" clip-rule="evenodd" d="M182.193 79.8177H187.987V80.7574H183.309V83.4256H187.669V84.3657H183.309V87.268H188.022V88.2087H182.193V79.8177Z" fill="white" />
  <path fill-rule="evenodd" clip-rule="evenodd" d="M191.679 83.8951L188.917 79.8175H190.256L192.349 83.0967L194.535 79.8175H195.781L193.007 83.8951L195.957 88.2085H194.593L192.337 84.7414L190.01 88.2085H188.752L191.679 83.8951Z" fill="white" />
  <path fill-rule="evenodd" clip-rule="evenodd" d="M201.861 87.2682H204.658C205.622 87.2682 206.232 86.6815 206.232 85.7637C206.232 84.6711 205.351 84.3659 204.411 84.3659H201.861V87.2682ZM201.861 83.4252H204.095C205.363 83.4252 205.88 82.9665 205.88 82.0852C205.88 80.9221 205.058 80.7575 204.095 80.7575H201.861V83.4252ZM200.744 79.8179H203.788C204.529 79.8179 205.504 79.8179 206.009 80.1231C206.562 80.4517 206.997 81.0516 206.997 81.8739C206.997 82.7674 206.527 83.4374 205.751 83.7548V83.7777C206.785 83.9889 207.349 84.7651 207.349 85.7992C207.349 87.034 206.468 88.2083 204.8 88.2083H200.744V79.8179Z" fill="white" />
  <path fill-rule="evenodd" clip-rule="evenodd" d="M212.546 83.6837C213.593 83.6837 214.486 83.4135 214.486 82.1914C214.486 81.3696 214.039 80.7575 212.993 80.7575H210.219V83.6837H212.546ZM209.103 79.8179H213.051C214.626 79.8179 215.602 80.6752 215.602 82.0152C215.602 83.0254 215.155 83.8599 214.145 84.1424V84.1657C215.12 84.3537 215.32 85.0709 215.402 85.8932C215.473 86.716 215.426 87.6329 215.896 88.2083H214.65C214.332 87.868 214.509 86.9629 214.345 86.14C214.227 85.3172 214.027 84.6239 212.946 84.6239H210.219V88.2083H209.103V79.8179Z" fill="white" />
  <path fill-rule="evenodd" clip-rule="evenodd" d="M218.907 84.7412H221.75L220.353 80.8281H220.329L218.907 84.7412ZM219.741 79.8179H220.976L224.254 88.2083H223.021L222.103 85.6814H218.555L217.614 88.2083H216.463L219.741 79.8179Z" fill="white" />
  <path fill-rule="evenodd" clip-rule="evenodd" d="M225.374 79.8177H226.561L230.98 86.622H231.003V79.8177H232.061V88.2087H230.838L226.455 81.4746H226.431V88.2087H225.374V79.8177Z" fill="white" />
  <path fill-rule="evenodd" clip-rule="evenodd" d="M235.296 87.2682H237.153C237.916 87.2682 239.973 87.0574 239.973 83.9661C239.973 81.9684 239.232 80.7575 237.176 80.7575H235.296V87.2682ZM234.179 79.8179H237.058C239.644 79.8179 241.089 81.11 241.089 83.8127C241.089 86.6221 239.855 88.2083 237.058 88.2083H234.179V79.8179Z" fill="white" />
  <path fill-rule="evenodd" clip-rule="evenodd" d="M244.367 68.5394H244.614C244.964 68.5394 245.183 68.5261 245.267 68.499C245.351 68.4719 245.418 68.4247 245.468 68.3573C245.517 68.2899 245.541 68.2134 245.541 68.1274C245.541 68.0435 245.518 67.9697 245.469 67.9044C245.422 67.8397 245.354 67.793 245.265 67.7648C245.177 67.7362 244.96 67.7224 244.614 67.7224H244.367V68.5394ZM243.759 70.2403V67.2472H244.367C244.936 67.2472 245.255 67.2499 245.324 67.2547C245.526 67.2716 245.682 67.3115 245.794 67.3746C245.905 67.4373 245.999 67.5328 246.073 67.6618C246.148 67.7903 246.185 67.9331 246.185 68.0902C246.185 68.3068 246.115 68.4911 245.974 68.6445C245.833 68.7979 245.635 68.8929 245.379 68.9296C245.47 68.9641 245.54 69.0012 245.589 69.0421C245.639 69.0825 245.706 69.1594 245.792 69.272C245.814 69.3017 245.887 69.4227 246.013 69.6362L246.366 70.2403H245.615L245.365 69.7545C245.195 69.428 245.056 69.2221 244.945 69.1377C244.835 69.0533 244.695 69.0108 244.525 69.0108H244.367V70.2403H243.759ZM245.037 66.4631C244.649 66.4631 244.277 66.5597 243.922 66.754C243.566 66.9478 243.285 67.2265 243.08 67.5896C242.875 67.9533 242.773 68.3334 242.773 68.731C242.773 69.126 242.873 69.5024 243.073 69.8607C243.273 70.2196 243.552 70.4988 243.911 70.7C244.268 70.9018 244.644 71.0026 245.037 71.0026C245.432 71.0026 245.809 70.9018 246.165 70.7C246.523 70.4988 246.802 70.2196 247.003 69.8607C247.204 69.5024 247.305 69.126 247.305 68.731C247.305 68.3334 247.202 67.9533 246.997 67.5896C246.792 67.2265 246.511 66.9478 246.154 66.754C245.797 66.5597 245.425 66.4631 245.037 66.4631ZM245.033 65.911C245.517 65.911 245.981 66.032 246.425 66.2736C246.869 66.5151 247.218 66.8623 247.472 67.3136C247.726 67.7654 247.853 68.2378 247.853 68.731C247.853 69.2215 247.729 69.6898 247.479 70.1352C247.231 70.5811 246.883 70.9283 246.438 71.1773C245.993 71.4257 245.524 71.551 245.033 71.551C244.542 71.551 244.074 71.4257 243.629 71.1773C243.184 70.9283 242.836 70.5811 242.587 70.1352C242.338 69.6898 242.213 69.2215 242.213 68.731C242.213 68.2378 242.341 67.7654 242.595 67.3136C242.849 66.8623 243.198 66.5151 243.642 66.2736C244.086 66.032 244.55 65.911 245.033 65.911Z" fill="white" />
</svg>