<?xml version="1.0" encoding="UTF-8"?><svg id="Calque_1" xmlns="http://www.w3.org/2000/svg" viewBox="0 0 15.28 2.11"><defs><style>.cls-1{fill:#fff;}</style></defs><path class="cls-1" d="M5.71,.88s-.05,0-.07,0h-1.4c-.06,0-.1-.06-.08-.11l.1-.27c.06-.13,.19-.22,.33-.22h.9L6.05,0h-1.98c-.2,0-.37,.12-.45,.3l-.1,.25h0l-.1,.24h0l-.04,.1c-.03,.14,.07,.27,.22,.27h1.31c.08,0,.13,.08,.1,.15l-.11,.32c-.04,.1-.14,.16-.24,.16H1c-.09,0-.17-.05-.21-.12-.04-.07-.04-.17,0-.26l.34-.83c.08-.17,.25-.28,.43-.28h.96c.08,0,.12,.07,.09,.14l-.09,.26c-.05,.1-.15,.16-.25,.17h-.96l-.12,.29h1.55c.18,0,.34-.1,.4-.24l.16-.38h0l.07-.17c.04-.09,.02-.18-.05-.26C3.26,.05,3.15,0,3.04,0H1.18C.86,0,.58,.17,.47,.42L.03,1.52c-.05,.13-.03,.27,.07,.39,.1,.11,.24,.17,.4,.18H2.92l2.26,.02h.12c.08,0,.16-.05,.19-.13h0s.29-.85,.32-.94h0c.02-.07-.03-.15-.1-.15Z"/><g><path class="cls-1" d="M7.17,.06s-.08-.06-.13-.06h-.73l-.55,.27-.12,.27h.51l-.52,1.55h.83c.08,0,.15-.05,.18-.13L7.19,.2s0-.1-.02-.14Zm-.11,.09l-.55,1.75s-.03,.03-.05,.03h-.64l.52-1.55h-.49v-.03l.48-.23h.7s0,0,.01,0c0,0,0,0,0,.01Z"/><path class="cls-1" d="M9.87,.26s-.02-.09-.05-.12c-.02-.04-.06-.07-.09-.09-.04-.02-.08-.03-.13-.03h-1.83s-.09,.01-.14,.03c-.05,.02-.1,.05-.14,.08-.04,.03-.08,.07-.12,.11-.04,.04-.06,.09-.08,.13l-.42,1.34s-.02,.09-.01,.14c0,.05,.02,.09,.05,.12,.02,.04,.06,.07,.09,.09,.04,.02,.08,.03,.13,.03h1.8s.09-.01,.14-.03c.05-.02,.1-.05,.14-.08,.04-.03,.08-.07,.12-.11,.04-.04,.06-.09,.08-.13l.46-1.34s.02-.09,.01-.14Zm-.14,.1l-.46,1.34s-.03,.06-.05,.09c-.03,.03-.06,.06-.09,.09-.03,.03-.07,.05-.11,.06-.03,.01-.06,.02-.09,.02h-1.8s-.04,0-.06-.02c-.02-.01-.04-.03-.05-.05-.01-.02-.02-.04-.02-.07,0-.03,0-.05,0-.08l.42-1.34s.03-.06,.05-.09c.03-.03,.06-.06,.09-.09,.03-.03,.07-.05,.11-.06,.03-.01,.06-.02,.09-.02h1.83s.04,0,.06,.02c.02,.01,.04,.03,.05,.05,.01,.02,.02,.04,.02,.07,0,.02,0,.05,0,.08Z"/><path class="cls-1" d="M7.52,1.41l-.05,.15h1.42l.3-.87,.05-.15h-1.43l-.3,.87Zm1.53-.73l-.26,.75h-1.13l.26-.75h1.13Z"/><path class="cls-1" d="M12.56,.26s-.02-.09-.05-.12c-.02-.04-.06-.07-.09-.09-.04-.02-.08-.03-.13-.03h-1.83s-.09,.01-.14,.03c-.05,.02-.1,.05-.14,.08-.04,.03-.08,.07-.12,.11-.04,.04-.06,.09-.08,.13l-.44,1.34s-.02,.09-.01,.14c0,.05,.02,.09,.05,.12,.02,.04,.06,.07,.09,.09,.04,.02,.08,.03,.13,.03h1.82s.09-.01,.14-.03c.05-.02,.1-.05,.14-.08,.04-.03,.08-.07,.12-.11,.04-.04,.06-.09,.08-.13l.46-1.34s.02-.09,.01-.14Zm-.14,.1l-.46,1.34s-.03,.06-.05,.09c-.03,.03-.06,.06-.09,.09-.03,.03-.07,.05-.11,.06-.03,.01-.06,.02-.09,.02h-1.82s-.04,0-.06-.02c-.02-.01-.04-.03-.05-.05-.01-.02-.02-.04-.02-.07,0-.03,0-.05,0-.08l.44-1.34s.03-.06,.05-.09c.03-.03,.06-.06,.09-.09,.03-.03,.07-.05,.11-.06,.03-.01,.06-.02,.09-.02h1.83s.04,0,.06,.02c.02,.01,.04,.03,.05,.05,.01,.02,.02,.04,.02,.07,0,.02,0,.05,0,.08Z"/><path class="cls-1" d="M10.2,1.41l-.05,.15h1.42l.3-.87,.05-.15h-1.43l-.3,.87Zm1.53-.73l-.26,.75h-1.13l.26-.75h1.13Z"/><path class="cls-1" d="M15.28,.25s-.02-.09-.05-.12c-.02-.04-.06-.07-.09-.09-.04-.02-.08-.03-.13-.03h-1.83s-.09,.01-.14,.03c-.05,.02-.1,.05-.14,.08-.04,.03-.08,.07-.12,.11-.04,.04-.06,.09-.08,.13l-.44,1.34s-.02,.09-.01,.14c0,.05,.02,.09,.05,.12,.02,.04,.06,.07,.09,.09,.04,.02,.08,.03,.13,.03h1.82s.09-.01,.14-.03c.05-.02,.1-.05,.14-.08,.04-.03,.08-.07,.12-.11,.04-.04,.06-.09,.08-.13l.46-1.34s.02-.09,.01-.14Zm-.14,.1l-.46,1.34s-.03,.06-.05,.09c-.03,.03-.06,.06-.09,.09-.03,.03-.07,.05-.11,.06-.03,.01-.06,.02-.09,.02h-1.82s-.04,0-.06-.02c-.02-.01-.04-.03-.05-.05-.01-.02-.02-.04-.02-.07,0-.03,0-.05,0-.08l.44-1.34s.03-.06,.05-.09c.03-.03,.06-.06,.09-.09,.03-.03,.07-.05,.11-.06,.03-.01,.06-.02,.09-.02h1.83s.04,0,.06,.02c.02,.01,.04,.03,.05,.05,.01,.02,.02,.04,.02,.07,0,.02,0,.05,0,.08Z"/><path class="cls-1" d="M12.92,1.41l-.05,.15h1.42l.3-.87,.05-.15h-1.43l-.3,.87Zm1.53-.73l-.26,.75h-1.13l.26-.75h1.13Z"/></g></svg>