<?xml version="1.0" encoding="UTF-8"?><svg id="a" xmlns="http://www.w3.org/2000/svg" viewBox="0 0 188.39 30.55"><defs><style>.b{fill:#fff;}</style></defs><path class="b" d="M62.8,0h-12.78c-.56,0-1.09,.28-1.41,.74l-9.23,13.41,.17-13.31c0-.46-.36-.83-.82-.83h-11.9c-.77,0-1.49,.34-1.99,.93L0,30.51H15.28l12.99-15.58v15.59h12.93l10.45-15.66-.06,15.69h12.45l.17-29.12C64.23,.64,63.59,0,62.8,0Z"/><path class="b" d="M70.99,.32c-.82,.21-1.55,.56-2.2,1.03-.65,.47-1.18,1.07-1.57,1.79-.39,.72-.59,1.58-.59,2.6V24.82c0,1.01,.2,1.88,.59,2.59,.39,.72,.91,1.31,1.57,1.79,.65,.47,1.39,.82,2.2,1.03,.82,.21,1.67,.32,2.55,.32h24.72v-8.26h-19.67c-.66,0-1.19-.53-1.19-1.19V9.47c0-.67,.54-1.21,1.21-1.21h19.65V0h-24.72c-.88,0-1.73,.11-2.55,.32Z"/><path class="b" d="M164.87,12.75c-.35-.54-.82-.98-1.39-1.31-.58-.34-1.22-.51-1.89-.51l-20.94,.02,.55-1.6h26.41l2.95-9.34h-30.95c-.64,0-1.34,.16-2.08,.46-.71,.29-1.4,.69-2.04,1.16-.64,.47-1.22,1.02-1.72,1.63-.52,.63-.9,1.28-1.12,1.94l-5.87,17.1h-14.84c-.41,0-.75-.33-.75-.75V.75c0-.41-.33-.75-.75-.75h-8.59c-.41,0-.75,.33-.75,.75V25.84c0,2.6,2.11,4.71,4.71,4.71h50.5c.61,0,1.27-.16,1.94-.48,.64-.3,1.25-.69,1.82-1.18,.56-.47,1.07-1.03,1.51-1.64,.45-.62,.78-1.26,1-1.91l2.73-8.72c.23-.69,.3-1.38,.21-2.05-.09-.67-.32-1.28-.67-1.82Zm-1.46,3.24l-2.73,8.74c-.15,.45-.39,.9-.71,1.35-.35,.48-.74,.91-1.18,1.28-.43,.37-.89,.67-1.36,.89-.4,.19-.78,.29-1.09,.29h-26.68c-.32,0-.6-.08-.87-.23-.3-.17-.53-.39-.71-.67-.19-.29-.31-.61-.36-.99-.05-.37-.01-.75,.12-1.14l6.74-19.64c.15-.44,.4-.88,.76-1.31,.4-.48,.86-.91,1.37-1.29,.51-.38,1.05-.69,1.61-.92,.49-.2,.95-.31,1.31-.31h28.19l-1.67,5.29h-26.37l-1.96,5.66,23.78-.02c.31,0,.6,.08,.87,.24,.29,.17,.53,.39,.71,.67,.18,.28,.3,.62,.36,.99,.05,.36,0,.74-.12,1.14Z"/><path class="b" d="M134.89,22.77h20.27l1.85-5.16h-20.27l-1.85,5.16Zm3.27-3.13h15.96l-.37,1.11h-15.96l.37-1.11Z"/><path class="b" d="M183.44,10.97l1.63-4.72h-9.14l-1.63,4.72h-5.03l-2.82,8.37h4.95l-1.65,4.76h9.13l1.65-4.76h4.81l3.03-8.37h-4.95Zm.79,6.37h-5.05l-1.69,4.9h-5.03l1.69-4.9h-5.03l1.47-4.38h5.07l1.67-4.84h5.02l-1.67,4.84h5.1l-1.56,4.38Z"/></svg>