<?xml version="1.0" encoding="UTF-8"?><svg id="Calque_1" xmlns="http://www.w3.org/2000/svg" viewBox="0 0 12.52 4.06"><defs><style>.cls-1{fill:#fff;}</style></defs><path class="cls-1" d="M11.86,1.93c-.01-.09-.04-.17-.09-.24s-.11-.13-.18-.17c-.08-.04-.16-.07-.25-.07h-2.78l.07-.21h3.5L12.52,0h-4.11C8.33,0,8.23.02,8.13.06c-.09.04-.19.09-.27.15s-.16.14-.23.22-.12.17-.15.26l-.54,1.59-.44-2.11C6.48.07,6.4,0,6.3,0h-.85C5.34,0,5.24.05,5.16.13l-2.4,2.8c-.05.06-.12.09-.19.09h-.35c-.09,0-.16-.09-.13-.18l.59-1.83h1.33l.84-1.01H.33l-.33,1.01h1.48l-.83,2.56c-.08.24.1.48.35.48h1.85c.18,0,.35-.08.47-.21l2.13-2.47.35,1.66h-1.39l-.88,1.03h7.1c.08,0,.17-.02.26-.06.08-.04.17-.09.24-.16.07-.06.14-.14.2-.22.06-.08.1-.17.13-.25l.36-1.16c.03-.09.04-.18.03-.27h.01ZM11.57,2.12l-.36,1.16c-.02.06-.05.12-.09.18-.05.06-.1.12-.16.17-.06.05-.12.09-.18.12-.05.03-.1.04-.14.04h-3.37l-.21-.99.69-2.01c.02-.06.05-.12.1-.17.05-.06.11-.12.18-.17.07-.05.14-.09.21-.12s.13-.04.17-.04h3.74l-.22.7h-3.5l-.26.75h3.15s.08,0,.12.03c.04.02.07.05.09.09.02.04.04.08.05.13,0,.05,0,.1-.02.15v-.02Z"/><path class="cls-1" d="M7.71,3.09h2.74l.28-.8h-2.74s-.28.8-.28.8ZM8.2,2.56h2.13l-.1.27h-2.12l.09-.27Z"/></svg>