<?xml version="1.0" encoding="UTF-8"?>
<svg id="a" data-name="Calque 1" xmlns="http://www.w3.org/2000/svg" viewBox="0 0 532.25 85.6">
  <defs>
    <style>
      .b {
        fill: #fff;
        stroke-width: 0px;
      }
    </style>
  </defs>
  <g>
    <path class="b" d="m532.2,1c-.4-1.1-2-1-2-1l-30,.2-19,21.9L469.2.4h-92.5l46.3,2.8s8.1.9,11.8,4.4c2.9,2.8,17.2,14.7,17.2,36.5,0,24.5-23.9,34.3-28.7,36.2-5.1,2-12,2.5-12,2.5l-38.7,2.2h87.9l15.3-17.5,7.7,17.5,33-.1-21.1-39.8,33.8-39.1s3.5-3.8,3-5"/>
    <path class="b" d="m411.8,60.7c2.5-.7,13.2-6,13.2-20.2,0-11.3-9.1-17.5-11.6-19.5-1.4-1.1-5.5-1.3-5.5-1.3h-14l.1,41.6h14.1c.1.1,2.1-.1,3.7-.6"/>
    <path class="b" d="m193.3,85.1h41.9l35.9-43v42.9h35.6l28.8-43.1-.2,43.2h34.3l.4-75.7s-.3-5.4-1.7-6.6c-2-1.8-5.8-1.8-5.8-1.8h-27.7s-4-.2-5.7.8c-1.7.9-3.3,3.2-3.3,3.2l-24.1,35,.5-34.4s.3-2.6-.7-3.5c-1.3-1.2-3.7-1-3.7-1h-29.6s-3,0-4,.5c-1.4.7-2.6,2.4-2.6,2.4l-37.6,42.8-30.7,38.3Z"/>
  </g>
  <g>
    <path class="b" d="m98.5,5.8h0c1.4,0,2.6.3,3.8.8,1.2.6,2.2,1.3,3,2.2s1.3,1.9,1.5,2.9c.2,1,.2,2-.2,3.1l-20.1,59.2c-1.3,3.9-5,6.6-9.2,6.6H6.7l5.4-15.8h57.9l1.1-3.3,1.7-5,2.2-6.4h-6.8l-51.1.1,4.8-13.8,52.3-.1h3.4l1.4-3.3,1.7-5,2.2-6.4h-6.8l-49.3.1,5.4-15.8,66.3-.1m0-4.8l-69.6.1h-.2l-8.7,25.5,56.1-.1-1.7,5-55.6.1h-.2l-8.2,23.5,58-.1-1.7,5H8.7L.1,85.1l-.1.3h77.4c6.2,0,11.7-3.9,13.7-9.8l20.1-59.1c.6-1.9.7-3.9.3-5.8-.4-1.8-1.3-3.5-2.6-5-1.2-1.4-2.8-2.6-4.5-3.4-1.8-.9-3.8-1.3-5.9-1.3h0Z"/>
    <path class="b" d="m114.7,70.3l-3.2,10c-.1.1-.2.2-.3.2-.2.1-.3.2-.5.2-.2.1-.4.1-.4.1h-9.3l3.3-10.1h0l.2-.2c.1-.1.2-.1.3-.1.2-.1.5-.1.7-.1h9.2m2.1-4.8h-11.3c-.6,0-1.2.1-1.8.2-.6.1-1.2.4-1.7.7-.5.3-1,.7-1.4,1.2s-.7,1.1-1,1.7l-4.1,12.5c-.2.7-.3,1.3-.2,1.7.1.5.3.9.7,1.2.3.3.8.6,1.2.7s1,.2,1.6.2h11.3c.5,0,1.1-.1,1.7-.2.6-.2,1.2-.4,1.7-.7.5-.3,1-.7,1.5-1.2.4-.5.8-1,1-1.6l4.1-12.5c.2-.6.2-1.2.1-1.6-.1-.5-.4-.9-.7-1.2s-.8-.6-1.2-.7c-.5-.3-1-.4-1.5-.4h0Z"/>
    <path class="b" d="m235.5,6l-4.2,12.5h-64.2l-1.1,3.3-3.4,9.7-2.2,6.4h55.2c1.1,0,2.1.2,3.1.7s1.7,1.1,2.3,1.8,1,1.5,1.2,2.3.2,1.5,0,2.3l-8.7,25.2c-.3,1-1,2-2,3.1-1.2,1.3-2.7,2.5-4.3,3.5-1.7,1.1-3.5,1.9-5.3,2.6-1.6.6-3.1.9-4.4.9h-70l4.2-12.5h64.2l1.1-3.3,3.4-9.7,2.2-6.4h-55.4c-2.1,0-3.9-.9-5.1-2.6-1.2-1.7-1.5-3.7-.8-5.7l11.7-34,82.5-.1m6.7-4.8h-92.7l-12.9,37.3c-1.2,3.4-.7,7.1,1.5,10.1,2.1,3,5.4,4.7,9,4.7h48.6l-3.4,9.7h-64.2l-7.5,22.1h76.7c1.9,0,3.9-.4,6-1.2s4.2-1.8,6.2-3.1,3.8-2.7,5.2-4.3c1.5-1.6,2.5-3.2,3-4.9l8.7-25.3c.4-1.6.5-3.2.1-4.8s-1.1-3-2.1-4.3c-1-1.2-2.4-2.3-3.9-3-1.6-.8-3.3-1.2-5.2-1.2h-48.4l3.4-9.7h64.2l7.7-22.1h0Z"/>
  </g>
</svg>