<svg id="Calque_1" data-name="Calque 1" xmlns="http://www.w3.org/2000/svg" viewBox="0 0 487.27 54.82"><defs><style>.cls-1{fill:#fff;fill-rule:evenodd;}</style></defs><polyline class="cls-1" points="23.66 54.74 23.66 54.74 23.66 14.07 0 14.07 0 0.25 67.53 0.25 67.53 14.07 43.26 14.07 43.26 54.74 23.66 54.74"/><polyline class="cls-1" points="77.2 54.74 77.2 54.74 77.2 0.25 96.8 0.25 96.8 40.92 144.72 40.92 144.72 54.74 77.2 54.74"/><path class="cls-1" d="M220.62,74.85H154.39V20.36H218a7.93,7.93,0,0,1,3.37.78,14.69,14.69,0,0,1,3.11,2,8.87,8.87,0,0,1,2.42,2.67,5.38,5.38,0,0,1,.95,2.85V42a19.63,19.63,0,0,1-.26,4,9.23,9.23,0,0,1-.86,1.81c2.88.77,3.62,2.67,3.62,3.8V66.56a5.15,5.15,0,0,1-.95,2.94,9.71,9.71,0,0,1-2.33,2.67,14.32,14.32,0,0,1-3.11,1.9,7.93,7.93,0,0,1-3.37.78M208.1,40.31V34.87s-.13-.6-1-.6h-33v6.64h33c.9,0,1-.6,1-.6m2.51,15s-.14-.6-1-.6H174.08V61h35.49c.9,0,1-.6,1-.6v-5.1" transform="translate(0 -20.36)"/><path class="cls-1" d="M312.5,48c2.88.77,3.71,2.42,3.71,3.54v15a4.94,4.94,0,0,1-.94,2.94,9.92,9.92,0,0,1-2.34,2.67,14.44,14.44,0,0,1-3.11,2,8,8,0,0,1-3.45.78H249.9a8.36,8.36,0,0,1-3.46-.78,14.09,14.09,0,0,1-3-2,9.71,9.71,0,0,1-2.33-2.67,5.34,5.34,0,0,1-1-2.94v-15c0-1.12.83-2.77,3.71-3.54a3.88,3.88,0,0,1-.6-.86,5.22,5.22,0,0,1-.35-1,8.45,8.45,0,0,1-.17-1.56V28.65h0a5.24,5.24,0,0,1,.86-2.85,12.71,12.71,0,0,1,5.53-4.57,8,8,0,0,1,3.37-.78h51.38a7.92,7.92,0,0,1,3.36.78,13.72,13.72,0,0,1,3.11,1.9,9.76,9.76,0,0,1,2.42,2.67,5.38,5.38,0,0,1,.95,2.85V42.12a18.07,18.07,0,0,1-.09,2.25,8.13,8.13,0,0,1-.17,1.73A3.6,3.6,0,0,1,312.5,48m-49.22-7.08H293c.9,0,1-.6,1-.6V34.87s-.13-.6-1-.6H263.28c-.9,0-1,.6-1,.6v5.44s.13.6,1,.6M296.7,60.43v-5.1s-.14-.6-1-.6H260.87c-.91,0-1,.6-1,.6v5.1s.13.6,1,.6h34.79c.9,0,1-.6,1-.6" transform="translate(0 -20.36)"/><path class="cls-1" d="M398.49,48c2.88.77,3.71,2.42,3.71,3.54v15a5,5,0,0,1-.95,2.94,9.71,9.71,0,0,1-2.33,2.67,14.44,14.44,0,0,1-3.11,2,8,8,0,0,1-3.45.78H335.89a8.36,8.36,0,0,1-3.46-.78,14.09,14.09,0,0,1-3-2,9.71,9.71,0,0,1-2.33-2.67,5.34,5.34,0,0,1-.95-2.94v-15c0-1.12.83-2.77,3.71-3.54a3.57,3.57,0,0,1-.6-.86,5.22,5.22,0,0,1-.35-1,8.45,8.45,0,0,1-.17-1.56V28.65h0a5.24,5.24,0,0,1,.86-2.85,12.71,12.71,0,0,1,5.53-4.57,7.93,7.93,0,0,1,3.37-.78h51.38a7.92,7.92,0,0,1,3.36.78,13.94,13.94,0,0,1,3.11,1.9,9.92,9.92,0,0,1,2.42,2.67,5.38,5.38,0,0,1,.95,2.85V42.12a18.07,18.07,0,0,1-.09,2.25,8.13,8.13,0,0,1-.17,1.73,3.6,3.6,0,0,1-.95,1.89m-49.22-7.08H379c.9,0,1-.6,1-.6V34.87s-.14-.6-1-.6h-29.7c-.9,0-1,.6-1,.6v5.44s.13.6,1,.6m33.42,19.52v-5.1s-.14-.6-1-.6h-34.8c-.9,0-1,.6-1,.6v5.1s.13.6,1,.6h34.8c.9,0,1-.6,1-.6" transform="translate(0 -20.36)"/><path class="cls-1" d="M426.22,20.7h46.37a21.7,21.7,0,0,1,5.1.6,16.41,16.41,0,0,1,4.66,1.9,12.92,12.92,0,0,1,3.54,3.29,7.83,7.83,0,0,1,1.38,4.4V64.82a7.35,7.35,0,0,1-1.47,4.49,11.43,11.43,0,0,1-3.45,3.29,14.16,14.16,0,0,1-4.66,1.9,21.39,21.39,0,0,1-5.1.69H426.22a27.15,27.15,0,0,1-5.35-.61,14.07,14.07,0,0,1-4.58-1.81,10.18,10.18,0,0,1-3.45-3.2,8.25,8.25,0,0,1-1.3-4.75V30.89h0a8.15,8.15,0,0,1,1.3-4.66A10.84,10.84,0,0,1,416.2,23,18.07,18.07,0,0,1,421,21.22a26.14,26.14,0,0,1,5.26-.52m40.33,40.58c.9,0,1-.6,1-.6V35.12s-.13-.6-1-.6H432.18c-.9,0-1,.6-1,.6V60.68s.14.6,1,.6h34.37" transform="translate(0 -20.36)"/></svg>