<?xml version="1.0" encoding="UTF-8"?><svg id="Calque_1" xmlns="http://www.w3.org/2000/svg" viewBox="0 0 12.66 4.05"><defs><style>.cls-1{fill:#fff;}</style></defs><path class="cls-1" d="M11.97.01h-3.39c-.5,0-.94.32-1.09.8l-.29.9c-.14.42.18.86.62.86h2.71l-.12.4h-3.33L6.5.18c-.02-.1-.1-.17-.2-.17h-.84c-.11,0-.21.05-.29.13l-2.39,2.79c-.05.06-.12.09-.19.09h-.35c-.09,0-.15-.09-.13-.17l.59-1.83h1.33L4.86.01H.33l-.33,1.01h1.48l-.83,2.55c-.08.24.1.48.35.48h1.85c.18,0,.35-.08.47-.21l2.12-2.47.35,1.65h-1.39l-.87,1.03h7c.13,0,.27-.01.41-.04.14-.03.27-.07.39-.13.12-.06.23-.14.33-.23.1-.1.17-.22.21-.36l.76-2.42c.14-.43-.19-.87-.64-.87h-.02ZM12.33.79l-.76,2.43c-.03.09-.07.17-.13.23-.07.07-.16.13-.25.18-.1.05-.21.08-.32.11-.12.02-.24.04-.35.04h-3.27l-.11-.52h3.26c.14,0,.26-.09.3-.22l.14-.5c.04-.13-.06-.25-.19-.25h-2.72c-.3,0-.51-.29-.42-.57l.26-.81c.11-.36.44-.6.82-.6h3.38c.12,0,.24.05.32.15.07.1.1.22.06.34h-.02Z"/><path class="cls-1" d="M11.02.9h-2.05c-.16,0-.22.08-.24.15l-.13.42s-.02.09,0,.14c.03.06.09.08.18.08h2.1c.06,0,.15-.06.19-.17h0c.03-.08.07-.23.11-.34l.02-.06c.03-.08,0-.14-.02-.16-.05-.06-.13-.06-.16-.06ZM10.81,1.4h-1.89l.07-.21h1.89c-.02.08-.05.16-.07.21Z"/></svg>