<?xml version="1.0" encoding="UTF-8"?><svg id="Calque_1" xmlns="http://www.w3.org/2000/svg" viewBox="0 0 14.8 4.05"><defs><style>.cls-1{fill:#fff;}</style></defs><path class="cls-1" d="M10.32.13c-.06-.08-.15-.13-.24-.13h-1.19l-1.39.52.11.52h.98s-1.02,3.01-1.02,3.01h1.3c.16,0,.29-.1.35-.25l1.14-3.41c.03-.09.02-.19-.04-.27ZM10.1.31l-1.15,3.41s-.05.06-.09.06h-.93s1.02-2.99,1.02-2.99h-1.08s-.03-.15-.03-.15l1.1-.37h1.13s.02,0,.02.01c0,0,0,.02,0,.03Z"/><path class="cls-1" d="M11.59,3.55h-1.44l.08-.25h.79l.17-.51h-.79l.08-.26h1.44s.06-.02.07-.05l.12-.37s-.02-.08-.06-.08h-1.91c-.05,0-.1.03-.12.09l-.58,1.73c-.04.11.04.21.15.21h1.83s.05-.02.06-.04l.13-.41s-.01-.06-.04-.06Z"/><path class="cls-1" d="M14.29,2.03c-.07,0-.12.04-.14.1l-.22.66h-1.14l.25-.77h-.49c-.08,0-.14.05-.17.12l-.62,1.9h.54s.08-.03.1-.07l.22-.68h1.14l-.24.75h.52c.06,0,.11-.04.13-.09l.63-1.94h-.5Z"/><path class="cls-1" d="M6.31,0h-.85c-.11,0-.21.05-.29.13l-2.4,2.8c-.05.06-.12.09-.19.09h-.35c-.09,0-.16-.09-.13-.18l.6-1.83h1.33l.84-1.01H.33l-.33,1.01h1.48l-.83,2.56c-.08.24.1.48.35.48h1.85c.18,0,.35-.08.47-.21l2.13-2.47.35,1.66h-1.39l-.88,1.03h3.79L6.52.17c-.02-.1-.1-.17-.2-.17Z"/></svg>