<?xml version="1.0" encoding="UTF-8"?><svg id="Calque_1" xmlns="http://www.w3.org/2000/svg" viewBox="0 0 24.24 4.05"><defs><style>.cls-1{fill:#fff;}</style></defs><path class="cls-1" d="M18.88,2.14c.1-.31-.13-.63-.46-.63h-2.95s-.04-.03-.03-.05l.1-.3s.03-.05.06-.05h3.59S19.56,0,19.56,0h-4.44c-.24,0-.45.15-.53.38l-.46,1.35c-.05.14-.07.27-.06.36,0,.1.04.18.08.24.05.06.11.11.19.14.08.03.16.05.25.05h2.85s.03.01.03.03l-.1.39s-.03.02-.05.02h-3.62s-.37,1.07-.37,1.07h4.15c.47,0,.88-.3,1.03-.75l.37-1.16ZM17.49,3.78h-3.79l.2-.53h3.43c.18,0,.27-.11.3-.2h0s.1-.39.1-.39c.03-.09.01-.19-.04-.27-.06-.08-.15-.12-.24-.12h-2.9c-.15,0-.26-.14-.21-.28l.51-1.52c.04-.12.15-.2.27-.2h4.08l-.2.58h-3.39c-.15,0-.27.1-.32.23l-.14.45c-.04.12.05.25.18.25h3.09c.07,0,.14.04.18.1.04.06.04.13.02.19l-.37,1.15c-.11.34-.42.57-.77.57Z"/><path class="cls-1" d="M12.59.47c-.02-.09-.06-.17-.12-.24-.06-.07-.13-.12-.22-.16-.09-.04-.18-.06-.28-.06h-4.01s0,0,0,0l-.42,1.22h3.36s-.08.24-.08.24h-3.34s0,0,0,0l-.39,1.13h3.45s-.08.24-.08.24h-3.37L6.52.17c-.02-.1-.1-.17-.2-.17h-.85c-.11,0-.21.05-.29.13l-2.4,2.8c-.05.06-.12.09-.19.09h-.35c-.09,0-.16-.09-.13-.18l.59-1.83h1.33l.84-1.01H.33l-.33,1.01h1.48l-.83,2.56c-.08.24.1.48.35.48h1.85c.18,0,.35-.08.47-.21l2.13-2.47.35,1.66h-1.39l-.88,1.03h3.79,0s3.63,0,3.63,0c.3,0,.56-.19.66-.47l.97-2.84c.03-.09.04-.19.01-.28ZM12.31.66l-.97,2.83c-.06.17-.22.29-.4.29h-3.68l-.14-.68h3.5l.27-.78h-3.45s.2-.58.2-.58h3.35s.27-.79.27-.79h-3.36s.23-.67.23-.67h3.82c.06,0,.11,0,.16.03.05.02.1.06.13.1.03.04.05.08.06.12,0,.04,0,.08,0,.13Z"/><path class="cls-1" d="M13.37,3.11s-.02-.05-.05-.08c-.02-.02-.05-.03-.08-.04-.03,0-.06-.01-.1-.01h-.79s-.07,0-.11.01c-.04,0-.07.02-.11.04-.03.02-.06.04-.09.07-.03.03-.05.06-.06.1l-.22.63s-.02.07-.01.1c0,.03.02.06.05.08.02.02.05.03.09.04.03,0,.07.01.1.01h.79s.07,0,.11-.01c.04,0,.07-.02.11-.04.03-.02.06-.04.09-.06.03-.03.05-.06.06-.09l.22-.63s.02-.07,0-.1ZM12.92,3.66c-.02.07-.09.12-.16.12h-.7l.16-.47c.02-.05.08-.09.13-.09h.72l-.15.45Z"/><path class="cls-1" d="M21.19,2.98c0-.05-.02-.09-.05-.12-.03-.03-.06-.05-.1-.07-.04-.01-.09-.02-.13-.02h-1.36s-.03,0-.02-.01l.08-.23s0,0,0,0c0,0,.01,0,.02,0h1.75l.17-.51h-2.08s-.07.01-.11.03c-.04.02-.09.05-.13.08-.04.03-.08.06-.11.1-.03.04-.05.07-.06.1l-.18.57c-.02.07-.03.13-.03.18,0,.05.02.09.04.12.02.03.05.06.09.07.04.02.08.02.13.03h1.38s.02,0,.02.01l-.08.23s-.01.01-.03.01h-1.74l-.17.51h2.08s.07,0,.12-.03c.04-.02.08-.04.13-.08.04-.03.08-.06.11-.1.03-.04.05-.07.06-.1l.18-.57c.02-.07.03-.14.03-.19Z"/><polygon class="cls-1" points="23.62 2 23.36 2.77 22.21 2.77 22.46 2 21.84 2 21.17 4.05 21.79 4.05 22.04 3.29 23.2 3.29 22.95 4.05 23.57 4.05 24.24 2 23.62 2"/></svg>