<?xml version="1.0" encoding="UTF-8"?><svg id="a" xmlns="http://www.w3.org/2000/svg" viewBox="0 0 168.93 30.55"><defs><style>.b{fill:#fff;}</style></defs><path class="b" d="M168.91,0h-9.61l-3.8,11.06h-17.44L141.94,0h-9.64l-4.88,13.95c-.2,.68-.25,1.35-.15,2.01,.1,.66,.32,1.24,.66,1.74,.34,.5,.78,.91,1.32,1.23,.54,.32,1.15,.48,1.83,.48h21.53l-3.55,10.34c-.16,.52,.02,.78,.54,.78h8.42c.32,0,.36-.11,.48-.42L168.93,.03s0-.02-.02-.02Zm-11.9,28.55h-5.35l3.82-11.12h-24.32c-.32,0-.59-.07-.82-.2-.29-.17-.51-.38-.69-.64-.17-.25-.28-.55-.34-.92-.06-.37-.03-.74,.08-1.13l4.39-12.54h5.4l-3.86,11.06h21.71l.44-1.4c.55-1.76,1.15-3.52,1.8-5.24,.54-1.44,1.06-2.93,1.54-4.42h5.38l-9.18,26.56Z"/><path class="b" d="M62.8,0h-12.78c-.56,0-1.09,.28-1.41,.74l-9.23,13.41,.17-13.31c0-.46-.36-.83-.82-.83h-11.9c-.77,0-1.49,.34-1.99,.93L0,30.51H15.28l12.99-15.58v15.59h12.93l10.45-15.66-.06,15.69h12.45l.17-29.12C64.23,.64,63.59,0,62.8,0Z"/><path class="b" d="M70.99,.32c-.82,.21-1.55,.56-2.2,1.03-.65,.47-1.18,1.07-1.57,1.79-.39,.72-.59,1.58-.59,2.6V24.82c0,1.01,.2,1.88,.59,2.59,.39,.72,.91,1.31,1.57,1.79,.65,.47,1.39,.82,2.2,1.03,.82,.21,1.67,.32,2.55,.32h24.72v-8.26h-19.67c-.66,0-1.19-.53-1.19-1.19V9.47c0-.67,.54-1.21,1.21-1.21h19.65V0h-24.72c-.88,0-1.73,.11-2.55,.32Z"/><path class="b" d="M111.95,22.29c-.41,0-.75-.33-.75-.75V.75c0-.41-.33-.75-.75-.75h-8.59c-.41,0-.75,.33-.75,.75V25.84c0,2.6,2.11,4.71,4.71,4.71h26.7v-8.26h-20.58Z"/></svg>