<?xml version="1.0" encoding="UTF-8"?><svg id="a" xmlns="http://www.w3.org/2000/svg" viewBox="0 0 169.71 30.55"><defs><style>.b{fill:#fff;}</style></defs><path class="b" d="M169.59,3.6c-.16-.67-.47-1.29-.91-1.83-.44-.53-1-.96-1.66-1.28-.67-.32-1.39-.48-2.17-.48h-29.66l-3.2,9.4h24.65l-.52,1.51h-18.11c-.74,0-1.98,.15-2.81,.45-.8,.29-1.58,.67-2.32,1.14-.75,.48-1.41,1.03-1.97,1.63-.57,.61-.97,1.24-1.2,1.88l-2.16,6.27h-15.59c-.41,0-.75-.33-.75-.75V.75c0-.41-.33-.75-.75-.75h-8.59c-.41,0-.75,.33-.75,.75V25.84c0,2.6,2.11,4.71,4.71,4.71h55.2l3.2-9.41h-24.65l.52-1.51h18.55c.75,0,1.55-.15,2.37-.45,.8-.29,1.58-.67,2.32-1.14,.74-.47,1.4-1.02,1.97-1.63,.59-.64,1.01-1.31,1.24-1.99l2.99-8.67,.02-.06c.19-.7,.2-1.41,.03-2.1Zm-1.98,1.54l-2.97,8.62c-.14,.42-.41,.84-.81,1.27-.45,.48-.98,.92-1.58,1.3-.61,.39-1.25,.71-1.91,.94-.61,.22-1.18,.33-1.69,.33h-19.99l-1.92,5.55h24.66l-1.83,5.36h-32.05l.16-.47,3.07-8.89,.75-2.17c.13-.36,.5-1.07,.88-1.48,.44-.48,.97-.91,1.58-1.3,.61-.39,1.26-.71,1.91-.94,.62-.22,1.69-.33,2.19-.33h19.49l1.92-5.55h-24.66l1.83-5.36h28.22c.46,0,.9,.1,1.29,.28,.39,.19,.72,.44,.98,.75,.24,.29,.41,.64,.5,1.01,.08,.35,.08,.7-.01,1.07Z"/><path class="b" d="M62.8,0h-12.78c-.56,0-1.09,.28-1.41,.74l-9.23,13.41,.17-13.31c0-.46-.36-.83-.82-.83h-11.9c-.77,0-1.49,.34-1.99,.93L0,30.51H15.28l12.99-15.58v15.59h12.93l10.45-15.66-.06,15.69h12.45l.17-29.12C64.23,.64,63.59,0,62.8,0Z"/><path class="b" d="M97.74,0h-24.2c-.88,0-1.73,.11-2.55,.32-.82,.21-1.55,.56-2.2,1.03-.65,.47-1.18,1.07-1.57,1.79-.39,.72-.59,1.58-.59,2.6V24.82c0,1.01,.2,1.88,.59,2.59,.39,.72,.91,1.31,1.57,1.79,.65,.47,1.39,.82,2.2,1.03,.82,.21,1.67,.32,2.55,.32h24.2c.28,0,.52-.23,.52-.52v-7.23c0-.28-.23-.52-.52-.52h-19.15c-.66,0-1.19-.53-1.19-1.19V9.47c0-.67,.54-1.21,1.21-1.21h19.14c.28,0,.52-.23,.52-.51V.52c0-.28-.23-.52-.52-.52Z"/></svg>