<svg id="Calque_1" data-name="Calque 1" xmlns="http://www.w3.org/2000/svg" viewBox="0 0 474.03 76.26"><defs><style>.cls-1{fill:#fff;}</style></defs><title>11MWR</title><path class="cls-1" d="M115.37,456.11l17-56.21H114.8l1.07-2.75,16.4-7.69,0,0c.88-.44,3.4-1.67,4.48-2a13.24,13.24,0,0,1,3.41-.32H160a5,5,0,0,1,2.12.35c.21.69-.26,3-1,4.88l0,.07-14.65,48.1-13.1,15.62ZM283,383.86H258s-3.59-.15-5.12.69a11.43,11.43,0,0,0-3,2.84L228.14,419l.46-31s.27-2.32-.65-3.16a5.07,5.07,0,0,0-3.35-.91H197.88a14.47,14.47,0,0,0-3.62.46,7.57,7.57,0,0,0-2.38,2.15L152,433.78l12.25-40.25c.53-1.33,2-5.47.83-7.72-.91-1.78-3.3-2.16-5.15-2.16H141.26c-.13,0-.52,0-1.06,0a15.4,15.4,0,0,0-4.51.5,52.13,52.13,0,0,0-4.91,2.22l-17.62,8.27-3.4,8.72h18l-17,56.2h19.64l-.13.16,38-.11,32.27-38.7v38.71H232.6l26-38.86-.16,39h30.91l.48-68.3s.19-4.45-1-5.95-5.85-1.61-5.85-1.61" transform="translate(-55.59 -383.64)"/><path class="cls-1" d="M508.22,435.12c31,0,26.41-50.87-5.86-50.88l-81.12.19s-4.2-.12-5.64,1.17a75.76,75.76,0,0,0-5.13,5.63L384.8,422.48V384.2H353.6l-25.26,38.42.16-38.51h-30l-.17,70.85s-.25,2.75.89,3.76a5.36,5.36,0,0,0,3.29,1.2l26.74-.06s3.81-.5,5.5-1.57a11.49,11.49,0,0,0,2.81-3.27L358,424.34l-.13,29s-.18,3.11,1.05,4.42,4.15,2.11,4.15,2.11h22.77a23.31,23.31,0,0,0,5-1.34c1.87-.89,4.24-3.77,4.24-3.77L437.61,403h61c13.49,0,12.65,14.55,0,14.55H478l-33.82.28-33.48,42h32.76l18.32-24.07H479.7l19.85,24.07h30.07Z" transform="translate(-55.59 -383.64)"/><path class="cls-1" d="M106.86,392.34l0,.07-19.4,63.72H61.19l17-56.2H60.61l1.07-2.75,16.4-7.7,0,0c.88-.44,3.4-1.67,4.49-2a13.1,13.1,0,0,1,3.4-.33c.55,0,.94,0,.95,0h18.8a5,5,0,0,1,2.12.35c.2.69-.27,3-1,4.88m4-6.51c-.91-1.79-3.31-2.16-5.15-2.16H87.07c-.13,0-.52,0-1.06,0a14.93,14.93,0,0,0-4.5.51,52.13,52.13,0,0,0-4.91,2.22L59,394.65l-3.39,8.72h18l-17,56.2H90l20.1-66c.52-1.33,2-5.47.83-7.72" transform="translate(-55.59 -383.64)"/></svg>