<?xml version="1.0" encoding="UTF-8"?><svg id="Calque_1" xmlns="http://www.w3.org/2000/svg" viewBox="0 0 12.76 4.06"><defs><style>.cls-1{fill:#fff;}</style></defs><path class="cls-1" d="M12.74.47c-.02-.09-.06-.17-.12-.24-.06-.07-.13-.12-.22-.16s-.18-.06-.28-.06h-4.01l-.42,1.22h3.36l-.08.24h-3.34l-.39,1.13h3.45l-.08.24h-3.51L6.52.17c-.02-.1-.11-.17-.21-.17h-.85c-.1,0-.21.05-.28.13l-2.4,2.8c-.05.06-.12.09-.19.09h-.35c-.09,0-.16-.09-.13-.18l.59-1.83h1.33l.85-1.01H.33l-.33,1.01h1.48l-.83,2.56c-.08.24.1.48.35.48h1.85c.18,0,.35-.08.47-.21l2.13-2.47.35,1.66h-1.39l-.88,1.03h7.57c.3,0,.56-.19.66-.47l.97-2.84c.03-.09.04-.19.01-.28ZM12.46.66l-.97,2.84c-.06.17-.22.29-.4.29h-3.83l-.14-.68h3.65l.27-.79h-3.45l.2-.58h3.35l.27-.79h-3.37l.23-.67h3.83c.06,0,.11,0,.16.03.05.02.1.06.13.1s.05.08.06.12v.13h0Z"/></svg>