<?xml version="1.0" encoding="UTF-8"?><svg id="a" xmlns="http://www.w3.org/2000/svg" viewBox="0 0 169.16 30.55"><defs><style>.b{fill:#fff;}</style></defs><path class="b" d="M62.8,0h-12.78c-.56,0-1.09,.28-1.41,.74l-9.23,13.41,.17-13.31c0-.46-.36-.83-.82-.83h-11.9c-.77,0-1.49,.34-1.99,.93L0,30.51H15.28l12.99-15.58v15.59h12.93l10.45-15.66-.06,15.69h12.45l.17-29.12C64.23,.64,63.59,0,62.8,0Z"/><path class="b" d="M70.99,.32c-.82,.21-1.55,.56-2.2,1.03-.65,.47-1.18,1.07-1.57,1.79-.39,.72-.59,1.58-.59,2.6V24.82c0,1.01,.2,1.88,.59,2.59,.39,.72,.91,1.31,1.57,1.79,.65,.47,1.39,.82,2.2,1.03,.82,.21,1.67,.32,2.55,.32h24.72v-8.26h-19.67c-.66,0-1.19-.53-1.19-1.19V9.47c0-.67,.54-1.21,1.21-1.21h19.65V0h-24.72c-.88,0-1.73,.11-2.55,.32Z"/><path class="b" d="M169.03,3.28c-.15-.57-.42-1.11-.79-1.59-.36-.47-.8-.87-1.3-1.18-.55-.34-1.12-.51-1.71-.51h-26.46c-.56,.01-1.17,.17-1.86,.48-.62,.28-1.23,.64-1.83,1.08-.59,.43-1.13,.92-1.58,1.44-.5,.57-.82,1.12-.96,1.65l-2.9,8.84c-.11,.34-.02,.71,.23,.96l.72,.72-1.1,.59c-.33,.18-.58,.49-.68,.85l-1.92,5.68h-14.94c-.41,0-.75-.33-.75-.75V.75c0-.41-.33-.75-.75-.75h-8.59c-.41,0-.75,.33-.75,.75V25.84c0,2.6,2.11,4.71,4.71,4.71h51.56c2.28,0,4.29-1.53,4.88-3.73l2.94-9.31,.05-.17c.13-.5,.27-1.02-.02-1.48l-.14-.23,.22-.16c.31-.23,.54-.51,.68-.85l.05-.12c.1-.22,.19-.44,.28-.72,.12-.35,.25-.79,.39-1.31l2.34-7.44c.15-.56,.14-1.15-.02-1.75Zm-1.93,1.2l-2.34,7.43v.04c-.14,.47-.25,.86-.36,1.17-.07,.2-.14,.38-.23,.57l-.06,.13-1.98,1.45,1.19,1.37c-.02,.06-.08,.3-.08,.3l-2.93,9.3v.04c-.37,1.32-1.57,2.24-2.94,2.24h-27.92c-.41,0-.81-.11-1.16-.33h0c-.57-.35-.83-1.04-.65-1.68l2.94-9.02c.11-.38,.36-.69,.71-.88l2.06-1.13-1.42-1.39c-.18-.17-.24-.43-.16-.67,.55-1.67,2.71-8.24,2.71-8.24v-.04c.03-.1,.14-.38,.53-.82,.36-.41,.78-.79,1.26-1.14,.48-.35,.97-.64,1.47-.87,.41-.19,.76-.28,1.02-.28h26.46c.21-.01,.42,.05,.64,.19,.29,.18,.55,.41,.76,.69,.2,.27,.35,.56,.43,.87,.07,.26,.08,.48,.03,.69Z"/><path class="b" d="M155.62,17.98h-18.6c-.68,0-1.1,.46-1.23,.92l-1.09,3.58c-.06,.16-.19,.58,.07,.99,.16,.26,.5,.56,1.23,.56h17.88c1.04,0,1.57-.6,1.7-1.12l.08-.27c.24-.79,.89-2.92,1.01-3.34,.1-.34,.05-.66-.14-.92-.2-.27-.53-.42-.92-.42Zm-1.88,4.03h-16.78l.61-2.01h16.78c-.22,.72-.47,1.55-.61,2.01Z"/><path class="b" d="M157.56,6.53h-15.55s-.07,0-.11,0c-.73,0-1.33,.41-1.55,1.07-.15,.45-.65,2.16-1.07,3.65l-.02,.08c-.05,.27,0,.67,.26,.99,.17,.2,.5,.45,1.07,.45h1.71c2.09-.01,7.34-.02,10.06-.02,2.21,0,3.43,0,3.63,.02,.05,0,.09,0,.13,0,.76,0,1.29-.51,1.52-.95l.05-.13c.94-2.87,1.09-3.63,1.1-3.83,.03-.73-.59-1.2-1.22-1.34Zm-1.69,4.21c-.33,0-1.18-.01-3.52-.01-2.72,0-7.98,.01-10.07,.02h-.76c.27-.95,.5-1.74,.64-2.19h14.38c-.13,.46-.34,1.16-.68,2.19Z"/></svg>